<?xml version="1.0" encoding="UTF-8"?> <svg xmlns="http://www.w3.org/2000/svg" width="126" height="100" viewBox="0 0 126 100" fill="none"> <path d="M16.6173 100C20.7696 100 24.8218 98.5445 28.0312 95.9014C31.5236 93.0244 33.7413 88.9835 34.4436 84.2174L34.5117 83.7603L34.8884 83.7576C35.7206 83.7524 36.5527 83.7497 37.3849 83.7497C42.9992 83.7497 106.269 83.868 111.385 84.1071C111.992 84.136 112.496 84.1491 112.975 84.1491C115.155 84.1491 118.296 83.8916 120.39 81.6715C123.783 78.072 123.31 72.5466 122.853 67.1999C122.714 65.5814 122.584 64.055 122.557 62.5757C122.435 56.1308 122.514 49.5807 122.591 43.2435C122.638 39.355 122.686 35.3377 122.689 31.3861C122.689 29.5575 122.725 27.6947 122.757 25.8949C122.799 23.5934 122.844 21.2103 122.818 18.8904C122.772 14.5552 121.554 11.5836 118.99 9.53953L118.905 9.47123L118.851 9.36613C116.634 5.00469 111.864 4.09036 108.255 4.09036H108.087C104.681 4.11663 42.663 4.14554 38.715 4.14554C37.3593 4.14554 36.0036 4.1429 34.6479 4.13502C31.0448 4.114 27.4417 4.0851 23.8385 4.0562C21.3485 4.03518 18.8584 4.0168 16.3684 3.99841C15.5341 3.99315 14.6977 3.95899 13.8102 3.9222C12.844 3.88279 11.8458 3.84338 10.8604 3.84338C9.07056 3.84338 6.74438 3.95636 4.63315 4.84704C0.440482 6.61264 -0.180989 12.5374 0.0382214 17.1983C0.536233 27.8287 0.485164 37.9993 0.36811 46.5487C0.348955 47.9491 0.319162 49.3469 0.289367 50.8261C0.112722 59.2285 -0.0681665 67.9145 1.68552 75.597C2.71985 80.1266 6.66776 80.7519 10.7796 80.7519C11.3606 80.7519 11.9288 80.7388 12.4779 80.7283C12.7035 80.723 12.9248 80.7177 13.1398 80.7151L13.6165 80.7073L13.5995 81.2932C13.4505 86.4139 12.0842 93.1662 6.42725 96.256C6.38043 96.2823 6.3783 96.2955 6.3783 96.3401C6.38256 96.4636 6.46771 96.6239 6.55284 96.6607C6.57199 96.6686 6.58902 96.6764 6.60604 96.6817C6.62946 96.6922 6.65499 96.7001 6.6784 96.7106L6.72308 96.7316L6.76353 96.7631C9.5558 98.8808 12.9631 100 16.6173 100Z" fill="#FFDE6B"></path> <path d="M19.284 96.7079C23.4362 96.7079 27.4884 95.2524 30.6979 92.6092C34.1903 89.7323 36.408 85.6914 37.1103 80.9253L37.1784 80.4682L37.5551 80.4655C38.3872 80.4603 39.2194 80.4576 40.0516 80.4576C45.6659 80.4576 108.936 80.5759 114.052 80.815C114.659 80.8439 115.163 80.857 115.642 80.857C117.821 80.857 120.963 80.5995 123.057 78.3794C126.449 74.7799 125.977 69.2545 125.519 63.9078C125.381 62.2893 125.251 60.7628 125.223 59.2836C125.102 52.8387 125.181 46.2886 125.257 39.9514C125.304 36.0629 125.353 32.0456 125.355 28.094C125.355 26.2654 125.392 24.4026 125.423 22.6028C125.466 20.3012 125.511 17.9182 125.485 15.5983C125.438 11.2631 124.221 8.29152 121.656 6.24742L121.571 6.17912L121.518 6.07402C119.3 1.71257 114.531 0.798243 110.922 0.798243H110.753C107.348 0.824517 45.3296 0.853424 41.3817 0.853424C40.026 0.853424 38.6703 0.850786 37.3146 0.842904C33.7115 0.821885 30.1083 0.792987 26.5052 0.764086C24.0151 0.743067 21.5251 0.724683 19.035 0.706292C18.2007 0.701037 17.3643 0.666871 16.4768 0.630088C15.5106 0.590677 14.5125 0.55127 13.5271 0.55127C11.7372 0.55127 9.41103 0.664249 7.2998 1.55493C3.10713 3.32053 2.48566 9.24526 2.70487 13.9062C3.20288 24.5366 3.15182 34.7072 3.03476 43.2566C3.01561 44.657 2.98581 46.0548 2.95602 47.534C2.77937 55.9364 2.59848 64.6224 4.35217 72.3049C5.3865 76.8345 9.33442 77.4598 13.4462 77.4598C14.0272 77.4598 14.5955 77.4467 15.1446 77.4362C15.3701 77.4309 15.5915 77.4256 15.8064 77.423L16.2832 77.4151L16.2662 78.001C16.1172 83.1218 14.7508 89.8741 9.09391 92.9639C9.04709 92.9902 9.04496 93.0034 9.04496 93.048C9.04922 93.1715 9.13436 93.3318 9.21949 93.3686C9.23865 93.3765 9.25568 93.3843 9.2727 93.3896C9.29611 93.4001 9.32164 93.408 9.34505 93.4185L9.38973 93.4395L9.43019 93.471C12.2225 95.5887 15.6298 96.7079 19.284 96.7079Z" fill="white"></path> <path d="M7.07797 1.03237C10.7577 -0.515156 15.1356 0.128543 18.9622 0.154817C25.0553 0.196855 31.1464 0.254662 37.2396 0.291445C42.3666 0.320346 105.334 0.286195 110.461 0.246785C114.53 0.215256 119.338 1.31087 121.61 5.78266C124.499 8.08424 125.601 11.3842 125.648 15.5959C125.693 19.7445 125.522 23.9378 125.518 28.0995C125.514 38.4882 125.188 48.8873 125.386 59.2759C125.507 65.7235 127.676 73.913 123.062 78.8078C120.585 81.4352 116.813 81.5219 113.747 81.3774C107.604 81.0884 43.6307 80.9885 37.4822 81.028C35.2709 96.0276 18.9175 101.377 9.11898 93.9494C9.07429 93.931 9.02959 93.9152 8.9849 93.8942C8.52732 93.6866 8.27618 92.7565 8.83165 92.4544C13.6585 89.8191 15.5548 84.1466 15.7357 77.9828C11.4898 78.0564 5.22214 78.5188 3.83877 72.4601C1.75308 63.3352 2.37878 52.6103 2.50435 43.2516C2.63843 33.4305 2.63419 23.7407 2.17449 13.9433C1.94251 8.96178 2.67674 2.88466 7.07797 1.03237ZM36.3308 80.0952C36.3372 80.0506 36.3542 80.0243 36.3649 79.9875C36.3691 79.9639 36.3776 79.9455 36.384 79.9218C36.4074 79.8509 36.433 79.7878 36.467 79.7379C36.499 79.6854 36.5415 79.6486 36.5841 79.6092C36.5883 79.6065 36.5926 79.6013 36.5969 79.5987C36.6905 79.5146 36.8012 79.4542 36.948 79.4515C41.9111 79.4148 104.714 79.4252 109.675 79.5934C113.708 79.7326 118.224 80.7074 121.853 77.9592C126.752 74.2467 124.205 64.3073 124.096 58.5718C123.928 49.7543 124.169 40.9237 124.226 32.1089C124.254 28.0102 124.164 23.9141 124.177 19.8181C124.19 15.7036 124.648 11.8729 122.63 8.90398C122.924 10.6065 122.909 12.3984 122.821 14.1167C122.655 17.3641 122.749 20.5958 122.753 23.8511C122.768 34.5603 122.417 45.2799 122.621 55.9865C122.743 62.434 124.911 70.6235 120.297 75.5183C117.82 78.1457 114.049 78.2324 110.982 78.0879C104.84 77.7989 40.8683 77.6991 34.7219 77.7385C33.132 88.7682 24.4701 95.3314 15.8059 95.334C24.6041 97.2257 34.9006 91.6609 36.3308 80.0952ZM3.4876 14.6842C3.86643 22.7686 3.98989 30.7663 3.85368 38.8744C3.68768 48.8216 3.50464 58.8109 4.66454 68.6846C4.90716 70.7628 4.9029 72.8884 6.18624 74.4595C8.46986 77.2577 13.5223 76.3985 16.4593 76.3933C16.985 76.3933 17.1701 77.0317 17.0254 77.4968C16.9339 83.7552 15.176 89.7219 10.8152 92.9431C20.42 96.1301 31.9892 89.6641 33.5641 76.8084C33.5705 76.7637 33.5875 76.7375 33.5981 76.6981C33.6024 76.677 33.6088 76.656 33.6173 76.635C33.6407 76.564 33.6663 76.4984 33.7024 76.4484C33.7322 76.3985 33.7726 76.3617 33.8131 76.325C33.8195 76.3197 33.8237 76.3118 33.8301 76.3092C33.9259 76.2277 34.0344 76.1647 34.1813 76.1647C38.7847 76.1305 101.23 76.1384 105.834 76.2724C109.854 76.388 114.283 77.3706 118.101 75.3581C123.634 72.4391 121.649 63.5086 121.398 57.8677C121.064 50.3245 121.334 42.7104 121.406 35.1645C121.47 28.4805 121.072 21.6257 121.491 14.9653C121.847 9.29807 120.904 4.66864 116.066 2.7165C111.099 0.71182 46.8018 1.8994 41.611 1.88626C31.4635 1.85999 21.2883 1.44487 11.143 1.726C4.60071 1.90466 3.16411 7.77946 3.4876 14.6842Z" fill="#1A1A1A"></path> <path d="M43.3928 31.2695C43.3928 30.6901 43.2431 30.2539 42.9436 29.9609C42.6506 29.6615 42.1135 29.3522 41.3323 29.0332C39.9065 28.4928 38.8811 27.8613 38.2561 27.1387C37.6311 26.4095 37.3186 25.5501 37.3186 24.5605C37.3186 23.3626 37.7418 22.4023 38.5881 21.6797C39.441 20.9505 40.5217 20.5859 41.8303 20.5859C42.7027 20.5859 43.4807 20.7715 44.1643 21.1426C44.8479 21.5072 45.372 22.0247 45.7366 22.6953C46.1077 23.3659 46.2932 24.1276 46.2932 24.9805H43.4319C43.4319 24.3164 43.2887 23.8118 43.0022 23.4668C42.7223 23.1152 42.3153 22.9395 41.7815 22.9395C41.2802 22.9395 40.8896 23.0892 40.6096 23.3887C40.3297 23.6816 40.1897 24.0788 40.1897 24.5801C40.1897 24.9707 40.3459 25.3255 40.6584 25.6445C40.9709 25.957 41.5243 26.2826 42.3186 26.6211C43.7053 27.1224 44.7112 27.7376 45.3362 28.4668C45.9677 29.196 46.2834 30.1237 46.2834 31.25C46.2834 32.487 45.8896 33.4538 45.1018 34.1504C44.314 34.847 43.2431 35.1953 41.8889 35.1953C40.9709 35.1953 40.1344 35.0065 39.3792 34.6289C38.6239 34.2513 38.0315 33.7109 37.6018 33.0078C37.1786 32.3047 36.967 31.4746 36.967 30.5176H39.8479C39.8479 31.3379 40.0074 31.9336 40.3264 32.3047C40.6454 32.6758 41.1663 32.8613 41.8889 32.8613C42.8915 32.8613 43.3928 32.3307 43.3928 31.2695ZM57.4358 20.7812V30.625C57.4228 32.1029 57.0159 33.2357 56.2151 34.0234C55.4143 34.8047 54.2652 35.1953 52.7678 35.1953C51.2444 35.1953 50.079 34.7982 49.2717 34.0039C48.4709 33.2096 48.0706 32.0605 48.0706 30.5566V20.7812H50.9612V30.5664C50.9612 31.3737 51.0914 31.9499 51.3518 32.2949C51.6122 32.64 52.0842 32.8125 52.7678 32.8125C53.4514 32.8125 53.9202 32.6432 54.1741 32.3047C54.428 31.9596 54.5582 31.3965 54.5647 30.6152V20.7812H57.4358ZM62.4846 30V35H59.6135V20.7812H64.4573C65.8635 20.7812 66.9833 21.2174 67.8167 22.0898C68.6565 22.9622 69.0764 24.0951 69.0764 25.4883C69.0764 26.8815 68.663 27.9818 67.8362 28.7891C67.0094 29.5964 65.8635 30 64.3987 30H62.4846ZM62.4846 27.6074H64.4573C65.0042 27.6074 65.4273 27.4284 65.7268 27.0703C66.0263 26.7122 66.176 26.1914 66.176 25.5078C66.176 24.7982 66.023 24.235 65.717 23.8184C65.4111 23.3952 65.0009 23.1803 64.4866 23.1738H62.4846V27.6074ZM78.344 28.8477H73.8713V32.6172H79.1643V35H71.0002V20.7812H79.1448V23.1738H73.8713V26.5332H78.344V28.8477ZM85.1311 29.8047H83.7053V35H80.8342V20.7812H85.4143C86.8531 20.7812 87.9631 21.1556 88.7444 21.9043C89.5321 22.6465 89.926 23.7044 89.926 25.0781C89.926 26.9661 89.2392 28.2878 87.8655 29.043L90.3557 34.8633V35H87.2698L85.1311 29.8047ZM83.7053 27.4121H85.3362C85.9091 27.4121 86.3388 27.2233 86.6252 26.8457C86.9117 26.4616 87.0549 25.9505 87.0549 25.3125C87.0549 23.8867 86.4983 23.1738 85.385 23.1738H83.7053V27.4121ZM50.2678 52.8477H45.7952V56.6172H51.0881V59H42.9241V44.7812H51.0686V47.1738H45.7952V50.5332H50.2678V52.8477ZM59.5354 56.0898H55.6194L54.8577 59H51.8206L56.2639 44.7812H58.8909L63.3635 59H60.2971L59.5354 56.0898ZM56.2444 53.6973H58.9006L57.5725 48.6289L56.2444 53.6973ZM70.7073 55.2695C70.7073 54.6901 70.5575 54.2539 70.2581 53.9609C69.9651 53.6615 69.428 53.3522 68.6467 53.0332C67.2209 52.4928 66.1956 51.8613 65.5706 51.1387C64.9456 50.4095 64.6331 49.5501 64.6331 48.5605C64.6331 47.3626 65.0562 46.4023 65.9026 45.6797C66.7555 44.9505 67.8362 44.5859 69.1448 44.5859C70.0172 44.5859 70.7952 44.7715 71.4788 45.1426C72.1624 45.5072 72.6864 46.0247 73.051 46.6953C73.4221 47.3659 73.6077 48.1276 73.6077 48.9805H70.7463C70.7463 48.3164 70.6031 47.8118 70.3167 47.4668C70.0367 47.1152 69.6298 46.9395 69.0959 46.9395C68.5946 46.9395 68.204 47.0892 67.9241 47.3887C67.6441 47.6816 67.5042 48.0788 67.5042 48.5801C67.5042 48.9707 67.6604 49.3255 67.9729 49.6445C68.2854 49.957 68.8388 50.2826 69.6331 50.6211C71.0198 51.1224 72.0256 51.7376 72.6506 52.4668C73.2821 53.196 73.5979 54.1237 73.5979 55.25C73.5979 56.487 73.204 57.4538 72.4163 58.1504C71.6285 58.847 70.5575 59.1953 69.2034 59.1953C68.2854 59.1953 67.4488 59.0065 66.6936 58.6289C65.9384 58.2513 65.3459 57.7109 64.9163 57.0078C64.4931 56.3047 64.2815 55.4746 64.2815 54.5176H67.1624C67.1624 55.3379 67.3219 55.9336 67.6409 56.3047C67.9599 56.6758 68.4807 56.8613 69.2034 56.8613C70.206 56.8613 70.7073 56.3307 70.7073 55.2695ZM79.7893 51.168L81.928 44.7812H85.053L81.2444 53.8437V59H78.3342V53.8437L74.5159 44.7812H77.6409L79.7893 51.168Z" fill="#1A1A1A"></path> </svg> 