<?xml version="1.0" encoding="UTF-8"?> <svg xmlns="http://www.w3.org/2000/svg" width="197" height="121" viewBox="0 0 197 121" fill="none"> <path d="M168.468 120.833C162.338 120.833 156.356 119.074 151.617 115.881C146.461 112.404 143.188 107.521 142.151 101.762L142.05 101.21L141.494 101.207C140.266 101.201 139.037 101.197 137.808 101.197C129.52 101.197 36.114 101.34 28.5607 101.629C27.6652 101.664 26.9206 101.68 26.2136 101.68C22.9963 101.68 18.3587 101.369 15.267 98.6861C10.2587 94.3368 10.9562 87.6603 11.6318 81.1997C11.836 79.2441 12.0277 77.3995 12.0685 75.6122C12.2476 67.8245 12.1313 59.9099 12.0182 52.2524C11.9491 47.5538 11.8768 42.6996 11.8737 37.9248C11.8737 35.7152 11.8203 33.4643 11.7731 31.2896C11.7103 28.5086 11.6443 25.6291 11.682 22.8258C11.7512 17.5875 13.5484 13.9968 17.3344 11.5269L17.4601 11.4443L17.5386 11.3173C20.8126 6.04728 27.8537 4.94247 33.1825 4.94247H33.4307C38.4579 4.97422 130.016 5.00915 135.845 5.00915C137.846 5.00915 139.848 5.00596 141.849 4.99643C147.168 4.97104 152.488 4.93612 157.807 4.9012C161.483 4.8758 165.159 4.85358 168.835 4.83136C170.067 4.82501 171.302 4.78373 172.612 4.73928C174.039 4.69166 175.512 4.64404 176.967 4.64404C179.609 4.64404 183.043 4.78056 186.16 5.8568C192.35 7.99022 193.267 15.1493 192.944 20.7812C192.209 33.6262 192.284 45.9157 192.457 56.2463C192.485 57.9384 192.529 59.6274 192.573 61.4147C192.834 71.5676 193.101 82.0632 190.512 91.3461C188.985 96.8194 183.156 97.575 177.086 97.575C176.228 97.575 175.39 97.5591 174.579 97.5464C174.246 97.5401 173.919 97.5337 173.602 97.5305L172.898 97.521L172.923 98.229C173.143 104.417 175.16 112.576 183.512 116.309C183.581 116.341 183.584 116.357 183.584 116.411C183.578 116.56 183.452 116.754 183.326 116.798C183.298 116.808 183.273 116.817 183.248 116.823C183.213 116.836 183.175 116.846 183.141 116.858L183.075 116.884L183.015 116.922C178.893 119.481 173.863 120.833 168.468 120.833Z" fill="#44E8AD"></path> <path d="M171.531 116.855C165.401 116.855 159.418 115.097 154.68 111.903C149.524 108.426 146.25 103.544 145.214 97.7847L145.113 97.2323L144.557 97.2291C143.328 97.2228 142.1 97.2196 140.871 97.2196C132.583 97.2196 39.1769 97.3624 31.6236 97.6514C30.7281 97.6863 29.9835 97.7022 29.2765 97.7022C26.0592 97.7022 21.4216 97.391 18.3299 94.7084C13.3216 90.359 14.0191 83.6825 14.6947 77.2219C14.8989 75.2663 15.0906 73.4218 15.1314 71.6344C15.3105 63.8467 15.1942 55.9321 15.0811 48.2746C15.012 43.576 14.9397 38.7218 14.9366 33.947C14.9366 31.7374 14.8832 29.4865 14.836 27.3118C14.7732 24.5308 14.7072 21.6513 14.7449 18.848C14.8141 13.6097 16.6113 10.019 20.3973 7.54909L20.523 7.46656L20.6015 7.33957C23.8755 2.0695 30.9166 0.964686 36.2454 0.964686H36.4936C41.5208 0.996433 133.079 1.03136 138.908 1.03136C140.909 1.03136 142.911 1.02818 144.912 1.01865C150.231 0.993253 155.551 0.958335 160.87 0.923413C164.546 0.898015 168.222 0.875801 171.898 0.853578C173.13 0.847228 174.365 0.805944 175.675 0.761498C177.101 0.713877 178.575 0.66626 180.03 0.66626C182.672 0.66626 186.106 0.802776 189.223 1.87901C195.413 4.01244 196.33 11.1715 196.007 16.8035C195.271 29.6485 195.347 41.9379 195.52 52.2685C195.548 53.9606 195.592 55.6496 195.636 57.437C195.897 67.5898 196.164 78.0854 193.575 87.3684C192.048 92.8416 186.219 93.5972 180.149 93.5972C179.291 93.5972 178.452 93.5813 177.642 93.5686C177.309 93.5623 176.982 93.5559 176.665 93.5528L175.961 93.5433L175.986 94.2512C176.206 100.439 178.223 108.598 186.574 112.331C186.644 112.363 186.647 112.379 186.647 112.433C186.64 112.582 186.515 112.776 186.389 112.82C186.361 112.83 186.336 112.839 186.31 112.846C186.276 112.858 186.238 112.868 186.204 112.881L186.138 112.906L186.078 112.944C181.956 115.503 176.925 116.855 171.531 116.855Z" fill="white"></path> <path d="M189.551 1.24744C184.119 -0.622479 177.656 0.155323 172.007 0.18707C163.011 0.237866 154.019 0.307716 145.023 0.352162C137.454 0.387085 44.4955 0.345818 36.9265 0.298197C30.9191 0.260101 23.8214 1.58397 20.4658 6.98737C16.2022 9.76843 14.5746 13.7559 14.5055 18.845C14.4395 23.8579 14.6909 28.9248 14.6972 33.9535C14.7035 46.5064 15.1842 59.0721 14.892 71.625C14.7129 79.4158 11.5112 89.3114 18.323 95.2259C21.9802 98.4007 27.5478 98.5054 32.0753 98.3308C41.143 97.9816 135.588 97.861 144.665 97.9086C147.93 116.033 172.072 122.497 186.538 113.522C186.604 113.5 186.67 113.481 186.736 113.455C187.412 113.204 187.782 112.081 186.962 111.716C179.836 108.531 177.037 101.677 176.77 94.2291C183.038 94.3179 192.291 94.8767 194.333 87.5558C197.412 76.5299 196.489 63.5707 196.303 52.2623C196.105 40.3951 196.112 28.6867 196.79 16.8481C197.133 10.8288 196.049 3.48563 189.551 1.24744ZM146.365 96.7816C146.356 96.7276 146.33 96.6958 146.315 96.6514C146.308 96.6228 146.296 96.6006 146.286 96.572C146.252 96.4863 146.214 96.4101 146.164 96.3498C146.117 96.2863 146.054 96.2419 145.991 96.1942C145.985 96.1911 145.979 96.1847 145.972 96.1815C145.834 96.0799 145.671 96.0069 145.454 96.0038C138.127 95.9593 45.4098 95.972 38.0859 96.1752C32.1319 96.3434 25.4647 97.5213 20.1076 94.2005C12.8748 89.7146 16.6357 77.7046 16.796 70.7741C17.0442 60.1197 16.6892 49.4494 16.6043 38.7982C16.5635 33.8456 16.6954 28.8962 16.6766 23.9468C16.6577 18.9752 15.9822 14.3464 18.9608 10.759C18.5272 12.8162 18.5492 14.9813 18.678 17.0576C18.9231 20.9816 18.7849 24.8865 18.7786 28.82C18.7566 41.7602 19.275 54.7131 18.9734 67.6502C18.7943 75.441 15.5926 85.3366 22.4044 91.2512C26.0616 94.4259 31.6292 94.5307 36.1567 94.3561C45.2244 94.0068 139.666 93.8862 148.74 93.9338C151.087 107.261 163.875 115.192 176.666 115.195C163.677 117.481 148.476 110.757 146.365 96.7816ZM194.852 17.7434C194.292 27.512 194.11 37.1759 194.311 46.9731C194.556 58.9927 194.827 71.063 193.114 82.9937C192.756 85.5049 192.762 88.0733 190.868 89.9718C187.496 93.3529 180.037 92.3147 175.701 92.3084C174.925 92.3084 174.652 93.0798 174.866 93.6417C175.001 101.204 177.596 108.414 184.034 112.306C169.854 116.157 152.775 108.344 150.45 92.81C150.44 92.756 150.415 92.7243 150.399 92.6766C150.393 92.6513 150.384 92.6258 150.371 92.6004C150.336 92.5147 150.299 92.4353 150.245 92.375C150.201 92.3147 150.142 92.2703 150.082 92.2258C150.073 92.2195 150.066 92.2099 150.057 92.2068C149.915 92.1083 149.755 92.0322 149.538 92.0322C142.742 91.9909 50.5532 92.0004 43.7572 92.1623C37.822 92.302 31.2836 93.4893 25.6469 91.0575C17.4778 87.5304 20.4093 76.7395 20.78 69.9233C21.2733 60.8086 20.8742 51.6083 20.7674 42.4904C20.6732 34.4139 21.2607 26.131 20.6417 18.0831C20.117 11.2351 21.5089 5.64126 28.6506 3.28244C35.9839 0.860114 130.907 2.2951 138.57 2.27923C153.551 2.24748 168.572 1.74588 183.55 2.08557C193.208 2.30146 195.329 9.40017 194.852 17.7434Z" fill="#1A1A1A"></path> <path d="M49.5156 53.5078H44.8164L43.9023 57H40.2578L45.5898 39.9375H48.7422L54.1094 57H50.4297L49.5156 53.5078ZM45.5664 50.6367H48.7539L47.1602 44.5547L45.5664 50.6367ZM67.6445 57H64.1992L59.1602 45.8086V57H55.7148V39.9375H59.1602L64.2109 51.1406V39.9375H67.6445V57ZM70.4102 57V39.9375H74.9219C76.9141 39.9375 78.5 40.5703 79.6797 41.8359C80.8672 43.1016 81.4727 44.8359 81.4961 47.0391V49.8047C81.4961 52.0469 80.9023 53.8086 79.7148 55.0898C78.5352 56.3633 76.9062 57 74.8281 57H70.4102ZM73.8555 42.8086V54.1406H74.8867C76.0352 54.1406 76.8438 53.8398 77.3125 53.2383C77.7812 52.6289 78.0273 51.582 78.0508 50.0977V47.1328C78.0508 45.5391 77.8281 44.4297 77.3828 43.8047C76.9375 43.1719 76.1797 42.8398 75.1094 42.8086H73.8555ZM96.7188 52.5234C96.7188 51.8281 96.5391 51.3047 96.1797 50.9531C95.8281 50.5938 95.1836 50.2227 94.2461 49.8398C92.5352 49.1914 91.3047 48.4336 90.5547 47.5664C89.8047 46.6914 89.4297 45.6602 89.4297 44.4727C89.4297 43.0352 89.9375 41.8828 90.9531 41.0156C91.9766 40.1406 93.2734 39.7031 94.8438 39.7031C95.8906 39.7031 96.8242 39.9258 97.6445 40.3711C98.4648 40.8086 99.0938 41.4297 99.5312 42.2344C99.9766 43.0391 100.199 43.9531 100.199 44.9766H96.7656C96.7656 44.1797 96.5938 43.5742 96.25 43.1602C95.9141 42.7383 95.4258 42.5273 94.7852 42.5273C94.1836 42.5273 93.7148 42.707 93.3789 43.0664C93.043 43.418 92.875 43.8945 92.875 44.4961C92.875 44.9648 93.0625 45.3906 93.4375 45.7734C93.8125 46.1484 94.4766 46.5391 95.4297 46.9453C97.0938 47.5469 98.3008 48.2852 99.0508 49.1602C99.8086 50.0352 100.188 51.1484 100.188 52.5C100.188 53.9844 99.7148 55.1445 98.7695 55.9805C97.8242 56.8164 96.5391 57.2344 94.9141 57.2344C93.8125 57.2344 92.8086 57.0078 91.9023 56.5547C90.9961 56.1016 90.2852 55.4531 89.7695 54.6094C89.2617 53.7656 89.0078 52.7695 89.0078 51.6211H92.4648C92.4648 52.6055 92.6562 53.3203 93.0391 53.7656C93.4219 54.2109 94.0469 54.4336 94.9141 54.4336C96.1172 54.4336 96.7188 53.7969 96.7188 52.5234ZM114.484 50.0039C114.484 52.293 113.941 54.0703 112.855 55.3359C111.777 56.6016 110.277 57.2344 108.355 57.2344C106.441 57.2344 104.938 56.6094 103.844 55.3594C102.75 54.1016 102.195 52.3438 102.18 50.0859V47.168C102.18 44.8242 102.723 42.9961 103.809 41.6836C104.895 40.3633 106.402 39.7031 108.332 39.7031C110.23 39.7031 111.727 40.3516 112.82 41.6484C113.914 42.9375 114.469 44.75 114.484 47.0859V50.0039ZM111.027 47.1445C111.027 45.6055 110.809 44.4609 110.371 43.7109C109.934 42.9609 109.254 42.5859 108.332 42.5859C107.418 42.5859 106.742 42.9492 106.305 43.6758C105.867 44.3945 105.641 45.4922 105.625 46.9688V50.0039C105.625 51.4961 105.848 52.5977 106.293 53.3086C106.738 54.0117 107.426 54.3633 108.355 54.3633C109.254 54.3633 109.922 54.0195 110.359 53.332C110.797 52.6367 111.02 51.5625 111.027 50.1094V47.1445ZM131.289 50.0391H125.934V57H122.488V39.9375H131.934V42.8086H125.934V47.1797H131.289V50.0391ZM139.797 53.5078H135.098L134.184 57H130.539L135.871 39.9375H139.023L144.391 57H140.711L139.797 53.5078ZM135.848 50.6367H139.035L137.441 44.5547L135.848 50.6367ZM153.203 52.5234C153.203 51.8281 153.023 51.3047 152.664 50.9531C152.312 50.5938 151.668 50.2227 150.73 49.8398C149.02 49.1914 147.789 48.4336 147.039 47.5664C146.289 46.6914 145.914 45.6602 145.914 44.4727C145.914 43.0352 146.422 41.8828 147.438 41.0156C148.461 40.1406 149.758 39.7031 151.328 39.7031C152.375 39.7031 153.309 39.9258 154.129 40.3711C154.949 40.8086 155.578 41.4297 156.016 42.2344C156.461 43.0391 156.684 43.9531 156.684 44.9766H153.25C153.25 44.1797 153.078 43.5742 152.734 43.1602C152.398 42.7383 151.91 42.5273 151.27 42.5273C150.668 42.5273 150.199 42.707 149.863 43.0664C149.527 43.418 149.359 43.8945 149.359 44.4961C149.359 44.9648 149.547 45.3906 149.922 45.7734C150.297 46.1484 150.961 46.5391 151.914 46.9453C153.578 47.5469 154.785 48.2852 155.535 49.1602C156.293 50.0352 156.672 51.1484 156.672 52.5C156.672 53.9844 156.199 55.1445 155.254 55.9805C154.309 56.8164 153.023 57.2344 151.398 57.2344C150.297 57.2344 149.293 57.0078 148.387 56.5547C147.48 56.1016 146.77 55.4531 146.254 54.6094C145.746 53.7656 145.492 52.7695 145.492 51.6211H148.949C148.949 52.6055 149.141 53.3203 149.523 53.7656C149.906 54.2109 150.531 54.4336 151.398 54.4336C152.602 54.4336 153.203 53.7969 153.203 52.5234ZM170.008 42.8086H165.789V57H162.332V42.8086H158.184V39.9375H170.008V42.8086ZM175.211 51.75H172.457L172.07 39.9375H175.598L175.211 51.75ZM172.012 55.3945C172.012 54.8633 172.18 54.4297 172.516 54.0938C172.852 53.75 173.289 53.5781 173.828 53.5781C174.359 53.5781 174.793 53.75 175.129 54.0938C175.465 54.4297 175.633 54.8633 175.633 55.3945C175.633 55.918 175.465 56.3477 175.129 56.6836C174.801 57.0195 174.367 57.1875 173.828 57.1875C173.281 57.1875 172.84 57.0195 172.504 56.6836C172.176 56.3477 172.012 55.918 172.012 55.3945Z" fill="#1A1A1A"></path> </svg> 