<?xml version="1.0" encoding="UTF-8"?> <svg xmlns="http://www.w3.org/2000/svg" width="147" height="311" viewBox="0 0 147 311" fill="none"> <path fill-rule="evenodd" clip-rule="evenodd" d="M63.0908 202.412C62.6609 206.739 61.8498 211.107 61.1986 215.354C61.1724 216.096 60.1473 216.457 59.652 215.905C59.6649 206.25 62.2545 196.344 61.3373 186.487C62.0767 186.076 62.8295 185.621 63.5476 185.167C64.5163 186.44 64.6233 187.91 64.4643 189.244C64.3426 193.646 63.6282 198.035 63.0908 202.412ZM21.7201 143.804L20.6347 143.696C20.1006 134.839 21.602 126.137 23.3555 117.577L24.4466 117.641C24.8315 122.574 27.3614 127.247 26.2028 132.323C25.0951 136.333 22.7481 139.789 21.7201 143.804ZM145.537 99.1942L144.902 99.3295C146.085 97.0939 144.981 96.3583 143.642 94.5101L143.496 94.8459L142.981 93.723C142.878 93.4379 142.774 93.1958 142.491 93.0892C142.215 91.6922 141.393 90.4128 140.299 89.7179L140.089 89.9526C139.656 89.5747 139.133 89.4309 138.635 89.2558C139.703 87.6478 140.391 85.5616 141.111 83.8375C141.698 82.0268 142.615 80.2694 142.788 78.4333C142.649 76.6686 140.976 77.8149 140.16 78.6951C137.667 80.874 135.52 84.325 133.911 88.5159C131.149 87.7995 129.564 88.5555 128.797 92.318C128.09 94.874 127.368 97.4957 127.273 100.146C126.902 100.019 126.244 99.5418 125.888 99.9159C119.748 106.612 112.499 111.771 105.487 117.417C100.189 113.532 97.4315 105.846 94.5175 100.076C89.4339 90.1725 84.3503 75.6738 71.2744 75.7249C69.5415 75.5448 67.8491 75.3383 66.2132 74.8367C65.5798 74.6652 64.7967 74.4586 64.5817 74.075C64.1942 72.8398 64.1208 71.5033 63.4396 70.3705C61.5703 67.3418 57.5203 67.1037 54.3467 67.7613C48.9585 68.7567 49.0941 68.1756 48.7051 73.8243C48.5885 75.1652 47.5457 75.3573 46.4325 75.635C45.1687 76.0322 43.8811 76.3567 42.5821 76.6182C42.717 76.5804 42.8517 76.5431 42.9866 76.5051C21.8983 76.8381 7.89648 101.22 5.11874 118.47C1.89244 136.117 6.06534 155.758 12.6625 170.58C12.3792 175.978 13.4416 181.4 14.1142 186.72C14.5364 188.051 15.9981 188.181 16.4159 186.639L16.9311 184.61L17.4825 186.63C17.8322 187.88 18.3941 188.028 18.8996 188.037C19.5268 188.037 19.8706 187.729 19.8912 186.103L20.93 185.855C21.3303 186.615 21.7278 187.287 22.3567 187.754C23.6214 196.918 24.4153 206.447 27.4851 215.314C28.7093 218.605 30.5891 221.593 31.9697 224.821C25.4603 239.466 24.3691 255.694 22.8061 271.374C22.9318 271.384 23.5779 271.44 23.7158 271.452L37.3048 274.562C37.2094 274.602 36.2621 276.504 35.3201 276.427C31.4562 276.109 22.5575 273.128 22.4389 273.513C22.1106 273.486 20.7407 273.496 20.817 273.809C20.9754 275.651 21.4937 276.965 22.4757 277.924C22.4891 278.22 22.5073 278.521 22.5302 278.801C20.5821 285.576 19.1545 292.799 18.2871 300.247C17.1844 301.305 16.9084 304.783 18.5531 305.711C23.0935 308.827 29.1926 310.307 34.935 309.745C41.1498 309.159 48.5618 306.691 45.5877 299.626C45.5492 299.407 45.2474 299.397 45.0094 299.444C44.4826 298.935 43.9114 298.55 43.2936 298.333C42.0661 295.277 40.962 292.073 39.999 288.874C39.5298 287.405 39.0447 285.886 39.0846 284.275C39.3168 280.319 39.7254 278.683 42.4839 275.567C44.1915 276.385 47.4458 270.459 48.1916 269.215C49.7604 265.535 51.7598 262.19 53.4352 258.58C53.694 257.97 54.5983 257.957 54.9522 258.486C55.1115 258.708 55.1513 258.983 55.0617 259.241C53.6027 263.437 51.6161 267.443 49.6998 271.357C50.3528 273.63 50.6106 277.427 52.2436 279.119C53.1318 285.009 47.0536 287.708 50.9703 294.24C49.6447 294.331 49.5211 294.859 49.5442 296.464C49.5398 297.616 49.5097 298.825 49.7277 299.901C49.992 301.224 51.2171 301.579 53.0561 301.969C54.5464 302.298 55.9814 302.673 57.4603 303.028C58.956 303.523 60.5319 303.483 61.1469 301.975C68.5537 304.477 89.9058 304.191 96.9679 300.875C98.9181 300.097 100.294 299.658 98.5026 297.467C97.5166 291.215 81.4199 295.685 79.1462 288.828C78.8218 287.938 78.3531 287.47 77.441 287.308C77.58 286.6 77.3944 285.814 76.6044 285.61C76.3667 285.54 76.1133 285.521 75.8685 285.298C75.2607 284.051 74.264 283.294 73.1028 282.63C73.577 281.95 73.1937 281.633 72.9803 280.873C72.7637 279.417 73.2614 278.022 73.236 276.607C73.5028 276.161 73.7089 275.536 74.1359 275.226C74.5317 274.948 73.7355 275.308 73.5813 275.001C73.6607 274.931 68.3206 276.758 65.4219 277.085C64.0218 277.243 64.3903 275.58 64.4295 275.549C64.8921 275.042 74.6135 272.84 74.0204 272.783C73.9474 272.538 73.8607 272.255 73.8053 272.012C75.4453 267.099 77.3805 260.72 78.023 253.96C78.6448 243.149 78.0616 234.034 81.3671 223.047C85.9877 205.649 94.9638 189.323 95.085 170.914C94.9308 167.862 95.7797 164.612 95.01 161.617L95.9659 161.122C96.1035 161.28 96.3522 161.276 96.4018 161.061C97.0288 160.047 96.3259 158.83 96.1817 157.72C96.5098 157.37 96.346 157.051 95.95 156.86C91.704 141.923 84.6021 139.741 86.5571 121.071C89.747 127.806 96.8131 134.624 104.602 133.622C112.448 134.79 130.752 115.743 134.287 109.585C134.935 109.635 134.943 109.173 135.041 108.737C138.27 109.115 141.292 106.59 141.352 103.5C144.185 105.25 147.213 102.751 145.712 99.6977C145.653 99.5327 145.593 99.3646 145.537 99.1942Z" fill="#D08B5B"></path> <path fill-rule="evenodd" clip-rule="evenodd" d="M44.4673 298.951L45.231 301.424C45.9163 303.644 45.0972 305.512 43.0013 306.684C36.4889 310.125 27.8962 309.881 20.8822 306.341C20.2882 306.035 19.7137 305.71 19.1604 305.366L18.9951 305.262L18.8567 305.174L18.7871 305.129C18.5008 304.94 18.317 304.77 18.1913 304.529L18.1737 304.494L18.165 304.476L18.1584 304.457C18.1276 304.367 18.0994 304.276 18.0739 304.184L18.0542 304.111L18.0353 304.038C17.9073 303.528 17.8659 303.067 17.8367 302.165L17.8234 301.737L17.7883 300.683L18.4197 301.53C18.6779 301.877 19.0293 302.173 19.6058 302.56L19.8592 302.726L20.3528 303.049L20.3669 303.059C21.6122 303.888 23.0032 304.585 24.5377 305.164C30.0924 307.218 36.4187 306.962 41.3411 304.34L41.4863 304.262L41.8741 304.03L41.9947 303.957C42.7423 303.501 43.1874 303.16 43.533 302.735L43.5594 302.703L43.5855 302.669L43.6896 302.535L43.86 302.541C44.3185 302.559 44.601 302.148 44.5855 301.568L44.5844 301.536L44.4673 298.951ZM50.8021 293.839L51.2796 294.142C56.5917 297.509 61.4378 299.632 66.3789 300.496C69.2002 300.963 72.182 301.091 75.5947 300.948L75.9921 300.93L76.3204 300.914C78.3677 300.81 80.2562 300.639 83.731 300.272L85.0335 300.134L86.6591 299.923L87.3514 299.832C90.4213 299.421 92.3746 299.106 94.4062 298.667L94.6251 298.62L94.6311 298.615C94.6865 298.575 94.7468 298.539 94.8341 298.489L94.9099 298.447C95.1153 298.333 95.1921 298.276 95.2313 298.205L95.2364 298.195L95.3344 297.996L95.6364 298.017L95.6413 298.014C95.7037 297.98 95.767 297.947 95.8313 297.914L95.9286 297.865L96.0274 297.816L96.0684 297.797L96.1855 297.776L96.3118 297.751C96.5473 297.705 96.7736 297.65 97.1081 297.561L97.3753 297.489L97.4731 297.462L97.5692 297.494C98.349 297.758 98.5554 298.493 98.1024 299.059L98.0828 299.082L98.0684 299.099L98.0666 299.115C98.0393 299.3 97.9107 299.437 97.7162 299.56L97.688 299.578L97.646 299.602L97.6116 299.622L97.5991 299.639C97.5704 299.675 97.5376 299.709 97.501 299.74L97.4729 299.763L97.4432 299.785L97.4301 299.794L97.1642 299.965L97.0765 300.02C96.8792 300.142 96.731 300.218 96.5717 300.273L96.5356 300.285L96.5336 300.287C95.8818 300.917 94.8777 301.26 93.3709 301.546L93.2132 301.575L93.1344 301.59L92.8958 301.632C85.1069 303.019 77.113 303.4 69.1728 302.769C67.9384 302.671 66.7107 302.548 65.4921 302.402L65.0863 302.353L64.6041 302.292L64.0777 302.229L63.9399 302.211L63.8038 302.193C62.5978 302.028 61.89 301.793 61.2562 301.233L61.2217 301.202L61.1746 301.158C60.916 300.914 60.4203 301.083 60.4137 301.401L60.4138 301.419L60.4149 301.44C60.4488 301.916 60.1549 302.216 59.6818 302.302C59.3622 302.36 58.9543 302.329 58.4607 302.23C58.2694 302.192 58.0696 302.145 57.8588 302.089L57.7092 302.048L57.5039 301.989C57.4743 301.98 57.4442 301.971 57.4142 301.963L56.9644 301.828L56.4105 301.677C56.1993 301.618 55.9669 301.553 55.672 301.47L54.0944 301.027L53.713 300.922C53.3785 300.83 53.096 300.755 52.7986 300.678L52.6558 300.641L52.31 300.574L52.1865 300.549L52.0751 300.525C50.9045 300.265 50.7058 299.946 50.6814 298.483L50.6796 298.353L50.6173 297.793L50.5794 297.47C50.5362 297.11 50.4957 296.806 50.4512 296.516L50.4251 296.349L50.4161 296.294L50.3812 296.087C50.3785 296.072 50.3263 295.834 50.3062 295.732C50.2781 295.59 50.2563 295.459 50.2414 295.332C50.2071 295.041 50.2112 294.803 50.2746 294.613C50.3526 294.378 50.5243 294.228 50.7471 294.201L50.773 294.199L50.7825 294.198L50.8021 293.839Z" fill="white"></path> <path fill-rule="evenodd" clip-rule="evenodd" d="M68.9629 74.8806L73.2616 75.348L73.5179 75.3768C75.2676 75.5767 76.4889 75.7963 77.6655 76.1715C79.1489 76.6445 80.4073 77.341 81.4892 78.3446C86.8835 83.3119 92.7346 93.0817 99.0895 107.681L99.2682 108.093L99.3164 108.181L99.3857 108.305C100.119 109.609 101.382 111.442 102.793 113.289L102.931 113.469L103.134 113.732L103.263 113.897C103.841 114.637 104.392 115.313 104.846 115.838L104.945 115.952L105.078 116.103L105.164 116.199C105.248 116.292 105.326 116.377 105.396 116.451L105.431 116.488L105.499 116.558L105.509 116.554L105.623 116.644L105.64 116.497L106.051 116.302C109.512 114.653 112.887 112.484 116.357 109.749L116.525 109.616C119.405 107.334 122.225 104.781 125.735 101.355L126.723 100.39L127.201 101.492C129.009 105.659 131.453 108.345 134.589 108.829L134.684 108.843L136.551 109.104L135.033 110.344L134.86 110.486C133.12 111.919 131.674 113.249 129.01 115.824L128.467 116.35L127.272 117.51C126.251 118.499 125.572 119.151 124.91 119.771L124.748 119.922L124.236 120.398L123.919 120.679C120.923 123.333 118.742 125.152 116.498 126.798L116.251 126.978L116.086 127.097C113.126 129.232 110.279 130.875 107.355 132.061L107.188 132.128L107.102 132.159L107.018 132.188C106.602 132.33 106.218 132.418 105.563 132.536L105.496 132.548L104.944 132.646C104.814 132.669 104.707 132.689 104.606 132.709L104.54 132.723L104.394 132.753L104.209 132.755C101.105 132.764 98.2561 131.804 95.4657 129.972L95.3223 129.877C93.3441 128.559 91.5761 126.972 89.1524 124.469L88.887 124.194L88.6222 123.917L87.2668 122.491L87.2457 122.601C86.56 126.181 86.1399 130.342 86.3472 132.356L86.3537 132.417L86.3625 132.492L86.3755 132.639C86.5756 134.803 87.1398 136.979 88.0554 139.285C88.7765 141.101 89.6711 142.914 90.936 145.198L91.0054 145.323L91.2141 145.697L91.2237 145.715C93.3025 149.647 94.8441 153.817 95.7908 158.095L95.8341 158.292L95.8734 158.474L95.8307 158.654C95.5194 159.971 94.5878 161.006 93.1407 161.948L93.0746 161.991L92.9422 162.075C91.0906 163.214 89.0853 163.922 85.9904 164.693C75.7183 167.319 65.9137 168.199 56.6292 167.082C51.9944 166.483 47.2106 165.577 41.9433 164.341L41.6704 164.276L40.8938 164.092C37.2582 163.219 33.8241 162.31 28.7309 160.891L27.7127 160.607L25.9337 160.108L25.6691 160.028L24.9458 159.815L24.6841 159.737L24.5872 159.707L24.4178 159.655L24.2408 159.598C23.6328 159.402 23.142 159.213 22.684 158.99L22.4807 158.889L22.3768 158.776C22.3706 158.769 22.3606 158.761 22.3469 158.752L22.3359 158.745L21.9649 158.525L21.9032 157.664C21.8782 157.324 21.8524 156.986 21.8217 156.598L21.7918 156.224L21.5117 152.804C21.4885 152.514 21.4674 152.244 21.4477 151.987L21.4027 151.387L21.3653 150.865L21.3754 150.667C21.6162 146.196 22.826 141.691 24.8841 137.301L24.9606 137.138L25.0226 137.02C26.6588 133.889 27.2933 131.289 27.173 128.559L27.1667 128.427C27.0588 126.309 26.606 124.412 25.3388 120.355L25.2585 120.099L25.1302 119.691L25.1235 119.669C24.6933 118.16 24.417 116.776 24.3114 115.462L24.3013 115.329L24.2555 115.49C21.9273 123.708 20.7113 132.014 20.7209 140.113L20.7216 140.358L20.7237 140.685L20.7319 141.124C20.781 143.486 20.9052 145.782 21.1521 149.241L21.1706 149.5L21.2608 150.736L21.2338 151.114L21.2231 151.272L21.213 151.432L21.2041 151.587C21.135 152.86 21.2007 153.707 21.4789 154.486L21.5398 154.652L21.5532 154.936C21.5707 155.28 21.5936 155.607 21.6319 156.062L21.6438 156.202L21.7671 157.584L21.7907 157.86C21.8931 159.093 21.9283 159.962 21.8919 160.846L21.8891 160.911L21.8808 161.076L21.8549 161.261C21.5528 163.323 20.8557 164.752 19.4152 166.092L19.3728 166.131L19.3003 166.204C17.8454 167.657 16.2388 168.807 14.4811 169.622L14.371 169.673L14.2628 169.721L13.4356 170.089L13.1426 169.236C8.7022 156.312 6.16941 145.509 5.53517 135.164C4.78872 122.99 6.77664 111.845 11.9563 101.394L12.1143 101.078L12.2817 100.731C17.9525 89.0977 26.994 80.431 37.8569 77.3765L38.1867 77.2857L38.5243 77.1966L41.1994 76.5057L39.3453 78.5448C38.2737 79.7233 38.7207 81.6827 40.2117 83.8831L40.2572 83.9499L40.3361 84.0639C42.9616 87.9357 47.2405 90.6359 52.5875 92.0429C57.3705 93.3015 62.7823 93.4425 67.6449 92.5216L67.792 92.4934L67.9545 92.4647C72.6447 91.617 76.0855 88.6966 76.5128 84.6775L76.5249 84.5553L76.5446 84.313C76.7569 81.3955 75.108 78.4229 72.4832 76.887L72.4033 76.8409L68.9629 74.8806Z" fill="#FCF6F1"></path> <path fill-rule="evenodd" clip-rule="evenodd" d="M123.13 119.962L122.826 120.231C117.852 124.638 112.576 129.037 106.349 131.527C105.505 131.833 104.626 131.916 103.76 132.098C96.5174 132.169 91.5994 126.582 87.0131 121.765C87.3973 113.521 87.0796 105.008 83.8098 97.3044L83.7316 97.1062C82.9316 95.0911 81.9537 93.0933 80.3896 91.5532C80.351 91.5159 80.2981 91.5719 80.3312 91.6115C81.6659 93.2401 82.443 95.2295 83.0011 97.2364L83.0293 97.3384C84.9324 104.135 85.2633 111.266 85.013 118.286L85.0052 118.498C84.8343 123.241 84.423 128.01 84.9964 132.743C85.4145 137.628 87.5848 142.046 89.9484 146.265C92.0088 150.162 93.5487 154.327 94.4823 158.633C94.1821 159.903 93.0944 160.835 91.9639 161.542C89.9207 162.799 87.5534 163.487 85.2412 164.063C75.7803 166.481 65.9262 167.604 56.1924 166.433C45.8076 165.09 35.6725 162.312 25.6154 159.483C24.5811 159.167 23.4333 158.881 22.4453 158.389C22.3792 158.317 22.3009 158.255 22.216 158.205C22.0452 155.802 21.8189 153.42 21.6503 151.023C21.878 146.38 23.1733 141.865 25.1578 137.671C28.7845 130.797 27.5866 126.616 25.3758 119.612C24.8678 117.829 24.5051 115.964 24.5503 114.127C24.7818 112.97 25.0056 111.811 25.2118 110.65C25.2978 110.427 25.3916 110.207 25.4963 109.987C25.5162 109.945 25.4599 109.913 25.4335 109.951C25.3872 110.017 25.3431 110.084 25.2989 110.152C25.4522 109.265 25.5945 108.378 25.7191 107.488C25.7356 107.371 25.5834 107.325 25.5393 107.439C21.5654 118.083 19.2585 129.492 19.3535 140.866C19.4098 144.215 19.6414 147.563 19.8883 150.904L19.8654 151.226C19.7778 152.49 19.7318 153.779 20.1761 154.983C20.2707 157.05 20.6229 159.092 20.5135 161.164C20.2571 163.057 19.6837 164.396 18.2563 165.705C16.8428 167.134 15.2249 168.317 13.3817 169.137C5.71901 146.834 1.22954 123.666 12.3106 101.612C17.4536 90.8746 26.307 81.228 38.1887 78.1597C36.4953 80.022 37.8153 82.8078 39.0328 84.5834L39.1072 84.6908C44.938 93.2894 57.7778 95.338 67.4072 93.4677C72.0719 92.671 76.4458 89.6654 76.8181 84.6391C77.1072 81.2727 75.1817 77.9523 72.271 76.2938L72.6255 76.3323C75.4584 76.6457 78.2096 77.0979 80.3841 79.1152C88.3986 86.4953 92.1165 97.0056 96.8507 106.521L97.039 106.867C99.0667 110.609 101.026 114.651 104.395 117.365L103.765 117.899C103.686 117.967 103.771 118.121 103.871 118.08C104.195 117.95 104.517 117.813 104.838 117.673C105.291 118.035 105.811 117.669 105.865 117.21C113.483 113.581 119.922 107.825 125.898 101.985C127.408 105.463 129.952 109.257 134.026 109.825C130.18 112.965 126.776 116.596 123.13 119.962ZM61.895 186.647C62.3895 186.367 62.8776 186.076 63.3593 185.774C64.1544 187.04 63.9522 188.153 63.8667 189.551C63.6848 191.884 63.7253 194.258 63.2502 196.554C62.4265 202.413 61.9391 208.535 60.7159 214.245C60.6886 214.564 60.6602 214.883 60.6353 215.202C60.6024 215.622 59.9407 215.625 59.9737 215.202C60.7792 205.724 62.4888 196.191 61.895 186.647ZM66.3793 300.825C72.5859 301.851 78.9215 301.124 85.1306 300.465L86.0421 300.347C88.981 299.967 91.9372 299.567 94.8239 298.929C95.0671 298.729 95.4419 298.64 95.588 298.344L95.7662 298.357C95.9167 298.272 96.0702 298.192 96.2261 298.117C96.6795 298.036 97.0491 297.938 97.5174 297.81C98.1528 298.025 98.219 298.581 97.7877 298.975C97.8308 299.176 97.5894 299.291 97.4316 299.38C97.4063 299.43 97.367 299.479 97.308 299.52C97.0249 299.698 96.739 299.911 96.4148 299.998C95.6228 300.818 93.9217 301.13 92.9846 301.296L92.892 301.313C85.1053 302.7 77.1391 303.072 69.2539 302.446C67.8944 302.337 66.5359 302.199 65.1826 302.031L64.8136 301.984C63.6448 301.834 62.3558 301.775 61.4572 300.924C61.0097 300.501 60.113 300.768 60.1381 301.441L60.1395 301.467C60.2181 302.573 57.621 301.658 57.1068 301.515L57.0919 301.511C55.6541 301.123 54.225 300.694 52.7828 300.324L52.4291 300.256C51.1762 300.008 51.0788 299.883 51.0649 298.338L51.0183 297.917C50.9554 297.357 50.8878 296.799 50.7969 296.243L50.7617 296.035C50.7209 295.801 50.3217 294.356 50.9866 294.548C51.0704 294.572 51.152 294.505 51.1564 294.424C55.8283 297.385 60.8838 299.864 66.3793 300.825ZM41.7037 304.553L42.1003 304.316C42.7643 303.917 43.4314 303.483 43.9024 302.875C44.6794 302.904 44.9992 302.175 44.9697 301.526C45.622 303.638 44.813 305.329 42.9011 306.398C36.2407 309.918 27.7192 309.399 21.089 306.053C20.4528 305.726 19.8309 305.371 19.2277 304.989L19.092 304.903C18.866 304.758 18.6468 304.603 18.5265 304.356C18.2364 303.509 18.2403 302.674 18.2089 301.731C18.7113 302.405 19.545 302.872 20.2377 303.337C21.5598 304.217 22.9921 304.916 24.4774 305.477C29.9772 307.511 36.5097 307.387 41.7037 304.553ZM21.5599 131.087C22.0911 126.497 23.0013 121.971 23.8832 117.439C24.2416 122.31 26.7811 127.053 25.6518 131.979C24.548 135.945 22.1825 139.464 21.1718 143.464C20.9753 139.333 21.0962 135.199 21.5599 131.087ZM28.1049 170.913C27.5073 171.021 26.8931 171.019 26.2887 170.976C23.8397 170.681 23.4523 172.158 23.4607 174.222C23.3862 175.557 23.3041 176.891 23.2341 178.227L23.1938 179.028C23.143 180.095 23.0084 181.289 23.143 182.404C22.6993 183.417 22.4594 184.474 22.3888 185.581C22.1849 185.526 21.9665 185.552 21.81 185.659C20.9113 184.064 20.6963 182.117 20.5111 180.321C20.4206 179.438 19.1173 179.398 19.0975 180.321C19.0721 181.577 19.0534 182.834 19.0313 184.09L18.9972 186.028L18.9972 186.057C19.0027 186.333 19.1281 187.031 18.7872 187.004L18.7678 187.001C18.1336 186.954 18.1044 184.707 17.9672 184.146L17.438 180.387C17.3191 179.546 16.1047 179.82 16.0212 180.554L16.0189 180.578C15.8704 182.296 15.7198 184.014 15.5922 185.733C15.552 186.031 15.5466 186.569 15.2206 186.699C14.9327 186.441 14.8782 186.008 14.817 185.648C14.2749 180.687 13.2571 175.79 12.6295 170.841C13.0363 170.783 13.409 170.531 13.5281 170.143C16.7934 169.478 20.2202 167.648 21.8607 164.673C22.1882 164.961 22.444 165.337 22.7615 165.632C23.2632 166.101 23.8145 166.523 24.3416 166.961C25.8189 168.206 27.3017 169.382 28.7488 170.666C28.5371 170.735 28.3441 170.87 28.1049 170.913ZM63.6316 69.3659C63.6482 69.3012 63.7386 69.3198 63.743 69.3813C63.8334 70.6319 64.1344 71.9514 64.5931 73.1777C64.7574 73.2041 64.9151 73.2962 65.0298 73.4751C65.1841 73.7154 65.9226 73.883 66.3078 73.996L66.3628 74.0125C67.9622 74.5044 69.6315 74.7029 71.2904 74.8783C79.0925 75.308 81.9321 77.7432 86.3335 83.896C91.5583 90.8275 94.4898 99.0539 98.4284 106.704C99.3976 108.565 100.444 110.381 101.594 112.137L101.704 112.304C102.731 113.861 103.867 115.438 105.437 116.489C109.234 113.318 113.295 110.487 117.051 107.267L117.402 106.964C120.221 104.538 122.912 101.967 125.474 99.2726C125.776 98.9545 126.343 98.8712 126.762 99.0576C126.925 96.6327 127.613 94.2542 128.247 91.9111C128.913 88.8932 130.069 86.8533 133.557 87.6002C134.961 84.0791 136.841 80.6428 139.688 78.0721L139.871 77.9082C140.477 77.3601 141.272 76.5742 142.123 76.6451C142.896 76.7088 143.293 77.4054 143.324 78.1139C143.36 78.9544 142.992 79.8102 142.728 80.598L142.706 80.6654C142.366 81.6998 142 82.7255 141.613 83.7434C141.24 84.7229 140.841 85.6926 140.423 86.6535C139.997 87.4574 139.684 88.7883 138.908 89.2741C138.508 89.5113 138.095 89.1924 138.052 88.7849C137.992 88.2507 138.301 87.7813 138.528 87.3161C138.737 86.8883 138.942 86.4583 139.142 86.0261C139.944 84.2861 140.664 82.5101 141.282 80.6983C141.466 80.0884 142.218 78.503 141.957 77.955C141.696 77.9571 141.158 78.5066 140.968 78.6701C137.978 81.1368 136.034 84.5451 133.811 87.655C135.206 88.0521 136.72 88.2384 137.879 89.171C140.263 91.2422 138.349 95.3435 135.154 94.58C136.045 96.4671 136.812 99.5158 135.232 101.221C134.757 101.664 133.834 101.522 133.689 100.816C133.535 100.066 133.72 99.4229 133.89 98.6958C134.198 97.2152 134.384 95.6989 134.175 94.1917L134.109 94.1526C133.567 93.8252 133.226 93.4577 133.243 92.7811C133.172 92.2918 133.696 91.6325 134.222 92.0329C134.393 92.1623 134.601 92.1722 134.781 92.3027C135.086 92.5915 135.465 92.8185 135.897 92.815L135.939 92.8139C136.494 92.8095 136.905 92.4761 137.074 91.9584C137.54 90.5378 135.929 90.0606 134.881 89.7876L134.611 89.7045C131.751 88.8341 130.715 88.8199 129.997 92.1656C129.219 94.6618 128.533 97.2316 127.217 99.5129L127.381 99.9024C128.703 103.04 130.364 106.651 133.921 107.614C134.047 106.566 135.185 106.528 136.009 106.554C137.073 106.497 138.14 105.96 138.892 105.187C139.548 104.529 139.878 103.612 140.604 103.025C140.275 102.282 141.017 101.461 141.793 101.889C142.315 102.176 142.631 102.586 143.261 102.67C143.82 102.745 144.335 102.55 144.76 102.194C145.868 101.261 145.341 99.8913 145.612 98.6704C145.255 99.2858 144.662 99.7575 144.027 100.083C139.786 102.499 139.828 97.7629 142.172 98.541C144.718 97.9642 144.675 97.0481 143.723 94.897L143.706 94.8465C143.552 94.3949 143.206 93.5966 143.527 93.1102C143.545 93.0859 143.577 93.0783 143.6 93.1003C143.891 93.3854 144.006 93.8637 144.251 94.1993L144.544 94.5478C145.434 95.6155 146.366 96.8841 145.787 98.3095C145.849 98.2964 145.916 98.3227 145.937 98.3973C146.211 99.3878 146.754 100.361 146.642 101.42C146.407 103.743 143.879 105.018 141.785 104.05C141.382 107.035 138.426 109.184 135.462 109.051C135.369 109.46 135.064 109.82 134.594 109.857C130.233 116.813 113.09 134.708 104.684 133.96C103.88 134.323 102.857 134.141 102.005 134.031C95.4764 133.183 90.0201 128.429 86.9765 122.794C85.8577 141.252 92.18 141.028 96.4106 156.32C96.834 156.584 97.081 157.161 96.7524 157.649C96.934 158.574 97.3057 159.522 97.1626 160.472C97.092 160.742 96.9498 160.989 96.8208 161.237C96.5553 161.743 95.8552 161.682 95.5274 161.289C96.0833 163.291 95.8463 165.393 95.7038 167.435C95.6167 168.634 95.6233 169.816 95.6221 171.016C95.4563 189.285 86.4933 205.756 81.8857 223.088C80.5823 227.946 79.5812 232.896 79.1875 237.915C78.7696 243.254 79.0607 248.622 78.5579 253.954C77.9752 260.13 76.3185 266.132 74.3643 272.002C74.4813 272.478 74.7241 273.019 74.5741 273.429C71.7825 273.897 69.0882 274.749 66.3772 275.54C66.2709 275.571 66.2047 275.636 66.1713 275.714L65.5516 275.919C65.1496 276.053 65.3218 276.688 65.7274 276.554L66.4048 276.33C68.7217 275.567 71.0654 274.837 73.475 274.495L73.549 274.465C74.0308 274.273 74.5976 274.133 74.8515 274.661C74.9803 274.929 74.8783 275.198 74.6943 275.41C74.5388 275.59 74.341 275.7 74.2051 275.903C74.053 276.17 73.9242 276.451 73.7733 276.722C73.7747 278.063 73.3316 279.39 73.5035 280.728C73.6328 281.283 74.0848 281.815 73.7979 282.41L73.9285 282.493C74.6888 282.979 75.4153 283.512 75.9149 284.263C76.0241 284.428 76.1068 284.767 76.2314 284.883C76.3615 285.004 76.6041 285.018 76.7639 285.075C77.5736 285.32 78.083 286.048 78.0132 286.893C79.9092 287.436 79.2562 289.353 81.2131 290.687C83.222 292.136 85.9422 292.295 88.3151 292.671L92.3584 293.313L92.5936 293.342C95.1528 293.656 98.4906 294.248 99.0056 297.224L99.0469 297.272C99.6654 298.007 100.26 299.403 99.4966 300.2C98.876 300.749 98.0284 301.006 97.2767 301.326C96.2345 302.075 94.7325 302.424 93.589 302.636C83.703 304.458 73.519 304.67 63.5666 303.256L63.4001 303.232C62.7046 303.128 61.9864 302.987 61.3514 302.691C60.4633 304.179 58.7533 303.992 57.3136 303.569C56.1834 303.291 55.0532 303.017 53.923 302.742L53.817 302.715C52.0713 302.269 49.5957 302.133 49.1728 300.013C48.9545 298.922 48.9689 297.707 48.9799 296.598L48.9774 296.234C48.9759 295.3 49.0498 294.034 50.1123 293.836C48.6363 291.114 48.9579 287.767 50.3327 285.069L50.4056 284.936C51.4172 283.089 52.0492 281.547 51.7133 279.366C51.0396 278.734 50.7254 277.827 50.4762 276.935C49.9526 275.058 49.4954 273.161 49.1083 271.25L49.7088 270.023C51.4695 266.42 53.211 262.802 54.5264 259.012C54.6474 258.664 54.0794 258.418 53.9219 258.758C52.2583 262.352 50.2241 265.767 48.6753 269.416C47.6485 271.323 46.4156 273.117 45.0335 274.787L44.9723 274.872C44.4357 275.604 43.9863 275.848 43.1051 276.149C42.9639 276.209 42.8206 276.21 42.6861 276.171C41.8451 277.306 40.8244 278.205 40.3827 279.56C39.9008 281.058 39.7167 282.706 39.6218 284.272C39.5712 286.313 40.4251 288.24 40.9616 290.178C41.7817 292.789 42.6952 295.372 43.7057 297.916C44.2453 298.133 44.7351 298.468 45.1868 298.88C45.5634 298.843 45.9601 299.014 46.1009 299.47L46.1594 299.661C46.657 301.304 47.0791 303.202 46.4329 304.849C44.6469 308.837 38.9072 309.831 34.9809 310.309C29.1667 310.859 23.0678 309.475 18.2276 306.177C17.5439 305.7 17.0775 305.157 16.9639 304.311L16.952 304.206C16.7958 302.791 16.7595 301.113 17.7457 300.017C18.5888 292.842 19.9698 285.671 21.9589 278.722C21.9434 278.525 21.9313 278.329 21.9214 278.132C20.8111 276.981 20.3766 275.36 20.252 273.804C20.2375 273.151 20.902 273.014 21.4172 272.934L21.6071 272.932C23.2861 272.921 25.0188 273.003 26.517 273.627L26.4432 273.63C26.3674 273.633 26.2882 273.642 26.2308 273.681C26.9814 273.921 27.8001 274.027 28.5177 274.342C29.0492 274.368 29.5127 274.619 30.051 274.665L30.1366 274.67C30.2323 274.679 30.3051 274.651 30.3575 274.603C31.8036 274.86 33.2413 275.205 34.6851 275.417C35.1015 275.478 35.2813 274.844 34.8609 274.782C32.9295 274.499 31.0068 273.981 29.0619 273.74C28.6319 273.574 28.2163 273.361 27.7851 273.19C27.76 273.133 27.7128 273.082 27.6362 273.046C27.1633 272.825 26.672 272.643 26.1697 272.491C24.8817 272.094 23.5288 271.926 22.1875 271.847L22.2826 270.892C23.8258 255.285 24.9518 239.258 31.3544 224.723C29.994 221.594 28.1439 218.613 26.9538 215.394C26.4598 214.107 26.1599 212.795 25.7684 211.482C25.514 210.853 25.3037 210.216 25.2017 209.542C23.6342 202.4 22.748 195.136 21.8231 187.891C21.2006 187.379 20.7893 186.64 20.4284 185.961L20.4268 186.064C20.4055 187.183 20.2468 188.471 18.8329 188.438C17.6917 188.41 17.1921 187.562 16.9364 186.625C16.4393 188.586 14.2306 188.693 13.5833 186.762C13.2944 185.983 13.3065 185.094 13.2205 184.277C12.7591 179.792 11.796 175.31 12.0727 170.794C11.7816 170.695 11.528 170.473 11.4044 170.104C5.89112 153.471 0.984641 135.67 4.56367 118.119C8.14236 100.923 17.8343 81.6726 36.1497 76.7965C39.8576 75.8634 43.6243 75.5467 47.4252 75.3058C47.9736 74.249 48.3281 73.0469 48.3999 71.8505C48.422 71.5049 48.4054 71.1628 48.4043 70.8172C48.4032 70.4979 48.5399 70.1173 48.476 69.8191C48.4605 69.7465 48.5598 69.7224 48.5863 69.7893C48.6667 69.9988 48.831 70.1041 48.9424 70.2808C49.2194 70.78 49.2927 71.3726 49.3658 71.9305C49.6406 74.1084 49.0155 76.3491 47.6927 78.0977L47.6468 78.1578C47.2366 78.7042 46.456 79.6935 45.6488 79.2196C44.9455 78.8057 45.396 77.9627 45.8155 77.5112L45.8473 77.4777C46.4152 76.8898 46.8915 76.2612 47.2785 75.5756C45.5589 76.0321 43.8527 76.5347 42.1381 77.0104L42.0567 77.055C40.7141 77.7832 38.7189 78.5628 38.8951 80.3684C42.4654 91.0992 58.2611 93.8567 68.0234 91.2947L68.179 91.2526C70.0469 90.7396 71.9173 89.9152 73.1883 88.4124L73.2409 88.3494C75.4975 85.6886 75.3246 81.2925 72.499 79.1078C70.8208 77.7388 68.5019 77.0115 66.408 76.5378C67.017 77.5447 68.3639 78.2559 68.6089 79.4489C68.6717 79.8581 68.4446 80.2475 67.9914 80.2562C66.8403 80.2782 65.9913 79.054 65.387 78.2313C64.126 76.5102 63.4107 74.4296 63.2578 72.3101C63.1818 71.279 63.3725 70.3499 63.6316 69.3659ZM139.799 88.7263C139.738 88.6847 139.771 88.5611 139.854 88.5947C142.983 89.8864 144.261 94.5123 141.905 97.0598C141.123 97.8813 139.951 98.3562 138.884 97.9252C137.572 97.7042 136.805 96.3849 136.637 95.1696C136.626 95.113 136.69 95.0872 136.726 95.1229L136.732 95.1303C137.228 95.7388 138.009 96.1461 138.721 96.4576C138.921 96.3499 139.139 96.2645 139.359 96.2139C139.671 96.1437 139.991 96.3872 139.961 96.7044C141.434 96.4359 142.024 94.6902 142.069 93.3657L142.07 93.3257C142.13 91.4928 141.297 89.798 139.799 88.7263Z" fill="black"></path> <path fill-rule="evenodd" clip-rule="evenodd" d="M76.1905 46.4831C75.929 43.1107 76.3342 39.5759 75.0299 36.3705C72.7557 31.052 66.3788 29.2787 61.4351 27.2539C59.4545 26.6704 52.7901 26.5889 50.4711 25.8167C45.2226 24.0691 43.9686 21.9869 39.7982 25.3144C39.0943 25.8828 38.6538 26.5006 38.3325 27.3447L38.3457 27.3483C38.254 27.7002 38.3523 28.0513 38.5591 28.3195C36.7508 30.1622 35.9942 32.9247 36.9219 35.3775C39.9496 41.7604 39.8073 45.2117 38.8317 52.0737C37.5578 58.4798 40.4689 60.8198 45.29 64.3054C45.0937 64.6849 45.053 65.1891 45.3089 65.5239C50.8838 73.334 61.3953 77.0629 70.4016 73.0988C74.0574 71.4767 75.6895 67.5954 76.6209 64.0932C77.7059 60.1718 78.0393 56.0396 77.156 52.045C76.7997 50.1976 76.3356 48.3635 76.1905 46.4831Z" fill="#D08B5B"></path> <path fill-rule="evenodd" clip-rule="evenodd" d="M36.2609 36.9163L39.5757 39.1178L51.4413 26.6471L47.4927 23.5488C47.4927 23.5488 40.329 28.8271 38.9204 30.2201C37.5119 31.6132 36.2609 36.9163 36.2609 36.9163Z" fill="#9FD8E5"></path> <path fill-rule="evenodd" clip-rule="evenodd" d="M44.0332 9.11939C44.7099 9.01809 45.2209 9.43665 45.464 10.0266L45.4768 10.0584C45.5549 10.2591 45.6418 10.4544 45.7354 10.6463C47.4287 9.81814 49.845 10.0309 50.9167 11.7082C51.6814 12.906 51.2149 14.3276 50.9266 15.5979L50.7373 16.4348C51.1032 16.6669 51.379 17.0825 51.3661 17.5129L51.3645 17.546L51.2875 18.7132C51.5318 18.4663 51.7551 18.1976 51.9543 17.9113C52.0918 17.6601 52.2404 17.4133 52.3999 17.1742C53.3385 15.7668 55.4455 16.9899 54.6709 18.4971C54.5224 18.7877 54.3551 19.0631 54.1758 19.3285C53.9733 19.7201 53.8072 20.1227 53.6795 20.5363C54.0459 20.6953 54.3276 21.0485 54.3573 21.5816C54.4267 22.8266 53.7709 23.8654 52.7278 24.5181C52.4208 24.7101 52.1039 24.7474 51.8167 24.6761C51.7661 24.7441 51.7155 24.8121 51.6671 24.8812C52.083 25.218 52.4582 25.6019 52.7806 26.0275C53.7511 25.8827 54.727 25.8147 55.703 25.8125C56.8957 25.23 58.3239 25.2421 59.6058 25.4604C60.431 25.6008 61.2232 25.8739 62.0353 26.0703C62.8913 26.2765 63.7605 26.2842 64.6265 26.4246C65.718 26.6012 66.6752 27.1036 67.2771 27.9054C67.9384 27.9252 68.6338 28.195 69.2103 28.5614C70.5527 29.4148 71.8874 30.2803 73.2264 31.1392C73.7403 31.4689 73.9325 31.9953 73.838 32.5825L73.8316 32.62L73.7865 32.8636L73.8924 33.0135C74.3022 33.5904 74.7481 34.1947 75.0133 34.8315C75.5041 35.5368 75.9475 36.2761 76.3403 37.0385C76.8695 38.063 77.3064 39.149 77.6023 40.2635C77.6761 40.5454 77.7498 40.8295 77.7982 41.1169C77.8675 41.5227 77.7608 41.8376 77.7025 42.227C77.6298 42.7206 77.6034 43.2208 77.5264 43.7155C77.4747 44.0435 77.1952 44.2047 76.9025 44.2135C77.0126 45.0483 77.0918 45.8885 77.1677 46.7222C77.2745 47.9135 77.3471 49.108 77.4098 50.3026C77.7333 50.771 78.3946 51.1417 78.8721 51.2701C79.5334 51.4467 80.2266 51.2547 80.8515 51.0298C81.2443 50.8883 81.5667 51.3809 81.3753 51.7099C80.7734 52.7433 79.4861 52.7389 78.5112 52.2814C78.0986 52.0884 77.7366 51.8087 77.4681 51.4445C77.4846 51.7911 77.5022 52.1377 77.5198 52.4855L77.5362 52.8004C77.7344 56.4787 78.1624 60.2834 77.4692 63.9254C76.2688 70.2338 71.0322 75.0372 64.6353 75.4102C61.2785 75.606 58.4831 74.6175 57.093 74.0661C55.703 73.5147 56.2433 72.3905 57.2082 72.7119C58.8706 73.2655 61.9244 74.0903 64.6573 73.7341C71.0984 72.8947 76.5604 69.6852 75.9992 55.8618C75.9196 53.9015 75.6746 51.9403 75.6218 49.9801C75.5712 48.0637 75.5899 46.1463 75.5052 44.2311L75.4769 43.5776C75.4438 42.814 75.4085 42.047 75.3511 41.2825C75.2818 40.9863 75.2246 40.6858 75.1399 40.3951C74.9099 39.6042 74.6095 38.8353 74.2365 38.1014C74.154 38.1639 74.0616 38.2089 73.9614 38.2265C73.2011 38.3625 72.4881 38.3241 71.7762 38.0082C71.4439 37.8623 71.1513 37.6681 70.8784 37.4279C70.7486 37.3149 70.6616 37.2052 70.5934 37.0911C70.249 37.0966 69.9046 36.9935 69.689 36.7467C69.443 36.4654 69.4021 36.1748 69.4984 35.9059L69.5085 35.879L69.4843 35.8703C69.1938 36.6195 68.6151 37.2787 67.9802 37.7241C66.9767 38.4305 65.7213 38.6345 64.5175 38.6532C63.1884 38.6729 61.7866 38.4689 60.475 38.2605C60.1284 38.2056 59.784 38.1431 59.4462 38.0586C59.433 38.0718 59.4198 38.0872 59.4055 38.1003C58.2799 39.1742 56.6966 39.4506 55.2684 38.8375C54.4432 38.4831 53.7511 37.9127 53.1393 37.259C53.1305 37.6012 53.1129 37.9435 53.0832 38.2824L53.0709 38.417C53.01 39.0483 52.8928 39.7179 52.4142 40.1735C51.6407 40.9118 50.5184 40.6156 49.626 40.1351C49.6271 40.1582 49.6271 40.1823 49.6271 40.2064C49.8681 41.0225 50.1102 41.8398 50.3522 42.657L50.4044 42.8311C50.5804 43.4113 50.7734 43.9923 50.8265 44.5996C50.9277 45.7602 50.1531 46.9065 48.8591 46.5171C48.1804 46.3135 47.6366 45.7446 47.1149 45.2889L46.7861 45.0055C47.6367 47.7774 48.2264 50.6481 48.2815 53.5407C48.2848 53.6976 48.1494 53.816 47.9998 53.8215C47.6499 53.8358 47.2736 53.7667 46.9215 53.6274C46.9017 53.6263 46.8819 53.6252 46.861 53.6219C46.2602 53.5352 45.7023 53.3191 45.2105 52.9999C45.3238 53.3586 45.3745 53.7437 45.3447 54.1462C45.337 54.2439 45.1841 54.2779 45.1621 54.1704C44.8782 52.7784 43.2443 51.7264 41.8359 51.993C40.3241 52.2793 39.2106 53.5758 38.9377 55.0512C38.645 56.6363 39.2051 58.4692 40.2426 59.6923C40.7202 60.2561 41.3484 60.7267 42.0945 60.8452C42.4355 60.8989 42.7898 60.8803 43.121 60.7838C43.2619 60.7421 43.3939 60.6839 43.5281 60.6291C43.724 60.5501 43.9529 60.538 44.1377 60.4547C44.5569 60.2671 44.9783 60.6521 44.766 61.081C44.5811 61.4551 44.415 61.7074 44.108 61.9004C44.3567 62.2032 44.5822 62.6244 44.6659 62.7374C45.0928 63.3122 45.5263 63.8552 46.0126 64.3806C46.5078 64.9137 47.048 65.4007 47.6191 65.8516L47.8591 66.0407C48.4092 66.4756 48.8881 66.8786 49.2761 67.5025C49.582 67.995 49.1859 68.663 48.6126 68.6553C46.8192 68.6301 45.5153 67.0593 44.5866 65.687C44.4546 65.4907 44.3303 65.2834 44.2147 65.0706C44.1729 65.1375 44.1267 65.2 44.075 65.257L44.1773 65.5313C44.481 66.3386 43.1728 66.8662 42.7931 66.1127C42.517 65.5664 42.1968 65.0464 41.8403 64.555C41.6301 64.5254 41.4244 64.3981 41.3099 64.2336C41.0206 63.8157 40.696 63.3934 40.422 62.948C40.2701 62.8043 40.1139 62.6661 39.9544 62.5312C39.9081 62.5718 39.8608 62.6123 39.8157 62.6551C39.6155 63.1103 39.3679 63.5261 39.0609 63.9177L38.9951 64.0012C38.407 64.7401 37.641 65.4964 36.6931 65.6772C36.4037 65.732 36.1253 65.3733 36.3817 65.1441C37.0452 64.5495 37.8297 64.1448 38.4414 63.4811C38.7428 63.1541 39.0196 62.7941 39.2576 62.4167L39.3118 62.3293C39.3514 62.2646 39.3921 62.1999 39.4339 62.1341C39.1577 61.9465 38.8816 61.7578 38.6054 61.5692C37.8451 62.2167 36.855 62.5129 36.0141 63.0493L35.9306 63.1038C35.1702 63.6105 34.3692 62.4895 34.9788 61.8741C35.6507 61.1983 36.2117 60.3924 36.8069 59.6412C36.527 59.1272 36.3946 58.5194 36.3449 57.9051C36.3253 57.7312 36.31 57.5572 36.2948 57.3833C35.8678 57.3899 35.4387 57.244 35.0756 56.9928L34.9381 56.8951C34.4969 57.0355 34.0336 57.1035 33.5902 57.0915C32.5471 57.0608 32.1202 55.8728 32.7727 55.1214C33.4384 54.3535 34.6036 54.1857 35.5267 54.5587C35.5564 54.5433 35.5873 54.5269 35.617 54.5104C35.573 54.3086 35.5827 54.1255 35.6328 53.9647L35.6183 53.8666C35.4153 53.5561 35.2818 53.2015 35.2312 52.8269C35.1911 52.5302 35.1993 52.2361 35.2682 51.9431C35.2911 51.8456 35.3387 51.7446 35.3751 51.6429C35.3001 51.454 35.256 51.2588 35.2423 51.0624C35.2213 51.0375 35.2004 51.012 35.1806 50.9843C34.7225 50.3432 34.8151 49.5706 35.251 49.0517C35.253 49.0187 35.2561 48.9857 35.2606 48.9529C35.2351 48.8957 35.2116 48.8378 35.1903 48.7794C34.7643 48.351 34.4516 47.8356 34.51 47.1968C34.5442 46.821 34.6991 46.4827 34.9336 46.2299C34.892 46.1073 34.888 45.9652 34.9384 45.8466C34.5642 44.8543 34.6115 43.6592 34.8809 42.5495C34.8214 42.3805 34.7906 42.1974 34.7972 42.0032C34.828 41.1794 35.5432 40.4225 36.3905 40.4324C36.4925 40.4333 36.588 40.4465 36.6797 40.466L36.681 40.4463C36.7134 40.1991 36.7816 39.9706 36.8812 39.7656C36.8323 39.7479 36.7869 39.7226 36.7472 39.6889C36.2043 39.9776 35.6298 40.1983 35.0275 40.3487C34.5847 40.4593 34.131 39.9574 34.4063 39.543C34.534 39.3507 34.675 39.1781 34.8268 39.0203C34.611 39.0215 34.3918 39.0361 34.1701 39.0645C33.7718 39.1161 33.3272 38.8451 33.0687 38.4788C32.7474 38.7903 32.425 39.1007 32.1026 39.4111C31.2862 40.1998 30.0527 39.6196 29.924 38.5797C29.6808 38.515 29.4542 38.4053 29.255 38.2484C27.9677 38.8056 26.5824 39.1117 25.1663 39.1698C24.1496 39.2115 23.5554 38.0312 24.0308 37.1975C24.3499 36.6381 24.746 36.1357 25.2026 35.6991C24.494 35.9152 23.7623 36.071 23.0152 36.1708C22.6114 36.2246 22.0403 35.8911 21.8786 35.5214C21.2602 34.0998 21.313 32.6179 22.0249 31.2346C22.0524 31.1798 22.0832 31.1271 22.1129 31.0745C22.1867 30.8913 22.267 30.7103 22.3539 30.5326C21.4781 29.6221 21.4021 28.2685 21.8742 27.1354C21.6849 26.8293 21.6123 26.4608 21.741 26.1273C22.1074 25.1675 22.6356 24.2812 23.3024 23.5199C23.2386 23.397 23.1824 23.2665 23.1351 23.1261C22.7599 21.9908 23.1945 20.6207 24.0715 19.8298C24.6227 19.3318 25.2565 19.0335 25.9332 18.8426C26.2182 18.3402 26.5846 17.8872 27.0115 17.5054C27.028 17.4692 27.0445 17.433 27.0632 17.3968C27.7278 16.1485 28.9381 15.4794 30.2354 15.3247C30.286 14.8366 30.6161 14.3704 31.0958 14.219C31.2279 13.7967 31.4248 13.393 31.6955 13.0267C32.1213 12.4497 32.8288 12.1776 33.4956 12.5561C33.8609 12.7634 34.2108 13.0014 34.5387 13.2647C34.6859 13.1958 34.8529 13.1513 35.0413 13.1371L35.0888 13.1342L36.1737 13.0793C36.6281 12.8786 37.0815 12.668 37.5359 12.4628C37.8088 12.238 38.1136 12.0504 38.4458 11.9111C38.8221 11.7542 39.2073 11.6654 39.5935 11.6358C39.907 11.5337 40.2228 11.4438 40.5441 11.3736C41.2989 11.209 42.089 11.1169 42.8724 11.1246C42.8884 10.9224 42.8963 10.7179 42.8948 10.5109L42.8933 10.4072C42.8757 9.74355 43.4071 9.21373 44.0332 9.11939ZM43.2726 62.2164C43.1647 62.2394 43.0558 62.258 42.9469 62.2712C42.9799 62.3524 43.0129 62.4335 43.0448 62.5147C43.1328 62.5641 43.222 62.6112 43.3111 62.6551C43.2847 62.5059 43.2693 62.3557 43.2726 62.2164ZM37.6197 60.5417L37.5465 60.6763C37.5347 60.6984 37.523 60.7201 37.5115 60.7416C37.6667 60.7295 37.8229 60.7328 37.977 60.7504L37.9765 60.734C37.9567 60.7273 37.9369 60.7211 37.918 60.7119C37.8117 60.6608 37.7129 60.6036 37.6197 60.5417ZM40.6748 54.4149C41.6483 54.4715 42.473 54.6203 43.3583 55.0448L43.4343 55.0819C44.2167 55.4691 45.5106 56.1843 45.4017 57.2099C45.3709 57.5017 45.1585 57.8089 44.824 57.7858C43.9075 57.7233 43.3837 56.8019 42.7632 56.2271C42.1371 55.6479 41.368 55.0523 40.6099 54.6541C40.5027 54.598 40.5449 54.4206 40.6615 54.4149L40.6748 54.4149ZM36.2605 40.9018C36.0273 40.9095 36.1054 41.1361 36.2253 40.9469C36.2352 40.9315 36.2473 40.9161 36.2605 40.9018ZM48.8519 25.8167C46.6427 25.8746 44.4194 27.175 42.7644 28.4894C41.3246 29.633 40.0814 30.9932 38.9806 32.4592C38.6973 33.1894 38.4542 33.9347 38.2487 34.6856C38.1134 35.1814 38.0287 35.6827 37.9154 36.1829L37.8801 36.3362C37.7911 36.5021 37.725 36.6806 37.6768 36.865C37.8774 37.0655 38.1376 37.2091 38.4241 37.2772C38.5164 37.2991 38.5931 37.3466 38.6538 37.4096C38.8844 37.0259 39.086 36.6209 39.2033 36.1915L39.2075 36.1717C39.6509 35.4478 40.1324 34.7464 40.6485 34.0691C42.0723 32.1988 43.6402 30.4942 45.5251 29.0759C46.9543 28.0009 48.552 27.1584 50.2509 26.6111C49.835 26.2766 49.3628 26.012 48.8519 25.8167Z" fill="black"></path> <path fill-rule="evenodd" clip-rule="evenodd" d="M68.8445 66.4914C68.0323 66.7255 67.1604 66.7464 66.3324 66.5047C65.5814 66.2854 64.8104 65.8029 64.2576 65.1645C63.7667 64.5973 63.4487 63.9081 63.4612 63.1723C63.4626 63.0883 63.4928 63.0182 63.5392 62.9637C63.5892 62.9051 63.6591 62.8649 63.7339 62.8474C63.8109 62.8295 63.8923 62.8358 63.9615 62.8671C64.0243 62.8955 64.078 62.9436 64.1116 63.014C64.1965 63.125 64.2811 63.2343 64.3661 63.3407C65.049 64.1796 65.7104 64.8066 66.7374 65.0315C67.2946 65.1535 67.8511 65.0994 68.3617 64.9132C68.9083 64.7139 69.4024 64.3635 69.7896 63.915C69.9646 63.7123 70.1712 63.6296 70.3732 63.6282C70.6021 63.6267 70.8284 63.7325 70.9988 63.9016C71.1664 64.0679 71.2785 64.2938 71.2887 64.5301C71.2976 64.7375 71.2296 64.9542 71.0487 65.1474C70.4527 65.7842 69.6803 66.2506 68.8445 66.4914ZM68.8197 55.9837C69.6523 56.4872 70.921 57.6612 70.0252 58.9095C68.9709 60.0101 67.4529 58.7482 66.7048 58.1774C66.0112 57.7351 65.2318 58.8727 65.8754 59.3892C71.2809 63.3705 73.4745 56.1153 69.2408 55.3917C68.7746 55.312 68.6015 55.8279 68.8197 55.9837ZM61.0308 53.7682C60.7632 53.5979 60.4484 53.5395 60.0995 53.6974C59.8268 53.8207 59.3487 54.2319 59.0159 54.7725C58.7882 55.1423 58.6268 55.5761 58.6604 56.028C58.6682 56.1329 58.6292 56.2103 58.5677 56.2675C58.5191 56.3127 58.449 56.3459 58.3666 56.3563C58.2967 56.3651 58.2184 56.3571 58.1547 56.3374C58.0337 56.2998 57.9696 56.2216 57.9454 56.1578C57.7124 55.5422 57.8128 54.8552 58.0739 54.2355C58.4264 53.399 59.0664 52.6984 59.4857 52.4725C60.2033 52.0859 61.0498 52.0681 61.7683 52.462C62.38 52.7973 62.7625 53.3386 63.1429 53.8903C63.2238 54.0076 63.304 54.124 63.387 54.2384C63.5532 54.4676 63.5698 54.6949 63.5054 54.8899C63.4341 55.1058 63.2522 55.288 63.0248 55.3834C62.8146 55.4716 62.5707 55.484 62.3549 55.3934C62.1725 55.3169 62.0052 55.1677 61.8993 54.9147C61.7209 54.4885 61.4238 54.0182 61.0308 53.7682ZM74.6222 54.7165C74.4389 54.8115 74.2955 54.8401 74.0922 54.7796C73.9797 54.746 73.8686 54.6816 73.7816 54.595C73.6954 54.5092 73.6332 54.4026 73.609 54.2842C73.5495 53.9922 73.3889 53.7188 73.16 53.5406C72.9644 53.3883 72.7175 53.3076 72.4436 53.3531C72.148 53.4022 71.8665 53.5908 71.6725 53.8131C71.6077 53.8875 71.5569 53.972 71.5058 54.0559C71.4103 54.2128 71.3174 54.3587 71.1856 54.474C71.1356 54.5178 71.0604 54.5482 70.9875 54.5482C70.9578 54.5482 70.9278 54.5434 70.8991 54.5345C70.6049 54.2408 70.5484 54.018 70.5578 53.797C70.5678 53.5652 70.6596 53.3305 70.8081 53.1116C71.1562 52.598 71.8173 52.1769 72.2634 52.0816C72.8743 51.9509 73.481 52.1077 73.9674 52.4472C74.4679 52.7964 74.8388 53.3387 74.9544 53.9498C74.9822 54.097 74.9704 54.2559 74.9141 54.3936C74.859 54.5282 74.7631 54.6435 74.6222 54.7165ZM62.378 48.2935C62.0114 48.6488 61.5774 48.7039 61.1385 48.7528C60.8945 48.7803 60.6998 48.8024 60.5082 48.8454C59.9816 48.9637 59.461 49.1418 58.986 49.3984C58.4896 49.6665 57.9485 49.99 57.5593 50.4043C57.4667 50.5029 57.3795 50.6063 57.2921 50.71C57.2124 50.8045 57.1357 50.8956 57.0548 50.9833C56.9619 51.0841 56.8737 51.1898 56.786 51.2951C56.7317 51.3841 56.721 51.4059 56.7101 51.4287C56.6936 51.4629 56.6745 51.5012 56.6526 51.5422C56.6227 51.5985 56.5877 51.6601 56.551 51.7159C56.4899 51.8179 56.4572 51.846 56.4289 51.8586C56.3819 51.8794 56.3373 51.8897 56.2941 51.8841C56.2536 51.8789 56.2154 51.8595 56.1777 51.8278C55.9895 51.6696 55.934 51.41 55.9397 51.1344C55.9483 50.7161 56.1034 50.2531 56.2463 49.9684C56.5787 49.307 57.0396 48.6194 57.5939 48.1258C58.2264 47.5623 58.9183 47.1357 59.7131 46.8418C60.207 46.659 60.7789 46.4913 61.3169 46.5125C61.7043 46.5277 62.074 46.6423 62.3794 46.9283C62.5669 47.1039 62.6569 47.3536 62.6569 47.6032C62.6569 47.8578 62.5634 48.1138 62.378 48.2935ZM75.3679 51.5467C75.3446 51.5847 75.3123 51.6109 75.2764 51.6266C75.2388 51.6431 75.1968 51.6479 75.1564 51.6411C75.1163 51.6344 75.0781 51.6163 75.0478 51.5886C75.0188 51.5621 74.9967 51.5269 74.9869 51.4838C74.7434 50.4203 74.2708 49.629 73.262 49.1187C72.7658 48.8677 72.1952 48.7082 71.655 48.5811C71.498 48.5441 71.3321 48.5202 71.1651 48.4959C70.6416 48.4199 70.1143 48.3328 69.773 47.9118C69.5674 47.6582 69.4811 47.3339 69.5299 47.0373C69.5758 46.7581 69.7398 46.502 70.038 46.3486C70.7804 45.9667 71.7029 46.3414 72.4525 46.6606C72.5081 46.6843 72.5627 46.7075 72.6161 46.7299C73.3492 47.0378 74.0178 47.4441 74.5675 48.0253C75.0036 48.4863 75.4076 49.1678 75.5703 49.869C75.7057 50.4523 75.6739 51.0477 75.3679 51.5467Z" fill="black"></path> </svg> 