<?xml version="1.0" encoding="UTF-8"?> <svg xmlns="http://www.w3.org/2000/svg" width="140" height="154" viewBox="0 0 140 154" fill="none"> <g clip-path="url(#clip0)"> <path fill-rule="evenodd" clip-rule="evenodd" d="M77.4019 46.7928C72.9841 47.0102 66.1054 48.8991 65.7615 50.1063C65.2245 51.9914 66.3785 59.0585 64.4484 62.8652C63.6256 64.4879 60.5014 64.3424 59.2908 64.8709C55.2404 66.6391 43.2495 69.9926 40.7771 74.2152C39.7866 75.9069 33.6996 96.8978 30.4652 107.607C30.1005 108.814 29.6887 109.931 29.2409 110.965L29.0764 110.161C27.7576 103.689 27.0982 99.7704 27.0982 98.4063C27.0982 96.2749 28.803 87.2822 27.0982 84.9953C25.4105 82.7312 21.3432 80.88 19.5133 80.8432L19.4585 80.8427C18.257 80.8427 17.2145 80.4681 16.3309 79.719L15.0354 79.0692C8.44501 75.771 4.59463 73.9619 3.48423 73.6417C1.71233 73.1308 -1.30326 74.2193 0.204536 75.8533C1.20974 76.9427 3.73568 78.8697 7.78236 81.6345L9.30817 82.8436L9.12385 82.9397C7.15186 83.975 5.99238 84.8465 5.64536 85.554C5.28768 86.2834 5.45931 87.146 6.16027 88.1421L6.05393 88.2455C5.16753 89.1131 4.72433 89.695 4.72433 89.9914V91.4389C3.84249 92.7269 3.62203 93.801 4.06295 94.6613C4.50387 95.5216 5.20296 96.2671 6.16027 96.8978C6.86567 98.7483 7.7057 100.065 8.68038 100.849C9.65505 101.633 11.3396 102.285 13.7339 102.806L15.9006 107.973L17.6562 115.232L18.5409 123.331L18.284 123.517C17.0935 124.381 16.3309 125.022 16.3309 125.685C16.3309 126.717 21.1346 150.988 28.6083 152.074C30.2246 152.309 38.6071 151.157 41.3595 148.924L41.3188 149.165C40.6712 153.066 40.8082 155.092 41.7298 155.243C53.0559 157.095 85.2228 157.667 138.23 156.959C138.546 128.901 137.12 110.214 133.952 100.899C125.851 77.0767 116.92 68.94 113.795 68.2431C111.058 67.6327 101.566 63.8651 98.9132 62.8652C97.1812 62.2124 96.8102 60.2554 94.8366 60.2554L94.677 60.2562C92.7683 60.2754 91.0758 60.6158 90.1248 59.6368C87.6293 57.0676 88.3269 53.5114 87.2916 50.1063C86.7212 48.2302 82.8231 46.526 77.4019 46.7928Z" fill="#D08B5B"></path> <path d="M94.8366 60.2554L94.677 60.2562C94.2053 60.2609 93.7468 60.2853 93.3094 60.3045L94.231 63.4363L94.2509 63.7652C94.8493 74.5629 89.5476 79.7318 78.3458 79.272C67.1441 78.8122 61.5722 75.2786 61.6302 68.6711L61.6337 68.4699L61.6336 64.3581L61.4573 64.3918C60.6071 64.5505 59.7877 64.6539 59.2908 64.8708C55.2404 66.639 43.2495 69.9925 40.7771 74.2151C39.7867 75.9069 33.6996 96.8977 30.4652 107.607C30.347 107.998 30.2239 108.38 30.0962 108.752L30.0961 110.869L30.1313 110.997C31.2649 115.226 29.7556 118.683 25.6033 121.369C22.6602 123.273 19.6375 124.508 16.5354 125.076C16.4022 125.282 16.3309 125.482 16.3309 125.685C16.3309 126.717 21.1346 150.988 28.6083 152.074C30.2246 152.309 38.6072 151.157 41.3595 148.924L41.3188 149.165L41.2809 149.397C40.6771 153.146 40.8267 155.095 41.7298 155.243C53.0559 157.095 85.2228 157.667 138.23 156.959C138.546 128.901 137.12 110.214 133.952 100.899C125.851 77.0766 116.92 68.9399 113.795 68.2431C111.058 67.6326 101.566 63.8651 98.9132 62.8651C97.1812 62.2124 96.8102 60.2554 94.8366 60.2554Z" fill="#FCF6F1"></path> <path fill-rule="evenodd" clip-rule="evenodd" d="M89.5392 53.52C89.2799 53.0076 88.5916 53.074 88.1374 53.3064C86.7751 54.2996 88.2005 56.2248 88.5773 57.4369C89.5466 59.7878 91.2302 62.0853 93.5544 63.1841C93.3618 65.5211 93.1435 67.8529 93.063 70.1972C90.0915 73.8731 85.0815 75.2148 80.6342 76.2465C73.6492 78.1731 65.766 74.2259 63.4085 67.34C66.0916 65.8196 66.9599 61.8386 66.1593 59.0612C66.0897 58.8661 65.7864 58.7799 65.6786 58.9977C64.9439 60.5048 65.0419 62.3435 64.2066 63.8324C56.1893 64.5979 45.8424 67.6148 40.5901 74.0811C38.2625 77.3161 37.3405 81.5237 36.1941 85.273C33.748 93.0027 31.799 100.889 29.4001 108.626L29.1173 107.162C28.3423 103.129 27.638 99.0416 28.1615 94.9402L28.1708 94.744C28.3418 91.4805 29.3659 85.416 26.8282 83.2128C24.5327 81.4633 21.2074 80.0575 18.3269 80.864C13.2007 78.589 8.77629 74.758 3.31686 73.2659C1.63661 72.921 -0.78064 73.3294 -0.383484 75.6027C0.717178 79.5787 5.32649 81.122 8.4774 83.1722C6.45763 83.7181 3.99533 86.1677 5.57336 88.3039C5.58701 88.3417 5.59914 88.3704 5.61128 88.3931C4.33153 88.9588 4.15228 90.3804 4.46634 91.5994C4.49818 91.9216 4.58311 91.6448 4.3934 91.9367C2.94942 93.2949 3.58769 97.0809 5.76292 97.2089C5.62053 99.0027 6.77592 100.745 8.23932 101.724C9.8166 102.778 12.0972 102.823 13.403 104.266C16.4689 109.657 17.5265 116.022 17.8607 122.196C15.8397 122.951 14.0265 125.207 15.8626 127.121C15.8988 127.125 15.9351 127.129 15.9718 127.132C17.0362 129.965 17.4472 132.985 18.0101 135.944C18.8761 140.992 21.1331 145.627 24.0151 149.833C27.348 155.399 36.3102 154.517 40.8252 150.924C40.8072 151.867 40.6514 152.804 40.9541 153.714C41.4009 154.697 42.4901 154.273 42.598 153.305C44.9847 154.643 45.5469 150.225 42.8937 150.926C43.0978 147.731 43.2161 144.532 43.3121 141.332C46.3159 142.302 46.4454 137.332 43.3729 138.326L43.3765 136.952C43.3991 126.416 43.2824 115.844 41.8883 105.391C41.7593 104.609 41.541 103.853 41.4136 103.076C41.3999 102.995 41.2741 103.018 41.2736 103.095C41.0578 117.729 42.0168 132.395 41.0163 147.034C40.1833 147.287 39.8512 148.241 39.2344 148.796C37.8652 150.057 36.0006 150.671 34.1772 150.885C29.0712 151.599 26.8667 150.043 24.5929 145.617C25.6185 146.301 27.0043 145.094 26.3792 144.012L26.3596 143.979C25.7104 142.833 23.8772 143.52 24.1093 144.803C21.8232 141.152 20.6268 137.035 19.7431 132.858L19.6236 132.359C19.194 130.586 18.6366 128.554 17.605 126.949C23.8956 125.35 30.0492 120.479 31.0335 113.795C32.6307 118.799 34.7944 123.691 36.8566 128.558C37.4935 130.251 37.7589 132.07 38.6718 133.64C38.8841 134.003 39.4225 133.909 39.5426 133.527C40.3636 129.866 37.8757 126.383 36.5839 123.088C35.5291 121.225 32.5013 112.72 30.6241 112.699C32.7335 103.478 35.547 94.3265 38.2264 85.2203C40.8173 72.9247 46.0972 70.5536 57.2824 66.6823C55.2649 76.9359 46.0538 86.8612 50.9552 97.6159L51.0744 97.8948C51.5757 99.0806 51.9922 100.275 51.6422 101.577C51.3025 102.84 50.5291 103.936 49.9102 105.072C46.4515 111.488 48.8323 118.981 50.1697 125.662C51.859 133.498 53.5279 141.34 55.2741 149.164C55.6184 150.724 55.8414 152.332 56.3614 153.845C56.6298 154.625 57.9689 154.551 57.8823 153.64C57.7172 151.874 57.2197 150.151 56.8555 148.417C54.6812 137.185 51.7391 126.086 49.8684 114.806C48.6651 106.456 53.4024 105.173 53.2255 99.7771C52.5816 97.0177 50.8773 94.5552 50.9751 91.6146C50.5963 82.6132 57.1705 75.1871 57.9821 66.4326L59.4152 65.9228C60.1314 65.667 60.8469 65.4093 61.56 65.1454C57.806 91.3292 58.946 118.085 60.8226 144.398C61.2059 145.612 60.8412 158.026 62.4485 157.273C62.5297 157.747 62.7822 158.213 63.3311 158.211C68.3158 158.256 73.3019 158.335 78.2865 158.394C80.6842 158.174 83.9798 159.087 86.0192 157.707C88.3738 157.037 88.6445 146.745 89.274 144.478L89.5194 142.83C93.5205 115.892 97.1009 88.3987 94.2249 61.1943C98.2263 61.3477 99.0522 65.6546 99.3489 68.7905C100.091 75.7117 104.575 81.6722 104.79 88.6729C104.808 90.3713 104.487 92.0167 103.806 93.5762C102 97.3969 98.8761 101.814 101.211 106.081C103.972 109.403 103.733 110.277 102.72 114.382C99.8691 127.954 95.1353 141.001 90.6321 154.085C91.6105 159.171 97.4957 140.291 98.0493 138.867C100.654 140.174 102.078 135.838 99.0895 135.529C101.009 129.122 102.775 122.667 104.245 116.142L104.284 115.958C104.934 112.942 106.212 109.412 104.054 106.737C98.4908 101.126 107.73 94.8546 106.564 88.0573C107.57 88.8015 109.094 88.0186 109.071 86.7688C109.117 85.3616 107.221 84.6408 106.309 85.7145C105.372 80.1997 102.109 75.3853 101.122 69.8867L101.077 69.6285C100.743 67.6852 100.649 65.6404 99.6915 63.8692C100.994 64.7131 102.382 65.3952 103.809 65.9972C101.257 68.1226 106.198 70.0624 105.789 66.7791C119.781 70.8163 122.944 76.4465 128.081 89.3762C127.122 88.4463 125.478 89.6496 126.052 90.8355C126.511 92.0848 128.51 91.7195 128.509 90.388L128.743 90.9448C131.858 98.3738 134.694 105.983 136.119 113.933C133.323 113.54 134.035 117.995 136.568 116.739C137.584 123.809 137.6 130.98 137.476 138.108C135.118 136.875 135.047 141.065 137.453 139.87C137.365 145.711 137.236 151.552 137.139 157.393C137.119 158.636 139.042 158.63 139.073 157.393C139.297 148.418 139.707 139.427 139.512 130.449C139.695 114.867 135.204 99.8489 128.511 85.8908C122.59 69.819 114.411 67.9913 99.3624 63.3185C97.9734 61.2621 95.0056 59.3171 92.5843 60.6084C91.2296 58.4275 90.5416 55.8437 89.5392 53.52ZM115.322 109.534C115.265 109.336 114.982 109.385 114.973 109.581C114.847 112.102 114.959 114.64 115.132 117.171C115.237 118.717 115.366 120.261 115.475 121.796C115.764 125.847 115.998 129.902 116.175 133.959C116.113 133.934 116.049 133.911 115.983 133.893C115.676 133.809 115.37 133.809 115.064 133.893C114.791 133.969 114.552 134.102 114.346 134.294L114.302 134.336C114.134 134.492 114.014 134.676 113.945 134.889C113.845 135.079 113.795 135.282 113.795 135.499L113.796 135.553C113.798 135.865 113.875 136.154 114.033 136.423C114.186 136.682 114.392 136.887 114.651 137.041C114.921 137.197 115.211 137.275 115.523 137.276C115.557 137.279 115.59 137.282 115.623 137.284C115.856 137.293 116.072 137.244 116.273 137.14L116.303 137.131C116.379 139.189 116.441 141.249 116.486 143.309C116.527 145.104 116.582 146.9 116.618 148.695L116.635 149.593L116.668 151.577C116.679 152.394 116.674 153.175 116.952 153.945L116.985 154.034C117.185 154.548 117.341 155.263 117.877 155.549C118.304 155.777 118.881 155.693 119.126 155.248C119.333 154.876 119.154 154.341 118.849 154.09C118.855 154.073 118.864 154.058 118.872 154.041C118.919 153.905 118.99 153.777 119.032 153.639C119.166 153.203 119.129 152.739 119.131 152.287C119.131 151.488 119.104 150.69 119.082 149.893C119.035 148.196 118.981 146.5 118.914 144.805C118.689 139.117 118.264 133.43 117.778 127.758L117.613 125.844C117.394 123.299 117.166 120.75 116.844 118.218C116.829 118.097 116.814 117.976 116.797 117.855C116.97 117.769 117.131 117.649 117.258 117.516C117.769 116.981 118.079 116.181 118.37 115.492L118.436 115.335C118.752 114.6 119.043 113.856 119.193 113.067L119.207 112.994C119.276 112.658 119.411 112.062 119.054 111.899C118.867 111.814 118.749 111.875 118.688 112.061C118.68 112.085 118.687 112.112 118.7 112.134C118.553 112.359 118.323 112.569 118.177 112.778L117.679 113.488L117.432 113.845C117.12 114.304 116.786 114.743 116.442 115.175C116.171 113.275 115.839 111.383 115.322 109.534ZM94.8891 151.865C94.2658 151.378 93.2513 151.643 93.2513 152.541C93.2513 153.444 94.2673 153.704 94.8891 153.217L94.92 153.194L94.9497 153.17C95.2883 152.906 95.2997 152.219 94.9754 151.933L94.9497 151.912C94.9302 151.895 94.9103 151.88 94.8891 151.865ZM121.987 150.11C121.705 150.11 121.442 150.181 121.198 150.324C121.092 150.404 120.988 150.485 120.881 150.567C120.687 150.761 120.554 150.991 120.48 151.255L120.423 151.67C120.416 151.884 120.46 152.084 120.558 152.27C120.622 152.464 120.73 152.632 120.881 152.772C121.024 152.925 121.191 153.033 121.385 153.094C121.556 153.185 121.738 153.23 121.933 153.23L121.987 153.229C122.27 153.229 122.533 153.158 122.777 153.016C122.883 152.936 122.988 152.854 123.094 152.772C123.286 152.579 123.421 152.349 123.496 152.084C123.514 151.946 123.532 151.807 123.552 151.67C123.559 151.455 123.514 151.255 123.417 151.069C123.353 150.876 123.246 150.708 123.094 150.567C122.951 150.415 122.785 150.307 122.59 150.245C122.419 150.155 122.236 150.109 122.04 150.109L121.987 150.11ZM51.0523 147.234L50.6548 147.287C50.2742 147.373 49.968 147.653 49.7633 147.972C49.654 148.143 49.595 148.327 49.5859 148.526C49.5418 148.722 49.551 148.92 49.6132 149.118C49.6587 149.312 49.748 149.481 49.8801 149.625C49.9254 149.696 49.9787 149.761 50.0392 149.819C50.1637 150.026 50.3516 150.162 50.5458 150.301C50.7094 150.405 50.887 150.461 51.0781 150.47C51.204 150.504 51.3313 150.504 51.4587 150.47C51.6483 150.461 51.8257 150.405 51.9895 150.301C52.0864 150.227 52.1834 150.151 52.2791 150.077C52.3639 149.979 52.4429 149.878 52.5172 149.772C52.5671 149.655 52.6158 149.54 52.6642 149.425C52.7538 149.148 52.7098 148.904 52.6611 148.627C52.6537 148.58 52.6414 148.538 52.6247 148.492L52.592 148.404C52.5047 148.174 52.4581 148.096 52.3034 147.896L52.2444 147.818C52.2149 147.778 52.1847 147.74 52.1501 147.706C52.0532 147.606 51.915 147.523 51.806 147.437C51.5725 147.302 51.3207 147.235 51.0523 147.234ZM102.488 146.266C102.268 146.267 102.062 146.322 101.871 146.432L101.622 146.624C101.47 146.777 101.366 146.955 101.307 147.163C101.293 147.272 101.278 147.381 101.263 147.488C101.257 147.656 101.291 147.813 101.369 147.96C101.417 148.111 101.502 148.241 101.622 148.353C101.733 148.471 101.865 148.556 102.016 148.606C102.149 148.674 102.291 148.711 102.442 148.711L102.488 148.71C102.709 148.71 102.916 148.654 103.107 148.543L103.355 148.353C103.507 148.2 103.612 148.02 103.671 147.813C103.684 147.704 103.7 147.597 103.715 147.488C103.721 147.32 103.686 147.163 103.609 147.018C103.559 146.866 103.475 146.735 103.355 146.624C103.245 146.505 103.113 146.42 102.961 146.372C102.829 146.302 102.689 146.267 102.539 146.265L102.488 146.266ZM112.547 145.765C112.23 145.762 111.908 145.851 111.649 146.035C111.397 146.213 111.206 146.405 111.083 146.694C111.05 146.773 111.017 146.85 110.988 146.928C110.857 147.275 110.833 147.623 111.013 147.961C111.188 148.29 111.564 148.433 111.901 148.531C112.186 148.616 112.509 148.63 112.792 148.528C112.933 148.479 113.071 148.426 113.199 148.349C113.437 148.202 113.566 148.028 113.725 147.813C113.849 147.601 113.911 147.371 113.911 147.126C113.911 146.88 113.849 146.652 113.725 146.438C113.481 146.022 113.029 145.768 112.547 145.765ZM128.621 146.057C128.221 146.057 127.869 146.242 127.628 146.553C127.384 146.869 127.294 147.263 127.402 147.654C127.516 148.069 127.86 148.432 128.286 148.536C128.601 148.613 128.859 148.61 129.173 148.557C129.439 148.512 129.642 148.354 129.845 148.191C130.077 148.002 130.148 147.657 130.11 147.379C130.074 147.101 129.945 146.919 129.749 146.754L129.748 146.75L129.821 146.806C129.793 146.782 129.766 146.756 129.739 146.73C129.73 146.715 129.722 146.698 129.715 146.682C129.602 146.491 129.451 146.342 129.261 146.23C129.062 146.115 128.85 146.057 128.621 146.057ZM35.2688 141.476C35.0489 141.417 34.8275 141.417 34.6076 141.476C34.4452 141.514 34.3043 141.588 34.1844 141.698C34.0629 141.777 33.9637 141.878 33.8887 142.004L33.8646 142.046C33.6915 142.34 33.6644 142.675 33.7387 143.002C33.8311 143.406 34.2041 143.773 34.6076 143.869L34.6212 143.871L34.6348 143.875C34.7986 143.926 34.964 143.934 35.1276 143.896C35.2931 143.888 35.4462 143.84 35.5871 143.749C35.7661 143.634 35.9162 143.486 36.0314 143.308C36.1226 143.165 36.171 143.013 36.1787 142.848C36.2073 142.739 36.2073 142.63 36.1787 142.521C36.171 142.356 36.1226 142.203 36.0314 142.061L35.8375 141.812L35.8176 141.795C35.6629 141.641 35.4796 141.535 35.2688 141.476ZM50.5366 133.472C48.5485 133.472 48.5516 136.549 50.5366 136.549C52.5246 136.549 52.5217 133.472 50.5366 133.472ZM123.324 133.084C123.115 133.037 122.905 133.046 122.698 133.111C122.572 133.164 122.447 133.217 122.323 133.268L122.005 133.513C121.945 133.563 121.917 133.618 121.862 133.689L121.794 133.778C121.695 133.909 121.693 133.937 121.585 134.218C121.512 134.487 121.512 134.756 121.585 135.026C121.62 135.156 121.673 135.278 121.741 135.392C121.803 135.5 121.878 135.596 121.962 135.684L122.005 135.727C122.147 135.88 122.316 135.987 122.51 136.051C122.632 136.122 122.764 136.157 122.905 136.157C123.115 136.204 123.324 136.195 123.532 136.13C123.658 136.077 123.782 136.024 123.906 135.972L124.225 135.727L124.47 135.41L124.549 135.223L124.628 135.036L124.684 134.62C124.692 134.404 124.648 134.204 124.549 134.017C124.511 133.885 124.445 133.769 124.348 133.672C124.278 133.554 124.184 133.46 124.066 133.391C123.969 133.294 123.852 133.227 123.72 133.19C123.597 133.118 123.465 133.084 123.324 133.084ZM24.9933 130.886C24.8279 130.88 24.6732 130.915 24.5307 130.99C24.4806 131.007 24.4319 131.028 24.3851 131.053C24.2016 131.16 24.056 131.305 23.9483 131.487C23.8604 131.626 23.8119 131.775 23.8043 131.937C23.7713 132.083 23.7744 132.23 23.814 132.376L23.827 132.42C23.8604 132.539 23.9104 132.65 23.977 132.751C23.9834 132.763 23.9908 132.775 23.9999 132.786C24.1015 132.946 24.2365 133.078 24.4033 133.176C24.5883 133.282 24.7869 133.336 25.0023 133.338C25.4314 133.338 25.8014 133.106 26.0274 132.751C26.0592 132.701 26.0774 132.637 26.1 132.586C26.1199 132.538 26.1517 132.476 26.1686 132.42C26.226 132.205 26.226 131.99 26.1686 131.775C26.1307 131.618 26.0592 131.481 25.9516 131.364C25.8653 131.233 25.7515 131.128 25.6104 131.053C25.4354 130.951 25.2474 130.896 25.0478 130.887L24.9933 130.886ZM108.933 129.381C108.723 129.324 108.514 129.32 108.306 129.368L108.253 129.381C108.087 129.421 107.943 129.496 107.818 129.608C107.68 129.699 107.57 129.818 107.489 129.966C107.374 130.165 107.316 130.379 107.315 130.609C107.316 130.839 107.374 131.054 107.489 131.252C107.603 131.444 107.756 131.595 107.949 131.709L108.115 131.789C108.255 131.877 108.404 131.924 108.565 131.931C108.672 131.96 108.78 131.96 108.886 131.931C108.995 131.931 109.097 131.904 109.191 131.85C109.294 131.821 109.382 131.769 109.458 131.694C109.59 131.609 109.693 131.497 109.768 131.356L109.891 131.067L109.934 130.747L109.891 130.428L109.825 130.271C109.764 130.054 109.655 129.867 109.496 129.708C109.336 129.551 109.148 129.442 108.933 129.381ZM33.728 126.83C33.5068 126.76 33.2867 126.751 33.0669 126.8C32.9184 126.8 32.7789 126.837 32.6498 126.913C32.5088 126.952 32.3876 127.022 32.2844 127.125C32.1041 127.241 31.9629 127.395 31.8582 127.587L31.6916 127.982C31.5915 128.238 31.6279 128.615 31.6884 128.872C31.7384 129.083 31.8355 129.268 31.9796 129.425C32.0523 129.548 32.1494 129.644 32.2724 129.717C32.4128 129.844 32.5747 129.935 32.7584 129.989L32.8091 130.003L32.8273 130.007C32.8304 130.009 32.8333 130.009 32.8364 130.009C32.8379 130.01 32.8411 130.01 32.8426 130.01C32.9152 130.028 32.9895 130.039 33.0669 130.042C33.2867 130.09 33.5068 130.082 33.728 130.012C33.8585 129.957 33.9904 129.901 34.1223 129.846C34.2345 129.761 34.3454 129.675 34.4575 129.588C34.5439 129.477 34.6303 129.365 34.7168 129.254C34.8382 129.065 34.9033 128.86 34.9124 128.64C34.952 128.494 34.952 128.348 34.9124 128.201C34.9124 128.052 34.8745 127.914 34.8003 127.786C34.7335 127.58 34.6197 127.403 34.4575 127.253C34.3454 127.167 34.2345 127.081 34.1223 126.996C33.9904 126.94 33.8585 126.884 33.728 126.83ZM130.448 121.415C130.22 121.353 129.99 121.353 129.761 121.415L129.454 121.544C129.302 121.626 129.182 121.736 129.091 121.877C128.976 122 128.899 122.147 128.859 122.315C128.77 122.545 128.78 122.91 128.852 123.144C128.932 123.41 129.056 123.622 129.249 123.822C129.569 124.151 130.06 124.247 130.495 124.147C130.615 124.12 130.729 124.067 130.832 124.002C131.161 123.799 131.383 123.445 131.381 123.053C131.381 123.011 131.378 122.969 131.372 122.926C131.393 122.84 131.401 122.751 131.398 122.657L131.352 122.315L131.349 122.306C131.289 122.09 131.179 121.902 131.02 121.743C130.873 121.598 130.702 121.493 130.506 121.43L130.456 121.415H130.448ZM16.0175 87.454C16.4318 84.0666 17.9894 80.4223 22.74 82.4114L23.0929 82.5433C24.2684 82.9871 25.6382 83.5702 26.3536 84.5954C26.8465 85.3017 26.6798 86.6704 26.7479 87.4947C27.0577 90.1747 26.8915 92.8509 26.5688 95.5196C26.1522 101.775 27.471 108.256 30.0964 113.941C27.4688 118.181 23.9523 122.136 19.1553 123.903C18.9524 119.082 18.0059 114.35 16.9987 109.646L16.959 109.441C16.5562 107.319 16.3546 105.142 14.9577 103.378C12.1161 100.301 8.20787 102.043 6.33792 97.1001C6.73068 96.902 6.51382 96.2244 6.04054 96.3546C4.40048 96.6448 4.13403 93.6126 5.25653 92.8819C6.42618 92.1707 5.24864 90.8585 5.74649 89.9114C6.024 89.5032 6.62302 89.4896 6.89461 89.0191C7.61433 87.2875 4.01242 86.1778 8.24821 84.2257C9.11517 83.9183 10.0842 84.109 10.9586 84.1055C12.2449 84.2253 13.2671 85.1291 14.4434 85.4135C13.1626 88.721 16.3944 91.906 19.3113 89.2642C20.8986 90.7605 22.6736 94.1711 18.8153 92.5811C16.9268 91.3241 15.301 89.6994 13.1088 88.9253L13.0625 88.9109C12.2487 88.645 8.68765 86.9194 8.8642 88.4129C10.1981 89.6968 12.398 89.6817 13.9428 90.7239C16.0846 91.7116 17.4541 94.1052 20.018 94.0721C20.6091 97.6515 16.5363 95.4736 15.0197 94.4865L14.5992 94.2589C12.4599 93.1064 10.2885 92.0386 7.79373 92.0244C7.10526 92.0199 7.10828 93.0786 7.79373 93.0876C11.045 93.1079 13.6913 95.1347 16.4148 96.6417C16.683 98.7311 13.615 97.8164 12.4508 97.5081C11.2302 97.3371 9.26985 96.0204 8.20151 96.7159C7.78372 97.7866 9.62244 97.7069 10.2625 98.0317C7.34 99.4316 9.90056 100.313 10.6841 98.1618L10.9136 98.2398C12.8706 98.8957 17.616 100.246 17.0516 96.9398C17.7678 97.2559 18.6412 97.4449 19.4326 97.2695C21.4063 100.181 24.5546 99.0543 19.9785 97.0698C21.0097 96.5915 21.3541 94.7445 20.3636 94.0571C23.9656 93.8378 21.2914 90.0687 19.8005 88.8126C19.9412 88.6708 20.0776 88.526 20.2047 88.3795C21.0643 88.7878 21.968 89.0359 22.9343 89.1236C23.8592 89.2066 24.0653 87.6369 23.1525 87.5083C22.1744 87.3707 21.2735 87.1105 20.4123 86.6204C19.1069 86.0582 18.6613 88.4738 17.3549 88.5594C16.6423 88.7001 16.1602 88.077 16.0175 87.454ZM46.3437 118.623C46.0282 118.623 45.7478 118.755 45.5189 118.964C45.2899 119.172 45.1913 119.486 45.1776 119.785C45.1716 119.945 45.2049 120.095 45.2777 120.234C45.3247 120.378 45.4051 120.502 45.5189 120.608C45.7312 120.818 46.0451 120.948 46.3437 120.948C46.6591 120.948 46.9396 120.816 47.1688 120.608C47.3976 120.397 47.4963 120.086 47.51 119.785C47.5161 119.626 47.4825 119.476 47.4099 119.337C47.3676 119.208 47.2983 119.093 47.2019 118.996L47.1688 118.964C46.9563 118.752 46.6426 118.623 46.3437 118.623ZM36.7861 111.451L36.7356 111.451C36.4687 111.453 36.2213 111.519 35.991 111.653C35.8909 111.73 35.7908 111.805 35.6921 111.883C35.5087 112.067 35.3829 112.283 35.313 112.533C35.2417 112.793 35.2417 113.055 35.313 113.315C35.3372 113.465 35.3933 113.61 35.4813 113.735C35.6119 113.951 35.7846 114.126 36.0031 114.254C36.2291 114.386 36.4732 114.451 36.7356 114.452C36.9978 114.451 37.2421 114.386 37.468 114.254C37.6864 114.126 37.8593 113.951 37.9882 113.735C38.0776 113.61 38.1338 113.465 38.158 113.315C38.2293 113.055 38.2293 112.793 38.158 112.533C38.0932 112.301 37.9801 112.098 37.8173 111.923L37.7789 111.883C37.6454 111.739 37.4877 111.638 37.3042 111.578C37.143 111.494 36.9703 111.451 36.7861 111.451ZM109.728 111.532C109.615 111.501 109.505 111.501 109.393 111.532C109.226 111.539 109.07 111.589 108.925 111.68C108.841 111.746 108.756 111.812 108.671 111.877L108.597 111.965C108.438 112.157 108.434 112.19 108.313 112.483C108.263 112.646 108.255 112.81 108.292 112.973C108.292 113.083 108.32 113.186 108.375 113.282C108.405 113.386 108.457 113.477 108.534 113.552C108.589 113.644 108.662 113.719 108.754 113.773C108.872 113.88 109.012 113.955 109.173 113.992L109.499 114.036C109.541 114.03 109.585 114.024 109.628 114.02C109.679 114.018 109.728 114.012 109.777 114.003L109.826 113.992L109.871 113.98C109.931 113.963 109.988 113.94 110.045 113.911C110.151 113.88 110.243 113.828 110.322 113.749C110.459 113.661 110.568 113.543 110.647 113.397L110.668 113.348C110.697 113.297 110.721 113.244 110.739 113.186C110.791 113.096 110.816 112.999 110.818 112.894C110.848 112.756 110.846 112.618 110.81 112.48L110.797 112.434L110.68 112.158C110.619 112.064 110.556 111.969 110.474 111.892C110.425 111.848 110.304 111.754 110.236 111.707L110.195 111.68C110.051 111.589 109.894 111.539 109.728 111.532ZM126.049 108.853C125.435 109.466 125.707 110.591 126.566 110.809L126.665 110.833C127.496 111.043 128.245 110.294 128.034 109.466L128.01 109.369C127.792 108.511 126.663 108.241 126.049 108.853ZM23.9244 102.374C23.9304 102.289 23.8212 102.259 23.7667 102.309C23.0357 102.962 22.5702 103.746 21.683 104.252C20.7912 104.761 19.8724 104.72 18.9428 105.048C18.6274 105.16 18.6259 105.58 18.9428 105.691C20.7019 106.303 23.7909 104.227 23.9244 102.374ZM106.58 102.241C106.384 102.18 106.187 102.171 105.991 102.215C105.858 102.215 105.733 102.248 105.62 102.315C105.494 102.35 105.386 102.413 105.294 102.504C105.183 102.569 105.095 102.658 105.028 102.769C104.898 102.911 104.81 103.077 104.764 103.268L104.713 103.66L104.764 104.051C104.814 104.168 104.864 104.286 104.913 104.402L105.048 104.585C105.158 104.731 105.176 104.733 105.442 104.93C105.612 105.037 105.795 105.096 105.991 105.104C106.122 105.14 106.252 105.14 106.384 105.104C106.516 105.104 106.64 105.071 106.755 105.004C106.88 104.969 106.989 104.906 107.082 104.815C107.242 104.711 107.368 104.573 107.461 104.402C107.511 104.286 107.561 104.168 107.609 104.051L107.662 103.66L107.609 103.268L107.606 103.256C107.536 103.011 107.412 102.797 107.233 102.617L106.939 102.39C106.824 102.316 106.704 102.279 106.58 102.241ZM35.7891 102.534C35.3692 102.419 34.908 102.54 34.6003 102.847C34.2923 103.154 34.171 103.613 34.2863 104.032C34.4 104.44 34.7291 104.771 35.14 104.882C35.2629 104.915 35.3872 104.933 35.5131 104.927C35.724 104.925 35.921 104.872 36.1045 104.767L36.3411 104.583C36.4565 104.478 36.5367 104.352 36.5839 104.207C36.6582 104.068 36.6916 103.918 36.6855 103.756L36.6869 103.728C36.6916 103.67 36.684 103.613 36.6656 103.557C36.6656 103.498 36.6565 103.44 36.6414 103.384C36.5307 102.976 36.197 102.646 35.7891 102.534ZM126.347 98.4387C126.212 98.434 126.086 98.4612 125.969 98.5233C125.846 98.5626 125.741 98.6291 125.654 98.7259C125.556 98.8136 125.49 98.9195 125.45 99.0405C125.388 99.1571 125.361 99.2826 125.365 99.4171C125.365 99.5941 125.411 99.7589 125.499 99.9101C125.55 99.9768 125.602 100.043 125.654 100.108C125.775 100.231 125.919 100.314 126.086 100.361L126.183 100.394C126.325 100.446 126.465 100.449 126.613 100.429C126.77 100.408 126.914 100.365 127.041 100.269C127.166 100.196 127.264 100.098 127.337 99.9737L127.42 99.7771C127.438 99.7107 127.446 99.6108 127.451 99.5411C127.451 99.5305 127.451 99.5216 127.452 99.5109C127.452 99.4519 127.434 99.3084 127.419 99.2492C127.385 99.1252 127.317 99.0072 127.24 98.9074C127.173 98.8032 127.082 98.7214 126.97 98.6609L126.96 98.6533L126.949 98.6458C126.914 98.6216 126.877 98.5974 126.841 98.5715C126.689 98.4839 126.524 98.4387 126.347 98.4387ZM48.0374 97.3647C47.7948 97.3647 47.5688 97.4267 47.3595 97.5477C47.3521 97.5506 47.3445 97.5537 47.3385 97.5569C47.1381 97.6747 46.9791 97.8337 46.8606 98.0332C46.7393 98.2404 46.6788 98.4644 46.6788 98.7033C46.6788 98.9437 46.7393 99.166 46.8606 99.3732C46.9791 99.573 47.1381 99.7316 47.3385 99.8498C47.3445 99.8541 47.3521 99.857 47.3595 99.8602C47.5688 99.9812 47.7948 100.042 48.0374 100.043C48.2785 100.042 48.5045 99.9812 48.7139 99.8602C49.1232 99.6212 49.3796 99.1751 49.3796 98.7033C49.3796 98.2312 49.1232 97.7851 48.7139 97.5477C48.5045 97.4267 48.2785 97.3647 48.0374 97.3647ZM111.014 95.6159L110.972 95.615C110.812 95.6088 110.662 95.6421 110.524 95.7164C110.38 95.7631 110.254 95.8434 110.147 95.9568L109.926 96.1412L109.862 96.1931C109.851 96.2019 109.841 96.2109 109.831 96.22C109.682 96.3696 109.58 96.545 109.523 96.7477C109.505 96.8643 109.489 96.9791 109.477 97.0955C109.444 97.398 109.623 97.7082 109.82 97.923C109.926 98.0364 110.052 98.1164 110.198 98.1648C110.337 98.2376 110.489 98.2707 110.65 98.2646C110.979 98.236 111.291 98.1663 111.527 97.9122C111.555 97.882 111.581 97.8502 111.608 97.8185L111.797 97.6007C111.941 97.4556 112.042 97.2846 112.096 97.088C112.111 96.9836 112.125 96.8808 112.139 96.7779C112.152 96.4679 112.001 96.1775 111.797 95.9568C111.61 95.7523 111.291 95.6273 111.014 95.6159ZM118.669 92.4312C117.092 92.4312 117.095 94.8709 118.669 94.8709C120.244 94.8709 120.241 92.4312 118.669 92.4312ZM39.3753 89.0108L39.3256 89.0117C39.0646 89.0132 38.8206 89.0782 38.5945 89.2098L38.3005 89.4351C38.1214 89.6166 37.9972 89.8284 37.9273 90.0734C37.9108 90.2018 37.8939 90.3305 37.8757 90.4575C37.8681 90.6572 37.9108 90.8432 38.0016 91.0156C38.0592 91.1941 38.1593 91.3497 38.3005 91.4815C38.4323 91.6221 38.5871 91.7219 38.7674 91.7794C38.9403 91.8701 39.1268 91.9125 39.3256 91.9049C39.5878 91.9033 39.8321 91.8384 40.0581 91.7068C40.1565 91.6312 40.2535 91.5556 40.3521 91.4815C40.5173 91.3139 40.6359 91.1206 40.7069 90.8992L40.7236 90.8432L40.7767 90.4575C40.7843 90.2594 40.742 90.0734 40.651 89.901C40.5932 89.721 40.4931 89.5667 40.3521 89.4351C40.2202 89.2943 40.064 89.1945 39.885 89.1372C39.7267 89.054 39.5567 89.0114 39.3753 89.0108ZM46.4788 84.4442C46.3378 84.4395 46.2074 84.4683 46.0844 84.5319C45.9587 84.5726 45.8495 84.6437 45.757 84.742C45.5612 84.8979 45.4415 85.2093 45.4415 85.4619C45.4415 85.7145 45.5612 86.0262 45.757 86.1818C45.8844 86.3074 46.0345 86.3951 46.2074 86.4435L46.4788 86.4799C46.7427 86.492 47.0111 86.3544 47.1991 86.1818C47.237 86.1472 47.2734 86.1124 47.3113 86.079C47.4825 85.9217 47.5569 85.6873 47.5676 85.4619C47.5722 85.3426 47.5462 85.2307 47.4918 85.1263C47.4568 85.0174 47.3963 84.925 47.3113 84.8449C47.2734 84.8116 47.237 84.7769 47.1991 84.742C46.9942 84.553 46.7548 84.4578 46.4788 84.4442ZM1.47267 76.3088C0.476196 75.0983 1.0564 74.2367 2.55392 74.5361C5.13344 74.8841 7.56117 76.51 9.83301 77.6759C12.3126 78.9821 14.868 80.0594 17.3973 81.2867C16.3537 81.9255 15.5776 82.926 14.9846 84.0676C13.801 83.1712 12.288 82.7425 10.8111 82.6867C8.13167 80.1274 3.69431 79.5413 1.47267 76.3088ZM119.199 80.3275C118.929 80.3287 118.676 80.3921 118.439 80.5185L118.388 80.5466L118.063 80.7977C117.906 80.9429 117.795 81.1151 117.73 81.3134C117.63 81.504 117.584 81.7112 117.592 81.932C117.584 82.1528 117.63 82.3585 117.73 82.5491C117.795 82.7487 117.906 82.9196 118.063 83.0648C118.153 83.1813 118.268 83.272 118.406 83.3387C118.535 83.3915 118.662 83.4459 118.791 83.5004C118.935 83.5458 119.102 83.5518 119.258 83.5594C119.542 83.5579 119.806 83.4868 120.052 83.3446L120.37 83.0997C120.523 82.9574 120.632 82.7895 120.696 82.5944C120.786 82.4227 120.832 82.2392 120.832 82.0432L120.831 81.9895C120.831 81.9775 120.831 81.9638 120.829 81.9502C120.811 81.808 120.791 81.6658 120.772 81.5238C120.722 81.3149 120.626 81.1319 120.484 80.9777C120.447 80.9051 120.399 80.8461 120.336 80.7977C120.136 80.598 119.9 80.4619 119.627 80.3846C119.484 80.3666 119.342 80.3468 119.199 80.3275ZM48.7898 76.3209C48.585 76.3209 48.3955 76.3723 48.2194 76.4737C48.1422 76.5328 48.0664 76.5916 47.9906 76.6506C47.8494 76.7913 47.7523 76.9576 47.6994 77.1482L47.6583 77.4475C47.6539 77.6034 47.6858 77.7471 47.757 77.8819C47.8024 78.0209 47.8799 78.1419 47.9906 78.2447C48.0922 78.355 48.2133 78.4323 48.3544 78.4776C48.488 78.5487 48.6336 78.5805 48.7898 78.5746C48.993 78.5746 49.184 78.523 49.36 78.4202C49.4358 78.3627 49.5131 78.3037 49.5889 78.2447C49.7168 78.1158 49.809 77.9652 49.8644 77.7943L49.8786 77.7471L49.9194 77.4475C49.9254 77.2919 49.8936 77.1482 49.8225 77.0136C49.777 76.8731 49.698 76.752 49.5889 76.6506C49.4858 76.5401 49.3643 76.4631 49.2248 76.4177C49.1035 76.3537 48.9734 76.3216 48.8359 76.3202L48.7898 76.3209ZM110.336 74.6822L110.283 74.683C109.981 74.6845 109.7 74.7601 109.44 74.9113C109.327 74.9977 109.215 75.0839 109.103 75.1716C108.895 75.3787 108.753 75.6237 108.672 75.9065L108.613 76.3481C108.604 76.578 108.653 76.7913 108.757 76.9894C108.824 77.1967 108.939 77.3751 109.103 77.5263C109.253 77.6883 109.432 77.8031 109.64 77.8698C109.838 77.974 110.052 78.0225 110.283 78.0133C110.585 78.0133 110.865 77.9377 111.126 77.7864C111.238 77.7002 111.35 77.6127 111.464 77.5263C111.67 77.3176 111.813 77.0726 111.893 76.7913L111.952 76.3481C111.962 76.1198 111.913 75.9051 111.808 75.7069C111.742 75.5013 111.626 75.3212 111.464 75.1716C111.312 75.0083 111.134 74.8932 110.926 74.8266C110.742 74.7303 110.546 74.6829 110.336 74.6822ZM54.1836 70.5239C54.0456 70.4874 53.9077 70.4874 53.7697 70.5239C53.5635 70.5328 53.3708 70.5948 53.1918 70.7082L52.8779 70.9504C52.8735 70.9548 52.8688 70.9595 52.8643 70.9655C52.6747 71.1559 52.5429 71.3814 52.4701 71.64L52.4154 72.0469C52.4078 72.2571 52.4518 72.4536 52.5473 72.6352C52.6043 72.8098 52.6984 72.9616 52.828 73.0928L52.8779 73.1417C53.0191 73.293 53.1844 73.4004 53.377 73.4624C53.4981 73.5336 53.6302 73.5684 53.7697 73.5684C53.9758 73.6151 54.1836 73.6062 54.39 73.541C54.5127 73.4881 54.6372 73.4366 54.7614 73.3854L54.8009 73.3625C55.2695 73.1071 55.5592 72.5717 55.5592 72.0469C55.5592 71.5219 55.2695 70.985 54.8009 70.7294C54.7871 70.7235 54.7752 70.7158 54.7614 70.7082C54.5824 70.5948 54.39 70.5328 54.1836 70.5239Z" fill="black"></path> <path fill-rule="evenodd" clip-rule="evenodd" d="M52.8858 36.6602C53.0973 26.8953 55.5568 16.0849 63.9876 10.0505C64.5246 9.66569 65.3306 9.85208 65.7756 10.2916C66.1411 10.3622 66.4767 10.5812 66.6999 10.9838C71.6853 19.985 76.9335 28.8439 82.4421 37.5415C85.9789 43.1653 90.2753 48.7962 90.8421 55.6128C90.9402 55.7416 91.8508 56.7586 91.3202 56.6846C91.0847 56.5627 90.8448 56.4625 90.5926 56.3885C89.919 57.3598 88.355 57.2071 87.9832 56.1107C86.6941 56.1474 85.4183 56.4732 84.1901 56.8512C81.1777 57.784 78.116 58.706 75.0417 59.4189C64.9137 62.078 54.0309 58.6948 53.2217 47.0141C52.1346 45.4989 52.7227 38.7459 52.8858 36.6602Z" fill="#D08B5B"></path> <path fill-rule="evenodd" clip-rule="evenodd" d="M45.5167 60.6616C46.95 54.006 47.8694 47.2645 48.6922 40.5144C49.0904 37.245 49.4082 33.9669 49.7764 30.695C50.1204 27.6467 50.5213 24.5885 51.3252 21.621C52.0725 18.8635 53.1655 16.1334 54.7759 13.7526C56.2857 11.5207 58.1839 9.60821 60.3633 8.01139C64.6695 4.85628 70.1766 3.17744 75.5328 3.73415C76.3419 3.81865 77.1434 3.9541 77.936 4.13553C77.6835 4.06222 77.4284 3.99375 77.171 3.93422C77.0881 3.91446 77.1249 3.80399 77.2062 3.81132C98.9975 5.76988 104.123 43.2594 104.589 50.8185C104.626 51.4064 104.655 51.9928 104.676 52.5806C104.839 53.8918 104.961 55.2065 105.019 56.5248C105.084 58.0458 105.053 59.5769 104.911 61.0928C104.765 62.6473 104.6 64.2405 103.944 65.6696C103.542 66.5494 84.7997 65.3441 84.6063 64.3051C84.2144 62.2075 84.0134 60.0429 84.1363 57.9093C84.1941 56.8864 84.301 55.8712 84.5221 54.8696C84.5824 54.5962 84.6465 54.083 84.8084 53.6767C83.0989 50.4633 81.2184 47.3416 79.2826 44.256C75.2539 37.8315 70.9705 31.5262 67.6781 24.684C66.0273 21.2557 64.4007 17.6148 63.6219 13.8581L63.4963 13.883C63.5114 13.9277 63.5013 13.9836 63.4561 14.0147C59.8772 16.4615 57.4854 20.1696 55.9352 24.14C54.1302 28.7626 53.2547 33.7543 53.3803 38.7076C53.5799 46.5786 56.596 56.3061 65.1293 58.7939C67.0764 59.3618 69.1791 59.5221 71.174 59.1071C72.1149 58.9107 73.0369 58.6086 73.8861 58.1614C74.8282 57.6656 75.602 56.9635 76.485 56.3858C77.2928 55.8576 78.2463 56.8877 77.7815 57.6693C76.7552 59.3966 74.5468 60.4529 72.65 60.9723C70.6263 61.5278 68.492 61.554 66.4307 61.2011C66.2737 61.1749 66.1179 61.145 65.9634 61.1127C65.9282 61.6247 65.7059 62.1343 65.3441 62.5481C65.1821 62.7345 64.9823 62.8958 64.7587 63.0314C64.7297 63.5311 64.4044 64.033 63.8755 64.1425C61.0505 64.7239 49.3179 63.1992 46.4965 62.3677C45.739 62.1443 45.3559 61.4098 45.5167 60.6616Z" fill="black"></path> <path fill-rule="evenodd" clip-rule="evenodd" d="M66.5965 51.9558C67.3582 51.64 68.0379 51.1132 68.5348 50.4403C68.7075 50.2063 68.7523 49.9593 68.7161 49.7334C68.6753 49.4793 68.5274 49.2491 68.3257 49.0946C68.1234 48.9397 67.8703 48.8633 67.6256 48.9022C67.413 48.9361 67.2014 49.0544 67.0339 49.2997L66.9989 49.3488C66.7034 49.7549 66.3185 50.0882 65.8799 50.303C65.4571 50.51 64.9843 50.6066 64.495 50.5504C63.5631 50.4435 62.9208 49.9313 62.2381 49.2358C62.1534 49.148 62.0688 49.0574 61.9837 48.9654C61.9299 48.882 61.8554 48.8284 61.7726 48.8003C61.6807 48.769 61.5767 48.7708 61.4814 48.8046C61.3895 48.8371 61.3074 48.8989 61.2524 48.9811C61.2 49.0591 61.1703 49.1556 61.18 49.2666C61.2425 49.9874 61.6133 50.6306 62.14 51.1357C62.725 51.6967 63.5004 52.0848 64.2305 52.2209C65.0348 52.3708 65.8544 52.2634 66.5965 51.9558ZM63.8507 40.8363C62.995 41.3649 61.6912 42.5974 62.6117 43.9078C63.6953 45.0633 65.2554 43.7385 66.0241 43.1394C66.737 42.675 67.5379 43.8693 66.8765 44.4115C61.3213 48.5911 59.0669 40.9746 63.4179 40.2149C63.897 40.1312 64.0749 40.6728 63.8507 40.8363ZM73.8059 35.9744C73.7114 34.7818 71.9241 34.511 71.7463 35.6911C71.5871 36.7482 71.7745 37.7193 72.243 38.6711C72.6908 39.5804 73.816 39.1562 73.9011 38.3282C74.0152 37.2183 73.8647 36.7162 73.8059 35.9744ZM60.2003 35.4464C59.9512 35.1148 59.5914 34.8884 59.1603 35.0163C57.8136 35.4163 58.2105 37.3593 58.6835 38.3051C58.9405 38.8187 59.7712 38.9489 60.1466 38.4967C60.7585 37.7592 61.0516 36.2865 60.2737 35.5601C60.2526 35.5225 60.2291 35.4847 60.2003 35.4464ZM72.2619 30.756L72.0492 30.7181C71.3911 30.6025 70.5728 30.4913 70.1072 31.029C69.8603 31.3141 69.7753 31.8441 70.1072 32.117C70.691 32.5972 71.3365 32.4111 72.0361 32.4518C72.6127 32.4854 73.1668 32.5824 73.7221 32.7437C74.9405 33.0976 75.9333 33.7436 76.9739 34.453C77.1104 34.546 77.2498 34.3685 77.1846 34.2388C76.5839 33.0431 75.4198 32.0609 74.2538 31.4622C73.6315 31.1427 72.9504 30.8776 72.2619 30.756ZM61.4282 30.2203L61.2654 30.2542C59.4934 30.6306 57.1912 31.3825 56.3521 33.1512C56.3201 33.4013 56.3539 33.4549 56.3814 33.49L56.3905 33.5016C56.4132 33.5315 56.4312 33.5727 56.5379 33.6068C56.5675 33.5996 56.5974 33.592 56.6276 33.584C57.0122 33.4815 57.3166 33.3404 57.6112 33.194L57.9306 33.0341C58.3012 32.8494 58.6751 32.6715 59.0713 32.5401C59.9169 32.2598 60.7867 32.0624 61.6699 31.9569C61.8613 31.9341 62.0457 31.8684 62.1911 31.7559C62.3292 31.6491 62.4346 31.5012 62.4827 31.3047C62.545 31.0503 62.5271 30.8577 62.3928 30.6282C62.2918 30.4558 62.1473 30.3364 61.9814 30.2678C61.8122 30.1979 61.6196 30.1814 61.4282 30.2203Z" fill="black"></path> </g> <defs> <clipPath id="clip0"> <rect width="140" height="154" fill="white"></rect> </clipPath> </defs> </svg> 