<?xml version="1.0" encoding="UTF-8"?> <svg xmlns="http://www.w3.org/2000/svg" width="749" height="240" viewBox="0 0 749 240" fill="none"> <path d="M505.758 53.0887C517.462 53.0887 526.498 57.8184 532.867 67.2781L534.181 55.5352H564.633V187.89L564.632 188.484C564.524 205.074 559.907 217.781 550.78 226.605C541.545 235.535 528.289 240 511.013 240C503.927 240 496.483 238.552 488.681 235.657C480.879 232.762 475.067 229.072 471.245 224.587L482.59 200.612L482.923 200.964C486.062 204.229 490.091 206.904 495.01 208.991C500.106 211.152 504.922 212.232 509.46 212.232C517.024 212.232 522.457 210.377 525.761 206.667C529.065 202.956 530.757 196.983 530.837 188.746V177.37L530.551 177.748C524.141 186.14 515.837 190.336 505.639 190.336C491.865 190.336 481.217 184.852 473.693 173.884C466.17 162.916 462.328 147.441 462.169 127.462V117.676L462.171 116.947C462.255 95.6208 466.077 79.6762 473.634 69.1133C481.277 58.4303 491.985 53.0887 505.758 53.0887ZM397.203 53.0887C411.375 53.0887 422.342 56.8602 430.104 64.4035C437.867 71.9468 441.748 82.7321 441.748 96.7586V159.021L441.759 159.677C441.969 170.781 443.558 179.492 446.525 185.811V187.89H412.489L412.397 187.688C411.472 185.629 410.548 182.271 409.623 177.615C403.573 186.096 395.372 190.336 385.022 190.336C374.195 190.336 365.218 186.667 358.093 179.327C350.967 171.988 347.404 162.487 347.404 150.826C347.404 136.962 351.723 126.238 360.362 118.654C369 111.07 381.44 107.197 397.681 107.034H407.951V96.3914L407.95 95.959C407.902 90.2345 406.908 86.179 404.966 83.7922C402.975 81.3457 400.07 80.1223 396.248 80.1223C387.809 80.1223 383.589 85.1785 383.589 95.2906H349.793L349.795 94.775C349.92 82.7743 354.397 72.8543 363.228 65.0152C372.184 57.0642 383.51 53.0887 397.203 53.0887ZM699.581 53.0887C715.822 53.0887 728.043 58.4098 736.243 69.052C744.444 79.6942 748.623 95.4534 748.783 116.33V133.333H681.548L681.576 133.874C682.104 143.383 684.205 150.359 687.877 154.801C691.619 159.327 697.391 161.59 705.193 161.59C716.499 161.59 725.933 157.635 733.497 149.725L746.752 170.642L746.467 171.041C742.338 176.729 736.422 181.346 728.72 184.893C720.838 188.522 712.279 190.336 703.044 190.336C685.688 190.336 672.153 185.036 662.44 174.434C652.727 163.833 647.871 148.665 647.871 128.93V118.41L647.873 117.7C647.973 97.1678 652.431 81.2984 661.246 70.0918C670.163 58.7564 682.941 53.0887 699.581 53.0887ZM624.703 0V187.89H590.787V0H624.703ZM253.777 9.6L280.05 89.6L306.204 9.6H344.419L297.844 123.117V187.704H262.256V123.117L215.562 9.6H253.777ZM17.1261 142.142V163.582H135.106V142.142H152.232V186.972H0V142.142H17.1261ZM407.951 127.829H399.831L399.442 127.832C393.894 127.915 389.505 129.789 386.276 133.455C382.972 137.207 381.32 142.222 381.32 148.502C381.32 158.288 385.062 163.18 392.546 163.18C396.288 163.18 399.472 162.406 402.1 160.856C404.727 159.307 406.678 157.472 407.951 155.352V127.829ZM515.67 82.0797C508.983 82.0797 504.027 84.893 500.802 90.5199C497.578 96.1468 495.966 105.199 495.966 117.676V126.361L495.967 126.98C496.019 138.894 497.571 147.597 500.623 153.089C503.728 158.675 508.664 161.468 515.431 161.468C522.358 161.468 527.493 158.899 530.837 153.761V90.5199L530.644 90.2156C527.15 84.7915 522.158 82.0797 515.67 82.0797ZM699.342 81.8348C693.45 81.8348 689.171 83.9958 686.504 88.318C683.837 92.6401 682.264 99.572 681.787 109.113H715.583V105.933L715.571 105.396C715.366 97.7511 714.096 91.936 711.762 87.9512C709.373 83.8737 705.233 81.8348 699.342 81.8348ZM41.8639 68.0742C52.3733 68.0742 60.8929 76.801 60.8929 87.5656C60.8929 98.3302 52.3733 107.057 41.8639 107.057C31.3544 107.057 22.8349 98.3302 22.8349 87.5656C22.8349 76.801 31.3544 68.0742 41.8639 68.0742ZM110.369 68.0742C120.878 68.0742 129.398 76.801 129.398 87.5656C129.398 98.3302 120.878 107.057 110.369 107.057C99.8589 107.057 91.3392 98.3302 91.3392 87.5656C91.3392 76.801 99.8589 68.0742 110.369 68.0742ZM152.232 9.6V32.9898H0V9.6H152.232Z" fill="black"></path> </svg> 