<?xml version="1.0" encoding="UTF-8"?> <svg xmlns="http://www.w3.org/2000/svg" width="90" height="90" viewBox="0 0 90 90" fill="none"> <g clip-path="url(#clip0)"> <g clip-path="url(#clip1)" filter="url(#filter0_d)"> <path d="M87.9018 38.9979C87.0168 39.3383 86.0718 39.5701 85.0768 39.676C86.0908 39.1414 86.8708 38.2988 87.2398 37.2934C86.2888 37.779 85.2348 38.1325 84.1128 38.3294C83.2168 37.4903 81.9398 36.9653 80.5218 36.9653C77.8048 36.9653 75.6018 38.8929 75.6018 41.2676C75.6018 41.6089 75.6468 41.937 75.7288 42.2511C71.6388 42.0823 68.0138 40.3638 65.5878 37.7659C65.1608 38.3976 64.9218 39.1318 64.9218 39.9315C64.9218 41.4278 65.7918 42.7429 67.1098 43.5155C66.3028 43.4928 65.5438 43.2985 64.8818 42.9765V43.0299C64.8818 45.1168 66.5748 46.8571 68.8278 47.2535C68.4148 47.3506 67.9788 47.4031 67.5318 47.4031C67.2178 47.4031 66.9168 47.3769 66.6158 47.3279C67.2468 49.0368 69.0608 50.2828 71.2198 50.3178C69.5398 51.4719 67.4108 52.1596 65.1178 52.1596C64.7278 52.1596 64.3388 52.1395 63.9478 52.101C66.1368 53.3208 68.7158 54.0339 71.5048 54.0339C80.5588 54.0339 85.5038 47.4749 85.5038 41.7961C85.5038 41.6133 85.5038 41.4286 85.4888 41.2449C86.4498 40.642 87.2888 39.8799 87.9488 39.0154L87.9018 38.9979Z" fill="#1A1A1A"></path> </g> <g clip-path="url(#clip2)" filter="url(#filter1_d)"> <path d="M70.5841 69.5294C69.4932 72.3529 73.4932 70.9412 73.1296 73.4118C73.2737 77.1892 74.2205 75.1765 73.8568 76.9412C74.2205 80.8235 66.7414 82.8013 64.7659 82.5882C62.3984 83.1048 61.8166 80.5026 57.8568 78C55.675 79.4118 53.1296 76.5882 54.2205 73.4118C52.9102 72.5521 52.4023 72.9844 52.4023 71.2941C52.4023 67.5905 58.7683 60.7059 62.5841 60.7059C64.5538 60.7059 66.3341 63.2938 67.3114 64.9412C68.2274 66.4853 70.5841 67.7376 70.5841 69.5294Z" fill="white"></path> <path d="M68.9278 71.341C69.0928 71.32 69.2598 71.32 69.4248 71.341C69.5138 71.136 69.5288 70.783 69.4488 70.399C69.3288 69.828 69.1688 69.482 68.8358 69.536C68.5028 69.59 68.4898 70.004 68.6098 70.575C68.6768 70.896 68.7958 71.171 68.9288 71.341H68.9278ZM66.0678 71.793C66.3068 71.898 66.4528 71.967 66.5098 71.907C66.5468 71.869 66.5358 71.797 66.4798 71.704C66.3618 71.511 66.1198 71.316 65.8628 71.207C65.5965 71.0965 65.3063 71.0564 65.0201 71.0908C64.7338 71.1251 64.4613 71.2326 64.2288 71.403C64.0688 71.52 63.9188 71.683 63.9388 71.781C63.9468 71.813 63.9698 71.837 64.0258 71.845C64.1578 71.86 64.6168 71.628 65.1458 71.595C65.5198 71.572 65.8298 71.689 66.0678 71.794V71.793ZM65.5878 72.067C65.2778 72.117 65.1068 72.219 64.9968 72.314C64.9028 72.396 64.8448 72.487 64.8448 72.551L64.8688 72.608L64.9198 72.628C64.9898 72.628 65.1478 72.564 65.1478 72.564C65.4665 72.4436 65.811 72.4078 66.1478 72.46C66.3028 72.478 66.3778 72.488 66.4108 72.434C66.4208 72.419 66.4338 72.385 66.4028 72.334C66.3298 72.216 66.0158 72.017 65.5888 72.068L65.5878 72.067ZM67.9628 73.073C68.1728 73.177 68.4048 73.136 68.4808 72.983C68.5568 72.828 68.4468 72.619 68.2358 72.516C68.0258 72.412 67.7938 72.453 67.7178 72.606C67.6418 72.761 67.7518 72.97 67.9628 73.073ZM69.3178 71.887C69.1468 71.884 69.0038 72.072 69.0008 72.308C68.9968 72.543 69.1318 72.736 69.3028 72.739C69.4738 72.742 69.6168 72.554 69.6208 72.319C69.6238 72.084 69.4888 71.891 69.3178 71.887ZM57.8138 76.13C57.7718 76.077 57.7018 76.093 57.6338 76.109C57.5815 76.123 57.5278 76.1304 57.4738 76.131C57.4167 76.1323 57.3601 76.1194 57.3092 76.0936C57.2583 76.0678 57.2145 76.0298 57.1818 75.983C57.1038 75.863 57.1088 75.684 57.1938 75.479L57.2338 75.387C57.3718 75.079 57.6018 74.562 57.3438 74.07C57.1498 73.7 56.8328 73.468 56.4518 73.42C56.2715 73.3969 56.0883 73.4171 55.9174 73.4788C55.7465 73.5405 55.5927 73.6421 55.4688 73.775C55.0898 74.193 55.0308 74.763 55.1048 74.965C55.1318 75.038 55.1738 75.059 55.2038 75.063C55.2688 75.072 55.3638 75.025 55.4238 74.863L55.4408 74.811C55.4668 74.726 55.5168 74.568 55.5978 74.441C55.6471 74.3652 55.711 74.3 55.7856 74.2489C55.8603 74.1978 55.9443 74.162 56.0328 74.1434C56.1213 74.1248 56.2126 74.1239 56.3015 74.1406C56.3904 74.1574 56.4751 74.1915 56.5508 74.241C56.8168 74.416 56.9188 74.741 56.8058 75.052C56.7468 75.213 56.6518 75.52 56.6728 75.772C56.7158 76.284 57.0298 76.489 57.3108 76.512C57.5848 76.522 57.7768 76.367 57.8248 76.254C57.8548 76.188 57.8298 76.147 57.8148 76.129V76.13H57.8138ZM73.6388 75.194C73.6288 75.157 73.5608 74.908 73.4668 74.608L73.2768 74.098C73.6518 73.535 73.6578 73.032 73.6088 72.748C73.5548 72.395 73.4088 72.094 73.1128 71.784C72.8178 71.472 72.2128 71.154 71.3628 70.916L70.9178 70.792C70.9158 70.774 70.8948 69.739 70.8748 69.295C70.8618 68.975 70.8338 68.473 70.6788 67.98C70.4938 67.311 70.1718 66.727 69.7688 66.353C70.8788 65.201 71.5718 63.931 71.5698 62.842C71.5668 60.747 68.9988 60.112 65.8338 61.426L65.1638 61.711C64.7543 61.3081 64.3443 60.9058 63.9338 60.504C60.3238 57.35 49.0428 69.912 52.6488 72.964L53.4378 73.632C53.2246 74.2041 53.1492 74.8183 53.2178 75.425C53.3028 76.265 53.7348 77.069 54.4358 77.691C55.1008 78.281 55.9758 78.656 56.8248 78.655C58.2278 81.895 61.4348 83.883 65.1948 83.995C69.2288 84.115 72.6148 82.219 74.0348 78.813C74.1278 78.573 74.5208 77.496 74.5208 76.546C74.5208 75.59 73.9818 75.194 73.6388 75.194ZM57.1358 77.744C57.0122 77.7651 56.887 77.7741 56.7618 77.771C55.5438 77.738 54.2278 76.64 54.0968 75.336C53.9518 73.896 54.6868 72.788 55.9868 72.526C56.1667 72.4901 56.3505 72.4767 56.5338 72.486C57.2628 72.526 58.3368 73.086 58.5818 74.677C58.7988 76.085 58.4538 77.52 57.1358 77.745V77.744ZM55.7758 71.664C54.9658 71.821 54.2518 72.281 53.8158 72.916C53.5548 72.698 53.0688 72.276 52.9828 72.112C52.2858 70.787 53.7428 68.21 54.7608 66.755C57.2778 63.159 61.2158 60.437 63.0408 60.931C63.3368 61.015 64.3188 62.155 64.3188 62.155C64.3188 62.155 62.4958 63.168 60.8048 64.581C58.5268 66.338 56.8058 68.892 55.7748 71.664H55.7758ZM68.5628 77.206C68.5762 77.1999 68.5874 77.1898 68.5949 77.1771C68.6024 77.1644 68.6059 77.1497 68.6048 77.135C68.6039 77.1262 68.6013 77.1176 68.5971 77.1098C68.5929 77.102 68.5872 77.0951 68.5803 77.0896C68.5734 77.084 68.5655 77.0798 68.557 77.0773C68.5485 77.0748 68.5396 77.074 68.5308 77.075C68.5308 77.075 66.6228 77.358 64.8198 76.696C65.0158 76.057 65.5378 76.288 66.3278 76.352C67.5546 76.4247 68.7849 76.2916 69.9678 75.958C70.7838 75.723 71.8558 75.26 72.6898 74.602C72.9698 75.22 73.0698 75.9 73.0698 75.9C73.0698 75.9 73.2868 75.861 73.4688 75.973C73.6398 76.079 73.7658 76.299 73.6798 76.868C73.5048 77.931 73.0538 78.794 72.2958 79.588C71.8223 80.101 71.2586 80.5227 70.6328 80.832C70.2846 81.0155 69.9217 81.1694 69.5478 81.292C66.6898 82.227 63.7638 81.199 62.8208 78.992C62.744 78.8232 62.6805 78.6487 62.6308 78.47C62.2298 77.015 62.5708 75.27 63.6378 74.171C63.7028 74.101 63.7698 74.018 63.7698 73.915C63.7698 73.828 63.7148 73.737 63.6678 73.672C63.2948 73.13 62.0018 72.206 62.2618 70.418C62.4478 69.133 63.5698 68.229 64.6148 68.283L64.8798 68.298C65.3328 68.325 65.7278 68.383 66.1018 68.399C66.7258 68.426 67.2868 68.335 67.9518 67.78C68.1758 67.593 68.3558 67.43 68.6598 67.379C68.6918 67.374 68.7708 67.345 68.9298 67.353C69.0922 67.3592 69.2499 67.4097 69.3858 67.499C69.9188 67.854 69.9938 68.714 70.0218 69.344C70.0378 69.704 70.0808 70.572 70.0958 70.822C70.1298 71.392 70.2788 71.472 70.5818 71.572C70.7518 71.629 70.9108 71.671 71.1438 71.736C71.8488 71.935 72.2668 72.136 72.5308 72.395C72.6888 72.556 72.7608 72.728 72.7838 72.892C72.8678 73.5 72.3138 74.251 70.8458 74.933C69.2408 75.679 67.2958 75.868 65.9508 75.718L65.4798 75.665C64.4038 75.52 63.7908 76.912 64.4358 77.866C64.8518 78.481 65.9858 78.881 67.1188 78.881C69.7188 78.881 71.7168 77.77 72.4598 76.809L72.5198 76.724C72.5558 76.669 72.5258 76.639 72.4798 76.67C71.8728 77.086 69.1758 78.739 66.2898 78.241C66.2898 78.241 65.9398 78.184 65.6198 78.059C65.3658 77.96 64.8338 77.715 64.7698 77.168C67.0978 77.889 68.5628 77.207 68.5628 77.207V77.206ZM64.8748 76.77L64.8758 76.771V76.769L64.8748 76.77ZM60.4208 66.74C61.3158 65.704 62.4168 64.804 63.4028 64.299C63.4368 64.282 63.4728 64.319 63.4548 64.352C63.3758 64.494 63.2248 64.799 63.1778 65.029C63.1761 65.0368 63.1767 65.0448 63.1796 65.0522C63.1825 65.0596 63.1876 65.066 63.1941 65.0705C63.2007 65.075 63.2084 65.0774 63.2164 65.0775C63.2243 65.0776 63.2321 65.0754 63.2388 65.071C63.8528 64.652 64.9198 64.203 65.8568 64.146C65.8968 64.143 65.9168 64.195 65.8838 64.22C65.7298 64.339 65.5908 64.478 65.4728 64.633C65.4683 64.6389 65.4656 64.6458 65.4649 64.6532C65.4642 64.6605 65.4655 64.6678 65.4687 64.6744C65.4719 64.6811 65.4769 64.6867 65.4831 64.6906C65.4893 64.6946 65.4964 64.6968 65.5038 64.697C66.1608 64.702 67.0878 64.932 67.6918 65.272C67.7318 65.295 67.7038 65.374 67.6578 65.364C66.7438 65.154 65.2478 64.994 63.6938 65.374C62.3068 65.713 61.2478 66.236 60.4758 66.799C60.4358 66.828 60.3898 66.776 60.4208 66.739V66.74Z" fill="#1A1A1A"></path> </g> <g filter="url(#filter2_d)"> <path d="M8.30767 61.9656C8.30767 62.3203 8.23369 62.6715 8.08996 62.9992C7.94623 63.3269 7.73557 63.6247 7.46999 63.8755C7.20441 64.1263 6.88913 64.3253 6.54214 64.4611C6.19515 64.5968 5.82325 64.6667 5.44766 64.6667C5.07208 64.6667 4.70018 64.5968 4.35319 64.4611C4.0062 64.3253 3.69091 64.1263 3.42534 63.8755C3.15976 63.6247 2.9491 63.3269 2.80537 62.9992C2.66164 62.6715 2.58766 62.3203 2.58766 61.9656C2.58635 61.61 2.65935 61.2578 2.80249 60.929C2.94563 60.6002 3.15609 60.3013 3.4218 60.0495C3.6875 59.7976 4.00323 59.5978 4.35088 59.4615C4.69852 59.3252 5.07124 59.255 5.44766 59.255C5.82409 59.255 6.19681 59.3252 6.54445 59.4615C6.8921 59.5978 7.20783 59.7976 7.47353 60.0495C7.73924 60.3013 7.9497 60.6002 8.09284 60.929C8.23598 61.2578 8.30898 61.61 8.30767 61.9656ZM10.0877 53.3333V61.7011C10.0877 63.6089 11.4777 64.6667 12.9477 64.6667C14.3077 64.6667 15.8077 63.7694 15.8077 61.7011V53.4656C15.8077 51.7183 14.4477 50.6322 12.9477 50.6322C12.1932 50.6444 11.4732 50.9328 10.9396 51.4368C10.406 51.9407 10.1005 52.6207 10.0877 53.3333ZM17.5877 44.7011V61.7011C17.5877 63.6089 18.9777 64.6667 20.4477 64.6667C21.8077 64.6667 23.3077 63.7694 23.3077 61.7011V44.8333C23.3077 43.0861 21.9477 42 20.4477 42C19.6932 42.0121 18.9732 42.3006 18.4396 42.8046C17.906 43.3085 17.6005 43.9885 17.5877 44.7011Z" fill="#1A1A1A"></path> </g> <g clip-path="url(#clip3)" filter="url(#filter3_d)"> <path d="M35.9418 65.046H35.9637C36.8628 65.048 37.6937 65.347 38.3617 65.851L38.3647 65.852L38.3658 65.853C38.8272 66.2003 39.2079 66.6435 39.4818 67.152L43.9487 74.921L43.9737 74.986L47.3927 80.913C47.7574 81.5291 47.9491 82.2321 47.9478 82.948C47.9478 83.513 47.8307 84.052 47.6187 84.54L47.6248 84.556C47.4645 84.917 47.2508 85.2517 46.9907 85.549C46.6949 85.8962 46.3414 86.1898 45.9457 86.417C45.3539 86.7601 44.6838 86.945 43.9998 86.954H43.9317C43.0662 86.9533 42.2244 86.6707 41.5338 86.149L41.5308 86.148V86.147H41.5298C41.0683 85.7996 40.6876 85.3565 40.4137 84.848L35.9467 77.079L35.9218 77.014L32.5028 71.087L32.4978 71.078L32.4867 71.059C32.1326 70.4495 31.9466 69.7569 31.9478 69.052C31.9478 68.628 32.0138 68.22 32.1357 67.837V67.836L32.1438 67.811L32.1538 67.781C32.2058 67.624 32.2708 67.444 32.2708 67.444C32.4288 67.086 32.6418 66.755 32.8968 66.46L32.9598 66.388L32.9738 66.373L32.9757 66.37L32.9768 66.369L32.9788 66.367L32.9878 66.357L32.9937 66.35C33.2638 66.054 33.5837 65.793 33.9497 65.583C34.5416 65.2399 35.2117 65.055 35.8958 65.046H35.9418ZM27.9538 86.954H27.8958C27.2117 86.945 26.5416 86.7601 25.9498 86.417C25.5541 86.1898 25.2006 85.8962 24.9048 85.549C24.6447 85.2517 24.431 84.917 24.2708 84.556L24.2768 84.54C24.0589 84.0375 23.9469 83.4956 23.9478 82.948C23.9478 82.205 24.1498 81.509 24.5028 80.913L27.9218 74.986L27.9468 74.921L30.9858 69.635C31.0618 70.283 31.2618 70.916 31.5818 71.491L31.6388 71.591L35.0157 77.445L35.0127 77.435L35.0798 77.577L35.3708 78.084L31.4818 84.848C31.2079 85.3565 30.8272 85.7996 30.3658 86.147H30.3648V86.148L30.3618 86.149C29.6711 86.6707 28.8293 86.9533 27.9638 86.954H27.9538Z" fill="#1A1A1A"></path> </g> <g clip-path="url(#clip4)" filter="url(#filter4_d)"> <ellipse cx="43.5948" cy="44.5" rx="11.6471" ry="11.5" fill="white"></ellipse> <path d="M55.9459 44.4991C55.9459 38.1483 50.5738 33 43.9469 33C37.3199 33 31.9478 38.1483 31.9478 44.4991C31.9478 50.2387 36.3356 54.9959 42.072 55.8585V47.8231H39.0253V44.4991H42.072V41.9657C42.072 39.0837 43.8634 37.4918 46.6042 37.4918C47.917 37.4918 49.2902 37.7164 49.2902 37.7164V40.5463H47.7772C46.2866 40.5463 45.8217 41.4327 45.8217 42.3421V44.4991H49.1496L48.6176 47.8231H45.8217V55.8585C51.5581 54.9959 55.9459 50.2387 55.9459 44.4991Z" fill="#1A1A1A"></path> </g> <g filter="url(#filter5_d)"> <path d="M3.55273 14L8.34773 15.6157V31.7867L15.1007 28.054L11.7907 26.5637L9.70073 21.5804L20.3407 25.1627V30.3712L8.35073 37L3.55373 34.4412V14H3.55273Z" fill="#1A1A1A"></path> </g> <g clip-path="url(#clip5)" filter="url(#filter6_d)"> <path d="M54.9928 26.2692C55.0648 26.158 55.1798 26.1503 55.3408 26.2481C58.9768 28.2702 62.9348 29.2822 67.2108 29.2822C70.0628 29.2822 72.8788 28.7714 75.6578 27.7536L75.9728 27.6195C76.1108 27.562 76.2068 27.5236 76.2658 27.4949C76.4918 27.4105 76.6558 27.4508 76.7908 27.6195C76.9108 27.7862 76.8808 27.9415 76.6708 28.0795C76.4148 28.2615 76.0708 28.4724 75.6648 28.7062C74.4208 29.4182 73.0248 29.9674 71.4798 30.3603C67.861 31.2972 64.0247 31.1035 60.5288 29.8073C58.5325 29.0578 56.6933 27.9704 55.0988 26.5969C54.9988 26.526 54.9478 26.4532 54.9478 26.3861C54.9478 26.341 54.9688 26.2998 54.9988 26.2615L54.9928 26.2692ZM61.5578 20.3102C61.5578 19.3471 61.8048 18.5249 62.3008 17.8406C62.7958 17.1602 63.4708 16.6427 64.3408 16.2929C65.1368 15.9719 66.0968 15.7419 67.2528 15.6029C67.6428 15.5588 68.2858 15.5042 69.1728 15.4362V15.0816C69.1728 14.1903 69.0678 13.5885 68.8728 13.2847C68.5708 12.8726 68.0928 12.6618 67.4328 12.6618H67.2508C66.7708 12.7059 66.3548 12.8496 66.0048 13.1026C65.6548 13.3614 65.4298 13.7064 65.3298 14.153C65.2698 14.4405 65.1238 14.5986 64.8948 14.6417L62.3748 14.3398C62.1268 14.2823 62.0028 14.1673 62.0028 13.9661C62.0028 13.922 62.0098 13.8798 62.0248 13.8223C62.2718 12.5861 62.8798 11.6661 63.8448 11.0623C64.8208 10.472 65.9448 10.128 67.2348 10.0561H67.7748C69.4248 10.0561 70.7318 10.472 71.6628 11.2923C71.7978 11.4361 71.9328 11.5798 72.0678 11.7523C72.1878 11.9105 72.2918 12.0532 72.3508 12.1836C72.4258 12.312 72.5008 12.4998 72.5458 12.7298C72.6058 12.9732 72.6508 13.1323 72.6808 13.2186C72.7108 13.3182 72.7428 13.5061 72.7568 13.808C72.7668 14.1079 72.7768 14.2804 72.7768 14.3379V19.3979C72.7768 19.7582 72.8368 20.0879 72.9418 20.3907C73.0468 20.6907 73.1518 20.9082 73.2568 21.0367L73.7668 21.6826C73.8568 21.8129 73.9028 21.9279 73.9028 22.0276C73.9028 22.1426 73.8428 22.2442 73.7228 22.3285C72.5228 23.3347 71.8628 23.881 71.7598 23.9672C71.5948 24.0966 71.3848 24.111 71.1298 24.0104C70.9447 23.8621 70.7691 23.7034 70.6038 23.535L70.2938 23.2025C70.1842 23.0712 70.0785 22.937 69.9768 22.8L69.6768 22.3831C68.8668 23.2322 68.0738 23.7631 67.2768 23.9787C66.7828 24.1225 66.1838 24.1963 65.4468 24.1963C64.3368 24.1963 63.4068 23.8676 62.6868 23.2054C61.9668 22.5441 61.6068 21.6097 61.6068 20.3879L61.5568 20.315L61.5578 20.3102ZM65.3108 19.8905C65.3108 20.4329 65.4508 20.868 65.7358 21.1977C66.0208 21.5235 66.4108 21.6883 66.8908 21.6883C66.9358 21.6883 66.9968 21.6816 67.0858 21.6692C67.1758 21.6538 67.2198 21.6471 67.2518 21.6471C67.8658 21.4938 68.3318 21.1172 68.6758 20.5182C68.8408 20.2499 68.9608 19.9624 69.0358 19.6461C69.1258 19.3394 69.1558 19.0807 69.1708 18.8794C69.1858 18.6926 69.1858 18.3619 69.1858 17.9163V17.3988C68.3458 17.3988 67.7018 17.4563 67.2658 17.5713C65.9908 17.9163 65.3458 18.6926 65.3458 19.9001L65.3108 19.8809V19.8905ZM74.4728 26.6247C74.5028 26.5672 74.5478 26.5193 74.6048 26.4618C74.9668 26.2289 75.3188 26.0689 75.6548 25.9826C76.1826 25.8542 76.7227 25.7771 77.2668 25.7526C77.4068 25.7411 77.5468 25.7526 77.6768 25.7814C78.3268 25.8389 78.7268 25.9424 78.8488 26.0976C78.9118 26.1839 78.9478 26.3161 78.9478 26.4714V26.6151C78.9478 27.1039 78.7988 27.6789 78.5238 28.3401C78.2458 29.0014 77.8598 29.5361 77.3678 29.9501C77.2948 30.0076 77.2278 30.0364 77.1708 30.0364C77.1408 30.0364 77.1108 30.0364 77.0808 30.0249C76.9908 29.9827 76.9738 29.9099 77.0168 29.7949C77.5568 28.5874 77.8228 27.7412 77.8228 27.2649C77.8228 27.1211 77.7928 27.0061 77.7358 26.9352C77.5908 26.7761 77.1858 26.6889 76.5118 26.6889C76.2688 26.6889 75.9788 26.7042 75.6418 26.733C75.2788 26.7761 74.9418 26.8192 74.6418 26.8624C74.5518 26.8624 74.4938 26.8489 74.4618 26.8202C74.4318 26.7915 74.4258 26.7752 74.4418 26.7464C74.4418 26.7301 74.4478 26.7177 74.4618 26.686V26.6285L74.4728 26.6247Z" fill="#1A1A1A"></path> </g> <g filter="url(#filter7_d)"> <circle cx="36.4478" cy="11.75" r="9.5" fill="white"></circle> <path d="M35.9478 0C29.3203 0 23.9478 5.3725 23.9478 12C23.9478 18.6275 29.3203 24 35.9478 24C42.5753 24 47.9478 18.6275 47.9478 12C47.9478 5.3725 42.5753 0 35.9478 0ZM33.0103 16.9738H30.5803V9.15375H33.0103V16.9738ZM31.7803 8.19375C31.0128 8.19375 30.5165 7.65 30.5165 6.9775C30.5165 6.29125 31.0278 5.76375 31.8115 5.76375C32.5953 5.76375 33.0753 6.29125 33.0903 6.9775C33.0903 7.65 32.5953 8.19375 31.7803 8.19375ZM41.8853 16.9738H39.4553V12.64C39.4553 11.6313 39.1028 10.9462 38.224 10.9462C37.5528 10.9462 37.154 11.41 36.9778 11.8563C36.9128 12.015 36.8965 12.24 36.8965 12.4638V16.9725H34.4653V11.6475C34.4653 10.6713 34.434 9.855 34.4015 9.1525H36.5128L36.624 10.2388H36.6728C36.9928 9.72875 37.7765 8.97625 39.0878 8.97625C40.6865 8.97625 41.8853 10.0475 41.8853 12.35V16.9738Z" fill="#1A1A1A"></path> </g> </g> <defs> <filter id="filter0_d" x="61.9478" y="35" width="26" height="23" filterUnits="userSpaceOnUse" color-interpolation-filters="sRGB"> <feFlood flood-opacity="0" result="BackgroundImageFix"></feFlood> <feColorMatrix in="SourceAlpha" type="matrix" values="0 0 0 0 0 0 0 0 0 0 0 0 0 0 0 0 0 0 127 0"></feColorMatrix> <feOffset dx="-2" dy="2"></feOffset> <feColorMatrix type="matrix" values="0 0 0 0 0.266667 0 0 0 0 0.909804 0 0 0 0 0.678431 0 0 0 1 0"></feColorMatrix> <feBlend mode="normal" in2="BackgroundImageFix" result="effect1_dropShadow"></feBlend> <feBlend mode="normal" in="SourceGraphic" in2="effect1_dropShadow" result="shape"></feBlend> </filter> <filter id="filter1_d" x="48.9478" y="60" width="26" height="26" filterUnits="userSpaceOnUse" color-interpolation-filters="sRGB"> <feFlood flood-opacity="0" result="BackgroundImageFix"></feFlood> <feColorMatrix in="SourceAlpha" type="matrix" values="0 0 0 0 0 0 0 0 0 0 0 0 0 0 0 0 0 0 127 0"></feColorMatrix> <feOffset dx="-2" dy="2"></feOffset> <feColorMatrix type="matrix" values="0 0 0 0 0.266667 0 0 0 0 0.909804 0 0 0 0 0.678431 0 0 0 1 0"></feColorMatrix> <feBlend mode="normal" in2="BackgroundImageFix" result="effect1_dropShadow"></feBlend> <feBlend mode="normal" in="SourceGraphic" in2="effect1_dropShadow" result="shape"></feBlend> </filter> <filter id="filter2_d" x="0.587646" y="42" width="22.72" height="24.6667" filterUnits="userSpaceOnUse" color-interpolation-filters="sRGB"> <feFlood flood-opacity="0" result="BackgroundImageFix"></feFlood> <feColorMatrix in="SourceAlpha" type="matrix" values="0 0 0 0 0 0 0 0 0 0 0 0 0 0 0 0 0 0 127 0"></feColorMatrix> <feOffset dx="-2" dy="2"></feOffset> <feColorMatrix type="matrix" values="0 0 0 0 0.266667 0 0 0 0 0.909804 0 0 0 0 0.678431 0 0 0 1 0"></feColorMatrix> <feBlend mode="normal" in2="BackgroundImageFix" result="effect1_dropShadow"></feBlend> <feBlend mode="normal" in="SourceGraphic" in2="effect1_dropShadow" result="shape"></feBlend> </filter> <filter id="filter3_d" x="21.9478" y="64" width="26" height="26" filterUnits="userSpaceOnUse" color-interpolation-filters="sRGB"> <feFlood flood-opacity="0" result="BackgroundImageFix"></feFlood> <feColorMatrix in="SourceAlpha" type="matrix" values="0 0 0 0 0 0 0 0 0 0 0 0 0 0 0 0 0 0 127 0"></feColorMatrix> <feOffset dx="-2" dy="2"></feOffset> <feColorMatrix type="matrix" values="0 0 0 0 0.266667 0 0 0 0 0.909804 0 0 0 0 0.678431 0 0 0 1 0"></feColorMatrix> <feBlend mode="normal" in2="BackgroundImageFix" result="effect1_dropShadow"></feBlend> <feBlend mode="normal" in="SourceGraphic" in2="effect1_dropShadow" result="shape"></feBlend> </filter> <filter id="filter4_d" x="29.9478" y="33" width="26" height="25" filterUnits="userSpaceOnUse" color-interpolation-filters="sRGB"> <feFlood flood-opacity="0" result="BackgroundImageFix"></feFlood> <feColorMatrix in="SourceAlpha" type="matrix" values="0 0 0 0 0 0 0 0 0 0 0 0 0 0 0 0 0 0 127 0"></feColorMatrix> <feOffset dx="-2" dy="2"></feOffset> <feColorMatrix type="matrix" values="0 0 0 0 0.266667 0 0 0 0 0.909804 0 0 0 0 0.678431 0 0 0 1 0"></feColorMatrix> <feBlend mode="normal" in2="BackgroundImageFix" result="effect1_dropShadow"></feBlend> <feBlend mode="normal" in="SourceGraphic" in2="effect1_dropShadow" result="shape"></feBlend> </filter> <filter id="filter5_d" x="-2.05225" y="14" width="26" height="25" filterUnits="userSpaceOnUse" color-interpolation-filters="sRGB"> <feFlood flood-opacity="0" result="BackgroundImageFix"></feFlood> <feColorMatrix in="SourceAlpha" type="matrix" values="0 0 0 0 0 0 0 0 0 0 0 0 0 0 0 0 0 0 127 0"></feColorMatrix> <feOffset dx="-2" dy="2"></feOffset> <feColorMatrix type="matrix" values="0 0 0 0 0.266667 0 0 0 0 0.909804 0 0 0 0 0.678431 0 0 0 1 0"></feColorMatrix> <feBlend mode="normal" in2="BackgroundImageFix" result="effect1_dropShadow"></feBlend> <feBlend mode="normal" in="SourceGraphic" in2="effect1_dropShadow" result="shape"></feBlend> </filter> <filter id="filter6_d" x="52.9478" y="9" width="26" height="25" filterUnits="userSpaceOnUse" color-interpolation-filters="sRGB"> <feFlood flood-opacity="0" result="BackgroundImageFix"></feFlood> <feColorMatrix in="SourceAlpha" type="matrix" values="0 0 0 0 0 0 0 0 0 0 0 0 0 0 0 0 0 0 127 0"></feColorMatrix> <feOffset dx="-2" dy="2"></feOffset> <feColorMatrix type="matrix" values="0 0 0 0 0.266667 0 0 0 0 0.909804 0 0 0 0 0.678431 0 0 0 1 0"></feColorMatrix> <feBlend mode="normal" in2="BackgroundImageFix" result="effect1_dropShadow"></feBlend> <feBlend mode="normal" in="SourceGraphic" in2="effect1_dropShadow" result="shape"></feBlend> </filter> <filter id="filter7_d" x="21.9478" y="0" width="26" height="28.1818" filterUnits="userSpaceOnUse" color-interpolation-filters="sRGB"> <feFlood flood-opacity="0" result="BackgroundImageFix"></feFlood> <feColorMatrix in="SourceAlpha" type="matrix" values="0 0 0 0 0 0 0 0 0 0 0 0 0 0 0 0 0 0 127 0"></feColorMatrix> <feOffset dx="-2" dy="2"></feOffset> <feColorMatrix type="matrix" values="0 0 0 0 0.266667 0 0 0 0 0.909804 0 0 0 0 0.678431 0 0 0 1 0"></feColorMatrix> <feBlend mode="normal" in2="BackgroundImageFix" result="effect1_dropShadow"></feBlend> <feBlend mode="normal" in="SourceGraphic" in2="effect1_dropShadow" result="shape"></feBlend> </filter> <clipPath id="clip0"> <rect width="90" height="90" fill="white"></rect> </clipPath> <clipPath id="clip1"> <rect width="24" height="21" fill="white" transform="translate(63.9478 35)"></rect> </clipPath> <clipPath id="clip2"> <rect width="24" height="24" fill="white" transform="translate(50.9478 60)"></rect> </clipPath> <clipPath id="clip3"> <rect width="24" height="24" fill="white" transform="translate(23.9478 64)"></rect> </clipPath> <clipPath id="clip4"> <rect width="24" height="23" fill="white" transform="translate(31.9478 33)"></rect> </clipPath> <clipPath id="clip5"> <rect width="24" height="23" fill="white" transform="translate(54.9478 9)"></rect> </clipPath> </defs> </svg> 