<?xml version="1.0" encoding="UTF-8"?> <svg xmlns="http://www.w3.org/2000/svg" width="90" height="90" viewBox="0 0 90 90" fill="none"> <g filter="url(#filter0_d)"> <rect x="37.5827" y="18.5585" width="18.6674" height="7.42443" fill="#1A1A1A"></rect> <path d="M42.1876 71.0402C42.1876 67.4403 36.5626 67.2554 36.5626 71.0402V87.9388H42.1876V71.0402Z" fill="#1A1A1A"></path> <path d="M87.1876 45.6923C87.1876 42.4997 81.5626 41.9974 81.5626 45.6923V87.9388H87.1876V45.6923Z" fill="#1A1A1A"></path> <path d="M64.6876 54.1416C64.6876 50.6307 59.0626 50.6307 59.0626 54.1416V87.9388H64.6876V54.1416Z" fill="#1A1A1A"></path> <path d="M75.9376 65.4073C75.9376 61.9041 70.3126 61.899 70.3126 65.4073V87.9388H75.9376V65.4073Z" fill="#1A1A1A"></path> <path d="M53.4376 62.2C53.4376 58.3161 47.8126 58.3777 47.8126 62.2V87.9388H53.4376V62.2Z" fill="#1A1A1A"></path> <path d="M78.7501 34.4266C82.6333 34.4266 85.7813 31.2742 85.7813 27.3855C85.7813 23.4968 82.6333 20.3444 78.7501 20.3444C74.8668 20.3444 71.7188 23.4968 71.7188 27.3855C71.7188 31.2742 74.8668 34.4266 78.7501 34.4266Z" fill="#1A1A1A"></path> <path d="M75.6337 42.3154L77.2326 37.1134C77.8438 35.4176 75.2277 34.5395 74.5425 36.2868L72.945 41.4859C71.7806 41.5366 70.7442 42.0563 70.0101 42.8674L63.1448 40.0031C61.8485 39.5546 60.5536 41.4859 62.0676 42.6041L68.9287 45.467C68.9245 45.543 68.9062 45.6148 68.9062 45.6923C68.9062 48.0215 70.799 49.9169 73.125 49.9169C75.4509 49.9169 77.3437 48.0215 77.3437 45.6923C77.3437 44.3066 76.6659 43.0871 75.6337 42.3154Z" fill="#1A1A1A"></path> <path d="M56.2501 42.8759C58.58 42.8759 60.4688 40.9844 60.4688 38.6512C60.4688 36.318 58.58 34.4266 56.2501 34.4266C53.9201 34.4266 52.0313 36.318 52.0313 38.6512C52.0313 40.9844 53.9201 42.8759 56.2501 42.8759Z" fill="#1A1A1A"></path> <path d="M51.6038 43.8996C52.76 43.0557 51.1293 40.7536 49.9121 41.6521L41.9077 47.6638L43.5938 49.917L51.6038 43.8996Z" fill="#1A1A1A"></path> <path d="M39.3751 56.958C36.2729 56.958 33.7501 54.4317 33.7501 51.3252C33.7501 48.2186 36.2729 45.6923 39.3751 45.6923C39.5171 45.6923 39.6493 45.7233 39.7885 45.7345L43.7949 42.7266C41.0162 38.5738 36.2912 35.8348 30.9376 35.8348C22.4087 35.8348 15.4688 42.7843 15.4688 51.3252C15.4688 59.866 22.4087 66.8155 30.9376 66.8155C39.4665 66.8155 46.4063 59.866 46.4063 51.3252C46.4063 51.3252 46.4063 51.3252 46.4063 51.3238L44.8819 52.4686C44.3532 55.0288 42.0863 56.958 39.3751 56.958Z" fill="#1A1A1A"></path> <path d="M10.4252 74.1576C9.48159 75.3884 9.71081 77.1585 10.9371 78.1006C12.131 79.0258 13.9717 78.778 14.8872 77.588L25.001 64.4212C23.35 63.5031 21.8299 62.3821 20.4475 61.1133L10.4252 74.1576Z" fill="#1A1A1A"></path> <path d="M39.3751 54.1416C40.9284 54.1416 42.1876 52.8806 42.1876 51.3252C42.1876 49.7697 40.9284 48.5087 39.3751 48.5087C37.8218 48.5087 36.5626 49.7697 36.5626 51.3252C36.5626 52.8806 37.8218 54.1416 39.3751 54.1416Z" fill="#1A1A1A"></path> <path d="M30.9376 27.3855C35.4629 27.3855 39.683 28.674 43.2943 30.8708H69.5518C69.1412 29.7851 68.9063 28.6135 68.9063 27.3855C68.9063 24.9098 69.8232 22.6539 71.3279 20.9232C70.3744 18.1082 67.7012 16.1198 64.6876 16.1198C63.7468 16.1198 62.8426 16.3 62.0002 16.6563L60.466 17.3041L60.0849 15.6804C58.5873 9.3068 52.9623 4.85402 46.4063 4.85402C38.6523 4.85402 32.3438 11.1713 32.3438 18.9362C32.3438 19.0291 32.3424 19.1136 32.3508 19.208L32.5548 21.2907L30.5522 20.695C29.7704 20.4613 28.9533 20.3444 28.1251 20.3444C23.4718 20.3444 19.6876 24.1339 19.6876 28.7937C19.6876 29.2542 19.7368 29.7062 19.8099 30.154C23.1357 28.3938 26.9199 27.3855 30.9376 27.3855ZM50.6251 21.7526H53.4376V24.5691H50.6251V21.7526ZM45.0001 21.7526H47.8126V24.5691H45.0001V21.7526ZM39.3751 21.7526H42.1876V24.5691H39.3751V21.7526Z" fill="#1A1A1A"></path> <circle cx="41.1505" cy="19.6378" r="1.77541" fill="white"></circle> <circle cx="46.4063" cy="19.6378" r="1.77541" fill="white"></circle> <circle cx="51.6622" cy="19.6378" r="1.77541" fill="white"></circle> </g> <defs> <filter id="filter0_d" x="-2" y="0" width="92" height="92" filterUnits="userSpaceOnUse" color-interpolation-filters="sRGB"> <feFlood flood-opacity="0" result="BackgroundImageFix"></feFlood> <feColorMatrix in="SourceAlpha" type="matrix" values="0 0 0 0 0 0 0 0 0 0 0 0 0 0 0 0 0 0 127 0"></feColorMatrix> <feOffset dx="-2" dy="2"></feOffset> <feColorMatrix type="matrix" values="0 0 0 0 1 0 0 0 0 0.870588 0 0 0 0 0.419608 0 0 0 1 0"></feColorMatrix> <feBlend mode="normal" in2="BackgroundImageFix" result="effect1_dropShadow"></feBlend> <feBlend mode="normal" in="SourceGraphic" in2="effect1_dropShadow" result="shape"></feBlend> </filter> </defs> </svg> 