<?xml version="1.0" encoding="UTF-8"?> <svg xmlns="http://www.w3.org/2000/svg" width="327" height="255" viewBox="0 0 327 255" fill="none"> <path d="M148.461 132.054L147.987 132.212L147.987 132.212L148.461 132.054ZM314.303 221.801C314.259 222.074 314.002 222.258 313.729 222.214L309.288 221.487C309.016 221.442 308.831 221.185 308.876 220.913C308.92 220.64 309.177 220.455 309.45 220.5L313.397 221.146L314.043 217.199C314.088 216.926 314.345 216.741 314.618 216.786C314.89 216.831 315.075 217.088 315.03 217.36L314.303 221.801ZM34.3104 2.01741C35.3909 2.8206 36.4616 3.60791 37.5228 4.38031L36.9343 5.18881C35.8705 4.41449 34.7971 3.6252 33.7138 2.81996L34.3104 2.01741ZM40.7287 6.69023C42.9333 8.26276 45.096 9.77304 47.2184 11.2304L46.6524 12.0548C44.5255 10.5943 42.3579 9.08064 40.148 7.50436L40.7287 6.69023ZM50.4859 13.4547C52.7283 14.9685 54.9251 16.4264 57.0788 17.8402L56.5301 18.6762C54.3735 17.2605 52.173 15.8002 49.9264 14.2836L50.4859 13.4547ZM60.3963 20.0067C62.6568 21.4759 64.8688 22.9013 67.0358 24.2975L66.4942 25.1381C64.3273 23.742 62.1137 22.3156 59.8513 20.8451L60.3963 20.0067ZM70.375 26.4506C72.6388 27.9126 74.853 29.3499 77.0203 30.7796L76.4697 31.6143C74.3063 30.1873 72.0952 28.752 69.8325 27.2907L70.375 26.4506ZM80.3192 32.976C82.5422 34.4715 84.7162 35.9689 86.8447 37.488L86.2638 38.3019C84.1443 36.7893 81.9781 35.2973 79.761 33.8057L80.3192 32.976ZM90.0582 39.8257C92.1933 41.4106 94.2828 43.0292 96.3307 44.7031L95.6979 45.4774C93.6634 43.8145 91.5863 42.2055 89.4621 40.6287L90.0582 39.8257ZM99.3734 47.2593C101.364 48.9797 103.316 50.7651 105.233 52.6365L104.534 53.352C102.633 51.4956 100.696 49.7239 98.7195 48.016L99.3734 47.2593ZM108.037 55.4641C109.838 57.3394 111.608 59.3027 113.351 61.3724L112.586 62.0166C110.857 59.9638 109.102 58.0166 107.316 56.1567L108.037 55.4641ZM115.861 64.4513C117.463 66.4809 119.043 68.6105 120.603 70.855L119.782 71.4258C118.233 69.1976 116.665 67.0843 115.076 65.0708L115.861 64.4513ZM122.821 74.1445C124.227 76.2924 125.618 78.5415 126.996 80.9029L126.132 81.4069C124.762 79.0597 123.381 76.8252 121.985 74.6921L122.821 74.1445ZM128.964 84.3699C130.203 86.6111 131.433 88.9492 132.654 91.3925L131.76 91.8397C130.544 89.4082 129.321 87.0823 128.089 84.8537L128.964 84.3699ZM134.396 94.9602C135.504 97.2822 136.606 99.6952 137.703 102.205L136.787 102.606C135.694 100.105 134.597 97.7024 133.494 95.3907L134.396 94.9602ZM139.249 105.815C140.243 108.183 141.234 110.634 142.223 113.173L141.291 113.536C140.306 111.005 139.318 108.562 138.327 106.202L139.249 105.815ZM143.653 116.91C144.558 119.32 145.463 121.807 146.366 124.372L145.423 124.704C144.522 122.145 143.62 119.665 142.717 117.262L143.653 116.91ZM147.651 128.079C148.08 129.333 148.508 130.606 148.936 131.897L147.987 132.212C147.559 130.923 147.132 129.654 146.705 128.403L147.651 128.079ZM148.936 131.897C149.363 133.186 149.804 134.443 150.256 135.668L149.318 136.015C148.862 134.778 148.418 133.511 147.987 132.212L148.936 131.897ZM151.65 139.251C152.677 141.757 153.76 144.122 154.895 146.353L154.004 146.806C152.856 144.55 151.762 142.16 150.725 139.631L151.65 139.251ZM156.766 149.83C158.1 152.175 159.498 154.358 160.954 156.393L160.141 156.975C158.664 154.911 157.247 152.698 155.897 150.325L156.766 149.83ZM163.297 159.478C164.98 161.565 166.733 163.478 168.55 165.234L167.855 165.953C166.009 164.169 164.228 162.225 162.519 160.105L163.297 159.478ZM171.419 167.832C173.437 169.544 175.524 171.084 177.675 172.474L177.133 173.314C174.946 171.901 172.824 170.335 170.772 168.594L171.419 167.832ZM181.004 174.479C183.279 175.755 185.617 176.882 188.011 177.882L187.625 178.805C185.199 177.791 182.826 176.647 180.515 175.351L181.004 174.479ZM191.646 179.292C194.083 180.168 196.571 180.928 199.102 181.595L198.847 182.562C196.291 181.888 193.775 181.12 191.308 180.234L191.646 179.292ZM202.9 182.521C205.424 183.09 207.986 183.578 210.577 184.007L210.414 184.994C207.807 184.562 205.226 184.07 202.68 183.497L202.9 182.521ZM214.45 184.604C217.019 184.971 219.612 185.292 222.223 185.583L222.112 186.577C219.494 186.285 216.89 185.963 214.308 185.594L214.45 184.604ZM226.126 186C228.719 186.264 231.324 186.511 233.937 186.758L233.843 187.754C231.231 187.507 228.621 187.26 226.024 186.994L226.126 186ZM237.848 187.13C240.454 187.381 243.063 187.641 245.668 187.929L245.558 188.923C242.96 188.636 240.356 188.376 237.753 188.125L237.848 187.13ZM249.573 188.385C252.181 188.707 254.782 189.066 257.368 189.482L257.21 190.469C254.638 190.056 252.049 189.698 249.451 189.378L249.573 188.385ZM261.247 190.152C263.836 190.632 266.407 191.178 268.953 191.81L268.712 192.781C266.188 192.154 263.636 191.612 261.064 191.135L261.247 190.152ZM272.762 192.828C275.29 193.554 277.789 194.376 280.251 195.313L279.895 196.247C277.462 195.321 274.99 194.508 272.486 193.79L272.762 192.828ZM283.91 196.805C286.307 197.85 288.664 199.018 290.975 200.327L290.482 201.197C288.203 199.906 285.877 198.754 283.51 197.721L283.91 196.805ZM294.363 202.371C296.545 203.772 298.679 205.312 300.761 207.008L300.129 207.783C298.078 206.111 295.974 204.593 293.823 203.212L294.363 202.371ZM303.745 209.584C305.644 211.318 307.494 213.197 309.288 215.233L308.538 215.894C306.767 213.885 304.943 212.032 303.071 210.322L303.745 209.584ZM311.803 218.236C312.62 219.264 313.425 220.328 314.216 221.429L313.404 222.012C312.622 220.924 311.827 219.874 311.02 218.859L311.803 218.236ZM148.461 132.054L147.512 132.369L147.512 132.369L148.461 132.054ZM314.797 221.882C314.708 222.427 314.193 222.796 313.648 222.707L304.767 221.253C304.222 221.164 303.852 220.65 303.941 220.105C304.03 219.56 304.545 219.19 305.09 219.279L312.985 220.572L314.277 212.677C314.366 212.132 314.88 211.763 315.426 211.852C315.971 211.941 316.34 212.455 316.251 213L314.797 221.882ZM34.6087 1.61613C35.6878 2.4183 36.7572 3.20462 37.817 3.97607L36.64 5.59305C35.5749 4.81778 34.5002 4.0275 33.4155 3.22124L34.6087 1.61613ZM41.019 6.28317C43.2211 7.85382 45.3812 9.36239 47.5014 10.8182L46.3693 12.467C44.2402 11.005 42.0702 9.48959 39.8577 7.91142L41.019 6.28317ZM50.7657 13.0403C53.0059 14.5526 55.201 16.0093 57.3532 17.4222L56.2557 19.0942C54.0977 17.6775 51.8954 16.216 49.6467 14.698L50.7657 13.0403ZM60.6688 19.5874C62.9283 21.0561 65.1395 22.4809 67.3066 23.8772L66.2234 25.5584C64.0566 24.1624 61.8422 22.7355 59.5789 21.2643L60.6688 19.5874ZM70.6463 26.0306C72.9106 27.4929 75.1263 28.9312 77.2956 30.3622L76.1944 32.0317C74.0329 30.6059 71.8234 29.1717 69.5612 27.7107L70.6463 26.0306ZM80.5983 32.5611C82.8242 34.0586 85.0021 35.5587 87.1352 37.081L85.9733 38.7089C83.8584 37.1995 81.6961 35.7102 79.4819 34.2205L80.5983 32.5611ZM90.3562 39.4242C92.4967 41.0132 94.5925 42.6365 96.6472 44.3159L95.3815 45.8645C93.3537 44.2071 91.2829 42.6029 89.1641 41.0301L90.3562 39.4242ZM99.7003 46.881C101.698 48.6076 103.658 50.3998 105.582 52.2787L104.185 53.7098C102.291 51.8609 100.362 50.096 98.3926 48.3943L99.7003 46.881ZM108.398 55.1178C110.206 57.0008 111.983 58.9722 113.734 61.0503L112.204 62.3387C110.482 60.2943 108.734 58.3552 106.955 56.503L108.398 55.1178ZM116.254 64.1415C117.862 66.1792 119.448 68.3169 121.014 70.5696L119.371 71.7112C117.828 69.4912 116.267 67.386 114.684 65.3805L116.254 64.1415ZM123.24 73.8708C124.65 76.026 126.045 78.2823 127.427 80.6509L125.7 81.6589C124.334 79.3188 122.957 77.0916 121.566 74.9659L123.24 73.8708ZM129.402 84.1279C130.644 86.3755 131.877 88.7197 133.101 91.1689L131.313 92.0632C130.1 89.6376 128.88 87.3179 127.652 85.0956L129.402 84.1279ZM134.848 94.7449C135.958 97.0722 137.062 99.4902 138.161 102.005L136.329 102.806C135.238 100.31 134.143 97.9125 133.042 95.606L134.848 94.7449ZM139.71 105.621C140.706 107.993 141.699 110.449 142.689 112.992L140.825 113.717C139.841 111.19 138.855 108.751 137.866 106.395L139.71 105.621ZM144.121 116.735C145.028 119.148 145.933 121.637 146.837 124.206L144.951 124.87C144.051 122.314 143.15 119.838 142.248 117.438L144.121 116.735ZM148.124 127.918C148.553 129.173 148.982 130.447 149.41 131.739L147.512 132.369C147.085 131.082 146.659 129.814 146.232 128.564L148.124 127.918ZM149.41 131.739C149.836 133.023 150.275 134.275 150.725 135.495L148.849 136.188C148.391 134.946 147.945 133.674 147.512 132.369L149.41 131.739ZM152.113 139.062C153.135 141.556 154.212 143.908 155.341 146.126L153.558 147.033C152.404 144.764 151.304 142.362 150.262 139.82L152.113 139.062ZM157.2 149.583C158.526 151.913 159.915 154.082 161.361 156.102L159.735 157.266C158.247 155.188 156.821 152.96 155.462 150.572L157.2 149.583ZM163.687 159.164C165.357 161.236 167.096 163.133 168.898 164.874L167.508 166.312C165.646 164.514 163.851 162.555 162.129 160.419L163.687 159.164ZM171.743 167.451C173.743 169.148 175.814 170.676 177.947 172.054L176.861 173.734C174.657 172.31 172.517 170.731 170.449 168.976L171.743 167.451ZM181.248 174.043C183.506 175.308 185.827 176.427 188.204 177.421L187.432 179.266C184.99 178.245 182.599 177.093 180.27 175.787L181.248 174.043ZM191.815 178.822C194.237 179.692 196.711 180.448 199.229 181.111L198.719 183.045C196.151 182.369 193.621 181.596 191.139 180.704L191.815 178.822ZM203.01 182.033C205.523 182.599 208.075 183.086 210.659 183.514L210.332 185.487C207.717 185.054 205.127 184.56 202.571 183.984L203.01 182.033ZM214.521 184.109C217.083 184.476 219.671 184.795 222.279 185.087L222.057 187.074C219.434 186.781 216.825 186.459 214.237 186.089L214.521 184.109ZM226.177 185.502C228.767 185.767 231.371 186.013 233.984 186.26L233.796 188.251C231.184 188.004 228.573 187.757 225.973 187.492L226.177 185.502ZM237.896 186.632C240.503 186.883 243.115 187.144 245.723 187.432L245.503 189.42C242.908 189.133 240.307 188.873 237.705 188.623L237.896 186.632ZM249.634 187.889C252.247 188.211 254.854 188.572 257.448 188.988L257.131 190.963C254.566 190.551 251.983 190.194 249.389 189.874L249.634 187.889ZM261.338 189.66C263.935 190.142 266.517 190.69 269.074 191.325L268.592 193.266C266.078 192.642 263.537 192.102 260.973 191.626L261.338 189.66ZM272.9 192.348C275.44 193.077 277.952 193.903 280.429 194.845L279.718 196.715C277.298 195.794 274.84 194.985 272.348 194.27L272.9 192.348ZM284.11 196.347C286.522 197.398 288.895 198.574 291.221 199.892L290.236 201.632C287.973 200.35 285.662 199.206 283.311 198.18L284.11 196.347ZM294.633 201.95C296.83 203.361 298.98 204.912 301.077 206.621L299.813 208.171C297.777 206.511 295.688 205.004 293.553 203.633L294.633 201.95ZM304.082 209.215C305.995 210.961 307.857 212.853 309.663 214.902L308.163 216.224C306.404 214.229 304.593 212.389 302.733 210.692L304.082 209.215ZM312.194 217.925C313.017 218.959 313.826 220.029 314.622 221.137L312.998 222.304C312.221 221.222 311.431 220.178 310.629 219.17L312.194 217.925Z" fill="#E0D5CC"></path> </svg> 