<?xml version="1.0" encoding="UTF-8"?> <svg xmlns="http://www.w3.org/2000/svg" width="165" height="153" viewBox="0 0 165 153" fill="none"> <g clip-path="url(#clip0)"> <path fill-rule="evenodd" clip-rule="evenodd" d="M74.5498 59.9202C67.0381 59.3846 56.7394 60.867 54.5668 69.3944C53.893 72.4974 52.5654 73.8593 50.335 75.8887C36.1774 93.9298 85.5734 96.9621 88.1126 79.3698C93.4622 81.3096 99.2855 81.7204 104.638 83.6809C107.541 84.7487 110.174 86.4335 112.696 88.195C122.983 95.4691 133.125 102.951 143.375 110.277C139.408 112.096 131.867 119.039 134.94 123.705C135.656 124.613 136.718 125.24 137.658 125.904L138.154 126.257C139.22 127.017 141.015 128.314 142.008 129.019L142.191 129.151C142.262 129.203 142.343 129.261 142.417 129.313C135.258 139.732 125.919 148.373 116.627 156.957C115.835 157.689 117.469 159.074 118.615 159.265L120.602 159.925C125.008 160.563 128.525 161.903 132.964 161.556C137.288 161.088 139.893 157.278 142.849 154.518C148.751 148.511 154.245 142.104 159.25 135.336L159.354 135.194C160.911 133.074 162.979 130.909 163.13 128.173C163.406 127.35 163.828 125.829 163.13 125.268L162.681 124.313C158.939 118.954 154.403 114.158 149.096 110.277C149.116 109.699 148.211 109.675 147.679 109.292L125.503 93.3138C119.781 89.3934 114.462 84.7859 108.26 81.6201C101.918 78.5801 94.7615 78.4606 88.2624 75.9235C88.1247 74.0948 84.2632 73.6281 84.3851 73.9104C80.3108 71.462 78.2133 68.5489 77.5664 65.8714C76.9196 63.194 77.7235 60.7523 74.5498 59.9202ZM19.7088 117.286C12.8515 107.013 6.31523 118.379 3.46043 125.229C0.0874939 134.603 7.07248 146.135 11.5848 154.217C13.2469 156.461 15.4328 161.195 18.3624 161.538C25.743 161.508 33.1338 160.991 40.5189 160.837C45.2875 159.659 38.597 152.524 33.9755 155.13C32.5752 155.652 31.8757 157.235 30.5103 157.742C30.0128 157.848 29.9785 157.627 29.7761 157.134L29.7474 157.065C29.3867 156.212 29.0368 155.353 28.6815 154.498C25.6748 147.126 22.4962 139.819 19.3356 132.515C18.6604 130.93 19.6073 129.623 20.8383 128.679C21.7809 127.907 25.8328 126.021 22.0151 126.851C23.4852 123.454 21.7188 120.006 19.7088 117.286ZM36.7337 103.223C36.0735 103.141 35.2255 103.804 35.1239 104.445C34.2817 109.765 35.22 115.024 36.3449 120.228L36.552 121.181C36.9669 123.079 37.4305 125.014 38.4653 126.677C39.5213 128.375 41.1188 129.655 42.9528 130.432C48.8362 132.767 56.1529 130.458 60.4809 126.094C63.2498 122.318 60.8157 117.575 60.351 113.437C60.7903 112.321 60.9521 111.032 61.2061 109.882L61.2371 109.745L62.2239 105.456C62.4415 104.509 61.749 103.215 60.6111 103.345C52.6772 104.251 44.658 104.21 36.7337 103.223Z" fill="#AE5D29"></path> <rect width="27.8594" height="27.8764" transform="matrix(-1 0 0 1 62.6719 103.45)" fill="#44E8AD"></rect> <path fill-rule="evenodd" clip-rule="evenodd" d="M9.02505 115.942C9.04886 115.836 8.92146 115.755 8.83887 115.835C7.4431 117.174 6.45753 118.885 5.37537 120.472C4.34499 121.983 3.22362 123.435 2.45505 125.102C1.74106 126.652 1.28047 128.224 1.14328 129.927C1.00609 131.618 1.18388 133.313 1.48347 134.978C2.07286 138.26 3.33282 141.366 4.71599 144.384C6.06075 147.318 7.58026 150.168 9.18489 152.966L9.75998 153.965C10.4615 155.181 11.1707 156.395 11.93 157.574C12.875 159.04 13.7373 160.554 14.9833 161.778C15.8681 162.649 17.5354 161.778 17.1322 160.533C16.9572 159.991 16.8201 159.48 16.5484 158.977C16.3427 158.594 16.1103 158.222 15.8919 157.844C15.4551 157.089 15.0225 156.331 14.5857 155.575C13.6687 153.988 12.7028 152.429 11.7942 150.836C10.2178 148.074 8.72968 145.259 7.41371 142.363L7.25883 142.021C6.04797 139.339 4.90054 136.561 4.36879 133.66C3.80881 130.603 4.31 127.722 5.40056 124.85C5.96475 123.364 6.59892 121.911 7.25832 120.465L7.38504 120.188C8.02185 118.807 8.69695 117.434 9.02505 115.942ZM76.8043 63.0713C76.7917 63.0171 76.6993 63.0129 76.6909 63.0713C76.2989 65.6669 77.1711 68.4126 78.5921 70.5716C79.3677 71.7507 80.3238 72.8156 81.4508 73.6714L81.5386 73.7374C82.6898 74.5943 84.2454 75.4218 85.6745 74.8661C85.7193 74.8491 85.7613 74.8297 85.8005 74.8075C85.6395 75.0555 85.4911 75.3161 85.3399 75.5768C84.8905 76.3531 84.4873 77.1574 84.0492 77.9407C83.2652 79.3415 82.3314 80.5945 81.1512 81.6915C76.432 86.0769 69.8056 87.1192 63.5825 87.0693L63.1429 87.0651C60.4094 87.046 56.8343 87.1849 54.7241 85.2152C53.5901 84.1573 52.9657 82.6532 52.4015 81.2413C51.8471 79.8572 51.4677 78.4285 51.0071 77.0208C51.9689 76.3644 52.8509 75.563 53.5439 74.6262C54.2663 73.6505 54.8123 72.5522 55.1273 71.38L55.1737 71.2049C55.4173 70.2701 55.6622 69.0336 55.2701 68.1505C55.2253 68.0488 55.0573 68.0557 55.0097 68.1505C54.7983 68.5728 54.7577 69.0495 54.6275 69.5011C54.4763 70.0266 54.3055 70.5493 54.0801 71.0469C53.6447 72.0114 53.0693 72.9285 52.3791 73.7314C51.8093 74.3961 51.1919 75.0067 50.4864 75.5196C50.0706 74.8046 49.106 74.7084 48.2982 74.944C47.2154 75.2589 46.1474 75.6632 45.1034 76.0904L44.8949 76.1761C43.8631 76.6026 42.6969 76.9943 41.731 77.5755C41.1444 77.8543 40.5816 78.1344 40.0524 78.3825C37.4156 79.6158 34.8179 80.9243 32.2318 82.2583L31.6778 82.5445C30.5942 83.1062 29.5205 83.6735 28.5783 84.4568C27.6193 85.2541 26.8745 86.344 26.1745 87.3657C24.5744 89.7017 23.0666 92.1047 21.4847 94.4533C18.2899 99.1922 15.0952 103.931 11.8823 108.659C11.1053 109.804 10.2289 110.92 9.53174 112.113C8.86397 113.253 8.88217 114.424 9.01236 115.696L9.03674 115.93C9.28638 118.264 9.71559 120.506 11.0311 122.508C13.1017 125.655 16.3636 127.615 19.8145 128.964C19.3931 129.276 18.9969 129.614 18.4943 129.829C17.7216 130.157 16.897 130.328 16.0612 130.396C15.1694 130.467 14.1642 130.245 13.4419 130.849C13.1521 131.09 13.1437 131.67 13.4419 131.911C14.1364 132.475 15.034 132.313 15.8803 132.219L15.931 132.213C16.7164 132.127 17.4906 131.982 18.2283 131.695C18.4103 131.623 18.5909 131.544 18.7659 131.456C18.7603 131.472 18.7575 131.49 18.7603 131.509C18.8864 132.47 19.1596 133.378 19.4481 134.295L19.6311 134.877C20.0035 136.064 20.3787 137.249 20.7651 138.434C21.5004 140.689 22.3013 142.923 23.1051 145.155L23.7988 147.08C24.5114 149.055 25.233 151.028 26.0303 152.97C26.5231 154.169 27.0187 155.367 27.5129 156.565C27.9959 157.734 28.3977 158.997 28.9969 160.11C29.4897 161.028 30.8336 160.371 30.618 159.429C30.3353 158.193 29.8019 156.966 29.3945 155.763C28.9801 154.542 28.5741 153.32 28.1527 152.101C27.4199 149.985 26.6082 147.897 25.7923 145.811L24.9838 143.743C24.1906 141.717 23.3881 139.692 22.5304 137.692L22.4367 137.473C21.5456 135.381 20.6257 133.029 19.0067 131.408C18.9857 131.385 18.9563 131.374 18.9269 131.371C19.3245 131.157 19.6969 130.896 20.0245 130.588L20.0405 130.572C20.17 130.435 20.7049 129.763 20.8771 129.36C21.1011 129.44 21.3251 129.516 21.5491 129.591C21.9396 129.722 22.263 129.628 22.4912 129.42L22.9259 129.688C23.3906 129.97 23.8903 130.238 24.4036 130.252C25.0504 130.269 25.5586 129.913 25.9044 129.389C26.2151 128.921 26.3999 128.415 26.7933 127.996C27.1801 127.583 27.6278 127.235 28.0853 126.903L28.6246 126.512C29.6135 125.793 30.5722 125.067 31.3684 124.118C31.7688 123.638 32.305 123.07 32.5486 122.494C32.5962 122.383 32.6256 122.278 32.6312 122.176C32.6844 122.536 32.739 122.897 32.7936 123.257C33.558 128.317 34.1754 133.413 34.3727 138.531C34.4693 141.055 34.5127 143.583 34.3994 146.108C34.3434 147.37 34.251 148.63 34.1236 149.887C34.0606 150.517 33.9948 151.145 33.9178 151.773L33.9 151.918C33.8777 152.11 33.8632 152.296 33.88 152.472C33.264 152.775 32.9098 153.539 32.6634 154.135C32.4758 154.59 32.6214 155.031 32.9238 155.351C32.5626 155.678 32.2406 156.063 31.9704 156.503C31.9158 156.592 32.0334 156.662 32.1034 156.606C32.5472 156.255 33.0246 155.967 33.523 155.745C33.7848 155.844 34.0704 155.87 34.3336 155.798C34.6191 155.72 34.8655 155.53 35.0433 155.289C36.4587 155.058 37.9301 155.341 39.204 156.223C39.4686 156.407 39.708 156.615 39.9362 156.84C39.9754 156.88 40.016 156.93 40.0566 156.979L39.7787 157.085C39.6635 157.128 39.569 157.162 39.533 157.17C39.2904 157.219 39.044 157.245 38.7976 157.266L38.4285 157.296C37.0103 157.413 35.5963 157.452 34.2776 158.043C34.0004 158.168 34.097 158.593 34.3587 158.664C35.3217 158.924 36.2774 158.904 37.2576 158.834L37.4681 158.818C38.3794 158.749 39.358 158.753 40.247 158.502C40.0342 159.082 40.324 159.839 41.213 159.957C43.8827 160.311 46.5693 160.144 49.2418 159.91C51.9409 159.673 54.6387 159.448 57.3448 159.308C66.0983 158.849 74.8652 158.937 83.6265 159.062L88.5776 159.133C92.526 159.189 96.4751 159.232 100.423 159.202L102.272 159.185C103.053 159.177 103.834 159.167 104.614 159.145L105.082 159.129C106.012 159.096 107.242 159.235 108.05 158.687C108.717 158.236 108.865 157.408 108.463 156.74C108.347 156.548 108.187 156.376 108.021 156.209C107.679 153.303 107.487 150.383 107.291 147.464C106.611 137.251 107.009 127.09 108.578 116.979C112.789 118.26 116.936 119.867 120.976 121.591C123.161 122.523 125.336 123.491 127.485 124.505C129.446 125.432 131.416 126.591 133.511 127.193C133.702 127.361 133.968 127.441 134.205 127.366L134.235 127.356H134.237C134.452 127.406 134.692 127.375 134.927 127.234C134.974 127.206 135.022 127.177 135.07 127.147L135.141 127.102C135.879 126.639 136.621 126.069 137.143 125.372C137.777 125.958 138.459 126.495 139.129 127.038C139.857 127.629 140.583 128.223 141.302 128.822C141.588 129.06 141.903 129.288 142.155 129.562L142.191 129.602C142.197 129.609 142.203 129.616 142.208 129.622C141.117 130.325 140.163 131.391 139.307 132.318C138.389 133.313 137.502 134.339 136.622 135.369L135.771 136.369C129.75 143.447 123.668 150.782 115.873 155.985C114.641 156.807 115.816 158.81 117.039 157.97C119.355 156.382 121.546 154.619 123.65 152.764C127.338 149.515 130.655 145.87 133.762 142.072C135.334 140.149 136.86 138.18 138.355 136.198L138.863 135.526C139.539 134.629 140.212 133.73 140.856 132.81L140.99 132.617C141.555 131.805 142.156 130.894 142.52 129.959C142.66 130.1 142.818 130.219 143.049 130.308C143.444 130.461 143.929 130.139 144.025 129.756C144.26 128.826 143.448 128.273 142.788 127.779C141.985 127.183 141.168 126.607 140.349 126.034L140.056 125.828C139.032 125.105 138.003 124.363 136.887 123.792C136.853 123.747 136.812 123.705 136.766 123.669C136.713 123.627 136.661 123.587 136.608 123.546C137.941 121.394 139.402 119.326 141.033 117.372C142.26 115.901 143.562 114.498 144.939 113.168L145.558 112.572C146.494 111.671 147.468 110.759 148.506 109.976L148.832 110.343C149.266 110.832 149.704 111.318 150.168 111.777C151.081 112.68 151.981 113.602 152.877 114.523C154.365 116.056 155.803 117.636 157.236 119.218L157.952 120.009C159.444 121.658 161.043 123.276 162.4 125.038L162.467 125.127C163.06 125.918 163.481 126.793 163.206 127.798C162.941 128.766 162.309 129.625 161.765 130.461L161.711 130.545C159.489 133.99 157.109 137.348 154.56 140.561C149.454 146.996 143.63 153.095 136.681 157.57C135.718 158.19 136.618 159.731 137.582 159.104C141.641 156.463 145.369 153.291 148.799 149.884C151.948 146.758 154.801 143.315 157.475 139.782C158.778 138.057 160.027 136.297 161.224 134.498C162.384 132.751 163.727 130.955 164.568 129.028C165.009 128.015 165.172 126.918 164.81 125.85C164.479 124.869 163.824 124.054 163.143 123.288L163.079 123.216C161.512 121.464 159.918 119.733 158.309 118.019C156.695 116.299 155.006 114.64 153.283 113.03C151.929 111.763 150.518 110.647 149.009 109.612C149.145 109.516 149.281 109.424 149.419 109.335C149.841 109.062 149.947 108.478 149.577 108.107C148.568 107.092 147.405 106.21 146.31 105.286C145.281 104.418 144.252 103.548 143.223 102.678C141.129 100.911 139.034 99.1421 136.94 97.3733C133.178 94.1968 129.437 90.998 125.688 87.8075C124.125 86.4776 122.547 85.1641 120.973 83.8469L118.177 81.5041L116.81 80.361C116.109 79.7767 115.393 79.1989 114.596 78.7533C112.722 77.7047 110.467 77.2511 108.402 76.6956L108.264 76.6584C105.947 76.0271 103.618 75.4332 101.276 74.9036C98.9308 74.3739 96.5761 73.8917 94.2115 73.4552C92.0864 73.0623 89.9108 72.725 87.7437 72.6748C87.2061 72.4714 86.5313 72.4003 86.0021 72.6177C85.7837 72.7083 85.5555 72.8407 85.3525 73.008C84.2927 72.6372 83.247 72.4602 82.2572 71.833C81.2688 71.2073 80.3938 70.3848 79.6575 69.4788C78.1357 67.6027 77.3391 65.3866 76.8043 63.0713ZM52.4435 126.6C53.2835 126.542 54.0394 126.887 54.7898 127.255C54.367 127.438 53.9442 127.619 53.5214 127.799L50.7075 128.995C49.7779 129.389 48.7938 129.732 47.9104 130.219C47.8474 130.253 47.797 130.295 47.7592 130.344C46.8408 129.759 45.8692 129.236 44.9383 128.68C44.7255 128.553 44.5113 128.426 44.2971 128.299C45.4059 128.669 46.5426 128.854 47.7466 128.507C49.3524 128.046 50.7467 126.719 52.4435 126.6ZM50.142 123.796L50.2928 123.694C51.1076 123.137 52.0798 122.422 53.0693 122.922C53.5355 123.158 53.9177 123.538 54.3769 123.792C54.8389 124.048 55.347 124.245 55.8622 124.363C56.7176 124.56 57.6976 124.589 58.6174 124.399L58.6034 125.637C57.9076 125.923 57.216 126.216 56.5244 126.511C56.0754 126.358 55.6433 126.175 55.1889 125.973L54.8822 125.836C54.0073 125.445 53.1239 125.183 52.1565 125.307C50.3352 125.54 48.959 126.887 47.2174 127.336C45.0825 127.888 43.1561 126.302 41.1388 125.91C40.8061 125.845 40.4633 125.807 40.1225 125.801L40.009 125.8L39.9586 125.771C39.5246 125.517 38.875 125.275 38.5726 124.848C38.2436 124.386 38.2156 123.611 38.1078 123.067C38.0966 123.013 38.0854 122.957 38.0756 122.903C38.266 122.903 38.4592 122.912 38.6552 122.949C39.2712 123.061 39.8508 123.279 40.4248 123.522C41.5098 123.98 42.5709 124.503 43.7133 124.808C44.8319 125.107 46.0009 125.25 47.153 125.084C48.2772 124.922 49.211 124.418 50.142 123.796ZM49.9668 119.444L50.1354 119.336C50.5804 119.053 51.0907 118.761 51.6358 118.865C52.123 118.958 52.5416 119.344 52.9658 119.582C53.8968 120.105 54.9412 120.391 56.0065 120.463C56.8927 120.523 57.8125 120.416 58.6651 120.154L58.6357 122.894C58.3235 122.993 58.0001 123.064 57.6599 123.089C56.6267 123.166 55.6187 122.919 54.7522 122.352L54.3138 122.062C53.5636 121.571 52.8597 121.182 51.8668 121.361C50.8841 121.539 50.0595 122.167 49.2559 122.713L49.1241 122.801C48.2013 123.408 47.2658 123.799 46.134 123.808C44.9118 123.818 43.7036 123.48 42.5655 123.063C41.4357 122.65 40.3619 122.155 39.1537 122.003C38.7842 121.958 38.3334 121.944 37.9092 122.016C37.8532 121.705 37.8 121.396 37.7496 121.085C37.6404 120.417 37.5466 119.751 37.4654 119.083C39.6087 118.509 41.5883 120.367 43.579 120.94C44.734 121.272 45.9912 121.268 47.1461 120.947C48.2148 120.65 49.0549 120.034 49.9668 119.444ZM49.9613 114.829C50.4191 114.742 50.8713 114.952 51.2605 115.168C52.2531 115.716 53.1099 116.478 54.234 116.767C55.6802 117.138 57.2622 116.818 58.6985 116.212C58.6929 117.058 58.6859 117.904 58.6789 118.75C58.4087 118.852 58.1315 118.934 57.8487 119C56.8436 119.228 55.7782 119.198 54.7884 118.909C53.779 118.615 53.0049 117.821 51.9927 117.572C50.9577 117.318 49.982 117.813 49.1479 118.376L48.8969 118.547C47.9435 119.191 47.0188 119.75 45.8258 119.86C44.5645 119.975 43.4683 119.582 42.3413 119.061L42.079 118.94C40.6522 118.288 38.8 117.545 37.3756 118.288C37.2636 117.234 37.1824 116.18 37.1278 115.125C37.3238 115.052 37.5268 115 37.7606 114.998C38.3192 114.995 38.9058 115.171 39.4266 115.354C40.5648 115.754 41.6245 116.35 42.7515 116.778C43.8197 117.185 45.0027 117.397 46.1422 117.214C47.1978 117.046 47.9902 116.496 48.7196 115.744L48.8255 115.633C49.1454 115.294 49.4876 114.921 49.9613 114.829ZM49.1255 110.917C49.6533 110.64 50.2959 110.382 50.9062 110.463C51.4886 110.539 51.8767 110.932 52.2354 111.353L52.4296 111.583C53.0711 112.339 53.7026 112.974 54.6917 113.285C55.7165 113.606 56.8029 113.48 57.7563 113.011C58.0951 112.843 58.4101 112.636 58.7264 112.431L58.7096 114.654C58.0769 114.967 57.4329 115.25 56.7259 115.422C55.4211 115.738 54.3124 115.504 53.1966 114.788L53.0794 114.712C52.239 114.162 51.3773 113.508 50.3392 113.447C49.3262 113.386 48.5659 113.946 47.8988 114.63L47.8207 114.711C46.9793 115.595 46.1296 116.025 44.878 115.924C43.6646 115.825 42.529 115.292 41.4174 114.832L41.3165 114.79C40.3001 114.375 39.1283 113.947 38.0125 114.106C37.7452 114.144 37.3994 114.226 37.0914 114.37C37.0466 113.33 37.0256 112.289 37.0214 111.246C37.6556 110.698 38.6425 110.608 39.4363 110.832C40.6795 111.183 41.6973 112.089 42.8844 112.581C43.9372 113.018 45.0348 113.115 46.1086 112.702C47.2173 112.276 48.0867 111.463 49.1255 110.917ZM37.0912 106.538C38.949 106.602 40.7662 107.805 42.5399 108.263C44.5214 108.775 46.1385 108.077 47.9036 107.303L48.1314 107.203C49.0372 106.807 50.0102 106.451 51.0139 106.613C51.9925 106.772 52.8577 107.311 53.6991 107.799L53.8603 107.892C55.3931 108.76 56.9538 109.355 58.7432 109.207C58.7334 109.766 58.7376 110.323 58.7362 110.87C58.4422 111.037 58.1594 111.227 57.8906 111.399L57.7941 111.46C56.941 111.991 56.0616 112.34 55.0444 112.013C54.0617 111.695 53.5997 110.843 52.9249 110.142C52.3047 109.498 51.4955 109.107 50.5883 109.144C49.6126 109.183 48.69 109.611 47.8836 110.134C47.0772 110.656 46.2974 111.332 45.3539 111.594C43.2371 112.18 41.4241 109.951 39.4222 109.604C38.5822 109.458 37.6554 109.643 37.0212 110.148C37.0283 108.946 37.0548 107.742 37.0912 106.538ZM53.0818 106.033C53.3436 106.043 53.6054 106.054 53.8672 106.065C54.836 106.107 55.8047 106.154 56.7735 106.209C57.4441 106.245 58.2687 106.45 58.9267 106.246C58.9435 106.313 58.9659 106.377 58.9952 106.44C58.8959 106.933 58.8343 107.444 58.7965 107.959C58.1889 108.025 57.5715 108.003 56.9723 107.878C55.5345 107.582 54.367 106.678 53.0818 106.033ZM37.1196 105.619C40.6572 105.862 44.2219 105.778 47.7654 105.854L48.1905 105.864C48.2073 105.864 48.2241 105.866 48.2409 105.866C47.8345 106.023 47.4313 106.202 47.0295 106.385L46.6281 106.568C45.6789 107.003 44.713 107.359 43.6504 107.282C42.5122 107.2 41.4398 106.737 40.3759 106.363C39.3609 106.007 38.1919 105.767 37.1097 105.923C37.1125 105.821 37.1153 105.721 37.1196 105.619Z" fill="#1A1A1A"></path> <path fill-rule="evenodd" clip-rule="evenodd" d="M90.8347 14.3011C90.1102 13.5254 89.1836 12.9475 88.1706 12.7629C89.0966 13.2243 90.0017 13.7054 90.8347 14.3011ZM92.2539 20.9891C92.382 20.398 92.4681 19.8012 92.4952 19.2045C92.3333 19.4501 92.0747 19.6141 91.7843 19.6989C91.9719 20.118 92.1314 20.5498 92.2539 20.9891ZM43.7746 30.2571C44.6109 26.7842 48.5125 20.104 49.4346 18.8182C50.436 15.6346 44.9746 13.0815 47.9447 10.592C49.2895 9.4687 51.0668 9.07119 52.734 8.67283C64.2775 5.90694 76.6799 7.30187 87.386 12.3881C89.0145 12.0462 90.7112 12.7143 91.8954 13.8879C97.459 19.4671 89.8769 29.5336 88.2189 35.8233C85.3743 42.8366 91.234 44.0163 90.6056 49.9502C90.1173 53.0158 87.0052 53.826 84.379 54.2893C83.958 54.3876 83.3953 54.4024 83.2595 54.8463C82.834 57.4375 81.3752 59.907 79.4168 61.5829C79.588 62.0891 79.4573 62.7037 78.8534 63.1483C73.3815 67.2053 66.4821 69.2356 59.6574 68.8706C51.5243 68.4357 47.3183 63.7847 46.3034 62.5871C40.6917 55.0261 41.3623 45.05 42.507 36.0391C43.3044 29.7619 42.2932 36.4095 43.7746 30.2571Z" fill="#AE5D29"></path> <path fill-rule="evenodd" clip-rule="evenodd" d="M68.8527 1.35825C68.597 0.560981 67.8734 0.0815075 67.0449 0.180469C66.3115 0.266885 65.5264 0.993065 65.6158 1.79451C65.6326 1.94922 65.6549 2.09418 65.6815 2.23078L65.678 2.232L65.6745 2.23217L65.6926 2.28513C65.7471 2.5402 65.8226 2.76879 65.9343 2.98483C66.0768 3.3988 66.2137 3.81415 66.3492 4.23091C66.1536 4.22254 65.9539 4.23369 65.7513 4.27133C65.5418 3.7361 65.3308 3.20227 65.1213 2.66565C64.8963 2.09279 64.7385 1.35685 64.2942 0.913617C63.7256 0.347727 62.7393 0.230646 62.0464 0.634853C61.3144 1.06136 61.0532 1.8196 61.2124 2.6322C61.2933 3.04669 61.5709 3.33514 61.9144 3.51638L61.9514 3.53539L62.2155 4.15982C62.1344 4.12497 62.0506 4.09292 61.9598 4.06643C61.8173 4.02462 61.6776 3.99814 61.5407 3.98699C61.1635 3.30541 60.7486 2.64335 60.3197 1.99383C59.8266 1.24674 58.8626 0.928949 58.0538 1.40145C57.3301 1.82378 56.9418 2.93326 57.46 3.66223C57.854 4.21557 58.227 4.78007 58.5944 5.35014C58.5316 5.36129 58.4687 5.37523 58.4086 5.39335C58.3807 5.35572 58.3513 5.31808 58.3206 5.28045C57.9197 4.78425 57.4531 4.4121 56.9739 3.99953C56.5254 3.61205 56.3187 3.00295 55.7291 2.70886C54.9873 2.33949 54.0932 2.51651 53.6518 3.25244C52.7046 4.82885 54.2944 5.98015 55.3114 6.93491C54.4271 6.38435 53.5065 5.88119 52.5621 5.44631C52.0313 5.2024 51.492 4.96684 50.9444 4.76334C50.1327 4.46228 49.4761 4.55859 48.8097 5.11877C48.5122 5.36965 48.3641 5.91756 48.501 6.28261C48.7664 6.9823 49.1855 7.40742 49.9204 7.60952C50.4373 7.75169 50.9667 7.84786 51.4836 7.997C52.3498 8.2451 53.1908 8.54756 54.0066 8.92529C53.948 8.96152 53.8921 9.00055 53.8404 9.04515C53.2313 8.84863 52.611 8.67858 51.9879 8.53362C50.9546 8.29188 49.9028 8.12854 48.8465 8.02638L48.4955 7.99379C47.229 7.87253 45.7061 7.64875 44.9288 8.85838C44.6732 9.25701 44.6453 9.9149 44.9288 10.3093C45.4709 11.0676 46.0101 11.2181 46.907 11.2321C46.0241 11.3254 45.1426 11.4411 44.2653 11.5763C43.6606 11.6683 43.0559 11.7726 42.4538 11.8883L42.153 11.9471C41.4196 12.0934 40.6009 12.1785 39.9709 12.6022C38.5962 13.5277 39.2416 15.3299 40.7644 15.5222C41.5006 15.6142 42.3178 15.3034 43.0401 15.1584C43.7414 15.0177 44.4455 14.8936 45.1524 14.7849C45.5184 14.7278 45.8844 14.6776 46.2518 14.6316C45.5044 14.7389 44.7626 14.8908 44.0403 15.1055L43.8397 15.1659C42.4434 15.5904 40.5587 16.2667 40.1231 17.7551C39.8591 18.6597 40.5813 19.4486 41.4559 19.5016C42.2689 19.5504 42.9465 19.0667 43.6366 18.7099C44.1395 18.4506 44.6508 18.2569 45.1929 18.091C45.7531 17.9196 46.3245 17.7774 46.9 17.6617C46.4136 17.9291 45.9399 18.223 45.4852 18.5517L45.2762 18.7057C44.0676 19.6042 42.2245 20.9953 42.6503 22.6795C42.7844 23.2105 43.3782 23.7179 43.9481 23.6635C45.4318 23.5255 46.2504 21.9491 47.3694 21.1045C47.6614 20.8842 47.9813 20.6668 48.3166 20.455C46.6206 22.4732 45.2711 24.8065 44.2443 27.2164C41.9877 32.5182 41.2954 37.428 41.2788 43.1286L41.2785 43.3052C41.2757 46.4497 41.3469 49.6513 41.6542 52.7818C41.9392 55.674 42.4617 58.5285 43.7763 61.1476C45.9794 65.5394 50.2724 68.9598 55.0069 70.2617C60.275 71.7112 66.1634 70.5781 70.4788 67.2329C71.5796 66.3799 70.1198 64.5276 68.9952 65.315C64.5038 68.4581 58.695 69.4532 53.54 67.3263C49.451 65.6398 46.1582 62.0116 44.7626 57.8344C43.8743 55.1769 43.6157 52.3433 43.2988 49.5738L43.2776 49.3892C42.9423 46.4929 42.7481 43.577 42.7509 40.6611C42.7551 35.2462 43.5346 30.7887 45.9221 25.8769C47.0453 23.5632 48.5024 21.4238 50.2431 19.5462C50.7711 19.6535 51.3327 19.503 51.8664 19.4458C52.1388 19.4166 52.4112 19.3887 52.6837 19.3636C52.4054 19.5431 52.1325 19.7298 51.8642 19.9208L51.5123 20.1739C50.4112 20.9607 49.0143 21.8568 49.2973 23.3778C49.3741 23.789 49.7849 24.1667 50.183 24.2601C51.6261 24.603 52.618 23.2036 53.5931 22.3728C54.4411 21.6508 55.3282 21.0041 56.2321 20.356C56.4374 20.2096 56.6442 20.0633 56.8523 19.9183C56.6568 20.1458 56.4665 20.3768 56.281 20.61L56.0066 20.957C55.1765 21.9933 53.9797 23.3404 54.7191 24.6838C54.9287 25.0629 55.3757 25.3152 55.8088 25.3068C57.298 25.2762 57.8903 23.5896 58.5888 22.5248C59.1895 21.6118 59.8419 20.7518 60.5167 19.8918C60.7025 19.6563 60.8897 19.4207 61.0797 19.1852C64.2076 19.3469 67.3243 19.7594 70.3866 20.4187C72.4905 20.8717 74.5595 21.4586 76.6131 22.101L76.7837 22.1552C77.8951 22.5122 79.0403 22.9692 79.8416 23.7527C79.956 24.2926 79.8682 24.8619 79.7587 25.4011L79.6734 25.8137C79.3221 27.5394 79.0826 29.2331 79.2618 31.0048C79.4476 32.8321 79.9994 34.4754 80.6728 36.173C80.9913 36.9731 81.321 36.8281 81.4342 37.6867C81.5209 38.3407 81.4672 39.0158 81.408 39.6753L81.3585 40.2344C81.2343 41.6988 81.172 43.2955 82.1341 44.5039C82.2836 44.6893 82.6035 44.6154 82.7096 44.43C82.7515 44.3562 82.7963 44.2851 82.8451 44.2168C83.309 43.5463 84.02 43.1644 84.8331 43.0167C84.9365 42.9986 84.896 42.8606 84.8093 42.8494C84.122 42.7686 83.471 42.94 82.9178 43.2941C83.1801 42.389 85.2112 42.8291 85.8788 43.005L85.9018 43.0111C86.7344 43.2341 87.5223 43.5965 88.2167 44.1094C89.6137 45.1409 90.4211 46.7493 90.3806 48.4818C90.3401 50.1851 89.4586 51.7587 87.9442 52.5741C87.2136 52.9672 86.3824 53.1567 85.5554 53.1484C84.692 53.14 83.9236 52.7623 83.0589 52.8152C82.5588 52.8459 82.176 53.3811 82.4652 53.848C82.6579 54.1603 82.9094 54.4056 83.2 54.5937C82.4917 56.2231 81.5878 57.7772 80.5457 59.2115C79.9687 60.0073 79.3149 60.7419 78.5954 61.4123C78.0338 61.9364 76.817 62.5427 76.8855 63.4166C76.9092 63.7316 77.0727 63.924 77.3605 64.041C78.2552 64.406 79.3432 63.1494 79.9416 62.5436L79.9897 62.4953C80.7357 61.7538 81.416 60.9342 82.0083 60.0645C83.0589 58.5201 83.7113 56.7793 83.9809 54.9506C85.4157 55.3813 87.3156 54.977 88.4863 54.4488C92.166 52.7901 93.3688 47.8463 91.1322 44.5541C90.6992 43.9171 90.1571 43.3721 89.5396 42.9317C89.6751 42.8578 89.8023 42.763 89.9154 42.6431C90.5414 41.9797 90.984 41.114 91.4232 40.3161L91.4759 40.2207C91.8658 39.5182 92.2337 38.8047 92.5784 38.0802L92.7067 37.808C93.4764 36.1563 94.1512 35.4343 94.7002 33.6976C95.2283 32.0222 95.6446 30.3148 95.9142 28.5781L95.9858 28.1184C96.1418 27.1107 96.2892 26.0331 96.1754 25.01C96.9592 25.265 97.7471 25.4225 98.5224 25.0392C99.0337 24.7869 99.3159 24.051 99.1413 23.5227C99.0142 23.1339 98.8018 22.8286 98.5322 22.5889C98.6929 22.508 98.8437 22.4049 98.9764 22.2906L99.0924 22.1904C99.5618 21.7833 99.5953 21.0097 99.3103 20.4996C99.2824 20.4508 99.2545 20.4006 99.2279 20.3518C98.9569 19.8682 98.3967 19.5518 97.8435 19.5601C97.7541 19.5615 97.6647 19.5615 97.5738 19.5601C97.8323 19.503 98.0852 19.4152 98.3254 19.2674C99.4095 18.6026 99.2726 16.8004 97.9608 16.4826C97.4104 16.3502 96.8027 16.4045 96.1964 16.5467C96.2187 16.5341 96.2411 16.5216 96.2634 16.5077C96.7217 16.2275 97.1058 15.6797 97.0625 15.118C97.015 14.4964 96.8139 14.0531 96.2634 13.727C95.7857 13.4454 95.1095 13.419 94.6345 13.727C94.2224 13.996 93.8187 14.2929 93.4303 14.6121C93.8201 14.134 94.1582 13.6141 94.2951 13.0621C94.4641 12.375 94.1819 11.6265 93.5616 11.2641C93.0671 10.9756 92.5446 11.0076 92.078 11.2307C92.1031 10.8697 92.0151 10.5017 91.7748 10.1755C91.2831 9.50665 90.389 9.12181 89.6109 9.60965C89.5089 9.67377 89.372 9.78388 89.2393 9.91908C89.4977 9.09812 89.2644 8.23674 88.3829 7.86598C87.8451 7.63879 87.1172 7.75308 86.6506 8.14475C86.9468 6.54604 84.5816 5.37105 83.6624 7.02272C83.4538 7.39689 83.2474 7.79087 83.0628 8.19391L82.9946 8.34546L82.9876 8.34267L83.0346 8.23186L83.0826 8.12105C83.3383 7.52868 83.6638 6.91261 83.7532 6.27006C83.8845 5.31948 83.4598 4.41768 82.4233 4.27829C81.8882 4.20582 81.2931 4.44834 80.934 4.8722C81.1282 3.3974 79.477 2.32556 78.2881 3.42667C77.7251 3.94796 77.4247 4.71038 77.0671 5.37941C76.8645 5.75714 76.6578 6.13347 76.4552 6.51259C76.4035 6.45126 76.3476 6.38993 76.289 6.33C76.5893 5.43238 76.8226 4.51246 77.0196 3.58696C77.2068 2.71443 76.7695 1.80845 75.8671 1.56188C75.047 1.33594 74.0202 1.84065 73.8372 2.71178C73.7087 3.32492 73.5564 3.93137 73.3888 4.53476C73.2742 4.50688 73.1611 4.48737 73.0493 4.47343C73.04 4.36007 73.0294 4.24608 73.0176 4.13272L72.9737 3.72953C72.876 2.80829 72.7774 1.75666 72.2949 0.973551C71.4721 -0.364514 69.3626 0.190225 69.3402 1.77221C69.3277 2.59038 69.6615 3.40158 69.7775 4.21139C69.8278 4.56403 69.8571 4.92085 69.8739 5.27766C69.649 4.09292 69.3402 2.9235 68.9826 1.77221C68.9407 1.63422 68.896 1.49623 68.8527 1.35825ZM87.0525 47.0448C85.2015 46.7591 83.5097 47.7891 82.413 49.2317C82.2133 49.4952 82.3446 49.8673 82.5248 50.0889C82.6547 50.252 82.8294 50.2715 83.0263 50.2966C83.2526 50.3259 83.539 50.1433 83.6382 49.9468C84.3437 48.5418 85.6024 47.6539 87.0525 47.1076C87.0791 47.0978 87.0874 47.0504 87.0525 47.0448ZM84.4874 21.8719L84.4313 21.8119C84.0568 21.4242 84.6487 20.8322 85.0241 21.2206C85.4193 21.6296 85.6819 22.1263 85.9345 22.6298C86.1752 23.1098 85.4524 23.5338 85.2107 23.052L85.1007 22.8329C84.9279 22.4924 84.7437 22.156 84.4874 21.8719ZM89.6851 21.0763C89.1543 20.9871 89.3793 20.1811 89.9079 20.27C90.5928 20.3851 91.2749 20.516 91.9599 20.6313C92.4906 20.7205 92.2655 21.5265 91.7369 21.4377C91.0521 21.3224 90.3699 21.1916 89.6851 21.0763ZM58.0614 15.5733C58.5742 15.4026 58.7943 16.21 58.2842 16.3798C57.5794 16.6144 56.8804 16.8548 56.2118 17.1805C55.7288 17.4158 55.3035 16.6948 55.7888 16.4584C56.5226 16.1009 57.2878 15.8309 58.0614 15.5733ZM89.8062 14.4896C90.307 14.2897 90.5245 15.0983 90.029 15.2961L88.2185 16.0185C87.7177 16.2183 87.5001 15.4099 87.9957 15.2122L89.8062 14.4896ZM51.7396 12.526L51.8056 12.4844C52.2597 12.1908 52.6803 12.9145 52.2288 13.2065C51.9637 13.3778 51.6414 13.494 51.3987 13.6981L51.348 13.7433C50.956 14.1126 50.3621 13.5225 50.7552 13.1519C51.0428 12.881 51.4069 12.7302 51.7396 12.526Z" fill="#1A1A1A"></path> <path fill-rule="evenodd" clip-rule="evenodd" d="M57.5497 59.5343C58.4908 59.1521 59.3305 58.5145 59.9444 57.7C60.1578 57.4168 60.2132 57.1178 60.1684 56.8444C60.118 56.5369 59.9353 56.2582 59.6861 56.0712C59.4362 55.8837 59.1235 55.7912 58.8212 55.8384C58.5585 55.8793 58.297 56.0225 58.0901 56.3195L58.0468 56.3789C57.6819 56.8705 57.2063 57.2738 56.6644 57.5338C56.1421 57.7844 55.5579 57.9013 54.9534 57.8333C53.8021 57.7038 53.0086 57.0839 52.1651 56.2421C52.0606 56.1358 51.956 56.0262 51.8508 55.9148C51.7845 55.8139 51.6923 55.749 51.59 55.7149C51.4765 55.6771 51.348 55.6793 51.2303 55.7202C51.1168 55.7596 51.0154 55.8343 50.9473 55.9338C50.8827 56.0283 50.846 56.1451 50.8579 56.2794C50.9351 57.1518 51.3932 57.9304 52.044 58.5417C52.7667 59.2207 53.7247 59.6905 54.6267 59.8552C55.6203 60.0367 56.6329 59.9067 57.5497 59.5343ZM54.1577 46.0757C53.1005 46.7154 51.4897 48.2073 52.627 49.7933C53.9656 51.1918 55.893 49.5884 56.8428 48.8632C57.7235 48.3012 58.713 49.7466 57.8959 50.4029C51.0327 55.4618 48.2475 46.243 53.623 45.3235C54.2148 45.2221 54.4346 45.8778 54.1577 46.0757ZM66.4567 40.1908C66.3399 38.7474 64.1318 38.4196 63.9121 39.848C63.7154 41.1275 63.947 42.3029 64.5259 43.4549C65.079 44.5555 66.4692 44.042 66.5744 43.0398C66.7153 41.6965 66.5294 41.0888 66.4567 40.1908ZM49.6479 39.5518C49.34 39.1504 48.8955 38.8764 48.363 39.0313C46.6991 39.5153 47.1895 41.8671 47.7739 43.0119C48.0914 43.6335 49.1177 43.7911 49.5815 43.2438C50.3375 42.3512 50.6995 40.5686 49.7384 39.6894C49.7124 39.644 49.6834 39.5981 49.6479 39.5518ZM64.5492 33.8747L64.2864 33.8289C63.4733 33.6889 62.4624 33.5544 61.8872 34.2052C61.5821 34.5503 61.4771 35.1917 61.8872 35.522C62.6084 36.1033 63.4059 35.878 64.2702 35.9272C64.9825 35.9679 65.6671 36.0853 66.3532 36.2806C67.8585 36.7089 69.085 37.4908 70.3706 38.3494C70.5393 38.462 70.7114 38.2472 70.6309 38.0901C69.8888 36.6429 68.4506 35.4542 67.0101 34.7295C66.2412 34.3427 65.3998 34.0219 64.5492 33.8747ZM51.1647 33.2264L50.9635 33.2674C48.7744 33.723 45.9301 34.633 44.8935 36.7739C44.854 37.0766 44.8957 37.1415 44.9296 37.1838L44.9409 37.1979C44.9689 37.2341 44.9912 37.284 45.123 37.3252C45.1596 37.3166 45.1965 37.3074 45.2338 37.2976C45.709 37.1737 46.085 37.0029 46.449 36.8256L46.8436 36.632C47.3015 36.4085 47.7634 36.1932 48.2529 36.0341C49.2976 35.6949 50.3721 35.4559 51.4633 35.3283C51.6998 35.3007 51.9276 35.2212 52.1072 35.085C52.2778 34.9557 52.4081 34.7767 52.4675 34.5388C52.5445 34.2309 52.5223 33.9978 52.3564 33.72C52.2316 33.5114 52.0531 33.3668 51.8481 33.2838C51.6391 33.1992 51.4012 33.1792 51.1647 33.2264Z" fill="#1A1A1A"></path> </g> <defs> <clipPath id="clip0"> <rect width="165" height="153" fill="white" transform="matrix(-1 0 0 1 165 0)"></rect> </clipPath> </defs> </svg> 