<?xml version="1.0" encoding="UTF-8"?> <svg xmlns="http://www.w3.org/2000/svg" width="118" height="156" viewBox="0 0 118 156" fill="none"> <g clip-path="url(#clip0)"> <path fill-rule="evenodd" clip-rule="evenodd" d="M11.2649 68.613C12.6528 64.7684 11.6102 59.9007 14.4711 56.7194C15.3173 56.2022 15.7661 56.4899 16.1144 57.3918C16.3247 58.5786 16.8173 62.6649 15.0456 62.663C14.8226 65.2151 14.962 67.7857 15.5077 70.2903C16.8152 70.0793 17.7685 70.7551 18.7224 71.2578C19.4336 71.6325 20.1452 71.911 21.0042 71.6538C24.5502 71.0252 25.5608 74.7701 25.6039 77.827C25.656 79.3185 25.7953 82.7953 26.4486 84.2425C29.4053 78.0843 35.6149 75.2806 41.5317 73.8963C42.4591 73.6383 43.2506 73.2857 43.8455 72.6831C48.8306 70.7036 46.4357 64.2181 48.7292 60.4907C52.319 56.0596 56.6301 54.7845 62.0614 55.544C66.8134 56.0724 70.0436 60.9269 69.7506 65.5092C69.6627 66.4442 70.2208 67.4277 70.549 68.3899C73.8291 72.3371 78.9331 74.1031 83.3229 76.4883C97.9648 83.6851 103.039 89.185 108.729 104.499C111.391 110.261 114.576 115.853 115.634 122.199C116.877 129.676 116.881 137.331 116.449 144.882C117.257 144.98 116.377 150.785 115.669 152.796C115.426 153.485 114.844 153.982 114.119 153.97C112.661 154.683 109.237 157.556 107.711 157.46C102.783 157.155 97.9927 157.627 93.2446 157.383C88.1078 157.119 83.0205 156.155 77.8618 156.28C68.8655 156.498 75.3064 157.035 65.9989 157.46C60.1233 157.733 38.6876 154.506 32.8287 155.033C28.0631 156.041 25.889 154.341 26.616 149.334C26.8847 147.415 27.743 143.147 24.9195 142.965C23.5839 143.121 22.4783 144.464 21.4776 145.248C12.6392 151.866 3.60997 147.1 2.89844 136.221C1.55892 127.097 -0.319252 124.941 3.7636 115.829C16.681 81.909 -2.78062 86.5175 10.3595 70.6296C11.3855 71.5281 11.1247 69.13 11.2649 68.613Z" fill="#EDB98A"></path> <path fill-rule="evenodd" clip-rule="evenodd" d="M73.2868 75.8518C64.868 80.17 58.2103 82.3291 53.3137 82.3291C48.417 82.3291 39.7926 83.3346 27.4402 85.3455L21.3407 98.8262L7.8817 101.471L7.82198 101.823C7.16629 105.606 5.91331 110.184 3.7635 115.829C-0.319351 124.941 1.55883 127.097 2.89835 136.221C3.60987 147.1 12.6391 151.866 21.4775 145.248C22.4782 144.464 23.5838 143.121 24.9194 142.965C27.6865 143.143 26.9175 147.246 26.6327 149.216L26.6158 149.334C25.8888 154.341 28.063 156.041 32.8286 155.033C38.6875 154.506 60.1232 157.733 65.9988 157.46C75.3063 157.035 68.8654 156.498 77.8617 156.28C83.0204 156.155 88.1077 157.119 93.2445 157.383C97.7428 157.614 102.279 157.203 106.935 157.418L114.119 153.97C116.776 134.837 116.372 122.292 112.908 116.335C109.461 110.407 104.845 100.663 99.0607 87.1018C98.9721 87.0064 98.8827 86.9121 98.7926 86.8183L73.2868 75.8518Z" fill="#44E8AD"></path> <path fill-rule="evenodd" clip-rule="evenodd" d="M16.1736 56.4653C15.4686 55.7686 14.348 55.9419 13.6605 56.5614C12.961 57.1905 12.5399 58.1795 12.1807 59.032C10.569 62.8649 10.9444 67.0616 10.1291 71.0717C8.63719 71.8822 7.29041 72.9402 6.33672 74.3635C4.88784 76.5255 4.20039 79.0434 4.92686 81.6058C5.30219 82.9317 5.93987 84.1602 6.39458 85.4576C6.88023 86.839 7.17754 88.2745 7.32014 89.7331C7.46005 91.1645 7.47889 92.6039 7.43853 94.0407C7.417 94.7848 7.37799 95.5278 7.33897 96.2704C7.304 96.9361 7.18668 97.6307 7.34502 98.283L7.36454 98.3581C7.30266 98.3485 7.24212 98.3363 7.18158 98.3229C6.66216 98.2065 6.20489 98.0252 5.66273 98.0969C5.2403 98.1523 5.02102 98.5068 5.19994 98.9073C5.27798 99.0818 5.38157 99.2279 5.50668 99.3524C4.41698 107.457 2.51339 115.431 1.26091 123.509C0.693199 127.175 0.34745 130.85 0.542519 134.561L0.562996 134.93C0.761887 138.337 1.25049 142.091 2.97213 145.071C3.77662 146.466 4.88246 147.704 6.22238 148.596C6.83597 149.004 7.49369 149.323 8.20805 149.483C11.9103 150.966 15.8251 150.602 19.3162 148.642C20.8861 147.761 22.4521 146.734 23.7341 145.459C24.357 144.84 24.9582 144.051 25.327 143.189C25.3256 143.383 25.3604 143.581 25.3216 143.771L25.2439 144.148C24.6625 146.949 22.4465 157.299 22.4171 158.168C22.4011 158.636 26.3248 158.625 26.7506 158.639L26.7624 158.64C33.1172 158.906 39.4758 158.764 45.8271 158.5L46.3285 158.479C52.4879 158.217 59.1906 157.864 65.3567 157.683L65.3438 157.58C65.2701 157.023 64.9108 154.546 64.8708 154.356L64.8694 154.35C64.6946 153.641 64.3575 151.438 64.5349 150.707C64.992 148.825 67.0517 149.255 68.5008 149.454L68.806 149.495C69.0406 149.527 69.6114 149.611 69.6061 149.617C69.76 149.456 69.3937 148.998 69.3035 148.876L69.2313 148.775C68.8419 148.227 68.4897 147.658 68.5282 146.952C68.6218 145.227 71.0726 145.324 72.2769 145.444C72.3618 145.452 72.3965 145.585 72.2987 145.605L72.0611 145.655C71.2971 145.82 69.6 146.241 69.6383 146.876C69.6601 147.238 70.0426 147.504 70.2763 147.731C70.5339 147.982 70.7899 148.252 70.98 148.561C71.3459 149.154 71.4291 149.954 71.0671 150.571C70.6494 151.283 69.9087 151.366 69.1668 151.301L69.1248 151.297C68.9616 151.282 68.7983 151.266 68.6351 151.25L67.6556 151.154C67.4131 151.13 66.6338 150.925 66.4061 151.066C66.0835 151.267 66.4715 152.157 66.5443 152.45L66.5481 152.471C66.6107 152.895 66.6481 157.342 66.6545 157.635C71.4597 157.523 76.2657 156.449 81.0708 156.701C84.8883 156.902 88.6953 157.248 92.5056 157.549L92.6018 156.727C93.6578 147.77 95.3137 135.951 94.519 127.091C94.4568 126.397 95.5335 126.402 95.5952 127.091C96.4169 136.252 94.6183 148.559 93.572 157.632C95.1941 157.756 96.8168 157.868 98.4414 157.954L98.8556 157.975C104.384 158.253 110.09 158.27 115.5 156.995C115.667 156.955 115.723 156.788 115.688 156.648C115.742 156.679 115.823 156.662 115.845 156.586C116.476 154.497 116.796 149.177 117.081 146.875L117.101 146.725C117.394 144.488 117.562 142.226 117.683 139.976C117.928 135.475 117.898 130.968 117.567 126.472C116.514 112.132 112.319 97.645 103.516 86.1206C101.388 83.3349 98.9647 80.7859 96.0575 78.8147C93.2054 76.8801 90.0063 75.5175 86.7601 74.411C84.6144 73.6789 82.435 73.0525 80.2556 72.4274C80.1731 72.3859 80.0906 72.345 80.0077 72.3048L79.8829 72.2449C79.108 71.8754 78.3453 71.4709 77.5515 71.1421L77.3761 71.0704C76.2259 70.6064 74.8859 70.1958 73.6407 70.2099C71.6241 69.1884 69.9304 67.6449 70.0945 65.1688C70.1618 64.1514 68.5743 64.1528 68.5178 65.1688C68.3699 67.872 70.0258 69.7892 72.1367 71.0758L72.1266 71.0861L72.1165 71.0975C71.7869 71.4736 71.4345 71.8226 71.0537 72.1473C68.7748 74.0983 65.8918 75.7179 63.0102 76.7839C59.6294 78.0354 56.2514 78.4101 52.755 77.3983C50.9267 76.8691 49.2007 76.0533 47.6146 74.998C47.1303 74.676 46.6661 74.3311 46.2208 73.9616C46.6419 73.3826 46.9782 72.7589 47.2608 72.0973C47.8283 70.766 48.298 68.9625 47.7182 67.5568C47.5756 67.2104 47.0092 66.9967 46.8114 67.4377C46.2666 68.6446 46.0392 69.9488 45.4042 71.1287C45.1621 71.5778 44.8836 72.0039 44.5715 72.4058C44.5715 72.4274 42.1876 72.8373 42.1876 72.8373C39.306 72.836 36.5925 73.9495 34.0432 75.3403C32.5362 76.1627 31.0553 77.0371 29.5785 77.9129L26.6925 79.6251C26.4799 79.7509 26.2418 79.8727 26.0037 80.0027C26.2821 78.6198 26.418 77.2101 26.3265 75.8125C26.188 73.7046 25.3727 71.3993 23.2135 70.6483C22.1924 70.2925 21.0113 70.402 20.0198 70.7971C19.5624 70.9797 19.0646 71.2219 18.6395 71.5453C18.4335 70.6145 17.5659 69.9163 16.6942 69.608C16.4117 69.5077 16.1224 69.4442 15.8292 69.413C15.8378 69.2637 15.8386 69.1126 15.8366 68.957L15.8345 68.8394C15.8211 68.1494 15.8265 67.4594 15.8413 66.7707C15.8682 65.4651 15.9301 64.1866 16.0619 62.8851C16.172 61.8076 16.3632 60.7425 16.5052 59.6694L16.564 59.2081C16.6838 58.2994 16.8848 57.1677 16.1736 56.4653ZM102.857 144.568L103.098 144.424C103.885 143.957 104.697 143.525 105.651 143.742C106.56 143.948 107.205 144.69 107.544 145.527C107.704 145.922 107.788 146.321 107.85 146.742C107.884 146.977 107.908 147.215 107.949 147.45L107.963 147.522C107.981 147.616 108.01 147.746 108.036 147.859C108.284 147.749 108.534 147.575 108.737 147.472L108.9 147.389C109.285 147.196 109.684 147.013 110.103 146.924C111.01 146.732 112.016 147.01 112.535 147.828C112.978 148.526 112.969 149.35 112.799 150.133L112.787 150.188C112.714 150.513 112.333 151.814 111.78 151.624C111.242 151.44 111.17 150.72 111.13 150.241L111.127 150.195C111.108 149.834 111.18 149.075 110.773 148.938C110.264 148.766 109.286 149.549 108.843 149.754C108.052 150.119 107.182 150.227 106.538 149.516C105.96 148.878 105.911 147.944 105.762 147.135L105.723 146.932C105.644 146.521 105.49 145.864 105.038 145.881C104.669 145.895 104.263 146.28 103.958 146.462C103.622 146.664 103.273 146.833 102.908 146.976C102.057 147.311 101.11 147.418 100.204 147.319C99.6795 147.262 99.3378 147.01 99.1522 146.513C99.0894 146.368 99.0415 146.217 99.0084 146.062C98.7143 144.951 100.321 144.157 100.914 145.152C101.597 145.125 102.234 144.94 102.857 144.568ZM3.96532 137.137C4.45527 136.785 5.12066 136.861 5.55855 137.257L5.58463 137.282C5.70601 137.4 5.97968 137.706 6.15694 137.976L6.21243 137.933C6.2213 137.926 6.22992 137.919 6.23825 137.912L6.26228 137.892C6.62443 137.584 7.00286 137.302 7.46887 137.177C8.68314 136.848 9.78669 137.666 10.3169 138.714C10.5683 139.211 10.6759 139.725 10.8013 140.261L10.812 140.31C10.8625 140.56 10.9283 141.067 11.1461 141.191C11.2262 141.236 11.4078 141.146 11.5875 141.042C11.9974 140.804 12.3654 140.501 12.7671 140.25C13.7096 139.662 14.7806 139.419 15.839 139.843C16.8869 140.263 17.6376 141.253 17.6552 142.407C17.6683 143.257 17.1019 144.742 16.036 144.638C15.8225 144.617 15.5477 144.485 15.5131 144.238C15.4212 143.581 15.9362 142.774 15.3456 142.232C14.7745 141.707 14.1829 142.148 13.6659 142.512L13.2954 142.774C12.6938 143.194 12.0741 143.579 11.3124 143.624C10.3486 143.682 9.45884 143.147 8.97386 142.322C8.53542 141.576 8.52897 140.733 8.18619 139.967C8.11125 139.799 7.91807 139.645 7.98238 139.568C7.7226 139.704 7.38748 140.096 7.22565 140.206C6.41981 140.753 5.3425 140.749 4.63608 140.024C4.35464 139.736 4.17545 139.379 3.96706 139.04C3.89173 138.917 3.79769 138.803 3.72895 138.677C3.70375 138.631 3.66244 138.458 3.62846 138.304L3.57626 138.06L3.5708 138.02C3.52612 137.65 3.65604 137.359 3.96532 137.137ZM35.0035 133.907C35.9292 133.418 37.0704 133.604 37.9043 134.197C38.8395 134.861 39.2983 135.881 39.6105 136.959C39.8375 137.744 39.9464 138.827 40.599 139.396C41.3585 140.057 42.6319 139.355 43.4337 139.094C44.4038 138.779 45.5695 138.649 46.516 139.116C47.4436 139.573 47.8906 140.506 47.9864 141.506C48.0759 142.438 47.943 143.667 47.4139 144.447C47.3618 144.524 47.2624 144.504 47.2294 144.423C46.8817 143.562 46.9487 142.577 46.6663 141.685C46.3648 140.734 45.6583 140.533 44.7612 140.789C43.8255 141.056 42.9687 141.555 42.0064 141.733C40.9805 141.922 39.9647 141.727 39.1559 141.045C38.4754 140.472 38.0634 139.636 37.7849 138.804C37.5135 137.992 37.4693 136.905 36.8913 136.232C36.7455 136.062 36.4914 135.856 36.2554 135.834C35.9048 135.802 35.7781 136.064 35.4949 136.265C34.7479 136.795 33.5554 136.805 33.098 135.873C32.9483 135.568 32.874 135.134 33.098 134.835C33.4907 134.312 33.8131 134.316 34.3314 134.429C34.3478 134.415 34.3663 134.397 34.3869 134.373L34.4028 134.354C34.5399 134.179 34.8061 134.012 35.0035 133.907ZM71.6677 128.404C71.6983 127.703 72.5374 127.03 73.1993 127.52C73.3061 127.598 73.4112 127.678 73.5142 127.761L73.5565 127.807C73.6796 127.807 73.7944 127.774 73.916 127.735L74.1288 127.666C74.6873 127.488 75.2243 127.345 75.8205 127.476C76.8463 127.703 77.4971 128.593 77.8313 129.537C78.1427 130.418 78.0405 131.316 78.1866 132.219C78.3251 133.075 78.7624 133.409 79.5836 133.225L79.6256 133.216C81.259 132.822 83.1199 131.722 84.5519 133.23C86.0988 134.859 85.0869 137.447 83.3936 138.494C83.3196 138.539 83.2378 138.464 83.2546 138.386C83.4795 137.334 84.1359 136.33 83.9159 135.213C83.7635 134.439 83.2286 134.073 82.4653 134.196C80.8598 134.456 79.3582 135.743 77.7116 134.809C76.889 134.342 76.4358 133.466 76.2309 132.568C76.0463 131.76 76.0987 130.848 75.745 130.086C75.3581 129.252 74.7064 129.857 74.0042 129.971C73.0107 130.132 71.6148 129.608 71.6677 128.404ZM17.8047 103.478C17.8015 102.782 18.8778 102.781 18.881 103.478C18.9207 112.302 23.0255 120.459 23.7628 129.195C23.8212 129.889 22.7447 129.885 22.6866 129.195C21.949 120.456 17.8444 112.316 17.8047 103.478ZM106.675 117.922C107.242 117.277 108.072 117.477 108.746 117.801C109.759 118.286 110.728 118.832 111.657 119.463C111.886 119.618 111.742 119.955 111.473 119.904C110.791 119.772 110.128 119.624 109.467 119.41C108.97 119.25 108.453 119.017 107.935 118.934C107.967 119.054 108.007 119.171 108.053 119.287C108.138 119.523 108.237 119.755 108.321 119.992C108.488 120.464 108.638 120.944 108.784 121.423L108.856 121.663C109.159 122.669 109.453 124.132 108.056 124.442C107.537 124.556 107.023 124.329 106.541 124.151L106.442 124.114L104.682 123.487C104.473 123.413 104.084 123.361 103.91 123.23L103.938 123.364C103.974 123.542 104.01 123.717 104.086 123.895L104.128 123.993C104.565 124.989 105.116 125.986 104.607 127.088C104.17 128.031 103.138 128.479 102.143 128.211C101.198 127.957 100.514 126.886 101.003 125.955C101.185 125.608 101.719 125.438 102.058 125.655L102.149 125.716C102.256 125.786 102.44 125.906 102.444 125.928C102.47 125.935 102.496 125.942 102.523 125.948C102.466 125.779 102.428 125.52 102.377 125.405L102.193 124.984C101.851 124.194 101.554 123.39 101.815 122.504C102.564 119.967 105.102 121.409 106.974 122.133C106.946 122.026 106.919 121.92 106.896 121.817C106.816 121.449 106.727 121.084 106.64 120.718L106.461 119.963C106.3 119.268 106.174 118.493 106.675 117.922ZM10.892 115.09C10.8904 115.03 10.9638 114.984 11.0153 115.019C12.2123 115.828 13.013 117.518 12.5632 118.957C12.3449 119.656 11.8805 120.269 11.2286 120.608C10.418 121.03 9.52297 120.869 8.67135 120.689L8.30963 120.611C8.0547 120.557 7.80314 120.518 7.54366 120.59C7.4546 120.615 7.35127 120.693 7.26665 120.709C7.30164 120.769 7.33877 120.873 7.3576 120.911L7.41928 121.036C7.48122 121.163 7.54163 121.294 7.57957 121.427C7.70684 121.873 7.67536 122.352 7.46926 122.768C7.08531 123.543 6.28001 123.98 5.44162 124.054C4.94211 124.098 3.68358 123.658 3.38599 124.191C2.79541 125.249 1.11365 124.538 1.44056 123.366C1.66159 122.575 2.28864 122.063 3.06554 121.849C3.4795 121.735 3.90797 121.75 4.32892 121.797C4.4938 121.815 4.65816 121.841 4.82325 121.858L4.94722 121.87C4.91493 121.867 5.28933 121.858 5.43974 121.848L5.40765 121.761C5.40293 121.749 5.39861 121.738 5.39481 121.73C5.22745 121.37 5.10341 121.012 5.1135 120.609C5.13193 119.884 5.59875 119.251 6.21207 118.902C6.7775 118.58 7.45083 118.451 8.09361 118.523C8.80016 118.602 9.8043 119.165 10.4991 118.868C11.0226 118.645 11.2003 117.866 11.2084 117.355C11.2205 116.585 10.9132 115.856 10.892 115.09ZM59.6423 110.044C61.568 109.175 63.2216 110.66 64.3517 112.08C64.4099 112.153 64.3366 112.277 64.2447 112.22L64.0946 112.126C63.172 111.544 62.1489 110.856 61.0056 111.054C59.9704 111.234 59.7141 111.915 59.9201 112.843L59.9806 113.104C60.1996 114.06 60.3674 115.049 59.8222 115.938C59.3073 116.778 58.3028 117.145 57.362 117.167C56.2768 117.193 55.3401 116.685 54.3479 116.331L54.2694 116.304C53.8481 116.157 52.3108 115.775 52.2895 116.646C52.2796 117.044 52.7034 117.511 52.8663 117.869C53.0795 118.337 53.2214 118.829 53.2189 119.349C53.2126 120.645 52.1371 121.698 50.8646 121.069C50.3699 120.824 50.2424 120.123 50.5004 119.672C50.8638 119.037 51.0109 119.07 50.7563 118.403L50.6828 118.215C50.3695 117.411 50.12 116.583 50.472 115.739C51.1751 114.054 53.2832 113.85 54.7892 114.408L54.8443 114.429C55.7817 114.794 58.5891 116.257 58.3956 114.188C58.3195 113.373 58.0735 112.591 58.2455 111.767C58.4053 111.002 58.9363 110.363 59.6423 110.044ZM68.9212 103.123C69.2728 102.5 70.4529 102.723 70.355 103.513L70.3237 103.759C70.2837 104.096 70.275 104.412 70.5063 104.712C70.7869 105.075 71.2673 105.185 71.7033 105.129C72.6264 105.012 73.2152 104.151 74.2311 104.352C75.0558 104.515 75.6253 105.194 75.955 105.934C76.3041 106.717 76.2967 107.567 76.5567 108.374C76.8562 109.302 77.4948 109.259 78.2923 108.934L78.464 108.863C79.2269 108.544 79.9924 108.19 80.8425 108.342C82.2543 108.596 83.4702 110.779 82.1474 111.833C81.9086 112.024 81.4913 111.924 81.5014 111.564L81.5027 111.496C81.5094 110.841 81.3451 109.996 80.5988 109.842C79.8074 109.678 78.9132 110.404 78.1782 110.614C76.2748 111.155 75.1905 109.714 74.8672 108.01L74.8554 107.945C74.7522 107.348 74.6706 106.245 74.0503 105.965C73.7195 105.817 73.3666 106.183 73.0902 106.331C72.6606 106.56 72.1997 106.705 71.7138 106.743C69.9162 106.88 67.8736 104.979 68.9212 103.123ZM23.9383 100.769C24.5306 100.511 25.4139 100.655 25.5587 101.432L25.6464 101.921C25.8185 102.866 26.0926 104.048 27.0162 104.388C27.5938 104.601 28.2572 104.228 28.7753 104C29.3975 103.727 30.0041 103.493 30.6855 103.428C32.0681 103.296 33.0979 104.1 33.5869 105.357L33.6296 105.469C34.024 106.526 34.557 108.546 33.6935 109.403C33.5674 109.528 33.3133 109.589 33.1586 109.472C32.6483 109.087 32.5192 108.455 32.344 107.861L32.3289 107.811C32.143 107.194 31.9906 106.516 31.6549 105.96C31.031 104.928 29.403 106.107 28.6199 106.379C27.3339 106.826 26.0003 106.565 25.0176 105.609C24.3969 105.005 24.0299 104.241 23.7775 103.432C23.6163 103.515 23.4491 103.588 23.269 103.637C22.5829 103.824 21.769 103.725 21.2466 103.203C20.2661 102.222 20.7979 100.462 22.2928 100.746C22.5872 100.802 22.7804 101.085 22.8153 101.374L22.8354 101.419C23.2115 101.294 23.6228 100.907 23.9383 100.769ZM93.2099 92.0043C94.6066 90.5592 97.0304 91.3425 97.9857 92.8754C98.1839 93.1932 97.8566 93.5962 97.5087 93.4995C96.6771 93.2691 95.5038 92.3621 94.625 92.9394C93.9736 93.3674 94.328 94.4859 94.3876 95.1116L94.3962 95.2049C94.4716 96.0567 94.4887 97.2221 93.829 97.8597C93.4493 98.2267 92.8669 98.1771 92.3662 98.1247L92.207 98.1081C91.6167 98.0484 91.0303 97.9437 90.4648 97.7611C89.945 97.5933 89.4525 97.3653 88.964 97.1238L88.842 97.0632C88.6258 96.9554 87.9049 96.5277 87.6889 96.7964C87.5763 96.9366 87.8553 97.5505 87.9133 97.6875C88.1323 98.2024 88.4108 98.6873 88.6117 99.2114C88.9656 100.135 88.9952 101.177 88.4981 102.058C88.0165 102.912 86.973 103.603 86.0481 102.947C85.5186 102.572 85.52 101.889 86.0481 101.513C86.3275 101.314 86.6092 101.183 86.7246 100.849C86.8753 100.414 86.6814 99.9527 86.4937 99.55L86.269 99.071C85.7712 98.0012 85.274 96.7709 85.9694 95.6774C86.6875 94.5484 88.147 94.5305 89.2511 95.0008C89.8812 95.2692 90.4562 95.6292 91.1129 95.8369C91.5672 95.9807 92.0232 96.0768 92.4886 96.1294C92.5923 95.5663 92.4455 94.936 92.444 94.3765C92.4416 93.5267 92.599 92.6364 93.2099 92.0043ZM21.1874 71.9025C23.5444 71.5548 24.6852 73.6748 24.848 75.7164C24.9947 77.57 24.696 79.4289 24.2292 81.2312C24.0543 81.8994 23.8579 82.5596 23.652 83.2091C23.3211 84.2523 22.9619 85.2939 22.5247 86.2978C22.3915 86.6009 22.257 86.9053 22.1063 87.1975C21.5902 87.6231 21.1486 88.1964 20.7471 88.7473L20.4833 89.1112L20.4126 89.2094C19.7305 90.1483 19.148 91.1224 18.6717 92.1818C18.2182 93.1907 17.8805 94.2426 17.6181 95.3164L17.5536 95.5844C17.3518 96.4107 17.0542 97.397 17.4139 98.166C16.7076 98.3851 16.0053 98.584 15.2547 98.6895C14.2188 98.8356 13.1412 98.8451 12.0959 98.8072C11.0859 98.77 10.0771 98.6907 9.07141 98.5829L8.34689 98.5027C8.2718 98.4941 8.19677 98.4852 8.12188 98.4757C8.15013 98.4405 8.17435 98.4013 8.19183 98.3581C8.44999 97.7357 8.41668 97.014 8.44534 96.3446L8.44879 96.2704C8.48646 95.5278 8.50932 94.7849 8.51875 94.0408C8.53623 92.6445 8.49857 91.2442 8.34654 89.8547C8.21484 88.6386 8.00887 87.4221 7.68735 86.241C7.36313 85.0437 6.86806 83.9194 6.41066 82.7694C5.95863 81.6329 5.58585 80.4654 5.62634 79.226C5.65191 78.4386 5.8241 77.6728 6.11604 76.949C6.12962 76.9598 6.14684 76.9679 6.16716 76.9666C7.08331 76.9327 7.95103 76.6662 8.83624 76.4416C9.77525 76.2023 10.7371 76.006 11.6977 75.8896L11.9019 75.8656C12.7024 75.7752 13.5746 75.7311 14.3143 76.0763C15.1148 76.4512 15.6192 77.2846 15.9233 78.0841L15.9572 78.1762C16.4974 79.692 16.3735 81.7152 14.7031 82.4325C14.1852 82.6557 13.0026 82.7924 12.7363 82.0861C12.6165 81.7641 12.8627 81.288 12.9556 80.9836C13.0645 80.6209 13.1358 80.2637 13.1277 79.8849C13.1212 79.5526 12.8688 79.302 12.5477 79.2752L12.5183 79.2733C11.9345 79.2478 10.7304 78.5713 10.6134 79.5453C10.5905 79.7347 10.7345 79.9336 10.8865 80.0257C11.1932 80.2082 11.5134 80.3301 11.847 80.4044C11.8013 80.6073 11.7367 80.8062 11.6733 81.0038C11.6358 80.9848 11.5941 80.9728 11.5497 80.9686C11.056 80.928 10.5676 81.0066 10.0739 81.0119L9.80403 81.0138C9.42085 81.0176 9.08676 81.0383 8.71516 81.2378C8.37211 81.4218 8.43265 81.8832 8.71516 82.0807C9.45642 82.5975 10.7116 82.2945 11.4838 81.7695C11.4502 82.0361 11.4663 82.308 11.5793 82.5935C11.9129 83.4405 12.8695 83.8625 13.7249 83.8991C14.4852 83.9315 15.2116 83.6907 15.8184 83.2686C15.9421 83.7137 16.1412 84.1412 16.2273 84.6027C16.3403 85.2087 16.2058 85.9177 16.4155 86.4872C16.6255 87.061 17.4367 87.4451 17.9063 86.8823C18.5937 86.0597 18.3798 84.7568 17.7758 83.9234C17.4542 83.4824 16.8704 82.9764 16.2758 82.8965C16.6888 82.5057 17.0197 82.0225 17.2282 81.4895C17.243 81.4962 17.2605 81.4976 17.2794 81.4922C19.2125 80.9606 20.2646 79.1989 20.3291 77.3494C20.4717 77.4523 20.6196 77.5444 20.7744 77.6268C21.1444 77.8272 21.6193 77.6511 21.7336 77.2358C21.8386 76.8489 21.5332 76.3714 21.104 76.4037C20.8592 76.424 20.613 76.4254 20.3695 76.3848C20.3359 76.3794 20.3036 76.3727 20.27 76.3659C20.2484 76.2238 20.2202 76.0817 20.1852 75.941C20.9157 76.0249 21.6798 75.9045 22.3861 75.7476C22.9942 75.6136 22.8529 74.6408 22.2408 74.6638L22.1425 74.6682C21.3394 74.7069 20.1537 74.8373 19.4655 74.3256C19.3444 74.1497 19.2099 73.9833 19.0646 73.8264C19.0457 73.7871 19.0296 73.7453 19.0148 73.7019C18.6448 72.6304 20.3978 72.0188 21.1874 71.9025ZM42.3451 86.9769C43.2627 86.7301 44.2284 87.0663 44.8594 87.7631C45.3897 88.3487 45.6644 89.068 45.9099 89.8032L46.0499 90.2261C46.254 90.825 46.4883 91.3001 47.2174 91.0718C48.1518 90.7792 48.9618 90.2694 49.9779 90.3096C50.9016 90.3462 51.8055 90.7458 52.4485 91.4155C53.1063 92.1004 53.4204 93.0549 53.2807 93.9952L53.2716 94.0528C53.1988 94.486 52.5688 96.0321 51.901 95.3204C51.603 95.0029 51.6618 94.6516 51.5911 94.2483C51.5238 93.864 51.3798 93.4872 51.144 93.1757C50.7259 92.6234 50.0534 92.4081 49.3959 92.6035C48.5287 92.8612 47.7629 93.3925 46.8287 93.405C45.8459 93.4182 45.0116 92.9057 44.4696 92.1012C44.0319 91.4516 43.8759 90.6914 43.568 89.9851L43.5383 89.9178C43.2798 89.3366 43.1035 89.1269 42.5113 89.4047L42.3044 89.5045C41.4178 89.9282 40.4204 90.316 39.5037 89.7186C38.652 89.1638 38.2889 88.0487 39.0052 87.2368C39.4005 86.7885 40.3154 86.8648 40.5722 87.4398C40.6173 87.5387 40.6591 87.639 40.7003 87.7395C40.7787 87.7154 40.855 87.6862 40.9274 87.6454C41.4079 87.4275 41.8252 87.1168 42.3451 86.9769ZM69.1328 80.4123C70.1795 79.8451 71.0534 80.9609 70.8862 81.9683L70.8781 82.0125C70.8719 82.0429 70.8578 82.1093 70.8402 82.1853C70.8936 82.1788 70.9464 82.1693 70.9992 82.1558L71.2424 82.1259C71.6246 82.0812 71.9952 82.0579 72.3778 82.1813C73.2809 82.4728 73.725 83.3556 73.7468 84.2603C73.7685 85.1619 73.3046 85.8891 73.1683 86.7504C73.0289 87.6312 73.9355 87.3797 74.5273 87.3152L74.5505 87.3128C75.3738 87.229 76.2394 87.2276 76.9236 87.7672C77.6303 88.3245 77.9434 89.2876 77.8435 90.1693C77.7534 90.9656 77.2579 92.1912 76.3603 92.3171C76.2717 92.3295 76.1708 92.3099 76.1253 92.2209C75.7624 91.5111 76.2674 90.7274 76.2103 89.9785C76.1475 89.155 75.6254 89.0179 74.9055 89.0712C74.2069 89.1229 73.51 89.272 72.82 89.0624C72.0715 88.8349 71.5283 88.189 71.3746 87.427C71.2053 86.5872 71.5166 85.8059 71.7185 85.0078C71.7856 84.7427 71.8186 84.4761 71.7723 84.2051C71.7624 84.1465 71.7118 84.0924 71.6935 84.0692C71.5786 84.0476 71.4067 84.1029 71.3083 84.1135L71.1688 84.1273C70.4107 84.1962 69.6804 84.15 69.1388 83.5201C68.8611 83.1973 68.7587 82.8028 68.7863 82.3865L68.8003 82.2183C68.8151 82.0567 68.8434 81.8432 68.927 81.7542L68.9281 81.7499C68.9 81.712 68.8734 81.6731 68.849 81.6327L68.8254 81.5918C68.5932 81.2026 68.7279 80.6318 69.1328 80.4123ZM15.5076 70.5374C16.5502 70.5374 17.5351 70.8796 18.3235 71.8118C18.0423 72.0811 17.8176 72.3936 17.6937 72.7602C17.3078 72.5478 16.8988 72.3816 16.4804 72.2637C15.2037 71.9052 13.4575 71.9106 12.384 72.7914C11.8216 73.2514 12.4391 74.0767 13.0445 73.9346C13.5867 73.8074 14.0575 73.572 14.6266 73.545C15.1203 73.5206 15.6046 73.5855 16.0782 73.729C16.8006 73.9483 17.4571 74.3635 17.9401 74.9358C18.1015 75.1279 18.2428 75.3363 18.3611 75.561C19.2625 77.2818 18.5831 79.7496 17.3387 81.1661C17.8271 79.5345 17.3401 77.6106 16.3674 76.2591C15.1964 74.6318 13.445 74.4473 11.5998 74.7013L11.539 74.7098C9.75389 74.963 7.54356 75.4053 6.20901 76.7244C6.3422 76.42 6.49557 76.125 6.6679 75.8396C7.67944 74.1646 9.35703 72.8577 11.0978 71.9255C11.3898 71.7672 11.6844 71.6211 11.9777 71.4858C13.0929 70.9703 14.336 70.5374 15.5076 70.5374ZM14.9373 57.7547L14.9413 57.7737C14.9422 57.7772 14.9431 57.7809 14.944 57.7845C15.0056 58.3346 14.8601 58.9661 14.7859 59.5213L14.7758 59.6001C14.6198 60.8638 14.4139 62.1288 14.3467 63.4019C14.2812 64.6262 14.3064 65.8961 14.4527 67.1151L14.4745 67.2889C14.5606 67.9532 14.6117 68.7325 14.8349 69.4144C13.9767 69.4969 13.1184 69.7743 12.3381 70.0694C12.0583 70.1761 11.7798 70.2884 11.5027 70.4076C11.8498 68.5526 12.0354 66.6706 12.4121 64.8211L12.4862 64.4531C12.8957 62.4072 13.2801 60.3481 14.3386 58.5178C14.4799 58.2742 14.6319 58.0699 14.8041 57.8521C14.8417 57.8022 14.8861 57.7697 14.9373 57.7547Z" fill="black"></path> <path fill-rule="evenodd" clip-rule="evenodd" d="M36.9636 36.4054C37.4619 32.3979 39.0273 28.1429 40.6735 24.4068C44.3752 16.5074 52.8498 15.4199 60.4469 13.7912C67.9437 12.6912 75.8824 11.6981 83.2662 13.8927C87.4172 14.9175 89.0385 19.8999 88.3834 23.8317C88.0095 26.2817 86.9029 28.6006 85.9593 30.8712C84.0838 35.5343 82.8938 40.5265 82.8918 45.5752C83.0205 48.8745 83.4826 52.6403 79.7205 54.0377C76.1405 55.8319 75.8381 60.6954 71.3555 63.4549C69.5429 67.1551 64.6054 67.4807 61.0518 68.339C58.8057 68.7723 56.5343 69.0911 54.2567 69.2971C47.6617 70.1487 42.3858 68.2228 38.9335 62.3021C36.6233 58.6988 34.9029 54.5382 35.328 50.1711C35.7512 45.5725 36.4564 40.9979 36.9636 36.4054Z" fill="#EDB98A"></path> <path fill-rule="evenodd" clip-rule="evenodd" d="M60.3899 4.19102C60.0134 3.76105 59.4335 3.90852 59.0815 4.24852C58.8523 4.31657 58.6303 4.41777 58.4206 4.55171C57.9467 4.49043 57.4499 4.49043 56.9851 4.50761C56.8723 4.44388 56.7515 4.3872 56.62 4.33849C55.6802 3.99227 54.8481 4.16815 54.1617 4.63167C53.831 4.31644 53.4139 4.11864 52.8807 4.14854C52.4048 4.17532 52.0657 4.401 51.775 4.69824C51.4852 4.27707 51.0167 3.97658 50.433 3.93477C49.6171 3.87632 48.8329 4.20604 48.1829 4.7165C47.8042 4.27869 47.2878 4.02704 46.7125 4.02461C46.3339 3.95534 45.9344 3.98266 45.5734 4.09252C45.0493 4.25204 44.5891 4.5509 44.2226 4.93879C43.6428 4.37921 42.933 3.97658 42.1147 4.03529C41.0555 4.11241 40.1775 4.89726 39.7694 5.86326C39.0525 6.15266 38.3907 6.56544 37.8376 7.15397C37.808 7.18496 37.7799 7.21743 37.7503 7.25003C37.4523 7.36084 37.1717 7.51792 36.9247 7.72478C36.1421 8.3811 35.9675 9.33086 36.2266 10.2616C36.1904 10.4105 36.1595 10.562 36.1313 10.7134C35.3983 10.8257 34.7325 11.252 34.3539 11.9461C33.8357 12.8986 33.9377 14.154 34.4989 15.0633C34.7401 15.4544 35.0463 15.784 35.3903 16.0722C35.0014 16.9624 35.188 18.0248 35.815 18.7448C35.9678 18.9931 36.1553 19.2171 36.3664 19.4199C36.1335 20.3403 36.5477 21.29 37.3747 21.7818L37.4454 21.9602C37.4573 21.9898 37.4694 22.0193 37.4818 22.0486C37.491 22.0865 37.5022 22.1231 37.5134 22.1601C37.5331 22.4867 37.6398 22.8072 37.8517 23.1091C38.2854 23.728 38.8229 24.1316 39.108 24.854L39.1366 24.9299C39.2591 25.2718 39.6549 25.5131 39.9921 25.4075C38.1198 29.2825 37.1382 33.5942 36.4642 37.8197C36.1282 39.9278 35.8689 42.0431 35.6586 44.1666L35.4523 46.2812C35.2709 48.1607 35.1094 50.0465 35.1084 51.9323C35.1057 56.1983 36.3166 60.3017 38.9156 63.6963C41.3736 66.9054 44.8519 69.2311 48.7813 70.1471C52.8382 71.0914 57.5973 70.7194 61.2353 68.5574C62.308 67.9216 61.3683 66.3926 60.2768 66.9042C58.2108 67.8729 56.1112 68.5927 53.8209 68.7537C51.5884 68.9118 49.3505 68.6304 47.2335 67.8944C43.731 66.6755 40.7507 64.1225 38.835 60.9431C37.8913 59.3762 37.208 57.6757 36.8442 55.8789C36.3913 53.6394 36.4595 51.3246 36.6259 49.0564L36.6374 48.9019C36.9663 44.5317 37.3999 40.1346 38.1007 35.808C38.7201 31.982 39.6726 28.2336 40.9091 24.568C41.3935 24.1383 41.9353 23.7828 42.5151 23.5127C46.7609 23.334 51.0144 23.3862 55.2547 23.6814C58.871 23.9349 62.4698 24.3636 66.0414 24.9885L66.424 25.0562C67.2147 25.1981 68.0926 25.2793 68.8377 25.6001C69.4767 25.8761 69.7358 26.4064 69.8969 27.0584C70.3023 28.7076 70.3641 30.5126 70.4326 32.2038C70.4997 33.857 70.348 35.5239 70.4795 37.1717C70.591 38.5503 70.9413 39.9615 71.9549 40.9587C72.4852 41.4808 73.1376 41.7663 73.7498 42.1627C74.1458 42.4185 74.3136 42.6822 74.2626 43.1558C74.1525 44.1921 73.3242 45.4977 74.2545 46.3852C74.4183 46.5408 74.7016 46.5611 74.8627 46.3852C75.2466 45.9646 75.7769 45.6438 76.232 45.3042C76.4226 45.1637 76.2642 44.8904 76.0481 44.9877C75.7635 45.1163 75.4735 45.2678 75.1768 45.4004C75.8319 44.8566 76.7636 44.5899 77.5395 44.4316C77.9302 44.3531 78.341 44.3301 78.7478 44.3668C79.0485 44.5114 79.3559 44.6455 79.6633 44.7766C80.054 44.9418 80.4487 45.0918 80.846 45.234C82.2247 46.3663 82.8825 48.2078 82.5953 50.0086C82.4382 51.0029 81.9831 52.084 81.1253 52.6644C80.109 53.3517 78.7478 53.0566 77.6496 53.5668C76.6213 54.0443 75.9957 55.0091 75.5272 56.0075L75.3319 56.4233C74.897 57.3436 74.45 58.2396 73.8558 59.0772C73.1685 60.0473 72.3268 60.9186 71.4085 61.6669C70.9631 62.0291 70.4883 62.3548 69.9976 62.6515L69.8634 62.7317C69.3666 63.0253 69.0109 63.3052 68.9773 63.9262C68.9666 64.1427 69.1022 64.3402 69.2767 64.4525C70.0285 64.9328 70.7762 64.3321 71.4018 63.9127C72.0771 63.4608 72.7228 62.9522 73.3202 62.3975C74.4559 61.3449 75.4386 60.0948 76.1944 58.7377C76.7703 57.7041 77.0979 56.2497 78.0081 55.4488C78.5638 54.9602 79.3492 54.9563 80.0432 54.8669C80.689 54.7831 81.2998 54.6478 81.8744 54.3272C84.2116 53.0189 84.8721 49.8516 84.3176 47.4042C84.2237 46.9914 84.0921 46.5895 83.9297 46.2026C84.7996 46.3487 85.7769 45.4424 85.4238 44.5276C85.397 44.4586 85.3661 44.3938 85.3366 44.3274C85.9098 43.9472 86.3622 43.371 86.577 42.6173C86.6871 42.2276 86.7032 41.8339 86.6455 41.4538C86.9234 41.2658 87.1529 41.0073 87.3006 40.6893C87.7624 40.4742 88.1718 40.1524 88.4162 39.6924C88.7545 39.0577 88.7115 38.4732 88.4538 37.9469C88.49 37.8808 88.5249 37.8131 88.5585 37.744C89.5049 37.1393 90.1654 36.0974 90.0902 34.942C90.0661 34.5591 89.9721 34.2141 89.8271 33.9031C89.8392 33.8639 89.8513 33.8231 89.862 33.7839C90.6541 33.378 91.3092 32.7111 91.5428 31.8209C91.7764 30.9251 91.5012 30.0322 90.9507 29.3449C91.7562 28.7511 92.2408 27.9217 91.9468 26.6674C91.8274 26.1575 91.5871 25.6933 91.2622 25.3023C91.2635 25.2902 91.2662 25.2781 91.2689 25.2657L91.3443 25.2068C92.3386 24.416 92.9102 23.4083 92.2999 22.1688C92.0261 21.6116 91.6354 21.2231 91.1763 20.9674L91.1535 20.8944C91.4824 20.1841 91.5938 19.3953 91.3669 18.5659C91.1816 17.8828 90.7427 17.3388 90.1815 16.9777C90.2191 16.6718 90.2137 16.3459 90.1533 15.9926C90.0526 15.3961 89.7586 14.8752 89.329 14.5059C89.3129 14.4273 89.2928 14.3503 89.27 14.273C89.125 13.801 88.8538 13.2882 88.5397 12.9079C88.2806 12.5927 87.9906 12.4777 87.6362 12.4655C87.6577 12.1748 87.6429 11.8797 87.5838 11.5807C87.4026 10.6581 86.82 9.79073 85.9568 9.39702C85.6024 9.23602 85.2292 9.18881 84.8694 9.22791C84.5633 8.57849 83.9659 8.1078 83.2316 8.00633C82.9456 7.96574 82.6798 7.96831 82.4355 8.00498C82.2972 7.9399 82.1536 7.88186 82.0032 7.82896C81.9039 7.79378 81.8032 7.76131 81.7025 7.72898C81.3629 7.30415 80.9158 6.96442 80.3936 6.76027C79.7909 6.5235 79.1774 6.54772 78.6337 6.7466L78.4605 6.71007C78.1893 6.23654 77.757 5.86989 77.0925 5.70348C76.338 5.51542 75.5634 5.77789 74.9701 6.25562C74.9674 6.25562 74.9647 6.25562 74.9607 6.25413C74.6506 5.55465 74.1203 5.06759 73.2302 5.10142C72.6758 5.12306 72.1751 5.40055 71.7884 5.79561C71.5736 5.76842 71.3589 5.74407 71.1427 5.71985C70.9145 5.45048 70.6608 5.19896 70.3802 4.97302C69.9211 4.60218 69.3237 4.63208 68.9854 5.15418C68.9115 5.26783 68.8431 5.38283 68.7746 5.49783L68.4645 5.47618C68.0994 4.97965 67.6013 4.64412 66.9193 4.6172C66.2937 4.59136 65.848 4.89996 65.5084 5.33142C65.2319 5.32465 64.954 5.31938 64.6761 5.31518C64.3525 4.93771 63.9713 4.60488 63.5363 4.32888C63.2034 4.11782 62.7121 4.18967 62.4422 4.47108C62.2599 4.66239 62.0902 4.86208 61.9325 5.06881C61.5259 4.60935 60.9767 4.3067 60.3899 4.19102ZM80.148 47.1539C79.521 46.794 78.678 47.1836 78.0712 47.4894C77.3315 47.8615 76.5971 48.4229 76.1447 49.1265C75.5285 50.0844 76.9771 50.8583 77.6255 49.9991C78.0242 49.4701 78.3423 48.9371 78.8256 48.4743C79.2673 48.0495 79.9077 47.7654 80.1614 47.2053C80.1708 47.1863 80.1681 47.1647 80.148 47.1539Z" fill="black"></path> <path fill-rule="evenodd" clip-rule="evenodd" d="M47.8964 57.415C47.6901 57.0542 47.2149 56.7198 46.7801 56.7711C44.8322 57.0008 44.8356 59.3758 45.5878 60.7623C46.2546 61.9917 47.6348 62.7134 49.0161 62.608C50.4673 62.4972 51.7038 61.6392 52.2479 60.2739C52.6078 59.3708 52.7741 57.7036 51.8168 57.0968C51.799 57.0854 51.7697 57.0882 51.7556 57.1046C51.2965 57.6416 51.2785 58.4478 50.8767 59.0457C50.5029 59.6018 49.9223 60.0609 49.2421 60.1318C48.7341 60.1849 48.2202 60.0006 48.0215 59.542C47.914 59.2939 47.9263 59.1592 47.9667 58.9884L48.0034 58.8401C48.1306 58.3203 48.1878 57.9246 47.8964 57.415ZM47.3757 46.9993C46.3598 47.6203 44.8119 49.0684 45.9048 50.608C47.1912 51.9655 49.0433 50.409 49.956 49.7051C50.8023 49.1595 51.7532 50.5626 50.968 51.1996C44.3728 56.1102 41.6964 47.1617 46.8619 46.2692C47.4306 46.1708 47.6419 46.8072 47.3757 46.9993ZM58.1036 42.741C57.4801 41.8002 56.0568 41.9387 55.7133 43.0552C55.5272 43.6599 55.7842 44.2035 55.7709 44.8075C55.7597 45.3177 55.7929 45.8862 55.9485 46.3803C56.3031 47.507 57.3107 48.3028 58.5028 48.2698C59.6909 48.237 60.7375 47.4807 61.2351 46.4155C61.7345 45.3462 61.6287 44.2397 61.2641 43.1524C61.2467 43.1002 61.1786 43.0749 61.1375 43.1189C60.7066 43.5795 60.3911 44.0657 60.0647 44.5814L59.7302 45.11C59.4745 45.5081 59.103 46.0166 58.6256 45.9846L58.554 45.9775C58.4213 45.9661 58.4417 45.9925 58.3393 45.8107C58.292 45.7266 58.3006 45.5702 58.2777 45.4708L58.2698 45.4373L58.2741 45.4192C58.2842 45.3711 58.2942 45.2805 58.3024 45.1232L58.3041 45.0885C58.3387 44.3529 58.5454 43.4076 58.1036 42.741ZM42.2975 43.3674C42.4093 42.1641 40.7271 41.8968 40.1679 42.7872C39.8762 43.2515 39.7913 43.8348 39.7268 44.3874L39.6966 44.6497C39.6304 45.2173 39.6042 45.8077 39.8492 46.3371C40.235 47.1709 41.0741 47.6117 41.9792 47.5419C42.8435 47.475 43.6322 46.9711 44.0478 46.206C44.4185 45.5233 44.787 44.1904 44.3368 43.4783C44.3096 43.4351 44.2553 43.4296 44.218 43.4629C43.7926 43.8427 43.7234 44.5354 43.4704 45.0301C43.2096 45.5405 42.8139 46.0378 42.2143 46.1153C41.6407 46.1895 41.4216 45.8744 41.5679 45.3244C41.7567 44.6144 42.2264 44.1314 42.2975 43.3674ZM57.6491 35.587L57.374 35.4811C56.4315 35.123 55.1375 34.7091 54.3712 35.4799C53.8984 35.9552 53.8084 36.6553 54.1458 37.2353C54.5547 37.9379 55.288 37.9552 55.9961 38.0587C56.8016 38.1765 57.6207 38.4002 58.3706 38.7193C59.2153 39.0787 59.9992 39.5268 60.7672 40.0273C61.4972 40.5028 62.2246 41.2801 63.0984 41.4266C63.134 41.4326 63.1745 41.4172 63.1838 41.3778C63.3822 40.5187 62.8308 39.6732 62.3387 39.003C61.7433 38.1915 61.0218 37.5254 60.2154 36.9282C59.4371 36.3517 58.5479 35.9352 57.6491 35.587ZM40.5277 38.6416L40.4437 38.6268C39.8722 38.5311 39.3542 38.5531 38.9235 39.0084C38.5947 39.3557 38.4679 39.8058 38.6247 40.265C38.7693 40.6886 39.0927 41.119 39.5621 41.2077C41.1467 41.5075 42.9019 41.458 44.4945 41.231C45.2231 41.1271 45.9583 40.9999 46.668 40.7994L46.9946 40.7042C47.587 40.534 48.2654 40.3562 48.6957 39.918C48.8504 39.7605 48.7612 39.5351 48.5761 39.4622C47.8252 39.1664 46.7959 39.3238 45.9952 39.3006C45.0637 39.2738 44.1307 39.2036 43.2037 39.1069C42.2978 39.0122 41.4212 38.8064 40.5277 38.6416Z" fill="black"></path> <path fill-rule="evenodd" clip-rule="evenodd" d="M59.3611 60.9113C58.2719 58.3452 55.8947 56.4592 53.1577 55.7696C51.1478 55.2646 49.0385 55.2807 46.9896 55.4812C45.9161 55.5854 44.7647 55.6709 43.7531 56.0718C42.8892 56.4143 42.1852 57.0617 41.6558 57.8217C41.0257 58.7222 40.5972 59.7529 40.2962 60.8093C40.2535 60.9595 40.2133 61.1108 40.1758 61.2629C40.3067 62.06 40.5845 62.7384 41.3186 63.2395C42.035 63.7289 42.8897 63.929 43.7418 64.0002C43.8254 63.9598 43.9061 63.9183 43.9801 63.8758C45.3079 63.1114 46.2425 61.3049 47.9184 61.5494C49.414 61.7677 50.3985 63.6602 51.2879 64.77C54.1429 65.1045 56.9957 64.2418 59.3186 62.6C59.4366 62.038 59.4435 61.4714 59.3611 60.9113ZM38.2355 58.9647C38.4639 58.3201 38.7516 57.6959 39.0925 57.1078C40.2198 55.163 41.9502 53.6135 44.0044 52.7277C48.8639 50.6351 55.1516 52.1102 59.076 55.5421C60.4165 56.7153 61.772 58.4393 62.1819 60.2937C62.3043 60.3181 62.4199 60.3822 62.515 60.4724C65.3503 58.6771 68.2702 56.9499 70.555 54.4613C72.2142 52.6532 73.3683 50.5134 74.075 48.162C74.1328 47.9685 74.4431 47.9968 74.4337 48.2109C74.431 48.261 74.4283 48.311 74.4256 48.3611C74.4552 48.269 74.5949 48.3164 74.6057 48.4058C74.9859 51.2622 75.4615 54.2907 75.0235 57.162C74.7615 58.8753 73.9877 60.1296 72.9532 61.484C71.8448 62.9357 70.5899 64.2861 69.3069 65.581C68.4927 66.403 67.6422 67.3511 66.6454 67.9538C65.4859 68.654 64.1706 69.1864 62.9332 69.7267C61.6743 70.2779 60.3967 70.7872 59.0948 71.2287C56.4924 72.1145 53.8027 72.7267 51.066 72.9948C48.8747 73.2088 46.3704 73.4419 44.2705 72.6129C42.6609 71.9777 41.3617 70.8293 40.3313 69.4477C39.2094 67.9429 38.3226 66.229 37.8323 64.4215C37.3229 62.5441 38.1282 59.2674 38.2355 58.9647Z" fill="black"></path> </g> <defs> <clipPath id="clip0"> <rect width="118" height="156" fill="white" transform="matrix(-1 0 0 1 118 0)"></rect> </clipPath> </defs> </svg> 