<?xml version="1.0" encoding="UTF-8"?> <svg xmlns="http://www.w3.org/2000/svg" width="311" height="297" viewBox="0 0 311 297" fill="none"> <path d="M157.39 165.424L157.349 164.926L157.349 164.926L157.39 165.424ZM280.5 18.0686C280.756 18.1737 280.877 18.4659 280.772 18.7212L279.06 22.8827C278.955 23.1381 278.663 23.2599 278.407 23.1549C278.152 23.0498 278.03 22.7576 278.135 22.5022L279.657 18.8031L275.958 17.281C275.703 17.176 275.581 16.8838 275.686 16.6284C275.791 16.373 276.083 16.2512 276.339 16.3563L280.5 18.0686ZM2.12892 249.825C3.16418 248.913 4.18096 248.007 5.18033 247.107L5.84945 247.851C4.84748 248.753 3.82802 249.661 2.79 250.576L2.12892 249.825ZM8.17606 244.382C10.2193 242.504 12.1894 240.653 14.0967 238.831L14.7874 239.554C12.876 241.38 10.9011 243.235 8.85283 245.118L8.17606 244.382ZM17.0148 236.019C19.003 234.088 20.9243 232.189 22.7916 230.324L23.4982 231.032C21.6284 232.899 19.7037 234.801 17.7117 236.737L17.0148 236.019ZM25.6587 227.446C27.6046 225.484 29.4956 223.561 31.3484 221.678L32.0612 222.379C30.2088 224.262 28.3163 226.186 26.3687 228.15L25.6587 227.446ZM34.2034 218.778C36.1438 216.811 38.0496 214.89 39.9397 213.015L40.6439 213.725C38.7576 215.596 36.8546 217.515 34.9154 219.481L34.2034 218.778ZM42.8381 210.167C44.8065 208.254 46.7688 206.392 48.7469 204.583L49.4217 205.321C47.4527 207.122 45.4979 208.976 43.5351 210.884L42.8381 210.167ZM51.7789 201.865C53.8267 200.068 55.9029 198.327 58.0312 196.643L58.6516 197.428C56.5383 199.099 54.4751 200.83 52.4385 202.617L51.7789 201.865ZM61.2625 194.163C63.4234 192.556 65.6465 191.005 67.9546 189.513L68.4976 190.352C66.2089 191.832 64.0037 193.37 61.8593 194.965L61.2625 194.163ZM71.4179 187.357C73.7037 185.988 76.0767 184.673 78.5567 183.413L79.0098 184.304C76.5506 185.554 74.1978 186.858 71.9316 188.215L71.4179 187.357ZM82.2134 181.631C84.6074 180.513 87.1009 179.443 89.7095 178.421L90.0744 179.352C87.485 180.367 85.0109 181.429 82.6363 182.537L82.2134 181.631ZM93.5373 176.985C96.0049 176.1 98.5732 175.255 101.254 174.45L101.541 175.408C98.877 176.208 96.3254 177.048 93.8749 177.926L93.5373 176.985ZM105.199 173.317C107.722 172.624 110.341 171.965 113.064 171.339L113.288 172.314C110.578 172.937 107.972 173.593 105.464 174.281L105.199 173.317ZM117.056 170.462C119.632 169.92 122.299 169.407 125.062 168.922L125.235 169.907C122.482 170.39 119.826 170.901 117.262 171.44L117.056 170.462ZM129.03 168.256C131.628 167.839 134.309 167.445 137.078 167.076L137.211 168.067C134.45 168.435 131.777 168.828 129.188 169.243L129.03 168.256ZM141.14 166.558C143.759 166.239 146.455 165.941 149.23 165.663L149.33 166.658C146.561 166.935 143.873 167.233 141.261 167.55L141.14 166.558ZM153.235 165.281C154.588 165.158 155.959 165.039 157.349 164.926L157.431 165.922C156.044 166.036 154.675 166.154 153.325 166.276L153.235 165.281ZM157.349 164.926C158.742 164.812 160.104 164.677 161.437 164.523L161.552 165.516C160.207 165.672 158.834 165.808 157.431 165.922L157.349 164.926ZM165.347 164.001C168.101 163.582 170.721 163.073 173.216 162.479L173.448 163.452C170.925 164.053 168.277 164.567 165.497 164.989L165.347 164.001ZM177.131 161.448C179.797 160.675 182.308 159.798 184.677 158.824L185.058 159.749C182.654 160.737 180.108 161.626 177.409 162.408L177.131 161.448ZM188.3 157.207C190.784 156.007 193.099 154.69 195.26 153.267L195.81 154.103C193.611 155.55 191.259 156.888 188.736 158.107L188.3 157.207ZM198.497 150.972C200.658 149.326 202.651 147.562 204.498 145.694L205.209 146.397C203.331 148.297 201.302 150.092 199.104 151.768L198.497 150.972ZM207.202 142.766C208.949 140.743 210.552 138.617 212.033 136.402L212.865 136.957C211.363 139.204 209.735 141.363 207.959 143.419L207.202 142.766ZM214.164 133.015C215.515 130.734 216.757 128.371 217.91 125.941L218.813 126.369C217.649 128.824 216.393 131.214 215.024 133.524L214.164 133.015ZM219.559 122.283C220.604 119.846 221.574 117.352 222.489 114.812L223.429 115.151C222.51 117.706 221.533 120.22 220.478 122.677L219.559 122.283ZM223.806 111.013C224.651 108.49 225.451 105.93 226.226 103.345L227.184 103.632C226.407 106.225 225.603 108.795 224.755 111.331L223.806 111.013ZM227.362 99.481C228.104 96.9124 228.83 94.3262 229.557 91.7323L230.52 92.0024C229.793 94.5958 229.066 97.1856 228.322 99.7587L227.362 99.481ZM230.648 87.8508C231.378 85.2648 232.117 82.6773 232.885 80.1006L233.843 80.3859C233.078 82.9559 232.34 85.5383 231.61 88.1224L230.648 87.8508ZM234.059 76.2415C234.862 73.6644 235.701 71.1034 236.595 68.5705L237.538 68.9032C236.649 71.4221 235.814 73.9711 235.014 76.539L234.059 76.2415ZM237.984 64.7787C238.947 62.2495 239.975 59.7546 241.086 57.3063L241.996 57.7194C240.895 60.1464 239.876 62.6219 238.919 65.1345L237.984 64.7787ZM242.825 53.6532C244.033 51.2346 245.336 48.8694 246.751 46.5704L247.603 47.0946C246.204 49.3662 244.916 51.7054 243.719 54.1002L242.825 53.6532ZM248.962 43.1716C250.485 40.9567 252.129 38.8133 253.911 36.7539L254.667 37.4083C252.91 39.438 251.29 41.5518 249.786 43.7382L248.962 43.1716ZM256.657 33.7642C258.516 31.8581 260.513 30.0364 262.664 28.3104L263.29 29.0904C261.171 30.7904 259.204 32.5846 257.373 34.4624L256.657 33.7642ZM265.893 25.8759C268.046 24.3522 270.339 22.917 272.788 21.5791L273.267 22.4567C270.852 23.7762 268.591 25.191 266.471 26.6921L265.893 25.8759ZM276.366 19.7475C277.581 19.1656 278.831 18.606 280.117 18.0695L280.502 18.9925C279.231 19.5224 277.997 20.0751 276.797 20.6494L276.366 19.7475ZM157.39 165.424L157.309 164.427L157.309 164.427L157.39 165.424ZM280.69 17.6062C281.201 17.8164 281.445 18.4008 281.235 18.9115L277.81 27.2345C277.6 27.7452 277.015 27.9889 276.505 27.7787C275.994 27.5686 275.75 26.9842 275.96 26.4734L279.005 19.0752L271.606 16.0311C271.096 15.8209 270.852 15.2365 271.062 14.7258C271.272 14.2151 271.857 13.9714 272.367 14.1815L280.69 17.6062ZM1.79838 249.45C2.83226 248.539 3.8477 247.635 4.84578 246.736L6.18401 248.222C5.18074 249.126 4.15994 250.035 3.12054 250.951L1.79838 249.45ZM7.83767 244.014C9.87831 242.138 11.8461 240.29 13.7513 238.47L15.1328 239.916C13.2192 241.744 11.2421 243.601 9.19121 245.486L7.83767 244.014ZM16.6664 235.661C18.6526 233.731 20.5722 231.834 22.4383 229.97L23.8516 231.385C21.9804 233.254 20.0541 235.158 18.0601 237.095L16.6664 235.661ZM25.3037 227.094C27.2487 225.133 29.1391 223.211 30.9919 221.327L32.4177 222.73C30.5654 224.613 28.6721 226.538 26.7237 228.502L25.3037 227.094ZM33.8475 218.427C35.7883 216.46 37.6956 214.537 39.5876 212.66L40.996 214.08C39.1116 215.949 37.2101 217.866 35.2713 219.832L33.8475 218.427ZM42.4895 209.809C44.4608 207.893 46.4269 206.027 48.4094 204.214L49.7592 205.69C47.7946 207.487 45.8436 209.338 43.8836 211.243L42.4895 209.809ZM51.4491 201.489C53.5025 199.687 55.5853 197.941 57.7209 196.251L58.9618 197.82C56.8559 199.486 54.7993 201.21 52.7683 202.993L51.4491 201.489ZM60.9641 193.762C63.1332 192.148 65.3653 190.592 67.6831 189.093L68.7691 190.772C66.4901 192.246 64.2939 193.778 62.1577 195.367L60.9641 193.762ZM71.161 186.928C73.4566 185.553 75.8397 184.233 78.3301 182.967L79.2363 184.75C76.7876 185.994 74.4449 187.293 72.1884 188.644L71.161 186.928ZM82.0019 181.178C84.4056 180.056 86.9088 178.981 89.527 177.955L90.2568 179.817C87.6771 180.828 85.2127 181.886 82.8478 182.99L82.0019 181.178ZM93.3685 176.515C95.8447 175.627 98.4213 174.779 101.11 173.971L101.685 175.887C99.0289 176.684 96.4857 177.521 94.0436 178.397L93.3685 176.515ZM105.067 172.835C107.597 172.14 110.222 171.479 112.952 170.852L113.4 172.801C110.696 173.422 108.098 174.077 105.597 174.763L105.067 172.835ZM116.953 169.972C119.535 169.43 122.207 168.915 124.976 168.43L125.321 170.399C122.574 170.882 119.923 171.392 117.365 171.929L116.953 169.972ZM128.95 167.762C131.553 167.344 134.239 166.95 137.012 166.58L137.277 168.562C134.52 168.93 131.852 169.322 129.267 169.737L128.95 167.762ZM141.08 166.061C143.703 165.743 146.402 165.444 149.18 165.165L149.38 167.155C146.615 167.432 143.93 167.73 141.321 168.047L141.08 166.061ZM153.19 164.783C154.544 164.66 155.917 164.541 157.309 164.427L157.472 166.421C156.086 166.534 154.719 166.652 153.37 166.774L153.19 164.783ZM157.309 164.427C158.695 164.314 160.052 164.18 161.379 164.026L161.609 166.013C160.259 166.169 158.88 166.305 157.472 166.421L157.309 164.427ZM165.272 163.506C168.013 163.09 170.62 162.583 173.1 161.992L173.564 163.938C171.026 164.542 168.365 165.059 165.573 165.484L165.272 163.506ZM176.992 160.967C179.641 160.2 182.135 159.329 184.487 158.362L185.248 160.211C182.827 161.207 180.264 162.102 177.548 162.888L176.992 160.967ZM188.083 156.757C190.547 155.566 192.843 154.26 194.985 152.85L196.085 154.52C193.868 155.98 191.496 157.329 188.953 158.558L188.083 156.757ZM198.194 150.575C200.336 148.942 202.312 147.194 204.142 145.342L205.564 146.748C203.67 148.665 201.624 150.475 199.407 152.165L198.194 150.575ZM206.824 142.439C208.556 140.433 210.147 138.324 211.617 136.124L213.28 137.235C211.768 139.498 210.128 141.674 208.338 143.746L206.824 142.439ZM213.734 132.76C215.076 130.493 216.311 128.145 217.458 125.726L219.265 126.584C218.095 129.051 216.832 131.454 215.454 133.779L213.734 132.76ZM219.1 122.086C220.14 119.66 221.107 117.175 222.018 114.643L223.9 115.321C222.977 117.884 221.997 120.406 220.938 122.874L219.1 122.086ZM223.332 110.854C224.175 108.338 224.973 105.783 225.747 103.202L227.662 103.776C226.885 106.372 226.08 108.948 225.229 111.489L223.332 110.854ZM226.881 99.3422C227.623 96.7757 228.348 94.1914 229.076 91.5973L231.002 92.1374C230.274 94.7306 229.547 97.3223 228.803 99.8975L226.881 99.3422ZM230.167 87.715C230.897 85.128 231.637 82.5379 232.405 79.958L234.322 80.5286C233.558 83.0953 232.82 85.675 232.092 88.2582L230.167 87.715ZM233.581 76.0928C234.386 73.5111 235.227 70.944 236.124 68.4041L238.01 69.0696C237.123 71.5815 236.29 74.1245 235.491 76.6878L233.581 76.0928ZM237.517 64.6008C238.483 62.0633 239.515 59.5587 240.63 57.0998L242.452 57.926C241.355 60.3423 240.34 62.8082 239.386 65.3124L237.517 64.6008ZM242.377 53.4297C243.592 50.9992 244.902 48.621 246.326 46.3082L248.029 47.3568C246.639 49.6146 245.357 51.9408 244.166 54.3238L242.377 53.4297ZM248.55 42.8884C250.083 40.6591 251.738 38.5009 253.533 36.4267L255.045 37.7355C253.301 39.7504 251.692 41.8494 250.198 44.0215L248.55 42.8884ZM256.299 33.4151C258.172 31.4948 260.184 29.6595 262.351 27.9204L263.603 29.4804C261.5 31.1674 259.548 32.9479 257.731 34.8115L256.299 33.4151ZM265.604 25.4678C267.773 23.9329 270.083 22.4874 272.548 21.1404L273.507 22.8954C271.109 24.2058 268.864 25.6104 266.76 27.1003L265.604 25.4678ZM276.15 19.2966C277.373 18.7109 278.631 18.1478 279.925 17.608L280.695 19.454C279.432 19.9807 278.205 20.5298 277.013 21.1004L276.15 19.2966Z" fill="#E0D5CC"></path> </svg> 