<?xml version="1.0" encoding="UTF-8"?> <svg xmlns="http://www.w3.org/2000/svg" width="90" height="92" viewBox="0 0 90 92" fill="none"> <g clip-path="url(#clip0)" filter="url(#filter0_d)"> <path d="M43.5157 10.8501V22.6437H46.4661V10.8501C48.3895 10.2266 49.7853 8.42154 49.7853 6.2942C49.7853 3.65226 47.634 1.50388 44.9906 1.50388C42.3465 1.50388 40.1959 3.65226 40.1959 6.2942C40.1966 8.42154 41.5923 10.2266 43.5157 10.8501Z" fill="#1A1A1A"></path> <path d="M46.4669 78.4241V66.6305H43.5165V78.4241C41.5924 79.0476 40.1966 80.8527 40.1966 82.98C40.1966 85.6219 42.3479 87.7703 44.9913 87.7703C47.6347 87.7703 49.786 85.6219 49.786 82.98C49.786 80.8527 48.3903 79.0476 46.4669 78.4241Z" fill="#1A1A1A"></path> <path d="M82.3914 63.6111L82.5191 54.8027C82.5307 53.9913 81.8528 53.3069 81.0436 53.3069H65.507C65.414 53.3069 65.324 53.3177 65.2362 53.3344C65.1876 52.4649 64.9503 51.6361 64.53 50.9015C66.5601 49.7497 67.9907 47.8023 68.416 45.5734C68.4646 45.5785 68.5111 45.5879 68.5611 45.5879C68.5626 45.5879 68.564 45.5879 68.5648 45.5879L74.4496 45.5719C75.076 47.4895 76.8811 48.8802 79.0069 48.8802C81.6503 48.8802 83.8016 46.7318 83.8016 44.0898C83.8016 41.4479 81.6503 39.2995 79.0069 39.2995C76.8745 39.2995 75.0651 40.6974 74.4438 42.6237L68.5575 42.6397C68.5002 42.6397 68.4457 42.6506 68.3906 42.6571C68.019 40.9021 67.0311 39.338 65.5694 38.2094C65.9896 37.3718 66.219 36.4239 66.2124 35.4941C66.2124 35.46 66.2059 35.4273 66.2052 35.3925H81.0436C81.8521 35.3925 82.5307 34.7088 82.5191 33.8966L82.3841 24.5722C84.277 23.9313 85.6452 22.1429 85.6452 20.0373C85.6452 17.3954 83.4939 15.247 80.8505 15.247C78.2064 15.247 76.0551 17.3954 76.0551 20.0373C76.0551 22.1865 77.4784 24.0082 79.433 24.6136L79.5462 32.4443H65.507C65.4656 32.4443 65.4271 32.453 65.3872 32.4566C64.7891 31.4223 63.9029 30.5652 62.8128 30.0077C63.3898 28.464 63.1873 26.7728 62.3954 25.3938V5.90154H69.6353C70.2595 7.82347 72.0668 9.21775 74.1949 9.21775C76.839 9.21775 78.9903 7.06936 78.9903 4.42742C78.9903 1.78549 76.839 -0.3629 74.1949 -0.3629C72.0661 -0.3629 70.2588 1.03137 69.6353 2.95331H60.9206C60.1062 2.95331 59.445 3.61307 59.445 4.42742V22.9282C59.0378 22.7816 58.6002 22.6619 58.1676 22.6212C57.7887 22.5856 57.399 22.6698 57.0259 22.5842C56.282 22.4136 55.972 21.4454 55.4197 20.9874C52.1303 18.2598 46.3587 20.2907 46.3551 24.8313L46.3246 64.4487C46.3246 64.4502 46.3246 64.4509 46.3246 64.4523C46.3246 65.6565 46.7724 66.8228 47.5861 67.7359C48.6196 68.8965 50.1453 69.5613 51.7718 69.5598C54.2678 69.5577 56.3785 67.9711 57.0208 65.8176C57.894 65.8074 58.7163 65.5969 59.4457 65.2406V84.8468C59.4457 85.6611 60.1062 86.3209 60.9213 86.3209H69.6361C70.2603 88.2428 72.0675 89.6371 74.1956 89.6371C76.8397 89.6371 78.991 87.4887 78.991 84.8468C78.991 82.2048 76.8397 80.0565 74.1956 80.0565C72.0668 80.0565 70.2595 81.4507 69.6361 83.3727H62.3961C62.3961 83.3727 62.3403 58.7882 62.2474 58.5951C63.3237 58.0043 64.1932 57.1072 64.7136 56.0199C64.943 56.1673 65.2144 56.2551 65.507 56.2551H79.5469L79.441 63.5647C77.4828 64.1678 76.0558 65.9918 76.0558 68.1431C76.0558 70.785 78.2071 72.9334 80.8512 72.9334C83.4946 72.9334 85.6459 70.785 85.6459 68.1431C85.6452 66.0404 84.2807 64.2542 82.3914 63.6111ZM50.747 49.6452C50.7651 49.6815 50.7687 49.688 50.747 49.6452V49.6452ZM51.1788 47.1419C54.4776 45.0733 54.1118 41.9356 54.0958 41.8028C53.9804 40.9137 54.5233 40.0725 55.3152 39.9324C56.1063 39.7916 56.8503 40.3817 56.9853 41.2686C57.0208 41.4907 57.6624 46.6323 52.6065 50.0124C51.3508 50.8522 49.5995 48.1319 51.1788 47.1419Z" fill="#1A1A1A"></path> <path d="M43.6268 64.4436L43.6573 24.8262C43.6573 19.7739 36.7592 18.037 33.8226 21.7851C33.5555 22.1255 33.4981 22.4964 33.0438 22.6074C32.723 22.6858 31.6169 22.8005 30.5369 23.1198V4.23218C30.5369 3.42291 29.851 2.74791 29.0402 2.75807L20.3226 2.88654C19.6781 0.999439 17.8904 -0.3629 15.787 -0.3629C13.1429 -0.3629 10.9923 1.78549 10.9923 4.42742C10.9923 7.06936 13.1436 9.21775 15.787 9.21775C17.9405 9.21775 19.7666 7.79154 20.3698 5.83476L27.5865 5.72807V25.6079C26.8723 26.979 26.6378 28.5394 27.1923 30.0244C26.3018 30.4802 25.5513 31.14 24.975 31.9268H10.6251V24.594C12.5485 23.9705 13.9442 22.1654 13.9442 20.0381C13.9442 17.3961 11.7929 15.2477 9.14952 15.2477C6.50613 15.2477 4.35484 17.3961 4.35484 20.0381C4.35484 22.1654 5.75057 23.9705 7.67396 24.594V33.4009C7.67396 34.2145 8.33444 34.875 9.14952 34.875H23.8297C23.8072 35.0877 23.7832 35.2996 23.7832 35.5181C23.7832 35.5195 23.7832 35.5217 23.7832 35.5239C23.7832 36.474 24.0046 37.3957 24.4227 38.2304C22.9558 39.3634 21.489 42.6767 21.4352 42.6767L15.5548 42.623C14.9327 40.6982 13.124 39.3017 10.9931 39.3017C8.34896 39.3017 6.19839 41.4501 6.19839 44.092C6.19839 46.734 8.34968 48.8823 10.9931 48.8823C13.1197 48.8823 14.9255 47.491 15.5511 45.5712C15.5511 45.5712 21.5187 45.6148 21.5666 45.6104C21.9919 47.8336 23.4174 49.7736 25.4417 50.9219C25.028 51.6433 24.7914 52.4562 24.7355 53.309H8.95573C8.14718 53.309 7.46928 53.9935 7.48017 54.8049L7.60791 63.6133C5.71936 64.2549 4.35484 66.0404 4.35484 68.1431C4.35484 70.785 6.50613 72.9334 9.14952 72.9334C11.7929 72.9334 13.9442 70.785 13.9442 68.1431C13.9442 65.9911 12.5165 64.1671 10.559 63.5647L10.4531 56.2551H25.3561C25.5665 56.655 25.8227 57.0331 26.129 57.3779C26.6327 57.9433 27.2402 58.4013 27.9138 58.7337C27.6656 59.3311 27.5327 59.9777 27.5327 60.6433C27.5327 60.6448 27.5327 60.6455 27.5327 60.6469C27.5327 60.8952 27.556 61.1405 27.5923 61.3829C27.5915 61.4025 27.5865 61.4199 27.5865 61.4395V83.5461L20.3698 83.4394C19.7666 81.4827 17.9405 80.0565 15.787 80.0565C13.1429 80.0565 10.9923 82.2048 10.9923 84.8468C10.9923 87.4887 13.1436 89.6371 15.787 89.6371C17.8911 89.6371 19.6788 88.2748 20.3226 86.3877L29.0402 86.5161C29.851 86.5161 30.5369 85.86 30.5369 85.042V65.2732C31.2699 65.6209 32.0843 65.8169 32.9291 65.8256C33.1345 66.5238 33.4952 67.177 33.9924 67.7352C35.026 68.8957 36.5516 69.5606 38.1774 69.5591C41.1801 69.5569 43.6246 67.2619 43.6268 64.4436ZM33.975 46.08C33.7718 46.959 32.9727 47.4866 32.1895 47.2587C31.5298 47.0664 30.9549 46.0597 31.14 45.254C32.4087 39.7691 36.4645 38.062 38.4322 37.9263C39.2393 37.8704 39.9339 38.5599 39.984 39.4657C40.0406 40.3686 39.4251 41.1452 38.6231 41.2069C38.4547 41.2222 35.0129 41.5923 33.975 46.08ZM39.735 57.584C39.2807 58.3352 38.3705 58.5305 37.7013 58.021C36.6409 57.2124 34.8503 55.3202 34.7698 51.7275C34.769 51.7137 34.769 51.6992 34.769 51.6854C34.769 50.797 35.4005 50.0654 36.1967 50.0429C37.0052 50.0204 37.6773 50.7375 37.6977 51.6448C37.7427 53.6618 38.6194 54.7461 39.3467 55.3007C40.0144 55.8116 40.1886 56.8328 39.735 57.584Z" fill="#1A1A1A"></path> <rect x="50" y="38" width="9" height="16" fill="#1A1A1A"></rect> <rect x="30" y="37" width="11" height="23" fill="#1A1A1A"></rect> </g> <defs> <filter id="filter0_d" x="-2" y="0" width="92" height="92" filterUnits="userSpaceOnUse" color-interpolation-filters="sRGB"> <feFlood flood-opacity="0" result="BackgroundImageFix"></feFlood> <feColorMatrix in="SourceAlpha" type="matrix" values="0 0 0 0 0 0 0 0 0 0 0 0 0 0 0 0 0 0 127 0"></feColorMatrix> <feOffset dx="-2" dy="2"></feOffset> <feColorMatrix type="matrix" values="0 0 0 0 0.717647 0 0 0 0 0.745098 0 0 0 0 0.890196 0 0 0 1 0"></feColorMatrix> <feBlend mode="normal" in2="BackgroundImageFix" result="effect1_dropShadow"></feBlend> <feBlend mode="normal" in="SourceGraphic" in2="effect1_dropShadow" result="shape"></feBlend> </filter> <clipPath id="clip0"> <rect width="90" height="90" fill="white"></rect> </clipPath> </defs> </svg> 