<?xml version="1.0" encoding="UTF-8"?> <svg xmlns="http://www.w3.org/2000/svg" width="306" height="196" viewBox="0 0 306 196" fill="none"> <path d="M161.228 88.3167L161.13 87.8264L161.13 87.8264L161.228 88.3167ZM277.194 192.318C277.468 192.347 277.715 192.148 277.744 191.874L278.221 187.399C278.251 187.125 278.052 186.878 277.777 186.849C277.502 186.82 277.256 187.019 277.227 187.293L276.803 191.271L272.825 190.846C272.551 190.817 272.304 191.016 272.275 191.291C272.246 191.565 272.445 191.811 272.719 191.841L277.194 192.318ZM1.90364 54.708C3.13056 55.2744 4.3408 55.839 5.53526 56.4015L5.96132 55.4968C4.76465 54.9333 3.55209 54.3676 2.32275 53.8001L1.90364 54.708ZM9.13348 58.1119C11.5829 59.2868 13.9665 60.451 16.2926 61.6016L16.736 60.7053C14.4068 59.5532 12.0196 58.3871 9.56595 57.2103L9.13348 58.1119ZM19.8651 63.3798C22.2889 64.5931 24.652 65.789 26.9649 66.9641L27.4179 66.0726C25.1041 64.8971 22.7391 63.7001 20.3127 62.4855L19.8651 63.3798ZM30.5291 68.7775C32.9481 70.0091 35.3162 71.2149 37.645 72.39L38.0955 71.4972C35.7686 70.3231 33.4022 69.1181 30.9828 67.8863L30.5291 68.7775ZM41.2077 74.1776C43.6282 75.3841 46.0127 76.5542 48.3756 77.6823L48.8065 76.7798C46.45 75.6548 44.0707 74.4874 41.6538 73.2827L41.2077 74.1776ZM51.9932 79.3828C54.4382 80.5128 56.8682 81.5945 59.2998 82.6216L59.6889 81.7004C57.2691 80.6783 54.8493 79.6012 52.4128 78.475L51.9932 79.3828ZM62.9973 84.1393C65.4803 85.1278 67.9738 86.0564 70.4951 86.9189L70.8188 85.9727C68.3144 85.1161 65.8364 84.1932 63.3671 83.2102L62.9973 84.1393ZM74.2984 88.1615C76.8279 88.9486 79.3934 89.6675 82.0117 90.312L82.2508 89.341C79.6528 88.7016 77.1068 87.9881 74.5955 87.2066L74.2984 88.1615ZM85.9103 91.2071C88.4727 91.7531 91.0911 92.2279 93.7806 92.626L93.927 91.6368C91.2586 91.2418 88.6608 90.7707 86.1187 90.2291L85.9103 91.2071ZM97.7472 93.1509C100.338 93.4534 102.997 93.6862 105.738 93.8449L105.795 92.8466C103.074 92.689 100.434 92.4579 97.8632 92.1576L97.7472 93.1509ZM109.721 94.0209C112.309 94.1006 114.971 94.1159 117.715 94.0637L117.696 93.0639C114.968 93.1158 112.323 93.1005 109.752 93.0214L109.721 94.0209ZM121.733 93.941C124.309 93.8333 126.958 93.6681 129.686 93.4428L129.604 92.4462C126.888 92.6704 124.253 92.8348 121.691 92.9419L121.733 93.941ZM133.693 93.0741C136.26 92.8144 138.897 92.5034 141.609 92.1391L141.476 91.148C138.774 91.5109 136.148 91.8207 133.593 92.0792L133.693 93.0741ZM145.564 91.5778C148.13 91.1947 150.762 90.7655 153.464 90.2888L153.291 89.304C150.596 89.7793 147.973 90.207 145.416 90.5888L145.564 91.5778ZM157.36 89.5778C158.665 89.3316 159.987 89.0747 161.326 88.8069L161.13 87.8264C159.795 88.0935 158.476 88.3497 157.174 88.5951L157.36 89.5778ZM161.326 88.8069C162.71 88.5301 164.068 88.279 165.402 88.0532L165.235 87.0673C163.891 87.2948 162.523 87.5476 161.13 87.8264L161.326 88.8069ZM169.388 87.4427C172.212 87.0575 174.918 86.7917 177.515 86.639L177.456 85.6408C174.832 85.795 172.1 86.0635 169.253 86.4519L169.388 87.4427ZM181.533 86.4911C184.388 86.451 187.104 86.5564 189.69 86.7979L189.783 85.8023C187.159 85.5572 184.408 85.4506 181.519 85.4912L181.533 86.4911ZM193.695 87.2955C196.485 87.7315 199.115 88.3375 201.602 89.0998L201.895 88.1436C199.361 87.3669 196.684 86.7506 193.85 86.3075L193.695 87.2955ZM205.426 90.4362C207.996 91.4501 210.406 92.6445 212.677 94.0022L213.19 93.1438C210.873 91.7586 208.414 90.5401 205.793 89.506L205.426 90.4362ZM216.063 96.2163C218.265 97.785 220.332 99.519 222.286 101.4L222.98 100.679C220.992 98.767 218.888 97.0011 216.643 95.4019L216.063 96.2163ZM225.117 104.307C226.918 106.277 228.624 108.378 230.256 110.592L231.061 109.999C229.411 107.76 227.683 105.631 225.855 103.633L225.117 104.307ZM232.596 113.918C234.087 116.132 235.52 118.441 236.912 120.832L237.776 120.328C236.375 117.922 234.931 115.594 233.426 113.36L232.596 113.918ZM238.924 124.387C240.215 126.73 241.477 129.139 242.727 131.602L243.619 131.149C242.365 128.679 241.098 126.26 239.8 123.904L238.924 124.387ZM244.556 135.255C245.75 137.669 246.939 140.126 248.138 142.615L249.039 142.181C247.839 139.691 246.648 137.231 245.452 134.811L244.556 135.255ZM249.909 146.295C251.082 148.729 252.27 151.188 253.487 153.66L254.384 153.218C253.169 150.751 251.983 148.295 250.81 145.861L249.909 146.295ZM255.311 157.329C256.528 159.75 257.778 162.178 259.072 164.603L259.955 164.132C258.665 161.715 257.419 159.295 256.205 156.88L255.311 157.329ZM261.032 168.207C262.349 170.581 263.714 172.949 265.14 175.3L265.995 174.781C264.577 172.443 263.218 170.087 261.907 167.722L261.032 168.207ZM267.307 178.785C268.768 181.076 270.293 183.346 271.893 185.588L272.707 185.007C271.118 182.781 269.603 180.524 268.15 178.247L267.307 178.785ZM274.324 188.895C275.149 189.983 275.993 191.064 276.858 192.135L277.636 191.507C276.778 190.444 275.94 189.372 275.121 188.291L274.324 188.895ZM161.228 88.3167L161.032 87.3361L161.032 87.3361L161.228 88.3167ZM277.141 192.815C277.69 192.874 278.183 192.476 278.241 191.927L279.196 182.978C279.254 182.429 278.857 181.936 278.307 181.877C277.758 181.819 277.266 182.216 277.207 182.766L276.358 190.72L268.404 189.872C267.854 189.813 267.362 190.211 267.303 190.76C267.245 191.309 267.642 191.802 268.191 191.861L277.141 192.815ZM1.69409 55.162C2.9198 55.7278 4.12888 56.2919 5.32223 56.8539L6.17435 55.0445C4.97657 54.4804 3.76285 53.9142 2.5323 53.3461L1.69409 55.162ZM8.91724 58.5627C11.3646 59.7366 13.7464 60.8999 16.0709 62.0498L16.9577 60.2571C14.627 59.1043 12.2379 57.9373 9.78218 56.7594L8.91724 58.5627ZM19.6413 63.8269C22.0639 65.0396 24.426 66.235 26.7385 67.4099L27.6444 65.6268C25.3302 64.4511 22.9641 63.2536 20.5366 62.0384L19.6413 63.8269ZM30.3022 69.2231C32.7211 70.4546 35.09 71.6609 37.4198 72.8364L38.3207 71.0509C35.9948 69.8772 33.6292 68.6727 31.2097 67.4408L30.3022 69.2231ZM40.9847 74.6251C43.4069 75.8325 45.794 77.0039 48.1602 78.1335L49.0219 76.3286C46.6686 75.2051 44.292 74.039 41.8769 72.8352L40.9847 74.6251ZM51.7834 79.8366C54.2326 80.9687 56.6678 82.0526 59.1053 83.0822L59.8835 81.2398C57.4696 80.2202 55.0549 79.1454 52.6225 78.0212L51.7834 79.8366ZM62.8124 84.6038C65.3023 85.595 67.8034 86.5266 70.3333 87.392L70.9806 85.4996C68.4847 84.6459 66.0145 83.7259 63.5521 82.7457L62.8124 84.6038ZM74.1498 88.6389C76.6885 89.4289 79.2636 90.1505 81.8922 90.7975L82.3703 88.8555C79.7826 88.2186 77.2462 87.5078 74.7441 86.7292L74.1498 88.6389ZM85.8061 91.6961C88.3787 92.2443 91.0074 92.7209 93.7074 93.1207L94.0003 91.1422C91.3423 90.7487 88.7548 90.2795 86.2229 89.74L85.8061 91.6961ZM97.6892 93.6475C100.29 93.9512 102.959 94.1849 105.709 94.344L105.824 92.3474C103.113 92.1904 100.482 91.9601 97.9212 91.661L97.6892 93.6475ZM109.706 94.5207C112.303 94.6006 114.972 94.616 117.725 94.5636L117.687 92.564C114.966 92.6158 112.33 92.6005 109.767 92.5216L109.706 94.5207ZM121.754 94.4406C124.337 94.3326 126.992 94.167 129.727 93.9411L129.563 91.9479C126.854 92.1716 124.225 92.3355 121.67 92.4423L121.754 94.4406ZM133.744 93.5716C136.316 93.3113 138.958 92.9997 141.675 92.6347L141.409 90.6525C138.713 91.0147 136.092 91.3238 133.542 91.5818L133.744 93.5716ZM145.638 92.0724C148.208 91.6885 150.845 91.2587 153.551 90.7812L153.204 88.8116C150.514 89.2861 147.895 89.7132 145.342 90.0943L145.638 92.0724ZM157.452 90.0692C158.76 89.8226 160.084 89.5654 161.424 89.2972L161.032 87.3361C159.698 87.6028 158.382 87.8587 157.082 88.1038L157.452 90.0692ZM161.424 89.2972C162.803 89.0213 164.157 88.7712 165.485 88.5462L165.151 86.5743C163.803 86.8026 162.43 87.0564 161.032 87.3361L161.424 89.2972ZM169.456 87.9381C172.267 87.5546 174.961 87.29 177.544 87.1382L177.427 85.1416C174.789 85.2967 172.045 85.5665 169.186 85.9565L169.456 87.9381ZM181.54 86.9911C184.379 86.9512 187.076 87.0559 189.644 87.2958L189.83 85.3044C187.187 85.0576 184.418 84.9504 181.512 84.9913L181.54 86.9911ZM193.618 87.7895C196.385 88.222 198.992 88.8227 201.456 89.5778L202.042 87.6656C199.484 86.8816 196.784 86.2601 193.927 85.8135L193.618 87.7895ZM205.243 90.9013C207.787 91.9051 210.172 93.0874 212.42 94.4313L213.447 92.7147C211.107 91.3157 208.623 90.0851 205.977 89.0408L205.243 90.9013ZM215.773 96.6235C217.953 98.1769 220.001 99.8949 221.94 101.76L223.327 100.319C221.323 98.391 219.199 96.6092 216.933 94.9946L215.773 96.6235ZM224.748 104.645C226.536 106.6 228.231 108.687 229.853 110.889L231.463 109.703C229.804 107.451 228.065 105.309 226.224 103.295L224.748 104.645ZM232.181 114.198C233.665 116.401 235.092 118.701 236.48 121.083L238.208 120.077C236.802 117.663 235.352 115.325 233.84 113.08L232.181 114.198ZM238.487 124.628C239.774 126.965 241.033 129.369 242.281 131.828L244.065 130.923C242.809 128.449 241.539 126.025 240.238 123.663L238.487 124.628ZM244.108 135.476C245.3 137.888 246.488 140.344 247.687 142.832L249.489 141.964C248.29 139.474 247.098 137.012 245.9 134.59L244.108 135.476ZM249.459 146.512C250.632 148.947 251.821 151.407 253.038 153.881L254.833 152.997C253.619 150.532 252.433 148.078 251.261 145.644L249.459 146.512ZM254.864 157.554C256.083 159.977 257.334 162.409 258.631 164.839L260.396 163.897C259.108 161.484 257.864 159.067 256.651 156.656L254.864 157.554ZM260.595 168.45C261.914 170.829 263.283 173.202 264.712 175.559L266.423 174.522C265.008 172.19 263.652 169.839 262.344 167.48L260.595 168.45ZM266.885 179.054C268.351 181.351 269.881 183.629 271.486 185.878L273.114 184.717C271.531 182.498 270.02 180.249 268.571 177.978L266.885 179.054ZM273.926 189.197C274.753 190.289 275.601 191.374 276.469 192.449L278.025 191.193C277.17 190.134 276.335 189.066 275.52 187.989L273.926 189.197Z" fill="#E0D5CC"></path> </svg> 