<?xml version="1.0" encoding="UTF-8"?> <svg xmlns="http://www.w3.org/2000/svg" width="137" height="149" viewBox="0 0 137 149" fill="none"> <g clip-path="url(#clip0)"> <path fill-rule="evenodd" clip-rule="evenodd" d="M4.19186 82.3156C6.13782 82.5062 8.08377 82.6965 10.0297 82.8871C19.3495 83.5974 28.6655 85.0808 37.9139 85.9711C38.1441 85.5972 38.5949 85.6588 38.8685 85.9186C39.7914 85.838 40.8257 85.1343 41.6616 85.8663C41.6887 85.8625 41.7159 85.858 41.7433 85.8554C43.2317 83.0056 44.2606 79.9661 45.2591 76.9225C45.8965 75.0513 46.754 73.2398 48.3386 71.9834C51.0428 70.1108 57.2391 66.3136 60.4146 66.4732C60.4672 65.906 60.7323 65.3215 61.1674 64.9438C60.2083 63.3127 64.0433 62.2484 64.3138 62.4375C64.1404 56.9878 66.7102 52.2551 72.3766 51.1699C77.453 50.1147 84.6733 49.9375 87.4035 55.2295C87.7036 55.1958 90.7714 55.1799 91.0682 55.2131C91.5297 54.63 96.5978 60.155 94.5206 62.0784C113.091 70.2733 123.651 69.2955 128.791 92.3334C129.486 94.4976 129.536 96.8659 130.27 98.9818C132.881 105.063 134.998 111.538 135.525 118.154C136.798 118.48 136.944 120.718 135.47 121.042C134.907 121.166 134.436 121.335 134.025 121.656C134.346 127.078 133.032 139.464 132.204 139.426C130.515 144.788 122.981 146.301 117.647 144.417C118.567 146.142 117.647 147.227 117.647 148.149C98.4559 148.873 77.472 148.456 58.2858 149.45C55.8316 149.415 53.2502 150.051 50.8295 149.685C49.3532 149.332 49.3508 147.016 50.8482 146.73L44.3051 145.312C44.4514 145.257 41.6081 143.371 39.4591 139.845C37.4589 135.902 38.8202 131.141 37.9139 126.851C30.835 126.274 23.6392 126.027 16.6378 124.831C15.6832 127.68 11.5508 124.273 10.2372 122.902C10.2389 122.9 10.2405 122.898 10.2421 122.896C9.60643 122.722 9.09666 122.128 9.07961 121.424C8.6338 120.789 8.54021 119.893 8.96774 119.279C7.00827 108 4.02107 96.4846 2.94135 85.0997C2.55965 85.0154 2.2002 84.8485 1.89545 84.5913L1.92015 84.5667C1.40381 83.9924 1.30341 83.0013 2.16418 82.5134C2.85854 82.1194 3.43831 82.2416 4.19186 82.3156Z" fill="#FFDBB4"></path> <path fill-rule="evenodd" clip-rule="evenodd" d="M78.2015 124.529L76.7024 125.481L64.4375 129.423L56.9422 130.375L50.8098 129.423V139.891L49.5833 149.678C50.1284 150.675 55.3069 150.675 65.1189 149.678C71.3737 149.043 94.2336 148.735 99.4383 148.599L99.7332 148.591C105.849 148.415 111.891 148.415 117.858 148.591V144.92L100.823 136.492L85.5604 127.928L78.2015 124.529ZM86.892 54.3738L85.7655 55.2128L88.2249 59.2435L76.2444 68.9104V76.6318L72.4515 80.2104L70.2834 76.6318L67.2285 72.5792L65.0575 66.0099L65.7967 61.682L64.3102 61.5423C64.303 61.8381 64.3042 62.1366 64.3138 62.4372C64.0432 62.2481 60.2082 63.3124 61.1674 64.9436C60.7322 65.3212 60.4671 65.9058 60.4145 66.4729C57.239 66.3133 51.0428 70.1106 48.3385 71.9832C46.7539 73.2396 45.8964 75.051 45.2591 76.9223L45.109 77.3787L44.9541 77.8474L44.798 78.3156C43.9356 80.8897 43.0044 83.4406 41.7432 85.8551C41.7158 85.8577 41.6887 85.8622 41.6615 85.866C40.8256 85.1341 39.7913 85.8377 38.8684 85.9184C38.6012 85.6646 38.1649 85.6 37.9302 85.9454L37.9138 85.9708L49.4117 88.2303L56.997 114.772L63.6027 109.423L67.1483 109.949L76.5118 113.318L87.4021 116.14L112.263 122.977H115.429L133.852 118.539L135.512 117.993C134.964 111.432 132.86 105.013 130.27 98.9816C129.536 96.8656 129.486 94.4974 128.791 92.3332C123.651 69.2952 113.091 70.273 94.5205 62.0782C96.5977 60.1547 91.5296 54.6298 91.0681 55.2128L91.0391 55.2103L90.9762 55.2069L90.8951 55.2041C90.1707 55.1831 87.6728 55.199 87.4035 55.2293C87.2472 54.9265 87.0763 54.6416 86.892 54.3738Z" fill="#FCF6F1"></path> <path fill-rule="evenodd" clip-rule="evenodd" d="M2.35445 83.1213L2.69693 85.0252C2.77832 85.0518 2.86114 85.0743 2.94502 85.0928C3.05266 86.2277 3.17925 87.364 3.32189 88.5012L5.44521 100.306C5.81144 102.395 6.1591 104.488 6.50423 106.581L6.96156 108.83L7.2448 110.228C7.85621 113.255 8.45017 116.272 8.97141 119.272C8.89275 119.385 8.83172 119.508 8.78728 119.637L8.8274 119.806L8.85529 119.919L8.88382 120.03C9.29507 121.607 10.0107 123.136 11.6971 123.6C12.9691 123.95 14.3648 123.982 15.6783 124.12L15.8239 124.136L38.8083 126.714C41.5855 127.026 44.3614 127.347 47.137 127.671L49.5433 127.952C52.8971 128.34 56.2702 128.645 59.5746 129.346C59.696 129.372 59.7966 129.42 59.8786 129.484C59.2132 126.971 58.5762 124.462 57.9989 121.924C57.3492 119.067 56.7325 116.205 56.0375 113.359C54.6374 107.625 53.0679 101.928 51.3497 96.2809C50.9891 95.0956 50.6203 93.9127 50.2433 92.7325L49.9787 91.9075L49.7751 91.2501C49.4601 90.2478 49.0702 89.2176 48.1464 88.6647C47.0652 88.0175 45.5909 87.9102 44.3647 87.6865L43.5343 87.5309C42.292 87.2996 41.048 87.0772 39.8026 86.8636C33.8396 85.8405 27.8429 85.0198 21.8241 84.4033C15.561 83.7617 9.27619 83.3448 2.98372 83.141L2.35445 83.1213ZM59.4022 122.482L59.3435 122.487L60.202 129.334C60.3393 129.238 60.5136 129.179 60.7263 129.18C63.5424 129.188 66.2419 128.29 68.853 127.303L69.2506 127.152L70.3592 126.727C71.486 126.296 72.6189 125.875 73.7729 125.526L74.2394 125.385L74.4765 125.315C75.3503 125.061 76.2694 124.83 77.1782 124.772L77.3021 124.765L77.0374 124.627C76.9987 124.606 76.9648 124.584 76.9347 124.559C76.4344 124.596 75.9332 124.586 75.4055 124.491C74.4131 124.313 73.4482 123.969 72.5621 123.489L72.1663 123.275L72.0043 123.19L71.8973 123.134L71.7909 123.081C71.0299 122.702 70.3022 122.465 69.3413 122.667C68.2505 122.896 67.2947 123.482 66.3114 123.978L66.1369 124.064L66.0195 124.121L65.8999 124.177L65.7789 124.232C64.4492 124.829 62.3331 125.473 61.8232 123.67C61.6184 122.945 61.7788 122.267 62.1342 121.672C61.4719 121.615 60.2887 122.394 59.4022 122.482ZM26.3033 99.9258L26.2873 100.008C26.0993 101.018 26.5708 101.984 27.2843 102.688C27.8696 103.265 28.9055 103.586 29.1989 104.417C29.366 104.89 29.1882 105.338 28.8451 105.65L28.9241 105.689L29.0014 105.729L29.0768 105.768L29.1504 105.809L29.222 105.849C30.3877 106.517 31.3371 107.603 30.2857 108.916C29.093 110.404 26.6009 110.453 24.8451 110.336L24.7268 110.328C23.0242 110.2 21.0074 109.63 20.0842 108.062C19.6608 107.342 19.7074 106.472 20.2977 105.857C20.6537 105.485 21.2889 105.104 21.8714 105.059C21.8459 104.731 21.885 104.415 22.0004 104.148C22.2501 103.571 22.9144 103.183 23.5552 103.169C23.5033 101.944 24.4868 100.735 25.2108 99.7562L25.2848 99.6558L25.3565 99.557C25.6888 99.0959 26.3996 99.3542 26.3033 99.9258ZM25.332 101.229L24.6723 103.695L24.6836 103.715C24.916 104.155 24.3069 104.655 23.9455 104.285L23.9092 104.246C23.4803 103.804 22.8221 104.398 22.8139 104.868C22.8022 105.53 23.2342 106.042 23.7488 106.38L23.7849 106.403L23.8798 106.462C24.3021 106.74 23.9824 107.323 23.518 107.252C22.9435 107.164 22.4727 106.71 22.1824 106.142C21.8722 106.231 21.5193 106.22 21.1926 106.402C20.3695 106.861 20.8429 107.665 21.3789 108.15L21.4007 108.17L21.4443 108.208C22.4277 109.044 23.7666 109.335 25.0287 109.397L25.1014 109.401C26.3763 109.455 28.0372 109.473 29.1299 108.725C29.8099 108.26 30.0069 107.6 29.4314 106.974C29.1059 106.621 28.7774 106.265 28.4391 105.92C27.9329 106.161 27.4807 106.063 26.963 105.835C26.8966 105.806 26.9334 105.705 26.9984 105.705C27.284 105.704 28.3321 105.175 28.3831 104.838C28.4302 104.525 27.8504 104.261 27.5685 104.11L27.5276 104.088L27.4921 104.067C27.1972 103.889 26.9196 103.681 26.6659 103.448C26.0219 102.857 25.5541 102.115 25.3499 101.303L25.332 101.229Z" fill="white"></path> <path fill-rule="evenodd" clip-rule="evenodd" d="M87.0497 54.0003C86.4714 52.5508 84.5168 53.1143 84.7347 54.6371C84.8651 55.5493 85.366 56.5127 85.8158 57.3122C86.1821 57.9629 86.5999 58.598 87.1664 59.0858C86.158 60.0243 85.1112 60.9286 84.0379 61.7872C82.8668 62.724 81.6352 63.5875 80.3623 64.3811C79.246 65.0772 78.0793 65.6938 77.0272 66.488C76.0488 67.2263 75.1576 68.1143 74.704 69.2734C74.2209 70.5078 74.4309 71.7826 74.7866 73.0162L74.8275 73.1557C75.191 74.3778 75.8201 75.851 74.9477 77.0024C74.5036 77.5886 73.8579 78.0038 73.3004 78.4724C72.8049 78.8889 72.3398 79.3418 71.9132 79.8284C70.9831 80.889 70.2267 82.0824 69.7493 83.4122L69.7066 83.533C69.2974 84.7102 68.9984 86.1523 69.5513 87.308C69.7099 87.6393 70.2215 87.5317 70.3103 87.2091C70.5112 86.4783 70.5007 85.7129 70.6691 84.9717C70.8444 84.201 71.136 83.4693 71.5169 82.7771C72.2539 81.438 73.252 80.2941 74.4311 79.327L74.7841 79.0407C75.704 78.2876 76.5492 77.4887 76.7359 76.2424C76.9357 74.9089 76.4001 73.6387 76.0558 72.3766C75.8158 71.497 75.7374 70.6539 75.9968 69.8591C76.3136 70.375 76.7459 70.8646 77.0878 71.3014C77.7688 72.1716 78.4562 73.0364 79.1418 73.9029C79.8447 74.7915 80.5303 75.694 81.1832 76.6199C81.4752 77.0341 81.7641 77.4508 82.0521 77.8678C82.2686 78.1813 82.5706 78.4945 82.8067 78.8143C82.7493 78.9853 82.7537 79.1824 82.8576 79.3224C84.1093 81.0094 85.8901 77.4894 86.3545 76.6C87.3003 74.7889 88.0041 72.8647 88.953 71.054C89.9363 69.1769 91.0559 67.3498 92.3038 65.6362C93.0587 64.5996 93.9047 63.626 94.5952 62.5565C96.2219 64.028 98.3626 65.0144 100.329 65.9089C102.489 66.8915 104.733 67.6943 106.948 68.5467L107.603 68.8002C111.419 70.286 115.329 71.9183 118.501 74.5574C122.229 77.6586 124.434 81.981 126.075 86.4571C127.965 91.6099 129.529 96.9019 130.986 102.19C131.732 104.896 132.44 107.615 133.105 110.341C133.691 112.744 134.177 115.17 134.856 117.548C133.48 117.499 131.91 118.031 130.735 118.184C125.379 118.883 120.096 119.998 115.039 121.928C114.415 122.167 114.234 122.789 114.37 123.293C114.01 123.192 113.65 123.089 113.29 122.988C113.685 122.385 113.496 121.307 113.465 120.638L113.463 120.592C113.431 119.701 113.335 118.81 113.272 117.92C113.152 116.225 112.996 114.543 112.789 112.857L112.736 112.436C112.502 110.602 112.328 108.758 112.072 106.927L112.042 106.718C112.165 106.25 112.308 105.787 112.458 105.326C112.858 104.1 113.422 102.945 113.916 101.757C113.975 101.617 113.775 101.536 113.682 101.62C112.844 102.372 112.179 103.325 111.644 104.323C111.635 104.276 111.627 104.228 111.617 104.181L111.556 103.882C111.406 103.152 111.223 102.383 110.774 101.791C110.726 101.728 110.631 101.715 110.586 101.791C110.156 102.516 110.108 103.435 110.042 104.261C109.967 105.195 109.958 106.141 109.971 107.077C109.997 108.907 110.126 110.743 110.229 112.57C110.33 114.365 110.529 116.138 110.785 117.916L110.833 118.249C110.958 119.096 111.061 119.952 111.226 120.793L111.272 121.022C111.36 121.438 111.415 122.026 111.59 122.514C107.074 121.258 102.551 120.03 98.0197 118.824C94.7445 117.952 91.466 117.093 88.1888 116.229C88.0159 115.918 87.8005 115.627 87.5318 115.368C86.6464 114.513 85.4731 114.131 84.3969 114.789C84.3094 114.843 84.302 114.98 84.3969 115.032C84.6031 115.144 84.8097 115.259 85.0126 115.379L83.0447 114.848C81.5739 114.45 80.0855 113.953 78.58 113.676C75.8072 112.311 72.8249 111.323 69.9039 110.347L69.5597 110.23C68.0641 109.722 66.5172 109.152 64.9719 108.87C63.8407 108.664 62.5128 108.913 62.0579 110.069C61.482 110.448 60.9402 110.893 60.4173 111.33C60.0392 111.646 59.6769 111.983 59.3084 112.31L59.2405 112.369C58.9392 112.63 58.7006 112.805 58.6266 113.22C58.5884 113.434 58.725 113.724 58.9901 113.696C59.801 113.609 60.4605 112.671 61.0105 112.111C61.4354 111.679 61.8637 111.231 62.2516 110.755C62.4777 110.878 62.7876 110.856 62.9315 110.584C63.6777 109.175 65.722 110.151 66.8531 110.486L68.4734 110.964C69.2835 111.204 70.0933 111.444 70.9018 111.689C73.1236 112.362 75.3346 113.116 77.5766 113.734C77.376 113.954 77.4037 114.345 77.7847 114.494C79.5397 115.181 81.465 115.536 83.2883 116.007C84.4394 116.305 85.5899 116.605 86.7399 116.906C86.9371 117.225 87.079 117.585 87.1386 118.005C87.3581 119.548 86.9348 121.328 86.5225 122.821L86.4604 123.043C86.1215 124.243 85.6228 125.714 84.5851 126.472C84.3317 126.656 84.0092 126.785 83.684 126.814C81.6525 125.771 79.6212 124.728 77.5886 123.687C77.2121 123.494 76.8642 123.755 76.7797 124.066C76.063 123.948 75.3479 123.764 74.6967 123.543C73.6024 123.172 72.7479 122.465 71.722 121.976C69.737 121.03 67.7099 122.192 65.9326 123.076L65.523 123.276C64.726 123.662 63.0679 124.403 62.6855 123.348C62.3156 122.328 63.485 121.237 64.2403 120.777C65.1405 120.23 66.1888 119.937 67.2062 119.692C67.7872 119.553 68.3752 119.439 68.9668 119.356C69.6378 119.262 70.3309 119.276 70.977 119.059C71.2981 118.951 71.3474 118.443 70.977 118.359C69.9824 118.133 68.7954 118.379 67.7575 118.631L67.2151 118.764C66.1694 119.02 65.1137 119.341 64.1612 119.852C63.4687 120.223 62.7377 120.787 62.2602 121.478C61.8455 121.094 61.3294 121.107 60.7917 121.249L60.4999 121.33C60.0181 121.463 59.6275 121.555 59.1586 121.463C59.0959 121.123 59.0324 120.782 58.9644 120.442C58.2963 117.096 57.5635 113.762 56.755 110.447C55.3603 104.728 53.7466 99.0721 51.9272 93.474L51.7446 92.9144C51.325 91.634 50.9873 90.239 50.3108 89.0627C49.671 87.9504 48.6459 87.3097 47.428 86.9704C46.0459 86.5854 44.5936 86.3839 43.1837 86.1239C42.8691 86.0659 42.5538 86.0109 42.239 85.9539C42.505 85.4748 42.7036 84.9309 42.8825 84.5135L42.9138 84.4412C43.2981 83.5672 43.6433 82.6776 43.9766 81.7831L44.226 81.1107C44.8278 79.4916 45.4491 77.899 46.2953 76.3846C47.186 74.7908 48.3677 73.4878 49.8407 72.4093C52.844 70.2103 56.4639 69.0887 59.3768 66.7387C59.4962 66.6424 59.3431 66.4778 59.222 66.5387C57.2551 67.5245 55.1318 68.1949 53.086 68.9975L52.6824 69.1563C51.0654 69.7957 49.4233 70.4918 48.0237 71.5271C46.4633 72.6815 45.2344 74.1151 44.3107 75.82C43.4004 77.5005 42.818 79.3815 42.1758 81.1765L42.004 81.6548C41.7449 82.372 41.4774 83.087 41.1707 83.785C40.9273 84.3391 40.4731 84.9716 40.2667 85.6046C39.7018 85.5068 39.1371 85.4088 38.5717 85.3146C26.3248 83.2749 13.9412 82.0765 1.53001 81.7259C1.04446 81.7121 0.793304 82.1743 0.864853 82.5968C2.05591 89.6225 3.1144 96.6721 4.27574 103.703C4.7827 106.772 5.29973 109.838 5.82889 112.903C6.09694 114.456 6.40683 116.002 6.66072 117.557C6.86568 118.813 7.0145 120.079 7.36636 121.306C7.68198 122.405 8.16631 123.466 8.96176 124.305C9.81921 125.21 11.016 125.648 12.2207 125.855C15.2789 126.38 18.4157 126.594 21.4987 126.944L37.9129 128.807C37.673 130.981 37.6551 133.122 37.7652 135.323L37.8279 136.524C37.8792 137.49 37.9404 138.457 38.0796 139.414C38.254 140.613 38.804 141.629 39.6142 142.524C40.3581 143.347 41.2619 144.049 42.141 144.722C43.0535 145.42 43.9964 146.094 45.0693 146.526L45.2086 146.581C46.1498 146.948 47.9155 147.516 49.2021 147.308C49.0339 148.149 48.7085 149.053 48.997 149.884C49.1308 150.27 49.6371 150.463 49.9473 150.134C50.5617 149.483 50.6097 148.623 50.7552 147.773C50.9066 146.889 51.0372 146.002 51.1532 145.112C51.3775 143.393 51.552 141.657 51.6053 139.923C51.6601 138.142 51.639 136.358 51.5428 134.579C51.4933 133.665 51.432 132.752 51.3157 131.844C51.2661 131.457 51.2154 131.07 51.1575 130.683C51.1364 130.543 51.113 130.402 51.0878 130.262L52.561 130.428C54.82 130.68 57.0801 130.907 59.3551 130.942C59.6246 130.946 59.8318 130.824 59.9673 130.646C60.1116 130.88 60.3629 131.048 60.7228 131.047C63.8998 131.035 66.8584 129.999 69.748 128.777C71.2046 128.161 72.6385 127.495 74.0972 126.884C75.4587 126.314 76.9143 125.908 78.243 125.266L81.7344 127.093C81.7601 127.183 81.7929 127.268 81.8278 127.339C82.0551 127.802 82.5033 128.053 82.9611 128.242C83.4004 128.424 83.8555 128.48 84.2988 128.434C86.9467 129.818 89.5952 131.201 92.2454 132.581L94.8964 133.959C100.178 136.702 105.439 139.491 110.753 142.169L111.145 142.366C112.98 143.284 114.952 144.215 116.989 144.909C117.025 145.424 117.002 145.924 116.959 146.469L116.949 146.587C116.888 147.231 116.758 148.037 117.275 148.495C117.544 148.733 118.025 148.734 118.208 148.375C118.54 147.723 118.242 146.697 118.137 145.989C118.099 145.737 118.054 145.479 117.987 145.228C120.322 145.921 122.728 146.258 125.105 145.868C127.419 145.489 129.211 144.035 130.656 142.257C132.181 140.38 133.264 138.192 133.846 135.847C134.507 133.179 134.551 130.423 134.535 127.69C134.519 124.78 134.411 121.855 134.056 118.964C134.445 118.873 134.876 118.794 135.269 118.821C135.463 119.132 135.841 119.263 136.182 119.222C136.924 120.039 135.042 120.873 134.441 121.081C134.232 121.154 134.254 121.492 134.495 121.482L134.647 121.475C135.576 121.425 136.536 121.267 137.082 120.406C137.52 119.716 137.388 118.898 136.866 118.335C136.522 115.084 135.698 111.919 134.931 108.748C134.179 105.635 133.342 102.543 132.455 99.4663L132.057 98.0892C130.66 93.2648 129.201 88.4015 127.274 83.7688C126.312 81.4556 125.204 79.185 123.702 77.168C122.301 75.2878 120.648 73.6789 118.748 72.3048C115.205 69.7429 111.049 68.1949 106.964 66.7201L106.782 66.6541C104.665 65.8904 102.554 65.1175 100.461 64.2901C98.6109 63.5583 96.838 62.6305 94.9962 61.8877C95.0561 61.7794 95.1139 61.6698 95.1695 61.559L95.2035 61.5876C95.2093 61.5922 95.2153 61.5966 95.2215 61.6009C95.4067 61.7289 95.6794 61.666 95.832 61.5223C96.263 61.1166 96.1171 60.6663 95.8294 60.2456L95.792 60.1921C95.4401 59.7004 95.1263 59.1805 94.8015 58.671L94.5981 58.3524C94.053 57.5012 93.4802 56.6443 92.7534 55.9408C92.4168 55.6148 92.0483 55.3709 91.6579 55.1892C91.6912 55.1187 91.3985 54.9748 91.3155 55.0472C90.0785 54.5956 88.6554 54.6902 87.3068 54.8148M38.7073 128.897L40.4271 129.092C42.3192 129.306 44.212 129.514 46.105 129.72L50.2169 130.165C50.2273 130.399 50.2558 130.628 50.261 130.805C50.2878 131.715 50.3079 132.626 50.3268 133.536C50.3648 135.362 50.3231 137.189 50.2027 139.011C50.0859 140.776 49.9321 142.542 49.6932 144.295L49.6442 144.646L49.6159 144.83C49.4209 144.849 49.2293 144.941 49.0699 145.131C48.7222 145.546 47.4628 145.143 46.971 144.968C46.1622 144.681 45.4006 144.196 44.6978 143.71C44.0115 143.235 43.3935 142.681 42.7996 142.098L42.3137 141.618C41.8303 141.139 41.3465 140.629 41.0503 140.026C40.6487 139.209 40.5968 138.205 40.479 137.315C40.3341 136.22 40.1614 135.126 39.9789 134.036M88.6328 117.404L88.8112 117.451C95.2913 119.168 101.762 120.936 108.262 122.578C111.478 123.391 114.71 124.144 117.931 124.941L118.452 125.072C120.993 125.712 123.564 126.483 125.51 128.321C125.582 128.389 125.686 128.285 125.619 128.213C123.522 125.986 120.539 125.044 117.676 124.227C117.147 124.076 116.617 123.928 116.087 123.778C119.981 122.393 123.937 121.188 127.984 120.329C129.026 120.108 130.081 119.945 131.122 119.723C131.848 119.568 132.557 119.344 133.276 119.158L133.841 119.016L133.848 120.798C133.858 123.322 133.853 125.844 133.724 128.367L133.7 128.835C133.549 131.643 133.314 134.509 132.315 137.157C131.503 139.309 130.209 141.336 128.517 142.903C127.661 143.696 126.741 144.313 125.603 144.618C124.546 144.901 123.439 144.934 122.353 144.859C117.143 144.496 112.506 141.673 107.98 139.336C100.578 135.513 93.175 131.691 85.7654 127.883C85.9657 127.746 86.1543 127.589 86.3259 127.412C87.3195 126.388 87.8436 124.987 88.1878 123.63C88.5543 122.186 88.7734 120.637 88.7989 119.146M79.2051 129.359C79.1397 129.324 79.0639 129.368 79.0609 129.441C79.038 130.006 79.3507 130.563 79.5844 131.071L79.6091 131.125C79.893 131.755 80.2038 132.377 80.5253 132.989C81.1679 134.211 81.8356 135.42 82.5326 136.612C83.934 139.01 85.4914 141.308 87.3322 143.396C87.748 143.867 88.4319 143.263 88.165 142.755C86.8786 140.306 85.3788 137.995 83.8351 135.703C83.0623 134.556 82.29 133.407 81.5095 132.265C81.1839 131.788 80.8542 131.314 80.5155 130.846L80.3112 130.566M2.35046 83.1282C8.85321 83.324 15.3483 83.7471 21.8201 84.4101C27.8389 85.0266 33.8357 85.8473 39.7986 86.8704C41.0441 87.084 42.288 87.3065 43.5304 87.5377L44.2756 87.6775C45.5182 87.9124 47.0362 88.0093 48.1425 88.6715C49.3089 89.3695 49.6241 90.8285 50.0122 92.0315C50.4685 93.4464 50.9131 94.8654 51.3458 96.2878C53.064 101.935 54.6335 107.632 56.0336 113.366C56.7286 116.212 57.3453 119.074 57.995 121.931C58.5723 124.469 59.2093 126.978 59.8747 129.491C59.7927 129.427 59.6921 129.378 59.5707 129.353C56.2663 128.651 52.8932 128.347 49.5393 127.959L49.2148 127.921C45.7454 127.514 42.2759 127.11 38.8044 126.721L15.82 124.143C14.4644 123.991 13.0123 123.97 11.6931 123.607C9.45027 122.99 8.92458 120.489 8.54826 118.497L8.53691 118.436C7.4024 112.418 6.4993 106.347 5.44124 100.313M59.3402 122.494C60.2325 122.435 61.4538 121.62 62.1308 121.679C61.7754 122.273 61.615 122.952 61.8198 123.676C62.3899 125.693 64.9678 124.65 66.2096 124.034C67.2277 123.528 68.2108 122.91 69.338 122.673C70.6149 122.406 71.48 122.912 72.5587 123.496C73.4448 123.975 74.4098 124.32 75.4022 124.498C75.9298 124.593 76.4311 124.603 76.9313 124.566C76.9614 124.59 76.9954 124.613 77.0341 124.633L77.2987 124.772C76.1021 124.827 74.8832 125.195 73.7696 125.532C72.6156 125.882 71.4827 126.303 70.3558 126.733L69.2473 127.158C66.5128 128.203 63.6823 129.195 60.723 129.186C60.5102 129.186 60.3359 129.244 60.1987 129.34M64.3325 116.176C63.451 116.069 62.6372 116.184 61.9328 116.756C61.0833 117.447 60.5125 118.592 59.2912 118.667C58.9351 118.689 58.8524 119.188 59.2063 119.293C60.1154 119.561 60.8515 119.07 61.4708 118.433L61.8873 117.999C62.4994 117.367 63.0639 116.878 64.1025 116.916C65.2148 116.957 66.329 117.213 67.4341 117.343C68.6859 117.491 69.9375 117.617 71.1933 117.726C71.2516 117.731 71.2616 117.639 71.2069 117.626L69.8004 117.276M65.1835 112.581L65.0381 112.567C63.7579 112.443 62.5872 112.438 61.4439 113.125L61.2246 113.257C60.1938 113.882 59.0719 114.618 58.4273 115.63C58.3218 115.796 58.4961 115.991 58.6726 115.949C59.9115 115.652 60.8172 114.745 61.859 114.067C63.0283 113.305 64.2361 113.431 65.5693 113.549C66.8601 113.664 68.1503 113.821 69.4284 114.036C70.6294 114.237 71.8342 114.555 73.0474 114.657L73.0471 114.654C73.1857 114.654 73.2647 114.446 73.1234 114.376C71.8923 113.763 70.4664 113.472 69.1272 113.192M109.019 77.857C109.02 77.756 108.878 77.7182 108.828 77.8056C107.995 79.2674 107.56 81.0593 107.116 82.6698C106.652 84.3568 106.276 86.061 105.939 87.7777C105.257 91.2539 104.893 94.71 104.868 98.253C104.865 98.7588 105.691 98.8934 105.772 98.375C106.308 94.9288 106.822 91.479 107.363 88.0337C107.635 86.3008 107.952 84.5746 108.255 82.8469M100.773 80.4031C100.834 80.2015 100.54 80.1341 100.465 80.3184C98.7935 84.4115 98.2274 89.0501 99.3006 93.3684C99.4648 94.0289 100.435 93.7427 100.311 93.0905M79.2115 76.7662C79.22 76.6153 79.0236 76.5915 78.9496 76.6954C78.1576 77.8086 77.829 79.2995 76.4394 79.8748C75.7456 80.162 74.9649 80.112 74.3519 80.5972C73.9421 80.9217 73.6279 81.4339 73.9355 81.9253C74.0347 82.0841 74.3124 82.1636 74.447 81.9911C74.6436 81.7398 74.7475 81.4388 75.0145 81.2504C75.391 80.9846 75.8988 80.9682 76.3305 80.8432C76.889 80.6817 77.3812 80.3991 77.7843 79.9792M65.9793 58.1987C65.8976 58.1572 65.8193 58.1837 65.7671 58.2542C65.6926 58.3545 65.7017 58.4521 65.793 58.5209C65.671 58.7695 65.527 59.3924 65.5064 59.4831C65.423 59.8507 65.3343 60.2161 65.2415 60.5812C65.0542 61.3176 64.8901 62.0597 64.7028 62.7964C64.5041 63.5773 64.2674 64.3498 64.0039 65.1112C63.9869 65.1605 63.9683 65.2109 63.9486 65.2619L63.9186 65.3391L63.9113 65.3274C63.8577 65.243 63.7462 65.3019 63.7595 65.3911C63.7717 65.4724 63.7882 65.5533 63.8021 65.6346L63.7745 65.7074C63.6022 66.1701 63.4842 66.6573 63.8003 67.0655C63.9186 67.2182 64.0488 67.3086 64.2109 67.3355C64.471 68.1906 64.7972 69.0298 65.1465 69.8356L65.2489 70.071C65.7626 71.2469 66.3106 72.4074 67.1286 73.4084C68.0218 74.5014 69.2503 75.2477 70.0284 76.4454C70.3903 77.0025 70.6421 77.5883 70.8466 78.2174L70.9235 78.4562C71.0686 78.9012 71.2359 79.3325 71.6544 79.5935C71.788 79.6767 71.988 79.6502 72.0957 79.5367C72.9538 78.6312 72.0555 76.9404 71.538 76.0637C70.8188 74.8445 69.7777 74.0646 68.7354 73.1449C67.6117 72.1534 66.8951 70.8272 66.2018 69.5206C65.7772 68.7202 65.3673 67.9025 64.9357 67.0986C65.3866 66.701 65.5309 65.9113 65.6837 65.3625L65.6976 65.3132C65.9501 64.4342 66.1507 63.5324 66.2775 62.6266C66.3994 61.7557 66.4503 60.8973 66.418 60.0215L66.4087 59.7984M64.3029 62.3438C64.4026 62.2076 64.2377 62.0533 64.101 62.0817C63.2699 62.2531 62.4574 62.7549 61.7116 63.1607L61.6319 63.2038C61.0365 63.524 60.4374 63.9164 60.1248 64.5386C59.7848 65.2148 59.8128 65.9937 59.8592 66.7286L59.8636 66.7974C59.9204 67.6787 59.9295 68.5944 60.1165 69.4598C60.2122 69.9027 60.6143 70.0275 60.9582 69.9228C61.3673 71.2114 62.5165 72.1608 63.356 73.1777C64.4263 74.474 64.2249 76.2243 64.113 77.7856C64.0677 78.4177 64.856 78.5974 65.2619 78.2602L66.1975 77.485C66.3533 77.3556 66.5089 77.226 66.6641 77.0958C66.797 76.9843 66.9287 76.8718 67.0593 76.758L67.2544 76.5862C67.341 76.509 67.7227 76.0836 67.8343 76.0659C68.1046 76.0231 68.7469 76.7338 68.9667 76.9567L68.9946 76.9845C69.4083 77.3892 69.7821 77.8246 70.1303 78.2864C70.1943 78.3712 70.3196 78.3008 70.2738 78.2028C69.9618 77.5361 69.599 76.8987 69.1683 76.3021L69.0812 76.1834C68.7946 75.7981 68.4099 75.1179 67.9041 75.0041C67.2864 74.8652 66.6696 75.4831 66.2202 75.8261L66.1917 75.8476C65.9779 76.0076 65.7666 76.1705 65.5556 76.3344C65.5777 75.172 65.4305 73.9974 64.8288 72.9957C64.4046 72.2892 63.769 71.7659 63.2251 71.1588C62.6197 70.4828 62.3035 69.6519 61.7554 68.9479C61.6848 68.8573 61.5875 68.8085 61.4821 68.793C61.4611 68.227 61.3775 67.6554 61.3129 67.0955L61.2942 66.9279C61.2289 66.3196 61.0747 65.5765 61.3733 65.0068C61.6553 64.4686 62.3024 64.0888 62.7817 63.7237L63.1729 63.4209M91.2742 55.9113C91.5244 56.0556 91.7583 56.2352 91.9704 56.4597C92.6383 57.1664 93.1158 58.046 93.5806 58.8921C93.8308 59.3478 94.072 59.8085 94.3242 60.263C94.4339 60.4608 94.5468 60.6565 94.6608 60.8518C94.7136 60.9418 94.8703 61.1207 94.948 61.231C94.8616 61.3516 94.7724 61.4704 94.6814 61.5879C94.6466 61.6327 92.2508 64.2362 91.4157 65.2551C90.1368 66.8159 88.9937 68.4644 88.0165 70.229C87.0596 71.9569 86.331 73.7864 85.4445 75.5478C85.0008 76.4297 84.5053 77.3053 83.8737 78.0685C83.8493 78.0982 83.8235 78.1264 83.7986 78.1557C83.5575 77.5061 82.9398 76.8105 82.6364 76.4111L82.6081 76.3734C81.92 75.4482 81.1934 74.5508 80.4509 73.6687C79.7728 72.8632 79.0775 72.0751 78.3653 71.3L78.0974 71.01C77.6012 70.4753 76.9709 69.6753 76.2446 69.2933C76.3224 69.1549 76.4125 69.018 76.5161 68.8829C77.1966 67.9957 78.1587 67.3519 79.1079 66.771L79.7235 66.3974C82.0441 64.9868 84.3284 63.5108 86.343 61.6779C87.4088 60.7081 88.4599 59.6922 89.3558 58.5611L89.6727 58.1611M87.4023 55.2129C88.489 55.3039 89.6625 55.2822 90.6667 55.6354C89.774 56.4773 88.9254 57.3864 88.0536 58.2424C87.9761 57.6634 87.8174 57.0915 87.6831 56.5269" fill="black"></path> <path fill-rule="evenodd" clip-rule="evenodd" d="M54.5957 21.9228C55.8265 16.7361 58.5174 11.9093 62.8254 8.00846C75.789 -4.80354 99.5957 2.15057 99.4879 21.4573C99.9528 23.7123 100.142 26.031 99.9877 28.3307C99.924 29.3119 99.4992 30.6813 100.07 31.5644C101.357 33.2165 102.106 34.4342 101.667 36.6319C101.301 38.5507 99.995 39.9101 98.232 40.6328C97.1747 40.9361 96.1715 41.5967 95.7799 42.6038C93.4264 46.911 91.6829 50.4936 87.9727 53.429C87.0153 54.1847 77.1961 58.7173 73.9607 58.7173C64.4889 58.7173 52.5509 55.2875 52.3528 44.7112C52.3185 42.3882 52.7264 40.0382 52.9822 37.7336C53.6048 32.4742 53.3851 27.0244 54.5957 21.9228Z" fill="#FFDBB4"></path> <path fill-rule="evenodd" clip-rule="evenodd" d="M54.809 19.3285C54.806 19.2643 54.7141 19.2499 54.6963 19.3133C54.3442 20.5619 54.1447 21.8339 53.8693 23.102C53.6041 24.3234 53.3538 25.5484 53.1454 26.7806C52.7523 29.1061 52.421 31.4376 52.1129 33.7752L52.0363 34.3598C51.5008 38.473 50.6163 42.758 51.3897 46.8953C52.0496 50.4255 54.2623 53.2708 57.1139 55.3568C59.8139 57.3319 63.0876 58.5995 66.338 59.3201C69.8267 60.0937 73.9619 60.3246 76.8004 57.7672C77.9367 56.7432 76.3877 54.7114 75.1549 55.6355C72.2603 57.805 68.5779 57.1654 65.3116 56.3022L65.2127 56.2759C62.3459 55.5126 59.4601 54.3556 57.1842 52.4038C54.668 50.2457 53.4238 47.2506 53.2801 43.9657C53.1994 42.1201 53.3715 40.2767 53.5572 38.442L53.5779 38.2382C53.791 36.1401 54.0145 34.0429 54.2208 31.9439C54.4091 30.03 54.5715 28.1049 54.6573 26.1823L54.6973 25.2127C54.7808 23.2577 54.893 21.2741 54.809 19.3285ZM88.7577 3.08458C84.0473 0.633138 78.6338 -0.244232 73.3917 0.578489C68.3522 1.3694 63.7272 3.96888 60.2702 7.69628C58.5824 9.51614 57.0843 11.6212 56.127 13.9209C55.6514 15.0634 55.2791 16.2552 55.0808 17.4792C54.9788 18.1085 54.8786 18.7605 54.8594 19.3984C54.8417 19.9891 55.0153 20.5431 54.9947 21.1435C54.9916 21.2375 55.1356 21.2556 55.1575 21.1656C55.3212 20.496 55.7157 19.9898 55.9632 19.3539C56.1482 18.879 56.3581 18.4154 56.5717 17.9533L56.7552 17.5572C57.288 16.4062 57.9249 15.3025 58.5549 14.2027C59.8236 11.9877 61.4514 9.97467 63.3574 8.27607C66.704 5.29378 70.9973 3.3687 75.4783 3.02205C80.1293 2.66207 84.8468 3.77027 88.8187 6.22512C92.7905 8.67982 95.7937 12.4957 97.3529 16.8892C98.1396 19.1063 98.5741 21.4164 98.6751 23.7652C98.7263 24.9541 98.6785 26.153 98.5952 27.3396L98.5538 27.9055C98.5053 28.5841 98.472 29.2601 98.5734 29.9223C97.857 29.6989 97.1061 29.6063 96.3524 29.7169C95.2326 29.8811 94.5635 30.34 94.0611 31.3403C94.0349 31.3925 94.0875 31.4447 94.1396 31.4187C94.7909 31.0938 95.8445 31.2648 96.5343 31.4352C97.252 31.6124 97.8985 31.9208 98.5084 32.3376C99.6367 33.1082 100.521 34.3025 100.738 35.6726C100.948 36.9962 100.405 38.3363 99.4915 39.2849C99.0215 39.7734 98.4597 40.1958 97.8308 40.459C97.0675 40.7786 96.3119 40.7687 95.6366 41.2963C95.2191 41.6224 95.32 42.1804 95.6031 42.5426C94.1784 44.1043 92.9149 45.8128 91.4903 47.3806C90.8299 48.1073 90.1748 48.8349 89.5421 49.585L89.3059 49.8674C88.6741 50.6296 87.6688 51.4348 87.3801 52.3935C87.2005 52.9899 87.8393 53.7699 88.4852 53.4982C89.4758 53.0812 90.183 51.9963 90.8524 51.1642L90.896 51.1103C91.598 50.2481 92.2212 49.3378 92.791 48.3839L92.9784 48.0696C94.0087 46.3374 95.0302 44.5409 95.6872 42.6379C95.7306 42.6825 95.7765 42.7231 95.8249 42.7575C96.7714 43.4303 98.1474 42.913 99.0926 42.4761C99.985 42.0638 100.803 41.4434 101.441 40.6955C102.828 39.0694 103.467 36.9634 103.004 34.8529C102.611 33.0651 101.372 31.3261 99.7467 30.4219C100.497 29.5586 100.807 28.395 101.014 27.2573C101.278 25.805 101.331 24.3167 101.259 22.844C101.116 19.9108 100.361 17.0195 99.1935 14.3335C97.105 9.52756 93.4126 5.50748 88.7577 3.08458ZM98.6716 35.1548C97.6829 34.9696 96.7616 34.9249 95.808 35.343C94.7737 35.797 94.0457 36.5463 93.3691 37.4242C92.5991 38.4228 94.5724 39.5137 95.0699 38.188L95.0846 38.1471C95.2178 37.7547 95.4565 37.3752 95.7588 37.026C95.8495 37.1649 95.9708 37.2873 96.1133 37.3573C96.2859 37.4421 96.5494 37.3834 96.5909 37.163C96.6369 36.9185 96.586 36.6221 96.4449 36.4151L96.4256 36.3868C97.1115 35.835 97.9365 35.432 98.6716 35.3023C98.745 35.2892 98.7442 35.1684 98.6716 35.1548Z" fill="black"></path> <path fill-rule="evenodd" clip-rule="evenodd" d="M74.6582 38.8857C71.0455 38.8857 68.1169 36.3294 68.1169 33.1761C68.1169 30.0228 71.0455 27.4666 74.6582 27.4666C78.2708 27.4666 82.1806 29.9191 82.1806 33.0724C82.1806 34.4104 81.1239 36.7485 80.2408 37.7218C79.0427 39.0424 76.738 38.8857 74.6582 38.8857Z" fill="white"></path> <path fill-rule="evenodd" clip-rule="evenodd" d="M59.0877 37.7929C56.3222 37.7929 54.0803 35.4813 54.0803 32.6297C54.0803 29.7782 56.3222 27.4666 59.0877 27.4666C61.8533 27.4666 64.8462 29.6844 64.8462 32.536C64.8462 33.7459 64.0373 35.8602 63.3613 36.7404C62.4441 37.9346 60.6798 37.7929 59.0877 37.7929Z" fill="white"></path> <path fill-rule="evenodd" clip-rule="evenodd" d="M74.7496 42.4323C74.721 42.4059 74.6757 42.3967 74.6412 42.4183C74.0516 42.7903 73.9818 44.0411 73.9751 44.7634C73.7312 44.8268 73.4902 44.8988 73.2624 44.9491C72.7786 45.0559 72.292 45.1491 71.8065 45.2473L71.4425 45.3222C70.2261 45.5779 68.987 45.7671 67.7474 45.8619C66.5443 45.9538 65.3064 45.9873 64.1067 45.8328C63.5916 45.7663 63.0795 45.6554 62.5817 45.5073C61.9932 45.3322 61.5246 45.042 60.9773 44.7878C59.6072 44.1512 58.4589 46.0167 59.7775 46.8353C60.9094 47.5378 62.4537 47.791 63.7603 47.8998C65.0958 48.0108 66.4262 47.8889 67.7456 47.6782C69.172 47.4502 70.5691 47.1002 71.922 46.5925C72.494 46.378 73.0476 46.1178 73.588 45.8333L73.7351 45.7551C73.8249 45.707 73.9186 45.6582 74.0127 45.6087C74.114 46.5096 74.4058 47.3798 74.7583 48.2162L74.7666 48.2016C74.9595 48.8614 75.6561 49.2696 76.3492 48.9782C77.1627 48.6363 77.2245 47.7388 76.7512 47.1018L76.7286 47.0721C76.172 46.3579 75.8233 45.4718 75.5202 44.6272C75.3647 44.1943 75.2208 43.7508 75.096 43.3079C75.0056 42.9875 75.0024 42.6652 74.7496 42.4323ZM53.7857 35.2583C54.2679 36.712 55.3196 37.8314 56.7846 38.3236C58.2365 38.8115 59.8513 38.6337 61.3354 38.3699C61.6601 38.3122 61.9892 38.2485 62.3176 38.1742C62.0488 38.3403 61.8113 38.5741 61.5841 38.8213C61.2481 39.1868 60.9434 39.572 60.851 40.0295C60.7593 40.4834 60.9038 40.8288 61.1673 41.0894C61.5727 41.4904 62.2266 41.7063 62.7805 41.8257C64.0209 42.0931 65.2634 42.0515 66.4976 41.7774C66.8128 41.7074 67.0265 41.5388 67.1464 41.319C67.2921 41.0519 67.3041 40.7198 67.2205 40.4173C67.1369 40.115 66.9563 39.8362 66.6943 39.6819C66.4786 39.555 66.2087 39.5201 65.9025 39.6218C65.2879 39.8258 64.6776 39.9609 64.0284 39.9765C63.7536 39.9829 63.477 39.9748 63.2027 39.9496C63.0475 39.9354 62.8927 39.9157 62.7388 39.8911C62.8294 39.7707 62.9175 39.648 63.0035 39.5241C63.1052 39.3776 63.2043 39.2292 63.2988 39.0784C63.5722 38.6416 63.7999 38.1926 63.9999 37.7187C64.0641 37.5669 64.1236 37.4144 64.1807 37.2614C64.1889 37.2394 64.1971 37.2173 64.2053 37.1952C64.2229 37.1805 64.2404 37.1657 64.2578 37.1507C64.649 36.813 64.9771 36.3971 65.2091 35.8819C65.8373 34.4863 65.7351 32.754 65.3538 31.3049C65.0484 30.1434 64.3741 29.0691 63.4832 28.3392C63.3276 28.0839 63.225 27.9291 63.0991 27.7986C62.5871 27.2673 61.8727 26.9089 61.1755 26.6909C59.6183 26.2038 57.9224 26.5533 56.6024 27.4807C55.3837 28.337 54.4296 29.6212 53.914 31.0496C53.4257 32.4023 53.3304 33.886 53.7857 35.2583ZM74.9958 26.4238C73.1439 26.408 71.2597 26.9534 69.757 28.0449C68.3193 29.0894 67.1907 30.6313 67.192 32.4681C67.1934 34.2564 68.1517 36.0146 69.2145 37.3992C70.4075 38.9536 71.9665 39.703 73.9267 39.7203C74.9456 39.7294 75.972 39.6394 76.9836 39.5157L77.5263 39.4475C78.2737 39.3513 79.0289 39.2375 79.7373 38.9813C83.1093 37.7612 83.2137 33.3583 81.9649 30.5439C81.0006 28.371 78.56 26.252 76.1263 26.5063C75.7596 26.4551 75.3831 26.4272 74.9958 26.4238ZM71.8682 28.4944C74.1873 27.4561 77.0049 27.767 79.2545 28.875C80.1456 29.8448 80.7969 31.0671 81.0604 32.1892C81.3418 33.3869 81.3007 34.6772 80.8775 35.8381C80.3609 37.2553 79.0888 37.6063 77.7164 37.8241L77.1837 37.9075L76.9601 37.9413C75.6117 38.142 74.1375 38.298 72.8417 38.0469C71.3975 37.7667 70.4803 36.6029 69.7584 35.4097L69.7247 35.3537C68.9751 34.1035 68.3475 32.583 68.9763 31.1504C69.5109 29.9328 70.6787 29.027 71.8682 28.4944ZM58.1802 28.8562C58.9761 28.4163 59.8838 28.3364 60.7432 28.6308C61.113 28.7575 61.4324 28.9628 61.7422 29.1929L61.8657 29.2862C62.2467 29.5779 62.6025 29.7256 62.8883 30.1196L62.9251 30.1724C63.0693 30.3872 63.3216 30.4731 63.5513 30.4445C63.8191 31.1809 63.9296 31.9773 63.9319 32.7613L63.9316 32.8652L63.9303 32.9711C63.9131 33.8978 63.751 35.0314 63.0201 35.6525C62.3534 36.2189 61.344 36.3548 60.4427 36.4337L59.7482 36.4915L59.5636 36.5054C58.6136 36.5713 57.5727 36.5488 56.7766 35.9879C56.0832 35.4993 55.7561 34.67 55.6714 33.8513C55.4709 31.9169 56.4524 29.8112 58.1802 28.8562ZM75.5039 29.0348C74.2269 28.3845 72.6928 28.5475 71.611 29.3626C71.7071 29.3814 71.8017 29.4053 71.896 29.4525C72.1414 29.5752 72.2938 29.821 72.3518 30.0826C72.4172 30.3782 72.2637 30.6581 71.9711 30.7514C71.7165 30.8324 71.4147 30.8695 71.1782 30.7152C71.0543 30.6345 70.9678 30.528 70.911 30.394L70.9029 30.3743L70.8929 30.3598L70.8892 30.353C70.8883 30.3505 70.8928 30.3554 70.8998 30.3664C70.8926 30.3497 70.8859 30.333 70.8792 30.316C70.8693 30.2957 70.8597 30.2753 70.852 30.2542C70.8382 30.2424 70.8257 30.2292 70.813 30.216C70.6165 30.5177 70.4622 30.8584 70.3642 31.2374C69.7354 33.6701 72.3138 36.1946 74.6173 36.4472C75.4878 36.5427 76.2817 36.3359 76.9404 35.9283C76.9344 35.9203 76.9278 35.9131 76.9223 35.9047C76.6576 35.9521 76.3418 35.834 76.2457 35.5395C76.0005 34.7885 76.252 33.9099 77.0723 33.6645C77.6003 33.5065 78.1405 33.6811 78.5178 34.041C78.8032 33.3443 78.9053 32.56 78.7702 31.7744C78.5797 30.666 77.9095 29.6672 76.8664 29.2061C76.3585 28.9814 75.9208 28.9342 75.5039 29.0348ZM62.0548 30.5358L62.0159 30.4747C61.6213 29.8689 60.8669 29.1258 60.0852 29.3301C59.9753 29.3588 59.8677 29.405 59.7706 29.465C59.3411 29.4068 58.8914 29.5041 58.5221 29.7307L58.5321 29.7562C58.5337 29.7604 58.5351 29.7647 58.5362 29.7692C58.5699 29.9166 58.5503 30.0528 58.4813 30.1882C58.4065 30.3349 58.2998 30.4739 58.1553 30.5581C58.0563 30.6157 57.9397 30.646 57.8255 30.6437C57.6581 30.6407 57.5106 30.5672 57.3896 30.4549C57.3238 30.394 57.2778 30.3047 57.2525 30.2128C57.1928 30.2699 57.1349 30.3335 57.0797 30.4057C56.1733 31.5946 56.2986 33.5052 57.3619 34.565C57.4049 34.6077 57.4505 34.6463 57.4956 34.6857C57.9273 35.2785 58.5928 35.6809 59.392 35.7623C60.132 35.8378 60.872 35.6195 61.4395 35.172C61.3938 35.1478 61.3512 35.1164 61.3144 35.0748C61.2175 34.9653 61.1378 34.8574 61.0789 34.7238C61.0641 34.6901 61.0498 34.6563 61.0363 34.6221L61.0166 34.5705C61.0132 34.5611 60.983 34.4741 60.991 34.4894L60.9929 34.4929L60.9822 34.4679C60.8806 34.215 60.9216 33.9259 61.1627 33.7673L61.1893 33.7508C61.268 33.705 61.3656 33.6834 61.4644 33.6831C61.7105 33.3825 62.0768 33.3136 62.4207 33.4014L62.4327 33.3044C62.4346 33.2882 62.4362 33.272 62.4373 33.2557C62.7037 32.3747 62.5752 31.3735 62.0548 30.5358ZM73.8831 21.6656L73.7946 21.6518C73.1257 21.5554 72.6709 21.6664 72.236 22.2367C72.0288 22.5084 72.0927 22.9188 72.236 23.1965C72.6991 24.0939 73.973 23.9083 74.831 24.0866C75.6687 24.2604 76.5044 24.4971 77.2882 24.8416C78.088 25.1931 78.8388 25.609 79.5709 26.0838C80.233 26.5135 80.8336 27.1594 81.5901 27.4094C81.6242 27.4207 81.6652 27.3902 81.663 27.3542C81.6092 26.496 80.8906 25.7082 80.334 25.097C79.6903 24.3903 78.9073 23.7627 78.092 23.2638C77.2506 22.7492 76.3411 22.3254 75.3994 22.0299C74.9035 21.8742 74.3962 21.7505 73.8831 21.6656ZM63.6932 22.8308C62.851 21.6023 60.7574 21.8379 59.5221 22.1662C57.9731 22.5776 56.2948 23.4097 55.2086 24.6141C54.2357 25.6931 55.6913 27.0949 56.7854 26.187L57.0773 25.9454L57.2642 25.7924C58.104 25.1081 58.9358 24.4888 59.9592 24.0326C61.1593 23.4979 62.3753 23.2374 63.6436 22.9525C63.6935 22.9414 63.7228 22.8739 63.6932 22.8308Z" fill="black"></path> <path fill-rule="evenodd" clip-rule="evenodd" d="M76.4673 50.3311C75.364 47.7527 72.9559 45.8576 70.1834 45.1648C68.1474 44.6573 66.0106 44.6735 63.9352 44.875C62.8478 44.9797 61.6814 45.0656 60.6566 45.4684C59.7815 45.8126 59.0684 46.4631 58.5321 47.2267C57.8938 48.1315 57.4597 49.1671 57.1548 50.2286C57.1116 50.3795 57.0709 50.5316 57.0329 50.6844C57.1655 51.4853 57.4469 52.1669 58.1905 52.6704C58.9162 53.1621 59.7821 53.3633 60.6452 53.4347C60.7298 53.3942 60.8116 53.3525 60.8866 53.3098C62.2316 52.5417 63.1783 50.7266 64.876 50.9722C66.391 51.1916 67.3883 53.0931 68.2893 54.2082C71.1813 54.5444 74.0712 53.6775 76.4243 52.0278C76.5438 51.4632 76.5508 50.8938 76.4673 50.3311ZM55.0674 48.3751C55.2987 47.7275 55.5901 47.1003 55.9355 46.5094C57.0774 44.5553 58.8303 42.9983 60.9112 42.1083C65.8338 40.0058 72.2031 41.4879 76.1785 44.9362C77.5365 46.115 78.9095 47.8472 79.3248 49.7106C79.4488 49.735 79.5658 49.7994 79.6622 49.8901C82.5343 48.0862 85.4921 46.3507 87.8066 43.8502C89.4874 42.0335 90.6564 39.8834 91.3723 37.5208C91.4308 37.3263 91.7452 37.3548 91.7357 37.5699C91.7329 37.6203 91.7302 37.6705 91.7275 37.7208C91.7574 37.6283 91.899 37.6759 91.9099 37.7658C92.295 40.6358 92.7768 43.6788 92.3331 46.5638C92.0677 48.2853 91.2838 49.5456 90.2359 50.9065C89.1131 52.3652 87.8419 53.722 86.5422 55.0231C85.7175 55.849 84.856 56.8017 83.8462 57.4072C82.6716 58.1108 81.3393 58.6458 80.0858 59.1886C78.8106 59.7425 77.5163 60.2542 76.1975 60.6978C73.5614 61.5878 70.8367 62.203 68.0644 62.4724C65.8447 62.6874 63.3079 62.9216 61.1807 62.0886C59.5502 61.4504 58.2342 60.2965 57.1903 58.9083C56.0539 57.3964 55.1556 55.6742 54.6589 53.8581C54.1429 51.9716 54.9586 48.6793 55.0674 48.3751Z" fill="black"></path> <rect width="17" height="14" transform="matrix(-1 0 0 1 34.5691 99)" fill="white"></rect> <g clip-path="url(#clip1)"> <path d="M27.86 102.767C28.9866 104.111 29.7097 104.66 31.1931 105.203C29.6526 106.122 28.9522 107.216 28.1562 110.788C27.6273 108.514 27.2434 107.273 24.6415 105.805C26.0573 105.364 26.7932 104.845 27.86 102.767Z" fill="white"></path> <path d="M30.2255 105.855C28.7034 106.842 28.2591 108.741 28.3258 110.452C27.7955 108.289 27.1269 106.198 24.7211 105.555C26.0352 105.235 27.3402 104.435 27.6255 103.022C28.3379 104.229 29.7445 105.137 31.1011 105.45C30.8008 105.561 30.4933 105.68 30.2255 105.855ZM28.8135 111.653C29.1615 110.939 29.0564 111.495 29.1614 110.301C29.1611 110.305 29.1607 110.309 29.1615 110.314C29.1626 110.275 29.1638 110.234 29.1649 110.194C29.1641 110.203 29.1644 110.214 29.1635 110.223C29.1639 110.204 29.1645 110.184 29.1649 110.166C29.1647 110.169 29.1644 110.171 29.1642 110.174C29.1647 110.154 29.1652 110.135 29.1657 110.116C29.1652 110.121 29.1659 110.127 29.1654 110.133C29.0453 107.526 30.6103 106.128 33.1111 105.922C33.4766 105.824 33.5894 105.306 33.3043 105.061C32.8267 104.658 32.2724 105.291 31.7487 105.123L31.75 105.124C30.178 104.826 28.1511 103.704 28.0157 101.947C28.0166 101.951 28.0164 101.953 28.0173 101.957C27.9561 101.383 27.9326 100.803 27.8512 100.23C27.7835 99.8916 27.2826 99.8907 27.217 100.233C27.1705 100.499 27.1709 100.776 27.1428 101.044C27.2424 103.447 26.0214 104.608 23.6696 104.771C23.6897 104.769 23.7098 104.767 23.7313 104.765C22.9593 104.706 21.8526 105.306 23.037 105.823C24.5569 106.166 26.3797 106.58 26.9704 108.231C27.4594 109.791 27.2253 109.42 27.6391 111.002C27.7196 111.458 28.1466 112.169 28.8135 111.653Z" fill="#1A1A1A"></path> </g> </g> <defs> <clipPath id="clip0"> <rect width="137" height="149" fill="white" transform="matrix(-1 0 0 1 137 0)"></rect> </clipPath> <clipPath id="clip1"> <rect width="10.9106" height="11.8881" fill="white" transform="translate(21.3452 101.36) rotate(-12.4928)"></rect> </clipPath> </defs> </svg> 