<?xml version="1.0" encoding="UTF-8"?> <svg xmlns="http://www.w3.org/2000/svg" width="284" height="222" viewBox="0 0 284 222" fill="none"> <path d="M115.348 130.799L114.873 130.957L115.348 130.799ZM281.19 220.546C281.145 220.819 280.888 221.004 280.616 220.959L276.175 220.232C275.902 220.187 275.718 219.93 275.762 219.658C275.807 219.385 276.064 219.2 276.337 219.245L280.284 219.891L280.93 215.944C280.975 215.671 281.232 215.487 281.504 215.531C281.777 215.576 281.962 215.833 281.917 216.105L281.19 220.546ZM1.19711 0.762524C2.27763 1.56572 3.34835 2.35303 4.40949 3.12543L3.82099 3.93393C2.75722 3.15961 1.6838 2.37032 0.600536 1.56508L1.19711 0.762524ZM7.61541 5.43535C9.82007 7.00788 11.9827 8.51816 14.1051 9.97551L13.5391 10.7999C11.4122 9.33946 9.24465 7.82576 7.03472 6.24947L7.61541 5.43535ZM17.3727 12.1998C19.615 13.7136 21.8119 15.1715 23.9656 16.5853L23.4168 17.4213C21.2602 16.0056 19.0597 14.5453 16.8131 13.0287L17.3727 12.1998ZM27.283 18.7518C29.5435 20.221 31.7555 21.6464 33.9225 23.0426L33.3809 23.8832C31.2141 22.4871 29.0005 21.0607 26.7381 19.5902L27.283 18.7518ZM37.2617 25.1957C39.5255 26.6577 41.7397 28.095 43.9071 29.5247L43.3564 30.3594C41.193 28.9324 38.9819 27.4971 36.7192 26.0358L37.2617 25.1957ZM47.2059 31.7211C49.4289 33.2166 51.6029 34.714 53.7314 36.2331L53.1505 37.047C51.0311 35.5344 48.8649 34.0424 46.6477 32.5508L47.2059 31.7211ZM56.9449 38.5708C59.08 40.1557 61.1695 41.7743 63.2175 43.4482L62.5846 44.2225C60.5502 42.5596 58.473 40.9506 56.3489 39.3738L56.9449 38.5708ZM66.2601 46.0044C68.2509 47.7248 70.2028 49.5102 72.1195 51.3816L71.4209 52.0971C69.5195 50.2407 67.5827 48.4691 65.6062 46.7611L66.2601 46.0044ZM74.9239 54.2092C76.7246 56.0845 78.4948 58.0478 80.238 60.1175L79.4732 60.7617C77.7442 58.7089 75.9885 56.7617 74.2026 54.9018L74.9239 54.2092ZM82.7481 63.1964C84.3498 65.226 85.9294 67.3556 87.4897 69.6002L86.6686 70.171C85.1197 67.9428 83.5521 65.8294 81.9631 63.8159L82.7481 63.1964ZM89.7081 72.8897C91.1137 75.0375 92.5043 77.2866 93.8822 79.6481L93.0185 80.152C91.6489 77.8048 90.2672 75.5703 88.8714 73.4372L89.7081 72.8897ZM95.851 83.115C97.09 85.3562 98.3194 87.6943 99.5409 90.1376L98.6465 90.5848C97.4309 88.1533 96.2079 85.8274 94.9758 83.5988L95.851 83.115ZM101.283 93.7053C102.391 96.0274 103.493 98.4403 104.59 100.951L103.673 101.351C102.58 98.8505 101.483 96.4475 100.38 94.1359L101.283 93.7053ZM106.136 104.56C107.13 106.928 108.121 109.379 109.11 111.918L108.178 112.281C107.192 109.75 106.205 107.307 105.214 104.947L106.136 104.56ZM110.539 115.656C111.445 118.066 112.349 120.552 113.253 123.117L112.309 123.45C111.408 120.89 110.506 118.411 109.603 116.007L110.539 115.656ZM114.538 126.825C114.966 128.079 115.394 129.351 115.823 130.642L114.873 130.957C114.446 129.668 114.019 128.399 113.592 127.148L114.538 126.825ZM115.823 130.642C116.25 131.931 116.69 133.188 117.143 134.413L116.205 134.76C115.748 133.524 115.304 132.256 114.873 130.957L115.823 130.642ZM118.537 137.997C119.564 140.502 120.647 142.867 121.782 145.098L120.89 145.552C119.742 143.295 118.649 140.906 117.612 138.376L118.537 137.997ZM123.652 148.575C124.987 150.92 126.384 153.103 127.841 155.138L127.028 155.72C125.55 153.656 124.134 151.443 122.783 149.07L123.652 148.575ZM130.184 158.223C131.867 160.31 133.62 162.224 135.437 163.979L134.742 164.698C132.895 162.914 131.114 160.97 129.405 158.85L130.184 158.223ZM138.306 166.577C140.323 168.289 142.411 169.829 144.562 171.219L144.019 172.059C141.833 170.647 139.71 169.08 137.659 167.34L138.306 166.577ZM147.891 173.224C150.166 174.5 152.504 175.627 154.898 176.628L154.512 177.55C152.085 176.536 149.712 175.392 147.401 174.096L147.891 173.224ZM158.533 178.038C160.97 178.913 163.457 179.673 165.988 180.34L165.733 181.307C163.178 180.634 160.662 179.865 158.195 178.979L158.533 178.038ZM169.787 181.266C172.311 181.835 174.872 182.323 177.464 182.753L177.301 183.739C174.693 183.307 172.113 182.815 169.567 182.242L169.787 181.266ZM181.337 183.349C183.905 183.717 186.499 184.037 189.11 184.329L188.999 185.322C186.38 185.03 183.776 184.708 181.195 184.339L181.337 183.349ZM193.013 184.745C195.605 185.01 198.211 185.256 200.824 185.503L200.73 186.499C198.117 186.252 195.508 186.005 192.911 185.739L193.013 184.745ZM204.735 185.875C207.341 186.126 209.95 186.386 212.555 186.674L212.445 187.668C209.847 187.381 207.243 187.121 204.639 186.87L204.735 185.875ZM216.46 187.13C219.068 187.452 221.669 187.812 224.255 188.227L224.097 189.214C221.524 188.801 218.936 188.443 216.337 188.123L216.46 187.13ZM228.133 188.897C230.722 189.377 233.294 189.923 235.84 190.556L235.599 191.526C233.075 190.899 230.523 190.357 227.951 189.88L228.133 188.897ZM239.649 191.574C242.177 192.299 244.676 193.121 247.138 194.058L246.782 194.992C244.348 194.066 241.876 193.253 239.373 192.535L239.649 191.574ZM250.797 195.55C253.194 196.595 255.551 197.763 257.862 199.072L257.369 199.942C255.09 198.651 252.764 197.499 250.397 196.467L250.797 195.55ZM261.25 201.116C263.432 202.517 265.566 204.057 267.647 205.753L267.015 206.528C264.964 204.856 262.86 203.338 260.709 201.958L261.25 201.116ZM270.632 208.329C272.531 210.064 274.381 211.942 276.175 213.978L275.425 214.639C273.654 212.63 271.83 210.777 269.957 209.067L270.632 208.329ZM278.689 216.982C279.507 218.009 280.311 219.073 281.103 220.174L280.291 220.757C279.509 219.669 278.714 218.619 277.907 217.604L278.689 216.982ZM115.348 130.799L114.399 131.114L115.348 130.799ZM281.683 220.627C281.594 221.172 281.08 221.542 280.535 221.452L271.653 219.998C271.108 219.909 270.739 219.395 270.828 218.85C270.917 218.305 271.431 217.935 271.976 218.025L279.871 219.317L281.164 211.422C281.253 210.877 281.767 210.508 282.312 210.597C282.857 210.686 283.227 211.2 283.138 211.745L281.683 220.627ZM1.4954 0.361247C2.57454 1.16342 3.64392 1.94974 4.70374 2.72118L3.52673 4.33817C2.46165 3.5629 1.38688 2.77262 0.302248 1.96636L1.4954 0.361247ZM7.90576 5.02829C10.1078 6.59894 12.2679 8.1075 14.3882 9.56332L13.2561 11.2121C11.1269 9.75012 8.95694 8.2347 6.74437 6.65653L7.90576 5.02829ZM17.6524 11.7854C19.8927 13.2977 22.0877 14.7545 24.2399 16.1673L23.1424 17.8393C20.9844 16.4227 18.7821 14.9611 16.5334 13.4431L17.6524 11.7854ZM27.5555 18.3325C29.815 19.8012 32.0262 21.226 34.1933 22.6223L33.1101 24.3035C30.9434 22.9075 28.7289 21.4806 26.4656 20.0094L27.5555 18.3325ZM37.533 24.7757C39.7973 26.2381 42.013 27.6764 44.1824 29.1073L43.0811 30.7768C40.9197 29.3511 38.7101 27.9168 36.448 26.4558L37.533 24.7757ZM47.485 31.3062C49.7109 32.8038 51.8888 34.3038 54.0219 35.8261L52.8601 37.454C50.7451 35.9446 48.5828 34.4553 46.3686 32.9656L47.485 31.3062ZM57.2429 38.1694C59.3835 39.7583 61.4792 41.3817 63.5339 43.0611L62.2682 44.6096C60.2405 42.9522 58.1696 41.348 56.0508 39.7753L57.2429 38.1694ZM66.587 45.6261C68.585 47.3527 70.5444 49.1449 72.4688 51.0239L71.0716 52.4549C69.1779 50.606 67.2486 48.8412 65.2793 47.1394L66.587 45.6261ZM75.2846 53.8629C77.0927 55.7459 78.8701 57.7173 80.6204 59.7954L79.0907 61.0838C77.3688 59.0394 75.6205 57.1003 73.8419 55.2481L75.2846 53.8629ZM83.1406 62.8866C84.7487 64.9243 86.3343 67.0621 87.9003 69.3148L86.2581 70.4564C84.7148 68.2363 83.1533 66.1311 81.5706 64.1256L83.1406 62.8866ZM90.1265 72.6159C91.5369 74.7711 92.932 77.0275 94.3141 79.3961L92.5867 80.404C91.2212 78.0639 89.844 75.8367 88.453 73.711L90.1265 72.6159ZM96.2886 82.8731C97.5311 85.1206 98.7637 87.4648 99.9882 89.914L98.1993 90.8084C96.9866 88.3828 95.7668 86.063 94.5383 83.8407L96.2886 82.8731ZM101.734 93.49C102.845 95.8173 103.949 98.2353 105.048 100.75L103.215 101.551C102.124 99.0555 101.029 96.6576 99.9292 94.3511L101.734 93.49ZM106.597 104.366C107.593 106.739 108.586 109.194 109.576 111.737L107.712 112.462C106.728 109.935 105.742 107.496 104.753 105.14L106.597 104.366ZM111.007 115.48C111.914 117.893 112.82 120.382 113.724 122.951L111.838 123.616C110.938 121.059 110.037 118.583 109.135 116.183L111.007 115.48ZM115.011 126.663C115.44 127.918 115.869 129.192 116.297 130.485L114.399 131.114C113.972 129.827 113.545 128.559 113.118 127.309L115.011 126.663ZM116.297 130.485C116.723 131.768 117.161 133.02 117.612 134.24L115.736 134.933C115.277 133.691 114.832 132.419 114.399 131.114L116.297 130.485ZM119 137.807C120.022 140.301 121.099 142.653 122.227 144.872L120.445 145.778C119.29 143.509 118.191 141.107 117.149 138.565L119 137.807ZM124.087 148.328C125.413 150.658 126.801 152.827 128.248 154.847L126.621 156.011C125.133 153.933 123.708 151.705 122.349 149.317L124.087 148.328ZM130.573 157.909C132.244 159.981 133.983 161.878 135.784 163.619L134.395 165.057C132.533 163.259 130.738 161.3 129.016 159.164L130.573 157.909ZM138.629 166.196C140.63 167.893 142.7 169.421 144.833 170.799L143.748 172.479C141.544 171.055 139.404 169.476 137.335 167.721L138.629 166.196ZM148.135 172.788C150.392 174.053 152.713 175.173 155.091 176.166L154.319 178.011C151.876 176.99 149.486 175.838 147.157 174.532L148.135 172.788ZM158.702 177.567C161.124 178.437 163.597 179.193 166.116 179.857L165.606 181.791C163.038 181.114 160.508 180.341 158.026 179.449L158.702 177.567ZM169.897 180.778C172.41 181.345 174.962 181.831 177.546 182.259L177.219 184.232C174.604 183.799 172.014 183.305 169.457 182.73L169.897 180.778ZM181.407 182.854C183.97 183.221 186.558 183.54 189.166 183.832L188.944 185.819C186.321 185.526 183.712 185.204 181.124 184.834L181.407 182.854ZM193.063 184.247C195.654 184.512 198.258 184.758 200.871 185.005L200.683 186.996C198.07 186.75 195.459 186.502 192.86 186.237L193.063 184.247ZM204.783 185.377C207.39 185.628 210.001 185.889 212.61 186.177L212.39 188.165C209.795 187.878 207.194 187.619 204.591 187.368L204.783 185.377ZM216.521 186.634C219.134 186.956 221.741 187.317 224.335 187.733L224.017 189.708C221.452 189.296 218.87 188.939 216.276 188.619L216.521 186.634ZM228.224 188.405C230.822 188.887 233.403 189.435 235.96 190.07L235.478 192.011C232.965 191.387 230.424 190.847 227.86 190.372L228.224 188.405ZM239.787 191.093C242.327 191.822 244.839 192.648 247.316 193.591L246.604 195.46C244.185 194.539 241.726 193.73 239.235 193.015L239.787 191.093ZM250.997 195.092C253.409 196.144 255.782 197.319 258.108 198.637L257.122 200.377C254.86 199.095 252.549 197.951 250.197 196.925L250.997 195.092ZM261.52 200.695C263.717 202.106 265.867 203.657 267.963 205.366L266.7 206.916C264.663 205.256 262.575 203.749 260.439 202.378L261.52 200.695ZM270.969 207.96C272.882 209.707 274.744 211.598 276.55 213.647L275.049 214.969C273.291 212.974 271.479 211.134 269.62 209.437L270.969 207.96ZM279.081 216.67C279.903 217.704 280.713 218.774 281.509 219.882L279.885 221.049C279.107 219.968 278.318 218.924 277.516 217.915L279.081 216.67Z" fill="#B7BEE3"></path> </svg> 