<?xml version="1.0" encoding="UTF-8"?> <svg xmlns="http://www.w3.org/2000/svg" width="110" height="113" viewBox="0 0 110 113" fill="none"> <g clip-path="url(#clip0)"> <path fill-rule="evenodd" clip-rule="evenodd" d="M2.99885 67.666C4.53517 67.8167 6.07149 67.9672 7.60781 68.1179C14.9657 68.6795 22.3206 69.8525 29.6222 70.5565C29.804 70.2609 30.1598 70.3096 30.3759 70.515C31.1044 70.4513 31.921 69.8949 32.581 70.4737C32.6024 70.4706 32.6239 70.4671 32.6455 70.4651C33.8206 68.2116 34.6329 65.8081 35.4212 63.4014C35.9244 61.9217 36.6014 60.4893 37.8524 59.4958C39.9874 58.0151 44.8793 55.0124 47.3863 55.1386C47.4279 54.6901 47.6372 54.2279 47.9807 53.9292C47.2235 52.6394 50.2512 51.7978 50.4648 51.9473C50.3279 47.638 52.3567 43.8957 56.8303 43.0375C60.8381 42.2031 66.5385 42.063 68.694 46.2477C68.9309 46.221 71.3529 46.2084 71.5872 46.2346C71.9516 45.7736 75.9528 50.1425 74.3129 51.6634C88.9744 58.1435 97.311 57.3703 101.369 75.5876C101.918 77.2989 101.958 79.1716 102.537 80.8448C104.598 85.6532 106.27 90.7733 106.686 96.0054C107.691 96.2626 107.806 98.0328 106.642 98.2888C106.198 98.3868 105.826 98.5205 105.502 98.7741C105.755 103.062 104.717 112.856 104.063 112.826C102.73 117.066 96.7821 118.262 92.5713 116.772C93.2972 118.137 92.5713 118.995 92.5713 119.724C77.4197 120.297 60.8531 119.967 45.7057 120.752C43.7681 120.725 41.7301 121.228 39.819 120.938C38.6535 120.659 38.6515 118.828 39.8337 118.602L34.668 117.481C34.7835 117.437 32.5387 115.945 30.8421 113.158C29.263 110.039 30.3377 106.275 29.6222 102.883C24.0335 102.426 18.3524 102.231 12.8248 101.285C12.0712 103.538 8.80865 100.844 7.77162 99.7598C7.77292 99.7581 7.7742 99.7565 7.7755 99.7548C7.27362 99.6176 6.87115 99.1476 6.85769 98.5912C6.50573 98.0888 6.43185 97.3806 6.76938 96.895C5.22239 87.9763 2.86401 78.8701 2.01157 69.8675C1.71023 69.8008 1.42644 69.6688 1.18585 69.4655L1.20534 69.446C0.797702 68.9919 0.718432 68.2082 1.39801 67.8224C1.9462 67.5108 2.40392 67.6075 2.99885 67.666Z" fill="#EDB98A"></path> <path fill-rule="evenodd" clip-rule="evenodd" d="M61.4288 101.046L60.2453 101.799L50.5622 104.916L44.6448 105.669L39.8032 104.916V113.194L38.8349 120.933C39.2653 121.722 43.3537 121.722 51.1002 120.933C56.0383 120.431 74.0861 120.187 78.1952 120.08L78.428 120.073C83.2566 119.934 88.0265 119.934 92.7375 120.073V117.171L79.2888 110.506L67.2387 103.734L61.4288 101.046ZM68.29 45.571L67.4007 46.2345L69.3423 49.4218L59.8838 57.0659V63.1716L56.8893 66.0014L55.1776 63.1716L52.7658 59.967L51.0518 54.7723L51.6354 51.35L50.4618 51.2396C50.4561 51.4735 50.4571 51.7095 50.4646 51.9472C50.251 51.7977 47.2233 52.6393 47.9805 53.9291C47.637 54.2277 47.4277 54.69 47.3861 55.1384C44.8791 55.0122 39.9872 58.0149 37.8522 59.4957C36.6012 60.4892 35.9242 61.9216 35.421 63.4012L35.3026 63.7622L35.1802 64.1328L35.057 64.503C34.3762 66.5385 33.641 68.5556 32.6453 70.4649C32.6237 70.467 32.6022 70.4705 32.5808 70.4735C31.9208 69.8948 31.1043 70.4512 30.3757 70.5149C30.1647 70.3143 29.8203 70.2631 29.635 70.5363L29.622 70.5564L38.6995 72.3431L44.688 93.3311L49.9032 89.1015L52.7025 89.5174L60.0949 92.1813L68.6927 94.4127L88.3204 99.8192H90.8199L105.364 96.31L106.675 95.8777C106.242 90.69 104.581 85.614 102.537 80.8447C101.958 79.1715 101.918 77.2988 101.369 75.5874C97.3109 57.3702 88.9743 58.1434 74.3127 51.6633C75.9526 50.1423 71.9514 45.7735 71.5871 46.2345L71.5641 46.2325L71.5144 46.2299L71.4505 46.2276C70.8785 46.211 68.9064 46.2236 68.6938 46.2475C68.5705 46.0081 68.4355 45.7828 68.29 45.571Z" fill="#1A1A1A"></path> <path fill-rule="evenodd" clip-rule="evenodd" d="M1.54821 68.3032L1.81859 69.8087C1.88285 69.8297 1.94824 69.8475 2.01446 69.8622C2.09944 70.7596 2.19939 71.6581 2.312 72.5573L3.98835 81.8923C4.27748 83.5437 4.55196 85.1987 4.82444 86.8543L5.1855 88.6327L5.40911 89.7379C5.89181 92.1315 6.36075 94.5172 6.77226 96.8897C6.71015 96.9791 6.66197 97.076 6.62689 97.1777L6.65856 97.3114L6.68058 97.4006L6.70311 97.4887C7.02779 98.7357 7.59275 99.945 8.92414 100.312C9.92841 100.589 11.0303 100.614 12.0673 100.723L12.1823 100.735L30.3283 102.774C32.5209 103.021 34.7124 103.274 36.9038 103.531L38.8035 103.753C41.4513 104.06 44.1143 104.301 46.7232 104.855C46.819 104.876 46.8984 104.914 46.9632 104.964C46.4378 102.977 45.935 100.993 45.4792 98.9862C44.9662 96.7274 44.4794 94.4642 43.9307 92.2135C42.8253 87.6793 41.5862 83.1749 40.2297 78.7092C39.945 77.7719 39.6538 76.8365 39.3561 75.9033L39.1473 75.2509L38.9866 74.7311C38.7378 73.9385 38.43 73.1238 37.7007 72.6866C36.8471 72.1749 35.6831 72.0901 34.715 71.9131L34.0595 71.7901C33.0786 71.6072 32.0965 71.4313 31.1133 71.2624C26.4056 70.4534 21.6712 69.8044 16.9194 69.3169C11.9747 68.8096 7.01288 68.4799 2.04501 68.3188L1.54821 68.3032ZM46.5869 99.428L46.5406 99.4319L47.2184 104.845C47.3268 104.77 47.4644 104.723 47.6323 104.724C49.8556 104.73 51.9869 104.02 54.0483 103.24L54.3622 103.12L55.2374 102.784C56.1271 102.444 57.0215 102.111 57.9326 101.834L58.3008 101.723L58.4881 101.668C59.1779 101.467 59.9035 101.284 60.621 101.238L60.7188 101.233L60.5099 101.124C60.4793 101.108 60.4525 101.09 60.4287 101.07C60.0338 101.099 59.6381 101.091 59.2215 101.016C58.438 100.876 57.6762 100.603 56.9766 100.224L56.6642 100.055L56.5363 99.9871L56.4518 99.9433L56.3678 99.9009C55.7669 99.6016 55.1924 99.4143 54.4338 99.5736C53.5727 99.7548 52.818 100.218 52.0417 100.61L51.9039 100.679L51.8113 100.724L51.7169 100.768L51.6213 100.812C50.5715 101.284 48.9008 101.793 48.4983 100.367C48.3366 99.7939 48.4632 99.2574 48.7438 98.787C48.2209 98.7418 47.2868 99.3577 46.5869 99.428ZM20.4556 81.5914L20.4429 81.6563C20.2945 82.4547 20.6667 83.2185 21.23 83.7753C21.6921 84.232 22.5099 84.4858 22.7416 85.1427C22.8735 85.5164 22.7332 85.8709 22.4623 86.118L22.5247 86.1488L22.5857 86.1799L22.6452 86.2114L22.7033 86.2431L22.7598 86.275C23.6802 86.8033 24.4296 87.6624 23.5996 88.7001C22.658 89.8772 20.6905 89.9153 19.3043 89.8232L19.2109 89.8167C17.8667 89.716 16.2745 89.2649 15.5456 88.0249C15.2114 87.456 15.2482 86.768 15.7141 86.2812C15.9953 85.9875 16.4967 85.6859 16.9566 85.6502C16.9365 85.3913 16.9673 85.1413 17.0585 84.9303C17.2556 84.4742 17.7801 84.167 18.286 84.156C18.245 83.1875 19.0214 82.2315 19.5931 81.4572L19.6514 81.3778L19.7081 81.2997C19.9704 80.9351 20.5316 81.1393 20.4556 81.5914ZM19.6887 82.6222L19.1679 84.5715L19.1768 84.5876C19.3603 84.9357 18.8794 85.3308 18.5941 85.0383L18.5654 85.0074C18.2268 84.658 17.7072 85.1276 17.7007 85.4994C17.6914 86.0229 18.0325 86.4276 18.4388 86.6949L18.4673 86.7134L18.5422 86.7599C18.8757 86.98 18.6232 87.4404 18.2566 87.3844C17.803 87.3151 17.4313 86.9556 17.2021 86.5068C16.9572 86.5769 16.6786 86.5684 16.4207 86.7125C15.7708 87.0757 16.1446 87.7109 16.5678 88.0949L16.5849 88.1103L16.6194 88.1403C17.3958 88.8018 18.4529 89.0316 19.4493 89.0808L19.5067 89.0835C20.5132 89.1265 21.8245 89.1409 22.6872 88.5494C23.224 88.1814 23.3795 87.6594 22.9251 87.165C22.6682 86.8856 22.4088 86.6038 22.1418 86.3314C21.7421 86.5219 21.3851 86.4447 20.9764 86.2643C20.924 86.2411 20.953 86.161 21.0043 86.161C21.2299 86.1608 22.0573 85.7425 22.0976 85.4753C22.1347 85.2279 21.677 85.0194 21.4544 84.8999L21.4221 84.8822L21.3941 84.866C21.1613 84.725 20.9422 84.561 20.7418 84.3768C20.2334 83.9091 19.8641 83.3226 19.7028 82.6807L19.6887 82.6222Z" fill="white"></path> <path fill-rule="evenodd" clip-rule="evenodd" d="M68.4145 45.2756C67.958 44.1294 66.4149 44.5749 66.5869 45.7791C66.6899 46.5004 67.0853 47.2622 67.4404 47.8944C67.7296 48.409 68.0595 48.9112 68.5068 49.2969C67.7106 50.0391 66.8842 50.7541 66.0368 51.4331C65.1122 52.1738 64.1399 52.8567 63.1349 53.4842C62.2536 54.0346 61.3325 54.5222 60.5018 55.1502C59.7295 55.734 59.0258 56.4362 58.6678 57.3528C58.2863 58.3289 58.4521 59.3369 58.733 60.3124L58.7652 60.4227C59.0522 61.3891 59.5489 62.554 58.8601 63.4645C58.5095 63.928 57.9997 64.2563 57.5596 64.6268C57.1684 64.9562 56.8012 65.3144 56.4644 65.6991C55.7301 66.5378 55.1329 67.4815 54.756 68.533L54.7223 68.6286C54.3993 69.5594 54.1632 70.6998 54.5997 71.6137C54.7249 71.8756 55.1288 71.7905 55.1989 71.5354C55.3575 70.9575 55.3493 70.3523 55.4822 69.7662C55.6206 69.1567 55.8508 68.5782 56.1515 68.0308C56.7334 66.9719 57.5214 66.0674 58.4523 65.3027L58.731 65.0762C59.4572 64.4808 60.1245 63.849 60.2719 62.8635C60.4296 61.8091 60.0068 60.8046 59.7349 59.8066C59.5455 59.1111 59.4836 58.4444 59.6884 57.8159C59.9385 58.2238 60.2798 58.611 60.5497 58.9564C61.0873 59.6445 61.63 60.3284 62.1713 61.0136C62.7263 61.7162 63.2675 62.4298 63.783 63.162C64.0136 63.4895 64.2417 63.819 64.469 64.1488C64.64 64.3967 64.8784 64.6444 65.0647 64.8972C65.0194 65.0324 65.0229 65.1883 65.105 65.299C66.0932 66.6331 67.4991 63.8495 67.8657 63.1463C68.6124 61.7141 69.1681 60.1926 69.9173 58.7608C70.6935 57.2765 71.5775 55.8317 72.5627 54.4766C73.1586 53.657 73.8265 52.8871 74.3717 52.0414C75.656 53.2049 77.346 53.9849 78.8983 54.6923C80.6039 55.4693 82.3758 56.1041 84.1245 56.7782L84.641 56.9786C87.6541 58.1535 90.7407 59.4442 93.2451 61.5311C96.188 63.9834 97.9291 67.4013 99.2252 70.9407C100.717 75.0154 101.952 79.2 103.102 83.3819C103.691 85.5216 104.25 87.671 104.775 89.8273C105.238 91.727 105.622 93.6456 106.157 95.5257C105.071 95.4873 103.831 95.9076 102.904 96.029C98.6755 96.5819 94.5043 97.4634 90.5124 98.9895C90.0193 99.1781 89.8766 99.6701 89.984 100.069C89.6996 99.9887 89.4155 99.9074 89.1311 99.8277C89.4427 99.3507 89.294 98.498 89.2695 97.9694L89.268 97.933C89.2428 97.2286 89.1663 96.5234 89.1167 95.8203C89.0222 94.4799 88.8993 93.1494 88.7358 91.8167L88.6941 91.4835C88.5088 90.0336 88.3718 88.5752 88.1697 87.1277L88.1458 86.9621C88.2427 86.5918 88.3556 86.226 88.4741 85.8618C88.7897 84.8916 89.2353 83.9784 89.6257 83.0388C89.6718 82.9282 89.514 82.8647 89.4403 82.931C88.7791 83.5253 88.2538 84.2793 87.8319 85.0679C87.8245 85.0307 87.8181 84.9934 87.8104 84.9562L87.7623 84.7194C87.6436 84.1419 87.4991 83.5344 87.1446 83.066C87.1068 83.0162 87.0321 83.0058 86.9964 83.066C86.6571 83.6397 86.6191 84.3663 86.5669 85.0191C86.5079 85.7576 86.5004 86.5054 86.5109 87.246C86.5312 88.6932 86.6333 90.1445 86.7146 91.5894C86.7944 93.0092 86.9511 94.411 87.1531 95.8169L87.1915 96.0806C87.2902 96.7497 87.371 97.4272 87.5012 98.0918L87.538 98.2727C87.6076 98.6023 87.6505 99.067 87.789 99.453C84.2237 98.4595 80.6529 97.4885 77.0753 96.5347C74.4896 95.8452 71.9012 95.1661 69.3139 94.4826C69.1774 94.2368 69.0074 94.0072 68.7952 93.802C68.0962 93.1256 67.1698 92.8239 66.3202 93.3445C66.2511 93.3869 66.2453 93.4951 66.3202 93.536C66.483 93.6249 66.6461 93.7161 66.8063 93.8111L65.2527 93.3907C64.0915 93.0763 62.9164 92.6834 61.7278 92.4642C59.5387 91.3848 57.1842 90.6035 54.8781 89.8314L54.6064 89.7395C53.4256 89.3373 52.2043 88.8871 50.9843 88.6641C50.0912 88.5009 49.0429 88.6978 48.6837 89.612C48.229 89.9114 47.8013 90.2632 47.3884 90.6092C47.09 90.8593 46.8039 91.1251 46.513 91.3839L46.4594 91.431C46.2215 91.6372 46.0331 91.7752 45.9747 92.1034C45.9446 92.2729 46.0524 92.5021 46.2617 92.4797C46.9019 92.4112 47.4226 91.6697 47.8568 91.2269C48.1923 90.8846 48.5304 90.5307 48.8366 90.1546C49.0151 90.2517 49.2598 90.2343 49.3734 90.0193C49.9625 88.9047 51.5765 89.677 52.4695 89.9413L53.7487 90.3196C54.3883 90.5091 55.0276 90.6994 55.6659 90.8931C57.42 91.4253 59.1656 92.021 60.9356 92.5098C60.7773 92.6837 60.7991 92.9931 61.0999 93.1108C62.4855 93.6539 64.0055 93.9348 65.445 94.3075C66.3538 94.543 67.262 94.78 68.17 95.0183C68.3257 95.2703 68.4377 95.5553 68.4848 95.8872C68.6581 97.1073 68.3239 98.5151 67.9984 99.6952L67.9494 99.8713C67.6818 100.82 67.2881 101.983 66.4688 102.582C66.2688 102.728 66.0141 102.83 65.7574 102.853C64.1536 102.028 62.5498 101.204 60.9451 100.38C60.6478 100.228 60.3732 100.434 60.3065 100.68C59.7406 100.587 59.1761 100.441 58.6619 100.266C57.798 99.9733 57.1234 99.4142 56.3135 99.0276C54.7463 98.2796 53.1459 99.1984 51.7428 99.8969L51.4194 100.056C50.7902 100.361 49.4811 100.947 49.1792 100.112C48.8872 99.3053 49.8104 98.4428 50.4067 98.0796C51.1174 97.6465 51.945 97.4147 52.7483 97.2216C53.2069 97.1113 53.6712 97.0214 54.1382 96.9557C54.668 96.8812 55.2152 96.8924 55.7253 96.7207C55.9788 96.6356 56.0177 96.2333 55.7253 96.1669C54.9401 95.9883 54.0029 96.1831 53.1835 96.3821L52.7553 96.4875C51.9297 96.69 51.0962 96.944 50.3443 97.3477C49.7975 97.6414 49.2204 98.0875 48.8434 98.6336C48.516 98.3297 48.1085 98.34 47.6841 98.4527L47.4537 98.5167C47.0733 98.622 46.7649 98.6945 46.3948 98.6216C46.3453 98.3525 46.2951 98.0833 46.2414 97.8142C45.7139 95.1682 45.1354 92.5324 44.4971 89.9107C43.396 85.3886 42.1219 80.9161 40.6856 76.4894L40.5414 76.0469C40.2101 75.0344 39.9435 73.9313 39.4095 73.0011C38.9043 72.1216 38.095 71.615 37.1335 71.3467C36.0423 71.0422 34.8957 70.8829 33.7826 70.6773C33.5343 70.6315 33.2853 70.5879 33.0368 70.5429C33.2468 70.164 33.4036 69.7339 33.5448 69.4039L33.5696 69.3467C33.873 68.6556 34.1455 67.9521 34.4086 67.2448L34.6055 66.7131C35.0806 65.4328 35.5712 64.1734 36.2392 62.9759C36.9424 61.7156 37.8753 60.6853 39.0383 59.8325C41.4094 58.0937 44.2673 57.2067 46.567 55.3484C46.6612 55.2723 46.5404 55.1421 46.4448 55.1903C44.8919 55.9699 43.2156 56.4999 41.6004 57.1346L41.2818 57.2602C40.0052 57.7658 38.7088 58.3162 37.6038 59.1349C36.3719 60.0477 35.4016 61.1814 34.6724 62.5295C33.9537 63.8584 33.494 65.3458 32.9869 66.7652L32.8513 67.1434C32.6467 67.7105 32.4355 68.2759 32.1934 68.8278C32.0013 69.266 31.6427 69.7661 31.4797 70.2666C31.0337 70.1893 30.5878 70.1118 30.1414 70.0373C20.4727 68.4245 10.6958 67.4768 0.897299 67.1996C0.513956 67.1887 0.315669 67.5542 0.372154 67.8883C1.31249 73.4438 2.14814 79.0183 3.06502 84.578C3.46526 87.0045 3.87346 89.4292 4.29123 91.8527C4.50286 93.0806 4.74752 94.3036 4.94796 95.5333C5.10978 96.5263 5.22726 97.5271 5.50506 98.4972C5.75424 99.3669 6.13661 100.206 6.76461 100.869C7.44157 101.584 8.38642 101.931 9.33752 102.094C11.7519 102.509 14.2285 102.679 16.6625 102.956L29.6214 104.429C29.432 106.148 29.4178 107.841 29.5047 109.581L29.5542 110.531C29.5947 111.295 29.6431 112.06 29.7529 112.816C29.8907 113.765 30.3249 114.568 30.9645 115.276C31.5518 115.927 32.2654 116.482 32.9594 117.014C33.6799 117.566 34.4243 118.099 35.2713 118.441L35.3813 118.484C36.1244 118.774 37.5184 119.223 38.5341 119.059C38.4013 119.723 38.1444 120.438 38.3722 121.096C38.4778 121.401 38.8775 121.553 39.1224 121.294C39.6075 120.779 39.6454 120.098 39.7603 119.427C39.8799 118.727 39.9829 118.026 40.0745 117.322C40.2516 115.963 40.3894 114.59 40.4315 113.219C40.4747 111.81 40.458 110.4 40.3821 108.993C40.343 108.271 40.2946 107.548 40.2028 106.831C40.1637 106.524 40.1236 106.218 40.0779 105.913C40.0612 105.801 40.0427 105.691 40.0228 105.58L41.186 105.711C42.9695 105.91 44.7538 106.09 46.5499 106.117C46.7626 106.121 46.9262 106.024 47.0332 105.883C47.1471 106.068 47.3455 106.201 47.6297 106.2C50.1379 106.191 52.4737 105.371 54.755 104.405C55.905 103.919 57.037 103.391 58.1887 102.909C59.2636 102.458 60.4128 102.136 61.4618 101.629L64.2182 103.073C64.2384 103.144 64.2644 103.212 64.2919 103.268C64.4714 103.634 64.8252 103.832 65.1866 103.982C65.5335 104.126 65.8927 104.171 66.2427 104.134C68.3332 105.229 70.4242 106.322 72.5166 107.413L74.6095 108.503C78.7792 110.672 82.9325 112.877 87.1285 114.995L87.4374 115.151C88.8868 115.877 90.443 116.613 92.0514 117.162C92.08 117.569 92.062 117.964 92.0279 118.395L92.0197 118.489C91.9717 118.997 91.8689 119.635 92.2774 119.997C92.4899 120.185 92.8694 120.186 93.0139 119.902C93.2761 119.387 93.0407 118.575 92.9577 118.016C92.9282 117.817 92.8922 117.612 92.8391 117.414C94.683 117.962 96.5827 118.228 98.4591 117.92C100.286 117.621 101.701 116.471 102.842 115.064C104.045 113.58 104.901 111.85 105.36 109.996C105.882 107.886 105.916 105.707 105.904 103.546C105.891 101.245 105.806 98.9318 105.526 96.6459C105.833 96.5738 106.173 96.5114 106.483 96.5329C106.637 96.7785 106.935 96.8819 107.204 96.85C107.79 97.4953 106.304 98.1548 105.83 98.3199C105.665 98.3773 105.682 98.6448 105.873 98.6367L105.992 98.631C106.726 98.592 107.484 98.4669 107.915 97.7859C108.26 97.24 108.157 96.5933 107.745 96.1482C107.473 93.5777 106.822 91.0747 106.217 88.5672C105.623 86.1061 104.962 83.6608 104.261 81.2278L103.948 80.1389C102.845 76.324 101.692 72.4783 100.171 68.815C99.412 66.9859 98.5371 65.1903 97.3511 63.5954C96.2456 62.1086 94.9404 60.8364 93.4402 59.7499C90.6434 57.724 87.3616 56.4999 84.1372 55.3337L83.9928 55.2816C82.3218 54.6776 80.655 54.0665 79.003 53.4122C77.5421 52.8335 76.1424 52.0999 74.6883 51.5125C74.7356 51.4269 74.7812 51.3402 74.8251 51.2526L74.852 51.2752C74.8566 51.2788 74.8613 51.2824 74.8662 51.2857C75.0124 51.387 75.2277 51.3372 75.3482 51.2236C75.6884 50.9028 75.5732 50.5467 75.3461 50.2141L75.3166 50.1717C75.0388 49.7829 74.791 49.3718 74.5346 48.969L74.374 48.717C73.9437 48.0439 73.4914 47.3663 72.9176 46.81C72.6519 46.5522 72.3609 46.3594 72.0527 46.2157C72.0791 46.16 71.848 46.0461 71.7824 46.1034C70.8058 45.7463 69.6823 45.8211 68.6176 45.9196M30.2487 104.5L31.6064 104.654C33.1002 104.824 34.5946 104.988 36.0891 105.151L39.3354 105.503C39.3437 105.688 39.3662 105.869 39.3703 106.009C39.3915 106.728 39.4073 107.449 39.4222 108.169C39.4523 109.612 39.4193 111.057 39.3242 112.498C39.232 113.894 39.1106 115.29 38.922 116.676L38.8833 116.954L38.8609 117.099C38.707 117.114 38.5557 117.187 38.4299 117.337C38.1554 117.665 37.1611 117.347 36.7728 117.209C36.1343 116.982 35.533 116.598 34.9781 116.213C34.4363 115.838 33.9484 115.4 33.4795 114.939L33.0959 114.559C32.7143 114.181 32.3323 113.777 32.0985 113.3C31.7814 112.654 31.7404 111.861 31.6474 111.157C31.533 110.291 31.3966 109.425 31.2526 108.564M69.6645 95.4119L69.8053 95.4488C74.9213 96.807 80.0297 98.2054 85.1614 99.5036C87.701 100.146 90.2526 100.742 92.7952 101.372L93.2069 101.475C95.2128 101.982 97.2428 102.591 98.7789 104.045C98.8356 104.099 98.9179 104.016 98.8645 103.959C97.209 102.199 94.8545 101.453 92.5938 100.807C92.1759 100.688 91.7575 100.571 91.3395 100.452C94.414 99.3572 97.537 98.4044 100.732 97.725C101.555 97.55 102.387 97.4215 103.209 97.2458C103.783 97.1233 104.343 96.9461 104.91 96.7991L105.356 96.687L105.362 98.096C105.369 100.092 105.366 102.086 105.264 104.081L105.245 104.451C105.126 106.671 104.94 108.938 104.151 111.032C103.511 112.733 102.489 114.336 101.153 115.575C100.477 116.202 99.7503 116.691 98.8519 116.932C98.0178 117.155 97.1438 117.182 96.2863 117.122C92.1733 116.835 88.512 114.603 84.9391 112.755C79.0952 109.731 73.2505 106.71 67.4007 103.698C67.5588 103.59 67.7077 103.466 67.8432 103.326C68.6276 102.516 69.0414 101.408 69.3132 100.335C69.6025 99.193 69.7755 97.9688 69.7956 96.7895M62.2212 104.865C62.1696 104.838 62.1098 104.872 62.1074 104.931C62.0893 105.377 62.3363 105.817 62.5207 106.219L62.5402 106.262C62.7644 106.76 63.0098 107.252 63.2636 107.736C63.7709 108.702 64.2981 109.658 64.8483 110.601C65.9547 112.497 67.1843 114.314 68.6376 115.965C68.9659 116.338 69.5057 115.86 69.2951 115.458C68.2794 113.522 67.0954 111.694 65.8766 109.882C65.2665 108.975 64.6568 108.067 64.0406 107.163C63.7835 106.787 63.5232 106.411 63.2558 106.041L63.0946 105.82M1.5451 68.3084C6.67898 68.4633 11.8068 68.7978 16.9163 69.3221C21.6681 69.8096 26.4025 70.4585 31.1102 71.2676C32.0935 71.4365 33.0756 71.6124 34.0564 71.7952L34.6447 71.9058C35.6258 72.0915 36.8242 72.1682 37.6976 72.6918C38.6185 73.2438 38.8673 74.3974 39.1738 75.3488C39.534 76.4676 39.885 77.5896 40.2266 78.7143C41.5831 83.1801 42.8222 87.6845 43.9276 92.2187C44.4763 94.4693 44.9632 96.7325 45.4762 98.9914C45.9319 100.998 46.4348 102.983 46.9602 104.969C46.8954 104.919 46.816 104.881 46.7201 104.86C44.1113 104.306 41.4483 104.065 38.8004 103.758L38.5442 103.729C35.8051 103.407 33.066 103.087 30.3252 102.779L12.1792 100.741C11.109 100.62 9.96252 100.604 8.92105 100.317C7.15036 99.8291 6.73532 97.8512 6.43823 96.276L6.42926 96.2284C5.53357 91.4692 4.82057 86.6686 3.98525 81.8974M46.5381 99.437C47.2426 99.3905 48.2068 98.7459 48.7413 98.7921C48.4607 99.2625 48.3341 99.799 48.4958 100.372C48.9458 101.966 50.9811 101.141 51.9614 100.654C52.7653 100.255 53.5414 99.7659 54.4313 99.5788C55.4394 99.367 56.1224 99.7675 56.9741 100.229C57.6736 100.608 58.4355 100.881 59.2189 101.022C59.6355 101.097 60.0312 101.105 60.4262 101.075C60.45 101.095 60.4768 101.113 60.5073 101.129L60.7163 101.238C59.7715 101.281 58.8092 101.573 57.93 101.839C57.0189 102.116 56.1245 102.449 55.2349 102.789L54.3597 103.125C52.2008 103.951 49.9661 104.736 47.6298 104.729C47.4618 104.728 47.3242 104.775 47.2159 104.851M50.4794 94.4412C49.7834 94.3561 49.141 94.4473 48.5849 94.9C47.9142 95.4458 47.4636 96.3512 46.4993 96.4106C46.2182 96.4279 46.1529 96.8229 46.4323 96.9054C47.15 97.1177 47.7311 96.7298 48.2201 96.226L48.5489 95.8828C49.0322 95.3829 49.4778 94.9964 50.2978 95.0263C51.176 95.0583 52.0556 95.261 52.9281 95.3641C53.9164 95.4809 54.9045 95.5804 55.896 95.6663C55.942 95.6703 55.9499 95.5978 55.9067 95.5872L54.7963 95.3111M51.1514 91.5984L51.0366 91.5869C50.0259 91.4889 49.1016 91.4851 48.199 92.0283L48.0259 92.1329C47.2121 92.6271 46.3263 93.2093 45.8174 94.0094C45.7341 94.1405 45.8717 94.2945 46.0111 94.2612C46.9892 94.0266 47.7042 93.3096 48.5267 92.773C49.4499 92.1708 50.4034 92.2701 51.456 92.3637C52.4751 92.4543 53.4936 92.5788 54.5027 92.7485C55.4509 92.9078 56.4021 93.1593 57.3599 93.2395L57.3597 93.2376C57.4691 93.2374 57.5315 93.0732 57.4199 93.0176C56.448 92.5326 55.3222 92.3031 54.265 92.0816M20.4491 81.6179C20.5467 81.1511 19.972 80.9346 19.7056 81.3049L19.649 81.383C19.0734 82.1708 18.2411 83.1593 18.2835 84.1612C17.7776 84.1723 17.2531 84.4794 17.056 84.9355C16.9649 85.1465 16.934 85.3965 16.9541 85.6554C16.4943 85.6911 15.9928 85.9927 15.7117 86.2864C15.2457 86.7732 15.2089 87.4612 15.5432 88.0301C16.272 89.2701 17.8643 89.7212 19.2084 89.8219L19.2563 89.8254C20.6446 89.9213 22.6452 89.8954 23.5971 88.7053C24.5154 87.5573 23.5005 86.6279 22.4598 86.1232C22.7307 85.8761 22.871 85.5217 22.7391 85.1479C22.5075 84.491 21.6897 84.2372 21.2276 83.7805C20.6643 83.2237 20.292 82.4599 20.4404 81.6615M19.6862 82.6274C19.8393 83.2922 20.2154 83.9002 20.7393 84.382C20.9396 84.5662 21.1588 84.7303 21.3916 84.8712L21.4196 84.8874C21.6262 85.0033 22.1341 85.2204 22.095 85.4805C22.0548 85.7477 21.2273 86.166 21.0018 86.1662C20.9505 86.1662 20.9214 86.2463 20.9738 86.2695C21.3825 86.4499 21.7395 86.5272 22.1392 86.3366C22.4063 86.609 22.6657 86.8908 22.9226 87.1702C23.3769 87.6646 23.2215 88.1866 22.6846 88.5546C21.8219 89.1461 20.5106 89.1317 19.5041 89.0887C18.4911 89.0455 17.4082 88.8197 16.6168 88.1455L16.5824 88.1155C16.1523 87.7334 15.7595 87.0858 16.4181 86.7178C16.676 86.5736 16.9547 86.5821 17.1995 86.512C17.4287 86.9608 17.8004 87.3203 18.254 87.3896C18.6206 87.4456 18.8731 86.9853 18.5396 86.7651L18.4647 86.7186C18.046 86.4515 17.6887 86.0403 17.6981 85.5047C17.7046 85.1328 18.2243 84.6632 18.5628 85.0126L18.5783 85.0293C18.8616 85.3484 19.3606 84.9463 19.1743 84.5928L19.1653 84.5767M85.7591 64.1403C85.7604 64.0604 85.648 64.0305 85.6087 64.0996C84.9511 65.2556 84.6073 66.6725 84.257 67.946C83.8901 69.28 83.594 70.6276 83.3279 71.985C82.789 74.7338 82.5018 77.4668 82.4823 80.2684C82.4796 80.6684 83.1319 80.7748 83.1957 80.3649C83.6192 77.6398 84.0251 74.9118 84.4519 72.1874C84.6666 70.8172 84.9166 69.4522 85.1557 68.086M79.2491 66.1536C79.2976 65.9942 79.0654 65.9409 79.006 66.0866C77.6863 69.3233 77.2394 72.9912 78.0866 76.4059C78.2163 76.9282 78.982 76.7019 78.8842 76.1861M62.2265 63.2777C62.2331 63.1584 62.0781 63.1395 62.0197 63.2217C61.3944 64.102 61.135 65.2809 60.0379 65.7358C59.4901 65.9629 58.8737 65.9234 58.3898 66.307C58.0663 66.5636 57.8182 66.9687 58.061 67.3573C58.1393 67.4828 58.3586 67.5457 58.4649 67.4093C58.62 67.2105 58.7021 66.9725 58.9129 66.8235C59.2102 66.6134 59.6111 66.6004 59.9519 66.5016C60.3928 66.3739 60.7814 66.1504 61.0997 65.8183M51.7795 48.5954C51.7151 48.5626 51.6532 48.5836 51.612 48.6393C51.5532 48.7186 51.5604 48.7958 51.6324 48.8502C51.5362 49.0468 51.4224 49.5393 51.4062 49.611C51.3403 49.9017 51.2703 50.1907 51.197 50.4794C51.0492 51.0617 50.9197 51.6485 50.7717 52.231C50.6149 52.8485 50.428 53.4594 50.22 54.0615C50.2066 54.1005 50.1918 54.1403 50.1763 54.1807L50.1526 54.2416L50.1468 54.2324C50.1046 54.1656 50.0165 54.2123 50.027 54.2828C50.0367 54.3471 50.0497 54.4111 50.0607 54.4753L50.0389 54.5329C49.9028 54.8988 49.8097 55.284 50.0593 55.6068C50.1526 55.7276 50.2554 55.7991 50.3834 55.8203C50.5887 56.4965 50.8463 57.1601 51.122 57.7973L51.2029 57.9834C51.6085 58.9133 52.0411 59.8309 52.6869 60.6225C53.3921 61.4868 54.362 62.0769 54.9762 63.024C55.262 63.4645 55.4608 63.9277 55.6222 64.4252L55.6829 64.614C55.7975 64.9659 55.9296 65.307 56.26 65.5134C56.3654 65.5792 56.5234 65.5582 56.6084 65.4684C57.2859 64.7524 56.5766 63.4154 56.1681 62.7221C55.6003 61.7581 54.7784 61.1414 53.9554 60.4141C53.0683 59.6301 52.5025 58.5814 51.9552 57.5482C51.62 56.9153 51.2963 56.2687 50.9556 55.633C51.3116 55.3186 51.4255 54.6942 51.5461 54.2601L51.5571 54.2212C51.7565 53.5262 51.9149 52.813 52.0149 52.0968C52.1112 51.4081 52.1514 50.7293 52.1259 50.0368L52.1186 49.8604M50.4562 51.8732C50.5349 51.7655 50.4047 51.6435 50.2968 51.6659C49.6407 51.8015 48.9992 52.1983 48.4104 52.5191L48.3475 52.5532C47.8774 52.8065 47.4044 53.1167 47.1576 53.6087C46.8892 54.1434 46.9113 54.7594 46.9479 55.3405L46.9514 55.3949C46.9963 56.0918 47.0035 56.8159 47.1511 57.5002C47.2266 57.8504 47.5441 57.9491 47.8156 57.8663C48.1385 58.8853 49.0458 59.636 49.7086 60.4401C50.5536 61.4652 50.3946 62.8492 50.3063 64.0838C50.2705 64.5836 50.8928 64.7257 51.2133 64.459L51.952 63.8461C52.075 63.7438 52.1978 63.6413 52.3203 63.5383C52.4253 63.4501 52.5293 63.3612 52.6324 63.2712L52.7864 63.1353C52.8547 63.0743 53.1561 62.7379 53.2442 62.7239C53.4576 62.6901 53.9647 63.252 54.1382 63.4283L54.1602 63.4503C54.4869 63.7703 54.782 64.1146 55.0569 64.4798C55.1075 64.5469 55.2063 64.4912 55.1702 64.4137C54.9239 63.8865 54.6375 63.3825 54.2974 62.9107L54.2287 62.8168C54.0024 62.5122 53.6987 61.9743 53.2993 61.8843C52.8116 61.7745 52.3247 62.2631 51.9699 62.5343L51.9474 62.5513C51.7786 62.6778 51.6118 62.8066 51.4452 62.9363C51.4626 62.0171 51.3464 61.0883 50.8714 60.2961C50.5365 59.7375 50.0347 59.3237 49.6053 58.8437C49.1273 58.3091 48.8777 57.6521 48.445 57.0953C48.3892 57.0237 48.3124 56.9852 48.2292 56.9729C48.2126 56.5253 48.1466 56.0733 48.0956 55.6306L48.0809 55.4981C48.0293 55.017 47.9075 54.4294 48.1433 53.9789C48.3659 53.5534 48.8769 53.253 49.2552 52.9643L49.5641 52.7249M71.7498 46.7867C71.9473 46.9009 72.132 47.0429 72.2995 47.2204C72.8268 47.7792 73.2038 48.4747 73.5707 49.1438C73.7682 49.5041 73.9586 49.8684 74.1578 50.2279C74.2444 50.3843 74.3335 50.539 74.4235 50.6935C74.4652 50.7646 74.5889 50.9061 74.6502 50.9933C74.5821 51.0887 74.5116 51.1826 74.4398 51.2755C74.4123 51.3109 72.5208 53.3696 71.8615 54.1754C70.8519 55.4095 69.9494 56.7131 69.1779 58.1084C68.4224 59.4748 67.8472 60.9215 67.1473 62.3143C66.797 63.0117 66.4058 63.704 65.9071 64.3075C65.8879 64.3311 65.8675 64.3533 65.8479 64.3765C65.6575 63.8628 65.1699 63.3128 64.9303 62.997L64.908 62.9672C64.3647 62.2355 63.7911 61.526 63.2049 60.8284C62.6695 60.1915 62.1206 59.5683 61.5583 58.9554L61.3468 58.726C60.9551 58.3032 60.4575 57.6706 59.884 57.3685C59.9455 57.2591 60.0166 57.1509 60.0984 57.044C60.6357 56.3425 61.3952 55.8334 62.1446 55.3741L62.6307 55.0787C64.4627 53.9632 66.2662 52.796 67.8567 51.3467C68.6981 50.5798 69.528 49.7765 70.2353 48.882L70.4854 48.5658M68.6928 46.2345C69.5508 46.3064 70.4772 46.2893 71.27 46.5686C70.5652 47.2343 69.8953 47.9531 69.207 48.63C69.1458 48.1722 69.0206 47.72 68.9145 47.2735" fill="black"></path> <rect x="12.2222" y="79.0999" width="15.0427" height="13.1833" fill="white"></rect> <g clip-path="url(#clip1)"> <path d="M23.4195 86.4966C21.9885 87.4258 21.5708 89.2142 21.6335 90.8255C21.135 88.7888 20.5063 86.8198 18.2445 86.2138C19.4799 85.913 20.7069 85.1597 20.9751 83.8288C21.6449 84.9658 22.9673 85.8206 24.2427 86.1155C23.9605 86.2201 23.6713 86.3315 23.4195 86.4966ZM22.092 91.9565C22.4192 91.2843 22.3204 91.8078 22.4191 90.6835C22.4188 90.6872 22.4184 90.6909 22.4192 90.696C22.4202 90.6586 22.4214 90.6199 22.4224 90.5825C22.4216 90.5911 22.4219 90.6012 22.4211 90.6099C22.4215 90.5924 22.422 90.5737 22.4224 90.5562C22.4222 90.5587 22.422 90.5611 22.4217 90.5636C22.4222 90.5449 22.4226 90.5274 22.4232 90.5087C22.4227 90.5137 22.4233 90.52 22.4229 90.5249C22.3099 88.0706 23.7813 86.7536 26.1325 86.5598C26.4761 86.4673 26.5822 85.9794 26.3141 85.7487C25.8651 85.3696 25.344 85.9658 24.8516 85.8078L24.8528 85.8079C23.3749 85.5277 21.4692 84.4712 21.3419 82.8163C21.3428 82.8201 21.3426 82.8226 21.3435 82.8264C21.2859 82.2854 21.2638 81.7391 21.1873 81.2C21.1237 80.8812 20.6527 80.8803 20.591 81.2023C20.5473 81.4534 20.5477 81.7137 20.5213 81.9665C20.6149 84.2288 19.467 85.3224 17.2558 85.4757C17.2748 85.4737 17.2937 85.4718 17.3139 85.4699C16.5881 85.4149 15.5476 85.9794 16.6612 86.4666C18.0901 86.7897 19.8038 87.1799 20.3592 88.734C20.8189 90.2027 20.5988 89.8542 20.9879 91.3438C21.0636 91.7726 21.4651 92.4426 22.092 91.9565Z" fill="#1A1A1A"></path> </g> <path fill-rule="evenodd" clip-rule="evenodd" d="M59.9737 3.89795C53.8776 3.89795 47.5721 8.62907 45.3375 11.6481C43.4588 14.1864 42.4472 25.6644 42.4472 33.4213C42.4472 35.0436 41.5531 38.1018 41.814 39.6536C42.7702 45.34 46.9362 50.1091 55.1815 50.1091C63.4268 50.1091 69.3386 46.8367 75.4671 38.0509C78.4407 38.0509 79.8818 35.7677 79.9027 32.1645C79.9237 28.5614 77.0325 27.2505 77.0325 27.2505C77.0325 27.2505 78.0633 13.0309 75.4671 9.32887C72.8709 5.62679 66.0698 3.89795 59.9737 3.89795Z" fill="#EDB98A"></path> <path fill-rule="evenodd" clip-rule="evenodd" d="M62.5388 1.88727C58.6898 1.49706 54.9181 1.82493 51.125 2.50333C50.8351 2.5559 50.6709 2.74628 50.6098 2.97514C48.8232 3.05683 47.0345 3.18809 45.2502 3.28591C44.6027 3.32138 44.2356 3.96195 44.5309 4.54039C44.5898 4.6553 44.6511 4.7671 44.7134 4.87889L44.6352 4.85307C44.0984 4.68066 43.5186 4.59566 42.9956 4.86933C42.3299 5.21761 42.0689 5.9861 42.216 6.69343C42.2537 6.87402 42.317 7.04709 42.3889 7.21597C42.2429 7.20629 42.0958 7.20952 41.9498 7.22887C41.1725 7.33206 40.5949 7.92867 40.5541 8.72306C40.4939 9.92261 41.2659 11.1396 42.1752 11.9984C42.0433 12.2704 41.9927 12.5908 42.0476 12.9154C42.1571 13.5572 42.6293 13.9415 43.1766 14.1921C42.9484 14.9179 42.8405 15.6766 42.9041 16.4519C42.9254 16.7108 43.1515 16.9246 43.3902 16.9771C42.5005 19.4295 42.0503 22.0625 41.7265 24.6281C41.4956 26.4535 41.3818 28.2895 41.368 30.1287C41.3612 30.959 41.3749 31.7903 41.4097 32.6208L41.4237 32.9322C41.4666 33.8299 41.4688 34.7725 41.6298 35.6605C41.0801 36.5967 40.859 37.7589 40.7656 38.8079C40.6496 40.1065 40.8332 41.4459 41.2424 42.6811C42.7862 47.3485 47.4457 50.2939 52.1257 51.0594C56.4577 51.7678 61.4705 50.8143 64.0021 46.8744C64.0419 46.8121 63.957 46.7606 63.9077 46.8014C62.0964 48.2762 59.9955 48.9341 57.7128 49.2544C53.7661 49.807 49.33 48.8696 46.1628 46.3844C44.6425 45.1911 43.5464 43.454 43.0642 41.5845C42.8183 40.629 42.7335 39.6324 42.8303 38.6489C42.929 37.6514 43.3702 36.8 43.6483 35.8572C43.7417 35.539 43.6429 35.2433 43.4486 35.0328C43.3939 34.2673 43.265 33.4955 43.2157 32.7323C43.1609 31.8647 43.1275 30.9972 43.1157 30.1287C43.0932 28.327 43.1683 26.5222 43.3197 24.7282C43.5967 21.443 44.3322 18.2376 44.7638 14.9803C44.9236 15.1238 45.1526 15.1827 45.3927 15.0574L45.4176 15.0437L45.5486 14.9686C45.5561 14.9686 45.5647 14.9697 45.5723 14.9706C46.4687 15.0578 47.3984 14.9331 48.2574 14.6653C49.1561 14.386 49.9902 13.956 50.7354 13.383C50.877 14.1021 50.9362 14.8287 50.9371 15.5619C50.9382 16.0198 51.4224 16.2575 51.8068 16.0618C53.5106 15.1953 55.1382 14.1968 56.6832 13.0745C56.8637 14.0001 57.0439 14.9255 57.2255 15.8521C57.2952 16.2091 57.7494 16.3531 58.0404 16.1833C59.1976 15.5092 60.1972 14.6268 61.011 13.5775C61.1735 13.8886 61.3364 14.1996 61.5005 14.51L61.7475 14.9749C61.9912 15.4318 62.3176 15.9371 62.8512 16.0832C63.4159 16.238 63.8874 15.8716 64.0773 15.3598C64.1353 15.2008 64.1889 15.0373 64.2383 14.8728C64.7194 15.9726 65.2626 17.0476 65.8767 18.0731C66.7979 19.6112 67.9038 20.9818 69.0063 22.3879C69.3413 22.8147 69.9146 22.4072 69.9608 21.9924C69.9876 21.7484 70.0102 21.5033 70.0296 21.2592C70.6721 22.5573 71.3424 23.8433 72.0728 25.0919L71.9683 25.5023V25.5023C71.6669 26.7146 71.4166 27.9355 71.1446 29.1543C71.0567 29.5475 71.2655 30.1098 71.7243 30.1767C72.2725 30.2567 72.7912 30.5372 73.3527 30.3442C73.965 30.1337 74.086 29.6039 74.375 29.1017C74.4327 29.0016 74.4998 28.9097 74.5719 28.8224L74.5903 28.8462V28.8462C74.6354 28.9055 74.7427 28.841 74.7159 28.7733L74.6844 28.695V28.695C74.9328 28.4311 75.2299 28.2109 75.5032 27.9741C76.1525 27.8646 76.8829 27.9846 77.3303 28.2487C78.3492 28.8505 78.8172 30.091 78.8268 31.2317C78.8386 32.5668 78.4254 34.0674 77.7275 35.209C77.4204 35.7111 76.9995 36.1646 76.4435 36.3872C75.8915 36.6085 75.2935 36.5398 74.732 36.7483C74.3605 36.8871 74.1318 37.2998 74.3562 37.6738C74.3713 37.6997 74.3884 37.7233 74.4046 37.7481L74.2376 37.97C74.1228 38.1238 74.003 38.2883 73.8913 38.4596C73.6058 38.7887 73.3051 39.1058 73.0142 39.4293C72.4764 40.0258 71.9545 40.6387 71.4253 41.2438C70.926 41.8147 70.3977 42.351 69.8534 42.8788C69.3391 43.3788 68.6971 43.799 68.2247 44.3322C67.7653 44.8525 67.6407 45.7608 68.3966 46.0619C69.2329 46.3958 69.9732 45.6132 70.5362 45.0915L70.5599 45.0696C71.5918 44.1188 72.5237 43.0322 73.2638 41.8359C73.9969 42.3355 75.0572 42.3832 75.7872 41.8837C76.1713 41.6209 76.466 41.1792 76.6092 40.6987C76.7443 40.729 76.8792 40.7467 77.0109 40.7447C77.0786 40.784 77.1466 40.8223 77.2153 40.858C77.7597 41.1417 78.4285 41.0149 78.6776 40.4118C78.9044 39.8642 78.6707 39.2424 78.4664 38.7148L78.4242 38.6058C78.3083 38.3049 78.1805 37.9771 78.0216 37.6686C78.4639 37.3353 78.842 36.9214 79.1618 36.4506C80.2365 34.8651 80.7733 32.5463 80.536 30.6544C80.3932 29.5128 79.8576 28.3304 78.9805 27.5606L79.0126 27.4767V27.4767C79.2584 26.8523 79.4818 26.2255 79.6267 25.5656C79.7963 24.7937 79.8791 23.994 79.9541 23.2082C80.113 21.5484 80.0701 19.8511 79.8586 18.1978C79.4613 15.0858 78.4543 12.0307 76.6667 9.44114C77.1735 8.83368 77.575 8.11883 77.3657 7.29659C77.2701 6.91917 77.0522 6.56132 76.7236 6.34514C76.5422 6.22593 76.3263 6.20765 76.1449 6.10876L76.0903 6.07868C76.0106 6.03212 76.0716 6.03705 76.1191 5.82067C76.307 4.95629 76.1513 4.12115 75.2012 3.83414C74.3068 3.56432 73.4608 4.13728 72.9315 4.81988C71.5465 3.83618 69.7214 3.32138 68.1163 2.88387C66.2911 2.38821 64.4188 2.07872 62.5388 1.88727ZM77.4988 30.8791C77.5053 30.175 76.8386 29.7407 76.1825 29.8558C75.742 29.9326 75.3745 30.1958 75.0294 30.4679L74.8611 30.6012C74.4409 30.9315 73.9584 31.2876 73.7079 31.7553C73.3407 32.4454 74.1169 33.374 74.8416 32.8903C75.3387 32.5568 75.6573 32.0223 75.9834 31.5258L76.0172 31.4746C76.1653 31.2521 76.2953 31.0156 76.4983 30.8371L76.5421 30.7987C76.6089 30.7418 76.6805 30.6898 76.7667 30.6652C76.9329 30.6173 77.2408 30.6843 77.3141 30.8825L77.3207 30.9027C77.3475 31.0028 77.4977 30.9812 77.4988 30.8791Z" fill="black"></path> <path fill-rule="evenodd" clip-rule="evenodd" d="M49.6078 40.6248C50.338 40.9116 51.2007 40.9793 51.9544 40.735C52.6751 40.5012 53.3295 39.9811 53.7255 39.3269C54.0782 38.7443 54.2255 38.0529 54.017 37.3636C54.0071 37.3306 53.9747 37.3095 53.9435 37.3013C53.773 37.4564 53.6676 37.6105 53.5624 37.7638C53.3849 38.0222 53.207 38.278 52.9629 38.499C52.6077 38.8205 52.1291 39.0816 51.6541 39.1677C51.189 39.2522 50.713 39.1775 50.2966 38.9551C50.0434 38.8199 49.8386 38.6392 49.6358 38.4576C49.4151 38.26 49.1978 38.0593 48.8937 37.9476C48.65 37.8582 48.394 37.9337 48.1974 38.0833C47.9861 38.2442 47.8341 38.496 47.8425 38.7592C47.8556 39.1671 48.0342 39.5073 48.2935 39.788C48.644 40.1674 49.1396 40.4409 49.6078 40.6248ZM50.4747 30.461C49.6623 30.9544 48.4243 32.1049 49.2983 33.3281C50.3271 34.4067 51.8084 33.1701 52.5383 32.6108C53.2151 32.1773 53.9756 33.2921 53.3476 33.7983C48.0731 37.6999 45.9327 30.59 50.0638 29.8808C50.5186 29.8027 50.6876 30.3083 50.4747 30.461ZM59.0201 23.6244C57.9128 23.5715 56.9369 24.0683 55.8817 24.2941C54.9065 24.5028 53.9457 24.3775 52.9973 24.112C51.4581 23.681 50.8218 26.0352 52.3401 26.494C53.4456 26.8281 54.6098 26.8513 55.7443 26.6791C56.7521 26.526 57.5969 26.0358 58.5578 25.7504C59.3824 25.5056 60.3525 25.6074 61.2233 25.7226L61.5614 25.7681C62.0638 25.8357 62.569 25.9035 63.0664 26.0016C63.4981 26.0869 63.929 26.2429 64.3696 26.2609C64.4196 26.2631 64.462 26.1981 64.4305 26.1548C63.9187 25.4528 62.9323 24.8989 62.1477 24.5294L62.0945 24.5045C61.126 24.0534 60.0985 23.6757 59.0201 23.6244ZM59.426 28.8009L59.4261 28.7767C59.4246 28.0912 59.025 26.5261 58.0373 26.5261C57.4203 26.5261 57.0457 27.5912 56.9808 28.6893L56.9786 28.734C56.9499 29.4167 57.1374 30.9089 58.0373 30.9089C58.9467 30.9089 59.4166 29.4956 59.426 28.8009V28.8009ZM44.8845 28.8009L44.8843 28.7767C44.8858 28.0912 45.2854 26.5261 46.2731 26.5261C46.8747 26.5261 47.2459 27.5386 47.3241 28.607L47.3296 28.6893C47.3685 29.3489 47.1932 30.9089 46.2731 30.9089C45.3637 30.9089 44.8938 29.4956 44.8845 28.8009V28.8009ZM44.8997 22.7894L44.8291 22.791C43.6748 22.831 42.4876 23.5141 42.1794 24.6616C42.1635 24.7212 42.237 24.7613 42.2806 24.7204C43.2296 23.8327 44.506 24.681 45.4564 25.1256L45.8054 25.2867C47.0306 25.8562 48.424 26.5257 49.7843 26.1013C50.4304 25.8998 50.8408 25.2365 50.6565 24.5666C50.4925 23.9705 49.7724 23.4696 49.1487 23.6848L49.1204 23.695C48.6137 23.8887 47.9906 23.6925 47.4672 23.499L47.0373 23.3377C46.346 23.0756 45.6514 22.7824 44.8997 22.7894V22.7894Z" fill="black"></path> </g> <defs> <clipPath id="clip0"> <rect width="110" height="113" fill="white" transform="matrix(-1 0 0 1 110 0)"></rect> </clipPath> <clipPath id="clip1"> <rect width="10.2586" height="11.1938" fill="white" transform="matrix(-0.97625 -0.216645 -0.215989 0.976396 27.4753 82.2642)"></rect> </clipPath> </defs> </svg> 