<?xml version="1.0" encoding="UTF-8"?> <svg xmlns="http://www.w3.org/2000/svg" width="189" height="121" viewBox="0 0 189 121" fill="none"> <path d="M25.5722 120.833C31.7692 120.833 37.817 119.074 42.6069 115.881C47.8193 112.404 51.129 107.521 52.1772 101.763L52.2789 101.21L52.8411 101.207C54.083 101.201 55.325 101.197 56.5669 101.197C64.9461 101.197 159.374 101.34 167.01 101.629C167.915 101.664 168.668 101.68 169.383 101.68C172.635 101.68 177.324 101.369 180.449 98.6862C185.512 94.3368 184.807 87.6603 184.124 81.1997C183.918 79.2441 183.724 77.3996 183.683 75.6122C183.502 67.8245 183.619 59.9099 183.733 52.2524C183.803 47.5538 183.876 42.6996 183.88 37.9248C183.88 35.7152 183.934 33.4643 183.981 31.2896C184.045 28.5086 184.111 25.6291 184.073 22.8258C184.003 17.5875 182.187 13.9968 178.359 11.5269L178.232 11.4443L178.153 11.3174C174.843 6.04728 167.725 4.94247 162.338 4.94247H162.087C157.005 4.97422 64.4443 5.00915 58.5522 5.00915C56.5288 5.00915 54.5055 5.00596 52.4822 4.99643C47.1046 4.97104 41.7271 4.93612 36.3495 4.9012C32.6332 4.8758 28.9169 4.85358 25.2006 4.83136C23.9555 4.82501 22.7071 4.78373 21.3826 4.73928C19.9406 4.69166 18.4509 4.64404 16.9802 4.64404C14.3089 4.64404 10.8372 4.78056 7.68623 5.8568C1.42884 7.99022 0.501321 15.1493 0.828484 20.7812C1.57175 33.6262 1.49553 45.9157 1.32083 56.2463C1.29224 57.9384 1.24778 59.6274 1.20331 61.4148C0.939673 71.5676 0.669704 82.0632 3.28701 91.3462C4.83071 96.8194 10.7228 97.575 16.8595 97.575C17.7266 97.575 18.5747 97.5591 19.3942 97.5464C19.7309 97.5401 20.0612 97.5337 20.3821 97.5305L21.0936 97.5211L21.0682 98.229C20.8458 104.417 18.8066 112.576 10.3639 116.309C10.294 116.341 10.2908 116.357 10.2908 116.411C10.2972 116.56 10.4242 116.754 10.5513 116.798C10.5799 116.808 10.6053 116.817 10.6307 116.823C10.6656 116.836 10.7038 116.846 10.7387 116.858L10.8054 116.884L10.8658 116.922C15.0331 119.481 20.1184 120.833 25.5722 120.833Z" fill="#6B5AC5"></path> <path d="M29.5925 116.855C35.7895 116.855 41.8372 115.097 46.6272 111.903C51.8395 108.426 55.1493 103.544 56.1975 97.7847L56.2991 97.2323L56.8613 97.2291C58.1033 97.2228 59.3453 97.2196 60.5872 97.2196C68.9664 97.2196 163.394 97.3625 171.03 97.6514C171.936 97.6863 172.688 97.7022 173.403 97.7022C176.656 97.7022 181.344 97.391 184.469 94.7084C189.532 90.359 188.827 83.6825 188.144 77.2219C187.938 75.2663 187.744 73.4218 187.703 71.6344C187.522 63.8468 187.639 55.9321 187.754 48.2746C187.824 43.576 187.897 38.7218 187.9 33.947C187.9 31.7374 187.954 29.4865 188.001 27.3118C188.065 24.5308 188.132 21.6513 188.094 18.848C188.024 13.6097 186.207 10.019 182.379 7.54909L182.252 7.46657L182.173 7.33957C178.863 2.0695 171.745 0.964686 166.358 0.964686H166.107C161.025 0.996433 68.4645 1.03136 62.5724 1.03136C60.5491 1.03136 58.5258 1.02818 56.5024 1.01865C51.1249 0.993253 45.7473 0.958335 40.3698 0.923413C36.6535 0.898015 32.9372 0.875801 29.2208 0.853578C27.9757 0.847228 26.7274 0.805944 25.4029 0.761498C23.9608 0.713877 22.4711 0.66626 21.0005 0.66626C18.3292 0.66626 14.8574 0.802776 11.7065 1.87901C5.44911 4.01244 4.52158 11.1715 4.84875 16.8035C5.59201 29.6485 5.51579 41.9379 5.34109 52.2685C5.31251 53.9606 5.26804 55.6496 5.22357 57.437C4.95994 67.5898 4.68997 78.0854 7.30727 87.3684C8.85097 92.8416 14.7431 93.5972 20.8798 93.5972C21.7469 93.5972 22.595 93.5814 23.4145 93.5687C23.7512 93.5623 24.0815 93.5559 24.4023 93.5528L25.1138 93.5433L25.0884 94.2512C24.8661 100.439 22.8268 108.598 14.3841 112.331C14.3143 112.363 14.3111 112.379 14.3111 112.433C14.3174 112.582 14.4445 112.776 14.5716 112.82C14.6002 112.83 14.6256 112.839 14.651 112.846C14.6859 112.858 14.724 112.868 14.759 112.881L14.8256 112.906L14.886 112.944C19.0534 115.503 24.1387 116.855 29.5925 116.855Z" fill="white"></path> <path d="M11.375 1.24744C16.8669 -0.622479 23.4007 0.155323 29.1117 0.18707C38.2056 0.237866 47.2962 0.307716 56.3901 0.352163C64.0419 0.387085 158.018 0.345819 165.67 0.298198C171.743 0.260101 178.918 1.58397 182.31 6.98737C186.621 9.76844 188.266 13.7559 188.336 18.845C188.403 23.8579 188.148 28.9248 188.142 33.9536C188.136 46.5065 187.65 59.0721 187.945 71.625C188.126 79.4158 191.363 89.3114 184.477 95.226C180.779 98.4007 175.151 98.5055 170.574 98.3309C161.407 97.9816 65.9286 97.861 56.7521 97.9086C53.4519 116.033 29.045 122.497 14.4212 113.522C14.3545 113.5 14.2877 113.481 14.221 113.455C13.5381 113.204 13.1633 112.081 13.9923 111.716C21.1963 108.531 24.0264 101.677 24.2964 94.2291C17.9596 94.318 8.60527 94.8768 6.54065 87.5558C3.42784 76.53 4.36168 63.5707 4.54908 52.2623C4.74919 40.3951 4.74286 28.6867 4.05677 16.8481C3.71055 10.8288 4.80637 3.48563 11.375 1.24744ZM55.0338 96.7816C55.0433 96.7276 55.0687 96.6959 55.0846 96.6514C55.0909 96.6228 55.1037 96.6006 55.1132 96.572C55.1481 96.4863 55.1863 96.4101 55.2371 96.3498C55.2847 96.2863 55.3482 96.2419 55.4117 96.1943C55.4181 96.1911 55.4245 96.1847 55.4308 96.1816C55.5706 96.08 55.7358 96.007 55.9549 96.0038C63.3621 95.9593 157.093 95.972 164.497 96.1752C170.517 96.3435 177.257 97.5213 182.672 94.2005C189.984 89.7146 186.182 77.7046 186.02 70.7741C185.769 60.1197 186.128 49.4494 186.214 38.7982C186.255 33.8456 186.122 28.8962 186.141 23.9468C186.16 18.9752 186.843 14.3464 183.832 10.759C184.27 12.8162 184.248 14.9813 184.118 17.0576C183.87 20.9816 184.01 24.8865 184.016 28.82C184.038 41.7602 183.514 54.7132 183.819 67.6502C184 75.441 187.237 85.3366 180.351 91.2512C176.653 94.4259 171.025 94.5307 166.448 94.3561C157.281 94.0069 61.8057 93.8862 52.6324 93.9339C50.2597 107.261 37.332 115.192 24.4012 115.195C37.5321 117.481 52.8993 110.757 55.0338 96.7816ZM6.01654 17.7434C6.58193 27.512 6.76619 37.1759 6.5629 46.9732C6.31515 58.9927 6.04197 71.0631 7.77308 82.9937C8.13518 85.5049 8.12883 88.0733 10.0442 89.9718C13.4524 93.3529 20.993 92.3147 25.3763 92.3084C26.1609 92.3084 26.4372 93.0798 26.2212 93.6418C26.0846 101.204 23.461 108.414 16.9527 112.306C31.2875 116.157 48.5541 108.344 50.9045 92.81C50.9141 92.756 50.9395 92.7243 50.9553 92.6767C50.9617 92.6513 50.9712 92.6258 50.9839 92.6004C51.0189 92.5147 51.057 92.4354 51.111 92.375C51.1555 92.3147 51.2158 92.2703 51.2761 92.2258C51.2857 92.2195 51.2921 92.21 51.3016 92.2068C51.4445 92.1084 51.6065 92.0322 51.8257 92.0322C58.6961 91.9909 151.894 92.0005 158.764 92.1624C164.764 92.3021 171.374 93.4894 177.073 91.0575C185.331 87.5304 182.368 76.7395 181.993 69.9233C181.494 60.8087 181.897 51.6083 182.005 42.4904C182.101 34.4139 181.507 26.131 182.132 18.0831C182.663 11.2351 181.256 5.64127 174.036 3.28244C166.622 0.860114 70.6613 2.2951 62.9143 2.27923C47.7695 2.24748 32.5835 1.74588 17.4419 2.08558C7.67781 2.30146 5.53374 9.40017 6.01654 17.7434Z" fill="#1A1A1A"></path> <path d="M33.9688 55H30.5234V37.9375H33.9688V55ZM47.5625 40.8086H43.3438V55H39.8867V40.8086H35.7383V37.9375H47.5625V40.8086ZM50.4805 43.1758L48.957 42.25C49.5117 41.1484 49.8008 40.0781 49.8242 39.0391V37H52.4258V38.8516C52.418 39.5625 52.2305 40.332 51.8633 41.1602C51.5039 41.9805 51.043 42.6523 50.4805 43.1758ZM62.1406 50.5234C62.1406 49.8281 61.9609 49.3047 61.6016 48.9531C61.25 48.5938 60.6055 48.2227 59.668 47.8398C57.957 47.1914 56.7266 46.4336 55.9766 45.5664C55.2266 44.6914 54.8516 43.6602 54.8516 42.4727C54.8516 41.0352 55.3594 39.8828 56.375 39.0156C57.3984 38.1406 58.6953 37.7031 60.2656 37.7031C61.3125 37.7031 62.2461 37.9258 63.0664 38.3711C63.8867 38.8086 64.5156 39.4297 64.9531 40.2344C65.3984 41.0391 65.6211 41.9531 65.6211 42.9766H62.1875C62.1875 42.1797 62.0156 41.5742 61.6719 41.1602C61.3359 40.7383 60.8477 40.5273 60.207 40.5273C59.6055 40.5273 59.1367 40.707 58.8008 41.0664C58.4648 41.418 58.2969 41.8945 58.2969 42.4961C58.2969 42.9648 58.4844 43.3906 58.8594 43.7734C59.2344 44.1484 59.8984 44.5391 60.8516 44.9453C62.5156 45.5469 63.7227 46.2852 64.4727 47.1602C65.2305 48.0352 65.6094 49.1484 65.6094 50.5C65.6094 51.9844 65.1367 53.1445 64.1914 53.9805C63.2461 54.8164 61.9609 55.2344 60.3359 55.2344C59.2344 55.2344 58.2305 55.0078 57.3242 54.5547C56.418 54.1016 55.707 53.4531 55.1914 52.6094C54.6836 51.7656 54.4297 50.7695 54.4297 49.6211H57.8867C57.8867 50.6055 58.0781 51.3203 58.4609 51.7656C58.8438 52.2109 59.4688 52.4336 60.3359 52.4336C61.5391 52.4336 62.1406 51.7969 62.1406 50.5234ZM80.6328 50.5234C80.6328 49.8281 80.4531 49.3047 80.0938 48.9531C79.7422 48.5938 79.0977 48.2227 78.1602 47.8398C76.4492 47.1914 75.2188 46.4336 74.4688 45.5664C73.7188 44.6914 73.3438 43.6602 73.3438 42.4727C73.3438 41.0352 73.8516 39.8828 74.8672 39.0156C75.8906 38.1406 77.1875 37.7031 78.7578 37.7031C79.8047 37.7031 80.7383 37.9258 81.5586 38.3711C82.3789 38.8086 83.0078 39.4297 83.4453 40.2344C83.8906 41.0391 84.1133 41.9531 84.1133 42.9766H80.6797C80.6797 42.1797 80.5078 41.5742 80.1641 41.1602C79.8281 40.7383 79.3398 40.5273 78.6992 40.5273C78.0977 40.5273 77.6289 40.707 77.293 41.0664C76.957 41.418 76.7891 41.8945 76.7891 42.4961C76.7891 42.9648 76.9766 43.3906 77.3516 43.7734C77.7266 44.1484 78.3906 44.5391 79.3438 44.9453C81.0078 45.5469 82.2148 46.2852 82.9648 47.1602C83.7227 48.0352 84.1016 49.1484 84.1016 50.5C84.1016 51.9844 83.6289 53.1445 82.6836 53.9805C81.7383 54.8164 80.4531 55.2344 78.8281 55.2344C77.7266 55.2344 76.7227 55.0078 75.8164 54.5547C74.9102 54.1016 74.1992 53.4531 73.6836 52.6094C73.1758 51.7656 72.9219 50.7695 72.9219 49.6211H76.3789C76.3789 50.6055 76.5703 51.3203 76.9531 51.7656C77.3359 52.2109 77.9609 52.4336 78.8281 52.4336C80.0312 52.4336 80.6328 51.7969 80.6328 50.5234ZM98.3984 48.0039C98.3984 50.293 97.8555 52.0703 96.7695 53.3359C95.6914 54.6016 94.1914 55.2344 92.2695 55.2344C90.3555 55.2344 88.8516 54.6094 87.7578 53.3594C86.6641 52.1016 86.1094 50.3438 86.0938 48.0859V45.168C86.0938 42.8242 86.6367 40.9961 87.7227 39.6836C88.8086 38.3633 90.3164 37.7031 92.2461 37.7031C94.1445 37.7031 95.6406 38.3516 96.7344 39.6484C97.8281 40.9375 98.3828 42.75 98.3984 45.0859V48.0039ZM94.9414 45.1445C94.9414 43.6055 94.7227 42.4609 94.2852 41.7109C93.8477 40.9609 93.168 40.5859 92.2461 40.5859C91.332 40.5859 90.6562 40.9492 90.2188 41.6758C89.7812 42.3945 89.5547 43.4922 89.5391 44.9688V48.0039C89.5391 49.4961 89.7617 50.5977 90.207 51.3086C90.6523 52.0117 91.3398 52.3633 92.2695 52.3633C93.168 52.3633 93.8359 52.0195 94.2734 51.332C94.7109 50.6367 94.9336 49.5625 94.9414 48.1094V45.1445ZM115.215 47.6172H109.848V52.1406H116.199V55H106.402V37.9375H116.176V40.8086H109.848V44.8398H115.215V47.6172ZM126.336 51.5078H121.637L120.723 55H117.078L122.41 37.9375H125.562L130.93 55H127.25L126.336 51.5078ZM122.387 48.6367H125.574L123.98 42.5547L122.387 48.6367ZM139.742 50.5234C139.742 49.8281 139.562 49.3047 139.203 48.9531C138.852 48.5938 138.207 48.2227 137.27 47.8398C135.559 47.1914 134.328 46.4336 133.578 45.5664C132.828 44.6914 132.453 43.6602 132.453 42.4727C132.453 41.0352 132.961 39.8828 133.977 39.0156C135 38.1406 136.297 37.7031 137.867 37.7031C138.914 37.7031 139.848 37.9258 140.668 38.3711C141.488 38.8086 142.117 39.4297 142.555 40.2344C143 41.0391 143.223 41.9531 143.223 42.9766H139.789C139.789 42.1797 139.617 41.5742 139.273 41.1602C138.938 40.7383 138.449 40.5273 137.809 40.5273C137.207 40.5273 136.738 40.707 136.402 41.0664C136.066 41.418 135.898 41.8945 135.898 42.4961C135.898 42.9648 136.086 43.3906 136.461 43.7734C136.836 44.1484 137.5 44.5391 138.453 44.9453C140.117 45.5469 141.324 46.2852 142.074 47.1602C142.832 48.0352 143.211 49.1484 143.211 50.5C143.211 51.9844 142.738 53.1445 141.793 53.9805C140.848 54.8164 139.562 55.2344 137.938 55.2344C136.836 55.2344 135.832 55.0078 134.926 54.5547C134.02 54.1016 133.309 53.4531 132.793 52.6094C132.285 51.7656 132.031 50.7695 132.031 49.6211H135.488C135.488 50.6055 135.68 51.3203 136.062 51.7656C136.445 52.2109 137.07 52.4336 137.938 52.4336C139.141 52.4336 139.742 51.7969 139.742 50.5234ZM150.641 45.6016L153.207 37.9375H156.957L152.387 48.8125V55H148.895V48.8125L144.312 37.9375H148.062L150.641 45.6016ZM161.75 49.75H158.996L158.609 37.9375H162.137L161.75 49.75ZM158.551 53.3945C158.551 52.8633 158.719 52.4297 159.055 52.0938C159.391 51.75 159.828 51.5781 160.367 51.5781C160.898 51.5781 161.332 51.75 161.668 52.0938C162.004 52.4297 162.172 52.8633 162.172 53.3945C162.172 53.918 162.004 54.3477 161.668 54.6836C161.34 55.0195 160.906 55.1875 160.367 55.1875C159.82 55.1875 159.379 55.0195 159.043 54.6836C158.715 54.3477 158.551 53.918 158.551 53.3945Z" fill="#1A1A1A"></path> </svg> 