<?xml version="1.0" encoding="UTF-8"?> <svg xmlns="http://www.w3.org/2000/svg" width="126" height="100" viewBox="0 0 126 100" fill="none"> <path d="M109.383 100C105.231 100 101.178 98.5444 97.9691 95.9013C94.4766 93.0243 92.259 88.9834 91.5566 84.2174L91.4885 83.7602L91.1118 83.7576C90.2797 83.7523 89.4475 83.7497 88.6154 83.7497C83.001 83.7497 19.7311 83.8679 14.6148 84.107C14.0082 84.1359 13.5038 84.149 13.025 84.149C10.8456 84.149 7.70432 83.8916 5.61012 81.6714C2.21768 78.0719 2.69016 72.5466 3.14774 67.1999C3.28608 65.5814 3.4159 64.0549 3.44357 62.5757C3.56488 56.1308 3.48613 49.5807 3.40951 43.2435C3.36269 39.355 3.31375 35.3378 3.31162 31.3862C3.31162 29.5576 3.27542 27.6948 3.2435 25.895C3.20094 23.5934 3.15626 21.2104 3.1818 18.8905C3.22862 14.5553 4.44598 11.5837 7.01053 9.53964L7.09564 9.47134L7.14885 9.36624C9.36649 5.00481 14.1359 4.09048 17.7454 4.09048H17.9136C21.3188 4.11675 83.3373 4.14566 87.2852 4.14566C88.6409 4.14566 89.9966 4.14302 91.3523 4.13514C94.9555 4.11412 98.5586 4.08522 102.162 4.05632C104.652 4.0353 107.142 4.01692 109.632 3.99853C110.466 3.99327 111.303 3.95911 112.19 3.92232C113.156 3.88291 114.154 3.84351 115.14 3.84351C116.93 3.84351 119.256 3.95648 121.367 4.84716C125.56 6.61275 126.181 12.5375 125.962 17.1984C125.464 27.8288 125.515 37.9993 125.632 46.5488C125.651 47.9492 125.681 49.3469 125.711 50.8261C125.888 59.2285 126.068 67.9145 124.315 75.5969C123.28 80.1265 119.332 80.7518 115.221 80.7518C114.64 80.7518 114.071 80.7387 113.522 80.7282C113.297 80.723 113.075 80.7177 112.86 80.7151L112.384 80.7072L112.401 81.2931C112.55 86.4138 113.916 93.1662 119.573 96.256C119.62 96.2822 119.622 96.2954 119.622 96.3401C119.618 96.4635 119.533 96.6238 119.447 96.6606C119.428 96.6685 119.411 96.6763 119.394 96.6816C119.371 96.6921 119.345 96.7 119.322 96.7105L119.277 96.7315L119.237 96.7631C116.444 98.8807 113.037 100 109.383 100Z" fill="#6B5AC5"></path> <path d="M106.716 96.708C102.564 96.708 98.512 95.2524 95.3026 92.6093C91.8101 89.7323 89.5924 85.6914 88.8901 80.9254L88.822 80.4682L88.4453 80.4656C87.6132 80.4603 86.781 80.4577 85.9489 80.4577C80.3345 80.4577 17.0646 80.5759 11.9483 80.815C11.3417 80.8439 10.8373 80.8571 10.3585 80.8571C8.17914 80.8571 5.03782 80.5996 2.94362 78.3794C-0.448823 74.7799 0.0236606 69.2546 0.481236 63.9079C0.619572 62.2894 0.749399 60.763 0.777066 59.2837C0.898377 52.8388 0.819624 46.2887 0.743007 39.9515C0.696185 36.063 0.647244 32.0458 0.645115 28.0942C0.645115 26.2656 0.608921 24.4028 0.576997 22.603C0.534432 20.3014 0.489756 17.9184 0.515295 15.5985C0.562117 11.2633 1.77948 8.29174 4.34402 6.24765L4.42913 6.17935L4.48234 6.07425C6.69998 1.71282 11.4694 0.798487 15.0789 0.798487H15.2471C18.6523 0.824761 80.6708 0.853668 84.6187 0.853668C85.9744 0.853668 87.3301 0.85103 88.6858 0.843148C92.2889 0.822129 95.8921 0.793231 99.4952 0.76433C101.985 0.743311 104.475 0.724927 106.965 0.706536C107.8 0.701281 108.636 0.667115 109.524 0.630332C110.49 0.590921 111.488 0.551514 112.473 0.551514C114.263 0.551514 116.589 0.664492 118.701 1.55517C122.893 3.32076 123.515 9.24548 123.296 13.9064C122.797 24.5368 122.849 34.7073 122.966 43.2568C122.985 44.6572 123.015 46.0549 123.044 47.5341C123.221 55.9365 123.402 64.6225 121.648 72.305C120.614 76.8345 116.666 77.4599 112.554 77.4599C111.973 77.4599 111.405 77.4467 110.856 77.4362C110.63 77.431 110.409 77.4257 110.194 77.4231L109.717 77.4152L109.734 78.0011C109.883 83.1219 111.25 89.8742 116.906 92.964C116.953 92.9902 116.955 93.0034 116.955 93.0481C116.951 93.1716 116.866 93.3318 116.781 93.3686C116.762 93.3765 116.745 93.3844 116.728 93.3896C116.704 93.4001 116.679 93.408 116.655 93.4185L116.611 93.4395L116.57 93.4711C113.778 95.5887 110.371 96.708 106.716 96.708Z" fill="white"></path> <path d="M118.922 1.03236C115.242 -0.515155 110.865 0.128543 107.038 0.154817C100.945 0.196854 94.8538 0.254662 88.7606 0.291445C83.6336 0.320346 20.6666 0.286194 15.5397 0.246784C11.4704 0.215256 6.66272 1.31087 4.38974 5.78265C1.5017 8.08422 0.399254 11.3842 0.352432 15.5959C0.307739 19.7445 0.478022 23.9377 0.482278 28.0995C0.486535 38.4881 0.812153 48.8872 0.614226 59.2758C0.492915 65.7234 -1.67579 73.9129 2.93826 78.8076C5.41555 81.435 9.18681 81.5217 12.2536 81.3772C18.3958 81.0882 82.3695 80.9884 88.518 81.0278C90.7292 96.0274 107.083 101.377 116.881 93.9492C116.926 93.9308 116.971 93.915 117.015 93.894C117.473 93.6864 117.724 92.7563 117.169 92.4542C112.342 89.8189 110.445 84.1464 110.264 77.9826C114.51 78.0562 120.778 78.5187 122.161 72.4599C124.247 63.3351 123.621 52.6102 123.496 43.2515C123.362 33.4304 123.366 23.7407 123.826 13.9432C124.058 8.96176 123.323 2.88466 118.922 1.03236ZM89.6694 80.0951C89.663 80.0504 89.646 80.0241 89.6353 79.9873C89.6311 79.9637 89.6225 79.9453 89.6161 79.9216C89.5927 79.8507 89.5672 79.7877 89.5331 79.7377C89.5012 79.6852 89.4587 79.6484 89.4161 79.609C89.4119 79.6064 89.4076 79.6011 89.4033 79.5985C89.3097 79.5144 89.199 79.454 89.0522 79.4514C84.0891 79.4146 21.2859 79.4251 16.325 79.5932C12.2919 79.7325 7.77579 80.7072 4.14712 77.959C-0.752117 74.2465 1.79539 64.3072 1.90393 58.5717C2.07207 49.7542 1.83158 40.9237 1.77411 32.1088C1.74645 28.0102 1.83583 23.9141 1.82306 19.818C1.81029 15.7036 1.35272 11.8729 3.3703 8.90396C3.0766 10.6065 3.0915 12.3983 3.17875 14.1166C3.34476 17.3641 3.25113 20.5957 3.24687 23.851C3.23198 34.5602 3.58314 45.2798 3.37882 55.9863C3.25751 62.4339 1.08881 70.6234 5.70286 75.5182C8.18014 78.1455 11.9514 78.2323 15.0182 78.0877C21.1604 77.7987 85.1319 77.6989 91.2783 77.7383C92.8681 88.768 101.53 95.3311 110.194 95.3338C101.396 97.2255 91.0995 91.6607 89.6694 80.0951ZM122.513 14.6842C122.134 22.7686 122.01 30.7663 122.146 38.8743C122.312 48.8215 122.496 58.8108 121.336 68.6844C121.093 70.7627 121.097 72.8882 119.814 74.4594C117.53 77.2575 112.478 76.3984 109.541 76.3931C109.015 76.3931 108.83 77.0315 108.975 77.4966C109.066 83.755 110.824 89.7217 115.185 92.9429C105.58 96.1299 94.011 89.6639 92.4361 76.8082C92.4297 76.7635 92.4127 76.7373 92.4021 76.6979C92.3978 76.6769 92.3914 76.6558 92.3829 76.6348C92.3595 76.5639 92.3339 76.4982 92.2977 76.4483C92.2679 76.3983 92.2275 76.3616 92.1871 76.3248C92.1807 76.3195 92.1764 76.3116 92.1701 76.309C92.0743 76.2276 91.9657 76.1645 91.8189 76.1645C87.2155 76.1304 24.7699 76.1383 20.1665 76.2723C16.1462 76.3879 11.7173 77.3705 7.89923 75.3579C2.36577 72.4389 4.35143 63.5085 4.60257 57.8675C4.9367 50.3244 4.66641 42.7103 4.59405 35.1645C4.5302 28.4804 4.92818 21.6257 4.50891 14.9653C4.15349 9.29805 5.09631 4.66863 9.93383 2.7165C14.9012 0.711818 79.1984 1.89939 84.3892 1.88626C94.5367 1.85998 104.712 1.44486 114.857 1.72599C121.399 1.90465 122.836 7.77945 122.513 14.6842Z" fill="#1A1A1A"></path> <path d="M31.1309 35V20.7812H35.5254C37.0098 20.7812 38.1361 21.1133 38.9043 21.7773C39.679 22.4349 40.0664 23.4017 40.0664 24.6777C40.0664 25.4004 39.9069 26.0221 39.5879 26.543C39.2689 27.0638 38.8327 27.4447 38.2793 27.6855C38.9173 27.8678 39.4089 28.2357 39.7539 28.7891C40.099 29.3359 40.2715 30.013 40.2715 30.8203C40.2715 32.2005 39.8906 33.2422 39.1289 33.9453C38.3737 34.6484 37.2767 35 35.8379 35H31.1309ZM34.002 28.8184V32.6172H35.8379C36.3522 32.6172 36.7428 32.4577 37.0098 32.1387C37.2767 31.8197 37.4102 31.3672 37.4102 30.7812C37.4102 29.5052 36.9479 28.8509 36.0234 28.8184H34.002ZM34.002 26.7285H35.4961C36.6224 26.7285 37.1855 26.1458 37.1855 24.9805C37.1855 24.3359 37.0553 23.8737 36.7949 23.5938C36.5345 23.3138 36.1113 23.1738 35.5254 23.1738H34.002V26.7285ZM49.7051 28.8477H45.2324V32.6172H50.5254V35H42.3613V20.7812H50.5059V23.1738H45.2324V26.5332H49.7051V28.8477ZM61.5898 23.1738H58.0742V35H55.1934V23.1738H51.7363V20.7812H61.5898V23.1738ZM72.6055 23.1738H69.0898V35H66.209V23.1738H62.752V20.7812H72.6055V23.1738ZM81.5996 28.8477H77.127V32.6172H82.4199V35H74.2559V20.7812H82.4004V23.1738H77.127V26.5332H81.5996V28.8477ZM88.3867 29.8047H86.9609V35H84.0898V20.7812H88.6699C90.1087 20.7812 91.2188 21.1556 92 21.9043C92.7878 22.6465 93.1816 23.7044 93.1816 25.0781C93.1816 26.9661 92.4948 28.2878 91.1211 29.043L93.6113 34.8633V35H90.5254L88.3867 29.8047ZM86.9609 27.4121H88.5918C89.1647 27.4121 89.5944 27.2233 89.8809 26.8457C90.1673 26.4616 90.3105 25.9505 90.3105 25.3125C90.3105 23.8867 89.7539 23.1738 88.6406 23.1738H86.9609V27.4121ZM53.1719 53.8047H51.7461V59H48.875V44.7812H53.4551C54.8939 44.7812 56.0039 45.1556 56.7852 45.9043C57.5729 46.6465 57.9668 47.7044 57.9668 49.0781C57.9668 50.9661 57.2799 52.2878 55.9062 53.043L58.3965 58.8633V59H55.3105L53.1719 53.8047ZM51.7461 51.4121H53.377C53.9499 51.4121 54.3796 51.2233 54.666 50.8457C54.9525 50.4616 55.0957 49.9505 55.0957 49.3125C55.0957 47.8867 54.5391 47.1738 53.4258 47.1738H51.7461V51.4121ZM69.9492 53.1699C69.9492 55.0775 69.4967 56.5586 68.5918 57.6133C67.6934 58.668 66.4434 59.1953 64.8418 59.1953C63.2467 59.1953 61.9935 58.6745 61.082 57.6328C60.1706 56.5846 59.7083 55.1198 59.6953 53.2383V50.8066C59.6953 48.8535 60.1478 47.3301 61.0527 46.2363C61.9577 45.1361 63.2142 44.5859 64.8223 44.5859C66.4043 44.5859 67.651 45.1263 68.5625 46.207C69.474 47.2812 69.9362 48.7917 69.9492 50.7383V53.1699ZM67.0684 50.7871C67.0684 49.5046 66.8861 48.5508 66.5215 47.9258C66.1569 47.3008 65.5905 46.9883 64.8223 46.9883C64.0605 46.9883 63.4974 47.291 63.1328 47.8965C62.7682 48.4954 62.5794 49.4102 62.5664 50.6406V53.1699C62.5664 54.4134 62.752 55.3314 63.123 55.9238C63.4941 56.5098 64.0671 56.8027 64.8418 56.8027C65.5905 56.8027 66.1471 56.5163 66.5117 55.9434C66.8763 55.3639 67.0618 54.4688 67.0684 53.2578V50.7871ZM75.0078 59H72.1367V44.7812H75.0078V59Z" fill="#1A1A1A"></path> </svg> 