<?xml version="1.0" encoding="UTF-8"?> <svg xmlns="http://www.w3.org/2000/svg" width="151" height="231" viewBox="0 0 151 231" fill="none"> <g clip-path="url(#clip0)"> <path fill-rule="evenodd" clip-rule="evenodd" d="M66.1223 150.339C65.8682 152.983 66.3876 155.507 67.6248 157.642L68.0273 158.336L67.2612 158.604C65.8669 159.09 64.3164 159.327 62.521 159.327C60.6732 159.327 58.7518 159.07 57.2079 158.864L56.2194 158.732L56.7049 157.875C57.0954 157.187 57.1677 156.352 57.2443 155.469C57.2649 155.232 57.2861 154.987 57.314 154.744C58.777 141.699 60.6262 128.483 62.4144 115.703C62.8851 112.34 63.3717 108.862 63.8438 105.442L65.1979 105.494C65.5622 111.825 65.9157 118.264 66.2575 124.491C66.4078 127.229 66.5582 129.967 66.7098 132.705C67.2502 139.627 67.0635 145.231 66.1223 150.339ZM65.5696 228.566C67.5582 228.566 69.5507 228.359 71.4915 227.952C77.5647 226.68 83.0823 223.679 87.7773 220.966C88.017 220.831 88.2602 220.695 88.5099 220.556C90.348 219.53 92.6355 218.253 94.069 216.696C95.6416 214.988 95.9123 213.285 94.9207 211.339L94.7638 211.031L94.9277 210.726C95.9545 208.82 95.8782 206.461 94.7421 204.99L93.7873 203.754L95.3571 203.92C96.9399 204.088 98.5352 204.315 100.078 204.534C101.79 204.778 103.56 205.03 105.304 205.199L105.788 205.245L105.9 205.711C105.962 205.971 106.038 206.128 106.576 206.128C107.043 206.128 107.669 205.992 108.333 205.848C109.156 205.669 110.089 205.466 110.989 205.466C111.385 205.466 111.741 205.503 112.078 205.581L112.274 205.626L112.413 205.768C112.502 205.86 112.654 205.916 112.809 205.916C112.926 205.916 113.035 205.884 113.108 205.827L113.328 205.655L113.607 205.686C118.467 206.218 122.658 207.153 126.419 208.542L126.436 208.548L126.518 208.583C127.878 209.169 129.284 209.774 130.564 209.774C131.5 209.774 132.26 209.457 132.956 208.775L133.153 208.582L133.431 208.579C136.246 208.554 137.533 205.278 137.711 203.083L137.733 202.806L137.948 202.627C142.854 198.519 145.751 192.877 146.804 185.378C147.762 178.548 147.026 171.346 146.18 165.203C144.222 149.281 142.18 135.008 136.989 121.471L136.746 120.838L137.392 120.606C139.634 119.802 141.348 118.843 142.631 117.674L142.72 117.593L142.832 117.547C144.67 116.794 145.571 114.012 145.803 113.177L145.822 113.11L145.854 113.048C146.229 112.33 146.316 111.331 146.092 110.308L146.068 110.197L146.082 110.085C146.203 109.113 145.8 108.098 145.375 107.022C145.18 106.53 144.979 106.023 144.832 105.517C144.327 104.071 143.823 102.6 143.335 101.176C142.24 97.9836 141.107 94.6821 139.901 91.4704L139.736 91.0312L140.1 90.7285C140.72 90.2115 140.513 89.603 139.618 88.1481C139.407 87.8045 139.207 87.4793 139.055 87.159C137.909 85.1823 136.68 83.2849 135.402 81.5186L135.376 81.4824L135.355 81.4431C128.799 69.2278 117.169 62.5006 102.609 62.5006L102.313 62.5012L102.148 62.4027C99.4196 60.7656 97.4715 57.9566 96.1931 53.8153L96.1523 53.6833L96.168 53.5461C96.2118 53.1644 96.2598 52.664 96.2434 52.1784C96.2017 50.9486 95.7185 49.8512 94.9178 49.1674C93.3986 47.8702 91.0923 47.7616 88.8602 47.7616L88.5397 47.7622C85.686 47.7703 83.6712 48.2646 82.1991 49.318C80.4888 50.5419 79.5435 52.5175 79.3092 55.3577C79.2392 56.2076 79.2416 57.0881 79.2438 57.9395L79.2443 58.1771L79.2156 58.2715C79.0105 58.9465 78.7702 59.5951 78.5016 60.1995L78.2252 60.8212L77.5967 60.5409C77.1902 60.3597 76.675 60.2665 76.021 60.256C75.8325 60.2517 75.6486 60.2497 75.4631 60.2497C73.9448 60.2497 72.3207 60.3879 70.7499 60.5216C69.5664 60.6224 68.3425 60.7267 67.1579 60.773L67.1417 60.7736C67.1417 60.7736 66.9781 60.7726 66.9047 60.7726C64.0255 60.7726 61.9382 61.2243 60.3362 62.1943C58.6112 63.2386 57.3709 64.9146 56.433 67.4688C51.4025 82.1097 49.3343 97.8799 47.5101 111.793C46.4753 119.069 46.1606 126.528 45.8562 133.741C45.5348 141.355 45.2027 149.228 44.0263 156.924L43.9334 157.533L43.3087 157.492C40.5598 157.315 37.5891 156.934 34.4441 156.53C29.6657 155.917 24.7245 155.283 19.9479 155.283C13.2692 155.283 8.20528 156.594 4.46931 159.291C1.86475 161.739 0.517342 165.054 0.572701 168.88C0.650978 174.286 3.51704 180.262 7.87424 184.106L7.89069 184.121C13.3983 189.312 23.4516 193.814 37.7714 197.502C50.9394 200.894 64.56 202.737 71.5073 203.534L73.2267 203.731L71.8311 204.738C71.2662 205.145 70.7508 205.504 70.2554 205.835L69.9358 206.048L69.5857 205.888C68.5873 205.431 67.9533 205.335 67.5969 205.335C67.2808 205.335 66.8993 205.404 66.8783 205.73C66.8646 205.944 67.0171 206.261 67.339 206.301L69.0479 206.514L67.6525 207.507C66.7204 208.17 65.3298 208.969 63.7194 209.895C58.4509 212.923 50.4891 217.5 51.8584 221.519L51.9483 221.783L51.821 222.032C51.4531 222.751 51.4217 223.419 51.7253 224.074C52.3753 225.476 54.4089 226.541 56.1359 226.974L56.1655 226.982L56.1945 226.992C59.1995 228.036 62.3538 228.566 65.5696 228.566Z" fill="#EDB98A"></path> <path fill-rule="evenodd" clip-rule="evenodd" d="M79.1354 198.384C79.0821 198.301 79.0344 198.185 79.0084 198.083C78.644 198.6 72.8137 203.698 67.0481 208.024C61.6928 212.043 55.5506 215.079 53.166 218.429C52.2598 219.703 51.7992 223.434 51.9735 224.061C52.3631 224.554 56.65 226.767 56.65 226.767C57.6187 227.028 65.3933 229.131 68.8468 228.416C70.1173 228.223 79.2778 225.298 80.435 224.775L90.2789 219.076C90.4939 218.982 90.7079 218.889 90.9205 218.796L91.2083 218.681C93.4036 217.804 96.2043 215.947 95.6309 213.27C94.9564 210.514 96.1665 209.912 95.8894 208.097C95.6496 206.526 95.1262 204.927 94.2898 203.402C91.0588 207.027 86.9576 206.711 84.8918 202.205L84.8444 202.113L84.7977 202.021C84.1223 200.676 83.4836 198.968 81.8842 198.44C81.0016 197.844 79.8728 197.721 79.1354 198.384ZM108.661 188.272L108.461 188.73C107.489 190.949 105.426 195.558 104.606 197.377C104.788 197.04 104.997 196.717 105.232 196.411C105.918 195.519 105.113 198.216 105.107 201.03C105.101 203.641 105.909 206.353 106.095 206.399C106.324 206.454 109.521 204.887 112.518 205.362C114.938 205.747 118.606 206.18 122.251 207.172C125.213 207.979 128.16 209.348 130.407 209.813C132.232 210.191 132.589 208.217 133.782 208.339C134.857 208.449 135.03 208.423 135.296 208.201C136.788 206.97 138.198 202.107 138.057 200.279C136.819 190.595 117.706 187.473 108.661 188.272Z" fill="white"></path> <path fill-rule="evenodd" clip-rule="evenodd" d="M76.6289 59.6458L74.3437 59.7262L74.1425 59.7344C73.3806 59.7672 72.5894 59.8224 71.4743 59.9149L71.1701 59.9404L68.9685 60.2898C68.297 60.3957 67.667 60.4945 67.0589 60.5891L65.8626 60.7742L64.4452 60.9908L64.2892 61.0156C62.1667 61.3576 60.7131 61.8724 59.512 62.9161L59.4592 62.9624L59.4361 62.9829L59.4146 63.005C57.5801 64.8877 56.1959 67.848 55.0682 71.8886L54.9946 72.1544L54.9283 72.3981C54.22 75.0222 51.315 90.6369 51.315 90.6369L52.3111 90.7119C52.433 90.7211 52.5537 90.7319 52.6732 90.7444C56.2528 91.1183 60.5542 92.5413 63.3038 95.1859C63.4685 95.3444 65.4503 95.5191 64.4653 96.3467V96.9271L64.6754 97.3606C64.6754 97.3606 67.7377 144.324 67.2765 147.671L67.2524 147.844L67.2246 147.97C66.1059 153.1 66.6093 157.011 68.7982 159.497L68.865 159.572L68.9343 159.648C71.252 162.141 75.188 162.965 80.5943 162.118C80.6687 162.106 80.7421 162.094 80.8145 162.082L81.7103 161.932L81.6107 160.982L81.5946 160.824C80.8856 153.848 81.014 147.745 82.2065 142.341C83.5853 136.093 86.3581 131.014 90.7656 127.211L90.8997 127.097L90.9187 127.08L91.7615 126.528L92.3422 125.947C101.058 118.559 122.584 102.533 122.584 102.533L119.104 97.5548L119.11 97.5488C119.145 97.5151 119.193 97.4744 119.255 97.4264L119.311 97.3836L119.339 97.3632C119.665 97.1269 133.543 90.9229 137.67 90.2343L137.869 90.2015L138.069 90.1695L138.23 90.1443L138.484 90.1056L139.542 89.9465L139.148 88.9537C139.095 88.8208 139.042 88.6872 138.988 88.5528C138.083 86.3055 137.179 85.9018 136.199 84.0496L136.118 83.8972L135.957 83.5728C133.777 79.2264 130.742 72.9209 124.226 68.7002C115.491 63.0412 105.388 62.1914 105.33 62.223C105.33 62.223 103.857 67.5462 100.742 71.3033C98.7182 73.7452 94.8877 75.8551 93.4138 76.3558L93.3002 76.394L93.1838 76.4323C89.2571 77.7114 84.972 77.7071 81.3719 76.3818L81.2835 76.3488L81.2283 76.3247C79.1305 75.3916 77.6379 73.7573 76.6807 71.5048L76.6475 71.426L76.6148 71.3467C75.5401 68.7172 75.2168 65.3773 75.522 61.7976L75.5329 61.6726L75.5493 61.4938L75.5502 61.4831L76.6289 59.6458ZM137.286 120.587L136.956 120.692L136.731 120.763C135.575 121.126 134.032 121.775 132.085 122.306L130.034 122.864C129.474 123.018 129.042 123.138 128.617 123.259L127.982 123.441L127.701 123.524L126.606 123.851L127.175 124.789L127.401 125.164C133.694 135.604 138.923 146.799 143.025 158.545C143.339 159.442 143.646 160.345 143.948 161.253L144.129 161.799L145.781 161.429C145.634 160.254 145.485 159.111 145.33 157.993L145.257 157.463C145.021 155.78 144.762 154.047 144.475 152.23L144.384 151.659L144.328 151.254L144.291 150.99C143.695 146.784 142.975 143.166 141.396 136.007L140.643 132.604C139.767 128.617 137.286 120.587 137.286 120.587Z" fill="#F5F2EF"></path> <path fill-rule="evenodd" clip-rule="evenodd" d="M55.5918 158.562C55.2389 156.642 55.9082 154.66 56.024 152.726C57.7756 138.938 59.7098 125.158 62.2728 111.49C62.9013 108.219 63.5365 104.961 64.2648 101.708C64.1548 99.7381 64.0583 97.7681 63.9948 95.7971C60.4382 93.5662 56.4278 92.1225 52.2802 91.3945C51.1593 97.6243 50.0396 103.85 49.2623 110.135C46.8402 125.693 48.222 141.524 45.8725 157.064C49.132 157.429 52.3663 157.969 55.5918 158.562ZM49.3357 170.682C51.7868 171.332 54.2401 171.954 56.7108 172.528C61.1074 173.549 65.5028 174.575 69.8882 175.641C72.0771 176.174 74.2708 176.69 76.4552 177.24C77.4917 177.501 78.5216 177.791 79.536 178.127C80.0422 178.295 80.5369 178.487 81.0316 178.684C81.4649 178.857 81.8738 179.096 82.3503 179.062C82.3787 179.06 82.3964 179.032 82.3824 179.007C82.1332 178.55 81.6196 178.333 81.1661 178.102C80.6662 177.847 80.1452 177.628 79.6238 177.419C78.4656 176.956 77.2593 176.615 76.0562 176.285C71.6834 175.084 67.2731 174.008 62.8673 172.932C58.4406 171.851 54.0136 170.816 49.528 169.997C49.0762 169.914 48.8807 170.561 49.3357 170.682ZM71.0478 207.649C70.8517 207.597 70.6543 207.549 70.4579 207.503C67.3131 210.115 52.5025 216.898 53.6289 220.949C54.0271 221.453 54.9801 221.568 55.5826 221.731C56.632 222.014 57.6916 222.259 58.7613 222.453C62.2194 223.081 65.8008 223.19 69.2543 222.474C70.5248 222.282 71.6718 221.741 72.829 221.218C76.5682 219.577 80.6864 217.764 84.4076 216.137C89.135 214.267 97.427 210.582 94.0166 204.365C90.7856 207.99 86.6844 207.674 84.6185 203.167C83.9061 201.799 83.2845 199.955 81.6111 199.402C80.7284 198.807 79.5996 198.683 78.8622 199.347C78.8088 199.264 78.7612 199.148 78.7352 199.046C77.9036 200.226 77.1866 201.469 76.2121 202.549C76.5467 202.566 80.0295 205.138 79.0018 205.14C77.7651 204.504 76.5365 203.974 75.2013 203.632C74.2335 204.603 73.1693 205.506 72.0666 206.341C73.1375 207.047 74.0997 207.911 74.8733 208.849C74.9402 208.931 74.8586 209.038 74.7587 208.993C73.5573 208.459 72.3218 207.99 71.0478 207.649ZM55.1061 225.168C67.1352 230.558 79.8697 224.556 90.1277 218.157C92.4953 216.838 95.6095 214.968 95.1308 211.863C93.387 214.408 90.5123 215.858 87.7532 217.114C83.1177 219.205 78.4516 221.228 73.8047 223.293C73.3657 224.745 71.2669 224.801 69.9985 225.123C64.3521 226.216 58.2827 225.673 52.9687 223.495C53.2763 224.403 54.2825 224.82 55.1061 225.168ZM103.099 204.179C103.397 204.216 103.694 204.251 103.991 204.284C103.96 203.892 104.197 203.5 104.579 203.378C104.407 202.546 104.344 201.687 104.436 200.843C103.939 202.124 102.335 201.735 101.316 201.366C99.8603 200.971 98.4139 200.546 96.9753 200.094C96.4081 201.145 95.8069 202.181 95.0683 203.133C97.7571 203.371 100.421 203.845 103.099 204.179ZM104.283 200.149C104.354 200.3 104.456 200.459 104.458 200.64C104.531 200.017 104.673 199.401 104.888 198.811C104.687 199.257 104.484 199.703 104.283 200.149ZM105.98 196.808C107.303 195.088 109.747 193.682 112.007 194.161C112.153 194.193 112.156 194.426 112.007 194.455C108.972 194.866 106.306 197.268 106.2 200.375C105.961 201.78 106.941 203.161 106.611 204.51C106.676 204.514 106.742 204.517 106.807 204.522C106.831 204.612 106.852 204.692 106.881 204.763C106.553 204.817 106.456 205.344 106.843 205.437C107.072 205.493 107.312 205.522 107.556 205.534C108.793 205.201 110.099 205.124 111.283 204.631C112.453 204.115 112.161 202.665 112.574 201.66C112.876 200.502 113.225 199.348 113.664 198.236C113.695 198.147 113.817 198.167 113.827 198.257C114.137 200.475 114.127 202.73 114.052 204.965C114.458 205.007 114.862 205.053 115.267 205.103C115.241 204.478 117.118 196.872 118.107 198.824C117.609 200.97 117.549 203.212 117.496 205.42C120.433 205.903 123.327 206.622 126.143 207.601C128.127 208.201 130.487 209.976 132.413 208.371C133.905 207.141 134.408 204.993 134.267 203.166C132.327 192.355 117.005 191.092 107.96 191.892C107.105 193.858 106.235 195.818 105.354 197.774C105.536 197.437 105.745 197.114 105.98 196.808ZM136.83 202.956C136.995 200.501 136.581 197.445 134.758 195.615C130.586 192.096 124.743 190.988 119.529 189.714C117.1 189.236 114.638 188.918 112.166 188.76C111.289 188.691 110.175 188.889 109.556 188.174C109.237 188.927 108.914 189.68 108.59 190.432C118.971 189.075 140.628 193.789 134.563 207.976C135.847 206.588 136.698 204.898 136.83 202.956ZM144.077 157.514C143.786 155.407 143.469 153.302 143.133 151.2C141.76 141.149 138.923 131.366 137.231 121.382C134.303 122.332 131.305 123.055 128.348 123.911C134.755 134.54 139.995 145.827 144.077 157.514ZM120.021 147.623C120.584 144.952 121.216 142.23 121.503 139.514C121.516 139.392 121.328 139.379 121.294 139.486C120.824 140.99 120.503 142.549 120.106 144.074C119.708 145.604 119.338 147.14 118.945 148.672C118.82 149.161 118.695 149.65 118.569 150.139C118.494 150.142 118.419 150.144 118.344 150.146C118.057 150.153 117.97 150.513 118.202 150.662C118.269 150.706 118.337 150.744 118.404 150.779C117.203 155.439 115.973 160.089 114.63 164.713C113.065 170.103 111.303 175.427 109.895 180.86C109.862 180.985 109.921 181.073 110.006 181.111C109.274 183.583 108.66 186.088 107.99 188.579C107.851 189.097 108.619 189.434 108.881 188.948C109.285 188.2 109.375 187.178 109.573 186.356C109.796 185.43 110.007 184.502 110.219 183.574C110.555 182.097 110.857 180.603 111.106 179.105C112.033 176.782 112.863 174.43 113.598 172.034C115.243 166.668 116.761 161.265 118.112 155.82C118.511 154.213 118.902 152.603 119.275 150.99C120.973 151.016 122.748 149.099 124.454 150.12C124.533 150.167 124.613 150.059 124.551 149.997C123.871 149.309 122.93 149.249 122.017 149.419C121.423 149.53 120.854 149.739 120.273 149.898C120.016 149.967 119.754 150.018 119.488 150.056C119.671 149.246 119.85 148.436 120.021 147.623ZM83.4319 198.202C84.2998 198.768 85.0077 199.605 85.5068 200.505C88.7062 208.855 92.1277 204.383 96.3787 199.902C92.7813 198.547 88.0164 197.533 85.2573 194.84C84.7796 196.031 84.1954 197.165 83.4319 198.202ZM84.5765 177.833C84.8543 176.459 85.0833 175.077 85.2915 173.692C85.4914 172.363 85.8038 170.939 85.7528 169.594C85.7509 169.541 85.6751 169.531 85.6588 169.582C85.2263 170.923 85.0968 172.405 84.8224 173.786C84.5571 175.121 84.2655 176.451 83.9718 177.781C83.3687 180.51 82.5159 183.197 81.9997 185.942C81.9444 186.236 82.3427 186.339 82.4509 186.064C83.4846 183.439 84.0201 180.586 84.5765 177.833ZM143.089 115.93C144.486 114.429 145.585 112.511 145.372 110.476C144.533 109.359 144.255 107.902 143.766 106.611C141.854 101.209 140.08 95.7645 138 90.42C133.574 91.7779 129.22 93.4067 125.113 95.5461C124.357 95.9308 123.61 96.3299 122.871 96.7435C122.097 97.1761 121.253 97.9275 120.325 97.7123C121.34 99.1449 123.428 100.635 123.781 102.291C123.857 102.815 123.485 103.301 122.913 103.184C113.963 109.527 104.72 115.735 96.2608 122.8C89.9258 127.804 85.0623 131.862 82.8896 139.98C81.425 145.239 81.4206 150.735 81.636 156.142C81.678 157.194 81.6791 158.269 81.7642 159.327C81.6371 160.119 81.8788 161.73 82.7705 161.759C82.7502 161.951 82.6865 162.128 82.5856 162.284C82.6139 162.322 82.6434 162.358 82.6741 162.394C82.7183 162.178 82.7614 161.963 82.8024 161.747C83.4966 158.679 83.5896 155.119 83.474 151.852C83.4252 150.916 84.8647 150.938 84.9453 151.852C85.162 154.322 85.3788 156.791 85.5954 159.259C85.8553 160.859 85.4456 162.952 86.7276 164.168C88.0311 162.966 87.6001 160.596 87.5365 159.045C87.4345 156.516 87.3243 153.987 87.2301 151.458C87.2007 150.656 88.5315 150.45 88.6824 151.265C89.11 153.588 89.5729 155.905 90.071 158.215C90.3715 159.108 90.5781 163.115 92.0801 162.419C92.9753 161.809 92.3297 158.234 92.4476 157.05C92.3921 154.706 92.3593 152.366 92.1867 150.028C92.1164 149.085 93.656 148.885 93.8669 149.805C94.2095 151.296 94.5374 152.787 94.8346 154.287C95.4869 156.817 95.2498 160.246 97.605 161.927C98.5273 155.356 97.2001 148.831 97.0139 142.283C97.1252 140.162 97.4904 138.061 97.8126 135.965C98.1688 133.648 98.3765 131.125 97.5426 128.889C97.7706 127.888 98.6669 130.596 98.751 130.822C99.4259 129.495 101.07 129.392 102.37 128.979C105.259 128.046 108.219 127.342 111.143 126.513C118.896 124.364 126.658 122.249 134.422 120.139C137.524 119.283 140.789 118.269 143.089 115.93ZM65.4502 150.882C66.52 145.097 66.4905 139.236 66.0333 133.387C65.5307 124.316 65.043 115.244 64.521 106.174C62.2555 122.589 59.8402 138.986 57.9933 155.453C57.8617 156.6 57.882 157.812 57.3023 158.835C60.5061 159.263 63.921 159.694 67.0362 158.607C65.6691 156.249 65.187 153.565 65.4502 150.882ZM134.988 83.8056C129.587 72.745 118.576 64.8931 106.227 63.1806C106.213 63.194 106.199 63.2074 106.185 63.2219C106.226 63.2587 106.263 63.2988 106.297 63.3401C105.965 63.0959 105.509 63.4025 105.656 63.7402C105.474 64.1561 105.339 64.5842 105.17 65.0034C105.098 64.9967 105.026 64.99 104.953 64.9789C104.22 66.4305 103.823 68.1039 103.057 69.551C98.8666 76.7953 88.5246 79.7364 80.767 76.812C74.6113 74.1509 73.7377 66.5732 74.2892 60.748C74.3176 60.3556 74.5171 60.078 74.7838 59.9141C71.4268 60.4503 68.0698 60.991 64.7095 61.5005C63.0907 61.7458 61.4274 62.1003 60.1773 63.2096C55.257 68.2611 54.379 81.8546 52.7237 88.9217C56.6841 89.3353 61.1109 91.5874 63.9495 94.3177C63.8155 91.2139 64.0074 88.1257 64.3659 85.0442C64.3715 84.8937 64.6233 84.8424 64.6471 85.0074C65.3561 88.1313 65.9018 91.2819 66.1265 94.4825C67.0603 107.363 67.6149 120.268 68.4147 133.157C68.6881 137.901 69.0296 142.686 68.3523 147.413C66.172 157.145 70.0166 161.921 80.3359 160.303C79.0824 147.97 79.991 133.86 90.3432 125.309C90.6587 125.028 91.0375 125.047 91.3245 125.214C99.7413 118.079 108.624 111.47 118.079 105.715C118.011 104.525 120.994 103.474 121.829 102.653C118.728 99.4494 116.367 95.554 114.308 91.6364C114.127 91.2105 111.759 86.925 112.512 87.1948C114.762 90.5204 116.999 93.8672 119.648 96.9108C119.504 95.5072 123.149 94.5662 124.271 93.9251C128.606 92.1035 133.138 90.6776 137.809 89.9395C136.968 87.8514 136.049 85.7945 134.988 83.8056ZM77.3012 61.2463C77.443 61.0044 77.578 60.7569 77.7073 60.506C77.2694 60.5228 76.8429 60.5384 76.4119 60.6097C76.4311 61.302 76.3926 61.9999 76.3845 62.6979C76.6002 62.1872 77.0221 61.7212 77.3012 61.2463ZM4.14729 158.742C14.4927 151.237 31.4851 156.019 43.4697 156.79C45.7545 141.843 44.822 126.652 46.9515 111.68C48.9129 96.7235 50.9811 81.558 55.907 67.2275C57.94 61.6867 61.4569 60.0411 67.2473 60.0857C70.1858 59.9709 73.293 59.5015 76.1485 59.5684C76.7747 59.5785 77.4293 59.661 77.9943 59.9129C78.7884 58.1269 79.2197 56.2093 79.4374 54.2773C79.4511 54.1547 79.6075 54.1324 79.6542 54.2494C80.3258 55.9317 80.3971 57.7679 80.032 59.5294C79.7676 60.7914 78.194 65.7582 76.3663 63.8149C76.2212 67.8898 77.1186 72.7562 81.1199 74.871C88.1116 77.9124 97.7764 75.1431 101.826 68.688C102.609 67.3981 103.284 66.0256 104.151 64.7871C98.1121 63.0814 94.7224 55.8626 96.1449 50.3652C97.0242 54.6407 98.6273 59.4179 102.619 61.8127C117.157 61.7803 129.244 68.3859 136.073 81.1087C137.41 82.956 138.645 84.8758 139.777 86.8291C140.387 88.1357 142.171 89.9529 140.657 91.215C142.406 95.8728 143.958 100.595 145.598 105.29C146.049 106.854 147.079 108.495 146.873 110.14C147.096 111.153 147.086 112.352 146.576 113.326C146.093 115.063 145.008 117.4 143.21 118.137C141.684 119.527 139.755 120.485 137.742 121.206C143.109 135.2 145.152 150.292 146.971 165.077C148.753 178.012 149.673 193.746 138.506 203.094C138.289 205.768 136.698 209.176 133.553 209.205C131.375 211.339 128.721 210.169 126.296 209.125C122.204 207.613 117.912 206.775 113.648 206.308C113.191 206.665 112.446 206.605 112.039 206.19C109.456 205.595 105.876 208.001 105.354 205.822C102.023 205.5 98.7283 204.895 95.4007 204.543C96.803 206.358 96.702 209.035 95.6459 210.996C98.3357 216.275 92.0699 219.332 88.2388 221.498C83.0667 224.486 77.6653 227.321 71.7502 228.559C66.5497 229.651 61.1018 229.32 56.0841 227.576C53.4476 226.915 49.765 224.744 51.3295 221.686C49.3463 215.867 63.2732 209.836 67.3699 206.922C65.6955 206.714 65.6342 203.246 69.9894 205.239C70.5158 204.887 71.0331 204.525 71.5448 204.156C53.9286 202.136 20.2853 196.578 7.536 184.565C0.531799 178.387 -3.50934 165.892 4.14729 158.742Z" fill="black"></path> <path fill-rule="evenodd" clip-rule="evenodd" d="M67.9097 16.2804C67.9478 14.927 69.9211 14.3651 70.4911 15.7055C70.5265 15.7414 70.565 15.7759 70.6011 15.8068C70.4226 15.6541 70.7957 15.9067 70.8564 15.938C70.9084 15.9647 70.9615 15.9888 71.0145 16.0137C71.3811 12.585 72.6259 8.88877 75.8424 7.16776C80.3286 4.99742 85.5124 4.57379 90.4341 4.7894C92.9274 4.93698 95.8065 5.3347 98.0216 4.07636C98.7118 3.68431 99.2651 3.06714 100.045 2.82482C102.507 2.16034 103.624 4.68267 103.289 6.75691C104.339 6.76518 105.381 7.34522 105.834 8.30023C106.1 8.86545 106.095 9.47538 106.325 10.0426C107.029 11.4812 108.037 12.5152 107.467 14.2593C108.469 15.3966 107.898 17.1184 107.089 18.2073C106.69 18.7737 106.214 19.3174 105.922 19.9513C105.638 20.5583 106.067 21.2781 106.305 21.8535C108.068 26.0241 107.967 30.617 107.019 34.9672C108.922 35.7913 109.494 38.3673 108.252 39.9892C107.825 40.5626 107.304 40.7754 106.713 41.1282C105.965 41.5388 106.576 43.1835 106.337 43.9778C106.011 45.9169 104.241 47.1111 102.492 45.8518C101.381 45.6842 100.485 48.9075 99.6791 49.7165C99.1823 50.3684 98.6307 50.9538 98.031 51.494C96.2442 56.0806 87.0882 58.4064 82.5614 58.1409C77.8209 57.6457 74.6229 53.6294 71.9601 50.065C70.5927 48.1657 69.7034 46.0399 69.3799 43.7215C69.055 41.3913 69.1971 39.057 69.4168 36.724C69.8782 31.7672 70.6061 24.626 71.0761 19.6156C69.3775 19.4761 67.8582 18.0334 67.9097 16.2804Z" fill="#EDB98A"></path> <path fill-rule="evenodd" clip-rule="evenodd" d="M101.774 3.48439C101.444 3.15969 100.903 3.49285 100.546 3.75374L100.467 3.81234L100.24 3.98418C99.7264 4.37933 99.2456 4.80874 98.6906 5.15051C98.0849 5.52377 97.4271 5.82053 96.759 6.06387C95.4634 6.53571 94.0697 6.74747 92.6962 6.81436C87.0764 7.08803 80.5355 4.1423 75.435 7.65993C74.226 8.49372 73.3916 9.7129 72.961 11.1073C72.4755 12.6797 72.6418 14.3081 72.2445 15.886C72.0721 16.5708 70.8842 16.6658 70.7515 15.9132L70.7428 15.8549L70.6387 15.7899L70.5977 15.7654C70.5555 15.7412 70.5363 15.7343 70.5728 15.7683L70.5809 15.7756L70.5647 15.7616C70.5524 15.7506 70.54 15.7393 70.5277 15.7277L70.4915 15.6924C70.2383 15.097 69.7082 14.8769 69.1939 14.9348L69.2084 14.9702L69.3615 15.3639L69.4103 15.4875C69.5904 15.9384 69.7887 16.3653 70.1312 16.7517C70.616 17.2985 71.2188 17.7441 71.898 18.0184C72.0377 18.0748 72.0167 18.2637 71.8626 18.2789C70.3454 18.4296 68.6363 17.51 67.9227 16.1163C67.9158 16.1654 67.9115 16.2158 67.9101 16.2673C67.9051 16.4371 67.9148 16.604 67.938 16.767C68.0225 16.7984 68.1043 16.8449 68.1802 16.9078C68.6729 17.3163 68.9149 17.9839 69.3782 18.4397C69.8638 18.9173 70.4597 19.3602 71.1069 19.582C71.1171 19.5855 71.1255 19.5906 71.1329 19.5963C71.1817 19.4116 71.2333 19.2279 71.2923 19.047C71.3155 18.9759 71.4104 18.9937 71.4176 19.064C71.4306 19.1894 73.2106 17.9263 74.5814 18.1303C77.1585 18.514 77.7536 20.015 81.4564 19.7934C83.2636 19.6852 87.0801 17.9963 90.4188 17.8693C93.4477 17.7542 98.8607 19.4787 100.289 20.4725C101.031 20.9891 98.9348 22.695 99.3145 23.4706C100.392 25.6707 99.9553 28.581 101.082 30.3207L101.125 30.3862C101.846 31.4435 101.396 34.257 101.677 35.1244C102.184 36.6904 103.024 36.0045 102.897 36.2144C102.857 36.2807 102.75 36.2377 102.771 36.1612C103.117 34.905 104.065 33.9566 105.27 33.6105C105.218 33.3127 105.312 32.9389 105.498 32.6946L105.574 32.3412L105.644 32.0103C105.805 31.2385 105.95 30.4674 106.028 29.6745C106.144 28.4855 106.148 27.2876 106.072 26.0956C105.971 24.5293 105.648 23.0203 105.292 21.5124L105.254 21.3508L104.974 20.1783C104.276 20.3766 103.559 20.5019 102.862 20.564C102.05 20.6362 101.247 20.6295 100.45 20.5656C99.7435 22.48 99.7704 24.66 100.643 26.5297C101.665 28.7169 104.168 30.8061 103.481 33.4585C103.181 34.6147 101.428 34.3787 101.387 33.2112L101.386 33.1755C101.379 32.0219 100.986 31.072 100.467 30.0805L100.396 29.945L100.277 29.724C99.6552 28.5642 99.1289 27.4197 98.9539 26.1003C98.6998 24.1836 99.098 22.2044 100.049 20.5287C96.6602 20.176 93.3798 18.8375 90.0705 18.1183L89.9188 18.0859L89.7663 18.0546C87.3215 17.5628 84.6269 17.5047 82.4106 18.7888C82.3683 18.8132 82.3348 18.752 82.3731 18.7246C85.59 16.41 89.7563 16.7385 93.4451 17.5542L93.6576 17.6018L93.8663 17.6494C97.2782 18.4356 100.853 19.5903 104.34 18.5731C105.247 18.3087 106.127 17.8744 106.837 17.2455L106.896 17.1925C107.196 16.9223 107.539 16.5725 107.596 16.1623C107.617 16.0179 107.61 15.919 107.525 15.8047C107.436 15.6856 107.28 15.6862 107.37 15.6432C106.325 16.1455 105.43 14.7021 106.411 14.0768L106.48 14.0341C107.736 13.2407 107.108 11.435 105.668 11.4434L105.595 11.4447C104.779 11.4472 104.529 10.486 104.968 9.92346L105.01 9.87096C105.822 8.82796 104.455 7.56987 103.392 8.15952L103.334 8.19288C102.829 8.47132 102.299 8.16133 102.108 7.66966C101.698 6.61467 101.908 5.52542 101.932 4.43354L101.933 4.36232L101.935 4.24354L101.935 4.14974L101.934 4.08758C101.929 3.85745 101.899 3.60781 101.774 3.48439ZM71.0942 19.7464L71.084 19.7487L71.062 19.7497L71.042 19.9639L71.0676 19.8551L71.0942 19.7464ZM105.946 19.8887L105.97 19.838L105.89 19.8704L105.929 19.9248L105.946 19.8887ZM83.6927 13.8166C83.7772 13.7926 83.8381 13.9238 83.7542 13.962C81.6673 14.9143 80.0845 16.4341 78.849 18.3384C78.7319 18.5187 78.5553 18.5716 78.352 18.5401C78.2522 18.5247 78.1961 18.4764 78.1429 18.4101L78.1296 18.3932L78.089 18.3384C78.0009 18.2178 78.0125 18.0171 78.089 17.8952C79.3431 15.8973 81.4418 14.4578 83.6927 13.8166ZM78.7251 13.1928C78.8169 13.1931 78.8658 13.3332 78.7956 13.3928C78.1964 13.9016 77.6112 14.4656 77.1857 15.1313C76.979 15.4545 76.8063 15.799 76.6813 16.1618C76.5451 16.5577 76.5009 16.9681 76.3064 17.3425C75.9803 17.97 75.1065 17.6195 75.0626 17.0064C74.9963 16.0816 75.7705 15.0417 76.3841 14.4115C77.0066 13.772 77.7702 13.3309 78.6513 13.2021L78.7129 13.1936L78.7251 13.1928ZM101.728 12.469C101.984 12.4045 102.193 12.7302 101.992 12.9212C100.887 13.9712 99.3939 14.4582 97.9073 14.6708L97.8317 14.6814C96.4398 14.8718 94.4154 14.9797 93.3659 13.8503C93.1437 13.6112 93.2133 13.1528 93.57 13.0789C94.0585 12.9776 94.5599 13.015 95.0554 13.0759L95.1968 13.0938L95.5482 13.1403C96.2423 13.2308 96.939 13.2859 97.6396 13.2654C99.0424 13.2242 100.379 12.8097 101.728 12.469ZM77.4169 9.12805C77.5639 9.07135 77.7193 9.27303 77.627 9.40081C77.2037 9.9864 76.6965 10.4985 76.263 11.0752C75.828 11.6537 75.4648 12.2615 74.9502 12.7762C74.674 13.0523 74.2038 12.7714 74.3014 12.3994C74.6708 10.9911 76.076 9.64505 77.4169 9.12805ZM99.4414 9.76369C99.5959 9.70914 99.7041 9.9226 99.5966 10.0298C98.1721 11.4486 95.6093 12.1917 93.7224 11.3722C93.2978 11.1877 93.5579 10.5949 93.9399 10.5715C94.8841 10.5134 95.8323 10.6223 96.7717 10.479C97.6888 10.339 98.5684 10.0721 99.4414 9.76369ZM97.0467 7.86181C97.2508 7.77704 97.3361 8.08082 97.1861 8.19151C96.3802 8.78593 95.3909 9.04364 94.4047 8.82961C94.0836 8.7599 94.1529 8.24323 94.4824 8.25647C95.3746 8.29201 96.2154 8.20712 97.0467 7.86181ZM90.4344 4.77635C89.2132 4.72285 87.9759 4.70871 86.7371 4.75083L87.2868 4.82363L87.6533 4.87134C89.0585 5.05214 90.4658 5.2051 91.8845 5.1989C92.8433 5.19472 93.8009 5.11762 94.7372 4.92906C93.3031 5.01534 91.81 4.85777 90.4344 4.77635Z" fill="#ECDCBF"></path> <path fill-rule="evenodd" clip-rule="evenodd" d="M104.937 13.301C104.939 13.3081 104.936 13.3135 104.935 13.3211C104.934 13.3189 104.934 13.3178 104.934 13.3151C104.935 13.3094 104.936 13.3056 104.937 13.301Z" fill="#4F66AF"></path> <path fill-rule="evenodd" clip-rule="evenodd" d="M104.937 13.3735C104.944 13.3668 104.953 13.3618 104.962 13.3552C104.962 13.3554 104.962 13.3556 104.962 13.3559C104.954 13.3614 104.946 13.3677 104.937 13.3735Z" fill="#4F66AF"></path> <path fill-rule="evenodd" clip-rule="evenodd" d="M68.1799 16.9208C67.6219 16.4584 66.743 16.8841 66.9321 17.6455C67.1377 18.4747 68.0285 19.0412 68.7639 19.3819C69.5208 19.7324 70.2581 19.8 71.0839 19.7617L71.0941 19.7595C70.8649 20.6766 70.7349 21.6299 70.5595 22.5525C70.3369 23.723 70.1179 24.8941 69.9023 26.0657C69.6936 27.1982 69.4299 28.3322 69.2696 29.4703C69.1079 30.6192 68.9527 31.7689 68.7939 32.9181C68.5288 34.8375 68.3148 36.7658 68.0893 38.6907L67.9817 39.6018C67.7558 41.5304 67.5739 43.4613 68.0021 45.3805C68.4034 47.1791 69.3073 48.8569 70.3558 50.3583C71.3826 51.8285 72.5297 53.2422 73.7889 54.521C76.2177 56.9873 79.2127 58.9626 82.7247 59.329C84.2368 59.4867 85.8519 59.3112 87.2735 58.7628L87.3679 58.726C88.8069 58.1592 90.5692 57.1887 90.9438 55.5961C91.1737 54.6191 90.1646 53.8564 89.2798 54.32C88.8699 54.5348 88.5616 54.7803 88.2251 55.088L88.1654 55.143C87.8904 55.3978 87.7846 55.4761 87.4673 55.6754C86.8164 56.0839 86.3286 56.2772 85.5893 56.4628C84.2264 56.8048 82.7554 56.7507 81.3718 56.3462C78.4341 55.4874 76.1552 53.2465 74.2029 50.9995C73.1428 49.7793 72.1366 48.4994 71.3606 47.0772C70.5464 45.5852 70.1706 44.0187 70.1931 42.321C70.2187 40.4054 70.484 38.4824 70.6582 36.5759C70.8356 34.6322 70.9996 32.6893 71.1442 30.7429C71.2796 28.9176 71.2927 27.0842 71.34 25.2532L71.3493 24.91C71.3771 23.938 71.3964 22.9656 71.4185 21.9934C71.4404 21.024 71.5173 20.0423 71.4172 19.077C71.4101 19.0067 71.3151 18.989 71.292 19.06C71.233 19.2409 71.1814 19.4246 71.1326 19.6093C71.1251 19.6036 71.1167 19.5985 71.1065 19.595C70.4594 19.3732 69.8635 18.9303 69.3779 18.4527C68.9146 17.9969 68.6726 17.3293 68.1799 16.9208ZM103.585 3.33955C103.178 1.674 101.349 1.30198 99.9962 2.10408C99.3455 2.4898 98.8246 3.04608 98.2168 3.48816C97.6126 3.92775 96.9448 4.28076 96.2402 4.53009C94.8404 5.02537 93.3637 5.20544 91.8842 5.21189C88.2834 5.22762 84.7562 4.21806 81.15 4.33067C78.3596 4.41782 75.3979 5.24052 73.3739 7.25286C72.2835 8.3369 71.5809 9.73059 71.2041 11.2102C71.0279 11.9017 70.8966 12.61 70.7931 13.3166L70.7677 13.4933C70.7098 13.9062 70.6167 14.3435 70.6081 14.7609C70.6003 15.1357 70.6954 15.528 70.7469 15.899C70.8554 16.6811 72.0697 16.592 72.2441 15.899C72.6414 14.3212 72.4751 12.6927 72.9607 11.1203C73.3912 9.72595 74.2256 8.50678 75.4347 7.67298C80.5352 4.15535 87.0761 7.10109 92.6959 6.82742C94.0694 6.76053 95.4631 6.54877 96.7587 6.07692C97.4268 5.83358 98.0845 5.53683 98.6902 5.16356C99.2452 4.82179 99.726 4.39239 100.24 3.99723L100.466 3.82539C100.819 3.56105 101.418 3.14777 101.773 3.49744C101.928 3.64965 101.937 3.9938 101.935 4.2566L101.933 4.37538C101.917 5.4911 101.689 6.60479 102.107 7.68272C102.298 8.17438 102.829 8.48437 103.333 8.20594L103.36 8.19101C104.427 7.55749 105.829 8.83048 105.009 9.88401L104.984 9.91587C104.523 10.4752 104.769 11.4602 105.594 11.4578L105.624 11.4573C107.095 11.4114 107.748 13.2457 106.48 14.0472L106.441 14.0712C105.411 14.6858 106.314 16.1636 107.37 15.6562C107.28 15.6992 107.436 15.6987 107.524 15.8177C107.61 15.9321 107.616 16.031 107.596 16.1754C107.534 16.6129 107.149 16.9817 106.836 17.2585C106.126 17.8875 105.247 18.3217 104.34 18.5861C100.709 19.6453 96.983 18.3497 93.4447 17.5673C89.7559 16.7516 85.5897 16.423 82.3727 18.7377C82.3345 18.7651 82.368 18.8263 82.4103 18.8018C84.7189 17.4643 87.5465 17.583 90.0702 18.1314C93.3795 18.8505 96.6599 20.1891 100.049 20.5418C99.0976 22.2175 98.6994 24.1967 98.9536 26.1134C99.1285 27.4328 99.6549 28.5773 100.277 29.737L100.395 29.9581C100.949 30.9991 101.379 31.9826 101.386 33.1886C101.392 34.3868 103.178 34.6394 103.481 33.4715C104.168 30.8192 101.664 28.73 100.643 26.5428C99.77 24.673 99.7432 22.4931 100.45 20.5787C101.247 20.6426 102.05 20.6493 102.861 20.5771C103.558 20.5149 104.275 20.3896 104.974 20.1913L105.254 21.3639C105.624 22.9257 105.967 24.4864 106.071 26.1086C106.148 27.3006 106.144 28.4985 106.027 29.6876C105.927 30.7146 105.714 31.705 105.498 32.7077C105.312 32.9519 105.217 33.3258 105.269 33.6235C104.065 33.9696 103.117 34.9181 102.771 36.1743C102.75 36.2508 102.857 36.2938 102.897 36.2275C103.719 34.8677 105.834 34.3673 107.172 35.2657C108.45 36.1233 108.954 37.855 108.231 39.2258C107.85 39.9466 107.286 40.4531 106.559 40.8019L106.412 40.8704C106.031 41.0504 105.681 41.2465 105.436 41.6079C105.118 42.0767 105.107 42.5723 105.137 43.1079L105.15 43.325C105.171 43.6841 105.175 44.0537 105.068 44.3992L105.044 44.4759C105.015 44.5621 104.986 44.6381 104.934 44.7204C104.918 44.7448 104.774 44.8865 104.727 44.9378L104.667 44.9557L104.601 44.9584C104.527 44.9595 104.43 44.9276 104.462 44.9497L104.453 44.9448C104.425 44.9274 104.399 44.909 104.378 44.8927L104.336 44.8606C104.24 44.7217 104.119 44.607 103.971 44.5195L103.83 44.4566C103.462 44.0696 102.833 44.273 102.569 44.6586C102.38 44.9359 102.278 45.2178 102.269 45.4959C102.24 45.4484 102.174 45.4225 102.132 45.4756L101.882 45.7931C100.927 47.0112 99.9876 48.237 98.9017 49.3474C98.3035 49.9592 97.66 50.5342 96.9874 51.0637C96.4131 51.5159 95.3238 51.951 95.3071 52.7746C95.3019 53.0419 95.4921 53.2313 95.7249 53.322C96.4826 53.6173 97.4189 52.6129 97.9661 52.1242L98.0108 52.0847C98.6806 51.4995 99.2919 50.8571 99.8559 50.1701C100.952 48.8356 101.868 47.2996 102.271 45.6099C102.29 45.9048 102.417 46.1937 102.664 46.4664C102.993 46.8292 103.442 47.0837 103.923 47.1885C105.011 47.4258 106.074 47.035 106.722 46.1301C107.269 45.3651 107.431 44.355 107.36 43.4308L107.351 43.3199C107.341 43.1717 107.329 42.8997 107.29 42.784L107.633 42.5962C108.053 42.3731 108.443 42.0807 108.792 41.7592C110.197 40.4672 110.902 38.3673 110.26 36.5299C109.858 35.3804 109.014 34.3802 107.933 33.8604C108.113 33.4439 108.174 32.9492 108.242 32.5115L108.254 32.4391C108.369 31.7211 108.466 30.994 108.503 30.2674C108.572 28.9104 108.488 27.5407 108.274 26.1994C107.927 24.0208 107.208 21.7103 105.891 19.8827C106.896 19.4845 107.821 18.9081 108.535 18.1077C109.281 17.2713 109.757 16.0739 109.18 15.0117C109.033 14.7409 108.841 14.5133 108.621 14.3326C109.003 13.6132 109.126 12.763 108.891 11.9504C108.609 10.9789 107.845 10.2211 106.921 9.86731C107.145 8.94682 106.962 7.95673 106.277 7.18959C105.597 6.42857 104.541 6.15139 103.564 6.32535C103.511 5.34635 103.82 4.30509 103.585 3.33955ZM106.325 37.7122C105.429 37.2749 104.367 37.3444 103.473 37.7589L103.412 37.7876C102.435 38.2602 101.141 39.3643 101.452 40.5387C101.634 41.2254 102.398 41.4599 102.992 41.1635C103.487 40.9158 103.6 40.4729 103.849 40.028C104.024 39.7134 104.242 39.4674 104.497 39.2145C105.035 38.6815 105.639 38.2856 106.325 37.9688C106.424 37.9231 106.42 37.759 106.325 37.7122ZM83.7538 13.9751C83.8377 13.9368 83.7768 13.8056 83.6923 13.8296C81.4414 14.4709 79.3427 15.9103 78.0886 17.9083C78.0121 18.0302 78.0005 18.2308 78.0886 18.3515L78.1292 18.4062C78.1867 18.4812 78.2435 18.5364 78.3516 18.5532C78.5549 18.5846 78.7315 18.5318 78.8486 18.3515C80.0841 16.4471 81.6669 14.9273 83.7538 13.9751ZM68.6849 14.3522C68.4942 14.03 67.9886 14.0948 67.888 14.4561L67.8734 14.4875C67.819 14.6107 67.8438 14.6359 67.9451 14.5662C67.6942 14.7724 67.5806 15.0796 67.6573 15.4099C68.0716 17.1936 70.0968 18.4673 71.8623 18.292C72.0163 18.2767 72.0373 18.0878 71.8977 18.0314C71.2185 17.7571 70.6156 17.3115 70.1308 16.7647C69.6597 16.2332 69.4615 15.6251 69.208 14.9833C69.113 14.7423 68.965 14.5688 68.7566 14.4741C68.7291 14.4361 68.705 14.3955 68.6849 14.3522ZM78.7248 13.206L78.7125 13.2068C77.8054 13.3237 77.0207 13.7703 76.3837 14.4247C75.7701 15.0549 74.9959 16.0948 75.0622 17.0196C75.1061 17.6327 75.9799 17.9832 76.306 17.3557C76.5005 16.9813 76.5447 16.5709 76.6809 16.175C76.8059 15.8122 76.9786 15.4677 77.1853 15.1445C77.6108 14.4788 78.196 13.9148 78.7952 13.406C78.8654 13.3464 78.8165 13.2063 78.7248 13.206ZM101.991 12.9343C102.193 12.7432 101.983 12.4175 101.727 12.482C100.378 12.8228 99.0421 13.2373 97.6393 13.2785C96.9386 13.2989 96.2419 13.2438 95.5478 13.1534L95.1964 13.1068C94.6552 13.0364 94.1046 12.981 93.5696 13.0919C93.213 13.1658 93.1433 13.6242 93.3655 13.8634C94.4151 14.9928 96.4394 14.8848 97.8313 14.6944C99.3428 14.4876 100.868 14.002 101.991 12.9343ZM77.6266 9.41384C77.719 9.28606 77.5635 9.08438 77.4165 9.14108C76.0757 9.65809 74.6704 11.0041 74.301 12.4124C74.2034 12.7845 74.6737 13.0654 74.9498 12.7892C75.4644 12.2746 75.8277 11.6667 76.2626 11.0882C76.6961 10.5116 77.2033 9.99944 77.6266 9.41384ZM99.5963 10.0428C99.7039 9.93564 99.5956 9.72218 99.4411 9.77674C98.5681 10.0852 97.6886 10.352 96.7714 10.492C95.8321 10.6353 94.8839 10.5264 93.9396 10.5845C93.5577 10.6079 93.2975 11.2008 93.7222 11.3853C95.609 12.2048 98.1718 11.4616 99.5963 10.0428ZM97.1859 8.20454C97.3359 8.09385 97.2506 7.79007 97.0465 7.87484C96.2151 8.22015 95.3743 8.30504 94.4822 8.2695C94.1526 8.25626 94.0833 8.77293 94.4045 8.84265C95.3907 9.05667 96.38 8.79896 97.1859 8.20454Z" fill="black"></path> <path fill-rule="evenodd" clip-rule="evenodd" d="M81.8817 50.0063C82.7869 50.2676 83.7584 50.291 84.6811 50.0211C85.5179 49.7764 86.3772 49.2378 86.9931 48.5251C87.5402 47.8919 87.8945 47.1225 87.8806 46.3012C87.879 46.2074 87.8454 46.1291 87.7936 46.0684C87.7379 46.003 87.66 45.958 87.5767 45.9385C87.4909 45.9185 87.4002 45.9256 87.323 45.9605C87.2531 45.9922 87.1933 46.0459 87.1558 46.1244C87.0612 46.2484 86.9669 46.3704 86.8722 46.4891C86.1112 47.4257 85.3742 48.1256 84.2298 48.3766C83.6088 48.5128 82.9887 48.4524 82.4197 48.2446C81.8106 48.0221 81.26 47.6309 80.8286 47.1303C80.6336 46.9041 80.4034 46.8117 80.1783 46.8102C79.9232 46.8084 79.6711 46.9265 79.4811 47.1153C79.2944 47.3009 79.1694 47.5531 79.1581 47.8169C79.1481 48.0484 79.2239 48.2903 79.4256 48.5061C80.0897 49.2168 80.9504 49.7375 81.8817 50.0063ZM81.9097 38.2766C80.9819 38.8386 79.5681 40.1492 80.5663 41.5426C81.7412 42.7712 83.4328 41.3625 84.2663 40.7254C85.0393 40.2317 85.9077 41.5016 85.1906 42.0781C79.1671 46.5225 76.7226 38.4235 81.4404 37.6157C81.9599 37.5267 82.1528 38.1027 81.9097 38.2766ZM90.5893 35.8034C90.8875 35.6134 91.2383 35.5481 91.6271 35.7244C91.9309 35.8621 92.4637 36.3211 92.8346 36.9245C93.0883 37.3373 93.2682 37.8216 93.2307 38.326C93.222 38.4432 93.2655 38.5295 93.334 38.5934C93.3881 38.6438 93.4662 38.6809 93.558 38.6925C93.636 38.7023 93.7232 38.6935 93.7942 38.6714C93.9291 38.6294 94.0005 38.5422 94.0274 38.471C94.2871 37.7838 94.1752 37.0169 93.8842 36.325C93.4915 35.3913 92.7783 34.6092 92.311 34.3571C91.5114 33.9254 90.5681 33.9056 89.7674 34.3453C89.0858 34.7196 88.6596 35.3238 88.2357 35.9397C88.1456 36.0707 88.0561 36.2006 87.9637 36.3283C87.7784 36.5842 87.76 36.8379 87.8317 37.0555C87.9112 37.2966 88.1139 37.5 88.3673 37.6065C88.6015 37.7049 88.8733 37.7187 89.1138 37.6176C89.317 37.5322 89.5035 37.3657 89.6215 37.0832C89.8202 36.6075 90.1513 36.0825 90.5893 35.8034ZM75.4436 36.862C75.6478 36.968 75.8076 37 76.0341 36.9323C76.1594 36.8948 76.2832 36.823 76.3802 36.7264C76.4763 36.6306 76.5456 36.5115 76.5725 36.3794C76.6388 36.0534 76.8178 35.7483 77.0728 35.5493C77.2908 35.3793 77.566 35.2892 77.8712 35.34C78.2005 35.3948 78.5143 35.6053 78.7304 35.8535C78.8027 35.9365 78.8593 36.0309 78.9162 36.1245C79.0227 36.2997 79.1262 36.4626 79.273 36.5912C79.3287 36.6402 79.4126 36.6741 79.4938 36.6741C79.5268 36.6741 79.5604 36.6687 79.5923 36.6588C79.9201 36.3309 79.9831 36.0822 79.9726 35.8355C79.9615 35.5768 79.8591 35.3148 79.6937 35.0704C79.3058 34.4971 78.5691 34.027 78.072 33.9206C77.3913 33.7748 76.7152 33.9498 76.1732 34.3287C75.6154 34.7186 75.2022 35.3239 75.0733 36.0061C75.0423 36.1704 75.0555 36.3478 75.1183 36.5015C75.1796 36.6518 75.2865 36.7805 75.4436 36.862ZM89.0878 29.691C89.4964 30.0877 89.9799 30.1491 90.4691 30.2038C90.7409 30.2344 90.9579 30.2591 91.1714 30.3071C91.7582 30.4392 92.3383 30.638 92.8676 30.9244C93.4208 31.2237 94.0237 31.5848 94.4575 32.0473C94.5606 32.1573 94.6579 32.2728 94.7552 32.3886C94.844 32.4941 94.9295 32.5957 95.0197 32.6937C95.1232 32.8062 95.2215 32.9241 95.3192 33.0417C95.3797 33.141 95.3916 33.1654 95.4038 33.1908C95.4221 33.229 95.4434 33.2717 95.4678 33.3176C95.5011 33.3804 95.5402 33.4491 95.5811 33.5114C95.6491 33.6253 95.6856 33.6567 95.7172 33.6707C95.7695 33.694 95.8191 33.7054 95.8673 33.6992C95.9125 33.6934 95.955 33.6718 95.997 33.6364C96.2068 33.4598 96.2686 33.1699 96.2623 32.8623C96.2527 32.3954 96.0799 31.8785 95.9206 31.5607C95.5502 30.8224 95.0366 30.0548 94.4189 29.5038C93.7141 28.8748 92.9431 28.3986 92.0574 28.0704C91.507 27.8664 90.8698 27.6792 90.2702 27.7028C89.8386 27.7199 89.4266 27.8477 89.0863 28.167C88.8774 28.363 88.7771 28.6418 88.7771 28.9204C88.7771 29.2046 88.8812 29.4904 89.0878 29.691ZM74.6128 33.3235C74.6388 33.3659 74.6747 33.3952 74.7147 33.4127C74.7567 33.4311 74.8035 33.4365 74.8484 33.4289C74.8932 33.4214 74.9357 33.4012 74.9694 33.3703C75.0018 33.3407 75.0264 33.3014 75.0374 33.2533C75.3086 32.0661 75.8353 31.1828 76.9594 30.6132C77.5124 30.333 78.1483 30.1549 78.7502 30.013C78.9251 29.9717 79.11 29.945 79.2961 29.9179C79.8795 29.833 80.4671 29.7358 80.8474 29.2659C81.0765 28.9828 81.1727 28.6208 81.1183 28.2897C81.0671 27.978 80.8843 27.6921 80.5521 27.5208C79.7248 27.0946 78.6969 27.5129 77.8615 27.8692C77.7995 27.8956 77.7387 27.9215 77.6792 27.9466C76.8623 28.2902 76.1172 28.7438 75.5047 29.3925C75.0188 29.9072 74.5685 30.668 74.3872 31.4506C74.2363 32.1018 74.2718 32.7665 74.6128 33.3235Z" fill="black"></path> </g> <defs> <clipPath id="clip0"> <rect width="151" height="231" fill="white" transform="matrix(-1 0 0 1 151 0)"></rect> </clipPath> </defs> </svg> 