<?xml version="1.0" encoding="UTF-8"?> <svg xmlns="http://www.w3.org/2000/svg" width="149" height="80" viewBox="0 0 149 80" fill="none"> <path d="M44.4685 78.8312C44.3244 78.8312 44.1757 78.7691 44.1158 78.7092L43.2263 77.8352C43.0422 77.6533 42.7982 77.5557 42.5475 77.5557C42.4676 77.5557 42.3878 77.5668 42.3079 77.5867C42.2813 77.589 42.2547 77.589 42.2303 77.589C42.0218 77.589 41.9153 77.5424 41.8687 77.498C39.819 75.4749 37.6717 73.4874 35.5954 71.5641C32.3833 68.5871 29.0603 65.5081 26.0478 62.2628C25.8371 62.0365 25.6375 61.8457 25.4423 61.6705C25.2648 61.513 25.0363 61.4243 24.7989 61.4243C24.7812 61.4243 24.7612 61.4265 24.7413 61.4265C24.4862 61.442 24.2444 61.5596 24.0736 61.7503C22.1703 63.8999 20.2847 66.0649 18.397 68.2255C15.7772 71.2269 13.1574 74.2282 10.4999 77.1963C10.4377 77.2651 10.3268 77.2718 10.2847 77.2718C10.1671 77.2718 10.0429 77.2274 9.9719 77.1564L9.08459 76.2713C8.90047 76.0872 8.65425 75.9874 8.40136 75.9874C8.31485 75.9874 8.22833 75.9985 8.14181 76.0229C8.10188 76.0251 8.06639 76.0273 8.03312 76.0273C7.86453 76.0273 7.77801 75.9918 7.72699 75.943L0.632904 68.8711C0.380019 68.6204 0.648424 68.2988 0.67948 68.2611C1.30947 67.5379 1.93061 66.8125 2.54729 66.0805C5.45325 62.5889 8.29045 58.9597 11.0345 55.4482C14.8344 50.5857 18.7652 45.559 22.9067 40.8606C22.9289 40.8362 23.0155 40.7874 23.153 40.7874C23.2817 40.7874 23.3615 40.8318 23.3792 40.8517C23.5279 41.0248 24.1823 41.7635 24.1823 41.7635C24.3708 41.9809 24.6392 42.0962 24.9121 42.0962C25.0629 42.0962 25.216 42.0607 25.358 41.9875C25.3868 41.9831 25.4134 41.9786 25.4378 41.9786C25.5465 41.9786 25.5997 42.0341 25.6219 42.0607C30.3779 47.6442 35.4778 52.8993 40.2804 57.7485C40.4667 57.9371 40.7152 58.0347 40.9681 58.0347C41.1189 58.0347 41.272 57.9992 41.4117 57.926C43.4725 56.8612 47.0595 52.5754 50.6287 48.1056C51.0857 47.5355 51.4318 47.0985 51.6225 46.8744C58.8963 38.3473 66.6026 29.2478 73.8476 19.9953C73.8542 19.9886 73.8986 19.9665 73.9873 19.9665C74.1359 19.9665 74.2779 20.0286 74.3378 20.0884C74.5064 20.2548 74.8037 20.5654 75.2096 20.9891C75.3937 21.1821 75.6488 21.2886 75.9084 21.2886C76.0215 21.2886 76.1346 21.2686 76.2456 21.2264C76.301 21.2176 76.3432 21.2109 76.3831 21.2109C76.4607 21.2109 76.514 21.2331 76.585 21.3041C78.4772 23.1697 80.3405 25.0641 82.2039 26.9608C86.1103 30.9337 90.1498 35.0442 94.42 38.7998C94.562 38.924 94.7394 39.0061 94.9258 39.0305C94.9701 39.0349 95.1432 39.0483 95.1875 39.0483C95.6911 39.0483 96.0061 38.8264 96.1813 38.6423C102.954 31.4617 110.181 24.6249 116.354 18.8839C116.727 18.5379 116.767 17.9633 116.448 17.5685C115.094 15.8936 113.775 14.1323 112.499 12.4287C111.051 10.4943 109.551 8.49562 107.98 6.5901C107.932 6.53243 107.878 6.4792 107.816 6.43483C107.759 6.39047 107.73 6.27954 107.741 6.14866L107.779 5.97122C107.796 5.92685 107.821 5.88691 107.845 5.84476C107.974 5.68282 108.074 5.63847 108.127 5.63847C108.173 5.64513 108.227 5.64733 108.278 5.64733C108.309 5.64733 108.342 5.6451 108.371 5.64288C119.757 4.52043 131.976 3.18059 144.174 1C144.192 1 144.21 1 144.225 1C144.531 1 144.744 1.10424 144.749 1.37266C144.753 1.65438 144.882 1.92281 145.099 2.10249C145.274 2.24668 145.492 2.32432 145.716 2.32432C145.771 2.32432 145.824 2.31989 145.882 2.3088L146.421 2.2134C146.446 2.21118 146.472 2.21118 146.497 2.21118C146.734 2.21118 146.852 2.26443 146.923 2.35316C146.998 2.44633 147.018 2.57498 146.985 2.7347C145.654 8.8816 144.467 15.1572 143.322 21.2264C141.947 28.5047 140.525 36.0269 138.846 43.3584C138.828 43.405 138.81 43.4494 138.801 43.4871C138.719 43.6424 138.664 43.6645 138.579 43.6668L138.378 43.6823C138.289 43.6823 138.242 43.6623 138.238 43.6557C138.003 43.3673 137.781 43.0656 137.564 42.7661C137.379 42.5088 137.084 42.3646 136.78 42.3646C136.672 42.3646 136.563 42.3824 136.454 42.4223C136.397 42.4423 136.286 42.4822 136.233 42.5133C136.195 42.5243 136.164 42.531 136.137 42.531C136.073 42.531 136.037 42.4999 135.995 42.4489C133.799 39.7226 131.86 36.8011 129.735 33.5402C129.58 33.3029 129.329 33.1454 129.048 33.1077C129.005 33.1032 128.965 33.0988 128.923 33.0988C128.684 33.0988 128.453 33.1875 128.273 33.3494C116.432 44.0594 106.365 53.8798 97.4968 63.3741C97.4391 63.434 97.3836 63.4584 97.3016 63.4584C97.1729 63.4584 97.0154 63.3941 96.889 63.2876L95.8486 62.4269C95.6733 62.2805 95.4537 62.2029 95.2297 62.2029C95.1853 62.2029 95.0811 62.214 95.0722 62.214C94.8836 62.214 94.7483 62.1607 94.6396 62.0698C90.6733 58.8044 86.5872 54.9911 81.7802 50.0754C80.0654 48.3229 78.3485 46.5727 76.616 44.838C76.4341 44.6561 76.1857 44.5541 75.9305 44.5541C75.915 44.5541 75.9017 44.5563 75.8862 44.5563C75.6133 44.5674 75.3605 44.696 75.1852 44.9046C70.7996 50.1863 65.966 55.2352 61.2898 60.1176C55.6154 66.0427 49.7481 72.1697 44.5994 78.7958L44.4685 78.8312Z" fill="white"></path> <path d="M146.69 1.24068C146.512 1.27173 146.335 1.30502 146.157 1.33608C146.142 0.457629 145.361 -0.136882 144.443 0.0272728C132.617 2.14131 120.667 3.48117 108.715 4.65909C108.28 4.59919 107.856 4.8077 107.564 5.16928C107.53 5.20921 107.506 5.24915 107.475 5.2913C107.413 5.38447 107.362 5.47984 107.32 5.5841C107.291 5.65509 107.271 5.7261 107.255 5.80152C107.238 5.88138 107.22 5.95679 107.218 6.03887C107.178 6.4914 107.331 6.92398 107.675 7.18352C110.612 10.7461 113.234 14.5616 116.135 18.153C109.221 24.5817 102.397 31.0835 95.9154 37.9558C95.8244 38.0512 95.6802 38.0756 95.4961 38.049C89.2516 32.5587 83.6216 26.4228 77.701 20.5909C77.2751 20.1717 76.776 20.134 76.3456 20.2959C75.9308 19.8633 75.6247 19.5461 75.4561 19.3775C74.9747 18.9006 73.9876 18.7874 73.5262 19.3775C66.3656 28.5191 58.8611 37.3901 51.3255 46.2234C50.2186 47.5211 44.0296 55.6867 41.4053 57.0421C36.3831 51.9732 31.4275 46.8445 26.7979 41.4097C26.3587 40.8928 25.8041 40.8684 25.3538 41.1036C25.0876 40.7975 24.8148 40.5024 24.553 40.1963C24.0894 39.6572 23.0889 39.6683 22.6231 40.1963C15.4713 48.3064 9.16471 57.1219 2.2503 65.4317C1.63583 66.1593 1.01693 66.8825 0.391371 67.6012C-0.0966528 68.1602 -0.163201 68.9787 0.391371 69.5311C2.75607 71.8892 5.12076 74.245 7.48546 76.6031C7.83151 76.9491 8.37277 77.0623 8.84305 76.9314C9.13808 77.2264 9.43534 77.5215 9.73259 77.8187C10.2384 78.3223 11.1656 78.3755 11.6625 77.8187C16.2389 72.7122 20.6976 67.5036 25.2407 62.3682C25.4159 62.5235 25.5934 62.6943 25.7819 62.8984C30.7686 68.2689 36.4142 73.0205 41.6316 78.1647C41.9577 78.4886 42.5167 78.6239 42.9892 78.5041C43.2842 78.7969 43.5815 79.0876 43.8787 79.3804C44.3579 79.8529 45.3495 79.9727 45.8086 79.3804C55.1654 67.3372 66.6517 57.2262 76.3745 45.5135C78.1025 47.246 79.8195 48.9941 81.5298 50.7421C85.6669 54.9724 89.8994 59.0452 94.4668 62.8074C94.8107 63.0891 95.2543 63.22 95.6714 63.1601C96.0174 63.4485 96.3657 63.7347 96.7117 64.0209C97.2685 64.4823 98.1004 64.6021 98.6417 64.0209C108.389 53.586 118.768 43.6347 129.361 34.0538C131.364 37.1262 133.396 40.2096 135.678 43.0424C136.124 43.5947 136.699 43.6058 137.158 43.3352C137.176 43.3285 137.196 43.3263 137.216 43.3197C137.444 43.6369 137.677 43.9519 137.925 44.2558C138.194 44.5841 138.622 44.6773 139.037 44.6218C139.485 44.6129 139.891 44.3733 140.099 43.8875C140.126 43.8343 140.155 43.7833 140.173 43.7278C140.181 43.699 140.201 43.6835 140.208 43.6524C143.303 30.1585 145.439 16.4582 148.371 2.92658C148.602 1.84627 147.73 1.05434 146.69 1.24068ZM75.4539 40.7331C74.9703 40.254 73.9898 40.1475 73.524 40.7331C66.5186 49.5109 58.342 57.2706 50.7199 65.5005C48.5793 67.8119 46.523 70.1966 44.4954 72.6124C41.7226 75.9176 41.0216 73.7303 38.3264 71.1948C33.5947 66.736 28.8343 62.3571 24.5486 57.4569C24.0783 56.9201 23.0912 56.9267 22.6187 57.4569C18.3817 62.2063 14.2357 67.0333 10.0276 71.8071C9.48194 72.4238 8.93402 73.036 8.38832 73.6483C6.66249 71.9291 4.93445 70.2077 3.20862 68.4863C3.53027 68.1114 3.85414 67.7365 4.17579 67.3594C9.87014 60.5181 15.2029 53.3907 20.8218 46.4874C21.5361 45.6089 22.9359 42.4967 24.2779 44.0606C25.9505 46.0082 27.7074 47.8849 29.4576 49.7638C32.9892 53.5638 36.676 57.2195 40.3361 60.8953C40.833 61.3944 41.778 61.4565 42.266 60.8953C51.1525 50.6689 59.9636 40.3737 68.5617 29.9033C70.1699 27.9424 71.7604 25.9659 73.3421 23.9849C75.5958 21.1633 78.1868 25.9681 80.0879 27.9069C84.7108 32.623 89.3604 37.2393 94.4624 41.443C95.0192 41.9021 95.8511 42.0264 96.3923 41.443C103.591 33.7144 111.204 26.4406 118.943 19.2599C119.514 18.732 119.438 18.0754 119.088 17.594C119.041 17.5053 119.014 17.4143 118.943 17.33C116.188 14.0469 113.733 10.5243 111.097 7.1458C121.787 6.07214 132.471 4.8166 143.061 3.00424C140.541 14.9431 138.555 26.9996 135.938 38.9163C133.702 35.8484 131.559 32.3945 129.465 29.2401C129.19 28.8275 128.804 28.6478 128.413 28.6234C128.052 28.5724 127.666 28.6567 127.322 28.9628C118.904 36.4473 110.822 44.3267 102.836 52.266C100.924 54.1671 99.0343 56.0882 97.1576 58.0248C94.5755 60.6845 94.458 59.3048 91.7117 56.8669C86.0085 51.8025 80.8754 46.0903 75.4539 40.7331Z" fill="#1A1A1A"></path> </svg> 