<?xml version="1.0" encoding="UTF-8"?> <svg xmlns="http://www.w3.org/2000/svg" width="279" height="140" viewBox="0 0 279 140" fill="none"> <path d="M160.115 35.0618L160.017 34.5715L160.115 35.0618ZM276.081 139.063C276.355 139.092 276.601 138.894 276.631 138.619L277.108 134.144C277.137 133.87 276.938 133.623 276.664 133.594C276.389 133.565 276.143 133.764 276.114 134.038L275.689 138.016L271.712 137.591C271.437 137.562 271.191 137.761 271.162 138.036C271.132 138.31 271.331 138.557 271.606 138.586L276.081 139.063ZM0.790443 1.45317C2.01737 2.01952 3.22761 2.58412 4.42206 3.14664L4.84812 2.24194C3.65145 1.67838 2.43889 1.1127 1.20955 0.545231L0.790443 1.45317ZM8.02028 4.85703C10.4698 6.03191 12.8533 7.19614 15.1794 8.34676L15.6228 7.45042C13.2936 6.2983 10.9064 5.13227 8.45275 3.95538L8.02028 4.85703ZM18.7519 10.1249C21.1757 11.3382 23.5388 12.5341 25.8517 13.7092L26.3047 12.8177C23.9909 11.6422 21.6259 10.4452 19.1996 9.23065L18.7519 10.1249ZM29.4159 15.5226C31.8349 16.7542 34.203 17.9601 36.5318 19.1351L36.9823 18.2424C34.6554 17.0682 32.289 15.8633 29.8696 14.6315L29.4159 15.5226ZM40.0945 20.9228C42.515 22.1293 44.8995 23.2993 47.2624 24.4274L47.6933 23.525C45.3368 22.3999 42.9575 21.2325 40.5406 20.0278L40.0945 20.9228ZM50.88 26.1279C53.325 27.258 55.755 28.3396 58.1866 29.3667L58.5757 28.4456C56.1559 27.4234 53.7361 26.3463 51.2996 25.2202L50.88 26.1279ZM61.8841 30.8844C64.3671 31.8729 66.8606 32.8016 69.382 33.664L69.7056 32.7178C67.2012 31.8612 64.7232 30.9383 62.2539 29.9553L61.8841 30.8844ZM73.1852 34.9066C75.7148 35.6937 78.2802 36.4127 80.8986 37.0572L81.1376 36.0861C78.5396 35.4467 75.9936 34.7332 73.4823 33.9518L73.1852 34.9066ZM84.7971 37.9522C87.3595 38.4982 89.9779 38.973 92.6674 39.3712L92.8138 38.3819C90.1454 37.9869 87.5476 37.5158 85.0055 36.9742L84.7971 37.9522ZM96.634 39.896C99.2246 40.1986 101.884 40.4314 104.624 40.59L104.682 39.5917C101.961 39.4341 99.321 39.203 96.75 38.9028L96.634 39.896ZM108.608 40.7661C111.196 40.8457 113.858 40.8611 116.602 40.8088L116.583 39.809C113.855 39.8609 111.21 39.8456 108.639 39.7665L108.608 40.7661ZM120.62 40.6861C123.196 40.5785 125.844 40.4132 128.573 40.1879L128.491 39.1913C125.775 39.4156 123.14 39.5799 120.578 39.687L120.62 40.6861ZM132.58 39.8193C135.147 39.5596 137.784 39.2486 140.496 38.8842L140.362 37.8931C137.661 38.2561 135.035 38.5658 132.48 38.8243L132.58 39.8193ZM144.451 38.323C147.017 37.9398 149.649 37.5106 152.351 37.0339L152.177 36.0491C149.483 36.5244 146.86 36.9521 144.303 37.3339L144.451 38.323ZM156.246 36.3229C157.552 36.0768 158.874 35.8199 160.213 35.5521L160.017 34.5715C158.682 34.8386 157.363 35.0948 156.061 35.3402L156.246 36.3229ZM160.213 35.5521C161.597 35.2752 162.955 35.0241 164.288 34.7983L164.121 33.8124C162.778 34.0399 161.41 34.2927 160.017 34.5715L160.213 35.5521ZM168.275 34.1878C171.099 33.8027 173.805 33.5368 176.402 33.3842L176.343 32.3859C173.719 32.5401 170.987 32.8086 168.14 33.197L168.275 34.1878ZM180.419 33.2362C183.275 33.1961 185.991 33.3015 188.577 33.5431L188.67 32.5474C186.046 32.3023 183.295 32.1957 180.405 32.2363L180.419 33.2362ZM192.582 34.0406C195.372 34.4767 198.002 35.0826 200.489 35.8449L200.782 34.8888C198.248 34.112 195.571 33.4957 192.737 33.0526L192.582 34.0406ZM204.313 37.1813C206.883 38.1952 209.293 39.3896 211.564 40.7473L212.077 39.889C209.76 38.5038 207.301 37.2852 204.68 36.2511L204.313 37.1813ZM214.95 42.9614C217.151 44.5301 219.218 46.2641 221.173 48.1451L221.867 47.4246C219.879 45.5121 217.775 43.7462 215.53 42.147L214.95 42.9614ZM224.004 51.0525C225.805 53.0222 227.511 55.1228 229.142 57.3375L229.948 56.7444C228.298 54.5049 226.57 52.3765 224.742 50.3777L224.004 51.0525ZM231.483 60.6633C232.974 62.8771 234.407 65.1865 235.799 67.5768L236.663 67.0734C235.262 64.6676 233.818 62.3394 232.312 60.1047L231.483 60.6633ZM237.811 71.1319C239.102 73.4753 240.364 75.8845 241.614 78.3468L242.506 77.8942C241.252 75.4245 239.985 73.005 238.687 70.6495L237.811 71.1319ZM243.443 81.9998C244.636 84.4144 245.826 86.8713 247.025 89.36L247.926 88.926C246.726 86.4366 245.535 83.9759 244.339 81.5566L243.443 81.9998ZM248.796 93.04C249.969 95.4746 251.157 97.9333 252.374 100.405L253.271 99.9633C252.056 97.4957 250.869 95.0401 249.697 92.606L248.796 93.04ZM254.198 104.074C255.415 106.495 256.665 108.923 257.959 111.348L258.841 110.877C257.551 108.46 256.305 106.04 255.091 103.625L254.198 104.074ZM259.919 114.952C261.236 117.327 262.601 119.694 264.027 122.045L264.882 121.527C263.464 119.188 262.105 116.832 260.794 114.467L259.919 114.952ZM266.194 125.53C267.655 127.821 269.18 130.091 270.779 132.333L271.594 131.752C270.005 129.526 268.49 127.269 267.037 124.992L266.194 125.53ZM273.211 135.64C274.036 136.729 274.88 137.809 275.745 138.88L276.523 138.252C275.665 137.189 274.827 136.117 274.008 135.036L273.211 135.64ZM160.115 35.0618L159.918 34.0812L160.115 35.0618ZM276.027 139.56C276.577 139.619 277.069 139.221 277.128 138.672L278.083 129.723C278.141 129.174 277.743 128.681 277.194 128.622C276.645 128.564 276.152 128.962 276.094 129.511L275.245 137.466L267.29 136.617C266.741 136.558 266.249 136.956 266.19 137.505C266.131 138.054 266.529 138.547 267.078 138.606L276.027 139.56ZM0.580887 1.90714C1.8066 2.47293 3.01568 3.03699 4.20903 3.59898L5.06115 1.78959C3.86337 1.22551 2.64965 0.659292 1.41911 0.0912607L0.580887 1.90714ZM7.80404 5.30785C10.2514 6.48173 12.6332 7.64507 14.9577 8.79493L15.8445 7.00226C13.5138 5.84937 11.1247 4.68245 8.66899 3.50456L7.80404 5.30785ZM18.5281 10.572C20.9507 11.7847 23.3128 12.9801 25.6253 14.155L26.5312 12.3719C24.217 11.1962 21.8509 9.99872 19.4234 8.78354L18.5281 10.572ZM29.189 15.9682C31.6079 17.1997 33.9768 18.406 36.3066 19.5815L37.2075 17.796C34.8816 16.6223 32.516 15.4178 30.0965 14.1859L29.189 15.9682ZM39.8715 21.3702C42.2937 22.5776 44.6808 23.749 47.047 24.8786L47.9087 23.0737C45.5554 21.9503 43.1788 20.7841 40.7637 19.5803L39.8715 21.3702ZM50.6702 26.5817C53.1194 27.7138 55.5546 28.7977 57.9921 29.8273L58.7703 27.985C56.3564 26.9653 53.9417 25.8905 51.5093 24.7663L50.6702 26.5817ZM61.6992 31.3489C64.1891 32.3402 66.6903 33.2717 69.2201 34.1371L69.8674 32.2448C67.3715 31.391 64.9013 30.471 62.4389 29.4908L61.6992 31.3489ZM73.0366 35.384C75.5753 36.174 78.1504 36.8957 80.779 37.5427L81.2571 35.6006C78.6694 34.9637 76.133 34.2529 73.6309 33.4743L73.0366 35.384ZM84.6929 38.4412C87.2655 38.9894 89.8942 39.466 92.5942 39.8658L92.8871 37.8873C90.2291 37.4938 87.6416 37.0246 85.1097 36.4851L84.6929 38.4412ZM96.576 40.3926C99.1765 40.6963 101.846 40.93 104.595 41.0892L104.711 39.0925C101.999 38.9355 99.3692 38.7052 96.808 38.4061L96.576 40.3926ZM108.593 41.2658C111.189 41.3457 113.859 41.3611 116.611 41.3087L116.573 39.3091C113.853 39.3609 111.217 39.3456 108.654 39.2668L108.593 41.2658ZM120.641 41.1857C123.224 41.0777 125.879 40.9121 128.614 40.6862L128.449 38.693C125.74 38.9167 123.112 39.0806 120.557 39.1874L120.641 41.1857ZM132.631 40.3167C135.203 40.0565 137.845 39.7448 140.562 39.3798L140.296 37.3976C137.6 37.7598 134.979 38.0689 132.429 38.3269L132.631 40.3167ZM144.525 38.8175C147.095 38.4337 149.731 38.0038 152.438 37.5263L152.091 35.5567C149.401 36.0313 146.782 36.4583 144.229 36.8394L144.525 38.8175ZM156.339 36.8143C157.647 36.5678 158.971 36.3105 160.311 36.0423L159.918 34.0812C158.585 34.3479 157.269 34.6038 155.969 34.8489L156.339 36.8143ZM160.311 36.0423C161.69 35.7664 163.043 35.5163 164.372 35.2913L164.038 33.3194C162.689 33.5478 161.316 33.8015 159.918 34.0812L160.311 36.0423ZM168.343 34.6833C171.154 34.2997 173.848 34.0351 176.431 33.8833L176.314 31.8867C173.676 32.0418 170.931 32.3116 168.072 32.7016L168.343 34.6833ZM180.426 33.7362C183.265 33.6963 185.963 33.8011 188.531 34.0409L188.717 32.0496C186.074 31.8027 183.304 31.6955 180.398 31.7364L180.426 33.7362ZM192.505 34.5346C195.272 34.9671 197.879 35.5678 200.343 36.3229L200.929 34.4107C198.371 33.6268 195.671 33.0052 192.814 32.5586L192.505 34.5346ZM204.129 37.6464C206.674 38.6502 209.059 39.8325 211.307 41.1764L212.333 39.4598C209.993 38.0608 207.51 36.8302 204.863 35.786L204.129 37.6464ZM214.659 43.3686C216.84 44.922 218.888 46.6401 220.827 48.5054L222.213 47.0643C220.209 45.1361 218.086 43.3543 215.82 41.7398L214.659 43.3686ZM223.635 51.3899C225.423 53.345 227.117 55.4317 228.74 57.634L230.35 56.4478C228.691 54.196 226.952 52.0537 225.111 50.0403L223.635 51.3899ZM231.068 60.9426C232.552 63.146 233.979 65.4459 235.367 67.8285L237.095 66.8217C235.689 64.4082 234.239 62.0706 232.727 59.8254L231.068 60.9426ZM237.373 71.3731C238.661 73.7104 239.92 76.1145 241.168 78.5731L242.952 77.6679C241.696 75.1945 240.426 72.7699 239.125 70.4083L237.373 71.3731ZM242.994 82.2214C244.187 84.6336 245.375 87.0887 246.574 89.5771L248.376 88.7089C247.176 86.2192 245.985 83.7567 244.787 81.335L242.994 82.2214ZM248.346 93.2569C249.518 95.6918 250.707 98.1522 251.925 100.626L253.719 99.7425C252.506 97.2769 251.32 94.8229 250.148 92.3891L248.346 93.2569ZM253.751 104.299C254.969 106.722 256.221 109.154 257.518 111.584L259.283 110.642C257.995 108.229 256.751 105.813 255.538 103.401L253.751 104.299ZM259.482 115.195C260.801 117.574 262.17 119.947 263.599 122.304L265.309 121.267C263.895 118.935 262.539 116.584 261.231 114.225L259.482 115.195ZM265.772 125.799C267.238 128.096 268.768 130.374 270.372 132.623L272.001 131.462C270.418 129.243 268.907 126.994 267.458 124.723L265.772 125.799ZM272.812 135.942C273.64 137.034 274.487 138.119 275.355 139.194L276.912 137.938C276.057 136.879 275.222 135.811 274.406 134.734L272.812 135.942Z" fill="#B7BEE3"></path> </svg> 