<?xml version="1.0" encoding="UTF-8"?> <svg xmlns="http://www.w3.org/2000/svg" width="110" height="152" viewBox="0 0 110 152" fill="none"> <g clip-path="url(#clip0)"> <rect width="30.762" height="37.7472" transform="matrix(-1 0 0 1 48.0371 98.8125)" fill="#FFDE6B"></rect> <path fill-rule="evenodd" clip-rule="evenodd" d="M57.0099 61.8915C53.6939 59.3755 45.369 58.244 41.8299 60.6666C38.3343 63.0994 37.9532 67.0336 36.3243 70.6528C34.7874 69.9307 32.2494 70.9649 31.8038 72.3859C31.2512 73.0561 31.2263 74.9391 30.8452 75.8401C14.263 78.4702 11.7456 91.3522 9.74965 105.977C7.10922 120.817 1.11519 135.625 3.71734 150.896C3.37828 151.385 3.11096 151.86 2.86379 152.425C2.27152 153.429 3.03439 154.85 4.229 154.795C5.7753 154.66 7.30628 154.475 8.85983 154.418C13.1665 154.269 17.4771 154.286 21.7853 154.341L22.3728 154.349C44.0853 154.618 65.7966 155.149 87.51 155.289C88.2977 155.29 88.6834 154.586 88.5782 153.892C88.3664 152.494 88.1698 151.095 87.9647 149.696C93.1005 151.048 98.5603 151.388 103.682 149.839C104.04 149.475 102.847 149.672 102.658 149.617C107.371 146.408 105.963 139.647 105.546 134.778C102.95 118.092 102.034 99.6313 92.0039 85.3936C87.6646 79.5832 81.3028 74.9828 73.9926 73.9477L73.7898 73.9201C71.6523 73.6361 69.27 73.5446 67.4012 72.3859C65.2993 70.7139 64.4035 67.6244 62.1922 67.5955C61.462 67.5859 60.4687 68.5064 59.3998 69.1314C59.32 67.7566 58.5765 66.5964 58.4123 65.5305L58.3991 65.4393C58.2278 64.1966 58.4624 63.0785 57.0099 61.8915ZM21.3732 106.418C26.0332 103.192 38.0711 104.813 38.3467 104.993C38.9535 105.391 39.2148 105.426 39.543 105.943C39.867 105.986 40.1907 106.03 40.5142 106.076C41.1631 106.287 40.6822 107.082 39.9327 106.799C40.3835 108.736 39.0567 110.114 38.5285 112.029C38.357 112.651 38.5223 113.77 38.5285 114.405C38.4773 115.215 37.5783 116.172 37.7281 116.985C38.2608 119.875 41.1513 122.694 39.9327 125.497C39.1253 127.079 36.6971 127.887 35.0827 128.425C31.738 129.704 25.9101 128.376 23.9667 125.497C22.9302 123.96 21.7292 120.086 21.1112 118.884L20.9742 116.977C20.6364 112.238 20.3358 107.136 21.3732 106.418Z" fill="#EDB98A"></path> <path fill-rule="evenodd" clip-rule="evenodd" d="M62.3646 67.6042L61.031 68.4197L53.2857 72.2349C51.7841 72.6538 51.0334 73.1559 51.0334 73.7411V79.7002C51.0334 80.4977 49.6243 82.305 46.8061 85.1222L44.2025 82.5359L44.2608 82.1973C44.5085 80.7383 44.6324 79.7622 44.6324 79.2693C44.6324 78.7391 42.0852 76.7266 36.9909 73.2316L34.7622 71.1408L34.9998 70.4207C33.6256 70.4854 32.1354 71.3286 31.8038 72.3861C31.2512 73.0563 31.2263 74.9393 30.8452 75.8402C14.263 78.4704 11.7456 91.3524 9.74965 105.977C7.10922 120.818 1.11519 135.626 3.71734 150.897C3.37828 151.385 3.11096 151.861 2.86379 152.425C2.27152 153.429 3.03439 154.85 4.229 154.795C5.7753 154.66 7.30628 154.475 8.85983 154.418C13.1665 154.269 17.4771 154.286 21.7853 154.341L22.3728 154.349C44.0853 154.618 65.7966 155.149 87.51 155.289C88.2977 155.291 88.6834 154.587 88.5782 153.892C88.3664 152.494 88.1698 151.095 87.9647 149.697C93.1005 151.048 98.5603 151.388 103.682 149.839C104.04 149.475 102.847 149.672 102.658 149.617C107.371 146.408 105.963 139.647 105.546 134.778C102.95 118.093 102.034 99.6315 92.0039 85.3937C87.6646 79.5833 81.3028 74.983 73.9926 73.9479L73.7898 73.9202L73.5855 73.8937C71.5015 73.6293 69.2107 73.5079 67.4012 72.3861C65.3547 70.7582 64.4517 67.7867 62.3646 67.6042ZM43.8058 102.581C44.5655 102.581 46.1213 103.757 48.4733 106.108L48.6805 106.203C51.5236 107.519 53.4071 108.661 54.3309 109.628L54.3639 109.663C55.2972 110.66 57.1454 113.313 59.9085 117.622L63.9098 119.98H65.4238L66.5016 127.77L63.9098 133.333L58.039 131.363L48.4733 128.85L42.9842 123.301L39.8878 122.266C40.2635 123.347 40.3997 124.423 39.9328 125.497C39.1255 127.08 36.6973 127.887 35.0829 128.425C31.7382 129.704 25.9103 128.377 23.9669 125.497C22.9303 123.961 21.7294 120.086 21.1114 118.884L20.9341 116.407C20.6146 111.837 20.3775 107.107 21.3733 106.418C26.0334 103.192 38.0713 104.813 38.3469 104.994C38.9537 105.391 39.2149 105.426 39.5431 105.943L39.713 105.965L38.7577 104.674L39.0959 104.494C41.5096 103.219 43.0796 102.581 43.8058 102.581ZM39.9327 106.799C40.3644 108.654 39.1667 109.996 38.6003 111.787L40.0475 109.027L40.0475 106.835C40.0101 106.825 39.9718 106.814 39.9327 106.799Z" fill="white"></path> <path fill-rule="evenodd" clip-rule="evenodd" d="M63.0038 67.3161C62.6821 67.0322 62.206 67.3889 62.4105 67.7724C62.8699 68.6343 63.3411 69.4509 63.9577 70.2128C64.3316 70.6748 64.732 71.1117 65.1378 71.5438C64.0963 72.4415 63.2032 73.5561 62.3597 74.6007C61.2811 75.9368 60.2614 77.3294 59.0507 78.5519C57.8566 79.7575 56.5364 80.6003 54.94 81.1624L54.6176 81.2739C53.0139 81.8349 51.2999 82.5925 50.396 84.1055C50.2177 84.4039 50.5766 84.7725 50.8783 84.5863C52.4491 83.6172 54.2947 83.4223 56.0044 82.782C57.6561 82.1634 59.0958 81.2115 60.368 79.9965C61.6379 78.7835 62.7043 77.4034 63.8165 76.0525C64.9164 74.7168 66.1007 73.576 67.4017 72.4458C69.4094 73.7916 71.7011 74.3773 74.0313 74.9524L74.2857 75.0152C76.6188 75.5907 78.9394 76.2592 81.1282 77.2615C83.058 78.1451 84.9561 79.2003 86.528 80.6382C88.1967 82.1641 89.4954 84.113 90.6841 86.019C93.3431 90.2831 95.2125 94.9546 96.8582 99.6829C98.5698 104.601 100.002 109.618 101.157 114.694C101.745 117.276 102.223 119.876 102.615 122.495C102.804 123.756 102.972 125.02 103.119 126.287C103.276 127.639 103.312 129.031 103.729 130.331C103.907 130.889 104.329 131.12 104.751 131.1L104.837 132.168C104.95 133.592 105.056 135.017 105.092 136.449C105.151 138.832 105.124 141.207 104.952 143.585L104.928 143.909C104.793 145.644 104.491 147.593 103.182 148.864C101.826 150.18 99.7404 150.593 97.9128 150.617C93.6562 150.672 89.5588 148.668 85.7922 146.91C81.9129 145.099 78.1397 143.09 74.4568 140.91C72.5813 139.8 70.726 138.653 68.8944 137.472C67.9956 136.893 67.1031 136.304 66.2173 135.705C65.7099 135.362 65.2292 134.986 64.7127 134.682C64.9657 134.447 65.0787 134.078 64.8667 133.755C66.3598 132.464 66.9813 130.159 67.0539 128.295C67.1126 126.789 66.8903 125.289 66.7149 123.797C66.6263 123.046 66.517 122.295 66.4035 121.547C66.3586 121.251 66.3244 120.935 66.272 120.622C70.3037 122.83 74.4484 124.796 78.7028 126.543C80.8835 127.438 83.0922 128.243 85.3314 128.981L85.7853 129.13C87.9069 129.822 90.0793 130.475 92.2726 130.871C92.3899 130.892 92.4851 130.72 92.3599 130.665C90.2224 129.725 88.0109 128.932 85.8413 128.067L85.4848 127.922C85.5258 127.92 85.5682 127.914 85.6126 127.903C86.885 127.598 88.1474 127.126 89.3954 126.729C90.5536 126.36 91.8548 126.129 92.9374 125.573C93.0207 125.53 92.9741 125.414 92.893 125.409C91.6762 125.325 90.3553 125.678 89.1623 125.886L88.7141 125.964C87.9633 126.096 87.1959 126.238 86.4488 126.423C86.4218 126.174 86.2819 125.923 86.083 125.776C83.8938 124.161 84.1161 120.898 83.882 118.492L83.7083 116.706C83.4029 113.579 83.0799 110.454 82.589 107.351C82.5628 107.185 82.3056 107.233 82.3045 107.389C82.2792 111.235 82.5706 115.064 82.7166 118.904L82.7392 119.534C82.82 121.904 82.8833 124.364 84.381 126.188C84.1716 126.066 83.8884 126.066 83.7188 126.267C83.5103 126.514 83.3899 126.792 83.3937 127.064C82.0403 126.499 80.6928 125.919 79.3519 125.327C75.0408 123.423 70.8201 121.294 66.711 118.989C66.2688 118.741 65.8484 118.936 65.6297 119.263L65.5982 119.259C65.5929 119.258 65.5876 119.257 65.5821 119.257L65.5508 119.256C65.5495 119.256 65.5483 119.256 65.5473 119.256C64.9688 118.939 64.1808 119.165 63.6845 119.627C63.6698 119.641 63.6573 119.656 63.6443 119.67C63.0159 119.389 62.4291 119.01 61.8967 118.529C60.8069 117.545 59.884 116.328 59.0793 115.108C57.5975 112.86 56.3388 110.361 54.3371 108.511C52.7108 107.008 50.6944 106.072 48.5791 105.485C48.588 105.423 48.5643 105.358 48.5216 105.314C48.4129 105.203 48.3354 105.165 48.1951 105.232C48.1839 105.237 48.1772 105.245 48.1726 105.253L47.9662 104.901C47.8535 104.711 47.7378 104.519 47.6978 104.468C47.4576 104.167 47.2104 103.868 46.9595 103.575C46.534 103.08 46.0492 102.59 45.4879 102.247C44.2587 101.494 42.9666 101.92 41.7029 102.331C40.9394 102.58 40.1784 102.836 39.4162 103.089L39.3376 103.114C38.7692 103.296 38.1042 103.455 37.85 104.055C37.7494 104.293 37.7338 104.539 37.7807 104.778C32.3827 103.411 26.3872 104.039 21.1196 105.645C20.9175 105.706 20.7156 105.872 20.673 106.09C20.0694 109.174 19.8006 112.337 20.0737 115.473C20.3093 118.181 20.9114 120.834 22.046 123.313L22.1105 123.453C23.1768 125.751 24.8667 128.583 27.4476 129.303C29.006 129.737 30.7296 129.481 32.319 129.401C33.8637 129.324 35.4426 129.313 36.9727 129.071C38.3354 128.855 39.5293 128.246 40.3714 127.142C41.0979 126.19 41.4805 125.039 41.7939 123.894C41.9373 123.939 42.0799 123.987 42.2201 124.042C42.8121 124.273 43.3137 124.644 43.7672 125.082C44.7249 126.006 45.4677 127.128 46.4697 128.01C47.3767 128.809 48.4103 129.429 49.5189 129.907C51.8161 130.896 54.2806 131.291 56.7105 131.815L56.88 131.852C58.7094 132.252 60.5766 132.743 62.1912 133.692C62.2228 133.972 62.3506 134.234 62.5553 134.407C62.2705 134.673 62.1499 135.095 62.4001 135.491C63.0992 136.597 64.3033 137.225 65.3843 137.932L65.4546 137.979C66.5179 138.681 67.5906 139.37 68.672 140.044C70.8703 141.416 73.1146 142.712 75.3906 143.951C79.0513 145.943 82.7905 147.823 86.5975 149.528C86.369 150.648 86.4525 151.803 86.2807 152.931L86.2544 153.092C86.181 153.51 86.2801 153.86 86.5694 154.134L86.6 154.162L86.5995 154.158L86.6266 154.183L86.6357 154.19L86.6327 154.188C86.666 154.219 86.7004 154.247 86.7355 154.271L86.7802 154.3C87.0588 154.468 87.4175 154.467 87.7028 154.318L87.7354 154.3L87.7902 154.268C88.1672 154.052 88.4271 153.517 88.2707 153.092C87.8864 152.047 87.7412 150.931 87.3863 149.879L87.6678 150.005L88.0389 150.166C92.0525 151.895 96.5108 153.351 100.884 152.173C102.816 151.651 104.622 150.549 105.589 148.753C106.54 146.985 106.675 144.933 106.725 142.966C106.787 140.539 106.657 138.075 106.336 135.669C106.12 134.054 105.859 132.409 105.457 130.81C105.664 130.628 105.816 130.367 105.856 130.044C106.046 128.518 105.714 126.931 105.51 125.412C105.312 123.929 105.092 122.449 104.844 120.974C104.343 117.994 103.761 115.021 103.083 112.076C101.876 106.836 100.283 101.688 98.3644 96.6641L98.1964 96.2264C96.4239 91.634 94.3715 87.1395 91.5136 83.1051C90.1465 81.1749 88.7014 79.4249 86.7697 78.034C84.96 76.7308 82.9187 75.7925 80.8121 75.0753C78.7032 74.3575 76.5356 73.8766 74.3298 73.5774C72.0895 73.2736 69.7248 73.0872 67.635 72.1717C67.8994 71.6994 67.6725 71.0619 67.2276 70.769C65.7304 69.7833 64.3458 68.501 63.0038 67.3161ZM15.0736 110.179C15.0108 110.084 14.8619 110.144 14.8894 110.257C15.6176 113.23 16.3012 116.208 16.7476 119.238C17.5534 124.706 17.4052 130.245 17.3393 135.754L17.336 136.038C17.3021 139.005 17.2551 141.973 17.1567 144.939C17.107 146.438 17.0086 147.951 17.0621 149.451C17.0912 150.264 17.3089 151.034 17.386 151.838C17.4535 152.541 17.3934 153.254 17.3596 153.958C17.3371 154.426 18.0302 154.406 18.0774 153.958L18.1377 153.379C18.216 152.645 18.3128 151.916 18.554 151.215C18.844 150.37 18.9832 149.541 19.0838 148.655C19.2379 147.297 19.3064 145.925 19.3659 144.557L19.4066 143.611C19.655 137.895 19.6463 132.152 19.2442 126.441L19.2148 126.034C18.8166 120.636 18.1257 114.804 15.0736 110.179ZM30.5962 76.1606C30.7864 76.0827 30.7197 75.7961 30.5091 75.846L30.1261 75.937C27.3192 76.6069 24.5634 77.3328 21.9436 78.5793C19.3221 79.8266 17.1026 81.6886 15.3391 83.9784C11.911 88.4292 10.4864 93.8383 9.36176 99.2423C8.11193 105.247 6.97401 111.274 5.71329 117.277L5.47919 118.395C4.31264 123.986 3.21127 129.581 2.39973 135.238L2.34143 135.648C1.52306 141.466 1.03081 147.485 1.92379 153.317C2.10044 154.471 4.02757 154.184 3.9522 153.044C3.73459 149.748 3.57877 146.469 3.72935 143.166C3.88007 139.862 4.19105 136.573 4.65462 133.298C5.04475 130.541 5.6263 127.82 6.14095 125.085L6.22161 124.654C6.65255 122.328 7.09681 120.005 7.54009 117.681L8.20253 114.203C9.19538 108.994 10.2077 103.781 11.3515 98.6049L11.4194 98.3003C12.5387 93.3206 14.189 88.1043 17.5466 84.15C20.9539 80.1369 25.8317 78.1158 30.5962 76.1606ZM42.977 128.979C42.8951 128.798 42.6084 128.818 42.5203 128.979C42.175 129.614 42.1367 130.425 42.0714 131.141L42.0645 131.215C41.9815 132.089 41.908 132.967 41.863 133.844C41.7777 135.509 41.7369 137.172 41.7421 138.839C41.7475 140.548 41.782 142.254 41.8745 143.96L41.8995 144.417C41.9839 145.9 42.1254 147.554 42.8324 148.85C43.0893 149.321 43.7883 149.182 43.9371 148.706C44.4247 147.146 44.1743 145.296 44.0493 143.698L43.9522 142.451C43.856 141.204 43.7643 139.956 43.6915 138.708C43.5919 137 43.5097 135.29 43.4305 133.581C43.4048 133.026 43.377 132.471 43.3477 131.916L43.3025 131.084C43.264 130.387 43.2672 129.623 42.977 128.979ZM97.8044 131.191L97.5886 130.983C96.9259 130.337 96.0885 129.342 95.1089 129.403C94.7183 129.428 94.4693 129.751 94.5503 130.134C94.7234 130.953 95.5615 131.377 96.1647 131.877C96.8257 132.425 97.4486 133.01 98.0702 133.6C98.6218 134.124 99.1522 134.663 99.6699 135.218L99.8634 135.427C100.049 135.629 101.37 136.82 101.228 137.129L101.22 137.143C101.18 137.202 101.246 137.284 101.312 137.263C101.883 137.083 101.847 136.596 101.632 136.102C101.217 135.153 100.491 134.276 99.8571 133.465C99.2249 132.657 98.5407 131.904 97.8044 131.191ZM40.9093 107.398C41.3506 106.358 42.9761 106.38 43.899 106.442C46.2229 106.599 48.7374 107.185 50.8051 108.267C52.9489 109.389 54.3929 111.187 55.685 113.175L55.7455 113.268C57.0048 115.219 58.2177 117.528 60.1897 118.869C61.1941 119.553 62.367 120.177 63.5856 120.447C63.6693 120.594 63.8049 120.71 63.9826 120.752L64.0652 120.771C64.4123 120.847 64.9515 120.931 65.4172 120.881C65.4142 121.108 65.4166 121.333 65.4108 121.548C65.3944 122.165 65.3874 122.784 65.3874 123.401C65.3872 124.693 65.4569 125.988 65.4027 127.28C65.3548 128.423 65.1928 129.617 64.642 130.639C64.2381 131.389 63.7049 131.885 63.0613 132.358C61.4781 131.397 59.6879 130.811 57.8709 130.37C55.6735 129.837 53.4235 129.482 51.2761 128.759C50.2426 128.411 49.2489 127.956 48.3486 127.338C47.3931 126.681 46.6633 125.793 45.9124 124.924L45.795 124.789C45.0286 123.913 44.1925 123.075 43.1094 122.6C42.1767 122.191 40.9475 122.119 40.1319 121.486C39.7056 121.155 39.6698 120.674 39.625 120.182C40.1472 120.256 40.7001 120.137 41.2207 120.076L41.4904 120.045C41.9826 119.986 42.4635 119.922 42.9481 119.798C43.0381 119.774 43.0381 119.639 42.9481 119.616C42.3754 119.469 41.8079 119.406 41.2207 119.337L41.0828 119.32C40.5516 119.251 39.9933 119.146 39.4722 119.263C39.3787 118.908 39.2437 118.57 39.0543 118.231C38.7885 117.755 38.2854 117.215 38.2174 116.659C38.1971 116.493 38.236 116.297 38.3146 116.15L38.3416 116.1C38.3747 116.041 38.4138 115.981 38.471 115.944C38.4774 115.952 38.4908 115.96 38.5199 115.969C38.9209 116.095 39.2707 115.9 39.4564 115.598C40.2445 115.696 41.1046 115.663 41.8437 115.695L42.591 115.731C43.3895 115.768 44.2243 115.784 44.9746 115.623C45.0794 115.601 45.1111 115.427 45.0062 115.382C44.0837 114.989 42.9647 114.864 41.9771 114.713C41.4255 114.628 40.8699 114.564 40.3168 114.49C39.9484 114.44 39.5575 114.358 39.1759 114.339C38.219 113.152 38.7346 111.279 40.0662 110.768C40.5513 110.981 40.9875 110.857 41.5174 110.812C42.0464 110.767 42.5768 110.736 43.1079 110.738C44.1722 110.743 45.3001 111.022 46.3541 110.902C46.5255 110.882 46.6848 110.655 46.5143 110.516C45.7075 109.86 44.5513 109.646 43.5272 109.506L43.3149 109.478C42.9716 109.433 42.5541 109.368 42.121 109.329C42.0231 109.139 41.8474 108.995 41.5834 108.959C41.5049 108.948 41.4261 108.942 41.3474 108.935L41.3486 108.927C40.7049 108.897 40.7328 107.813 40.9093 107.398ZM84.9795 127.667C84.9908 127.684 85.0033 127.701 85.0165 127.717L85.037 127.741L84.9311 127.698L84.9795 127.667ZM29.6762 105.075C32.3857 104.785 35.099 104.846 37.8166 104.924C38.0339 105.633 38.7905 106.236 39.5235 106.259C38.9494 107.13 38.8902 108.308 39.2927 109.232C38.438 109.571 37.7016 110.18 37.2545 111.047C36.6346 112.25 36.7157 113.588 37.3284 114.699C36.8055 115.171 36.4969 115.937 36.5278 116.659C36.5623 117.464 37.0439 118.152 37.4441 118.818C37.8765 119.539 37.891 120.174 38.0238 120.981C38.2182 122.163 39.018 122.88 40.0472 123.327L39.9924 123.542C39.7271 124.571 39.397 125.657 38.6387 126.409C37.6632 127.377 36.1498 127.368 34.861 127.429L34.7988 127.433C33.6186 127.491 32.4389 127.56 31.2592 127.627L30.3743 127.676C29.0159 127.751 27.7114 127.76 26.6025 126.865C24.7921 125.404 23.551 122.987 22.7655 120.847C21.1167 116.355 21.0969 111.426 21.8538 106.748C24.392 105.933 27.0255 105.359 29.6762 105.075ZM52.2089 112.527L52.189 112.529C51.6311 112.592 51.2479 113.042 51.1114 113.576C50.9131 114.352 51.0104 115.054 50.5334 115.755C50.0426 116.475 49.7409 117.052 49.6696 117.942C49.6403 118.308 49.6538 118.673 49.5719 119.032L49.5126 119.283C49.4496 119.551 49.3981 119.809 49.4294 120.096C49.458 120.358 49.5862 120.563 49.8501 120.647C50.7103 120.921 51.3744 120.289 51.5966 119.491C51.7886 118.801 51.5322 117.979 51.8031 117.331C51.9531 116.972 52.2298 116.671 52.3862 116.31C52.5411 115.951 52.6189 115.577 52.6437 115.187C52.6909 114.451 52.0369 113.566 52.4018 112.898C52.4795 112.756 52.3915 112.523 52.2089 112.527ZM63.6342 104.925C63.0517 104.807 62.3909 104.536 61.8165 104.761C61.5213 104.877 61.3754 105.235 61.6248 105.485C62.0579 105.917 62.6874 105.941 63.2708 106.043L63.3221 106.053C64.0119 106.18 64.7029 106.3 65.3948 106.415C66.6967 106.63 68.0016 106.82 69.311 106.981C70.656 107.147 72.0047 107.294 73.3552 107.406L73.8781 107.448C75.0189 107.539 76.206 107.608 77.3254 107.434C77.4881 107.408 77.4619 107.172 77.3254 107.131C76.0991 106.761 74.7539 106.662 73.4861 106.505C72.1382 106.339 70.7926 106.163 69.4505 105.954C68.1105 105.745 66.7723 105.522 65.439 105.274C64.8364 105.163 64.2348 105.046 63.6342 104.925ZM42.6173 103.737C43.1285 103.557 43.6908 103.29 44.2446 103.379C45.1997 103.533 46.0498 104.46 46.8058 105.071L46.4262 104.997C44.4838 104.626 41.9117 104.225 40.2812 105.455C40.277 105.448 40.2738 105.441 40.2691 105.434C40.1374 105.235 39.985 105.079 39.8185 104.909C39.8026 104.894 39.7872 104.879 39.7721 104.863L39.6823 104.768L39.8877 104.697C40.3276 104.542 40.8487 104.342 40.9311 104.313L40.9368 104.311C41.4977 104.121 42.0592 103.934 42.6173 103.737ZM58.5762 63.1689C58.6561 62.1446 57.0561 62.153 56.9768 63.1689C56.8039 65.3869 57.3049 67.5839 58.383 69.5284C58.3909 69.5426 58.3997 69.5552 58.408 69.5686C57.7336 69.9182 57.0516 70.2536 56.3545 70.5535C55.4626 70.9371 54.554 71.2865 53.6291 71.5828C52.7925 71.8511 51.7618 71.9569 51.0584 72.5151C49.5753 73.692 50.1325 76.1343 50.4178 77.7174L50.4623 77.9673C50.6044 78.782 50.7071 79.6177 50.3624 80.3996C49.9944 81.2347 49.25 81.8542 48.586 82.4517L48.4519 82.5729C47.8637 83.1069 47.1915 83.7557 46.7601 84.4796C46.3662 83.6682 45.8293 83.0051 45.2616 82.2586C44.8566 81.7258 45.1448 81.5502 45.4358 81.0298C45.7159 80.5289 45.8526 79.9949 45.7651 79.4235C45.6035 78.3682 44.757 77.6059 43.9145 77.0331C42.9195 76.357 41.809 75.8561 40.7804 75.2272C38.6668 73.9349 36.6085 72.4574 34.754 70.8165C34.7028 70.7711 34.6142 70.8305 34.6551 70.8925C36.12 73.1128 37.8377 75.0313 39.9488 76.6598C40.8047 77.3201 41.7039 77.8679 42.6092 78.4436L42.8694 78.61C43.2329 78.8447 43.6862 79.1582 43.8506 79.5576C44.0159 79.9593 43.6633 80.2627 43.4735 80.5954C42.8707 81.6521 43.1615 82.6381 43.8761 83.5343L43.9094 83.5756C44.6195 84.4475 45.1576 85.2584 45.415 86.3723C45.968 88.7652 45.1977 91.2578 44.3914 93.5042L44.3595 93.5928C43.9234 94.8036 43.4598 96.0056 43.0808 97.2359L42.9766 97.576C42.6332 98.708 42.3521 99.8244 42.7372 100.988C42.8682 101.384 43.41 101.477 43.635 101.105C44.4287 99.7913 44.6266 98.2105 45.1242 96.7662C45.6091 95.3586 46.1659 93.9764 46.6343 92.563C47.2375 90.7432 47.6411 88.7844 47.422 86.8756C47.4285 86.8645 47.4356 86.8541 47.441 86.8423L47.5945 86.5076C48.0132 85.6015 48.4176 84.8101 49.179 84.0878C49.9731 83.3344 50.8352 82.6674 51.4601 81.7553C52.8174 79.7741 51.978 77.5701 51.814 75.4038L51.7952 75.1382C51.7655 74.6884 51.7491 74.0772 52.044 73.7659C52.3757 73.4154 53.1535 73.326 53.5935 73.1709C54.7308 72.7698 55.8515 72.3026 56.9189 71.7414C57.935 71.2073 58.9193 70.6173 59.8357 69.9261L60.3002 69.5779C61.033 69.0269 61.793 68.4252 62.2841 67.6752C62.3408 67.5888 62.2445 67.4495 62.1419 67.4909C61.3219 67.8224 60.5727 68.3498 59.8056 68.8087C59.7936 68.7807 59.7798 68.7524 59.7641 68.7241C58.8149 67.0123 58.4245 65.1159 58.5762 63.1689ZM32.3837 74.8967C32.057 74.004 30.568 74.0729 30.6274 75.1336C30.6729 75.9484 31.0201 76.6839 31.3376 77.4238L31.3715 77.5031C31.6992 78.274 32.0778 78.9977 32.5308 79.7042C33.3963 81.0548 34.4101 82.3082 35.4929 83.4911C36.4746 84.5635 37.7631 85.2193 39.2479 85.1103C39.8735 85.0644 40.505 84.9058 41.0532 84.5945C41.7043 84.2245 42.4114 83.1136 43.2421 83.3827C43.3225 83.4086 43.3974 83.2914 43.328 83.2358C42.369 82.4663 41.2805 83.6595 40.3623 83.947C38.9788 84.38 37.5591 83.9012 36.6686 82.7868C35.7389 81.6231 34.8832 80.3203 34.1018 79.0534C33.705 78.4101 33.3429 77.7424 33.0302 77.0543C32.7147 76.3597 32.6429 75.6049 32.3837 74.8967ZM34.6138 69.403C34.6541 69.2797 34.5004 69.1625 34.3917 69.2329C33.7616 69.6417 33.2155 70.1818 32.6343 70.6552C31.9893 71.1805 31.3397 71.695 30.68 72.2017C29.7183 72.9404 30.8337 74.3004 31.6802 73.4934C32.8387 72.3895 34.1075 70.946 34.6138 69.403ZM38.0735 65.0822C37.8175 64.0985 36.3033 64.5041 36.524 65.4763L36.5312 65.506C36.9491 67.1118 36.3539 68.7466 35.0833 69.7876L35.0365 69.8255C34.2327 70.4665 35.3715 71.5871 36.1674 70.9523C37.905 69.5666 38.6278 67.2127 38.0735 65.0822Z" fill="#1A1A1A"></path> <path fill-rule="evenodd" clip-rule="evenodd" d="M28.0748 23.2139C28.5924 20.0872 26.8937 19.4384 28.0748 16.4662C30.6997 10.9589 37.8532 11.1962 43.1026 10.7727C48.9576 10.5487 54.8836 11.3205 60.2812 13.6638C61.5705 14.2234 62.8105 14.8816 63.9993 15.6294C65.0272 16.2762 64.8859 17.5058 64.2377 18.1765C68.9114 24.7852 66.2383 33.656 69.9674 40.6124C70.6563 41.8559 71.5674 42.9709 72.1662 44.2647C73.0764 46.2315 73.1347 49.0495 71.0706 50.3556C68.1635 51.9137 66.5412 48.8287 65.1128 53.3007C57.979 68.8936 43.636 69.7717 30.0198 61.6422C28.8418 60.9878 27.6395 60.2483 26.75 59.2204C24.7308 56.9513 24.9686 53.7605 24.924 50.927C24.899 49.2665 24.8949 47.6057 24.9111 45.9449C24.9747 39.2176 27.2075 29.8858 28.0748 23.2139Z" fill="#EDB98A"></path> <path fill-rule="evenodd" clip-rule="evenodd" d="M57.0762 4.51248C48.855 0.788626 39.5305 -0.623547 30.5626 0.302731C26.1362 0.759205 21.7682 1.73854 17.6112 3.32936L17.2468 3.46997C16.2206 3.86435 15.1145 4.25582 14.3347 5.05861C13.4271 5.99158 13.1725 7.40241 13.8213 8.5549C14.3253 9.4504 15.2315 10.0928 16.198 10.4356C15.8575 10.714 15.5344 11.0245 15.2315 11.3712C14.7208 11.9521 14.6819 12.7806 15.2315 13.3536C16.2905 14.4579 17.6645 15.2569 19.1444 15.6399C18.9781 16.4417 19.068 17.3291 19.4245 18.1282C20.4477 20.4221 23.3299 20.6955 25.5479 20.5593L25.6149 20.555L25.7382 21.9645C25.8039 22.7154 26.2543 23.2977 27.0184 23.4128C27.0452 23.4168 27.0721 23.4195 27.0988 23.4221C25.8897 27.7886 25.1591 32.29 24.4849 36.7649C24.1326 39.1008 23.8172 41.4421 23.5153 43.785L23.4152 44.566C23.0934 47.0918 22.6913 49.6431 22.5519 52.1877C22.4272 54.4967 22.8682 56.7013 24.2932 58.5645C25.572 60.2351 27.316 61.4866 29.1913 62.4156C33.4286 64.5156 37.8884 66.0792 42.5747 66.8047L42.8872 66.8527C44.6962 67.1284 46.56 67.3608 48.3495 66.8609C49.9218 66.4218 51.5707 65.2894 51.2155 63.4703C51.0962 62.8559 50.2356 62.8292 49.9407 63.3044L49.8726 63.4132C49.519 63.9735 49.1314 64.4942 48.5143 64.7833C47.7919 65.1235 46.9541 65.2184 46.1645 65.2279C43.9594 65.2533 41.6632 64.7045 39.5398 64.1543C35.5747 63.1265 31.5023 61.4505 28.2543 58.9112C26.8723 57.8324 25.7623 56.4831 25.3709 54.747C24.887 52.6067 25.332 50.2669 25.5519 48.1158C26.0043 43.6773 26.5427 39.2469 27.1108 34.8215L27.2248 33.9365C27.7032 30.2368 28.2059 26.5357 28.4447 22.8145C28.5438 22.6793 28.6109 22.5254 28.6377 22.3567L28.6751 22.1144C28.7074 21.907 28.7127 21.7169 28.69 21.5415C28.6886 20.8696 28.6699 20.2016 28.631 19.5296C28.6244 19.4092 28.6189 19.2888 28.6149 19.1696C29.3146 19.3236 30.0197 19.448 30.7275 19.5538C35.7034 20.302 40.757 20.4894 45.7731 20.1173C48.2758 19.9311 50.7596 19.6113 53.2356 19.2111C54.4958 19.0077 55.7517 18.7828 57.0037 18.5311C57.9085 18.3504 58.7946 18.1055 59.6847 17.8752C60.6029 19.2098 61.0989 20.8522 61.0024 22.4651C60.8938 24.3056 59.6659 25.9748 60.0104 27.8555C60.3337 29.6155 61.8438 30.1613 63.3347 30.5972L63.9688 30.7801C64.4566 30.9223 64.8109 31.0595 64.8992 31.6449C65.0506 32.6502 64.8643 33.7813 64.8254 34.7919C64.7785 35.9872 64.717 37.1825 64.6887 38.3778C64.674 38.9963 64.65 39.6173 64.6512 40.2358C64.6525 40.6748 64.7182 40.9746 64.8884 41.2583C64.7571 41.423 64.6392 41.6011 64.5345 41.7898C64.501 41.8514 64.5841 41.9168 64.6336 41.8661C64.7664 41.7282 64.9073 41.6038 65.056 41.4925C65.1311 41.585 65.2182 41.6787 65.3202 41.7791L65.3281 41.7684C65.6471 42.0856 66.1539 42.1164 66.5494 41.7791L66.6532 41.6893C66.9428 41.4359 67.1417 41.2248 67.2222 40.806C67.2262 40.7846 67.2304 40.7631 67.2329 40.7417C67.9689 40.7163 68.7169 40.8902 69.3791 41.2557C70.4287 41.8353 71.1673 42.6612 71.6041 43.6812C71.43 43.8846 71.2262 44.0667 70.989 44.2193C70.9555 44.242 70.985 44.2916 71.0212 44.2742C71.2638 44.1604 71.4809 44.0198 71.6753 43.8552C71.8321 44.2568 71.9421 44.6878 72.0091 45.1442C72.245 46.7558 71.8241 48.7248 70.3657 49.6431C69.7343 50.0406 69.0131 50.2562 68.2651 50.2588C67.9006 50.26 67.5855 50.1986 67.2316 50.1116C66.9917 50.0527 66.753 49.967 66.5024 49.967C66.2879 49.967 66.0895 50.0206 65.9059 50.1277L65.9568 50.1321C66.0806 50.1437 66.0568 50.1489 65.8844 50.1489C65.3482 50.1718 65.0414 50.7153 65.2879 51.1878L65.3202 51.2608C65.3271 51.2755 65.3328 51.2877 65.3374 51.2974L65.3568 51.4227C65.3588 51.4347 65.3608 51.4469 65.363 51.4595L65.3704 51.4849C65.3718 51.489 65.3732 51.493 65.375 51.497L64.5709 52.7215C63.5849 54.2196 62.577 55.7118 61.43 57.0801C60.6257 58.0398 59.7731 58.9808 58.8723 59.8522C58.0627 60.6353 57.0922 61.0128 56.1753 61.6285C55.6859 61.9551 55.5426 62.6391 55.9875 63.0795C57.2932 64.3739 59.1418 63.3459 60.2128 62.2938C61.2262 61.2965 62.1016 60.0972 62.8563 58.8965C64.1954 56.7615 65.2611 54.4913 65.7276 52.0271C65.9219 52.2051 66.1699 52.3162 66.4206 52.4032C66.9233 52.5772 67.4769 52.6495 68.0077 52.6682C69.0252 52.7017 70.0439 52.4554 70.9595 52.019C74.6847 50.2454 75.2316 44.9341 72.9541 41.8019C73.2612 40.9126 73.4327 39.9477 73.6191 39.1249L73.7039 38.757C74.6458 34.6487 75.278 30.3231 73.6083 26.2974C73.3938 25.7781 73.1525 25.2721 72.867 24.7875C72.6378 24.398 72.2437 23.9831 72.1351 23.54C71.8938 22.5669 73.3831 21.5442 73.8174 20.7719C74.3281 19.8657 74.4005 18.7962 73.7048 17.9675C73.6163 17.8632 73.52 17.7667 73.4153 17.6825C74.0748 16.4885 74.1056 14.9866 73.237 13.8087C72.6659 13.0324 71.7946 12.4889 70.8429 12.3243C70.2611 12.2239 69.5614 12.2614 68.922 12.4407C65.4207 9.19473 61.426 6.48283 57.0762 4.51248ZM70.5217 45.1282C69.5872 44.3049 68.5551 43.8739 67.2816 43.9824C66.0014 44.092 64.4599 44.6208 63.708 45.7171C63.114 46.5832 64.3245 47.8535 65.1958 47.2029C65.9894 46.6099 66.519 45.9407 67.5041 45.6221C68.389 45.337 69.4842 45.1536 70.4104 45.3169C70.5123 45.3343 70.614 45.2085 70.5217 45.1282Z" fill="#1A1A1A"></path> <path fill-rule="evenodd" clip-rule="evenodd" d="M38.6896 57.1737C39.5927 56.8066 40.3984 56.1943 40.9874 55.4121C41.1922 55.1402 41.2453 54.853 41.2024 54.5904C41.1541 54.2951 40.9787 54.0274 40.7396 53.8479C40.4998 53.6678 40.1997 53.579 39.9097 53.6243C39.6576 53.6636 39.4067 53.8011 39.2082 54.0863L39.1667 54.1434C38.8165 54.6155 38.3601 55.0028 37.8401 55.2525C37.339 55.4931 36.7785 55.6055 36.1984 55.5401C35.0937 55.4158 34.3323 54.8205 33.5229 54.012C33.4226 53.91 33.3222 53.8047 33.2214 53.6977C33.1577 53.6008 33.0693 53.5385 32.9711 53.5058C32.8622 53.4695 32.7389 53.4715 32.626 53.5108C32.5171 53.5486 32.4197 53.6204 32.3544 53.7159C32.2924 53.8067 32.2572 53.9188 32.2686 54.0478C32.3427 54.8856 32.7823 55.6334 33.4067 56.2205C34.1002 56.8725 35.0194 57.3236 35.8849 57.4819C36.8383 57.6561 37.8099 57.5313 38.6896 57.1737ZM35.4349 44.2486C34.4205 44.863 32.8749 46.2957 33.9661 47.8189C35.2506 49.1619 37.1 47.622 38.0114 46.9256C38.8564 46.3859 39.8059 47.774 39.0219 48.4043C32.4364 53.2626 29.7639 44.4093 34.9218 43.5263C35.4897 43.429 35.7007 44.0586 35.4349 44.2486ZM47.2363 38.5972C47.1242 37.2109 45.0054 36.8961 44.7947 38.2679C44.6059 39.4967 44.8281 40.6255 45.3836 41.7318C45.9143 42.7887 47.2483 42.2956 47.3492 41.3332C47.4844 40.0431 47.306 39.4595 47.2363 38.5972ZM31.1076 37.9835C30.8122 37.598 30.3857 37.3348 29.8747 37.4835C28.2782 37.9484 28.7487 40.207 29.3094 41.3063C29.6141 41.9033 30.5989 42.0547 31.0439 41.529C31.7693 40.6718 32.1167 38.96 31.1945 38.1156C31.1695 38.072 31.1417 38.0279 31.1076 37.9835ZM45.406 32.5315L45.1538 32.4875C44.3736 32.353 43.4036 32.2238 42.8517 32.8488C42.559 33.1803 42.4582 33.7963 42.8517 34.1135C43.5437 34.6717 44.3089 34.4554 45.1383 34.5026C45.8217 34.5417 46.4786 34.6544 47.137 34.8419C48.5813 35.2533 49.7582 36.0042 50.9918 36.8287C51.1537 36.9369 51.3189 36.7306 51.2416 36.5798C50.5295 35.19 49.1496 34.0483 47.7673 33.3524C47.0295 32.9809 46.2222 32.6728 45.406 32.5315ZM32.563 31.9089L32.37 31.9482C30.2694 32.3857 27.5403 33.2597 26.5455 35.3157C26.5076 35.6064 26.5477 35.6687 26.5802 35.7094L26.5911 35.723C26.6179 35.7577 26.6393 35.8056 26.7658 35.8452C26.8009 35.8369 26.8363 35.828 26.8722 35.8187C27.3281 35.6996 27.6889 35.5356 28.0381 35.3654L28.4168 35.1795C28.8561 34.9648 29.2994 34.758 29.7691 34.6053C30.7715 34.2795 31.8025 34.05 32.8496 33.9275C33.0765 33.9009 33.295 33.8246 33.4674 33.6938C33.6311 33.5696 33.7561 33.3977 33.8131 33.1693C33.887 32.8736 33.8657 32.6497 33.7065 32.3829C33.5868 32.1826 33.4155 32.0438 33.2188 31.964C33.0183 31.8827 32.79 31.8636 32.563 31.9089Z" fill="#1A1A1A"></path> <path fill-rule="evenodd" clip-rule="evenodd" d="M23.4125 45.0638C25.0434 46.743 27.766 47.2249 29.9359 46.3243C35.5075 44.0047 32.7804 36.7699 28.4835 34.8269C27.9467 34.6936 27.2298 34.3773 26.576 34.3056C26.5169 34.2767 26.3882 34.3603 26.2322 34.2812C21.4942 34.8083 20.4153 42.1372 23.4125 45.0638ZM41.3832 45.4934C43.2124 47.911 46.6132 48.6568 49.3917 47.533C54.8808 45.379 52.9339 38.9634 49.1784 36.4483C41.2451 33.4779 37.9692 41.0359 41.3832 45.4934ZM53.2826 40.1374C53.2877 40.1349 53.2928 40.1337 53.2981 40.1313C53.2691 40.1185 53.24 40.1057 53.2112 40.0927C53.2206 40.1173 53.2308 40.1417 53.2399 40.1663C53.2541 40.1565 53.2666 40.145 53.2826 40.1374ZM19.6363 37.5237C20.0842 37.5246 20.7312 37.598 21.1019 37.9076C22.0162 34.8352 25.3909 31.9917 28.3258 34.0651C30.6369 34.8058 32.352 36.4483 33.3267 38.632C35.0841 37.5903 37.8476 38.0351 39.3716 39.4126C40.3697 36.1264 42.8261 34.9756 45.7498 34.8058C48.941 34.2849 52.1217 37.3731 53.1142 39.8505C53.9394 39.7569 55.1724 39.4952 55.9487 40.0027C60.9871 38.6861 69.7959 37.9602 70.8202 38.6917C71.5502 38.9708 71.9508 40.6876 70.9312 40.7802C70.0427 40.6546 71.0349 39.5223 70.1393 39.3987C65.3674 39.104 60.735 40.0616 56.0136 40.4634C55.5921 41.0284 54.2301 41.2174 53.5035 40.9904C54.6479 45.1929 52.1775 48.0521 48.476 48.9085C42.7444 50.2204 37.7579 45.1114 39.2566 39.7973C37.5204 38.9367 35.5233 38.9736 33.6319 39.427C36.7924 51.0175 18.0589 50.4975 20.9848 38.3047C19.0376 39.2698 18.6147 37.7184 19.6363 37.5237Z" fill="#1A1A1A"></path> </g> <defs> <clipPath id="clip0"> <rect width="110" height="152" fill="white" transform="matrix(-1 0 0 1 110 0)"></rect> </clipPath> </defs> </svg> 