<?xml version="1.0" encoding="UTF-8"?> <svg xmlns="http://www.w3.org/2000/svg" width="112" height="178" viewBox="0 0 112 178" fill="none"> <g clip-path="url(#clip0)"> <path fill-rule="evenodd" clip-rule="evenodd" d="M104.311 117.754C103.84 116.459 104.528 115.166 104.91 113.913C106.265 109.566 102.557 98.6006 99.9644 98.4403C99.016 95.9823 96.485 94.9626 94.493 93.5471C92.2325 92.1336 90.0335 90.5101 87.6826 89.2709C87.5519 88.1 86.1347 87.8098 85.2681 88.6473C82.8879 87.164 80.0336 87.4395 77.4822 86.4676C75.5435 83.3281 75.398 80.0269 74.8847 76.9982C74.661 75.6779 74.8987 74.4041 73.9982 73.227C70.9733 68.9647 59.0212 67.1167 54.6146 69.6425C52.2425 68.1604 52.1853 70.8446 51.8086 72.5013C51.3898 73.3302 51.1633 74.2688 51.2333 75.2578C50.1103 77.6078 49.1581 80.547 46.7981 82.3021C43.8035 84.5291 39.1962 85.3756 36.2766 86.4676C35.6217 85.8363 35.4215 84.9234 35.4215 84.9234C30.8965 85.909 26.5048 87.6414 22.7136 90.3464C18.4063 91.6084 15.3729 95.1181 13.1794 98.8813C12.9377 99.2781 12.8807 99.6826 12.9513 100.054C6.20598 109.96 2.98662 121.819 2.53442 133.797C-1.8033 136.405 4.59615 159.834 6.08588 164.698C6.08738 164.698 6.08888 164.697 6.09038 164.696C7.05685 166.411 8.15421 171.302 10.5729 170.924C12.2321 172.803 14.8762 172.434 17.1277 172.578C16.761 173.987 16.9412 175.6 17.3776 176.992C17.8939 178.65 20.4271 178.706 20.7864 176.899C43.208 181.263 66.2135 177.781 88.8872 178.436C95.4428 178.483 101.998 178.686 108.538 179.154C109.459 179.22 110.392 178.277 110.33 177.358C108.924 162.371 107.603 142.656 106.031 127.816C105.658 124.432 105.363 121.01 104.311 117.754Z" fill="#D08B5B"></path> <path fill-rule="evenodd" clip-rule="evenodd" d="M35.4448 85.0232C35.4366 84.9903 35.4288 84.9571 35.4214 84.9236C30.8964 85.9091 26.5048 87.6415 22.7135 90.3465C18.4063 91.6086 15.3728 95.1183 13.1793 98.8815L13.1501 98.9311C12.9331 99.3118 12.8836 99.6982 12.9513 100.054C6.20592 109.96 2.98656 121.819 2.53436 133.797C-1.80336 136.405 4.59609 159.834 6.08582 164.699L6.09032 164.697C6.33115 165.124 6.58011 165.748 6.85561 166.439C7.68573 168.521 8.75686 171.208 10.5729 170.924C11.9218 172.452 13.9216 172.493 15.8323 172.533C16.2718 172.542 16.7066 172.551 17.1276 172.578C16.7609 173.987 16.9411 176.501 17.3776 177.894C17.8938 179.552 89.5111 180.902 108.538 179.154C109.457 179.07 110.392 178.277 110.33 177.358C109.739 171.065 109.164 163.937 108.578 156.686C107.77 146.672 106.943 136.424 106.031 127.816C105.995 127.492 105.96 127.168 105.925 126.844C105.595 123.779 105.262 120.699 104.311 117.755C103.935 116.72 104.298 115.687 104.654 114.675C104.743 114.42 104.833 114.165 104.91 113.913C106.265 109.566 102.811 98.6268 100.335 98.4642L99.9643 98.4405C99.2359 96.5524 97.5737 95.513 95.9392 94.4909C95.4947 94.213 95.0522 93.9363 94.6312 93.6442L94.493 93.5472C93.7224 93.0654 92.959 92.5591 92.1943 92.0521C90.7156 91.0715 89.2321 90.0878 87.6825 89.271C87.5518 88.1001 86.1346 87.8099 85.268 88.6475C84.8894 88.4115 84.4987 88.22 84.0992 88.061L83.9409 90.2411C81.2388 100.331 73.7205 105.945 61.3859 107.083C42.8841 108.79 34.5443 90.2132 34.5443 88.3359C34.5443 87.5125 34.8159 86.4732 35.3591 85.218L35.4448 85.0232ZM76.2895 119.117C79.0427 118.444 82.3074 117.734 84.9969 117.287C86.3442 117.063 87.5291 116.908 88.4265 116.854C88.877 116.827 89.2332 116.827 89.4913 116.85C89.662 116.865 89.7452 116.888 89.7737 116.896C89.7788 116.897 89.7821 116.898 89.7839 116.898C90.1542 117.194 90.4759 117.623 90.7161 118.012C90.8159 118.174 90.8968 118.321 90.9569 118.437C90.8935 118.599 90.7996 118.809 90.6753 119.012C90.3978 119.466 90.1135 119.668 89.8485 119.668C89.435 119.668 88.4746 119.805 87.3601 119.985C86.2108 120.171 84.8093 120.418 83.454 120.665C82.098 120.912 80.7847 121.158 79.8107 121.343C79.3236 121.435 78.9212 121.512 78.6405 121.566L78.3153 121.629L78.2298 121.645L78.2078 121.65L78.2022 121.651L78.2008 121.651L78.2005 121.651C78.2004 121.651 78.2004 121.651 78.2335 121.822L78.2003 121.651L78.1057 121.67L78.0187 121.711L75.0189 123.151L75.4068 124.574L75.3434 123.827L75.4069 124.574L75.4071 124.574L75.4081 124.574L75.4123 124.574L75.4289 124.572L75.4945 124.567L75.7476 124.546C75.9676 124.528 76.2859 124.502 76.679 124.471C77.4652 124.409 78.5501 124.326 79.7447 124.243C82.1424 124.077 84.954 123.913 86.6884 123.913L87.0683 123.913C88.82 123.912 91.2214 123.911 93.2395 124.024C94.3287 124.085 95.2706 124.178 95.9272 124.312C96.009 124.329 96.0833 124.346 96.1505 124.363C96.1364 124.372 96.1218 124.382 96.1068 124.391C95.7282 124.634 95.1775 124.892 94.5411 125.137C93.2674 125.628 91.8071 126.01 91.0556 126.113C90.2006 126.231 87.8352 126.706 85.7207 127.143C84.6552 127.364 83.6415 127.577 82.8942 127.735C82.5206 127.814 82.2135 127.879 81.9997 127.925L81.7524 127.977L81.6876 127.991L81.671 127.995L81.6667 127.996L81.6657 127.996L81.6654 127.996C81.6654 127.996 81.6653 127.996 81.7007 128.161L81.6653 127.996L81.7961 129.479L94.3357 129.918C94.4433 130.042 94.5468 130.181 94.6084 130.304C94.5796 130.313 94.5441 130.323 94.5008 130.333C93.6752 130.518 91.9776 130.888 90.4838 131.213C89.7375 131.375 89.0429 131.525 88.5349 131.636L87.9297 131.767L87.7637 131.802L87.7203 131.812L87.7093 131.814L87.7065 131.815L87.7058 131.815L87.7056 131.815L87.8641 132.548L87.7056 131.815L87.2729 131.909L87.1461 132.331L87.1461 132.331L87.1459 132.332L87.1458 132.332L87.1457 132.333L87.1452 132.334L87.1395 132.352C87.1338 132.37 87.1246 132.397 87.1118 132.434C87.086 132.508 87.0457 132.618 86.9899 132.754C86.8778 133.026 86.7062 133.396 86.4694 133.784C85.9837 134.581 85.2878 135.353 84.3638 135.646C83.5272 135.911 82.6055 136.089 81.6873 136.266L81.6858 136.267C81.367 136.328 81.0486 136.39 80.7344 136.455C80.1449 136.576 79.5665 136.713 79.0744 136.89C78.601 137.06 78.0995 137.304 77.7664 137.704C77.5381 137.979 77.2833 138.366 77.0319 138.747L77.0125 138.777C76.7434 139.185 76.4575 139.618 76.1471 140.029C75.8359 140.442 75.5178 140.807 75.1954 141.082C74.8704 141.359 74.581 141.511 74.3273 141.559C73.4358 141.728 70.7854 142.421 68.4006 143.059C67.1987 143.381 66.0507 143.693 65.2032 143.924C64.8532 144.019 64.5544 144.101 64.3242 144.164C64.2767 144.092 64.2245 144.012 64.1681 143.924C63.8924 143.495 63.5206 142.886 63.1375 142.165C62.3623 140.707 61.5797 138.865 61.4047 137.173C61.217 135.356 61.1229 133.622 61.0758 132.34C61.0523 131.7 61.0406 131.174 61.0347 130.809L61.0323 130.648L62.3283 129.809L62.41 129.756L62.4755 129.684L68.9553 122.559L68.9637 122.55C68.9754 122.539 68.9958 122.519 69.025 122.492C69.0834 122.437 69.1774 122.353 69.3093 122.245C69.5731 122.029 69.9886 121.72 70.5742 121.366C71.7447 120.66 73.5999 119.775 76.2895 119.117ZM92.4889 118.59C92.489 118.59 92.489 118.589 91.7664 118.389L92.489 118.589L92.5598 118.335L92.4554 118.092L91.7664 118.389C92.4554 118.092 92.4553 118.092 92.4553 118.092L92.4551 118.092L92.4548 118.091L92.454 118.089L92.4518 118.084L92.4447 118.068C92.4388 118.055 92.4306 118.036 92.4201 118.014C92.3992 117.969 92.3692 117.906 92.3304 117.829C92.2531 117.675 92.1396 117.463 91.9928 117.225C91.706 116.76 91.2627 116.147 90.6764 115.692C90.3687 115.453 89.9457 115.385 89.6266 115.356C89.2618 115.323 88.8215 115.327 88.3362 115.357C87.362 115.415 86.1178 115.58 84.751 115.807C82.0122 116.262 78.7085 116.981 75.9331 117.66C73.094 118.354 71.0978 119.298 69.7991 120.082C69.1502 120.474 68.6767 120.825 68.3601 121.083C68.2018 121.213 68.0828 121.319 68.0007 121.396C67.9597 121.434 67.9279 121.465 67.905 121.488C67.8936 121.499 67.8844 121.508 67.8775 121.516L67.8686 121.525L67.8654 121.528L67.8642 121.529L67.8636 121.53C67.8633 121.53 67.8631 121.531 68.3822 122.02L67.863 121.531L67.8538 121.541L61.4312 128.603L59.8711 129.613L59.5288 129.835V130.243H60.2788C59.5288 130.243 59.5288 130.243 59.5288 130.243V130.243V130.244V130.246L59.5289 130.254L59.5289 130.284L59.5296 130.399C59.5304 130.499 59.5319 130.646 59.5349 130.833C59.5409 131.207 59.5529 131.744 59.5768 132.395C59.6247 133.698 59.7205 135.467 59.9127 137.327C60.1177 139.31 61.0092 141.357 61.8131 142.869C62.2196 143.634 62.6136 144.28 62.9063 144.735C63.0529 144.963 63.1745 145.144 63.2603 145.269C63.3031 145.332 63.3371 145.38 63.3607 145.414L63.3882 145.453L63.3959 145.463L63.3981 145.466L63.3989 145.467L63.3991 145.468C63.3992 145.468 63.3993 145.468 64.007 145.028L63.3993 145.468L63.7043 145.89L64.206 145.752L64.007 145.028L64.2061 145.751L64.2064 145.751L64.2076 145.751L64.2123 145.75L64.231 145.745L64.3043 145.724L64.5844 145.648C64.8266 145.581 65.1746 145.486 65.5976 145.371C66.4437 145.14 67.5894 144.829 68.7884 144.508C71.2052 143.862 73.7849 143.189 74.6068 143.033C75.2098 142.918 75.7327 142.596 76.1693 142.223C76.6084 141.848 77.0013 141.387 77.3442 140.933C77.6856 140.481 77.9952 140.011 78.2593 139.611L78.2649 139.602C78.5418 139.182 78.7515 138.866 78.9199 138.663C78.9895 138.58 79.1761 138.447 79.5818 138.301C79.9689 138.162 80.4607 138.043 81.0382 137.923C81.3089 137.868 81.5987 137.812 81.9 137.754C82.8389 137.573 83.8891 137.37 84.8172 137.076C86.2466 136.623 87.1875 135.488 87.7502 134.565C88.0376 134.094 88.2431 133.65 88.3771 133.324C88.3961 133.278 88.4136 133.234 88.4298 133.193L88.8525 133.102C89.3607 132.991 90.0556 132.841 90.8023 132.678C92.2947 132.354 93.9974 131.983 94.8287 131.797C95.3523 131.679 95.8497 131.418 96.0601 130.892C96.2566 130.401 96.0951 129.931 95.9603 129.654C95.8147 129.356 95.6103 129.097 95.4619 128.928C95.3844 128.839 95.3147 128.767 95.2634 128.715C95.2376 128.689 95.2162 128.669 95.2004 128.654L95.1809 128.635L95.1746 128.629L95.1723 128.627L95.1714 128.626L95.171 128.626C95.1708 128.626 95.1707 128.626 94.6648 129.179L95.1707 128.626L94.9669 128.44L94.691 128.43L88.0571 128.197C89.4743 127.913 90.7194 127.674 91.2601 127.599C92.1555 127.476 93.7305 127.057 95.0806 126.537C95.756 126.276 96.4141 125.976 96.9165 125.654C97.1662 125.494 97.4086 125.309 97.5966 125.097C97.7772 124.893 97.9786 124.583 97.9786 124.188C97.9786 123.592 97.4952 123.288 97.2601 123.169C96.9715 123.022 96.6058 122.92 96.2284 122.843C95.46 122.685 94.4283 122.588 93.3234 122.527C91.2607 122.411 88.8185 122.412 87.0743 122.413H87.0742L86.6884 122.413C85.2034 122.413 82.9868 122.528 80.9099 122.662C81.7445 122.505 82.722 122.323 83.7224 122.141C85.0743 121.895 86.4646 121.65 87.5994 121.466C88.7691 121.277 89.5853 121.168 89.8485 121.168C90.9372 121.168 91.6119 120.356 91.9549 119.795C92.14 119.492 92.2714 119.195 92.356 118.978C92.3988 118.868 92.4309 118.775 92.4527 118.708C92.4636 118.674 92.4721 118.647 92.4781 118.627L92.4853 118.602L92.4876 118.595L92.4884 118.592L92.4888 118.59L92.4889 118.59ZM96.6333 124.537C96.6326 124.537 96.6264 124.534 96.6167 124.526C96.6293 124.533 96.6341 124.537 96.6333 124.537ZM94.6514 130.417C94.6513 130.417 94.6511 130.416 94.651 130.414C94.6514 130.416 94.6514 130.417 94.6514 130.417ZM96.5028 124.066C96.5043 124.063 96.5053 124.061 96.5054 124.061C96.5055 124.061 96.5047 124.063 96.5028 124.066ZM94.7207 130.255C94.721 130.255 94.7211 130.255 94.721 130.255C94.7207 130.255 94.7182 130.256 94.7142 130.26C94.7178 130.258 94.7199 130.256 94.7207 130.255Z" fill="#F5F2EF"></path> <path fill-rule="evenodd" clip-rule="evenodd" d="M81.908 116.533L88.4981 101.578C88.4981 101.578 89.4939 99.0374 91.1848 99.0374C92.8757 99.0374 108.208 99.5184 108.208 99.5184C108.208 99.5184 111.346 99.9194 110.333 101.578C109.319 103.237 94.2539 134.108 94.2539 134.108H87.8643V132.548L94.9778 130.556C94.9778 130.556 96.2725 129.179 94.2539 129.179C92.2352 129.179 80.4907 128.729 80.4907 128.729L91.6893 127.083L97.2288 124.949L96.414 123.827L91.6893 123.151L76.3029 123.827L80.4907 122.408L89.8487 120.418C89.8487 120.418 91.6893 119.119 91.6893 117.846C91.6893 116.573 86.7587 116.083 86.7587 116.083L81.908 116.533Z" fill="white"></path> <path d="M64.1084 127.034C62.7125 128.328 62.109 129.107 61.3211 130.584C59.6043 137.391 60.4675 140.404 64.8686 144.53L72.217 142.755C74.5814 141.98 75.8075 141.503 76.7781 139.205C77.9568 137.891 78.7959 137.378 81.0858 137.43C83.5975 137.019 84.8174 136.245 86.9139 134.641C87.6731 133.867 87.8116 133.511 87.1673 133.12H79.5654L93.5021 131.345L93.504 131.343C95.2448 130.309 96.2213 129.729 93.2487 129.316L81.0858 129.063V128.302L95.7827 125.766C97.6111 124.81 97.816 124.347 95.7827 123.738L88.941 123.231C84.6995 123.109 82.4452 123.256 78.5519 123.738H75.0044L77.5383 122.47C82.682 121.178 85.4254 120.691 89.9546 120.442C91.9276 119.045 92.8703 118.255 89.4478 116.638C85.0684 116.447 82.5538 116.598 77.7917 118.159C70.9781 119.205 68.1179 121.379 64.1084 127.034Z" fill="#D08B5B" stroke="#D08B5B"></path> <path fill-rule="evenodd" clip-rule="evenodd" d="M52.1783 70.5676C52.2426 70.3919 52.5047 70.4151 52.5097 70.6125C52.613 74.8264 51.5659 79.9758 48.2002 82.8221C46.4725 84.2832 44.1883 84.9519 42.0906 85.7202L41.8539 85.8077L38.1479 87.1909C37.1649 87.5577 36.1046 88.122 35.2363 87.6038C35.9389 89.3492 36.5288 91.1427 37.3844 92.825C38.4496 94.9191 39.7373 96.835 41.3134 98.5776C47.5575 105.481 57.4396 107.587 66.3077 105.564C70.8742 104.522 75.3178 102.548 78.4333 98.9479C80.801 96.211 82.1613 92.5378 82.4819 88.9145C82.3882 88.9295 82.29 88.9289 82.1891 88.9067C81.067 88.6615 79.9343 88.059 78.947 87.468L78.8519 87.4109C77.9019 86.838 76.9117 86.1814 76.23 85.2913C75.5529 84.4073 74.8423 81.5237 74.8423 81.5237C74.6488 80.4399 74.4672 78.2809 74.4983 77.1854C74.5011 77.0821 74.9589 77.0211 75.0077 77.1285C75.4307 78.0585 75.5675 80.1019 75.8939 81.0698L75.9598 81.2631C76.3084 82.2738 76.6074 83.5045 77.3302 84.3217C78.6872 85.8561 80.7347 86.5056 82.5623 87.2751C82.6935 85.5409 85.4582 85.5813 85.4231 87.39C85.4212 87.4881 85.4168 87.5858 85.4134 87.6835C85.6314 87.8036 85.8411 87.941 86.0371 88.0735L86.2284 88.2036C86.9523 88.6969 87.6817 89.1657 88.4525 89.5842C89.9448 90.3945 91.5247 91.037 93.0537 91.7726C94.6005 92.5169 96.0472 93.4036 97.398 94.4648C98.0324 94.9631 98.6408 95.4939 99.2177 96.0579L99.3743 96.2125C99.9235 96.7605 100.638 97.3732 100.951 98.0933C101.02 98.2521 101.365 98.6214 101.553 98.6337C104.458 98.8245 107.357 99.094 110.244 99.4979C110.991 99.6025 111.287 99.9884 111.01 100.612C110.061 102.757 106.344 111.322 105.356 113.621C105.471 115.31 105.316 117.298 105.42 118.987C105.572 121.452 105.771 123.916 106.01 126.374C106.864 135.167 108.16 143.917 109.331 152.671C109.917 157.053 110.451 161.441 110.978 165.829C111.244 168.047 111.47 170.267 111.644 172.495C111.717 173.423 111.783 174.351 111.84 175.281L111.89 176.105C111.959 177.142 112.118 178.132 111.477 179.022C111.187 179.426 110.523 179.653 110.142 179.195C109.661 178.618 109.483 178.187 109.437 177.43C109.402 176.85 109.394 176.267 109.367 175.687C109.31 174.429 109.239 173.171 109.155 171.914C108.987 169.402 108.796 166.89 108.575 164.382C107.798 155.587 106.323 146.857 105.342 138.084C104.847 133.661 104.495 129.229 104.309 124.782C104.216 122.561 104.182 120.34 104.204 118.117C104.213 117.287 104.252 116.46 104.309 115.635C102.838 118.982 101.292 122.297 99.6759 125.567L99.2928 126.342C98.2685 128.409 97.2167 130.484 95.9857 132.433L95.7742 132.765C95.2754 133.557 94.5941 134.805 93.6846 135.055C93.0511 135.229 92.277 135.106 91.6275 135.094C90.983 135.081 90.3376 135.079 89.6935 135.052C88.971 135.023 88.2816 134.928 87.5834 134.74C87.4673 134.708 87.3576 134.674 87.2576 134.631C86.5541 135.784 85.3588 136.663 84.1367 137.175C83.1578 137.585 82.1319 137.866 81.1042 138.126L80.7415 138.217C79.6398 138.492 78.3794 138.622 77.7581 139.688L77.6138 139.935C77.1518 140.722 76.7086 141.412 75.9441 141.976C75.1211 142.583 74.1461 142.965 73.1748 143.262C72.1803 143.566 71.1626 143.799 70.1528 144.048L69.8776 144.116C69.211 144.284 68.5384 144.437 67.8757 144.619C67.5931 144.696 67.3054 144.776 67.028 144.872C66.7032 144.984 66.4673 145.158 66.211 145.348C65.9807 146.154 64.9964 146.592 64.1871 146.536C63.762 146.506 63.3807 146.362 63.0338 146.15C62.4282 146.666 61.7615 147.129 61.1442 147.607C60.2798 148.277 59.412 148.943 58.5394 149.602C56.7402 150.96 54.9274 152.301 53.0956 153.615C49.8443 155.948 46.5227 158.174 43.1443 160.317C41.7356 161.211 40.3176 162.103 38.8856 162.974L39.0384 163.031L39.3415 163.146C40.058 163.414 40.8564 163.847 40.9953 164.684C41.1053 165.349 40.735 165.806 40.0804 165.888C39.3024 165.984 38.6969 165.433 38.2125 164.907C37.9987 164.676 37.7594 164.46 37.5546 164.222C37.4711 164.124 37.4069 164.012 37.3504 163.894C35.9372 164.728 34.5089 165.535 33.058 166.288L32.6948 166.476C29.0969 168.319 25.5949 170.338 21.9664 172.129C21.0198 172.596 19.8658 173.102 18.6629 173.447C18.9821 174.686 18.9772 176.047 18.9852 177.305C18.9929 178.531 17.0481 178.525 17.0892 177.305L17.109 176.716C17.1444 175.725 17.2022 174.696 17.4369 173.732C13.8927 174.321 10.3521 173.041 9.69285 172.657C8.96522 172.233 8.30477 171.555 7.75511 170.926C6.57889 169.579 5.76265 167.964 5.03847 166.34C3.48727 162.862 2.38826 159.144 1.58476 155.425C-1.37746 141.716 -0.103331 127.043 4.70727 113.902C5.90913 110.618 7.3281 107.407 8.95413 104.313L9.15603 103.93C10.7786 100.87 12.582 97.8208 14.8727 95.2163C17.2588 92.5037 20.2021 90.3939 23.4068 88.7563C24.9707 87.9572 26.58 87.2646 28.2247 86.6508C28.4889 86.5522 28.7549 86.4637 29.0215 86.3794C30.7355 85.2847 32.8157 84.2374 34.8966 84.2786C35.038 84.2811 35.1525 84.3349 35.238 84.4159C35.3383 84.4334 35.4386 84.4548 35.5391 84.484C35.7608 84.5485 35.995 84.792 35.9632 85.0421L35.9524 85.1253C35.9466 85.1659 35.9392 85.2052 35.9265 85.2435C36.0009 85.2546 36.0739 85.2724 36.1454 85.2968C38.1363 84.7335 40.0952 83.8721 42.0381 83.1772L42.4805 83.0207C44.1077 82.4494 45.7771 81.8894 47.1119 80.7588C48.4399 79.634 49.4385 78.1771 50.1604 76.6022C51.0498 74.6618 51.448 72.5597 52.1783 70.5676ZM92.0394 172.909C92.4336 172.616 92.8997 172.957 93.0473 173.32C93.5316 174.514 93.2923 176.368 92.6096 177.423C91.9022 178.517 90.2091 178.085 90.1681 176.761C90.1254 175.38 90.9266 173.739 92.0394 172.909ZM96.1114 139.955C96.1468 139.8 96.3873 139.801 96.4233 139.955C96.7515 141.355 96.7438 142.864 96.8402 144.299L96.8513 144.459C96.9669 146.042 97.0641 147.63 97.1333 149.216C97.2693 152.336 97.4319 155.457 97.614 158.575C97.7044 160.122 97.8013 161.668 97.9046 163.213C98.2282 163.033 98.5615 162.874 98.9069 162.734C99.4245 162.525 99.9284 162.501 100.485 162.506C101.162 162.513 101.672 163.11 101.582 163.775C101.484 164.499 100.848 164.809 100.187 164.705C99.4558 164.591 98.721 164.413 97.9823 164.339C98.0646 165.534 98.1496 166.729 98.2397 167.923C98.3592 169.504 98.515 171.083 98.6244 172.665C98.6349 172.816 98.6462 172.967 98.6577 173.118C99.0982 172.889 99.566 172.771 100.096 172.627L100.234 172.588C101.004 172.366 101.827 172.06 102.54 172.579C103.019 172.927 103.114 173.501 102.718 173.961C102.116 174.659 101.226 174.523 100.395 174.488L99.9482 174.471C99.5269 174.455 99.1382 174.428 98.7489 174.321C98.8204 175.352 98.858 176.386 98.7319 177.401C98.6637 177.95 97.9427 178.094 97.7518 177.534C97.2533 176.071 97.1503 174.493 96.9678 172.961C96.7974 171.53 96.6938 170.088 96.5822 168.651L96.5485 168.22C96.2975 165.057 96.0967 161.893 95.9501 158.724C95.8033 155.555 95.7151 152.387 95.68 149.216C95.6641 147.776 95.6879 146.33 95.7442 144.89L95.7621 144.459C95.8268 142.978 95.7815 141.406 96.1114 139.955ZM30.2272 173.143C30.2464 172.941 30.4082 172.689 30.6488 172.72C30.8705 172.749 31.099 172.735 31.3184 172.772C31.6079 172.82 31.8409 172.992 32.1102 173.099C32.5478 173.275 33.0249 173.365 33.474 173.509C34.3165 173.778 34.7756 174.667 34.4267 175.496C34.0598 176.369 33.1378 176.567 32.3412 176.201C31.7133 175.912 31.2453 175.451 30.8231 174.917L30.7035 174.765C30.5216 174.536 30.3151 174.28 30.2387 174.002C30.1645 173.732 30.2011 173.418 30.2272 173.143ZM71.1585 169.042C72.2078 168.894 73.1041 169.254 74.0751 169.592L74.154 169.62C75.1422 169.961 76.5841 170.198 77.0906 171.211C77.3962 171.822 77.1588 172.634 76.4397 172.815C75.3009 173.101 74.2798 172.267 73.3381 171.706L73.2886 171.676C72.3797 171.143 71.4416 170.694 70.8612 169.774C70.7063 169.529 70.8406 169.087 71.1585 169.042ZM34.527 85.4358C34.1066 85.5301 33.6862 85.6135 33.2662 85.6937C31.6687 86.5515 30.118 87.4417 28.4686 88.206C26.7186 89.017 24.975 89.8545 23.3127 90.8356C19.9544 92.8176 17.1859 95.3946 14.8982 98.5534C10.9466 104.01 8.00712 110.302 5.9034 116.687C5.3629 118.327 4.87921 119.986 4.4513 121.659C5.20787 120.958 6.10356 120.527 7.10797 120.158C7.53363 120.001 8.06349 120.266 8.27924 120.635C8.37625 120.801 8.43098 120.965 8.42093 121.16C8.39859 121.589 8.11972 122.077 7.65942 122.162C6.58635 122.36 5.54297 122.746 4.50828 123.085C4.35145 123.137 4.21666 123.117 4.10901 123.056C3.08181 127.415 2.4392 131.864 2.2116 136.34C2.01909 140.128 2.13784 143.947 2.55675 147.731C2.87865 147.586 3.19351 147.45 3.54646 147.368C4.0042 147.261 4.45445 147.131 4.90095 146.985C6.18948 146.561 6.77721 148.692 5.4602 149.017C4.97007 149.138 4.47694 149.238 3.97751 149.312C3.54226 149.376 3.15723 149.348 2.74686 149.281C3.06037 151.641 3.48858 153.985 4.03404 156.295L4.1544 156.8C4.86293 159.751 5.68872 162.729 6.88292 165.517C7.46871 166.885 8.24431 168.184 9.20193 169.324C9.67242 169.885 10.1946 170.366 10.7641 170.821C11.2382 171.2 12.8497 172.023 14.7583 172.023C16.6669 172.023 17.1836 171.842 18.1465 171.51C20.0508 170.853 21.8588 169.805 23.6447 168.871L23.8294 168.775C24.6191 168.366 25.4058 167.95 26.1904 167.531C26.0913 166.73 26.2648 166.057 26.6816 165.317C27.1321 164.516 28.2485 164.915 28.3315 165.734L28.3341 165.765C28.3467 165.95 28.3776 166.138 28.416 166.325C33.6623 163.446 38.7975 160.366 43.851 157.155C47.1062 155.087 50.3268 152.957 53.5003 150.765C55.0867 149.67 56.6594 148.554 58.2164 147.417C59.032 146.821 59.8439 146.22 60.6521 145.614C60.9887 145.362 61.3188 145.097 61.6562 144.843C61.5742 144.741 61.4942 144.638 61.4169 144.537C60.1571 142.884 59.3399 140.915 58.9326 138.883C58.6867 137.657 58.568 136.384 58.5319 135.134L58.516 134.59C58.4911 133.675 58.4846 132.716 58.653 131.829C58.4238 131.955 58.1896 132.079 57.9561 132.211C57.1184 132.687 56.28 133.161 55.4402 133.633C53.7586 134.578 52.072 135.513 50.364 136.409C47.3131 138.01 44.2323 139.534 41.0683 140.899L39.5287 141.563C36.8567 142.715 34.1629 143.846 31.3848 144.701C29.8179 145.184 27.4684 145.782 25.8789 146.15C25.8789 146.15 27.7945 147.958 26.4082 148.58C25.0219 149.202 23.8734 146.816 23.8277 146.6C23.0955 146.753 21.0046 147.124 21.0046 147.124C19.0177 147.509 17.0912 148.269 15.3152 149.243C14.6978 149.581 14.5257 148.924 15.1799 148.466C17.0927 147.126 19.3239 146.368 21.626 145.732L21.739 145.701C22.5836 145.469 23.4267 145.227 24.268 144.977C24.1755 144.642 24.1221 144.294 24.1327 143.91C24.1564 143.056 24.2318 142.198 24.2771 141.344C24.3722 139.552 24.4935 137.765 24.6356 135.976C24.6902 135.287 24.7513 134.596 24.8214 133.906C24.3702 133.663 23.9811 133.342 23.4782 133.183L23.3932 133.159C22.8553 133.013 23.0369 132.319 23.5147 132.259C23.9476 132.206 24.3783 132.23 24.805 132.322C24.8711 132.337 24.9337 132.353 24.9933 132.371C25.0718 131.731 25.1587 131.093 25.2575 130.459C25.5188 128.783 25.7037 127.017 26.2477 125.407C26.288 125.287 26.4648 125.245 26.5303 125.37C27.3216 126.878 27.3492 128.728 27.4383 130.407L27.4494 130.608C27.5545 132.44 27.5605 134.291 27.5266 136.125C27.4918 138.016 27.4272 139.902 27.3425 141.791C27.3085 142.552 27.3098 143.341 27.1804 144.069C31.8895 142.535 36.5154 140.699 40.9494 138.526C44.0771 136.993 47.1779 135.398 50.2433 133.743C51.7792 132.914 53.3223 132.099 54.8566 131.267C55.3941 130.975 55.9313 130.683 56.4682 130.39L57.2735 129.95C58.027 129.538 58.656 129.128 59.5337 129.099C59.7954 129.09 60.03 129.213 60.1966 129.399C60.6683 129.064 61.2134 128.858 61.7856 128.863C62.6468 127.671 63.5212 126.489 64.4304 125.333L65.1021 124.477C66.2647 123 67.4961 121.5 68.9786 120.376C69.6403 119.874 70.368 119.498 71.127 119.187C70.9484 119.144 70.7736 119.056 70.6178 118.911C69.8929 118.237 69.793 116.987 69.6458 116.047C69.493 115.073 69.5521 114.2 69.7029 113.229C69.7616 112.852 70.3856 112.773 70.5379 113.12C70.8589 113.851 71.1989 114.551 71.491 115.291L71.5771 115.514C71.8906 116.346 72.5584 117.221 72.5143 118.124C72.5023 118.371 72.4196 118.587 72.2918 118.76C72.9289 118.548 73.5751 118.359 74.2114 118.162C76.2141 117.542 78.2244 116.94 80.2656 116.459C80.8089 116.331 81.355 116.212 81.9033 116.103C82.1906 114.737 82.6092 113.396 83.1027 112.079C82.6354 111.839 82.3328 111.437 81.9304 111.079C81.5538 110.744 81.295 110.336 80.9737 109.952C80.6812 109.602 80.8455 108.97 81.3712 108.99L81.5201 108.996C82.0647 109.022 82.5921 109.078 83.086 109.333L83.2619 109.424C83.5032 109.549 83.7673 109.693 84.0025 109.863C84.31 109.154 84.6298 108.452 84.953 107.757L85.3723 106.858C86.4597 104.519 87.5441 102.091 88.9092 99.9131C89.5161 98.9448 90.3238 98.3402 91.4831 98.2467C92.6769 98.1504 93.918 98.2748 95.1134 98.3176C96.4993 98.3673 97.8847 98.4262 99.2691 98.499C98.9142 98.1266 98.5904 97.7121 98.234 97.3547C97.6424 96.7621 97.0173 96.2003 96.3603 95.6811C95.0599 94.6535 93.6302 93.8067 92.1451 93.0776C90.6597 92.3483 89.1307 91.7125 87.7363 90.8115C86.8539 90.2415 86.0653 89.5241 85.3457 88.7478C84.8928 93.6432 82.5333 98.1912 78.9886 101.608C75.3068 105.157 70.219 107.107 65.2418 107.936C60.1651 108.782 54.8666 108.472 50.0101 106.704C47.5061 105.792 45.1045 104.49 42.9627 102.856C42.9391 102.998 42.9108 103.139 42.8552 103.271C42.7805 103.448 42.6892 103.599 42.5845 103.755L42.3978 104.029C42.28 104.201 42.16 104.371 42.0263 104.531C41.7026 104.917 41.244 105.086 40.75 105.084C39.804 105.081 39.0876 104.152 39.3422 103.233C39.5022 102.655 39.8445 102.308 40.3789 102.082C40.5478 102.01 40.7199 101.95 40.893 101.891L41.023 101.847C41.198 101.787 41.3716 101.73 41.5516 101.697C40.5375 100.8 39.5965 99.8248 38.7539 98.7724C36.111 95.4721 33.5043 90.85 34.3878 86.467C34.4031 86.3917 34.4708 86.3444 34.5436 86.3324C34.5949 86.0248 34.7583 85.7272 34.9822 85.5271C34.8315 85.4874 34.6796 85.4568 34.527 85.4358ZM61.9706 161.216C62.494 160.925 63.0347 161.618 62.6093 162.046L61.9742 162.682C61.3849 163.276 60.8112 163.875 60.3067 164.552L60.1845 164.717C59.5035 165.645 58.7773 166.721 57.6614 167.068C56.3117 167.487 55.0146 165.84 55.7962 164.637C56.479 163.585 57.7938 163.189 58.9273 162.754C59.9996 162.343 60.9682 161.775 61.9706 161.216ZM18.4299 156.364C18.7374 155.961 19.5392 156.173 19.3292 156.744C18.6468 158.597 18.3687 161.125 16.6454 162.356C16.0894 162.753 15.2161 162.57 14.7583 162.112C14.2382 161.591 14.2174 160.857 14.5148 160.221C14.8776 159.446 15.7699 158.884 16.3954 158.293L16.4515 158.239C17.1244 157.584 17.8522 157.122 18.4299 156.364ZM90.4558 158.497C91.0047 158.26 92.4352 157.799 92.8592 158.345C92.879 158.365 92.8959 158.387 92.9096 158.411C93.0135 158.592 93.0289 158.847 92.9096 159.027C92.4155 159.77 91.901 160.326 91.1986 160.855L91.1198 160.914C90.3551 161.477 89.6368 162.138 88.7051 162.392C87.4137 162.744 86.5117 161.125 87.4187 160.179C88.1494 159.417 89.2648 159.021 90.233 158.596L90.4558 158.497ZM38.5964 147.907C38.3803 147.516 38.8217 147.037 39.2215 147.281C40.3617 147.979 41.69 148.503 42.9707 148.879C43.489 149.032 43.9566 149.558 43.9181 150.126L43.9121 150.212C43.8968 150.413 43.8692 150.612 43.7419 150.779C43.2959 151.363 42.6578 151.588 41.9763 151.242C40.4577 150.472 39.4182 149.395 38.5964 147.907ZM71.9231 146.723C71.8953 146.558 72.0154 146.431 72.1823 146.463C73.1459 146.646 74.0359 147.112 74.8634 147.648C75.3072 147.936 75.7353 148.252 76.178 148.542C76.725 148.9 76.9298 149.196 77.0106 149.854C77.064 150.288 76.6593 150.685 76.2882 150.805C75.2768 151.132 74.118 150.059 73.4328 149.363L73.402 149.331C72.6847 148.599 72.0931 147.733 71.9231 146.723ZM100.865 145.585C100.645 144.991 101.402 144.498 101.897 144.79C102.363 145.065 102.869 145.293 103.309 145.607C103.713 145.897 104.081 146.24 104.469 146.554L104.661 146.705C105.371 147.278 106.544 148.693 105.528 149.515C104.561 150.296 103.279 149.298 102.63 148.568L102.584 148.517C102.211 148.084 101.75 147.615 101.479 147.11C101.224 146.635 101.051 146.089 100.865 145.585ZM91.3275 99.5834C90.1162 99.8189 89.6224 101.317 89.1124 102.293C87.9085 104.597 86.8014 106.944 85.6895 109.293C85.3472 110.016 85.0139 110.744 84.6776 111.471C84.6571 111.528 84.6307 111.584 84.5997 111.639C83.9107 113.126 83.2012 114.602 82.372 116.012C83.1309 115.87 83.8938 115.749 84.6595 115.653C84.6209 114.931 85.1145 113.964 85.3587 113.356L85.379 113.305C85.6835 112.526 86.0027 111.298 86.7866 110.894C87.0478 110.759 87.3271 110.928 87.3472 111.216C87.4066 112.074 86.5692 113.055 86.1599 113.783C85.9123 114.224 85.6711 114.666 85.436 115.113C85.3478 115.28 85.2742 115.445 85.1838 115.592C85.5787 115.55 85.9741 115.511 86.3705 115.484L86.6289 115.466C88.0985 115.369 89.6595 115.341 90.9873 116.067C92.2193 116.741 92.849 118.178 92.1722 119.487C91.329 121.118 89.4722 121.334 87.8394 121.467C85.8 121.631 83.756 121.929 81.731 122.219C79.6364 122.519 77.6641 123.293 75.6007 123.69C75.4088 123.727 75.2893 123.476 75.4653 123.369C77.0929 122.376 79.0716 121.83 80.8913 121.273L81.0385 121.228C82.0255 120.925 82.9901 120.578 84.0112 120.405C85.0024 120.238 85.9997 120.103 86.9995 120L87.0966 119.991C88.1973 119.898 91.0055 119.93 90.8868 118.297C90.8083 117.216 89.0549 117.03 88.2546 117.017C84.5851 116.958 80.8893 117.934 77.402 118.979L76.6235 119.213C75.1955 119.644 73.7655 120.086 72.3644 120.591C70.7766 121.163 69.5257 122.054 68.3693 123.274C67.087 124.627 65.8451 126.011 64.5149 127.318C63.6763 128.142 62.827 128.952 61.9707 129.755C61.7773 130.005 61.6226 130.278 61.5154 130.632C61.3342 131.231 61.3759 131.787 61.4443 132.401C61.6167 133.952 61.6548 135.52 61.8709 137.067C62.0712 138.5 62.3512 139.985 62.9451 141.314C63.1803 141.841 63.4863 142.358 63.8349 142.82L64.1162 143.186C64.2388 143.346 64.376 143.52 64.52 143.684C64.7314 143.425 65.0373 143.257 65.3928 143.299C66.1483 143.388 66.7422 143.367 67.4833 143.193C68.0569 143.059 68.6261 142.901 69.1972 142.755C70.3185 142.468 71.4504 142.208 72.5603 141.879L72.7512 141.821C73.5783 141.567 74.4057 141.248 75.0942 140.713C75.8941 140.092 76.1401 139.195 76.7327 138.419C77.9978 136.763 80.7317 136.798 82.5828 136.344C84.1559 135.959 85.6698 135.351 86.7584 134.207L86.822 134.139C86.7737 133.935 86.852 133.705 87.0412 133.599L87.0824 133.576C87.1562 133.535 87.2356 133.518 87.3136 133.519C87.4147 133.371 87.5121 133.217 87.6007 133.054C87.6736 132.919 87.8558 133.018 87.8319 133.151C87.8177 133.231 87.7979 133.308 87.7792 133.386C88.8337 133.114 89.9918 133.166 91.0625 133.167L92.452 133.162C92.6925 133.159 93.0509 133.147 93.0827 133.132L93.1154 133.118C93.202 133.08 93.079 133.142 93.1396 133.062C93.2063 132.973 93.2717 132.883 93.3361 132.792C93.5664 132.47 93.7843 132.137 93.9978 131.802C91.671 132.395 89.2606 132.765 86.8848 133.073C84.3359 133.404 81.7535 133.633 79.1818 133.636C78.473 133.637 78.4794 132.564 79.1818 132.537C81.9049 132.433 84.6138 132.289 87.3186 131.939C88.7173 131.758 90.1102 131.531 91.4952 131.266C92.03 131.163 92.5634 131.055 93.0956 130.94L93.4945 130.853C93.7447 130.797 94.4518 130.717 94.7966 130.486C94.8644 130.369 94.9322 130.253 94.9993 130.136C94.9663 129.727 93.9276 129.782 93.6841 129.781C92.9937 129.78 92.3031 129.785 91.6125 129.787C90.2315 129.791 88.8506 129.779 87.4694 129.768C84.71 129.745 81.9402 129.649 79.183 129.767C78.5137 129.795 78.1621 128.72 78.8236 128.437C81.744 127.188 84.9859 126.917 88.1042 126.533C89.744 126.331 91.3847 126.098 92.9878 125.689L93.3842 125.588C94.3912 125.33 95.5033 125.014 96.3513 124.398C95.0767 123.881 93.4924 123.94 92.1712 123.867L92.0701 123.861C90.2201 123.748 88.3667 123.689 86.5133 123.687C82.7209 123.681 78.9272 123.816 75.139 123.996C75.044 124 75.0243 123.85 75.1167 123.83C79.0103 122.979 82.9675 122.569 86.9521 122.506C88.8078 122.476 90.6644 122.503 92.5186 122.585L93.1989 122.616C94.7798 122.685 96.534 122.703 97.8566 123.659C98.0583 123.805 98.1646 123.991 98.1812 124.188C99.9551 120.646 101.593 117.029 103.238 113.437C104.517 110.643 105.748 107.827 107.074 105.055L107.503 104.159C108.077 102.962 108.666 101.766 109.319 100.612C106.875 100.285 104.418 100.058 101.958 99.884C99.7177 99.7253 92.4062 99.3739 91.3275 99.5834ZM90.2453 137.977C90.5241 137.821 90.9511 137.948 91.0197 138.292C91.0709 138.549 91.1581 138.833 91.1581 139.095C91.1581 139.41 91.046 139.751 90.9861 140.058C90.8487 140.765 90.6794 141.34 90.3206 141.969C90.0962 142.363 89.6429 142.631 89.1874 142.62C88.8267 142.612 88.507 142.515 88.2595 142.235C87.9629 141.9 87.7593 141.407 87.922 140.956C88.3481 139.774 89.1313 138.596 90.2453 137.977ZM31.1271 136.797C31.7793 135.653 33.3253 134.63 34.6744 134.731C36.7001 134.883 37.1135 137.616 35.1522 138.268C33.9799 138.658 32.3671 138.257 31.3415 137.616C31.0651 137.443 30.9637 137.084 31.1271 136.797ZM10.3075 132.887C10.1594 132.672 10.4042 132.425 10.6249 132.474C11.1144 132.581 11.6422 132.628 12.1217 132.775C12.6127 132.924 13.088 133.172 13.5744 133.343C14.5933 133.701 15.6817 133.88 16.6678 134.312C17.062 134.484 17.372 135.056 17.3356 135.478L17.3263 135.577C17.3045 135.786 17.2683 135.968 17.1515 136.16C16.8377 136.673 16.2159 136.938 15.6291 136.78C14.5404 136.487 13.4766 135.735 12.5484 135.109L12.3769 134.995C11.9713 134.727 11.5352 134.448 11.2084 134.103C10.8673 133.743 10.587 133.295 10.3075 132.887ZM47.7303 128.725C47.6049 128.273 48.1664 127.974 48.4937 128.28C49.1477 128.89 49.8316 129.456 50.4721 130.082L50.5151 130.125C50.9738 130.587 51.6411 131.476 51.0445 132.074C50.2802 132.84 49.2158 131.703 48.8057 131.111C48.2856 130.36 47.9736 129.603 47.7303 128.725ZM97.7788 124.987C96.8085 126.016 95.3137 126.49 93.9976 126.882C92.4371 127.346 90.8292 127.624 89.2197 127.852C87.6644 128.073 86.1212 128.27 84.5907 128.523C85.7484 128.538 86.9061 128.546 88.0612 128.567C89.3933 128.591 90.7247 128.62 92.0564 128.659C93.0263 128.687 94.1643 128.554 95.086 128.915C95.2521 128.98 95.4073 129.07 95.5428 129.179C96.3177 127.799 97.0603 126.4 97.7788 124.987ZM37.9344 115.359C38.947 115.037 39.8992 114.609 40.9728 114.72C41.2581 114.75 41.4625 115.028 41.3067 115.303C40.7979 116.2 39.9707 116.706 39.1563 117.306L39.0845 117.359C38.1932 118.023 37.2361 118.629 36.2668 119.174C34.5979 120.112 33.1023 117.427 34.7877 116.639C35.8019 116.164 36.8672 115.699 37.9344 115.359ZM56.1661 113.028C57.7154 113.13 59.2638 113.199 60.815 113.262C62.6118 113.335 62.0077 116.105 60.5067 115.544C59.0239 114.99 57.5409 114.444 56.0447 113.927C55.5892 113.77 55.6259 113.02 56.1372 113.027L56.1661 113.028ZM16.43 108.1C16.8315 108.072 17.2365 108.159 17.6386 108.198L18.0665 108.24C18.9485 108.328 19.7756 108.436 20.6167 108.796C22.1689 109.46 21.3352 111.959 19.7771 111.902C18.6255 111.86 17.6407 111.364 16.6683 110.787C15.8181 110.283 15.297 109.652 14.7229 108.86C14.5328 108.598 14.7977 108.304 15.0566 108.278C15.5127 108.231 15.9738 108.132 16.43 108.1ZM94.2329 102.995C93.9761 104.601 93.3386 106.105 92.3779 107.416C91.8952 108.074 91.0476 108.099 90.5692 107.416C89.8923 106.449 90.3097 105.341 90.8195 104.413L90.9704 104.141C91.1987 103.734 91.5494 103.139 91.95 102.728L91.9568 102.686C92.1715 101.005 94.4976 101.341 94.2329 102.995ZM31.5708 92.6909C31.9571 92.3424 32.6683 92.4471 32.7937 93.0143C32.9691 93.8086 33.0759 94.7036 32.961 95.5099C32.8988 95.9469 32.8754 96.4376 32.7039 96.8448C32.5195 97.2827 32.1647 97.6195 31.8305 97.9487C31.1633 98.6061 29.7568 98.3887 29.5781 97.353L29.5554 97.226C29.4655 96.7359 29.3505 96.2121 29.4836 95.7264C29.5841 95.3599 29.8086 94.9861 29.9944 94.6461L30.0336 94.5738C30.4057 93.8795 30.9858 93.2184 31.5708 92.6909ZM85.8601 94.3808L85.9998 94.3823C87.0779 94.4037 89.0488 94.6666 89.0593 96.0012C89.0618 96.3157 88.8292 96.6417 88.5175 96.7141C87.8731 96.8637 87.4566 96.4823 86.9974 96.0969C86.6218 95.7817 86.184 95.5301 85.7292 95.349C85.238 95.1532 85.2701 94.3799 85.8601 94.3808Z" fill="#1A1A1A"></path> <path fill-rule="evenodd" clip-rule="evenodd" d="M89.8515 46.2371C89.599 34.4334 86.6635 21.3659 76.6007 14.0717C75.9598 13.6065 74.9978 13.8318 74.4666 14.3631C74.0304 14.4484 73.6298 14.7131 73.3634 15.1997C67.413 26.0803 61.1489 36.7888 54.5741 47.3024C50.3526 54.1003 45.2246 60.9068 44.5481 69.1467C44.431 69.3024 43.3441 70.5318 43.9774 70.4422C44.2585 70.2949 44.5448 70.1738 44.8458 70.0843C45.6498 71.2585 47.5166 71.0739 47.9604 69.7486C49.499 69.7929 51.0217 70.1867 52.4876 70.6437C56.0832 71.7712 59.7375 72.8857 63.4069 73.7475C75.4954 76.9617 88.4847 72.8722 89.4506 58.7527C90.7481 56.9211 90.0461 48.7582 89.8515 46.2371V46.2371Z" fill="#D08B5B"></path> <path fill-rule="evenodd" clip-rule="evenodd" d="M98.6468 75.2495C96.936 67.2042 95.8387 59.0553 94.8566 50.8958C94.3813 46.9438 94.002 42.9813 93.5626 39.0263C93.1519 35.3415 92.6734 31.6448 91.7139 28.0577C90.8219 24.7245 89.5174 21.4244 87.5952 18.5465C85.7932 15.8486 83.5275 13.5368 80.9263 11.6066C75.7865 7.79276 69.2134 5.76341 62.8204 6.43635C61.8547 6.5385 60.8981 6.70223 59.9521 6.92154C60.2534 6.83291 60.5579 6.75015 60.8651 6.67819C60.9641 6.65431 60.9202 6.52077 60.8232 6.52964C34.8137 8.89711 28.6955 54.214 28.1393 63.3513C28.0958 64.062 28.0614 64.7708 28.036 65.4813C27.8409 67.0662 27.6955 68.6554 27.6265 70.249C27.5487 72.0876 27.5862 73.9383 27.7554 75.7708C27.9293 77.6497 28.1273 79.5756 28.9101 81.303C29.3897 82.3665 51.7597 80.9096 51.9906 79.6537C52.4584 77.1181 52.6983 74.5016 52.5515 71.9225C52.4825 70.6861 52.3549 69.4589 52.0911 68.2482C52.0191 67.9177 51.9426 67.2974 51.7494 66.8062C53.7898 62.9219 56.0343 59.1484 58.3448 55.4187C63.1533 47.6528 68.2658 40.031 72.1956 31.7603C74.1659 27.6161 76.1073 23.2151 77.0369 18.674L77.1869 18.7041C77.1689 18.7582 77.1809 18.8258 77.2348 18.8633C81.5064 21.821 84.3613 26.3033 86.2115 31.1027C88.3659 36.6904 89.4109 42.7243 89.261 48.7117C89.0227 58.2261 85.4228 69.9846 75.2377 72.9918C72.9138 73.6783 70.404 73.8721 68.023 73.3704C66.9 73.133 65.7994 72.7679 64.7859 72.2273C63.6614 71.6279 62.7378 70.7792 61.6839 70.0809C60.7197 69.4425 59.5817 70.6876 60.1365 71.6324C61.3614 73.7204 63.9972 74.9972 66.2612 75.625C68.6767 76.2965 71.2242 76.3282 73.6844 75.9016C73.8718 75.8699 74.0578 75.8338 74.2422 75.7948C74.2842 76.4137 74.5495 77.0297 74.9813 77.5299C75.1748 77.7552 75.4132 77.9502 75.68 78.114C75.7147 78.718 76.103 79.3247 76.7342 79.4571C80.1061 80.1599 94.1098 78.3168 97.4773 77.3118C98.3814 77.0417 98.8387 76.1539 98.6468 75.2495" fill="#1A1A1A"></path> <path fill-rule="evenodd" clip-rule="evenodd" d="M72.0557 65.6312C71.0478 65.2193 70.1485 64.5322 69.491 63.6544C69.2624 63.3493 69.2032 63.027 69.2511 62.7323C69.305 62.4009 69.5007 62.1006 69.7676 61.8991C70.0353 61.697 70.3702 61.5973 70.694 61.6482C70.9753 61.6923 71.2553 61.8466 71.4769 62.1667L71.5232 62.2307C71.9141 62.7604 72.4235 63.1951 73.0038 63.4753C73.5632 63.7454 74.1888 63.8714 74.8362 63.7981C76.0693 63.6586 76.9191 62.9905 77.8224 62.0833C77.9344 61.9687 78.0464 61.8506 78.159 61.7306C78.2301 61.6218 78.3288 61.5518 78.4383 61.5151C78.56 61.4744 78.6976 61.4767 78.8236 61.5208C78.9451 61.5633 79.0538 61.6438 79.1267 61.751C79.1959 61.8528 79.2352 61.9787 79.2224 62.1234C79.1398 63.0636 78.6491 63.9027 77.9522 64.5616C77.1782 65.2933 76.1521 65.7995 75.1862 65.9771C74.122 66.1727 73.0376 66.0325 72.0557 65.6312V65.6312ZM75.6882 51.127C76.8204 51.8164 78.5455 53.4242 77.3276 55.1335C75.8939 56.6406 73.8297 54.9126 72.8125 54.131C71.8693 53.5253 70.8096 55.0831 71.6847 55.7904C79.0349 61.2423 82.0178 51.3073 76.2609 50.3163C75.627 50.2071 75.3916 50.9137 75.6882 51.127ZM62.5165 44.785C62.6416 43.2293 65.0064 42.8761 65.2417 44.4154C65.4523 45.7944 65.2044 47.0611 64.5844 48.3026C63.992 49.4887 62.5031 48.9353 62.3905 47.8553C62.2395 46.4076 62.4387 45.7527 62.5165 44.785ZM80.5181 44.0963C80.8478 43.6637 81.3238 43.3684 81.8942 43.5352C83.6761 44.0569 83.1509 46.5914 82.5251 47.8251C82.185 48.4951 81.0859 48.6649 80.5892 48.0751C79.7795 47.1131 79.3918 45.1921 80.4211 44.2445C80.449 44.1956 80.48 44.1462 80.5181 44.0963ZM64.5593 37.978L64.8408 37.9287C65.7116 37.7778 66.7943 37.6328 67.4103 38.3342C67.737 38.7061 67.8494 39.3974 67.4103 39.7534C66.6378 40.3797 65.7838 40.137 64.8581 40.19C64.0953 40.2339 63.3621 40.3604 62.6273 40.5708C61.0152 41.0324 59.7016 41.8751 58.3248 42.8004C58.1441 42.9218 57.9597 42.6903 58.0459 42.521C58.8407 40.9614 60.381 39.6802 61.9238 38.8993C62.7472 38.4824 63.6483 38.1366 64.5593 37.978ZM78.8937 37.2793L79.1091 37.3235C81.4537 37.8145 84.4998 38.7953 85.61 41.1024C85.6523 41.4287 85.6076 41.4986 85.5713 41.5443L85.5592 41.5595C85.5292 41.5985 85.5053 41.6523 85.3642 41.6967C85.325 41.6873 85.2855 41.6774 85.2455 41.6669C84.7366 41.5333 84.3339 41.3492 83.9441 41.1582L83.5214 40.9496C83.0311 40.7087 82.5364 40.4766 82.0121 40.3053C80.8933 39.9397 79.7425 39.6821 78.5739 39.5446C78.3206 39.5148 78.0767 39.4292 77.8842 39.2824C77.7016 39.1431 77.5621 38.9502 77.4984 38.6938C77.416 38.3619 77.4397 38.1107 77.6174 37.8114C77.751 37.5865 77.9422 37.4307 78.1618 37.3412C78.3856 37.25 78.6404 37.2285 78.8937 37.2793Z" fill="#1A1A1A"></path> </g> <defs> <clipPath id="clip0"> <rect width="112" height="178" fill="white"></rect> </clipPath> </defs> </svg> 