<?xml version="1.0" encoding="UTF-8"?> <svg xmlns="http://www.w3.org/2000/svg" width="154" height="175" viewBox="0 0 154 175" fill="none"> <g clip-path="url(#clip0)"> <path fill-rule="evenodd" clip-rule="evenodd" d="M3.84396 102.192C5.98378 102.402 8.12359 102.612 10.2634 102.822C20.5116 103.606 30.7557 105.242 40.9254 106.224C41.1786 105.812 41.6742 105.88 41.9751 106.166C42.9899 106.077 44.1272 105.301 45.0464 106.108C45.0763 106.104 45.1061 106.099 45.1363 106.096C46.773 102.953 47.9043 99.6 49.0023 96.2426C49.7032 94.1785 50.6461 92.1803 52.3885 90.7944C55.3622 88.7287 62.1757 84.54 65.6675 84.716C65.7255 84.0904 66.0169 83.4456 66.4954 83.029C65.4407 81.2297 69.6578 80.0557 69.9553 80.2642C69.7646 74.2528 72.5904 69.0322 78.8213 67.835C84.4034 66.6711 92.343 66.4755 95.3452 72.3132C95.6752 72.276 99.0485 72.2584 99.3749 72.295C99.8824 71.6519 105.455 77.7464 103.171 79.8682C123.592 88.9079 135.203 87.8293 140.856 113.242C141.62 115.63 141.675 118.242 142.482 120.576C145.353 127.284 147.681 134.427 148.261 141.725C149.66 142.084 149.821 144.553 148.2 144.911C147.581 145.047 147.063 145.234 146.612 145.588C146.965 151.569 145.519 165.232 144.608 165.19C142.751 171.105 134.467 172.774 128.602 170.695C129.613 172.599 128.602 173.795 128.602 174.812C107.499 175.611 84.4243 175.151 63.3267 176.247C60.628 176.209 57.7895 176.91 55.1276 176.506C53.5043 176.117 53.5016 173.563 55.1482 173.247L47.9533 171.683C48.1141 171.622 44.9876 169.541 42.6245 165.653C40.425 161.302 41.922 156.051 40.9254 151.319C33.1413 150.682 25.2286 150.41 17.5298 149.091C16.48 152.233 11.936 148.475 10.4916 146.963C10.4934 146.96 10.4952 146.958 10.497 146.956C9.79794 146.764 9.23737 146.109 9.21862 145.332C8.72841 144.632 8.6255 143.644 9.09562 142.966C6.94095 130.525 3.65615 117.821 2.46887 105.263C2.04916 105.17 1.6539 104.986 1.31879 104.702L1.34594 104.675C0.778174 104.041 0.667765 102.948 1.61429 102.41C2.37782 101.975 3.01534 102.11 3.84396 102.192Z" fill="#EDB98A"></path> <path fill-rule="evenodd" clip-rule="evenodd" d="M85.2265 148.758L83.5782 149.807L70.0914 154.156L61.8495 155.206L55.1061 154.156V165.703L53.7574 176.5C54.3568 177.599 60.0512 177.599 70.8406 176.5C77.7186 175.799 102.856 175.458 108.579 175.309L108.903 175.3C115.629 175.106 122.272 175.106 128.834 175.3V171.251L110.102 161.954L93.3186 152.506L85.2265 148.758ZM94.7827 71.3694L93.5441 72.2949L96.2484 76.7412L83.0744 87.4047V95.9222L78.9036 99.8697L76.5196 95.9222L73.1604 91.4517L70.7731 84.2052L71.5859 79.4311L69.9513 79.277C69.9434 79.6032 69.9447 79.9325 69.9552 80.2641C69.6578 80.0555 65.4407 81.2296 66.4954 83.0289C66.0169 83.4455 65.7254 84.0903 65.6675 84.7159C62.1757 84.5399 55.3622 88.7286 52.3885 90.7943C50.6461 92.1802 49.7032 94.1784 49.0023 96.2425L48.8373 96.7461L48.667 97.263L48.4953 97.7795C47.547 100.619 46.523 103.433 45.1363 106.096C45.1061 106.099 45.0763 106.104 45.0464 106.108C44.1272 105.301 42.9898 106.077 41.9751 106.166C41.6812 105.886 41.2015 105.815 40.9434 106.196L40.9253 106.224L53.5686 108.716L61.9096 137.995L69.1733 132.094L73.0722 132.675L83.3685 136.391L95.3436 139.504L122.681 147.046H126.163L146.421 142.15L148.246 141.547C147.643 134.31 145.33 127.229 142.482 120.576C141.675 118.242 141.62 115.63 140.856 113.242C135.203 87.8292 123.592 88.9078 103.171 79.8681C105.455 77.7463 99.8824 71.6518 99.3749 72.2949L99.3429 72.2922L99.2738 72.2884L99.1847 72.2853C98.388 72.2622 95.6413 72.2797 95.3452 72.3131C95.1734 71.9791 94.9854 71.6648 94.7827 71.3694Z" fill="#44E8AD"></path> <path fill-rule="evenodd" clip-rule="evenodd" d="M1.82303 103.081L2.19963 105.181C2.28913 105.21 2.38019 105.235 2.47244 105.255C2.5908 106.507 2.73 107.761 2.88685 109.015L5.22169 122.037C5.62441 124.341 6.00671 126.65 6.38621 128.959L6.88911 131.44L7.20055 132.982C7.87288 136.321 8.52601 139.649 9.09918 142.959C9.01267 143.083 8.94557 143.219 8.89671 143.36L8.94082 143.547L8.97148 143.671L9.00286 143.794C9.45509 145.534 10.242 147.221 12.0964 147.733C13.4951 148.119 15.0299 148.154 16.4742 148.306L16.6344 148.323L41.9084 151.168C44.9623 151.511 48.0147 151.865 51.0669 152.223L53.7128 152.533C57.4007 152.961 61.1099 153.297 64.7435 154.071C64.877 154.099 64.9876 154.153 65.0778 154.223C64.3461 151.451 63.6457 148.683 63.0109 145.883C62.2964 142.732 61.6183 139.575 60.854 136.435C59.3144 130.11 57.5886 123.827 55.6992 117.597C55.3028 116.289 54.8971 114.984 54.4826 113.683L54.1917 112.773L53.9678 112.047C53.6214 110.942 53.1927 109.805 52.1768 109.195C50.9879 108.482 49.3667 108.363 48.0183 108.116L47.1053 107.945C45.7391 107.69 44.3713 107.444 43.0017 107.209C36.4448 106.08 29.8506 105.175 23.2322 104.495C16.3453 103.787 9.43432 103.327 2.51499 103.102L1.82303 103.081ZM64.5543 146.5L64.4898 146.505L65.4338 154.057C65.5847 153.951 65.7764 153.887 66.0103 153.887C69.107 153.896 72.0754 152.906 74.9466 151.817L75.3838 151.65L76.6028 151.181C77.8419 150.706 79.0877 150.242 80.3566 149.856L80.8696 149.702L81.1303 149.624C82.0911 149.344 83.1018 149.089 84.1012 149.025L84.2374 149.018L83.9464 148.865C83.9038 148.843 83.8665 148.818 83.8334 148.791C83.2833 148.831 82.7321 148.82 82.1519 148.716C81.0606 148.519 79.9995 148.139 79.0252 147.61L78.59 147.374L78.4119 147.28L78.2942 147.219L78.1772 147.159C77.3403 146.742 76.5402 146.481 75.4836 146.703C74.2841 146.955 73.233 147.602 72.1518 148.149L71.9599 148.245L71.8309 148.307L71.6993 148.369L71.5662 148.43C70.1041 149.088 67.7771 149.799 67.2165 147.809C66.9912 147.01 67.1676 146.262 67.5584 145.605C66.8302 145.542 65.5291 146.402 64.5543 146.5ZM28.1582 121.618L28.1406 121.708C27.9338 122.822 28.4523 123.887 29.2369 124.664C29.8805 125.301 31.0196 125.655 31.3422 126.572C31.5259 127.093 31.3305 127.587 30.9532 127.932L31.0401 127.975L31.1251 128.019L31.208 128.063L31.2889 128.107L31.3676 128.151C32.6495 128.888 33.6934 130.087 32.5373 131.534C31.2258 133.176 28.4854 133.23 26.5547 133.101L26.4246 133.092C24.5524 132.951 22.3347 132.322 21.3196 130.592C20.854 129.799 20.9052 128.839 21.5542 128.16C21.9458 127.75 22.6443 127.329 23.2847 127.28C23.2567 126.919 23.2997 126.57 23.4267 126.275C23.7012 125.639 24.4317 125.211 25.1363 125.195C25.0793 123.844 26.1607 122.511 26.9569 121.43L27.0382 121.32L27.1171 121.211C27.4824 120.702 28.2641 120.987 28.1582 121.618ZM27.0899 123.056L26.3644 125.775L26.3769 125.797C26.6324 126.283 25.9626 126.834 25.5653 126.426L25.5253 126.383C25.0537 125.896 24.3299 126.551 24.3209 127.069C24.308 127.8 24.783 128.364 25.349 128.737L25.3886 128.763L25.4929 128.828C25.9574 129.135 25.6058 129.777 25.0952 129.699C24.4634 129.602 23.9457 129.101 23.6265 128.475C23.2854 128.572 22.8973 128.561 22.5381 128.762C21.633 129.268 22.1535 130.154 22.7429 130.69L22.7669 130.712L22.8149 130.753C23.8962 131.676 25.3685 131.997 26.7563 132.065L26.8363 132.069C28.2382 132.129 30.0646 132.149 31.2661 131.324C32.0139 130.811 32.2304 130.082 31.5976 129.393C31.2397 129.003 30.8784 128.61 30.5065 128.23C29.9498 128.496 29.4526 128.388 28.8833 128.136C28.8103 128.104 28.8508 127.992 28.9223 127.992C29.2364 127.992 30.3889 127.408 30.4449 127.036C30.4967 126.691 29.8592 126.4 29.5491 126.233L29.5042 126.208L29.4652 126.186C29.1409 125.989 28.8357 125.76 28.5566 125.503C27.8485 124.851 27.3341 124.033 27.1095 123.137L27.0899 123.056Z" fill="white"></path> <path fill-rule="evenodd" clip-rule="evenodd" d="M94.9562 70.9571C94.3204 69.3581 92.171 69.9797 92.4106 71.6595C92.554 72.6657 93.1047 73.7285 93.5994 74.6104C94.0022 75.3282 94.4617 76.0288 95.0846 76.5669C93.9757 77.6022 92.8247 78.5997 91.6444 79.5468C90.3566 80.5802 89.0024 81.5327 87.6026 82.4082C86.3751 83.1759 85.0923 83.8561 83.9352 84.7322C82.8594 85.5466 81.8794 86.5261 81.3807 87.8048C80.8494 89.1665 81.0803 90.5727 81.4715 91.9334L81.5165 92.0873C81.9161 93.4354 82.608 95.0605 81.6486 96.3306C81.1603 96.9772 80.4503 97.4352 79.8372 97.9521C79.2923 98.4116 78.7809 98.9112 78.3118 99.4479C77.2891 100.618 76.4573 101.934 75.9323 103.401L75.8854 103.535C75.4355 104.833 75.1066 106.424 75.7146 107.699C75.889 108.064 76.4516 107.945 76.5493 107.59C76.7702 106.783 76.7586 105.939 76.9438 105.122C77.1366 104.271 77.4572 103.464 77.8761 102.701C78.6865 101.223 79.784 99.9617 81.0806 98.8949L81.4688 98.579C82.4803 97.7483 83.4097 96.867 83.615 95.4922C83.8347 94.0213 83.2458 92.6201 82.8671 91.2279C82.6032 90.2577 82.517 89.3276 82.8022 88.4508C83.1506 89.0199 83.6259 89.5601 84.0019 90.0419C84.7507 91.0017 85.5066 91.9558 86.2605 92.9116C87.0334 93.8917 87.7874 94.8873 88.5053 95.9086C88.8264 96.3656 89.1441 96.8252 89.4608 97.2853C89.6989 97.6311 90.031 97.9766 90.2905 98.3293C90.2274 98.5179 90.2322 98.7353 90.3465 98.8898C91.723 100.751 93.6811 96.8678 94.1918 95.8868C95.2318 93.8889 96.0058 91.7664 97.0492 89.769C98.1304 87.6983 99.3616 85.6829 100.734 83.7926C101.564 82.6491 102.494 81.5751 103.253 80.3954C105.042 82.0186 107.396 83.1067 109.558 84.0934C111.934 85.1773 114.402 86.0629 116.837 87.0032L117.557 87.2828C121.753 88.9218 126.052 90.7224 129.541 93.6335C133.64 97.0545 136.064 101.823 137.87 106.76C139.948 112.444 141.667 118.282 143.27 124.115C144.09 127.1 144.868 130.099 145.6 133.107C146.244 135.757 146.779 138.433 147.525 141.056C146.012 141.002 144.285 141.589 142.993 141.758C137.104 142.529 131.294 143.759 125.734 145.888C125.048 146.151 124.849 146.837 124.998 147.394C124.602 147.282 124.207 147.169 123.811 147.057C124.244 146.392 124.037 145.202 124.003 144.465L124.001 144.414C123.966 143.432 123.86 142.448 123.79 141.467C123.659 139.597 123.488 137.741 123.26 135.882L123.202 135.417C122.944 133.394 122.753 131.36 122.471 129.341L122.438 129.11C122.573 128.593 122.73 128.083 122.895 127.575C123.335 126.221 123.956 124.948 124.499 123.637C124.564 123.482 124.344 123.394 124.241 123.486C123.32 124.315 122.589 125.367 122.001 126.467C121.991 126.415 121.982 126.363 121.971 126.312L121.904 125.981C121.739 125.176 121.537 124.328 121.044 123.675C120.991 123.605 120.887 123.591 120.837 123.675C120.365 124.475 120.312 125.489 120.239 126.399C120.157 127.429 120.146 128.473 120.161 129.506C120.189 131.525 120.332 133.549 120.445 135.565C120.556 137.546 120.774 139.501 121.056 141.462L121.109 141.83C121.246 142.764 121.359 143.709 121.54 144.636L121.592 144.888C121.689 145.348 121.748 145.996 121.941 146.535C116.975 145.149 112.002 143.794 107.019 142.464C103.418 141.502 99.8125 140.554 96.2088 139.601C96.0186 139.258 95.7819 138.938 95.4864 138.651C94.5128 137.708 93.2225 137.287 92.0391 138.013C91.9429 138.072 91.9348 138.223 92.0391 138.28C92.2659 138.404 92.493 138.532 92.7162 138.664L90.5523 138.078C88.9349 137.639 87.2982 137.091 85.6428 136.785C82.5937 135.279 79.3144 134.19 76.1024 133.112L75.7239 132.984C74.0793 132.423 72.3782 131.795 70.6791 131.484C69.4351 131.256 67.975 131.531 67.4748 132.806C66.8415 133.224 66.2457 133.715 65.6707 134.198C65.255 134.546 64.8565 134.917 64.4513 135.278L64.3766 135.344C64.0454 135.631 63.783 135.824 63.7016 136.282C63.6597 136.518 63.8098 136.838 64.1013 136.807C64.9931 136.711 65.7182 135.677 66.323 135.059C66.7902 134.582 67.2612 134.088 67.6877 133.563C67.9363 133.699 68.2771 133.674 68.4353 133.375C69.2559 131.82 71.5039 132.897 72.7477 133.266L74.5294 133.794C75.4202 134.058 76.3107 134.323 77.1996 134.594C79.6428 135.336 82.0741 136.167 84.5394 136.849C84.3189 137.091 84.3493 137.523 84.7683 137.687C86.6981 138.445 88.8152 138.837 90.8201 139.357C92.0859 139.685 93.351 140.016 94.6156 140.348C94.8324 140.7 94.9884 141.097 95.054 141.56C95.2954 143.262 94.8299 145.226 94.3765 146.872L94.3082 147.118C93.9355 148.442 93.3872 150.064 92.2461 150.9C91.9675 151.104 91.6128 151.246 91.2553 151.278C89.0214 150.127 86.7877 148.977 84.5526 147.828C84.1386 147.615 83.756 147.903 83.6631 148.246C82.875 148.117 82.0887 147.913 81.3726 147.669C80.1693 147.26 79.2297 146.481 78.1016 145.941C75.9188 144.898 73.6898 146.179 71.7355 147.154L71.285 147.375C70.4087 147.801 68.5854 148.618 68.1649 147.454C67.7581 146.329 69.044 145.125 69.8745 144.619C70.8645 144.014 72.0171 143.691 73.1359 143.422C73.7747 143.268 74.4214 143.142 75.0719 143.051C75.8098 142.947 76.5719 142.963 77.2824 142.723C77.6354 142.604 77.6897 142.043 77.2824 141.95C76.1887 141.701 74.8834 141.973 73.7422 142.251L73.1457 142.398C71.9958 142.68 70.8349 143.034 69.7876 143.598C69.0261 144.007 68.2222 144.63 67.6972 145.392C67.2412 144.968 66.6736 144.982 66.0825 145.139L65.7616 145.228C65.2317 145.375 64.8022 145.477 64.2867 145.375C64.2177 144.999 64.1479 144.624 64.0731 144.248C63.3384 140.557 62.5326 136.88 61.6435 133.223C60.11 126.915 58.3354 120.676 56.3349 114.5L56.134 113.883C55.6726 112.471 55.3013 110.932 54.5574 109.634C53.8539 108.407 52.7267 107.701 51.3874 107.326C49.8676 106.902 48.2707 106.679 46.7203 106.392C46.3744 106.329 46.0277 106.268 45.6815 106.205C45.974 105.676 46.1924 105.076 46.3891 104.616L46.4236 104.536C46.8461 103.572 47.2257 102.591 47.5922 101.604L47.8664 100.862C48.5282 99.0764 49.2114 97.3196 50.1419 95.6491C51.1213 93.891 52.4207 92.4536 54.0404 91.264C57.3429 88.8383 61.3234 87.601 64.5266 85.0087C64.6578 84.9025 64.4895 84.7209 64.3563 84.7881C62.1935 85.8756 59.8586 86.6151 57.609 87.5004L57.1653 87.6756C55.3872 88.381 53.5815 89.1488 52.0425 90.2908C50.3266 91.5642 48.9753 93.1457 47.9596 95.0263C46.9585 96.8801 46.3182 98.955 45.612 100.935L45.4231 101.463C45.1382 102.254 44.844 103.043 44.5068 103.812C44.2392 104.424 43.7397 105.121 43.5127 105.82C42.8915 105.712 42.2705 105.604 41.6488 105.5C28.1819 103.25 14.5646 101.928 0.917073 101.541C0.383147 101.526 0.10697 102.036 0.185643 102.502C1.49536 110.252 2.65927 118.028 3.93631 125.784C4.49377 129.169 5.06232 132.551 5.6442 135.932C5.93896 137.645 6.27972 139.351 6.5589 141.067C6.78428 142.452 6.94791 143.848 7.33484 145.201C7.68189 146.415 8.21447 147.584 9.08916 148.51C10.032 149.508 11.348 149.991 12.6727 150.219C16.0356 150.798 19.4849 151.035 22.875 151.421L40.9244 153.476C40.6606 155.875 40.6409 158.236 40.762 160.663L40.8309 161.988C40.8873 163.054 40.9547 164.121 41.1077 165.176C41.2995 166.499 41.9043 167.62 42.7952 168.608C43.6132 169.515 44.607 170.29 45.5737 171.032C46.5772 171.802 47.614 172.546 48.7938 173.022L48.9469 173.083C49.9819 173.487 51.9235 174.114 53.3382 173.885C53.1533 174.812 52.7955 175.809 53.1127 176.726C53.2599 177.152 53.8166 177.365 54.1576 177.002C54.8333 176.284 54.8861 175.335 55.0461 174.398C55.2126 173.422 55.3562 172.444 55.4837 171.462C55.7303 169.565 55.9223 167.651 55.9809 165.738C56.0411 163.773 56.0179 161.806 55.9121 159.843C55.8577 158.835 55.7903 157.828 55.6625 156.826C55.6079 156.399 55.5522 155.972 55.4885 155.546C55.4652 155.391 55.4395 155.236 55.4118 155.082L57.0318 155.264C59.5159 155.542 62.0011 155.793 64.5027 155.832C64.799 155.836 65.0269 155.701 65.1759 155.504C65.3346 155.763 65.6109 155.948 66.0067 155.947C69.5002 155.934 72.7535 154.791 75.931 153.443C77.5326 152.764 79.1094 152.029 80.7134 151.355C82.2106 150.727 83.8112 150.278 85.2722 149.57L89.1115 151.585C89.1396 151.684 89.1757 151.778 89.2141 151.856C89.4641 152.367 89.9569 152.644 90.4603 152.852C90.9434 153.053 91.4438 153.116 91.9312 153.065C94.8429 154.592 97.7553 156.117 100.67 157.639L103.585 159.16C109.392 162.186 115.177 165.261 121.021 168.216L121.452 168.433C123.47 169.446 125.638 170.472 127.878 171.239C127.918 171.806 127.893 172.358 127.845 172.958L127.834 173.089C127.767 173.799 127.624 174.688 128.193 175.194C128.489 175.456 129.017 175.457 129.219 175.061C129.584 174.343 129.256 173.21 129.14 172.43C129.099 172.152 129.049 171.867 128.975 171.59C131.543 172.355 134.189 172.726 136.803 172.296C139.347 171.878 141.318 170.274 142.907 168.312C144.583 166.242 145.775 163.829 146.414 161.242C147.142 158.299 147.189 155.259 147.172 152.244C147.154 149.034 147.035 145.807 146.645 142.619C147.073 142.518 147.547 142.431 147.979 142.461C148.193 142.804 148.608 142.948 148.983 142.903C149.799 143.804 147.73 144.724 147.068 144.954C146.839 145.034 146.863 145.407 147.128 145.396L147.295 145.388C148.317 145.334 149.372 145.159 149.973 144.209C150.454 143.447 150.31 142.545 149.736 141.924C149.357 138.339 148.451 134.847 147.608 131.349C146.78 127.916 145.86 124.504 144.884 121.11L144.447 119.591C142.911 114.27 141.306 108.905 139.188 103.795C138.13 101.243 136.911 98.7382 135.259 96.5133C133.72 94.4392 131.902 92.6645 129.812 91.1487C125.917 88.3227 121.346 86.6151 116.855 84.9882L116.654 84.9154C114.326 84.073 112.005 83.2205 109.704 82.3077C107.669 81.5005 105.72 80.477 103.694 79.6576C103.76 79.5381 103.824 79.4173 103.885 79.295L103.922 79.3266C103.929 79.3316 103.935 79.3366 103.942 79.3412C104.146 79.4825 104.446 79.4131 104.613 79.2546C105.087 78.8071 104.927 78.3104 104.611 77.8463L104.569 77.7872C104.182 77.2448 103.837 76.6714 103.48 76.1094L103.257 75.7579C102.657 74.8189 102.027 73.8737 101.228 73.0976C100.858 72.738 100.453 72.469 100.023 72.2685C100.06 72.1908 99.7383 72.032 99.647 72.1119C98.2868 71.6138 96.7219 71.7182 95.239 71.8555M41.7978 153.575L43.6889 153.79C45.7695 154.027 47.8508 154.256 49.9325 154.483L54.4539 154.975C54.4655 155.233 54.4968 155.485 54.5025 155.68C54.532 156.684 54.554 157.689 54.5748 158.693C54.6167 160.707 54.5708 162.722 54.4383 164.732C54.3099 166.679 54.1408 168.627 53.878 170.561L53.8242 170.948L53.7931 171.151C53.5786 171.172 53.3679 171.274 53.1927 171.483C52.8103 171.94 51.4255 171.496 50.8847 171.304C49.9953 170.987 49.1578 170.452 48.385 169.915C47.6303 169.391 46.9508 168.78 46.2977 168.137L45.7634 167.608C45.2319 167.08 44.6998 166.517 44.3742 165.852C43.9326 164.95 43.8755 163.844 43.746 162.862C43.5866 161.654 43.3967 160.446 43.196 159.244M96.6972 140.897L96.8933 140.949C104.019 142.843 111.134 144.794 118.282 146.605C121.819 147.502 125.373 148.333 128.914 149.212L129.487 149.355C132.281 150.062 135.109 150.913 137.248 152.94C137.327 153.015 137.442 152.9 137.367 152.821C135.062 150.365 131.782 149.325 128.634 148.424C128.052 148.257 127.469 148.094 126.887 147.928C131.169 146.401 135.519 145.072 139.969 144.124C141.115 143.88 142.274 143.701 143.419 143.456C144.218 143.285 144.997 143.037 145.788 142.832L146.409 142.676L146.417 144.642C146.428 147.425 146.423 150.207 146.281 152.991L146.254 153.506C146.088 156.604 145.83 159.766 144.731 162.687C143.839 165.06 142.416 167.297 140.555 169.025C139.613 169.9 138.601 170.581 137.35 170.917C136.188 171.229 134.971 171.266 133.777 171.183C128.048 170.783 122.948 167.669 117.972 165.09C109.832 160.873 101.692 156.658 93.5441 152.457C93.7644 152.306 93.9718 152.132 94.1605 151.937C95.2531 150.808 95.8294 149.262 96.2079 147.765C96.6109 146.172 96.8518 144.464 96.8799 142.819M86.3297 154.085C86.2578 154.046 86.1745 154.094 86.1712 154.176C86.146 154.798 86.4899 155.413 86.7469 155.974L86.774 156.034C87.0862 156.728 87.428 157.414 87.7815 158.089C88.4881 159.437 89.2223 160.771 89.9887 162.086C91.5298 164.731 93.2423 167.265 95.2665 169.569C95.7237 170.089 96.4757 169.422 96.1823 168.862C94.7676 166.161 93.1185 163.611 91.421 161.083C90.5712 159.817 89.7219 158.551 88.8637 157.291C88.5057 156.765 88.1431 156.241 87.7707 155.725L87.5461 155.417M1.81944 103.088C8.96998 103.304 16.1121 103.771 23.2287 104.502C29.8471 105.182 36.4412 106.087 42.9982 107.216C44.3677 107.452 45.7356 107.697 47.1017 107.952L47.9212 108.106C49.2875 108.365 50.9567 108.472 52.1732 109.203C53.4558 109.973 53.8024 111.582 54.2292 112.909C54.7309 114.47 55.2199 116.035 55.6957 117.604C57.585 123.834 59.3109 130.117 60.8505 136.443C61.6147 139.582 62.2928 142.74 63.0073 145.891C63.6421 148.69 64.3425 151.458 65.0742 154.23C64.984 154.16 64.8734 154.106 64.7399 154.078C61.1063 153.304 57.3972 152.968 53.7093 152.541L53.3524 152.499C49.5373 152.05 45.7222 151.604 41.9049 151.175L16.6308 148.331C15.1402 148.163 13.5434 148.14 12.0928 147.74C9.62653 147.059 9.04845 144.3 8.63466 142.103L8.62217 142.036C7.37465 135.397 6.38157 128.7 5.21811 122.045M64.4862 146.512C65.4674 146.448 66.8104 145.548 67.5548 145.613C67.164 146.269 66.9876 147.017 67.2129 147.817C67.8397 150.041 70.6745 148.89 72.0399 148.211C73.1595 147.653 74.2405 146.971 75.48 146.71C76.8841 146.415 77.8354 146.973 79.0216 147.617C79.9959 148.146 81.057 148.526 82.1483 148.723C82.7285 148.827 83.2797 148.839 83.8298 148.798C83.8629 148.825 83.9002 148.85 83.9428 148.872L84.2338 149.025C82.9179 149.085 81.5776 149.492 80.353 149.864C79.0841 150.249 77.8383 150.714 76.5992 151.189L75.3802 151.658C72.3734 152.81 69.2608 153.904 66.0067 153.894C65.7728 153.894 65.5811 153.959 65.4302 154.064M69.9761 139.543C69.0067 139.425 68.1119 139.552 67.3373 140.183C66.4031 140.945 65.7755 142.208 64.4326 142.291C64.041 142.315 63.95 142.866 64.3392 142.981C65.3389 143.277 66.1482 142.736 66.8293 142.033L67.2872 141.554C67.9603 140.857 68.581 140.318 69.7231 140.359C70.9462 140.404 72.1714 140.687 73.3866 140.831C74.7631 140.994 76.1394 141.132 77.5203 141.252C77.5844 141.258 77.5953 141.157 77.5353 141.142L75.9886 140.757M70.9117 135.577L70.7518 135.561C69.3441 135.425 68.0567 135.419 66.7996 136.177L66.5584 136.323C65.425 137.012 64.1912 137.825 63.4824 138.941C63.3664 139.124 63.5581 139.339 63.7521 139.292C65.1145 138.965 66.1104 137.965 67.256 137.216C68.5418 136.376 69.8699 136.515 71.3359 136.645C72.7553 136.771 74.174 136.945 75.5795 137.182C76.9001 137.404 78.225 137.755 79.559 137.867L79.5587 137.864C79.7111 137.864 79.798 137.635 79.6426 137.557C78.2888 136.881 76.7209 136.561 75.2483 136.251M28.149 121.655C28.285 121.003 27.4845 120.701 27.1135 121.218L27.0346 121.327C26.233 122.426 25.0737 123.805 25.1327 125.202C24.4281 125.218 23.6976 125.646 23.4231 126.283C23.2961 126.577 23.2531 126.926 23.2811 127.287C22.6407 127.337 21.9422 127.757 21.5506 128.167C20.9016 128.846 20.8504 129.806 21.316 130.6C22.3311 132.329 24.5488 132.959 26.421 133.099L26.4877 133.104C28.4214 133.238 31.2078 133.202 32.5337 131.541C33.8127 129.94 32.3991 128.644 30.9496 127.94C31.3269 127.595 31.5223 127.1 31.3386 126.579C31.016 125.663 29.8769 125.309 29.2333 124.671C28.4487 123.895 27.9302 122.829 28.137 121.715M27.0862 123.063C27.2994 123.99 27.8233 124.838 28.5529 125.511C28.832 125.768 29.1372 125.996 29.4615 126.193L29.5005 126.216C29.7883 126.377 30.4957 126.68 30.4412 127.043C30.3852 127.416 29.2327 127.999 28.9186 127.999C28.8471 127.999 28.8067 128.111 28.8796 128.144C29.4489 128.395 29.9461 128.503 30.5028 128.237C30.8748 128.617 31.2361 129.01 31.5939 129.4C32.2267 130.09 32.0102 130.818 31.2624 131.331C30.0609 132.156 28.2345 132.136 26.8326 132.076C25.4216 132.016 23.9133 131.701 22.8112 130.761L22.7632 130.719C22.1642 130.186 21.617 129.282 22.5344 128.769C22.8936 128.568 23.2817 128.58 23.6228 128.482C23.942 129.108 24.4597 129.609 25.0915 129.706C25.6021 129.784 25.9537 129.142 25.4893 128.835L25.3849 128.77C24.8017 128.398 24.304 127.824 24.3172 127.077C24.3262 126.558 25.05 125.903 25.5216 126.39L25.5432 126.414C25.9377 126.859 26.6327 126.298 26.3732 125.805L26.3607 125.782M119.114 97.2734C119.116 97.162 118.959 97.1203 118.905 97.2167C117.989 98.8292 117.51 100.806 117.022 102.582C116.511 104.443 116.098 106.323 115.728 108.217C114.977 112.051 114.577 115.864 114.55 119.772C114.546 120.33 115.455 120.479 115.544 119.907C116.134 116.105 116.699 112.3 117.293 108.499C117.592 106.588 117.941 104.684 118.274 102.778M110.046 100.082C110.114 99.8596 109.791 99.7852 109.708 99.9886C107.87 104.504 107.247 109.62 108.427 114.384C108.608 115.112 109.674 114.797 109.538 114.077M86.3372 96.07C86.3465 95.9036 86.1306 95.8773 86.0492 95.9919C85.1782 97.2199 84.8169 98.8645 83.2889 99.4991C82.526 99.816 81.6675 99.7608 80.9935 100.296C80.5428 100.654 80.1973 101.219 80.5355 101.761C80.6446 101.936 80.95 102.024 81.0981 101.834C81.3141 101.556 81.4285 101.224 81.722 101.017C82.1361 100.723 82.6944 100.705 83.1692 100.567C83.7833 100.389 84.3245 100.077 84.7678 99.6143M71.7868 75.5883C71.6971 75.5426 71.6109 75.5718 71.5535 75.6495C71.4715 75.7602 71.4816 75.8679 71.582 75.9437C71.4479 76.218 71.2895 76.9051 71.2668 77.0051C71.1751 77.4106 71.0776 77.8137 70.9755 78.2165C70.7696 79.0288 70.5892 79.8474 70.3832 80.66C70.1647 81.5214 69.9044 82.3736 69.6147 83.2135C69.596 83.2679 69.5755 83.3234 69.5539 83.3797L69.5209 83.4648L69.5128 83.4519C69.4539 83.3588 69.3313 83.4239 69.3459 83.5223C69.3594 83.6119 69.3775 83.7012 69.3928 83.7908L69.3624 83.8712C69.1729 84.3815 69.0432 84.919 69.3908 85.3693C69.5209 85.5377 69.664 85.6374 69.8423 85.6671C70.1283 86.6103 70.487 87.536 70.8711 88.425L70.9837 88.6846C71.5486 89.9817 72.1512 91.2618 73.0507 92.3661C74.0328 93.5718 75.3838 94.3951 76.2393 95.7162C76.6373 96.3307 76.9142 96.9769 77.139 97.6709L77.2236 97.9343C77.3831 98.4252 77.5672 98.901 78.0273 99.1889C78.1742 99.2807 78.3942 99.2514 78.5126 99.1262C79.4562 98.1273 78.4684 96.2622 77.8994 95.2951C77.1084 93.9503 75.9637 93.09 74.8175 92.0754C73.5819 90.9817 72.7939 89.5188 72.0315 88.0775C71.5646 87.1946 71.1138 86.2926 70.6393 85.4057C71.1351 84.9672 71.2938 84.0961 71.4618 83.4906L71.4771 83.4363C71.7548 82.4667 71.9754 81.4719 72.1147 80.4727C72.2488 79.512 72.3048 78.5651 72.2693 77.599L72.2591 77.3529M69.9431 80.1608C70.0527 80.0105 69.8714 79.8403 69.7211 79.8717C68.8072 80.0608 67.9138 80.6143 67.0936 81.0619L67.006 81.1094C66.3513 81.4627 65.6926 81.8955 65.3488 82.5819C64.9749 83.3278 65.0057 84.187 65.0567 84.9977L65.0615 85.0735C65.124 86.0457 65.1341 87.0558 65.3396 88.0104C65.4448 88.499 65.8871 88.6367 66.2651 88.5212C66.715 89.9426 67.9787 90.9899 68.9018 92.1116C70.0788 93.5416 69.8573 95.4723 69.7342 97.1946C69.6845 97.8919 70.5512 98.0901 70.9977 97.7181L72.0264 96.863C72.1978 96.7203 72.3689 96.5773 72.5395 96.4337C72.6857 96.3106 72.8305 96.1866 72.9741 96.0611L73.1887 95.8715C73.2838 95.7863 73.7036 95.3171 73.8263 95.2976C74.1236 95.2503 74.8298 96.0343 75.0715 96.2802L75.1021 96.3109C75.5571 96.7573 75.9681 97.2376 76.351 97.747C76.4214 97.8406 76.5592 97.7629 76.5088 97.6548C76.1657 96.9194 75.7668 96.2163 75.2932 95.5582L75.1974 95.4272C74.8823 95.0022 74.4593 94.2518 73.903 94.1263C73.2238 93.9732 72.5456 94.6548 72.0514 95.0331L72.0201 95.0568C71.785 95.2333 71.5526 95.4129 71.3206 95.5938C71.3449 94.3115 71.183 93.0159 70.5214 91.9108C70.0549 91.1315 69.356 90.5543 68.7579 89.8846C68.0922 89.1389 67.7445 88.2223 67.1418 87.4457C67.0642 87.3458 66.9572 87.292 66.8413 87.2749C66.8182 86.6505 66.7263 86.02 66.6553 85.4024L66.6347 85.2175C66.5629 84.5464 66.3933 83.7268 66.7216 83.0983C67.0317 82.5047 67.7433 82.0857 68.2703 81.6829L68.7006 81.349M99.6012 73.065C99.8764 73.2243 100.134 73.4224 100.367 73.67C101.101 74.4496 101.626 75.4198 102.137 76.3532C102.412 76.8558 102.678 77.364 102.955 77.8655C103.076 78.0837 103.2 78.2995 103.325 78.5149C103.383 78.6142 103.556 78.8116 103.641 78.9332C103.546 79.0662 103.448 79.1973 103.348 79.3269C103.31 79.3763 100.675 82.2482 99.7568 83.3722C98.3506 85.0939 97.0936 86.9124 96.019 88.8588C94.9667 90.7649 94.1656 92.7831 93.1908 94.7261C92.7029 95.6988 92.158 96.6647 91.4635 97.5066C91.4366 97.5394 91.4083 97.5705 91.3809 97.6028C91.1158 96.8862 90.4366 96.1189 90.103 95.6784L90.0718 95.6368C89.3152 94.6161 88.5162 93.6263 87.6998 92.6532C86.9541 91.7647 86.1895 90.8953 85.4063 90.0403L85.1118 89.7203C84.5662 89.1306 83.8731 88.2481 83.0744 87.8267C83.16 87.674 83.259 87.523 83.3729 87.374C84.1213 86.3954 85.1791 85.6852 86.223 85.0444L86.8999 84.6323C89.4516 83.0762 91.9635 81.448 94.1788 79.4262C95.3508 78.3564 96.5066 77.2358 97.4918 75.988L97.8402 75.5468M95.3436 72.2947C96.5386 72.395 97.829 72.3712 98.9332 72.7608C97.9515 73.6895 97.0184 74.6922 96.0598 75.6365C95.9745 74.9978 95.8001 74.367 95.6523 73.7442" fill="black"></path> <rect width="15.7046" height="13.7222" transform="matrix(0.997446 -0.0714246 0.0718646 0.997414 18.7425 120.962)" fill="white"></rect> <g clip-path="url(#clip1)"> <path d="M30.9562 127.806C29.5353 128.877 29.2341 130.765 29.4199 132.433C28.7483 130.356 27.9462 128.359 25.5451 127.898C26.8094 127.494 28.031 126.621 28.2107 125.219C28.9934 126.35 30.4347 127.138 31.7851 127.349C31.4989 127.479 31.2061 127.616 30.9562 127.806ZM29.9821 133.572C30.2726 132.85 30.2088 133.401 30.2276 132.227C30.2275 132.231 30.2274 132.234 30.2286 132.24C30.2268 132.201 30.2251 132.161 30.2234 132.122C30.2232 132.131 30.2243 132.141 30.2241 132.15C30.2232 132.132 30.2223 132.112 30.2214 132.094C30.2214 132.097 30.2213 132.099 30.2213 132.102C30.2204 132.083 30.2195 132.064 30.2187 132.045C30.2185 132.05 30.2197 132.057 30.2196 132.062C29.9183 129.523 31.3523 128.046 33.7866 127.67C34.1376 127.548 34.2116 127.034 33.9151 126.814C33.4191 126.454 32.9209 127.112 32.3962 126.984L32.3975 126.985C30.8372 126.804 28.7734 125.849 28.517 124.141C28.5182 124.145 28.5182 124.148 28.5194 124.151C28.4189 123.594 28.355 123.029 28.235 122.475C28.1449 122.149 27.6543 122.183 27.6142 122.522C27.5874 122.786 27.6073 123.056 27.5988 123.32C27.8655 125.661 26.7517 126.882 24.4602 127.206C24.4798 127.203 24.4993 127.199 24.5202 127.196C23.7602 127.193 22.7187 127.856 23.915 128.279C25.4274 128.508 27.2415 128.785 27.9362 130.357C28.5249 131.847 28.2696 131.502 28.7862 133.019C28.8972 133.458 29.3655 134.124 29.9821 133.572Z" fill="#1A1A1A"></path> </g> <path fill-rule="evenodd" clip-rule="evenodd" d="M59.3895 25.9758C59.9681 22.473 58.0692 21.7462 59.3895 18.4164C62.3239 12.2466 70.3208 12.5124 76.1891 12.0381C82.7344 11.787 89.3591 12.6517 95.3931 15.2769C96.8343 15.9039 98.2206 16.6412 99.5495 17.479C100.699 18.2035 100.541 19.581 99.8161 20.3325C105.041 27.7361 102.053 37.674 106.221 45.4672C106.991 46.8603 108.01 48.1095 108.679 49.5589C109.697 51.7622 109.762 54.9192 107.455 56.3825C104.205 58.128 102.391 54.6719 100.794 59.6819C92.8195 77.1505 76.7853 78.1342 61.5639 69.0268C60.247 68.2937 58.9029 67.4652 57.9085 66.3136C55.6513 63.7716 55.9171 60.197 55.8672 57.0226C55.8393 55.1623 55.8347 53.3018 55.8528 51.4412C55.9239 43.9047 58.42 33.4503 59.3895 25.9758Z" fill="#EDB98A"></path> <path fill-rule="evenodd" clip-rule="evenodd" d="M91.8099 5.02467C82.6194 0.852859 72.1955 -0.729188 62.1703 0.308515C57.2221 0.819899 52.339 1.91704 47.6919 3.69923L47.2846 3.85675C46.1374 4.29858 44.9008 4.73713 44.0291 5.63649C43.0144 6.68169 42.7299 8.26224 43.4552 9.55337C44.0186 10.5566 45.0316 11.2762 46.1121 11.6603C45.7314 11.9722 45.3703 12.3201 45.0316 12.7085C44.4607 13.3593 44.4172 14.2874 45.0316 14.9293C46.2155 16.1665 47.7515 17.0616 49.4058 17.4906C49.22 18.3888 49.3204 19.3831 49.719 20.2783C50.8628 22.8481 54.0849 23.1544 56.5643 23.0018L56.6392 22.997L56.7771 24.5761C56.8505 25.4173 57.354 26.0696 58.2082 26.1986C58.2382 26.2031 58.2683 26.2061 58.2981 26.209C56.9464 31.1007 56.1297 36.1436 55.376 41.1568C54.9822 43.7737 54.6296 46.3967 54.2921 49.0214L54.1802 49.8963C53.8205 52.726 53.3709 55.5842 53.2151 58.4349C53.0757 61.0217 53.5688 63.4914 55.1617 65.5789C56.5913 67.4503 58.5409 68.8524 60.6373 69.8931C65.3742 72.2458 70.3598 73.9974 75.5987 74.8102L75.948 74.864C77.9703 75.1729 80.0538 75.4332 82.0543 74.8732C83.812 74.3813 85.6553 73.1127 85.2582 71.0748C85.1248 70.3865 84.1628 70.3565 83.8331 70.8888L83.757 71.0108C83.3617 71.6385 82.9284 72.2219 82.2385 72.5457C81.4309 72.9268 80.4944 73.0331 79.6117 73.0437C77.1466 73.0722 74.5797 72.4574 72.206 71.8411C67.7733 70.6895 63.2208 68.8119 59.5898 65.9672C58.0449 64.7586 56.8041 63.247 56.3665 61.3021C55.8255 58.9043 56.3231 56.283 56.5688 53.8732C57.0746 48.9007 57.6765 43.9375 58.3115 38.9797L58.439 37.9882C58.9738 33.8434 59.5358 29.6971 59.8026 25.5283C59.9135 25.3768 59.9885 25.2044 60.0184 25.0154L60.0602 24.744V24.744C60.0964 24.5116 60.1023 24.2987 60.0769 24.1022C60.0754 23.3494 60.0544 22.6011 60.0109 21.8482C60.0036 21.7134 59.9974 21.5784 59.993 21.445C60.7752 21.6174 61.5634 21.7569 62.3546 21.8753C67.9172 22.7136 73.5666 22.9235 79.1742 22.5067C81.9719 22.2981 84.7485 21.9398 87.5165 21.4915C88.9252 21.2635 90.3292 21.0116 91.7288 20.7297C92.7404 20.5272 93.7309 20.2528 94.7259 19.9949C95.7524 21.49 96.3069 23.3299 96.199 25.1369C96.0776 27.1988 94.7049 29.0688 95.09 31.1757C95.4515 33.1475 97.1396 33.7589 98.8063 34.2472L99.5152 34.4521C100.06 34.6115 100.456 34.7652 100.555 35.421C100.725 36.5472 100.516 37.8143 100.473 38.9465C100.42 40.2856 100.352 41.6247 100.32 42.9638C100.303 43.6566 100.277 44.3524 100.278 45.0452C100.279 45.5371 100.353 45.873 100.543 46.1907C100.396 46.3753 100.265 46.5748 100.148 46.7862C100.11 46.8552 100.203 46.9285 100.258 46.8717C100.407 46.7172 100.564 46.5778 100.731 46.4532C100.814 46.5568 100.912 46.6618 101.026 46.7742L101.035 46.7622V46.7622C101.391 47.1176 101.958 47.1521 102.4 46.7742L102.516 46.6736C102.84 46.3897 103.062 46.1533 103.152 45.684C103.157 45.66 103.161 45.6361 103.164 45.6121C103.987 45.5836 104.823 45.7784 105.563 46.1879C106.737 46.8372 107.562 47.7624 108.051 48.9051C107.856 49.1331 107.628 49.337 107.363 49.5079C107.326 49.5334 107.359 49.5889 107.399 49.5694C107.67 49.442 107.913 49.2845 108.13 49.1001C108.306 49.5499 108.428 50.0328 108.503 50.5441C108.767 52.3496 108.297 54.5555 106.666 55.5842C105.96 56.0296 105.154 56.271 104.318 56.274C103.911 56.2754 103.558 56.2065 103.163 56.1091C102.894 56.0431 102.628 55.9471 102.347 55.9471C102.108 55.9471 101.886 56.0071 101.681 56.1271L101.738 56.132C101.876 56.145 101.849 56.1509 101.657 56.1509C101.057 56.1765 100.714 56.7854 100.99 57.3147L101.026 57.3965C101.034 57.413 101.04 57.4267 101.045 57.4375L101.067 57.5779C101.069 57.5913 101.071 57.605 101.074 57.6191L101.082 57.6476C101.084 57.6521 101.085 57.6566 101.087 57.6611L100.188 59.033C99.086 60.7112 97.9592 62.3829 96.677 63.9158C95.7779 64.991 94.8248 66.0452 93.8178 67.0214C92.9127 67.8987 91.8277 68.3216 90.8028 69.0114C90.2556 69.3773 90.0954 70.1435 90.5928 70.6369C92.0525 72.087 94.119 70.9353 95.3163 69.7567C96.4492 68.6395 97.4278 67.2959 98.2714 65.9507C99.7685 63.5589 100.96 61.0157 101.481 58.2549C101.699 58.4544 101.976 58.5789 102.256 58.6763C102.818 58.8713 103.437 58.9522 104.03 58.9732C105.168 59.0107 106.307 58.7348 107.33 58.2459C111.494 56.259 112.106 50.3087 109.56 46.7997C109.903 45.8035 110.095 44.7225 110.303 43.8007L110.398 43.3886C111.451 38.786 112.158 33.9402 110.291 29.4302C110.051 28.8484 109.782 28.2815 109.462 27.7387C109.206 27.3023 108.766 26.8374 108.644 26.3411C108.375 25.2509 110.039 24.1052 110.525 23.24C111.096 22.2247 111.177 21.0266 110.399 20.0982C110.3 19.9814 110.192 19.8733 110.075 19.7789C110.813 18.4413 110.847 16.7588 109.876 15.4392C109.238 14.5694 108.264 13.9606 107.2 13.7762C106.549 13.6637 105.767 13.7057 105.052 13.9066C101.138 10.2702 96.6725 7.23204 91.8099 5.02467ZM106.84 50.5261C105.795 49.6038 104.641 49.121 103.218 49.2424C101.787 49.3652 100.063 49.9577 99.2229 51.1859C98.5589 52.1561 99.9121 53.5792 100.886 52.8504C101.773 52.1861 102.365 51.4363 103.467 51.0794C104.456 50.76 105.68 50.5546 106.716 50.7375C106.829 50.757 106.943 50.616 106.84 50.5261Z" fill="black"></path> <path fill-rule="evenodd" clip-rule="evenodd" d="M83.578 51.2848C79.6055 51.2848 76.3851 48.4651 76.3851 44.9867C76.3851 41.5084 79.6055 38.6887 83.578 38.6887C87.5506 38.6887 91.8498 41.3941 91.8498 44.8724C91.8498 46.3482 90.6878 48.9273 89.7168 50.0009C88.3993 51.4576 85.865 51.2848 83.578 51.2848Z" fill="white"></path> <path fill-rule="evenodd" clip-rule="evenodd" d="M66.4564 50.0794C63.4154 50.0794 60.9502 47.5295 60.9502 44.3841C60.9502 41.2386 63.4154 38.6887 66.4564 38.6887C69.4975 38.6887 72.7886 41.1352 72.7886 44.2806C72.7886 45.6153 71.8991 47.9475 71.1557 48.9184C70.1472 50.2357 68.2071 50.0794 66.4564 50.0794Z" fill="white"></path> <path fill-rule="evenodd" clip-rule="evenodd" d="M83.6784 55.1969C83.6469 55.1678 83.5972 55.1576 83.5592 55.1815C82.9108 55.5917 82.8341 56.9714 82.8268 57.7683C82.5585 57.8382 82.2936 57.9176 82.043 57.9731C81.511 58.0909 80.976 58.1937 80.4421 58.302L80.0419 58.3846C78.7043 58.6667 77.3417 58.8754 75.9786 58.9799C74.6557 59.0813 73.2945 59.1183 71.9753 58.9478C71.4089 58.8745 70.8457 58.7521 70.2983 58.5888C69.6512 58.3957 69.1359 58.0755 68.5341 57.7951C67.0274 57.0929 65.7648 59.1507 67.2148 60.0537C68.4594 60.8285 70.1576 61.1079 71.5944 61.2279C73.0629 61.3504 74.5258 61.2159 75.9767 60.9834C77.5452 60.732 79.0815 60.3458 80.5691 59.7859C81.1981 59.5492 81.8068 59.2622 82.4011 58.9484L82.5629 58.8622C82.6616 58.8091 82.7646 58.7553 82.8681 58.7007C82.9795 59.6944 83.3003 60.6543 83.688 61.577L83.6971 61.5608C83.9091 62.2886 84.6752 62.7389 85.4374 62.4174C86.3319 62.0404 86.3999 61.0504 85.8794 60.3477L85.8545 60.3149C85.2425 59.5271 84.8591 58.5497 84.5258 57.618C84.3548 57.1404 84.1966 56.6513 84.0593 56.1627C83.9599 55.8093 83.9564 55.4538 83.6784 55.1969ZM60.6261 47.2836C61.1563 48.8871 62.3128 50.1219 63.9237 50.6648C65.5202 51.203 67.2959 51.0068 68.9279 50.7159C69.2848 50.6522 69.6467 50.5819 70.0079 50.5C69.7123 50.6832 69.4512 50.9411 69.2013 51.2138C68.8319 51.617 68.4968 52.0419 68.3952 52.5465C68.2943 53.0472 68.4532 53.4282 68.743 53.7157C69.1888 54.158 69.9079 54.3962 70.5169 54.5278C71.8809 54.8228 73.2471 54.7769 74.6043 54.4746C74.9509 54.3974 75.1859 54.2114 75.3178 53.9689C75.478 53.6743 75.4911 53.3079 75.3992 52.9742C75.3073 52.6408 75.1087 52.3333 74.8206 52.1631C74.5834 52.0231 74.2867 51.9846 73.9499 52.0967C73.274 52.3218 72.603 52.4709 71.8891 52.4881C71.587 52.4951 71.2828 52.4862 70.9811 52.4584C70.8105 52.4427 70.6403 52.421 70.471 52.3938C70.5707 52.261 70.6675 52.1257 70.7622 51.989C70.874 51.8275 70.9829 51.6637 71.0868 51.4974C71.3875 51.0156 71.6378 50.5203 71.8578 49.9976C71.9283 49.8301 71.9938 49.6619 72.0566 49.4932C72.0656 49.4689 72.0746 49.4445 72.0836 49.4201C72.103 49.4039 72.1223 49.3875 72.1413 49.371C72.5716 48.9986 72.9323 48.5397 73.1875 47.9714C73.8783 46.432 73.7658 44.5212 73.3466 42.9227C73.0107 41.6415 72.2692 40.4565 71.2896 39.6514C71.1185 39.3698 71.0056 39.1989 70.8672 39.0551C70.3042 38.4689 69.5186 38.0736 68.752 37.8332C67.0397 37.2959 65.1749 37.6814 63.7234 38.7044C62.3832 39.6489 61.334 41.0655 60.7671 42.6411C60.2302 44.1332 60.1254 45.7698 60.6261 47.2836ZM83.9493 37.5385C81.9129 37.5211 79.8411 38.1227 78.1886 39.3267C76.6077 40.4788 75.3666 42.1797 75.3681 44.2057C75.3696 46.1783 76.4234 48.1178 77.5921 49.6451C78.9039 51.3597 80.6182 52.1864 82.7737 52.2054C83.8941 52.2154 85.0227 52.1161 86.1351 51.9798L86.7319 51.9045C87.5538 51.7984 88.3842 51.6728 89.1631 51.3903C92.8711 50.0444 92.9859 45.1878 91.6126 42.0833C90.5523 39.6864 87.8685 37.349 85.1925 37.6295C84.7892 37.573 84.3752 37.5423 83.9493 37.5385ZM80.51 39.8223C83.06 38.677 86.1584 39.0199 88.632 40.2422C89.6119 41.3119 90.3281 42.6602 90.6179 43.8979C90.9273 45.2191 90.8821 46.6423 90.4168 47.9229C89.8487 49.4862 88.4498 49.8733 86.9408 50.1136L86.3549 50.2056L86.1091 50.2429C84.6264 50.4642 83.0053 50.6364 81.5804 50.3593C79.9923 50.0503 78.9838 48.7666 78.19 47.4503L78.1529 47.3886C77.3286 46.0095 76.6385 44.3323 77.3299 42.7521C77.9178 41.409 79.2019 40.4098 80.51 39.8223ZM65.4587 40.2216C66.3338 39.7363 67.332 39.6482 68.277 39.973C68.6836 40.1127 69.0349 40.3391 69.3755 40.593L69.5113 40.6959C69.9302 41.0176 70.3215 41.1806 70.6357 41.6152L70.6763 41.6734C70.8348 41.9103 71.1122 42.0051 71.3649 41.9736C71.6593 42.7859 71.7809 43.6643 71.7833 44.5291L71.7831 44.6437L71.7816 44.7606C71.7627 45.7828 71.5845 47.0333 70.7807 47.7183C70.0476 48.3431 68.9376 48.4931 67.9466 48.58L67.1828 48.6438L66.9798 48.6591C65.9353 48.7318 64.7907 48.707 63.9152 48.0883C63.1528 47.5493 62.7931 46.6346 62.6999 45.7314C62.4795 43.5978 63.5587 41.275 65.4587 40.2216ZM84.5078 40.4187C83.1035 39.7013 81.4166 39.8811 80.2271 40.7802C80.3327 40.8009 80.4367 40.8273 80.5404 40.8793C80.8103 41.0147 80.9778 41.2858 81.0417 41.5744C81.1136 41.9005 80.9447 42.2093 80.623 42.3121C80.3431 42.4015 80.0111 42.4424 79.7511 42.2722C79.6149 42.1832 79.5198 42.0657 79.4573 41.9179L79.4484 41.8962L79.4374 41.8802L79.4333 41.8727C79.4323 41.8699 79.4372 41.8753 79.445 41.8875C79.437 41.869 79.4297 41.8506 79.4224 41.8318C79.4114 41.8095 79.4009 41.787 79.3924 41.7637C79.3773 41.7507 79.3635 41.7362 79.3495 41.7216C79.1334 42.0544 78.9638 42.4301 78.8561 42.8482C78.1646 45.5316 80.9999 48.3164 83.5328 48.595C84.4901 48.7003 85.363 48.4722 86.0874 48.0226C86.0808 48.0138 86.0734 48.0058 86.0674 47.9965C85.7764 48.0489 85.4291 47.9186 85.3234 47.5938C85.0538 46.7653 85.3303 45.7961 86.2324 45.5255C86.813 45.3512 87.407 45.5438 87.8219 45.9408C88.1357 45.1723 88.248 44.3071 88.0995 43.4405C87.89 42.2179 87.153 41.1162 86.006 40.6076C85.4475 40.3597 84.9662 40.3077 84.5078 40.4187ZM69.7193 42.0743L69.6766 42.0069C69.2426 41.3387 68.4131 40.5189 67.5535 40.7443C67.4327 40.776 67.3143 40.827 67.2076 40.8931C66.7353 40.8289 66.2408 40.9363 65.8347 41.1862L65.8457 41.2143C65.8475 41.219 65.849 41.2237 65.8502 41.2287C65.8873 41.3912 65.8657 41.5415 65.7899 41.6908C65.7076 41.8526 65.5903 42.006 65.4314 42.0989C65.3225 42.1624 65.1943 42.1959 65.0688 42.1933C64.8846 42.19 64.7225 42.1089 64.5894 41.985C64.517 41.9179 64.4665 41.8193 64.4386 41.718C64.373 41.781 64.3093 41.8511 64.2486 41.9308C63.2519 43.2422 63.3897 45.3497 64.559 46.5187C64.6062 46.5658 64.6564 46.6084 64.706 46.6519C65.1807 47.3058 65.9124 47.7497 66.7913 47.8395C67.605 47.9227 68.4187 47.6819 69.0427 47.1883C68.9925 47.1616 68.9456 47.1269 68.9052 47.081C68.7986 46.9603 68.7109 46.8413 68.6462 46.6939C68.6299 46.6568 68.6142 46.6194 68.5994 46.5817L68.5777 46.5249C68.574 46.5144 68.5408 46.4185 68.5496 46.4354L68.5516 46.4393L68.5398 46.4116C68.4282 46.1327 68.4733 45.8138 68.7383 45.6388L68.7676 45.6207C68.8542 45.5701 68.9615 45.5463 69.0701 45.546C69.3408 45.2144 69.7436 45.1384 70.1217 45.2353L70.1349 45.1282C70.1369 45.1104 70.1387 45.0925 70.1399 45.0745C70.4329 44.1027 70.2916 42.9983 69.7193 42.0743ZM82.7259 32.2898L82.6286 32.2747C81.8931 32.1683 81.393 32.2908 80.9148 32.9198C80.6869 33.2195 80.7571 33.6722 80.9148 33.9786C81.424 34.9684 82.8248 34.7637 83.7683 34.9603C84.6894 35.1521 85.6083 35.4132 86.4703 35.7932C87.3498 36.1809 88.1753 36.6396 88.9803 37.1634C89.7085 37.6374 90.3689 38.3498 91.2007 38.6256C91.2382 38.6381 91.2833 38.6045 91.2809 38.5647C91.2217 37.6181 90.4315 36.7491 89.8195 36.0749C89.1116 35.2953 88.2507 34.6031 87.3541 34.0528C86.4289 33.4851 85.4288 33.0177 84.3933 32.6917C83.848 32.52 83.2901 32.3835 82.7259 32.2898ZM71.5205 33.5751C70.5944 32.22 68.2922 32.4799 66.9338 32.842C65.2306 33.2958 63.385 34.2136 62.1906 35.5422C61.1208 36.7324 62.7214 38.2787 63.9244 37.2772L64.2455 37.0108L64.451 36.8419C65.3745 36.0871 66.2891 35.404 67.4145 34.9007C68.7341 34.311 70.0713 34.0237 71.4659 33.7094C71.5208 33.6971 71.553 33.6227 71.5205 33.5751Z" fill="black"></path> </g> <defs> <clipPath id="clip0"> <rect width="153" height="175" fill="white" transform="matrix(-1 0 0 1 153.11 0)"></rect> </clipPath> <clipPath id="clip1"> <rect width="10.7108" height="11.6502" fill="white" transform="matrix(-0.989384 -0.145669 -0.145957 0.98924 34.8637 123.111)"></rect> </clipPath> </defs> </svg> 