<?xml version="1.0" encoding="UTF-8"?> <svg xmlns="http://www.w3.org/2000/svg" width="120" height="137" viewBox="0 0 120 137" fill="none"> <g clip-path="url(#clip0)"> <path fill-rule="evenodd" clip-rule="evenodd" d="M64.9511 51.9683C61.4412 52.1412 55.9762 53.6429 55.703 54.6027C55.2763 56.1014 56.1931 61.7202 54.6597 64.7467C54.006 66.0368 51.5238 65.9212 50.562 66.3413C47.344 67.7471 37.8173 70.4133 35.8531 73.7706C35.0662 75.1156 30.2301 91.8044 27.6604 100.319C27.3707 101.278 27.0434 102.166 26.6877 102.988L26.557 102.35C25.5092 97.2036 24.9854 94.0883 24.9854 93.0038C24.9854 91.3092 26.3398 84.1595 24.9854 82.3413C23.6445 80.5412 20.413 79.0695 18.9592 79.0402L18.9157 79.0398C17.9611 79.0398 17.1328 78.742 16.4308 78.1463L15.4016 77.6298C10.1656 75.0075 7.10647 73.5692 6.22427 73.3146C4.81651 72.9084 2.42066 73.7738 3.61859 75.0729C4.41721 75.939 6.42404 77.4712 9.63909 79.6693L10.8513 80.6306L10.7049 80.707C9.13817 81.5302 8.21697 82.223 7.94127 82.7855C7.65709 83.3654 7.79345 84.0513 8.35036 84.8432L8.26588 84.9254C7.56163 85.6152 7.20951 86.0779 7.20951 86.3134V87.4643C6.5089 88.4883 6.33375 89.3423 6.68405 90.0263C7.03436 90.7103 7.58979 91.303 8.35036 91.8044C8.91079 93.2757 9.57818 94.3229 10.3526 94.9459C11.1269 95.5689 12.4653 96.0876 14.3675 96.5018L16.089 100.61L17.4838 106.381L18.1866 112.82L17.9826 112.968C17.0367 113.655 16.4308 114.165 16.4308 114.692C16.4308 115.512 20.2473 134.809 26.1851 135.673C27.4692 135.86 34.1291 134.943 36.3158 133.168L36.2835 133.36C35.769 136.461 35.8778 138.072 36.61 138.192C45.6085 139.664 71.1647 140.119 113.279 139.557C113.529 117.248 112.396 102.391 109.88 94.9859C103.444 76.0456 96.3475 69.5765 93.865 69.0224C91.6903 68.5371 84.1495 65.5417 82.0416 64.7467C80.6656 64.2277 80.3708 62.6718 78.8028 62.6718L78.676 62.6724C77.1596 62.6876 75.8149 62.9583 75.0594 62.1799C73.0767 60.1373 73.6309 57.3099 72.8084 54.6027C72.3552 53.1111 69.2582 51.7562 64.9511 51.9683Z" fill="#D08B5B"></path> <path d="M78.8028 62.6716L78.676 62.6723C78.3012 62.676 77.9369 62.6954 77.5894 62.7107L78.3216 65.2006L78.3375 65.4621C78.8129 74.0469 74.6007 78.1564 65.701 77.7909C56.8013 77.4253 52.3745 74.6159 52.4206 69.3626L52.4234 69.2027L52.4233 65.9335L52.2833 65.9603C51.6078 66.0865 50.9568 66.1687 50.562 66.3412C47.344 67.747 37.8173 70.4132 35.8531 73.7704C35.0661 75.1154 30.2301 91.8042 27.6603 100.318C27.5664 100.63 27.4686 100.933 27.3671 101.229L27.3671 102.912L27.395 103.014C28.2957 106.376 27.0965 109.125 23.7976 111.26C21.4593 112.774 19.0578 113.756 16.5932 114.208C16.4874 114.371 16.4308 114.531 16.4308 114.692C16.4308 115.512 20.2472 134.809 26.185 135.673C27.4692 135.859 34.129 134.943 36.3157 133.168L36.2834 133.36L36.2533 133.544C35.7735 136.525 35.8924 138.074 36.61 138.192C45.6084 139.664 71.1647 140.119 113.279 139.556C113.529 117.248 112.396 102.391 109.88 94.9857C103.444 76.0454 96.3475 69.5763 93.865 69.0223C91.6903 68.5369 84.1495 65.5415 82.0416 64.7465C80.6656 64.2276 80.3708 62.6716 78.8028 62.6716Z" fill="white"></path> <path fill-rule="evenodd" clip-rule="evenodd" d="M74.5939 57.3167C74.3879 56.9094 73.841 56.9621 73.4802 57.147C72.3979 57.9366 73.5303 59.4672 73.8297 60.4309C74.5998 62.3 75.9374 64.1266 77.7839 65.0002C77.6309 66.8582 77.4575 68.7122 77.3936 70.576C75.0327 73.4986 71.0524 74.5653 67.519 75.3856C61.9695 76.9173 55.7063 73.7791 53.8333 68.3044C55.965 67.0956 56.6549 63.9305 56.0189 61.7223C55.9636 61.5672 55.7226 61.4987 55.6369 61.6718C55.0532 62.8701 55.131 64.3319 54.4674 65.5157C48.0978 66.1243 39.8773 68.5229 35.7044 73.6639C33.8551 76.236 33.1226 79.5812 32.2118 82.5621C30.2684 88.7076 28.7199 94.9774 26.814 101.129L26.5893 99.9652C25.9736 96.7588 25.4141 93.5089 25.8299 90.2481L25.8374 90.092C25.9732 87.4974 26.7869 82.6758 24.7707 80.9241C22.9469 79.5332 20.305 78.4155 18.0164 79.0567C13.9438 77.2479 10.4286 74.2021 6.09114 73.0158C4.7562 72.7416 2.83572 73.0663 3.15126 74.8737C4.02572 78.0348 7.68777 79.2618 10.1911 80.8919C8.58644 81.3258 6.63018 83.2735 7.88391 84.9718C7.89476 85.0019 7.90439 85.0247 7.91403 85.0427C6.89728 85.4925 6.75488 86.6228 7.00439 87.592C7.0297 87.8481 7.09716 87.628 6.94644 87.8601C5.79921 88.9399 6.30632 91.95 8.03451 92.0517C7.92138 93.478 8.83934 94.8632 10.002 95.6412C11.2551 96.4793 13.067 96.5154 14.1045 97.6625C16.5403 101.949 17.3805 107.009 17.6461 111.918C16.0404 112.518 14.5998 114.312 16.0586 115.833C16.0874 115.837 16.1162 115.84 16.1454 115.842C16.991 118.095 17.3175 120.496 17.7648 122.848C18.4528 126.862 20.246 130.547 22.5357 133.89C25.1837 138.316 32.304 137.615 35.8912 134.758C35.8768 135.508 35.7531 136.253 35.9936 136.977C36.3485 137.758 37.2139 137.421 37.2996 136.651C39.1959 137.715 39.6425 134.202 37.5345 134.759C37.6967 132.22 37.7907 129.676 37.8669 127.132C40.2534 127.903 40.3563 123.952 37.9152 124.742L37.9181 123.649C37.9361 115.273 37.8434 106.868 36.7357 98.5572C36.6333 97.9355 36.4598 97.3343 36.3586 96.7162C36.3478 96.6523 36.2478 96.6705 36.2474 96.7317C36.076 108.367 36.8379 120.027 36.043 131.666C35.3811 131.867 35.1173 132.625 34.6273 133.066C33.5395 134.069 32.058 134.557 30.6093 134.727C26.5527 135.294 24.8013 134.058 22.9948 130.539C23.8095 131.082 24.9106 130.123 24.4139 129.263L24.3984 129.237C23.8826 128.325 22.4261 128.871 22.6105 129.892C20.7943 126.989 19.8437 123.716 19.1416 120.395L19.0466 119.998C18.7054 118.588 18.2625 116.973 17.4429 115.697C22.4408 114.426 27.3297 110.552 28.1117 105.238C29.3807 109.217 31.0997 113.107 32.7381 116.976C33.2442 118.322 33.455 119.768 34.1803 121.017C34.349 121.305 34.7767 121.231 34.8721 120.926C35.5244 118.016 33.5478 115.247 32.5215 112.627C31.6834 111.146 29.2779 104.384 27.7864 104.368C29.4624 97.0364 31.6977 89.7601 33.8265 82.5202C35.8849 72.7445 40.0797 70.8594 48.9662 67.7815C47.3633 75.9337 40.0452 83.8248 43.9393 92.3753L44.034 92.5971C44.4323 93.5399 44.7632 94.4898 44.4851 95.5246C44.2152 96.5286 43.6008 97.4004 43.1091 98.3034C40.3612 103.404 42.2527 109.362 43.3153 114.674C44.6574 120.903 45.9833 127.139 47.3707 133.359C47.6442 134.599 47.8214 135.878 48.2345 137.08C48.4478 137.701 49.5116 137.642 49.4428 136.918C49.3116 135.513 48.9165 134.144 48.6271 132.765C46.8996 123.835 44.5621 115.011 43.0759 106.042C42.1198 99.4034 45.8836 98.3833 45.7431 94.0936C45.2315 91.8998 43.8774 89.9419 43.9551 87.604C43.6542 80.4474 48.8773 74.5433 49.5221 67.583L50.6607 67.1776C51.2297 66.9743 51.7982 66.7694 52.3648 66.5595C49.3822 87.3771 50.2879 108.649 51.7789 129.57C52.0834 130.535 51.7937 140.405 53.0707 139.806C53.1351 140.183 53.3357 140.554 53.7719 140.552C57.7321 140.588 61.6936 140.65 65.6538 140.697C67.5587 140.522 70.1771 141.248 71.7973 140.151C73.668 139.618 73.8831 131.436 74.3832 129.633L74.5782 128.323C77.757 106.906 80.6016 85.0472 78.3167 63.4183C81.4957 63.5402 82.1519 66.9644 82.3877 69.4576C82.9772 74.9604 86.5396 79.6993 86.7104 85.2652C86.7249 86.6156 86.4695 87.9237 85.9286 89.1636C84.4937 92.2012 82.012 95.713 83.8668 99.1056C86.0604 101.747 85.8706 102.442 85.0656 105.706C82.8009 116.496 79.04 126.869 75.4622 137.272C76.2396 141.315 80.9153 126.304 81.3551 125.172C83.4249 126.211 84.5555 122.764 82.1815 122.519C83.7063 117.425 85.1096 112.293 86.2779 107.104L86.3089 106.958C86.8249 104.561 87.84 101.754 86.1259 99.6272C81.7059 95.1662 89.046 90.18 88.1201 84.7758C88.9196 85.3674 90.1298 84.745 90.1116 83.7513C90.1479 82.6325 88.6421 82.0595 87.9176 82.9131C87.1726 78.5285 84.5807 74.7009 83.7964 70.3292L83.7609 70.1239C83.4951 68.5788 83.4202 66.9531 82.6598 65.5449C83.6949 66.2159 84.7972 66.7582 85.9309 67.2368C83.9038 68.9266 87.8292 70.4689 87.5044 67.8584C98.621 71.0683 101.134 75.5445 105.215 85.8243C104.453 85.0851 103.147 86.0417 103.603 86.9846C103.967 87.9778 105.556 87.6874 105.555 86.6288L105.741 87.0715C108.216 92.9779 110.469 99.0277 111.601 105.349C109.38 105.036 109.946 108.578 111.958 107.579C112.765 113.201 112.778 118.902 112.679 124.569C110.806 123.588 110.75 126.919 112.661 125.97C112.591 130.613 112.489 135.257 112.412 139.901C112.396 140.89 113.924 140.885 113.948 139.901C114.126 132.766 114.451 125.617 114.297 118.48C114.442 106.091 110.874 94.1507 105.557 83.0533C100.852 70.2754 94.3542 68.8222 82.3984 65.1071C81.2948 63.4721 78.9369 61.9258 77.0132 62.9524C75.9369 61.2185 75.3903 59.1642 74.5939 57.3167ZM95.0779 101.851C95.0333 101.693 94.808 101.733 94.8008 101.888C94.7008 103.892 94.7899 105.91 94.9273 107.923C95.0105 109.152 95.1128 110.38 95.1996 111.6C95.4297 114.82 95.6152 118.044 95.7562 121.27C95.7068 121.25 95.6562 121.232 95.6032 121.217C95.3598 121.151 95.1163 121.151 94.8731 121.217C94.656 121.278 94.4663 121.384 94.3029 121.536L94.2682 121.57C94.1345 121.694 94.0393 121.84 93.9839 122.01C93.9049 122.161 93.865 122.322 93.8651 122.494L93.8659 122.538C93.867 122.785 93.9285 123.015 94.0538 123.229C94.1755 123.435 94.3393 123.598 94.5453 123.721C94.7598 123.845 94.99 123.906 95.2381 123.907C95.2646 123.91 95.2912 123.912 95.3176 123.913C95.5021 123.921 95.6743 123.882 95.8334 123.799L95.8574 123.792C95.9176 125.428 95.967 127.066 96.0032 128.704C96.0357 130.131 96.0791 131.559 96.108 132.986L96.1214 133.7L96.1476 135.278C96.1562 135.927 96.152 136.548 96.373 137.16L96.3996 137.231C96.5586 137.639 96.6826 138.208 97.1081 138.435C97.4478 138.617 97.9056 138.55 98.1008 138.196C98.2646 137.9 98.1226 137.475 97.8803 137.275C97.8851 137.262 97.8923 137.25 97.8984 137.237C97.9357 137.128 97.9925 137.026 98.0261 136.917C98.1322 136.57 98.1032 136.201 98.1044 135.842C98.1044 135.207 98.0828 134.572 98.0658 133.938C98.0285 132.589 97.9851 131.241 97.9322 129.893C97.7531 125.371 97.4159 120.85 97.0297 116.34L96.8987 114.818C96.7241 112.795 96.5433 110.769 96.2875 108.755C96.2756 108.659 96.2634 108.563 96.2502 108.467C96.3875 108.398 96.5152 108.303 96.6166 108.197C97.0224 107.772 97.2687 107.136 97.4995 106.588L97.5526 106.463C97.8032 105.879 98.0345 105.287 98.1538 104.66L98.1652 104.602C98.2196 104.335 98.327 103.861 98.0429 103.731C97.8947 103.664 97.8009 103.712 97.7526 103.86C97.7464 103.879 97.7515 103.901 97.7622 103.918C97.6453 104.097 97.4622 104.264 97.3466 104.43L96.9507 104.995L96.755 105.279C96.5068 105.643 96.2417 105.992 95.9682 106.336C95.7527 104.826 95.4887 103.321 95.0779 101.851ZM78.8442 135.506C78.349 135.119 77.543 135.329 77.543 136.044C77.543 136.761 78.3502 136.968 78.8442 136.581L78.8688 136.563L78.8924 136.544C79.1614 136.334 79.1704 135.788 78.9127 135.56L78.8924 135.544C78.8768 135.53 78.8611 135.518 78.8442 135.506ZM100.373 134.111C100.149 134.111 99.9406 134.168 99.7466 134.281C99.6623 134.345 99.5791 134.41 99.4948 134.475C99.3406 134.628 99.2346 134.811 99.1755 135.022L99.1308 135.351C99.1249 135.522 99.1599 135.681 99.2382 135.829C99.2888 135.982 99.3743 136.116 99.4948 136.228C99.6081 136.349 99.7406 136.435 99.8947 136.484C100.031 136.555 100.176 136.592 100.331 136.592L100.373 136.591C100.598 136.591 100.807 136.534 101.001 136.421C101.085 136.358 101.168 136.293 101.253 136.228C101.406 136.074 101.513 135.891 101.572 135.681C101.586 135.571 101.601 135.46 101.616 135.351C101.622 135.18 101.586 135.022 101.509 134.874C101.459 134.72 101.373 134.586 101.253 134.475C101.139 134.353 101.007 134.268 100.853 134.218C100.717 134.147 100.571 134.111 100.416 134.11L100.373 134.111ZM44.0165 131.824L43.7007 131.866C43.3983 131.935 43.1551 132.157 42.9924 132.411C42.9056 132.547 42.8587 132.694 42.8515 132.851C42.8164 133.008 42.8237 133.165 42.8731 133.323C42.9093 133.476 42.9803 133.611 43.0852 133.725C43.1212 133.782 43.1635 133.834 43.2116 133.879C43.3105 134.044 43.4598 134.152 43.6141 134.263C43.7441 134.346 43.8852 134.39 44.037 134.398C44.137 134.424 44.2382 134.424 44.3394 134.398C44.49 134.39 44.631 134.346 44.7611 134.263C44.8381 134.204 44.9152 134.144 44.9912 134.085C45.0586 134.007 45.1213 133.926 45.1804 133.842C45.22 133.749 45.2587 133.658 45.2971 133.567C45.3683 133.346 45.3334 133.152 45.2947 132.932C45.2888 132.894 45.2791 132.861 45.2658 132.825L45.2398 132.755C45.1704 132.572 45.1334 132.51 45.0105 132.351L44.9636 132.288C44.9402 132.257 44.9162 132.227 44.8887 132.199C44.8117 132.12 44.7019 132.054 44.6153 131.985C44.4298 131.878 44.2298 131.825 44.0165 131.824ZM84.8816 131.055C84.7069 131.056 84.5429 131.099 84.3912 131.187L84.1936 131.34C84.0731 131.461 83.99 131.603 83.943 131.768C83.9322 131.854 83.92 131.941 83.9081 132.026C83.9033 132.16 83.9309 132.285 83.9924 132.401C84.0309 132.522 84.0984 132.625 84.1936 132.714C84.2815 132.808 84.3864 132.875 84.5069 132.915C84.612 132.97 84.7251 132.998 84.8453 132.999L84.8816 132.998C85.0575 132.998 85.2213 132.953 85.3731 132.866L85.5707 132.714C85.6912 132.593 85.7743 132.45 85.8213 132.285C85.8322 132.198 85.8442 132.113 85.8563 132.026C85.8611 131.893 85.8334 131.768 85.7719 131.652C85.7322 131.532 85.6659 131.427 85.5707 131.34C85.4828 131.245 85.378 131.177 85.2575 131.139C85.1523 131.084 85.0413 131.056 84.9217 131.054L84.8816 131.055ZM92.873 130.657C92.6214 130.654 92.3658 130.725 92.1598 130.871C91.9598 131.013 91.8081 131.165 91.7104 131.395C91.6839 131.458 91.6575 131.519 91.6345 131.581C91.5309 131.857 91.5116 132.133 91.655 132.403C91.7935 132.664 92.0923 132.778 92.3599 132.856C92.5863 132.923 92.8429 132.934 93.0682 132.854C93.1803 132.814 93.2899 132.772 93.3911 132.71C93.5803 132.594 93.6827 132.455 93.8092 132.285C93.908 132.116 93.9574 131.934 93.9574 131.739C93.9574 131.543 93.908 131.361 93.8092 131.192C93.6153 130.861 93.2562 130.659 92.873 130.657ZM105.644 130.889C105.326 130.889 105.047 131.035 104.855 131.283C104.661 131.534 104.59 131.847 104.676 132.159C104.766 132.488 105.039 132.777 105.378 132.86C105.628 132.921 105.833 132.919 106.083 132.876C106.294 132.84 106.455 132.715 106.616 132.585C106.801 132.435 106.857 132.161 106.827 131.94C106.798 131.718 106.696 131.574 106.54 131.443L106.539 131.439L106.597 131.484C106.575 131.465 106.554 131.444 106.532 131.424C106.525 131.412 106.519 131.399 106.513 131.385C106.424 131.234 106.303 131.115 106.153 131.026C105.995 130.934 105.826 130.889 105.644 130.889ZM31.4768 127.247C31.3021 127.2 31.1262 127.2 30.9515 127.247C30.8225 127.277 30.7105 127.336 30.6152 127.423C30.5187 127.486 30.4399 127.566 30.3803 127.666L30.3611 127.7C30.2237 127.933 30.2021 128.2 30.2611 128.46C30.3345 128.781 30.6309 129.073 30.9515 129.149L30.9623 129.151L30.9731 129.154C31.1032 129.195 31.2346 129.201 31.3646 129.171C31.4961 129.165 31.6177 129.126 31.7297 129.054C31.8718 128.963 31.9911 128.845 32.0827 128.703C32.1551 128.59 32.1935 128.468 32.1997 128.337C32.2224 128.251 32.2224 128.164 32.1997 128.077C32.1935 127.946 32.1551 127.825 32.0827 127.712L31.9286 127.513L31.9128 127.5C31.7899 127.378 31.6442 127.293 31.4768 127.247ZM43.6068 120.883C42.0273 120.883 42.0297 123.329 43.6068 123.329C45.1862 123.329 45.1839 120.883 43.6068 120.883ZM101.436 120.574C101.269 120.537 101.103 120.544 100.938 120.596C100.838 120.638 100.739 120.68 100.641 120.721L100.388 120.916C100.341 120.955 100.318 120.999 100.274 121.055L100.22 121.126C100.142 121.231 100.14 121.253 100.054 121.476C99.996 121.69 99.996 121.904 100.054 122.118C100.082 122.221 100.124 122.319 100.178 122.409C100.227 122.496 100.287 122.572 100.354 122.642L100.388 122.676C100.501 122.797 100.635 122.883 100.789 122.933C100.886 122.99 100.991 123.018 101.103 123.018C101.269 123.055 101.436 123.048 101.601 122.996C101.701 122.954 101.8 122.912 101.899 122.871L102.151 122.676L102.347 122.423L102.409 122.275L102.472 122.126L102.516 121.796C102.522 121.624 102.488 121.465 102.409 121.316C102.379 121.211 102.326 121.119 102.249 121.042C102.194 120.948 102.119 120.874 102.025 120.818C101.948 120.741 101.855 120.688 101.75 120.658C101.653 120.602 101.548 120.574 101.436 120.574ZM23.313 118.827C23.1815 118.822 23.0586 118.85 22.9454 118.91C22.9056 118.923 22.867 118.94 22.8297 118.959C22.6839 119.045 22.5683 119.16 22.4827 119.304C22.4129 119.415 22.3743 119.534 22.3683 119.663C22.3421 119.779 22.3445 119.895 22.376 120.011L22.3864 120.046C22.4129 120.141 22.4526 120.229 22.5055 120.31C22.5106 120.319 22.5165 120.329 22.5237 120.337C22.6044 120.465 22.7117 120.569 22.8442 120.648C22.9912 120.732 23.149 120.775 23.3201 120.776C23.661 120.776 23.955 120.592 24.1345 120.31C24.1598 120.27 24.1743 120.219 24.1922 120.178C24.208 120.14 24.2333 120.091 24.2467 120.046C24.2924 119.876 24.2924 119.705 24.2467 119.534C24.2166 119.409 24.1598 119.3 24.0743 119.207C24.0057 119.102 23.9154 119.019 23.8032 118.959C23.6642 118.878 23.5148 118.835 23.3563 118.828L23.313 118.827ZM90.0021 117.631C89.8352 117.585 89.6693 117.582 89.5036 117.62L89.4622 117.631C89.3298 117.662 89.2152 117.722 89.1165 117.811C89.0069 117.883 88.9188 117.978 88.8551 118.096C88.7634 118.253 88.7176 118.424 88.7165 118.607C88.7176 118.79 88.7634 118.96 88.8551 119.118C88.9454 119.271 89.0671 119.391 89.22 119.481L89.3525 119.545C89.4634 119.615 89.5815 119.652 89.7093 119.658C89.7947 119.681 89.8804 119.681 89.9646 119.658C90.0515 119.658 90.1322 119.636 90.2068 119.593C90.2887 119.57 90.3587 119.529 90.4189 119.469C90.5238 119.402 90.6056 119.313 90.6658 119.201L90.7635 118.971L90.7971 118.716L90.7635 118.463L90.7104 118.338C90.6623 118.165 90.5754 118.017 90.4491 117.89C90.3226 117.765 90.1732 117.679 90.0021 117.631ZM30.2526 115.602C30.0768 115.547 29.902 115.539 29.7273 115.578C29.6094 115.578 29.4985 115.608 29.396 115.668C29.2839 115.699 29.1877 115.755 29.1056 115.837C28.9624 115.929 28.8502 116.052 28.7671 116.204L28.6347 116.518C28.5552 116.721 28.5841 117.021 28.6321 117.225C28.6719 117.394 28.749 117.54 28.8635 117.665C28.9213 117.763 28.9984 117.84 29.0961 117.898C29.2077 117.999 29.3363 118.071 29.4823 118.114L29.5225 118.125L29.537 118.128C29.5395 118.129 29.5418 118.129 29.5442 118.129C29.5454 118.131 29.5479 118.131 29.5491 118.131C29.6068 118.145 29.6659 118.154 29.7273 118.156C29.902 118.194 30.0768 118.187 30.2526 118.132C30.3562 118.089 30.461 118.044 30.5659 118C30.655 117.932 30.7431 117.864 30.8321 117.795C30.9008 117.706 30.9695 117.617 31.0381 117.53C31.1346 117.379 31.1863 117.216 31.1936 117.041C31.225 116.925 31.225 116.809 31.1936 116.693C31.1936 116.574 31.1634 116.464 31.1045 116.362C31.0514 116.198 30.961 116.058 30.8321 115.939C30.7431 115.87 30.655 115.802 30.5659 115.734C30.461 115.69 30.3562 115.645 30.2526 115.602ZM107.096 111.297C106.914 111.248 106.732 111.248 106.55 111.297L106.306 111.399C106.185 111.464 106.09 111.552 106.018 111.664C105.926 111.762 105.865 111.879 105.833 112.013C105.762 112.195 105.771 112.485 105.827 112.672C105.891 112.883 105.99 113.052 106.143 113.21C106.397 113.472 106.788 113.548 107.133 113.469C107.229 113.447 107.319 113.405 107.401 113.353C107.662 113.192 107.838 112.911 107.837 112.599C107.837 112.566 107.835 112.532 107.83 112.499C107.847 112.43 107.853 112.359 107.85 112.284L107.814 112.013L107.812 112.005C107.763 111.833 107.677 111.684 107.55 111.558C107.433 111.443 107.297 111.359 107.141 111.309L107.102 111.297H107.096ZM16.1816 84.2961C16.5107 81.603 17.7482 78.7055 21.5225 80.287L21.8029 80.3918C22.7368 80.7447 23.8251 81.2083 24.3935 82.0234C24.785 82.5849 24.6526 83.6731 24.7067 84.3285C24.9529 86.4592 24.8208 88.587 24.5644 90.7087C24.2335 95.6819 25.2812 100.835 27.3671 105.355C25.2795 108.726 22.4856 111.87 18.6745 113.275C18.5132 109.442 17.7613 105.68 16.9611 101.94L16.9296 101.777C16.6096 100.09 16.4494 98.3592 15.3395 96.9565C13.0819 94.5104 9.97687 95.8949 8.49121 91.9653C8.80326 91.8077 8.63097 91.269 8.25495 91.3726C6.95194 91.6033 6.74025 89.1925 7.63206 88.6116C8.56133 88.0461 7.62579 87.0029 8.02133 86.2499C8.24181 85.9253 8.71772 85.9145 8.9335 85.5404C9.50531 84.1637 6.64362 83.2815 10.0089 81.7295C10.6977 81.485 11.4676 81.6366 12.1623 81.6339C13.1842 81.7291 13.9964 82.4477 14.931 82.6738C13.9134 85.3034 16.481 87.8357 18.7984 85.7353C20.0595 86.9249 21.4697 89.6366 18.4043 88.3724C16.904 87.3731 15.6123 86.0813 13.8706 85.4659L13.8338 85.4544C13.1873 85.243 10.358 83.8711 10.4983 85.0585C11.5581 86.0792 13.3059 86.0672 14.5333 86.8958C16.2348 87.6812 17.3229 89.5842 19.3599 89.5578C19.8295 92.4037 16.5937 90.6721 15.3888 89.8873L15.0547 89.7064C13.3551 88.7901 11.6299 87.9411 9.64784 87.9298C9.10085 87.9262 9.10326 88.7679 9.64784 88.7752C12.231 88.7913 14.3334 90.4027 16.4972 91.6008C16.7102 93.262 14.2728 92.5348 13.3478 92.2897C12.3781 92.1537 10.8206 91.1068 9.97181 91.6598C9.63989 92.5111 11.1007 92.4477 11.6093 92.706C9.28736 93.819 11.3217 94.5199 11.9442 92.8094L12.1266 92.8714C13.6814 93.3929 17.4516 94.4663 17.0031 91.8378C17.5722 92.0891 18.266 92.2394 18.8948 92.0999C20.4629 94.4147 22.9642 93.519 19.3285 91.9412C20.1478 91.5609 20.4214 90.0924 19.6344 89.5459C22.4963 89.3716 20.3716 86.3749 19.1871 85.3763C19.2989 85.2635 19.4072 85.1484 19.5082 85.0319C20.1912 85.3566 20.9091 85.5538 21.6769 85.6235C22.4117 85.6895 22.5754 84.4415 21.8502 84.3393C21.0731 84.2299 20.3573 84.023 19.6731 83.6333C18.636 83.1864 18.282 85.1069 17.2441 85.175C16.6779 85.2868 16.2949 84.7914 16.1816 84.2961ZM40.2754 109.077C40.0248 109.077 39.8021 109.182 39.6201 109.348C39.4382 109.514 39.3599 109.763 39.3491 110.001C39.3442 110.128 39.3707 110.247 39.4286 110.358C39.4659 110.472 39.5298 110.571 39.6201 110.655C39.7888 110.822 40.0382 110.926 40.2754 110.926C40.526 110.926 40.7489 110.821 40.931 110.655C41.1128 110.488 41.1912 110.24 41.2021 110.001C41.2069 109.875 41.1803 109.756 41.1225 109.645C41.0889 109.542 41.0339 109.451 40.9573 109.373L40.931 109.348C40.7622 109.18 40.5129 109.077 40.2754 109.077ZM32.682 103.375L32.6418 103.375C32.4298 103.377 32.2333 103.429 32.0503 103.535C31.9707 103.597 31.8912 103.657 31.8128 103.718C31.6671 103.865 31.5671 104.037 31.5116 104.235C31.455 104.442 31.455 104.65 31.5116 104.857C31.5309 104.976 31.5754 105.091 31.6453 105.191C31.7491 105.363 31.8863 105.501 32.0599 105.603C32.2394 105.708 32.4334 105.76 32.6418 105.761C32.8501 105.76 33.0442 105.708 33.2238 105.603C33.3973 105.501 33.5346 105.363 33.637 105.191C33.7081 105.091 33.7527 104.976 33.772 104.857C33.8286 104.65 33.8286 104.442 33.772 104.235C33.7205 104.051 33.6306 103.889 33.5013 103.75L33.4707 103.718C33.3647 103.604 33.2394 103.523 33.0936 103.476C32.9655 103.409 32.8283 103.375 32.682 103.375ZM90.6334 103.439C90.5442 103.415 90.4562 103.415 90.367 103.439C90.2345 103.445 90.1105 103.485 89.996 103.557C89.9285 103.61 89.861 103.662 89.7935 103.713L89.7347 103.784C89.609 103.937 89.6058 103.963 89.5093 104.196C89.4695 104.325 89.4634 104.455 89.4923 104.585C89.4923 104.673 89.5152 104.755 89.5587 104.83C89.5827 104.913 89.6237 104.986 89.6851 105.046C89.7286 105.119 89.7863 105.178 89.8599 105.221C89.9538 105.307 90.0646 105.366 90.1923 105.396L90.4515 105.43C90.4851 105.426 90.5201 105.421 90.5538 105.417C90.5945 105.416 90.634 105.411 90.6726 105.404L90.7117 105.395L90.7474 105.386C90.7946 105.372 90.8405 105.354 90.8851 105.331C90.9695 105.307 91.0429 105.265 91.1057 105.202C91.214 105.132 91.3008 105.038 91.3634 104.922L91.3803 104.883C91.4032 104.842 91.4225 104.8 91.437 104.755C91.4779 104.683 91.4984 104.606 91.4996 104.523C91.5235 104.412 91.5219 104.303 91.4933 104.193L91.4827 104.157L91.3899 103.937C91.3417 103.862 91.2911 103.787 91.2262 103.725C91.1871 103.691 91.0914 103.616 91.0375 103.579L91.0045 103.557C90.8899 103.485 90.7658 103.445 90.6334 103.439ZM103.601 101.31C103.113 101.797 103.329 102.691 104.012 102.864L104.09 102.884C104.75 103.051 105.345 102.455 105.178 101.797L105.159 101.72C104.985 101.038 104.089 100.823 103.601 101.31ZM22.4635 96.1582C22.4683 96.0909 22.3815 96.067 22.3382 96.1066C21.7575 96.6261 21.3876 97.249 20.6828 97.6517C19.9742 98.0558 19.2442 98.0232 18.5057 98.2842C18.2551 98.3731 18.2539 98.7075 18.5057 98.7952C19.9032 99.2823 22.3575 97.6312 22.4635 96.1582ZM88.1322 96.0524C87.9767 96.0043 87.82 95.9971 87.6646 96.032C87.5586 96.032 87.4599 96.0585 87.3695 96.1112C87.2695 96.139 87.1839 96.1895 87.1105 96.2616C87.0224 96.3134 86.9525 96.3843 86.8997 96.472C86.7959 96.5851 86.726 96.7174 86.69 96.8689L86.6491 97.1804L86.69 97.4918C86.7298 97.5843 86.7695 97.6782 86.8081 97.7708L86.9157 97.9164C87.003 98.0325 87.017 98.0337 87.2286 98.1904C87.3634 98.2757 87.5092 98.3227 87.6646 98.3287C87.7683 98.3576 87.872 98.3576 87.9767 98.3287C88.0815 98.3287 88.1804 98.3023 88.2718 98.2494C88.3708 98.2217 88.4574 98.1712 88.531 98.099C88.6586 98.0161 88.7586 97.9066 88.8322 97.7708C88.872 97.6782 88.9116 97.5843 88.9502 97.4918L88.9924 97.1804L88.9502 96.8689L88.9479 96.8593C88.8924 96.6645 88.7935 96.495 88.6515 96.3517L88.4176 96.1714C88.3262 96.1126 88.231 96.0825 88.1322 96.0524ZM31.8899 96.2857C31.5563 96.1942 31.1899 96.2904 30.9455 96.5346C30.7008 96.7787 30.6044 97.1429 30.6959 97.4761C30.7863 97.8008 31.0477 98.064 31.3743 98.1519C31.4718 98.1783 31.5706 98.1928 31.6706 98.188C31.8382 98.1868 31.9947 98.1446 32.1405 98.0605L32.3285 97.9149C32.4202 97.8309 32.4839 97.7311 32.5214 97.6156C32.5804 97.505 32.6069 97.386 32.6021 97.2573L32.6032 97.2345C32.6069 97.1888 32.6009 97.1429 32.5863 97.0986C32.5863 97.0516 32.5791 97.0059 32.567 96.9614C32.4791 96.6368 32.214 96.3746 31.8899 96.2857ZM103.837 93.0295C103.73 93.0258 103.63 93.0474 103.537 93.0967C103.439 93.128 103.356 93.1809 103.286 93.2579C103.209 93.3276 103.156 93.4118 103.125 93.508C103.075 93.6007 103.054 93.7005 103.057 93.8074C103.057 93.9481 103.094 94.0791 103.163 94.1994C103.204 94.2524 103.245 94.3052 103.286 94.3569C103.383 94.4543 103.497 94.5204 103.63 94.5577L103.707 94.5842C103.82 94.6251 103.931 94.6275 104.049 94.612C104.173 94.595 104.288 94.5613 104.389 94.4844C104.488 94.4267 104.566 94.3485 104.624 94.2499L104.69 94.0936C104.704 94.0408 104.71 93.9614 104.714 93.906C104.714 93.8976 104.714 93.8905 104.715 93.8819C104.715 93.835 104.701 93.7209 104.689 93.6739C104.662 93.5753 104.608 93.4815 104.547 93.4022C104.494 93.3193 104.421 93.2543 104.332 93.2062L104.324 93.2001L104.315 93.1941C104.288 93.1749 104.259 93.1557 104.23 93.1351C104.109 93.0655 103.978 93.0295 103.837 93.0295ZM41.6212 92.1756C41.4285 92.1756 41.2489 92.2249 41.0827 92.3211C41.0768 92.3234 41.0708 92.326 41.0659 92.3285C40.9068 92.4222 40.7804 92.5485 40.6863 92.7071C40.5899 92.8719 40.5418 93.05 40.5418 93.2399C40.5418 93.431 40.5899 93.6078 40.6863 93.7725C40.7804 93.9314 40.9068 94.0575 41.0659 94.1514C41.0708 94.1549 41.0768 94.1572 41.0827 94.1597C41.2489 94.2559 41.4285 94.304 41.6212 94.3052C41.8128 94.304 41.9923 94.2559 42.1587 94.1597C42.4839 93.9697 42.6876 93.615 42.6876 93.2399C42.6876 92.8645 42.4839 92.5099 42.1587 92.3211C41.9923 92.2249 41.8128 92.1756 41.6212 92.1756ZM91.6552 90.7852L91.6224 90.7845C91.4947 90.7796 91.3755 90.8061 91.2659 90.8651C91.1515 90.9023 91.0515 90.9661 90.967 91.0563L90.7911 91.2029L90.74 91.2441C90.7316 91.2512 90.7233 91.2583 90.7153 91.2655C90.5971 91.3844 90.5164 91.5239 90.4706 91.6851C90.4562 91.7778 90.4442 91.869 90.4345 91.9616C90.4081 92.2021 90.5501 92.4487 90.7068 92.6195C90.7911 92.7097 90.8912 92.7733 91.0068 92.8117C91.1176 92.8696 91.2381 92.8959 91.3659 92.8911C91.6274 92.8684 91.8754 92.813 92.0634 92.6109C92.0852 92.5869 92.1057 92.5616 92.1272 92.5364L92.2778 92.3632C92.3923 92.2479 92.4719 92.1119 92.5152 91.9556C92.5273 91.8726 92.5381 91.7909 92.5489 91.7091C92.5599 91.4626 92.4394 91.2317 92.2778 91.0563C92.1287 90.8937 91.8757 90.7943 91.6552 90.7852ZM97.7369 88.2532C96.484 88.2532 96.4864 90.1929 97.7369 90.1929C98.9888 90.1929 98.9864 88.2532 97.7369 88.2532ZM34.7392 85.5338L34.6997 85.5345C34.4923 85.5358 34.2985 85.5875 34.1188 85.6921L33.8852 85.8712C33.7429 86.0155 33.6442 86.1839 33.5887 86.3787C33.5756 86.4808 33.5622 86.5831 33.5477 86.6841C33.5417 86.8428 33.5756 86.9907 33.6477 87.1278C33.6935 87.2697 33.773 87.3934 33.8852 87.4981C33.9899 87.61 34.1129 87.6893 34.2562 87.735C34.3935 87.8072 34.5417 87.8408 34.6997 87.8348C34.908 87.8335 35.1021 87.7819 35.2816 87.6773C35.3598 87.6172 35.4369 87.5571 35.5152 87.4981C35.6465 87.365 35.7407 87.2113 35.7971 87.0352L35.8104 86.9907L35.8526 86.6841C35.8586 86.5266 35.825 86.3787 35.7527 86.2416C35.7068 86.0985 35.6273 85.9758 35.5152 85.8712C35.4104 85.7593 35.2863 85.6799 35.1441 85.6344C35.0183 85.5682 34.8832 85.5343 34.7392 85.5338ZM40.3828 81.9032C40.2707 81.8995 40.1671 81.9223 40.0694 81.9729C39.9695 82.0053 39.8828 82.0618 39.8093 82.1399C39.6538 82.2639 39.5587 82.5115 39.5587 82.7123C39.5587 82.9131 39.6538 83.161 39.8093 83.2847C39.9105 83.3845 40.0298 83.4542 40.1671 83.4927L40.3828 83.5217C40.5924 83.5313 40.8057 83.4219 40.9551 83.2847C40.9852 83.2572 41.0141 83.2295 41.0442 83.2029C41.1803 83.0779 41.2393 82.8915 41.2478 82.7123C41.2515 82.6174 41.2309 82.5285 41.1876 82.4455C41.1598 82.3589 41.1117 82.2854 41.0442 82.2217C41.0141 82.1953 40.9852 82.1677 40.9551 82.1399C40.7923 81.9896 40.6021 81.914 40.3828 81.9032ZM4.6261 75.4352C3.83442 74.4727 4.29538 73.7877 5.48514 74.0258C7.53453 74.3024 9.46332 75.5951 11.2683 76.5221C13.2383 77.5605 15.2685 78.417 17.278 79.3928C16.4489 79.9007 15.8322 80.6961 15.3611 81.6038C14.4208 80.8911 13.2187 80.5503 12.0454 80.5059C9.91658 78.4711 6.39116 78.0052 4.6261 75.4352ZM98.1585 78.6301C97.9438 78.6311 97.7427 78.6815 97.5542 78.782L97.514 78.8044L97.2562 79.004C97.1309 79.1194 97.0429 79.2564 96.9911 79.414C96.9116 79.5655 96.8755 79.7302 96.8815 79.9058C96.8755 80.0814 96.9116 80.2449 96.9911 80.3964C97.0429 80.5551 97.1309 80.691 97.2562 80.8064C97.3273 80.899 97.4189 80.9712 97.5285 81.0242C97.631 81.0662 97.7321 81.1095 97.8345 81.1527C97.949 81.1888 98.0815 81.1936 98.2056 81.1996C98.4309 81.1984 98.6404 81.1419 98.8358 81.0289L99.0887 80.8342C99.2104 80.7211 99.2973 80.5876 99.3479 80.4325C99.4196 80.2959 99.4559 80.15 99.4559 79.9942L99.455 79.9515C99.455 79.942 99.455 79.9311 99.4537 79.9202C99.4393 79.8072 99.4236 79.6942 99.4081 79.5813C99.3682 79.4152 99.2923 79.2697 99.1791 79.1471C99.1502 79.0893 99.1116 79.0424 99.0621 79.004C98.9032 78.8452 98.7154 78.737 98.4984 78.6756C98.3851 78.6613 98.2719 78.6455 98.1585 78.6301ZM42.2189 75.4447C42.0563 75.4447 41.9057 75.4856 41.7658 75.5662C41.7045 75.6132 41.6442 75.66 41.584 75.7069C41.4718 75.8187 41.3947 75.951 41.3527 76.1025L41.32 76.3404C41.3165 76.4644 41.3418 76.5786 41.3984 76.6858C41.4345 76.7963 41.496 76.8925 41.584 76.9742C41.6647 77.0619 41.761 77.1233 41.873 77.1594C41.9792 77.2159 42.0948 77.2412 42.2189 77.2365C42.3804 77.2365 42.5322 77.1955 42.6719 77.1137C42.7322 77.068 42.7936 77.0211 42.8539 76.9742C42.9555 76.8717 43.0287 76.752 43.0727 76.6161L43.084 76.5786L43.1164 76.3404C43.1212 76.2167 43.0959 76.1025 43.0394 75.9954C43.0033 75.8837 42.9405 75.7874 42.8539 75.7069C42.7719 75.619 42.6754 75.5577 42.5646 75.5217C42.4682 75.4708 42.3649 75.4453 42.2556 75.4442L42.2189 75.4447ZM91.1163 74.1418L91.0743 74.1424C90.8345 74.1436 90.6116 74.2037 90.4044 74.324C90.3153 74.3926 90.226 74.4612 90.1369 74.5309C89.9719 74.6955 89.8586 74.8903 89.7947 75.1152L89.7478 75.4663C89.7406 75.6491 89.7791 75.8186 89.8622 75.9762C89.9151 76.141 90.0068 76.2828 90.1369 76.403C90.2561 76.5318 90.3984 76.6231 90.5634 76.6761C90.7213 76.759 90.8912 76.7976 91.0743 76.7902C91.314 76.7902 91.5369 76.7301 91.7442 76.6099C91.8332 76.5413 91.9224 76.4717 92.0127 76.403C92.1767 76.2371 92.2899 76.0423 92.3538 75.8186L92.4008 75.4663C92.408 75.2847 92.3695 75.1141 92.2863 74.9565C92.2333 74.7931 92.1418 74.6498 92.0127 74.5309C91.8922 74.4011 91.7502 74.3095 91.5851 74.2566C91.4394 74.1801 91.2835 74.1424 91.1163 74.1418ZM46.5044 70.8357C46.3947 70.8068 46.2852 70.8068 46.1756 70.8357C46.0117 70.8428 45.8586 70.8921 45.7164 70.9823L45.467 71.1748C45.4635 71.1783 45.4598 71.182 45.4562 71.1869C45.3056 71.3382 45.2009 71.5175 45.143 71.7231L45.0995 72.0466C45.0935 72.2137 45.1285 72.3699 45.2044 72.5144C45.2496 72.6531 45.3244 72.7738 45.4274 72.8782L45.467 72.9171C45.5792 73.0373 45.7105 73.1227 45.8635 73.172C45.9598 73.2286 46.0647 73.2563 46.1756 73.2563C46.3393 73.2934 46.5044 73.2863 46.6683 73.2345C46.7658 73.1924 46.8647 73.1515 46.9634 73.1108L46.9948 73.0926C47.3671 72.8895 47.5973 72.4639 47.5973 72.0466C47.5973 71.6292 47.3671 71.2024 46.9948 70.9991C46.9839 70.9945 46.9744 70.9883 46.9634 70.9823C46.8212 70.8921 46.6683 70.8428 46.5044 70.8357Z" fill="#1A1A1A"></path> <path fill-rule="evenodd" clip-rule="evenodd" d="M45.5093 32.1129C45.9349 28.7207 47.2715 25.1191 48.6773 21.9567C51.8383 15.2703 59.0749 14.3498 65.5622 12.9712C71.9639 12.0401 78.7429 11.1994 85.0481 13.0571C88.5928 13.9245 89.9772 18.1418 89.4178 21.4699C89.0985 23.5437 88.1536 25.5065 87.3478 27.4285C85.7463 31.3755 84.7301 35.6012 84.7284 39.8746C84.8383 42.6673 85.2329 45.8548 82.0204 47.0377C78.9634 48.5563 78.7051 52.6731 74.8773 55.0088C73.3295 58.1408 69.1133 58.4165 66.0788 59.143C64.1608 59.5097 62.2212 59.7796 60.2762 59.9539C54.6447 60.6748 50.1395 59.0446 47.1915 54.033C45.2187 50.983 43.7497 47.4613 44.1126 43.7648C44.4741 39.8723 45.0762 36.0002 45.5093 32.1129Z" fill="#D08B5B"></path> <path fill-rule="evenodd" clip-rule="evenodd" d="M65.5136 4.84515C65.1921 4.48121 64.6969 4.60603 64.3963 4.89382C64.2006 4.95143 64.011 5.03709 63.832 5.15046C63.4273 5.09858 63.003 5.09858 62.6062 5.11313C62.5099 5.05919 62.4067 5.01121 62.2944 4.96998C61.4919 4.67692 60.7813 4.8258 60.1951 5.21814C59.9128 4.95131 59.5566 4.78388 59.1013 4.80919C58.6949 4.83187 58.4053 5.02289 58.1571 5.27449C57.9096 4.91799 57.5096 4.66364 57.0111 4.62825C56.3145 4.57878 55.6448 4.85786 55.0897 5.28995C54.7663 4.91936 54.3254 4.70635 53.8341 4.70429C53.5108 4.64566 53.1697 4.66879 52.8614 4.76178C52.4139 4.8968 52.0209 5.14977 51.708 5.4781C51.2129 5.00445 50.6068 4.66364 49.908 4.71334C49.0035 4.77862 48.2538 5.44294 47.9053 6.26061C47.2931 6.50557 46.728 6.85497 46.2557 7.35313C46.2304 7.37936 46.2064 7.40684 46.1811 7.43444C45.9267 7.52823 45.6871 7.66119 45.4761 7.83629C44.8078 8.39182 44.6588 9.19575 44.88 9.98353C44.8491 10.1096 44.8227 10.2379 44.7986 10.366C44.1727 10.4611 43.6041 10.8219 43.2809 11.4094C42.8384 12.2156 42.9255 13.2783 43.4047 14.0479C43.6107 14.379 43.8722 14.658 44.1658 14.9019C43.8337 15.6555 43.9931 16.5547 44.5286 17.1641C44.659 17.3743 44.8192 17.5639 44.9994 17.7356C44.8005 18.5147 45.1542 19.3185 45.8604 19.7348L45.9208 19.8858C45.9309 19.9109 45.9412 19.9359 45.9519 19.9606C45.9597 19.9927 45.9693 20.0237 45.9788 20.055C45.9957 20.3314 46.0868 20.6027 46.2677 20.8583C46.638 21.3822 47.0971 21.7238 47.3405 22.3353L47.3649 22.3995C47.4695 22.6889 47.8075 22.8931 48.0954 22.8038C46.4966 26.0837 45.6584 29.7334 45.0829 33.31C44.796 35.0944 44.5745 36.8849 44.3949 38.6823L44.2188 40.4722C44.0639 42.0631 43.926 43.6594 43.9251 45.2556C43.9228 48.8665 44.9568 52.3398 47.1762 55.2132C49.2752 57.9295 52.2454 59.8981 55.6008 60.6734C59.0651 61.4727 63.1289 61.1578 66.2355 59.3278C67.1515 58.7896 66.349 57.4954 65.417 57.9284C63.6528 58.7484 61.8599 59.3576 59.9042 59.4939C57.9978 59.6278 56.0868 59.3896 54.279 58.7666C51.2882 57.7349 48.7433 55.5739 47.1074 52.8827C46.3015 51.5565 45.718 50.1171 45.4074 48.5961C45.0206 46.7005 45.0789 44.7412 45.221 42.8213L45.2308 42.6905C45.5117 38.9914 45.8819 35.2695 46.4803 31.6072C47.0093 28.3687 47.8226 25.1959 48.8785 22.0932C49.2921 21.7295 49.7548 21.4285 50.2499 21.1999C53.8755 21.0486 57.5076 21.0929 61.1285 21.3427C64.2166 21.5572 67.2896 21.9201 70.3395 22.4491L70.6662 22.5064C71.3414 22.6265 72.0911 22.6952 72.7274 22.9667C73.273 23.2004 73.4943 23.6493 73.6318 24.2011C73.978 25.5971 74.0308 27.1249 74.0892 28.5564C74.1465 29.9558 74.017 31.3668 74.1294 32.7615C74.2245 33.9284 74.5237 35.1229 75.3892 35.967C75.842 36.4089 76.3991 36.6506 76.9219 36.9861C77.2601 37.2027 77.4034 37.4259 77.3598 37.8267C77.2658 38.7039 76.5585 39.809 77.3529 40.5603C77.4928 40.692 77.7346 40.7092 77.8722 40.5603C78.2001 40.2042 78.6529 39.9327 79.0415 39.6453C79.2043 39.5263 79.069 39.2949 78.8844 39.3773C78.6414 39.4862 78.3938 39.6145 78.1405 39.7267C78.6999 39.2663 79.4955 39.0406 80.158 38.9066C80.4916 38.8402 80.8424 38.8207 81.1898 38.8518C81.4466 38.9742 81.7091 39.0877 81.9716 39.1986C82.3052 39.3385 82.6422 39.4655 82.9815 39.5858C84.1588 40.5442 84.7206 42.103 84.4752 43.6272C84.3411 44.4688 83.9525 45.384 83.22 45.8752C82.3522 46.457 81.1898 46.2072 80.252 46.6391C79.3739 47.0432 78.8397 47.8599 78.4397 48.705L78.2729 49.0569C77.9015 49.836 77.5198 50.5943 77.0124 51.3034C76.4255 52.1245 75.7067 52.862 74.9226 53.4954C74.5422 53.8019 74.1368 54.0777 73.7178 54.3288L73.6032 54.3967C73.179 54.6452 72.8752 54.8821 72.8466 55.4077C72.8374 55.591 72.9532 55.7582 73.1022 55.8532C73.7442 56.2598 74.3827 55.7513 74.9169 55.3963C75.4935 55.0138 76.0449 54.5833 76.555 54.1138C77.5249 53.2228 78.364 52.1647 79.0094 51.0159C79.5012 50.1411 79.7809 48.91 80.5581 48.2321C81.0327 47.8185 81.7033 47.8152 82.296 47.7395C82.8474 47.6686 83.369 47.5541 83.8596 47.2827C85.8554 46.1753 86.4195 43.4944 85.946 41.4227C85.8658 41.0733 85.7534 40.7332 85.6147 40.4057C86.3576 40.5294 87.1921 39.7622 86.8906 38.9879C86.8677 38.9295 86.8413 38.8747 86.8161 38.8184C87.3056 38.4966 87.6919 38.0089 87.8753 37.3709C87.9693 37.0411 87.9831 36.7078 87.9338 36.386C88.1711 36.227 88.3671 36.0081 88.4932 35.739C88.8876 35.5569 89.2372 35.2845 89.4458 34.8951C89.7347 34.3579 89.698 33.8632 89.4779 33.4177C89.5089 33.3617 89.5387 33.3044 89.5674 33.2459C90.3755 32.7341 90.9395 31.8522 90.8753 30.8742C90.8547 30.5501 90.7745 30.2581 90.6507 29.9948C90.661 29.9616 90.6713 29.9271 90.6805 29.8939C91.3568 29.5504 91.9162 28.9859 92.1157 28.2324C92.3152 27.4741 92.0802 26.7183 91.6102 26.1365C92.298 25.6339 92.7118 24.9319 92.4608 23.8702C92.3587 23.4386 92.1535 23.0456 91.8761 22.7147C91.8773 22.7045 91.8796 22.6942 91.8819 22.6838L91.9462 22.6339C92.7953 21.9645 93.2834 21.1115 92.7623 20.0624C92.5284 19.5907 92.1948 19.2619 91.8028 19.0455L91.7833 18.9836V18.9836C92.0641 18.3824 92.1593 17.7148 91.9655 17.0127C91.8073 16.4345 91.4325 15.9741 90.9533 15.6684C90.9854 15.4095 90.9808 15.1336 90.9292 14.8346C90.8433 14.3297 90.5922 13.8888 90.2254 13.5761C90.2116 13.5096 90.1944 13.4444 90.1749 13.379C90.0511 12.9795 89.8196 12.5455 89.5513 12.2235C89.3301 11.9567 89.0824 11.8594 88.7798 11.8491C88.7981 11.603 88.7855 11.3532 88.7351 11.1001C88.5803 10.3192 88.0828 9.58501 87.3457 9.25175C87.0431 9.11547 86.7244 9.07551 86.4172 9.1086C86.1558 8.55891 85.6457 8.1605 85.0186 8.07461C84.7744 8.04025 84.5475 8.04243 84.3388 8.07346C84.2207 8.01838 84.0981 7.96925 83.9697 7.92447C83.8849 7.8947 83.7989 7.86721 83.7129 7.83984C83.4229 7.48025 83.0411 7.19269 82.5952 7.01988C82.0805 6.81947 81.5566 6.83997 81.0923 7.00831L80.9444 6.97739V6.97739C80.7129 6.57657 80.3438 6.26623 79.7763 6.12537C79.1321 5.96618 78.4706 6.18835 77.9639 6.59272C77.9616 6.59272 77.9593 6.59272 77.9559 6.59146C77.6911 5.9994 77.2383 5.58712 76.4782 5.61575C76.0048 5.63408 75.5772 5.86896 75.2471 6.20335C75.0636 6.18034 74.8802 6.15972 74.6957 6.13922C74.5008 5.91122 74.2841 5.69832 74.0445 5.50708C73.6525 5.19318 73.1423 5.21849 72.8535 5.66042C72.7904 5.75661 72.7319 5.85396 72.6735 5.9513L72.4087 5.93297V5.93297C72.0969 5.51269 71.6716 5.22868 71.0892 5.20589C70.555 5.18402 70.1744 5.44523 69.8844 5.81044C69.6482 5.80471 69.4109 5.80025 69.1736 5.7967C68.8974 5.47719 68.5718 5.19547 68.2004 4.96185C67.9161 4.7832 67.4965 4.84401 67.2661 5.08221C67.1104 5.24414 66.9655 5.41317 66.8308 5.58816C66.4836 5.19925 66.0146 4.94307 65.5136 4.84515ZM82.3854 41.2108C81.8501 40.9062 81.1301 41.236 80.612 41.4948C79.9804 41.8097 79.3533 42.285 78.967 42.8805C78.4408 43.6913 79.6777 44.3463 80.2314 43.6191C80.5719 43.1714 80.8436 42.7201 81.2562 42.3285C81.6334 41.9689 82.1802 41.7284 82.3969 41.2543C82.4049 41.2383 82.4026 41.2199 82.3854 41.2108Z" fill="#1A1A1A"></path> <path fill-rule="evenodd" clip-rule="evenodd" d="M59.5646 53.9815C60.3465 53.663 61.0442 53.1318 61.5542 52.4531C61.7315 52.2171 61.7775 51.968 61.7403 51.7401C61.6985 51.4839 61.5467 51.2517 61.3396 51.0959C61.132 50.9396 60.8722 50.8626 60.621 50.9019C60.4028 50.936 60.1855 51.0553 60.0136 51.3028L59.9777 51.3523C59.6744 51.7619 59.2793 52.098 58.8291 52.3146C58.3951 52.5234 57.9098 52.6209 57.4076 52.5642C56.451 52.4563 55.7917 51.9397 55.091 51.2383C55.0041 51.1497 54.9172 51.0584 54.8299 50.9656C54.7747 50.8814 54.6982 50.8274 54.6132 50.799C54.5188 50.7675 54.4121 50.7693 54.3143 50.8034C54.22 50.8362 54.1357 50.8985 54.0792 50.9814C54.0255 51.0601 53.995 51.1574 54.0049 51.2693C54.069 51.9963 54.4497 52.6451 54.9903 53.1545C55.5908 53.7203 56.3867 54.1117 57.1361 54.249C57.9617 54.4002 58.8029 54.2918 59.5646 53.9815V53.9815ZM56.7466 42.7669C55.8683 43.3 54.53 44.5431 55.4749 45.8647C56.5871 47.03 58.1884 45.6939 58.9775 45.0897C59.7092 44.6213 60.5313 45.8258 59.8525 46.3726C54.1504 50.588 51.8363 42.9063 56.3024 42.1402C56.7941 42.0557 56.9767 42.602 56.7466 42.7669ZM66.9648 37.8634C66.8678 36.6606 65.0332 36.3874 64.8507 37.5777C64.6873 38.6438 64.8797 39.6233 65.3606 40.5832C65.8202 41.5002 66.9752 41.0724 67.0626 40.2373C67.1797 39.118 67.0252 38.6116 66.9648 37.8634ZM52.9999 37.3309C52.7441 36.9964 52.3748 36.7681 51.9323 36.8971C50.55 37.3005 50.9574 39.2601 51.4429 40.214C51.7067 40.732 52.5594 40.8633 52.9447 40.4072C53.5728 39.6635 53.8736 38.1781 53.0751 37.4455C53.0535 37.4077 53.0294 37.3694 52.9999 37.3309ZM65.3801 32.6003L65.1618 32.5621C64.4862 32.4454 63.6463 32.3334 63.1684 32.8756C62.915 33.1632 62.8277 33.6977 63.1684 33.973C63.7677 34.4573 64.4302 34.2696 65.1483 34.3106C65.7401 34.3445 66.3089 34.4423 66.8789 34.605C68.1295 34.9619 69.1485 35.6135 70.2166 36.3289C70.3568 36.4227 70.4999 36.2438 70.433 36.1129C69.8164 34.907 68.6215 33.9164 67.4247 33.3126C66.7859 32.9903 66.0868 32.7229 65.3801 32.6003ZM54.26 32.0601L54.0929 32.0943C52.2741 32.4739 49.911 33.2322 49.0497 35.0161C49.0169 35.2683 49.0516 35.3224 49.0798 35.3577L49.0891 35.3695C49.1124 35.3996 49.1309 35.4412 49.2404 35.4755C49.2708 35.4683 49.3015 35.4607 49.3325 35.4525C49.7273 35.3492 50.0397 35.2069 50.3421 35.0592L50.6699 34.8979C51.0504 34.7117 51.4341 34.5322 51.8408 34.3997C52.7088 34.117 53.6015 33.9179 54.5081 33.8116C54.7046 33.7885 54.8938 33.7223 55.0431 33.6088C55.1848 33.5011 55.293 33.352 55.3424 33.1537C55.4063 32.8971 55.388 32.7029 55.2501 32.4714C55.1464 32.2976 54.9981 32.1771 54.8278 32.108C54.6542 32.0374 54.4565 32.0208 54.26 32.0601Z" fill="black"></path> </g> <defs> <clipPath id="clip0"> <rect width="120" height="137" fill="white" transform="matrix(-1 0 0 1 120 0)"></rect> </clipPath> </defs> </svg> 