<?xml version="1.0" encoding="UTF-8"?> <svg xmlns="http://www.w3.org/2000/svg" width="223" height="290" viewBox="0 0 223 290" fill="none"> <g clip-path="url(#clip0)"> <path fill-rule="evenodd" clip-rule="evenodd" d="M20.7652 125.449C23.395 118.196 21.4195 109.012 26.8402 103.01C28.4435 102.034 29.2939 102.577 29.9538 104.278C30.3522 106.518 31.2856 114.227 27.9286 114.223C27.5062 119.038 27.7703 123.888 28.8042 128.613C31.2816 128.215 33.0879 129.491 34.8953 130.439C36.2429 131.146 37.5911 131.671 39.2186 131.186C45.9375 130 47.8523 137.065 47.9339 142.833C48.0325 145.647 48.2966 152.206 49.5344 154.937C55.1365 143.318 66.9022 138.029 78.1129 135.417C79.8701 134.93 81.3697 134.265 82.4969 133.128C91.9424 129.393 87.4047 117.157 91.7502 110.125C98.5519 101.765 106.72 99.3594 117.011 100.792C126.015 101.789 132.135 110.948 131.58 119.593C131.414 121.357 132.471 123.213 133.093 125.028C139.308 132.475 148.979 135.807 157.296 140.307C185.039 153.885 194.653 164.261 205.434 193.154C210.477 204.024 216.513 214.575 218.518 226.547C220.873 240.655 220.88 255.097 220.06 269.343C221.591 269.528 219.925 280.479 218.583 284.273C218.122 285.574 217.02 286.511 215.646 286.489C212.883 287.834 206.396 293.254 203.506 293.074C194.168 292.498 185.092 293.389 176.095 292.928C166.362 292.43 156.723 290.612 146.949 290.848C129.903 291.259 142.107 292.272 124.472 293.074C113.339 293.588 72.724 287.5 61.6229 288.494C52.5934 290.396 48.474 287.189 49.8515 277.743C50.3607 274.122 51.987 266.069 46.6372 265.727C44.1065 266.021 42.0118 268.553 40.1156 270.033C23.3692 282.518 6.2612 273.528 4.91304 253.003C2.37501 235.788 -1.18364 231.721 6.55228 214.53C31.0274 150.534 -5.84728 159.229 19.0497 129.254C20.9938 130.949 20.4996 126.424 20.7652 125.449Z" fill="#EDB98A"></path> <path fill-rule="evenodd" clip-rule="evenodd" d="M138.282 139.106C122.33 147.253 109.716 151.327 100.438 151.327C91.1602 151.327 74.8191 153.224 51.4147 157.018L39.8577 182.451L14.3564 187.441L14.2432 188.105C13.0009 195.243 10.6268 203.88 6.55349 214.531C-1.18244 231.722 2.37621 235.789 4.91424 253.004C6.2624 273.529 23.3705 282.519 40.1168 270.033C42.013 268.554 44.1077 266.021 46.6384 265.727C51.8812 266.062 50.4242 273.803 49.8845 277.52L49.8526 277.743C48.4752 287.189 52.5946 290.396 61.6241 288.494C72.7252 287.5 113.34 293.588 124.473 293.074C142.108 292.272 129.904 291.259 146.95 290.848C156.724 290.612 166.363 292.43 176.096 292.928C184.619 293.365 193.215 292.588 202.036 292.995L215.648 286.49C220.682 250.392 219.917 226.724 213.353 215.484C206.822 204.301 198.076 185.916 187.117 160.331C186.949 160.151 186.779 159.973 186.609 159.796L138.282 139.106Z" fill="#44E8AD"></path> <path fill-rule="evenodd" clip-rule="evenodd" d="M30.0674 102.531C28.7318 101.216 26.6085 101.543 25.3059 102.712C23.9805 103.899 23.1826 105.765 22.502 107.373C19.4484 114.605 20.1595 122.522 18.6148 130.088C15.788 131.617 13.2362 133.613 11.4292 136.299C8.68397 140.378 7.38144 145.128 8.7579 149.962C9.46907 152.464 10.6773 154.782 11.5388 157.23C12.459 159.836 13.0224 162.544 13.2925 165.296C13.5576 167.996 13.5933 170.712 13.5169 173.423C13.4761 174.827 13.4022 176.228 13.3282 177.63C13.262 178.886 13.0397 180.196 13.3397 181.427L13.3767 181.568C13.2594 181.55 13.1447 181.527 13.03 181.502C12.0458 181.282 11.1794 180.94 10.1522 181.076C9.35181 181.18 8.93632 181.849 9.27534 182.604C9.42318 182.934 9.61946 183.209 9.85651 183.444C7.79183 198.734 4.18501 213.779 1.8119 229.02C0.736227 235.935 0.0811299 242.871 0.450733 249.872L0.489535 250.566C0.866373 256.994 1.79215 264.078 5.05421 269.7C6.5785 272.332 8.67378 274.667 11.2126 276.35C12.3752 277.12 13.6214 277.723 14.9749 278.024C21.9897 280.822 29.4073 280.135 36.0219 276.437C38.9966 274.775 41.9636 272.837 44.3928 270.433C45.573 269.264 46.7121 267.776 47.4108 266.15C47.4082 266.515 47.4741 266.888 47.4006 267.247L47.2534 267.959C46.1518 273.242 41.953 292.77 41.8973 294.409C41.867 295.293 49.3013 295.272 50.1082 295.299L50.1306 295.3C62.1712 295.802 74.2191 295.534 86.253 295.036L87.2031 294.996C98.8736 294.501 111.573 293.836 123.256 293.495L123.232 293.3C123.092 292.249 122.412 287.576 122.336 287.218L122.333 287.205C122.002 285.869 121.363 281.713 121.7 280.334C122.566 276.782 126.468 277.593 129.214 277.97L129.792 278.046C130.237 278.107 131.318 278.266 131.308 278.277C131.6 277.972 130.906 277.109 130.735 276.878L130.598 276.688C129.86 275.654 129.193 274.58 129.266 273.248C129.443 269.994 134.087 270.177 136.368 270.403C136.529 270.419 136.595 270.67 136.41 270.708L135.96 270.802C134.512 271.113 131.296 271.906 131.369 273.106C131.41 273.787 132.135 274.29 132.578 274.719C133.066 275.192 133.551 275.702 133.911 276.283C134.605 277.402 134.762 278.912 134.076 280.076C133.285 281.42 131.881 281.577 130.476 281.454L130.396 281.447C130.087 281.418 129.778 281.388 129.468 281.358L127.612 281.176C127.153 281.131 125.676 280.744 125.245 281.011C124.634 281.39 125.369 283.069 125.507 283.622L125.514 283.661C125.633 284.462 125.704 292.85 125.715 293.404C134.82 293.193 143.926 291.166 153.031 291.642C160.264 292.02 167.477 292.674 174.697 293.242L174.879 291.69C176.88 274.791 180.017 252.493 178.511 235.777C178.394 234.469 180.434 234.477 180.551 235.777C182.108 253.062 178.7 276.28 176.717 293.398C179.791 293.632 182.865 293.844 185.943 294.006L186.728 294.046C197.203 294.57 208.014 294.601 218.264 292.196C218.581 292.122 218.688 291.805 218.621 291.542C218.723 291.601 218.876 291.568 218.92 291.425C220.114 287.483 220.72 277.447 221.261 273.104L221.298 272.82C221.853 268.6 222.172 264.332 222.401 260.087C222.865 251.595 222.809 243.092 222.182 234.61C220.186 207.556 212.239 180.223 195.558 158.48C191.526 153.225 186.935 148.416 181.426 144.697C176.023 141.047 169.961 138.476 163.81 136.388C159.745 135.007 155.615 133.825 151.486 132.646C151.33 132.568 151.173 132.49 151.016 132.415L150.78 132.302C149.312 131.604 147.866 130.841 146.363 130.221L146.03 130.086C143.851 129.21 141.312 128.436 138.953 128.462C135.132 126.535 131.923 123.623 132.234 118.951C132.361 117.032 129.353 117.035 129.246 118.951C128.966 124.051 132.103 127.668 136.103 130.096L136.084 130.115L136.065 130.137C135.44 130.846 134.772 131.505 134.051 132.118C129.733 135.798 124.27 138.854 118.811 140.865C112.405 143.226 106.004 143.933 99.3796 142.024C95.9155 141.026 92.6452 139.487 89.6399 137.496C88.7223 136.888 87.8429 136.238 86.9991 135.541C87.797 134.448 88.4342 133.271 88.9695 132.023C90.0449 129.511 90.9348 126.109 89.8362 123.457C89.566 122.803 88.4928 122.4 88.1181 123.232C87.0858 125.509 86.655 127.97 85.4519 130.196C84.9931 131.043 84.4654 131.847 83.8741 132.605C83.8741 132.646 79.3573 133.419 79.3573 133.419C73.8973 133.417 68.756 135.518 63.9257 138.142C61.0704 139.693 58.2644 141.343 55.4664 142.995L49.998 146.226C49.5953 146.463 49.1441 146.693 48.6929 146.938C49.2206 144.329 49.478 141.669 49.3047 139.032C49.0421 135.056 47.4974 130.706 43.4063 129.289C41.4716 128.618 39.2336 128.825 37.355 129.57C36.4884 129.915 35.5452 130.372 34.7398 130.982C34.3495 129.225 32.7057 127.908 31.0539 127.327C30.5186 127.138 29.9706 127.018 29.4149 126.959C29.4312 126.677 29.4329 126.392 29.4289 126.098L29.4251 125.877C29.3996 124.575 29.4098 123.273 29.4379 121.974C29.4888 119.51 29.6061 117.098 29.8559 114.643C30.0644 112.61 30.4268 110.6 30.6958 108.576L30.8072 107.706C31.0342 105.991 31.415 103.856 30.0674 102.531ZM194.31 268.751L194.765 268.48C196.258 267.598 197.796 266.784 199.604 267.192C201.326 267.581 202.548 268.982 203.191 270.56C203.494 271.306 203.652 272.058 203.769 272.852C203.835 273.297 203.879 273.745 203.957 274.188L203.983 274.325C204.019 274.501 204.073 274.747 204.122 274.96C204.592 274.753 205.065 274.424 205.45 274.229L205.76 274.073C206.488 273.71 207.246 273.365 208.039 273.197C209.758 272.833 211.664 273.359 212.646 274.901C213.487 276.219 213.469 277.773 213.148 279.251L213.125 279.354C212.986 279.967 212.265 282.422 211.217 282.064C210.197 281.715 210.061 280.359 209.984 279.454L209.978 279.368C209.944 278.686 210.079 277.254 209.308 276.995C208.344 276.672 206.491 278.149 205.652 278.534C204.152 279.224 202.504 279.428 201.283 278.086C200.189 276.883 200.097 275.121 199.813 273.595L199.74 273.211C199.59 272.435 199.299 271.197 198.442 271.228C197.742 271.254 196.973 271.981 196.396 272.325C195.759 272.706 195.098 273.024 194.407 273.294C192.793 273.926 191 274.127 189.283 273.941C188.289 273.833 187.641 273.358 187.29 272.421C187.171 272.146 187.08 271.863 187.017 271.57C186.46 269.473 189.505 267.977 190.627 269.852C191.923 269.803 193.128 269.454 194.31 268.751ZM6.93588 254.731C7.86422 254.068 9.12495 254.211 9.95465 254.958L10.0041 255.004C10.234 255.227 10.7526 255.806 11.0884 256.315L11.1936 256.233C11.2104 256.22 11.2267 256.206 11.2425 256.194L11.288 256.156C11.9742 255.575 12.6912 255.043 13.5742 254.806C15.8749 254.187 17.9659 255.729 18.9704 257.707C19.4468 258.645 19.6507 259.614 19.8883 260.625L19.9085 260.718C20.0043 261.19 20.1288 262.146 20.5416 262.379C20.6933 262.465 21.0374 262.295 21.3779 262.099C22.1546 261.65 22.8518 261.078 23.6129 260.605C25.3987 259.495 27.428 259.037 29.4335 259.837C31.4189 260.628 32.8412 262.496 32.8746 264.674C32.8994 266.278 31.8262 269.079 29.8067 268.883C29.4021 268.844 28.8814 268.595 28.8159 268.128C28.6418 266.889 29.6175 265.367 28.4985 264.343C27.4165 263.354 26.2954 264.186 25.3159 264.872L24.614 265.365C23.474 266.158 22.3 266.884 20.8567 266.971C19.0306 267.08 17.3447 266.07 16.4258 264.514C15.595 263.107 15.5828 261.515 14.9333 260.07C14.7914 259.754 14.4253 259.464 14.5472 259.318C14.0549 259.575 13.42 260.315 13.1134 260.522C11.5865 261.553 9.54528 261.546 8.20681 260.178C7.67356 259.634 7.33404 258.962 6.9392 258.321C6.79645 258.089 6.61828 257.875 6.48803 257.636C6.44028 257.549 6.362 257.223 6.29764 256.933L6.19872 256.472L6.18838 256.397C6.10371 255.699 6.3499 255.149 6.93588 254.731ZM65.7455 248.638C67.4995 247.715 69.6618 248.066 71.2419 249.184C73.0137 250.437 73.8832 252.362 74.4745 254.396C74.9048 255.877 75.111 257.92 76.3475 258.992C77.7867 260.241 80.1993 258.916 81.7185 258.423C83.5566 257.828 85.7653 257.585 87.5588 258.465C89.3163 259.328 90.1633 261.088 90.3448 262.974C90.5143 264.733 90.2625 267.051 89.26 268.523C89.1613 268.668 88.973 268.631 88.9105 268.477C88.2516 266.853 88.3785 264.994 87.8435 263.313C87.2723 261.518 85.9335 261.138 84.2339 261.621C82.461 262.124 80.8376 263.067 79.0143 263.402C77.0704 263.76 75.1457 263.391 73.6132 262.105C72.324 261.022 71.5432 259.446 71.0156 257.875C70.5014 256.344 70.4176 254.294 69.3225 253.023C69.0462 252.702 68.5647 252.315 68.1176 252.274C67.4533 252.212 67.2132 252.706 66.6767 253.086C65.2612 254.086 63.0018 254.106 62.1351 252.347C61.8514 251.77 61.7107 250.953 62.1351 250.389C62.8792 249.401 63.4902 249.409 64.472 249.622C64.5032 249.596 64.5382 249.562 64.5773 249.516L64.6074 249.48C64.8671 249.15 65.3716 248.835 65.7455 248.638ZM135.213 238.255C135.271 236.932 136.861 235.663 138.115 236.587C138.317 236.734 138.516 236.885 138.712 237.042L138.792 237.129V237.129C139.025 237.128 139.243 237.067 139.473 236.993L139.876 236.863C140.934 236.527 141.952 236.257 143.081 236.505C145.025 236.932 146.258 238.611 146.891 240.393C147.482 242.054 147.288 243.749 147.565 245.452C147.827 247.067 148.656 247.697 150.212 247.351L150.291 247.333C153.386 246.591 156.912 244.515 159.625 247.361C162.556 250.434 160.639 255.316 157.43 257.291C157.29 257.377 157.135 257.235 157.167 257.088C157.593 255.102 158.837 253.209 158.42 251.102C158.131 249.641 157.118 248.95 155.672 249.183C152.63 249.673 149.785 252.1 146.665 250.338C145.106 249.458 144.247 247.804 143.859 246.11C143.509 244.586 143.609 242.867 142.938 241.428C142.205 239.855 140.971 240.996 139.64 241.21C137.758 241.514 135.113 240.526 135.213 238.255ZM33.1574 191.228C33.1513 189.914 35.1905 189.913 35.1966 191.228C35.2718 207.876 43.0493 223.265 44.4464 239.747C44.557 241.057 42.5173 241.049 42.4072 239.747C41.0096 223.26 33.2326 207.903 33.1574 191.228ZM201.544 218.479C202.617 217.262 204.19 217.64 205.468 218.25C207.387 219.166 209.223 220.196 210.983 221.386C211.416 221.679 211.143 222.315 210.634 222.217C209.342 221.969 208.086 221.69 206.833 221.287C205.892 220.984 204.912 220.544 203.93 220.388C203.992 220.615 204.067 220.836 204.154 221.054C204.316 221.5 204.503 221.937 204.661 222.384C204.977 223.276 205.262 224.18 205.538 225.085L205.675 225.537C206.249 227.434 206.807 230.195 204.159 230.779C203.176 230.996 202.203 230.567 201.289 230.23L201.101 230.162L197.767 228.979C197.37 228.838 196.634 228.74 196.305 228.492L196.358 228.746C196.426 229.082 196.493 229.412 196.637 229.747L196.718 229.932C197.546 231.812 198.59 233.693 197.624 235.771C196.797 237.551 194.841 238.396 192.956 237.891C191.165 237.411 189.869 235.391 190.796 233.634C191.142 232.979 192.153 232.659 192.795 233.068L192.968 233.183C193.17 233.315 193.519 233.542 193.527 233.584C193.575 233.597 193.625 233.609 193.676 233.622C193.568 233.303 193.495 232.813 193.4 232.596L193.051 231.803C192.402 230.313 191.84 228.796 192.335 227.124C193.753 222.336 198.562 225.058 202.109 226.424C202.057 226.222 202.006 226.022 201.963 225.827C201.81 225.133 201.642 224.444 201.477 223.754L201.138 222.33C200.832 221.018 200.594 219.556 201.544 218.479ZM20.0607 213.136C20.0576 213.023 20.1968 212.936 20.2944 213.002C22.5623 214.528 24.0794 217.716 23.2273 220.432C22.8136 221.75 21.9337 222.907 20.6984 223.547C19.1626 224.343 17.4668 224.04 15.8532 223.699L15.1678 223.553C14.6848 223.451 14.2081 223.376 13.7165 223.512C13.5477 223.559 13.352 223.706 13.1916 223.738C13.2579 223.851 13.3283 224.046 13.364 224.119L13.4808 224.354C13.5982 224.593 13.7127 224.841 13.7845 225.092C14.0257 225.933 13.966 226.836 13.5755 227.621C12.848 229.083 11.3222 229.908 9.73368 230.047C8.78724 230.131 6.40266 229.302 5.83882 230.307C4.71981 232.303 1.53332 230.96 2.15272 228.751C2.57152 227.257 3.75961 226.291 5.23165 225.887C6.01598 225.672 6.82783 225.701 7.62541 225.789C7.93781 225.824 8.24924 225.872 8.56204 225.905L8.79693 225.927C8.73575 225.922 9.44514 225.905 9.73011 225.886L9.66931 225.723C9.66038 225.699 9.6522 225.679 9.64498 225.664C9.32788 224.984 9.09286 224.308 9.11198 223.549C9.1469 222.18 10.0314 220.987 11.1935 220.328C12.2648 219.72 13.5406 219.478 14.7585 219.613C16.0972 219.762 17.9998 220.824 19.3164 220.265C20.3082 219.843 20.6449 218.372 20.6602 217.409C20.6831 215.957 20.1009 214.582 20.0607 213.136ZM112.429 203.616C116.078 201.977 119.211 204.777 121.352 207.457C121.462 207.595 121.323 207.828 121.149 207.72L120.865 207.543C119.117 206.445 117.178 205.148 115.012 205.522C113.051 205.86 112.565 207.145 112.955 208.897L113.07 209.389C113.485 211.193 113.803 213.059 112.77 214.736C111.794 216.32 109.891 217.012 108.108 217.054C106.052 217.103 104.277 216.145 102.397 215.477L102.249 215.425C101.45 215.149 98.5377 214.428 98.4974 216.071C98.4786 216.822 99.2815 217.704 99.5902 218.379C99.9942 219.262 100.263 220.19 100.258 221.17C100.246 223.616 98.2086 225.602 95.7975 224.416C94.8603 223.954 94.6186 222.631 95.1075 221.78C95.796 220.582 96.0747 220.644 95.5923 219.385L95.453 219.031C94.8595 217.514 94.3868 215.952 95.0537 214.36C96.3858 211.181 100.38 210.795 103.234 211.848L103.338 211.888C105.114 212.577 110.434 215.338 110.067 211.434C109.923 209.896 109.457 208.421 109.782 206.866C110.085 205.422 111.091 204.217 112.429 203.616ZM130.01 190.558C130.676 189.383 132.912 189.804 132.727 191.295L132.668 191.759C132.592 192.394 132.575 192.99 133.013 193.555C133.545 194.241 134.455 194.448 135.282 194.343C137.031 194.121 138.146 192.498 140.071 192.877C141.634 193.185 142.713 194.465 143.337 195.861C143.999 197.339 143.985 198.942 144.478 200.465C145.045 202.215 146.255 202.135 147.766 201.522L148.091 201.388C149.537 200.786 150.987 200.118 152.598 200.405C155.273 200.883 157.577 205.002 155.07 206.991C154.618 207.35 153.827 207.163 153.846 206.484L153.849 206.355C153.862 205.12 153.55 203.525 152.136 203.234C150.637 202.925 148.942 204.295 147.55 204.69C143.943 205.712 141.889 202.993 141.276 199.778L141.254 199.655C141.058 198.53 140.904 196.448 139.728 195.921C139.102 195.64 138.433 196.331 137.909 196.61C137.095 197.042 136.222 197.317 135.301 197.387C131.895 197.647 128.025 194.06 130.01 190.558ZM44.779 186.118C45.9014 185.631 47.575 185.902 47.8493 187.368L48.0156 188.291C48.3417 190.074 48.8609 192.303 50.6109 192.945C51.7054 193.347 52.9623 192.643 53.944 192.214C55.1229 191.698 56.2722 191.256 57.5633 191.133C60.1829 190.884 62.1341 192.402 63.0607 194.774L63.1415 194.985C63.8888 196.978 64.8988 200.79 63.2626 202.406C63.0237 202.643 62.5422 202.758 62.2491 202.537C61.2823 201.811 61.0377 200.617 60.7058 199.498L60.6771 199.402C60.3249 198.239 60.0361 196.959 59.4001 195.911C58.2179 193.965 55.1333 196.188 53.6495 196.701C51.213 197.544 48.6861 197.051 46.8241 195.248C45.648 194.109 44.9526 192.667 44.4744 191.141C44.1691 191.299 43.8522 191.436 43.5109 191.528C42.2109 191.88 40.6688 191.695 39.679 190.708C37.8213 188.858 38.8289 185.537 41.6614 186.074C42.2191 186.18 42.5851 186.713 42.6514 187.258L42.6894 187.344V187.344C43.4021 187.108 44.1813 186.377 44.779 186.118ZM176.031 169.581C178.678 166.855 183.27 168.333 185.08 171.225C185.456 171.824 184.836 172.584 184.176 172.402C182.601 171.967 180.378 170.256 178.713 171.345C177.478 172.153 178.15 174.263 178.263 175.444L178.279 175.62C178.422 177.227 178.454 179.425 177.204 180.628C176.485 181.321 175.381 181.227 174.433 181.128L174.131 181.097C173.013 180.984 171.901 180.787 170.83 180.442C169.845 180.126 168.912 179.696 167.986 179.24L167.755 179.126C167.346 178.922 165.98 178.115 165.571 178.622C165.357 178.887 165.886 180.045 165.996 180.303C166.411 181.275 166.938 182.19 167.319 183.179C167.989 184.921 168.046 186.886 167.104 188.549C166.191 190.16 164.214 191.465 162.461 190.227C161.458 189.519 161.461 188.23 162.461 187.52C162.991 187.145 163.525 186.898 163.743 186.268C164.029 185.448 163.662 184.577 163.306 183.817L162.88 182.914C161.937 180.895 160.995 178.574 162.312 176.511C163.673 174.381 166.438 174.347 168.53 175.234C169.724 175.741 170.814 176.42 172.058 176.812C172.919 177.083 173.783 177.265 174.665 177.364C174.861 176.301 174.583 175.112 174.58 174.057C174.576 172.453 174.874 170.774 176.031 169.581ZM39.5677 131.655C44.0336 130.999 46.1951 134.999 46.5035 138.851C46.7814 142.348 46.2155 145.855 45.331 149.256C44.9996 150.516 44.6275 151.762 44.2375 152.987C43.6104 154.955 42.9299 156.921 42.1014 158.815C41.8491 159.386 41.5942 159.961 41.3087 160.512C40.3308 161.315 39.4941 162.397 38.7333 163.436L38.2336 164.123V164.123L38.0995 164.308C36.8072 166.079 35.7035 167.917 34.8011 169.916C33.9417 171.819 33.302 173.804 32.8048 175.83L32.6826 176.335C32.3001 177.894 31.7363 179.755 32.4178 181.206C31.0796 181.619 29.749 181.994 28.3267 182.193C26.3639 182.469 24.3222 182.487 22.3416 182.416C20.428 182.345 18.5164 182.196 16.611 181.992L15.2382 181.841C15.096 181.825 14.9538 181.808 14.8119 181.79C14.8654 181.724 14.9113 181.65 14.9444 181.568C15.4336 180.394 15.3705 179.032 15.4247 177.769L15.4313 177.63C15.5027 176.228 15.546 174.827 15.5638 173.423C15.597 170.789 15.5256 168.147 15.2376 165.525C14.988 163.231 14.5978 160.936 13.9886 158.707C13.3743 156.448 12.4362 154.327 11.5696 152.158C10.7131 150.013 10.0068 147.811 10.0835 145.472C10.1319 143.987 10.4582 142.542 11.0113 141.176C11.0371 141.197 11.0697 141.212 11.1082 141.21C12.8441 141.146 14.4882 140.643 16.1654 140.219C17.9446 139.768 19.7671 139.397 21.5871 139.178L21.9739 139.132C23.4909 138.962 25.1433 138.879 26.5449 139.53C28.0616 140.237 29.0174 141.81 29.5935 143.318L29.6577 143.492C30.6812 146.352 30.4466 150.169 27.2816 151.522C26.3002 151.943 24.0596 152.201 23.5549 150.869C23.3281 150.261 23.7945 149.363 23.9704 148.788C24.1769 148.104 24.312 147.43 24.2967 146.716C24.2843 146.089 23.8061 145.616 23.1977 145.565L23.142 145.562C22.0357 145.514 19.7544 144.237 19.5326 146.075C19.4893 146.432 19.762 146.807 20.0501 146.981C20.6312 147.326 21.2379 147.556 21.8701 147.696C21.7834 148.079 21.661 148.454 21.541 148.826C21.4699 148.791 21.3908 148.768 21.3067 148.76C20.3712 148.684 19.446 148.832 18.5105 148.842L17.9991 148.845C17.2731 148.853 16.6401 148.892 15.936 149.268C15.286 149.615 15.4007 150.486 15.936 150.858C17.3405 151.833 19.7187 151.262 21.1818 150.271C21.1181 150.774 21.1487 151.287 21.3628 151.826C21.995 153.424 23.8073 154.22 25.4282 154.289C26.8686 154.35 28.2451 153.896 29.3947 153.099C29.6292 153.939 30.0064 154.746 30.1696 155.617C30.3837 156.76 30.1288 158.097 30.5262 159.172C30.9241 160.255 32.4611 160.979 33.3507 159.917C34.6533 158.365 34.248 155.907 33.1035 154.335C32.4943 153.503 31.388 152.548 30.2613 152.398C31.0439 151.66 31.6709 150.749 32.066 149.743C32.0941 149.756 32.1272 149.758 32.1629 149.748C35.8258 148.745 37.8191 145.421 37.9415 141.932C38.2117 142.126 38.4918 142.3 38.7852 142.455C39.4862 142.833 40.386 142.501 40.6026 141.718C40.8014 140.988 40.2228 140.087 39.4097 140.148C38.9458 140.186 38.4793 140.189 38.0179 140.112C37.9542 140.102 37.893 140.089 37.8293 140.076C37.7885 139.808 37.735 139.54 37.6687 139.275C39.0528 139.433 40.5007 139.206 41.8389 138.91C42.991 138.657 42.7234 136.822 41.5636 136.865L41.3773 136.873C39.8555 136.947 37.609 137.193 36.305 136.227C36.0756 135.895 35.8207 135.581 35.5454 135.285C35.5097 135.211 35.4791 135.132 35.4511 135.05C34.7501 133.029 38.0715 131.875 39.5677 131.655ZM79.6556 160.096C81.3943 159.631 83.224 160.265 84.4197 161.579C85.4245 162.684 85.9448 164.041 86.41 165.428L86.6754 166.226C87.062 167.356 87.5059 168.253 88.8873 167.822C90.6579 167.27 92.1926 166.308 94.1179 166.384C95.868 166.453 97.5807 167.207 98.7991 168.47C100.045 169.763 100.64 171.563 100.376 173.337L100.359 173.446C100.221 174.263 99.027 177.18 97.7617 175.838C97.1971 175.239 97.3084 174.576 97.1744 173.815C97.0469 173.09 96.7742 172.379 96.3273 171.791C95.5351 170.749 94.2609 170.343 93.0152 170.712C91.3721 171.198 89.921 172.2 88.1509 172.224C86.2889 172.249 84.708 171.282 83.681 169.764C82.8518 168.538 82.5561 167.104 81.9727 165.772L81.9165 165.645C81.4266 164.548 81.0927 164.152 79.9706 164.677L79.5786 164.865C77.8987 165.664 76.0088 166.396 74.2719 165.269C72.6582 164.222 71.9702 162.118 73.3275 160.587C74.0764 159.741 75.81 159.885 76.2966 160.97C76.382 161.156 76.4612 161.345 76.5392 161.535C76.6879 161.49 76.8324 161.434 76.9695 161.357C77.88 160.946 78.6707 160.36 79.6556 160.096ZM130.412 147.711C132.395 146.64 134.051 148.745 133.734 150.646L133.719 150.73C133.707 150.787 133.681 150.912 133.647 151.055C133.748 151.043 133.849 151.025 133.948 151L134.409 150.943C135.133 150.859 135.836 150.815 136.561 151.048C138.272 151.598 139.113 153.263 139.155 154.97C139.196 156.671 138.317 158.043 138.058 159.668C137.794 161.33 139.512 160.856 140.633 160.734L140.677 160.729C142.237 160.571 143.877 160.569 145.174 161.587C146.513 162.638 147.106 164.455 146.917 166.119C146.746 167.621 145.807 169.933 144.106 170.171C143.938 170.194 143.747 170.157 143.661 169.989C142.973 168.65 143.93 167.172 143.822 165.759C143.703 164.205 142.714 163.946 141.35 164.047C140.026 164.144 138.706 164.426 137.399 164.03C135.98 163.601 134.951 162.382 134.66 160.945C134.339 159.36 134.929 157.886 135.311 156.381C135.439 155.881 135.501 155.377 135.413 154.866C135.395 154.756 135.299 154.654 135.264 154.61C135.046 154.569 134.721 154.673 134.534 154.693L134.27 154.719C132.834 154.849 131.45 154.762 130.423 153.574C129.897 152.965 129.703 152.221 129.756 151.435L129.782 151.118C129.81 150.813 129.864 150.41 130.022 150.242L130.024 150.234V150.234C129.971 150.163 129.921 150.089 129.875 150.013L129.83 149.936C129.39 149.202 129.645 148.125 130.412 147.711ZM28.8063 129.08C30.7817 129.08 32.6479 129.726 34.1416 131.484C33.6088 131.992 33.1832 132.582 32.9484 133.274C32.2171 132.873 31.4422 132.559 30.6495 132.337C28.2305 131.66 24.9219 131.671 22.8878 133.332C21.8223 134.2 22.9923 135.757 24.1393 135.489C25.1666 135.249 26.0587 134.805 27.1369 134.754C28.0724 134.708 28.9901 134.831 29.8873 135.101C31.2561 135.515 32.5 136.298 33.4151 137.378C33.721 137.741 33.9886 138.134 34.2129 138.558C35.9208 141.804 34.6335 146.46 32.2757 149.133C33.201 146.054 32.2783 142.424 30.4353 139.875C28.2166 136.805 24.8981 136.457 21.4021 136.936L21.2867 136.952C17.9045 137.429 13.7165 138.264 11.1879 140.753C11.4402 140.178 11.7308 139.622 12.0573 139.083C13.9739 135.923 17.1525 133.457 20.4509 131.699C21.0041 131.4 21.5623 131.124 22.118 130.869C24.2311 129.897 26.5864 129.08 28.8063 129.08ZM27.7241 104.964L27.7318 105C27.7334 105.006 27.7351 105.013 27.7368 105.02C27.8536 106.058 27.5779 107.249 27.4373 108.297L27.4182 108.445C27.1225 110.83 26.7325 113.216 26.605 115.618C26.4809 117.928 26.5287 120.324 26.806 122.624L26.8472 122.952C27.0103 124.205 27.1072 125.675 27.5301 126.962C25.9041 127.117 24.2778 127.641 22.7993 128.197C22.2691 128.399 21.7415 128.611 21.2164 128.835C21.874 125.336 22.2258 121.785 22.9395 118.296L23.08 117.601C23.8559 113.741 24.5842 109.857 26.5897 106.403C26.8574 105.944 27.1454 105.559 27.4717 105.148C27.5431 105.053 27.6272 104.992 27.7241 104.964Z" fill="black"></path> <path fill-rule="evenodd" clip-rule="evenodd" d="M69.4564 64.6852C70.4006 57.1243 73.3665 49.0966 76.4857 42.0477C83.4995 27.1444 99.5565 25.0925 113.951 22.0197C128.156 19.9445 143.197 18.0707 157.188 22.2112C165.053 24.1448 168.125 33.5448 166.883 40.9628C166.175 45.5852 164.078 49.96 162.29 54.244C158.737 63.0416 156.482 72.4603 156.478 81.9854C156.722 88.2101 157.598 95.3148 150.469 97.9514C143.686 101.336 143.113 110.512 134.62 115.718C131.186 122.699 121.83 123.314 115.097 124.933C110.842 125.75 106.538 126.352 102.222 126.741C89.7265 128.347 79.7301 124.714 73.1889 113.543C68.8116 106.745 65.552 98.8956 66.3573 90.6564C67.1593 81.9803 68.4955 73.3496 69.4564 64.6852Z" fill="#EDB98A"></path> <path fill-rule="evenodd" clip-rule="evenodd" d="M113.843 3.9073C113.13 3.0961 112.031 3.37433 111.364 4.01578C110.93 4.14418 110.509 4.33511 110.112 4.58781C109.214 4.47218 108.273 4.47218 107.392 4.5046C107.178 4.38437 106.95 4.27742 106.7 4.18553C104.92 3.53233 103.343 3.86416 102.042 4.73867C101.416 4.14392 100.626 3.77074 99.6153 3.82715C98.7136 3.87769 98.0711 4.30346 97.5204 4.86425C96.9712 4.06964 96.0835 3.50272 94.9775 3.42385C93.4318 3.31358 91.9458 3.93563 90.7142 4.89871C89.9966 4.07271 89.0184 3.59793 87.9282 3.59334C87.2109 3.46265 86.4539 3.51421 85.7699 3.72148C84.7769 4.02242 83.9049 4.58628 83.2105 5.3181C82.1119 4.26236 80.7671 3.50272 79.2166 3.6135C77.2096 3.759 75.5461 5.23973 74.7729 7.06226C73.4146 7.60825 72.1606 8.38703 71.1126 9.49739C71.0566 9.55585 71.0032 9.61711 70.9473 9.67863C70.3826 9.88768 69.851 10.184 69.3829 10.5743C67.9 11.8126 67.5694 13.6045 68.0603 15.3604C67.9916 15.6414 67.9331 15.9273 67.8797 16.2129C66.4909 16.4248 65.2292 17.2291 64.5119 18.5385C63.5301 20.3355 63.7234 22.7041 64.7866 24.4196C65.2437 25.1576 65.8239 25.7794 66.4756 26.3231C65.7387 28.0026 66.0923 30.0069 67.2804 31.3654C67.5699 31.8338 67.9252 32.2565 68.3251 32.6391C67.8837 34.3756 68.6687 36.1672 70.2356 37.0951L70.3696 37.4317C70.3921 37.4877 70.415 37.5433 70.4385 37.5985C70.4558 37.6699 70.4772 37.7391 70.4983 37.8088C70.5357 38.425 70.7379 39.0297 71.1393 39.5994C71.961 40.767 72.9796 41.5284 73.5197 42.8914L73.5738 43.0346C73.806 43.6797 74.5559 44.1348 75.1948 43.9357C71.6473 51.2465 69.7874 59.3812 68.5105 67.3533C67.8738 71.3305 67.3824 75.3214 66.9839 79.3277L66.5931 83.3172C66.2494 86.8633 65.9434 90.4212 65.9414 93.979C65.9364 102.027 68.2307 109.769 73.1551 116.174C77.8125 122.228 84.403 126.616 91.8481 128.344C99.5349 130.126 108.552 129.424 115.445 125.345C117.478 124.145 115.697 121.261 113.629 122.226C109.714 124.053 105.736 125.411 101.397 125.715C97.1668 126.014 92.9266 125.483 88.9153 124.094C82.2791 121.794 76.6322 116.978 73.0025 110.979C71.2143 108.023 69.9196 104.815 69.2303 101.425C68.3723 97.1996 68.5016 92.8324 68.8168 88.5532L68.8386 88.2616C69.4618 80.0166 70.2834 71.7208 71.6112 63.5579C72.7848 56.3396 74.5895 49.2675 76.9324 42.3518C77.8501 41.5411 78.8767 40.8703 79.9753 40.3608C88.02 40.0236 96.0792 40.1222 104.113 40.6791C110.965 41.1573 117.784 41.9661 124.551 43.1451L125.276 43.2728C126.774 43.5406 128.438 43.6937 129.85 44.2989C131.06 44.8196 131.551 45.8202 131.857 47.0503C132.625 50.1619 132.742 53.5672 132.872 56.7579C132.999 59.8769 132.711 63.0219 132.961 66.1307C133.172 68.7317 133.836 71.394 135.756 73.2755C136.761 74.2605 137.997 74.7991 139.157 75.547C139.907 76.0297 140.225 76.5272 140.128 77.4206C139.92 79.3759 138.35 81.8391 140.113 83.5136C140.424 83.8071 140.96 83.8454 141.265 83.5136C141.993 82.72 142.998 82.1148 143.86 81.4741C144.221 81.2089 143.921 80.6932 143.511 80.8768C142.972 81.1195 142.423 81.4054 141.861 81.6556C143.102 80.6294 144.867 80.1263 146.337 79.8277C147.078 79.6796 147.856 79.6362 148.627 79.7054C149.196 79.9783 149.779 80.2312 150.361 80.4786C151.102 80.7902 151.849 81.0733 152.602 81.3416C155.215 83.4778 156.461 86.9521 155.917 90.3496C155.619 92.2254 154.757 94.2652 153.131 95.3602C151.206 96.6569 148.627 96.1002 146.546 97.0628C144.598 97.9636 143.412 99.7838 142.525 101.668L142.154 102.452C141.33 104.188 140.484 105.879 139.358 107.459C138.055 109.289 136.461 110.933 134.721 112.345C133.877 113.028 132.977 113.643 132.047 114.202L131.793 114.354C130.852 114.908 130.178 115.436 130.114 116.607C130.094 117.016 130.351 117.389 130.681 117.6C132.106 118.507 133.523 117.373 134.708 116.582C135.987 115.729 137.211 114.77 138.343 113.723C140.495 111.737 142.357 109.379 143.789 106.818C144.88 104.868 145.501 102.124 147.225 100.613C148.278 99.6916 149.766 99.6842 151.081 99.5155C152.305 99.3575 153.462 99.1023 154.551 98.4973C158.979 96.029 160.231 90.0535 159.18 85.4359C159.002 84.6571 158.753 83.899 158.445 83.169C160.093 83.4446 161.945 81.7347 161.276 80.0089C161.225 79.8787 161.167 79.7565 161.111 79.6311C162.197 78.9139 163.054 77.8267 163.461 76.4047C163.67 75.6696 163.7 74.9268 163.591 74.2095C164.117 73.8549 164.552 73.3672 164.832 72.7673C165.707 72.3614 166.483 71.7542 166.946 70.8863C167.587 69.6889 167.505 68.5862 167.017 67.5933C167.086 67.4685 167.152 67.3408 167.215 67.2104C169.009 66.0697 170.26 64.1039 170.118 61.9241C170.072 61.2017 169.894 60.5508 169.619 59.9639C169.642 59.8899 169.665 59.8131 169.685 59.7391C171.186 58.9733 172.427 57.7151 172.87 56.0356C173.312 54.3455 172.791 52.6608 171.748 51.3641C173.274 50.2438 174.193 48.6791 173.635 46.3126C173.409 45.3506 172.954 44.4748 172.338 43.7371C172.341 43.7144 172.346 43.6914 172.351 43.6682L172.494 43.5571C174.378 42.0651 175.461 40.1638 174.304 37.8254C173.786 36.774 173.045 36.0412 172.175 35.5587L172.132 35.4209V35.4209C172.755 34.0808 172.966 32.5927 172.537 31.0279C172.186 29.7392 171.354 28.7128 170.291 28.0315C170.362 27.4544 170.352 26.8394 170.237 26.173C170.046 25.0476 169.489 24.0648 168.675 23.368C168.645 23.2197 168.607 23.0744 168.563 22.9287C168.289 22.0381 167.775 21.0707 167.18 20.3532C166.689 19.7584 166.139 19.5414 165.468 19.5185C165.509 18.9699 165.481 18.4132 165.369 17.8491C165.025 16.1085 163.921 14.4721 162.286 13.7293C161.614 13.4255 160.907 13.3364 160.226 13.4102C159.646 12.185 158.514 11.2969 157.122 11.1055C156.581 11.0289 156.077 11.0338 155.614 11.103C155.352 10.9802 155.08 10.8707 154.795 10.7709C154.607 10.7045 154.416 10.6432 154.225 10.5822C153.582 9.78073 152.735 9.13978 151.745 8.7546C150.603 8.3079 149.441 8.3536 148.41 8.72882L148.082 8.6599V8.6599C147.569 7.76651 146.749 7.07477 145.49 6.7608C144.061 6.406 142.593 6.90119 141.469 7.8025C141.464 7.8025 141.459 7.8025 141.451 7.79969C140.864 6.48002 139.859 5.5611 138.172 5.62491C137.122 5.66576 136.173 6.18928 135.441 6.93463C135.034 6.88332 134.627 6.83738 134.217 6.79169C133.785 6.28347 133.304 5.80895 132.772 5.38268C131.902 4.68302 130.77 4.73943 130.13 5.72446C129.99 5.93888 129.86 6.15585 129.73 6.37281L129.143 6.33197V6.33197C128.451 5.39518 127.507 4.76215 126.215 4.71136C125.03 4.6626 124.185 5.24484 123.542 6.05885C123.018 6.04609 122.491 6.03613 121.965 6.02822C121.351 5.31606 120.629 4.68813 119.805 4.16741C119.174 3.76921 118.243 3.90475 117.732 4.43568C117.387 4.79661 117.065 5.17337 116.766 5.5634C115.996 4.69655 114.955 4.12554 113.843 3.9073ZM151.28 84.9637C150.092 84.2847 148.495 85.0199 147.345 85.5967C145.943 86.2987 144.552 87.358 143.695 88.6853C142.527 90.4926 145.272 91.9526 146.5 90.3318C147.256 89.3337 147.859 88.328 148.774 87.455C149.611 86.6535 150.825 86.1175 151.305 85.0607C151.323 85.025 151.318 84.9841 151.28 84.9637Z" fill="black"></path> <path fill-rule="evenodd" clip-rule="evenodd" d="M93.5414 108.122C95.2892 107.627 96.9067 106.659 98.1577 105.333C98.5926 104.872 98.7496 104.352 98.7237 103.857C98.6945 103.302 98.4244 102.771 98.0181 102.391C97.6106 102.009 97.073 101.784 96.5264 101.809C96.0515 101.831 95.5586 102.034 95.1326 102.521L95.0441 102.618C94.2989 103.419 93.3745 104.043 92.3602 104.398C91.3827 104.741 90.3215 104.835 89.2604 104.597C87.2394 104.142 85.9505 102.887 84.6165 101.229C84.4515 101.02 84.2871 100.805 84.1221 100.586C84.0239 100.394 83.8728 100.261 83.6977 100.181C83.5033 100.092 83.2745 100.07 83.0573 100.12C82.8478 100.168 82.6528 100.281 82.5124 100.444C82.3789 100.599 82.2909 100.799 82.2857 101.04C82.2518 102.604 82.9133 104.075 83.95 105.287C85.1014 106.633 86.7121 107.654 88.283 108.122C90.0136 108.638 91.8388 108.604 93.5414 108.122V108.122ZM90.1528 83.5703C88.1483 84.4999 84.9925 86.8342 86.7028 89.8713C88.8079 92.6146 92.5483 90.1439 94.3787 89.0418C96.0543 88.2157 97.5296 90.9745 95.9485 91.9802C82.7573 99.6227 79.6151 82.7154 89.35 82.1308C90.4218 82.0663 90.684 83.2729 90.1528 83.5703ZM113.168 75.521C113.243 72.9359 109.383 71.9237 108.712 74.4165C108.111 76.6494 108.292 78.7811 109.095 80.9388C109.863 83.0002 112.434 82.3597 112.818 80.6013C113.332 78.2441 113.121 77.1291 113.168 75.521ZM83.4169 71.1108C82.9485 70.3382 82.2122 69.7651 81.2352 69.9362C78.1829 70.4713 78.5932 74.7415 79.4073 76.8875C79.8497 78.0529 81.643 78.5327 82.5747 77.6515C84.0935 76.2143 85.0867 73.1206 83.5509 71.3726C83.5135 71.2869 83.471 71.1998 83.4169 71.1108ZM111.016 63.9367L110.558 63.8042C109.141 63.3972 107.37 62.9614 106.22 64.0046C105.61 64.5577 105.298 65.6759 105.962 66.3422C107.13 67.5145 108.591 67.2701 110.118 67.5259C111.376 67.7369 112.57 68.0787 113.751 68.559C116.342 69.6127 118.369 71.2398 120.486 73.0144C120.763 73.2472 121.112 72.8995 120.999 72.605C119.964 69.8914 117.641 67.5008 115.223 65.9338C113.932 65.0973 112.499 64.3638 111.016 63.9367ZM87.3538 60.178L86.9882 60.2115C83.0078 60.5936 77.7738 61.6547 75.5112 65.2529C75.3816 65.7826 75.4431 65.9059 75.4951 65.9878L75.5124 66.015C75.555 66.0847 75.5849 66.1776 75.811 66.2765C75.8778 66.2682 75.9452 66.2591 76.0135 66.2491C76.8824 66.1216 77.5842 65.8917 78.2659 65.648L79.0053 65.3813C79.863 65.0738 80.7263 64.7815 81.6276 64.5946C83.5509 64.196 85.5077 63.9812 87.4723 63.9673C87.8981 63.9644 88.3185 63.8677 88.6645 63.6609C88.993 63.4647 89.2597 63.1724 89.412 62.7616C89.6092 62.23 89.6156 61.8119 89.3752 61.2865C89.1943 60.8919 88.9054 60.6004 88.5573 60.4131C88.2024 60.2221 87.7834 60.1403 87.3538 60.178Z" fill="black"></path> <path fill-rule="evenodd" clip-rule="evenodd" d="M111.895 110.919C109.831 106.077 105.327 102.519 100.141 101.218C96.3328 100.265 92.3362 100.296 88.4541 100.674C86.4202 100.871 84.2386 101.032 82.3217 101.788C80.6849 102.435 79.351 103.656 78.3481 105.09C77.1542 106.789 76.3421 108.733 75.7719 110.726C75.6909 111.01 75.6148 111.295 75.5438 111.582C75.7918 113.086 76.3182 114.366 77.7091 115.311C79.0664 116.235 80.6859 116.612 82.3004 116.746C82.4587 116.67 82.6117 116.592 82.752 116.512C85.2678 115.07 87.0385 111.661 90.2139 112.123C93.0477 112.535 94.9131 116.105 96.5983 118.199C102.008 118.83 107.413 117.202 111.814 114.105C112.038 113.045 112.051 111.976 111.895 110.919M71.8683 107.246C72.301 106.03 72.846 104.853 73.4921 103.743C75.6279 100.074 78.9066 97.1504 82.7988 95.4792C92.0063 91.5313 103.92 94.3143 111.355 100.789C113.895 103.002 116.464 106.255 117.24 109.754C117.472 109.8 117.691 109.921 117.871 110.091C123.244 106.704 128.776 103.445 133.105 98.75C136.249 95.3387 138.436 91.3016 139.775 86.8654C139.884 86.5002 140.472 86.5536 140.454 86.9576C140.449 87.0522 140.444 87.1464 140.439 87.241C140.495 87.0672 140.76 87.1567 140.78 87.3253C141.501 92.7144 142.402 98.428 141.572 103.845C141.075 107.078 139.609 109.444 137.649 111.999C135.549 114.738 133.171 117.286 130.74 119.729C129.198 121.28 127.586 123.069 125.697 124.206C123.501 125.527 121.008 126.531 118.664 127.551C116.279 128.591 113.858 129.551 111.391 130.384C106.46 132.056 101.364 133.211 96.1786 133.716C92.0267 134.12 87.2817 134.56 83.3029 132.996C80.2532 131.797 77.7916 129.631 75.8392 127.024C73.7136 124.185 72.0332 120.952 71.1043 117.542C70.139 113.999 71.6649 107.817 71.8683 107.246" fill="black"></path> </g> <defs> <clipPath id="clip0"> <rect width="223" height="290" fill="white"></rect> </clipPath> </defs> </svg> 