<?xml version="1.0" encoding="UTF-8"?> <svg xmlns="http://www.w3.org/2000/svg" width="126" height="100" viewBox="0 0 126 100" fill="none"> <path d="M106.244 100C102.103 100 98.0631 98.5445 94.863 95.9014C91.3808 93.0244 89.1696 88.9835 88.4693 84.2175L88.4014 83.7603L88.0258 83.7577C87.1961 83.7524 86.3664 83.7498 85.5366 83.7498C79.9387 83.7498 16.8536 83.868 11.7522 84.1071C11.1474 84.136 10.6445 84.1492 10.1671 84.1492C7.9941 84.1492 4.86195 83.8917 2.77387 81.6715C-0.608661 78.072 -0.137557 72.5467 0.318681 67.2C0.456613 65.5815 0.586061 64.055 0.613647 62.5758C0.734604 56.1309 0.656081 49.5808 0.579688 43.2436C0.533003 39.3551 0.484204 35.3378 0.482082 31.3862C0.482082 29.5576 0.445993 27.6948 0.414162 25.895C0.371722 23.5935 0.327176 21.2104 0.352641 18.8905C0.399326 14.5553 1.61313 11.5837 4.17019 9.53965L4.25505 9.47135L4.3081 9.36625C6.51926 5.00481 11.2748 4.09048 14.8737 4.09048H15.0414C18.4367 4.11675 80.274 4.14566 84.2104 4.14566C85.5621 4.14566 86.9138 4.14302 88.2656 4.13514C91.8582 4.11412 95.4508 4.08522 99.0434 4.05632C101.526 4.0353 104.009 4.01692 106.492 3.99853C107.324 3.99327 108.158 3.95911 109.042 3.92232C110.006 3.88291 111.001 3.84351 111.984 3.84351C113.768 3.84351 116.088 3.95648 118.193 4.84716C122.373 6.61276 122.993 12.5375 122.774 17.1984C122.278 27.8288 122.329 37.9994 122.445 46.5488C122.464 47.9492 122.494 49.347 122.524 50.8262C122.7 59.2285 122.88 67.9146 121.132 75.597C120.1 80.1266 116.164 80.752 112.064 80.752C111.485 80.752 110.918 80.7388 110.371 80.7283C110.146 80.7231 109.925 80.7178 109.711 80.7152L109.236 80.7073L109.253 81.2932C109.401 86.414 110.763 93.1663 116.404 96.2561C116.451 96.2824 116.453 96.2955 116.453 96.3402C116.448 96.4637 116.364 96.6239 116.279 96.6607C116.26 96.6686 116.243 96.6765 116.226 96.6817C116.202 96.6922 116.177 96.7001 116.153 96.7106L116.109 96.7317L116.069 96.7632C113.284 98.8808 109.887 100 106.244 100Z" fill="#44E8AD"></path> <path d="M108.902 96.708C104.762 96.708 100.722 95.2524 97.5217 92.6093C94.0395 89.7323 91.8283 85.6914 91.128 80.9254L91.0601 80.4682L90.6845 80.4656C89.8548 80.4603 89.0251 80.4577 88.1954 80.4577C82.5974 80.4577 19.5123 80.5759 14.4109 80.815C13.8061 80.8439 13.3032 80.8571 12.8258 80.8571C10.6528 80.8571 7.52065 80.5996 5.43256 78.3794C2.05003 74.7799 2.52113 69.2546 2.97737 63.9079C3.1153 62.2894 3.24475 60.7629 3.27234 59.2837C3.3933 52.8388 3.31477 46.2887 3.23838 39.9515C3.19169 36.063 3.1429 32.0457 3.14077 28.0941C3.14077 26.2655 3.10468 24.4027 3.07285 22.6029C3.03041 20.3014 2.98587 17.9183 3.01133 15.5984C3.05802 11.2632 4.27182 8.29163 6.82888 6.24753L6.91374 6.17924L6.96679 6.07413C9.17796 1.7127 13.9335 0.798365 17.5324 0.798365H17.7001C21.0953 0.824639 82.9327 0.853546 86.8691 0.853546C88.2208 0.853546 89.5726 0.850908 90.9243 0.843026C94.5169 0.822007 98.1095 0.793109 101.702 0.764208C104.185 0.743189 106.668 0.724805 109.15 0.706414C109.982 0.701159 110.816 0.666993 111.701 0.63021C112.665 0.590799 113.66 0.551392 114.642 0.551392C116.427 0.551392 118.746 0.664371 120.851 1.55505C125.032 3.32064 125.651 9.24537 125.433 13.9063C124.936 24.5367 124.987 34.7073 125.104 43.2567C125.123 44.6571 125.153 46.0549 125.183 47.5341C125.359 55.9364 125.539 64.6225 123.79 72.3049C122.759 76.8345 118.823 77.4598 114.723 77.4598C114.144 77.4598 113.577 77.4467 113.03 77.4362C112.805 77.431 112.584 77.4257 112.37 77.4231L111.894 77.4152L111.911 78.0011C112.06 83.1219 113.422 89.8742 119.063 92.964C119.109 92.9902 119.111 93.0034 119.111 93.0481C119.107 93.1716 119.022 93.3318 118.937 93.3686C118.918 93.3765 118.901 93.3844 118.884 93.3896C118.861 93.4001 118.835 93.408 118.812 93.4185L118.768 93.4396L118.727 93.4711C115.943 95.5887 112.546 96.708 108.902 96.708Z" fill="white"></path> <path d="M121.073 1.03237C117.404 -0.515155 113.039 0.128543 109.223 0.154817C103.148 0.196855 97.0748 0.254662 90.9994 0.291445C85.8874 0.320346 23.1043 0.286195 17.9923 0.246784C13.935 0.215256 9.1413 1.31087 6.87497 5.78266C3.99537 8.08423 2.89613 11.3842 2.84945 15.5959C2.80489 19.7445 2.97467 23.9378 2.97892 28.0995C2.98316 38.4881 3.30783 48.8873 3.11048 59.2759C2.98952 65.7235 0.827151 73.913 5.42773 78.8078C7.89778 81.4351 11.658 81.5219 14.7159 81.3774C20.8401 81.0883 84.6269 80.9885 90.7575 81.0279C92.9623 96.0276 109.268 101.377 119.038 93.9493C119.082 93.9309 119.127 93.9152 119.172 93.8941C119.628 93.6866 119.878 92.7565 119.324 92.4544C114.512 89.8191 112.621 84.1466 112.44 77.9828C116.674 78.0563 122.923 78.5188 124.303 72.4601C126.382 63.3352 125.758 52.6103 125.633 43.2516C125.499 33.4305 125.504 23.7407 125.962 13.9433C126.193 8.96177 125.461 2.88466 121.073 1.03237ZM91.9055 80.0952C91.8991 80.0505 91.8822 80.0242 91.8715 79.9875C91.8673 79.9638 91.8588 79.9454 91.8524 79.9218C91.8291 79.8508 91.8036 79.7878 91.7697 79.7379C91.7378 79.6853 91.6954 79.6485 91.653 79.6091C91.6487 79.6065 91.6445 79.6012 91.6402 79.5986C91.5469 79.5145 91.4365 79.4541 91.2901 79.4515C86.3415 79.4147 23.7218 79.4252 18.7753 79.5934C14.7541 79.7326 10.2511 80.7074 6.63305 77.9591C1.74813 74.2467 4.28819 64.3073 4.39642 58.5718C4.56406 49.7543 4.32427 40.9237 4.26698 32.1089C4.23939 28.0102 4.32851 23.9141 4.31578 19.8181C4.30305 15.7036 3.84681 11.8729 5.8585 8.90397C5.56566 10.6065 5.58051 12.3984 5.66752 14.1167C5.83304 17.3641 5.73968 20.5958 5.73544 23.8511C5.72058 34.5602 6.07072 45.2799 5.867 55.9864C5.74605 62.434 3.58367 70.6235 8.18425 75.5183C10.6543 78.1457 14.4145 78.2324 17.4724 78.0879C23.5966 77.7989 87.3813 77.699 93.5098 77.7384C95.0949 88.7682 103.732 95.3313 112.37 95.3339C103.598 97.2256 93.3315 91.6609 91.9055 80.0952ZM124.653 14.6842C124.275 22.7686 124.152 30.7663 124.288 38.8744C124.453 48.8216 124.636 58.8109 123.479 68.6845C123.237 70.7628 123.242 72.8883 121.962 74.4595C119.685 77.2576 114.647 76.3985 111.719 76.3932C111.195 76.3932 111.01 77.0317 111.154 77.4967C111.246 83.7551 112.999 89.7219 117.347 92.943C107.77 96.13 96.2344 89.6641 94.6641 76.8083C94.6578 76.7637 94.6408 76.7374 94.6302 76.698C94.626 76.677 94.6196 76.656 94.6111 76.6349C94.5877 76.564 94.5623 76.4983 94.5262 76.4484C94.4965 76.3985 94.4562 76.3617 94.4159 76.3249C94.4095 76.3197 94.4052 76.3118 94.3989 76.3091C94.3034 76.2277 94.1952 76.1647 94.0487 76.1647C89.4588 76.1305 27.1956 76.1384 22.6056 76.2724C18.5971 76.388 14.1811 77.3706 10.3742 75.358C4.85691 72.439 6.83677 63.5086 7.08717 57.8676C7.42033 50.3245 7.15082 42.7103 7.07868 35.1645C7.01501 28.4805 7.41183 21.6257 6.99379 14.9653C6.63941 9.29807 7.57947 4.66864 12.4029 2.7165C17.3557 0.711819 81.4651 1.8994 86.6407 1.88626C96.7586 1.85999 106.904 1.44487 117.02 1.726C123.543 1.90466 124.975 7.77946 124.653 14.6842Z" fill="#1A1A1A"></path> <path d="M49.459 30.2695C49.459 29.6901 49.3092 29.2539 49.0098 28.9609C48.7168 28.6615 48.1797 28.3522 47.3984 28.0332C45.9727 27.4928 44.9473 26.8613 44.3223 26.1387C43.6973 25.4095 43.3848 24.5501 43.3848 23.5605C43.3848 22.3626 43.8079 21.4023 44.6543 20.6797C45.5072 19.9505 46.5879 19.5859 47.8965 19.5859C48.7689 19.5859 49.5469 19.7715 50.2305 20.1426C50.9141 20.5072 51.4382 21.0247 51.8027 21.6953C52.1738 22.3659 52.3594 23.1276 52.3594 23.9805H49.498C49.498 23.3164 49.3548 22.8118 49.0684 22.4668C48.7884 22.1152 48.3815 21.9395 47.8477 21.9395C47.3464 21.9395 46.9557 22.0892 46.6758 22.3887C46.3958 22.6816 46.2559 23.0788 46.2559 23.5801C46.2559 23.9707 46.4121 24.3255 46.7246 24.6445C47.0371 24.957 47.5905 25.2826 48.3848 25.6211C49.7715 26.1224 50.7773 26.7376 51.4023 27.4668C52.0339 28.196 52.3496 29.1237 52.3496 30.25C52.3496 31.487 51.9557 32.4538 51.168 33.1504C50.3802 33.847 49.3092 34.1953 47.9551 34.1953C47.0371 34.1953 46.2005 34.0065 45.4453 33.6289C44.6901 33.2513 44.0977 32.7109 43.668 32.0078C43.2448 31.3047 43.0332 30.4746 43.0332 29.5176H45.9141C45.9141 30.3379 46.0736 30.9336 46.3926 31.3047C46.7116 31.6758 47.2324 31.8613 47.9551 31.8613C48.9577 31.8613 49.459 31.3307 49.459 30.2695ZM61.041 31.0898H57.125L56.3633 34H53.3262L57.7695 19.7812H60.3965L64.8691 34H61.8027L61.041 31.0898ZM57.75 28.6973H60.4062L59.0781 23.6289L57.75 28.6973ZM70.0742 30.0938L72.4668 19.7812H75.6699L71.5684 34H68.5801L64.5078 19.7812H67.6914L70.0742 30.0938ZM84.3516 27.8477H79.8789V31.6172H85.1719V34H77.0078V19.7812H85.1523V22.1738H79.8789V25.5332H84.3516V27.8477ZM53.7168 46.1738H50.2012V58H47.3203V46.1738H43.8633V43.7812H53.7168V46.1738ZM58.3652 58H55.4941V43.7812H58.3652V58ZM64.5273 43.7812L67.2129 54.0645L69.8887 43.7812H73.6387V58H70.7578V54.1523L71.0215 48.2246L68.1797 58H66.2266L63.3848 48.2246L63.6484 54.1523V58H60.7773V43.7812H64.5273ZM83.2969 51.8477H78.8242V55.6172H84.1172V58H75.9531V43.7812H84.0977V46.1738H78.8242V49.5332H83.2969V51.8477Z" fill="#1A1A1A"></path> </svg> 