<?xml version="1.0" encoding="UTF-8"?> <svg xmlns="http://www.w3.org/2000/svg" width="147" height="311" viewBox="0 0 147 311" fill="none"> <path fill-rule="evenodd" clip-rule="evenodd" d="M83.9093 202.412C84.3392 206.739 85.1503 211.107 85.8015 215.354C85.8276 216.096 86.8527 216.457 87.348 215.905C87.3351 206.25 84.7455 196.344 85.6628 186.487C84.9234 186.076 84.1706 185.621 83.4525 185.167C82.4838 186.44 82.3767 187.91 82.5357 189.244C82.6575 193.646 83.3719 198.035 83.9093 202.412ZM125.28 143.804L126.365 143.696C126.9 134.839 125.398 126.137 123.645 117.577L122.553 117.641C122.169 122.574 119.639 127.247 120.797 132.323C121.905 136.333 124.252 139.789 125.28 143.804ZM1.46302 99.1942L2.09847 99.3295C0.914688 97.0939 2.01863 96.3583 3.35811 94.5101L3.50399 94.8459L4.01936 93.723C4.12169 93.4379 4.22621 93.1958 4.50882 93.0892C4.78491 91.6922 5.60671 90.4128 6.70118 89.7179L6.91079 89.9526C7.34456 89.5747 7.86742 89.4309 8.36526 89.2558C7.2967 87.6478 6.60933 85.5616 5.88876 83.8375C5.30205 82.0268 4.38477 80.2694 4.21243 78.4333C4.35114 76.6686 6.02427 77.8149 6.84033 78.6951C9.33304 80.874 11.4799 84.325 13.0886 88.5159C15.8512 87.7995 17.436 88.5555 18.2035 92.318C18.9099 94.874 19.632 97.4957 19.7274 100.146C20.0983 100.019 20.7563 99.5418 21.1118 99.9159C27.2518 106.612 34.5015 111.771 41.5128 117.417C46.8113 113.532 49.5685 105.846 52.4826 100.076C57.5661 90.1725 62.6498 75.6738 75.7257 75.7249C77.4586 75.5448 79.151 75.3383 80.7868 74.8367C81.4203 74.6652 82.2034 74.4586 82.4184 74.075C82.8059 72.8398 82.8793 71.5033 83.5605 70.3705C85.4298 67.3418 89.4797 67.1037 92.6533 67.7613C98.0416 68.7567 97.9059 68.1756 98.2949 73.8243C98.4116 75.1652 99.4544 75.3573 100.568 75.635C101.831 76.0322 103.119 76.3567 104.418 76.6182C104.283 76.5804 104.148 76.5431 104.014 76.5051C125.102 76.8381 139.104 101.22 141.881 118.47C145.108 136.117 140.935 155.758 134.338 170.58C134.621 175.978 133.558 181.4 132.886 186.72C132.464 188.051 131.002 188.181 130.584 186.639L130.069 184.61L129.518 186.63C129.168 187.88 128.606 188.028 128.1 188.037C127.473 188.037 127.129 187.729 127.109 186.103L126.07 185.855C125.67 186.615 125.272 187.287 124.643 187.754C123.379 196.918 122.585 206.447 119.515 215.314C118.291 218.605 116.411 221.593 115.03 224.821C121.54 239.466 122.631 255.694 124.194 271.374C124.068 271.384 123.422 271.44 123.284 271.452L109.695 274.562C109.791 274.602 110.738 276.504 111.68 276.427C115.544 276.109 124.443 273.128 124.561 273.513C124.889 273.486 126.259 273.496 126.183 273.809C126.025 275.651 125.506 276.965 124.524 277.924C124.511 278.22 124.493 278.521 124.47 278.801C126.418 285.576 127.846 292.799 128.713 300.247C129.816 301.305 130.092 304.783 128.447 305.711C123.907 308.827 117.808 310.307 112.065 309.745C105.85 309.159 98.4383 306.691 101.412 299.626C101.451 299.407 101.753 299.397 101.991 299.444C102.517 298.935 103.089 298.55 103.706 298.333C104.934 295.277 106.038 292.073 107.001 288.874C107.47 287.405 107.955 285.886 107.915 284.275C107.683 280.319 107.275 278.683 104.516 275.567C102.809 276.385 99.5543 270.459 98.8084 269.215C97.2396 265.535 95.2402 262.19 93.5649 258.58C93.3061 257.97 92.4017 257.957 92.0479 258.486C91.8886 258.708 91.8487 258.983 91.9384 259.241C93.3974 263.437 95.384 267.443 97.3003 271.357C96.6473 273.63 96.3895 277.427 94.7565 279.119C93.8682 285.009 99.9465 287.708 96.0298 294.24C97.3554 294.331 97.479 294.859 97.4558 296.464C97.4602 297.616 97.4903 298.825 97.2724 299.901C97.0081 301.224 95.7829 301.579 93.944 301.969C92.4536 302.298 91.0187 302.673 89.5397 303.028C88.044 303.523 86.4681 303.483 85.8532 301.975C78.4464 304.477 57.0943 304.191 50.0322 300.875C48.082 300.097 46.7064 299.658 48.4974 297.467C49.4834 291.215 65.5801 295.685 67.8539 288.828C68.1783 287.938 68.647 287.47 69.5591 287.308C69.4201 286.6 69.6056 285.814 70.3957 285.61C70.6334 285.54 70.8868 285.521 71.1316 285.298C71.7393 284.051 72.7361 283.294 73.8973 282.63C73.423 281.95 73.8063 281.633 74.0198 280.873C74.2363 279.417 73.7386 278.022 73.7641 276.607C73.4972 276.161 73.2912 275.536 72.8641 275.226C72.4684 274.948 73.2646 275.308 73.4187 275.001C73.3393 274.931 78.6795 276.758 81.5782 277.085C82.9783 277.243 82.6097 275.58 82.5705 275.549C82.108 275.042 72.3866 272.84 72.9797 272.783C73.0527 272.538 73.1393 272.255 73.1948 272.012C71.5547 267.099 69.6195 260.72 68.977 253.96C68.3552 243.149 68.9384 234.034 65.633 223.047C61.0124 205.649 52.0362 189.323 51.915 170.914C52.0693 167.862 51.2204 164.612 51.99 161.617L51.0342 161.122C50.8965 161.28 50.6479 161.276 50.5983 161.061C49.9712 160.047 50.6741 158.83 50.8184 157.72C50.4902 157.37 50.6541 157.051 51.05 156.86C55.296 141.923 62.398 139.741 60.443 121.071C57.2531 127.806 50.187 134.624 42.398 133.622C34.5517 134.79 16.2483 115.743 12.7133 109.585C12.0654 109.635 12.0574 109.173 11.9588 108.737C8.73013 109.115 5.70803 106.59 5.64783 103.5C2.81462 105.25 -0.213189 102.751 1.28804 99.6977C1.34703 99.5327 1.40689 99.3646 1.46302 99.1942Z" fill="#D08B5B"></path> <path fill-rule="evenodd" clip-rule="evenodd" d="M102.533 298.951L101.769 301.424C101.084 303.644 101.903 305.512 103.999 306.684C110.511 310.125 119.104 309.881 126.118 306.341C126.712 306.035 127.286 305.71 127.84 305.366L128.005 305.262L128.144 305.174L128.213 305.129C128.499 304.94 128.683 304.77 128.809 304.529L128.826 304.494L128.835 304.476L128.842 304.457C128.873 304.367 128.901 304.276 128.926 304.184L128.946 304.111L128.965 304.038C129.093 303.528 129.134 303.067 129.164 302.165L129.177 301.737L129.212 300.683L128.58 301.53C128.322 301.877 127.971 302.173 127.394 302.56L127.141 302.726L126.647 303.049L126.633 303.059C125.388 303.888 123.997 304.585 122.462 305.164C116.908 307.218 110.581 306.962 105.659 304.34L105.514 304.262L105.126 304.03L105.005 303.957C104.258 303.501 103.813 303.16 103.467 302.735L103.441 302.703L103.415 302.669L103.311 302.535L103.14 302.541C102.682 302.559 102.399 302.148 102.415 301.568L102.416 301.536L102.533 298.951ZM96.1981 293.839L95.7206 294.142C90.4084 297.509 85.5623 299.632 80.6213 300.496C77.8 300.963 74.8182 301.091 71.4055 300.948L71.0081 300.93L70.6798 300.914C68.6324 300.81 66.7439 300.639 63.2692 300.272L61.9667 300.134L60.3411 299.923L59.6488 299.832C56.5789 299.421 54.6255 299.106 52.594 298.667L52.3751 298.62L52.3691 298.615C52.3137 298.575 52.2533 298.539 52.1661 298.489L52.0903 298.447C51.8849 298.333 51.808 298.276 51.7689 298.205L51.7638 298.195L51.6658 297.996L51.3638 298.017L51.3589 298.014C51.2965 297.98 51.2332 297.947 51.1688 297.914L51.0716 297.865L50.9727 297.816L50.9318 297.797L50.8147 297.776L50.6884 297.751C50.4528 297.705 50.2266 297.65 49.8921 297.561L49.6249 297.489L49.5271 297.462L49.431 297.494C48.6512 297.758 48.4447 298.493 48.8978 299.059L48.9174 299.082L48.9318 299.099L48.9336 299.115C48.9609 299.3 49.0895 299.437 49.284 299.56L49.3122 299.578L49.3542 299.602L49.3885 299.622L49.401 299.639C49.4298 299.675 49.4625 299.709 49.4991 299.74L49.5273 299.763L49.5569 299.785L49.5701 299.794L49.8359 299.965L49.9237 300.02C50.121 300.142 50.2692 300.218 50.4284 300.273L50.4646 300.285L50.4666 300.287C51.1183 300.917 52.1225 301.26 53.6293 301.546L53.7869 301.575L53.8658 301.59L54.1044 301.632C61.8932 303.019 69.8872 303.4 77.8274 302.769C79.0618 302.671 80.2894 302.548 81.508 302.402L81.9139 302.353L82.3961 302.292L82.9225 302.229L83.0603 302.211L83.1964 302.193C84.4024 302.028 85.1102 301.793 85.744 301.233L85.7785 301.202L85.8256 301.158C86.0842 300.914 86.5798 301.083 86.5865 301.401L86.5864 301.419L86.5853 301.44C86.5514 301.916 86.8453 302.216 87.3184 302.302C87.6379 302.36 88.0459 302.329 88.5394 302.23C88.7308 302.192 88.9305 302.145 89.1414 302.089L89.291 302.048L89.4962 301.989C89.5259 301.98 89.556 301.971 89.586 301.963L90.0358 301.828L90.5897 301.677C90.8009 301.618 91.0333 301.553 91.3282 301.47L92.9058 301.027L93.2872 300.922C93.6217 300.83 93.9042 300.755 94.2016 300.678L94.3444 300.641L94.6902 300.574L94.8137 300.549L94.9251 300.525C96.0957 300.265 96.2944 299.946 96.3188 298.483L96.3205 298.353L96.3829 297.793L96.4207 297.47C96.4639 297.11 96.5045 296.806 96.5489 296.516L96.5751 296.349L96.5841 296.294L96.619 296.087C96.6217 296.072 96.6739 295.834 96.694 295.732C96.7221 295.59 96.7439 295.459 96.7587 295.332C96.7931 295.041 96.789 294.803 96.7256 294.613C96.6476 294.378 96.4759 294.228 96.2531 294.201L96.2272 294.199L96.2177 294.198L96.1981 293.839Z" fill="white"></path> <path fill-rule="evenodd" clip-rule="evenodd" d="M78.0373 74.8806L73.7386 75.348L73.4823 75.3768C71.7326 75.5767 70.5113 75.7963 69.3347 76.1715C67.8512 76.6445 66.5928 77.341 65.511 78.3446C60.1167 83.3119 54.2656 93.0817 47.9107 107.681L47.732 108.093L47.6838 108.181L47.6145 108.305C46.8813 109.609 45.6179 111.442 44.2073 113.289L44.0693 113.469L43.8663 113.732L43.7374 113.897C43.1595 114.637 42.6085 115.313 42.1543 115.838L42.0549 115.952L41.922 116.103L41.8361 116.199C41.7523 116.292 41.6746 116.377 41.604 116.451L41.5692 116.488L41.5013 116.558L41.4911 116.554L41.3777 116.644L41.3603 116.497L40.9492 116.302C37.4885 114.653 34.1131 112.484 30.643 109.749L30.475 109.616C27.5953 107.334 24.7755 104.781 21.265 101.355L20.2772 100.39L19.7991 101.492C17.9912 105.659 15.5468 108.345 12.4113 108.829L12.3161 108.843L10.4487 109.104L11.9675 110.344L12.1406 110.486C13.8805 111.919 15.3258 113.249 17.9899 115.824L18.5332 116.35L19.728 117.51C20.7489 118.499 21.4283 119.151 22.0901 119.771L22.252 119.922L22.7647 120.398L23.0812 120.679C26.077 123.333 28.2581 125.152 30.5026 126.798L30.7493 126.978L30.9141 127.097C33.8737 129.232 36.7216 130.875 39.6455 132.061L39.8118 132.128L39.8983 132.159L39.9821 132.188C40.3986 132.33 40.782 132.418 41.4375 132.536L41.504 132.548L42.0565 132.646C42.186 132.669 42.2932 132.689 42.3939 132.709L42.4603 132.723L42.6064 132.753L42.7912 132.755C45.8955 132.764 48.744 131.804 51.5345 129.972L51.6778 129.877C53.6561 128.559 55.4241 126.972 57.8478 124.469L58.1132 124.194L58.378 123.917L59.7334 122.491L59.7545 122.601C60.4402 126.181 60.8603 130.342 60.6529 132.356L60.6465 132.417L60.6377 132.492L60.6246 132.639C60.4246 134.803 59.8604 136.979 58.9448 139.285C58.2237 141.101 57.3291 142.914 56.0642 145.198L55.9948 145.323L55.786 145.697L55.7765 145.715C53.6977 149.647 52.156 153.817 51.2094 158.095L51.1661 158.292L51.1268 158.474L51.1695 158.654C51.4808 159.971 52.4124 161.006 53.8594 161.948L53.9256 161.991L54.058 162.075C55.9096 163.214 57.9149 163.922 61.0098 164.693C71.2819 167.319 81.0865 168.199 90.371 167.082C95.0058 166.483 99.7896 165.577 105.057 164.341L105.33 164.276L106.106 164.092C109.742 163.219 113.176 162.31 118.269 160.891L119.287 160.607L121.066 160.108L121.331 160.028L122.054 159.815L122.316 159.737L122.413 159.707L122.582 159.655L122.759 159.598C123.367 159.402 123.858 159.213 124.316 158.99L124.52 158.889L124.623 158.776C124.63 158.769 124.64 158.761 124.653 158.752L124.664 158.745L125.035 158.525L125.097 157.664C125.122 157.324 125.148 156.986 125.178 156.598L125.208 156.224L125.488 152.804C125.512 152.514 125.533 152.244 125.553 151.987L125.597 151.387L125.635 150.865L125.625 150.667C125.384 146.196 124.174 141.691 122.116 137.301L122.04 137.138L121.978 137.02C120.341 133.889 119.707 131.289 119.827 128.559L119.833 128.427C119.941 126.309 120.394 124.412 121.661 120.355L121.742 120.099L121.87 119.691L121.877 119.669C122.307 118.16 122.583 116.776 122.689 115.462L122.699 115.329L122.745 115.49C125.073 123.708 126.289 132.014 126.279 140.113L126.279 140.358L126.277 140.685L126.268 141.124C126.219 143.486 126.095 145.782 125.848 149.241L125.83 149.5L125.739 150.736L125.766 151.114L125.777 151.272L125.787 151.432L125.796 151.587C125.865 152.86 125.799 153.707 125.521 154.486L125.46 154.652L125.447 154.936C125.429 155.28 125.407 155.607 125.368 156.062L125.356 156.202L125.233 157.584L125.209 157.86C125.107 159.093 125.072 159.962 125.108 160.846L125.111 160.911L125.119 161.076L125.145 161.261C125.447 163.323 126.144 164.752 127.585 166.092L127.627 166.131L127.7 166.204C129.155 167.657 130.761 168.807 132.519 169.622L132.629 169.673L132.737 169.721L133.565 170.089L133.858 169.236C138.298 156.312 140.831 145.509 141.465 135.164C142.211 122.99 140.224 111.845 135.044 101.394L134.886 101.078L134.718 100.731C129.048 89.0977 120.006 80.431 109.143 77.3765L108.814 77.2857L108.476 77.1966L105.801 76.5057L107.655 78.5448C108.726 79.7233 108.279 81.6827 106.788 83.8831L106.743 83.9499L106.664 84.0639C104.039 87.9357 99.7597 90.6359 94.4127 92.0429C89.6297 93.3015 84.2179 93.4425 79.3553 92.5216L79.2081 92.4934L79.0457 92.4647C74.3555 91.617 70.9147 88.6966 70.4873 84.6775L70.4753 84.5553L70.4556 84.313C70.2433 81.3955 71.8922 78.4229 74.517 76.887L74.5969 76.8409L78.0373 74.8806Z" fill="#FCF6F1"></path> <path fill-rule="evenodd" clip-rule="evenodd" d="M23.8705 119.962L24.1746 120.231C29.1484 124.638 34.4243 129.037 40.6513 131.527C41.4948 131.833 42.3739 131.916 43.2404 132.098C50.4828 132.169 55.4008 126.582 59.9871 121.765C59.6029 113.521 59.9206 105.008 63.1905 97.3044L63.2686 97.1062C64.0686 95.0911 65.0465 93.0933 66.6106 91.5532C66.6492 91.5159 66.7021 91.5719 66.669 91.6115C65.3343 93.2401 64.5572 95.2295 63.9991 97.2364L63.9709 97.3384C62.0678 104.135 61.7369 111.266 61.9872 118.286L61.995 118.498C62.1659 123.241 62.5772 128.01 62.0038 132.743C61.5857 137.628 59.4154 142.046 57.0518 146.265C54.9914 150.162 53.4515 154.327 52.5179 158.633C52.8181 159.903 53.9058 160.835 55.0363 161.542C57.0795 162.799 59.4468 163.487 61.759 164.063C71.2199 166.481 81.074 167.604 90.8078 166.433C101.193 165.09 111.328 162.312 121.385 159.483C122.419 159.167 123.567 158.881 124.555 158.389C124.621 158.317 124.699 158.255 124.784 158.205C124.955 155.802 125.181 153.42 125.35 151.023C125.122 146.38 123.827 141.865 121.842 137.671C118.216 130.797 119.414 126.616 121.624 119.612C122.132 117.829 122.495 115.964 122.45 114.127C122.218 112.97 121.995 111.811 121.788 110.65C121.702 110.427 121.609 110.207 121.504 109.987C121.484 109.945 121.54 109.913 121.567 109.951C121.613 110.017 121.657 110.084 121.701 110.152C121.548 109.265 121.406 108.378 121.281 107.488C121.265 107.371 121.417 107.325 121.461 107.439C125.435 118.083 127.742 129.492 127.647 140.866C127.59 144.215 127.359 147.563 127.112 150.904L127.135 151.226C127.222 152.49 127.268 153.779 126.824 154.983C126.729 157.05 126.377 159.092 126.487 161.164C126.743 163.057 127.317 164.396 128.744 165.705C130.157 167.134 131.775 168.317 133.618 169.137C141.281 146.834 145.771 123.666 134.69 101.612C129.547 90.8746 120.693 81.228 108.812 78.1597C110.505 80.022 109.185 82.8078 107.967 84.5834L107.893 84.6908C102.062 93.2894 89.2224 95.338 79.5931 93.4677C74.9283 92.671 70.5544 89.6654 70.1821 84.6391C69.893 81.2727 71.8185 77.9523 74.7293 76.2938L74.3748 76.3323C71.5418 76.6457 68.7906 77.0979 66.6161 79.1152C58.6016 86.4953 54.8837 97.0056 50.1496 106.521L49.9612 106.867C47.9335 110.609 45.9741 114.651 42.6053 117.365L43.2349 117.899C43.3142 117.967 43.2293 118.121 43.129 118.08C42.8048 117.95 42.4829 117.813 42.162 117.673C41.7094 118.035 41.1896 117.669 41.1355 117.21C33.5173 113.581 27.0785 107.825 21.1018 101.985C19.5927 105.463 17.048 109.257 12.9743 109.825C16.8203 112.965 20.2241 116.596 23.8705 119.962ZM85.1052 186.647C84.6108 186.367 84.1226 186.076 83.6409 185.774C82.8458 187.04 83.048 188.153 83.1336 189.551C83.3154 191.884 83.2749 194.258 83.75 196.554C84.5737 202.413 85.0611 208.535 86.2843 214.245C86.3116 214.564 86.34 214.883 86.3649 215.202C86.3978 215.622 87.0595 215.625 87.0265 215.202C86.2211 205.724 84.5114 196.191 85.1052 186.647ZM80.6209 300.825C74.4143 301.851 68.0787 301.124 61.8696 300.465L60.9581 300.347C58.0192 299.967 55.063 299.567 52.1764 298.929C51.9331 298.729 51.5583 298.64 51.4122 298.344L51.2341 298.357C51.0835 298.272 50.9301 298.192 50.7741 298.117C50.3207 298.036 49.9511 297.938 49.4829 297.81C48.8474 298.025 48.7813 298.581 49.2125 298.975C49.1694 299.176 49.4109 299.291 49.5686 299.38C49.5939 299.43 49.6333 299.479 49.6923 299.52C49.9753 299.698 50.2612 299.911 50.5854 299.998C51.3774 300.818 53.0785 301.13 54.0156 301.296L54.1082 301.313C61.8949 302.7 69.8611 303.072 77.7463 302.446C79.1058 302.337 80.4643 302.199 81.8177 302.031L82.1866 301.984C83.3554 301.834 84.6444 301.775 85.543 300.924C85.9905 300.501 86.8872 300.768 86.8621 301.441L86.8607 301.467C86.7821 302.573 89.3793 301.658 89.8934 301.515L89.9083 301.511C91.3462 301.123 92.7752 300.694 94.2174 300.324L94.5711 300.256C95.824 300.008 95.9214 299.883 95.9353 298.338L95.9819 297.917C96.0448 297.357 96.1124 296.799 96.2033 296.243L96.2385 296.035C96.2793 295.802 96.6785 294.356 96.0136 294.548C95.9298 294.572 95.8482 294.505 95.8438 294.424C91.1719 297.385 86.1164 299.864 80.6209 300.825ZM105.296 304.553L104.9 304.316C104.236 303.917 103.569 303.483 103.098 302.875C102.321 302.904 102.001 302.175 102.03 301.526C101.378 303.638 102.187 305.329 104.099 306.398C110.76 309.918 119.281 309.399 125.911 306.053C126.547 305.726 127.169 305.371 127.772 304.989L127.908 304.903C128.134 304.758 128.353 304.603 128.474 304.356C128.764 303.509 128.76 302.674 128.791 301.731C128.289 302.405 127.455 302.872 126.762 303.337C125.44 304.217 124.008 304.916 122.523 305.477C117.023 307.511 110.491 307.387 105.296 304.553ZM125.44 131.087C124.909 126.497 123.999 121.971 123.117 117.439C122.759 122.31 120.219 127.053 121.348 131.979C122.452 135.945 124.818 139.464 125.828 143.464C126.025 139.333 125.904 135.199 125.44 131.087ZM118.895 170.913C119.493 171.021 120.107 171.019 120.711 170.976C123.161 170.681 123.548 172.158 123.54 174.222C123.614 175.557 123.696 176.891 123.766 178.227L123.806 179.028C123.857 180.095 123.992 181.289 123.857 182.404C124.301 183.417 124.541 184.474 124.611 185.581C124.815 185.526 125.034 185.552 125.19 185.659C126.089 184.064 126.304 182.117 126.489 180.321C126.58 179.438 127.883 179.398 127.903 180.321C127.928 181.577 127.947 182.834 127.969 184.09L128.003 186.028L128.003 186.057C127.997 186.333 127.872 187.031 128.213 187.004L128.232 187.001C128.867 186.954 128.896 184.707 129.033 184.146L129.562 180.387C129.681 179.546 130.895 179.82 130.979 180.554L130.981 180.578C131.13 182.296 131.28 184.014 131.408 185.733C131.448 186.031 131.454 186.569 131.78 186.699C132.067 186.441 132.122 186.008 132.183 185.648C132.725 180.687 133.743 175.79 134.371 170.841C133.964 170.783 133.591 170.531 133.472 170.143C130.207 169.478 126.78 167.648 125.14 164.673C124.812 164.961 124.556 165.337 124.239 165.632C123.737 166.101 123.186 166.523 122.659 166.961C121.181 168.206 119.698 169.382 118.251 170.666C118.463 170.735 118.656 170.87 118.895 170.913ZM83.3686 69.3659C83.352 69.3012 83.2616 69.3198 83.2572 69.3813C83.1668 70.6319 82.8658 71.9514 82.4071 73.1777C82.2428 73.2041 82.0851 73.2962 81.9705 73.4751C81.8161 73.7154 81.0776 73.883 80.6924 73.996L80.6374 74.0125C79.038 74.5044 77.3687 74.7029 75.7098 74.8783C67.9077 75.308 65.0681 77.7432 60.6667 83.896C55.442 90.8275 52.5104 99.0539 48.5718 106.704C47.6026 108.565 46.5562 110.381 45.4062 112.137L45.2965 112.304C44.2692 113.861 43.1327 115.438 41.5635 116.489C37.7662 113.318 33.7054 110.487 29.949 107.267L29.5978 106.964C26.7794 104.538 24.0879 101.967 21.5265 99.2726C21.2244 98.9545 20.6576 98.8712 20.2387 99.0576C20.0749 96.6327 19.3873 94.2542 18.7533 91.9111C18.0876 88.8932 16.9313 86.8533 13.4431 87.6002C12.0391 84.0791 10.1589 80.6428 7.31233 78.0721L7.12961 77.9082C6.5236 77.3601 5.72811 76.5742 4.87681 76.6451C4.10387 76.7088 3.70693 77.4054 3.67606 78.1139C3.64068 78.9544 4.00864 79.8102 4.27229 80.598L4.29463 80.6654C4.63424 81.6998 5.00031 82.7255 5.38733 83.7434C5.76002 84.7229 6.15917 85.6926 6.57707 86.6535C7.00302 87.4574 7.31627 88.7883 8.09208 89.2741C8.49256 89.5113 8.90505 89.1924 8.94772 88.7849C9.00837 88.2507 8.69964 87.7813 8.4725 87.3161C8.263 86.8883 8.0579 86.4583 7.85833 86.0261C7.05627 84.2862 6.33658 82.5101 5.71812 80.6983C5.53442 80.0884 4.78243 78.503 5.04331 77.955C5.30452 77.9571 5.84228 78.5066 6.03238 78.6701C9.02271 81.1368 10.9662 84.5451 13.1895 87.655C11.7943 88.0521 10.2798 88.2384 9.12083 89.171C6.73717 91.2422 8.65134 95.3435 11.8465 94.58C10.9547 96.4671 10.1877 99.5158 11.7682 101.221C12.2435 101.664 13.1664 101.522 13.3108 100.816C13.4652 100.066 13.28 99.4229 13.1101 98.6958C12.8025 97.2152 12.616 95.6989 12.8257 94.1917L12.8916 94.1526C13.4332 93.8252 13.7738 93.4577 13.7574 92.7811C13.828 92.2918 13.3042 91.6325 12.7783 92.0329C12.6073 92.1623 12.399 92.1722 12.2192 92.3027C11.9144 92.5915 11.5356 92.8185 11.1035 92.815L11.0615 92.8139C10.5057 92.8095 10.0956 92.4761 9.92576 91.9584C9.46045 90.5378 11.0714 90.0606 12.1189 89.7876L12.3895 89.7045C15.2487 88.8341 16.285 88.8199 17.0035 92.1656C17.7817 94.6618 18.4675 97.2316 19.7833 99.5129L19.6196 99.9024C18.2968 103.04 16.636 106.651 13.0793 107.614C12.9534 106.566 11.8149 106.528 10.9909 106.554C9.9273 106.497 8.85985 105.96 8.10862 105.187C7.45234 104.529 7.12221 103.612 6.39624 103.025C6.72482 102.282 5.98275 101.461 5.2076 101.889C4.68495 102.176 4.36961 102.586 3.7389 102.67C3.17987 102.745 2.66495 102.55 2.24043 102.194C1.13229 101.261 1.65935 99.8913 1.3881 98.6704C1.74536 99.2858 2.33856 99.7575 2.97367 100.083C7.21461 102.499 7.17205 97.7629 4.8283 98.541C2.28233 97.9642 2.32533 97.0481 3.2769 94.897L3.29385 94.8465C3.44859 94.3949 3.79436 93.5966 3.47317 93.1102C3.45552 93.0859 3.42356 93.0783 3.4004 93.1003C3.10931 93.3854 2.99463 93.8637 2.74885 94.1993L2.45585 94.5478C1.56586 95.6155 0.634624 96.8841 1.21278 98.3095C1.15103 98.2964 1.08377 98.3227 1.06282 98.3973C0.789368 99.3878 0.245771 100.361 0.358239 101.42C0.59343 103.743 3.12165 105.018 5.21533 104.05C5.61801 107.035 8.57459 109.184 11.5378 109.051C11.6315 109.46 11.9358 109.82 12.4067 109.857C16.7676 116.813 33.9099 134.708 42.3166 133.96C43.1204 134.323 44.1436 134.141 44.9949 134.031C51.5238 133.183 56.9801 128.429 60.0237 122.794C61.1426 141.252 54.8202 141.028 50.5896 156.32C50.1662 156.584 49.9192 157.161 50.2478 157.649C50.0662 158.574 49.6945 159.522 49.8376 160.472C49.9082 160.742 50.0504 160.989 50.1794 161.237C50.445 161.743 51.145 161.682 51.4728 161.289C50.9169 163.291 51.1539 165.393 51.2964 167.435C51.3835 168.634 51.3769 169.816 51.3781 171.016C51.5439 189.285 60.5069 205.756 65.1146 223.088C66.4179 227.946 67.4191 232.896 67.8127 237.915C68.2306 243.254 67.9395 248.622 68.4423 253.954C69.025 260.13 70.6817 266.132 72.6359 272.002C72.5189 272.478 72.2761 273.019 72.4261 273.429C75.2177 273.897 77.912 274.749 80.623 275.54C80.7293 275.571 80.7955 275.636 80.8289 275.714L81.4486 275.919C81.8506 276.053 81.6784 276.688 81.2728 276.554L80.5954 276.33C78.2785 275.567 75.9348 274.837 73.5252 274.495L73.4512 274.465C72.9694 274.273 72.4026 274.133 72.1487 274.661C72.0199 274.929 72.1219 275.198 72.3059 275.41C72.4614 275.59 72.6592 275.7 72.7951 275.903C72.9472 276.17 73.076 276.451 73.2269 276.722C73.2255 278.063 73.6686 279.39 73.4967 280.728C73.3674 281.283 72.9154 281.815 73.2023 282.41L73.0717 282.493C72.3114 282.979 71.5849 283.512 71.0853 284.263C70.9761 284.428 70.8934 284.767 70.7688 284.883C70.6387 285.004 70.3962 285.018 70.2363 285.075C69.4266 285.32 68.9172 286.048 68.987 286.893C67.091 287.436 67.744 289.353 65.7872 290.687C63.7782 292.136 61.058 292.295 58.6851 292.671L54.6418 293.313L54.4067 293.342C51.8474 293.656 48.5096 294.248 47.9946 297.224L47.9533 297.272C47.3348 298.007 46.7401 299.403 47.5036 300.2C48.1243 300.749 48.9718 301.006 49.7235 301.326C50.7657 302.075 52.2677 302.424 53.4113 302.636C63.2972 304.458 73.4812 304.67 83.4336 303.256L83.6001 303.232C84.2956 303.128 85.0138 302.987 85.6488 302.691C86.5369 304.179 88.2469 303.992 89.6867 303.569C90.8168 303.291 91.947 303.017 93.0772 302.742L93.1832 302.715C94.9289 302.269 97.4045 302.133 97.8274 300.013C98.0457 298.922 98.0314 297.707 98.0203 296.598L98.0228 296.234C98.0243 295.3 97.9504 294.034 96.8879 293.836C98.3639 291.114 98.0423 287.767 96.6675 285.069L96.5946 284.936C95.583 283.089 94.951 281.547 95.2869 279.366C95.9606 278.734 96.2749 277.827 96.5241 276.935C97.0476 275.058 97.5048 273.161 97.8919 271.25L97.2914 270.023C95.5307 266.42 93.7892 262.802 92.4738 259.012C92.3528 258.664 92.9208 258.418 93.0783 258.758C94.7419 262.352 96.7761 265.767 98.3249 269.416C99.3517 271.323 100.585 273.117 101.967 274.787L102.028 274.872C102.564 275.604 103.014 275.848 103.895 276.149C104.036 276.209 104.18 276.21 104.314 276.171C105.155 277.306 106.176 278.205 106.618 279.56C107.099 281.058 107.284 282.706 107.378 284.272C107.429 286.313 106.575 288.24 106.039 290.178C105.219 292.789 104.305 295.372 103.295 297.916C102.755 298.134 102.265 298.468 101.813 298.88C101.437 298.843 101.04 299.014 100.899 299.47L100.841 299.661C100.343 301.304 99.9211 303.202 100.567 304.849C102.353 308.837 108.093 309.831 112.019 310.309C117.833 310.859 123.932 309.475 128.773 306.177C129.456 305.7 129.923 305.157 130.036 304.311L130.048 304.206C130.204 302.791 130.241 301.113 129.255 300.017C128.411 292.842 127.03 285.671 125.041 278.722C125.057 278.525 125.069 278.329 125.079 278.132C126.189 276.981 126.624 275.36 126.748 273.804C126.763 273.151 126.098 273.014 125.583 272.934L125.393 272.932C123.714 272.921 121.981 273.003 120.483 273.627L120.557 273.63C120.633 273.633 120.712 273.642 120.769 273.681C120.019 273.921 119.2 274.027 118.482 274.342C117.951 274.368 117.488 274.619 116.949 274.665L116.864 274.67C116.768 274.679 116.695 274.651 116.643 274.603C115.197 274.86 113.759 275.205 112.315 275.417C111.899 275.478 111.719 274.844 112.139 274.782C114.071 274.499 115.993 273.981 117.938 273.74C118.368 273.574 118.784 273.361 119.215 273.19C119.24 273.133 119.287 273.082 119.364 273.046C119.837 272.825 120.328 272.643 120.831 272.491C122.119 272.094 123.471 271.926 124.813 271.847L124.718 270.892C123.174 255.285 122.048 239.258 115.646 224.723C117.006 221.594 118.856 218.613 120.046 215.394C120.54 214.107 120.84 212.795 121.232 211.482C121.486 210.853 121.697 210.216 121.799 209.542C123.366 202.4 124.252 195.136 125.177 187.891C125.8 187.379 126.211 186.64 126.572 185.961L126.573 186.064C126.595 187.183 126.753 188.471 128.167 188.438C129.309 188.41 129.808 187.562 130.064 186.625C130.561 188.586 132.77 188.693 133.417 186.762C133.706 185.983 133.694 185.094 133.78 184.277C134.241 179.792 135.204 175.31 134.928 170.794C135.219 170.695 135.472 170.473 135.596 170.104C141.109 153.471 146.016 135.67 142.437 118.119C138.858 100.923 129.166 81.6726 110.851 76.7965C107.143 75.8634 103.376 75.5467 99.575 75.3058C99.0266 74.249 98.6721 73.0469 98.6003 71.8505C98.5783 71.5049 98.5948 71.1628 98.5959 70.8172C98.597 70.4979 98.4603 70.1173 98.5242 69.8191C98.5397 69.7465 98.4404 69.7224 98.414 69.7893C98.3335 69.9988 98.1692 70.1041 98.0578 70.2808C97.7808 70.78 97.7075 71.3726 97.6344 71.9305C97.3596 74.1084 97.9847 76.3491 99.3075 78.0977L99.3534 78.1578C99.7636 78.7042 100.544 79.6935 101.351 79.2196C102.055 78.8057 101.604 77.9627 101.185 77.5112L101.153 77.4777C100.585 76.8898 100.109 76.2612 99.7217 75.5756C101.441 76.0321 103.148 76.5347 104.862 77.0104L104.944 77.055C106.286 77.7832 108.281 78.5628 108.105 80.3684C104.535 91.0992 88.7392 93.8567 78.9768 91.2947L78.8212 91.2526C76.9533 90.7396 75.0829 89.9152 73.8119 88.4124L73.7593 88.3494C71.5028 85.6886 71.6756 81.2925 74.5012 79.1078C76.1794 77.7388 78.4983 77.0115 80.5922 76.5378C79.9832 77.5447 78.6363 78.2559 78.3913 79.4489C78.3285 79.8581 78.5556 80.2475 79.0088 80.2562C80.1599 80.2782 81.009 79.054 81.6132 78.2313C82.8742 76.5102 83.5896 74.4296 83.7424 72.3101C83.8185 71.279 83.6277 70.3499 83.3686 69.3659ZM7.20148 88.7263C7.26256 88.6847 7.22882 88.5611 7.14634 88.5948C4.01707 89.8864 2.73967 94.5123 5.09544 97.0598C5.87721 97.8813 7.04931 98.3562 8.11666 97.9252C9.42846 97.7042 10.1948 96.3849 10.3627 95.1696C10.3741 95.113 10.3103 95.0872 10.2743 95.1229L10.2679 95.1303C9.77227 95.7388 8.99094 96.1461 8.27875 96.4576C8.07917 96.3499 7.86085 96.2645 7.64143 96.2139C7.32938 96.1437 7.00962 96.3872 7.03939 96.7044C5.56637 96.4359 4.97596 94.6902 4.93124 93.3657L4.93005 93.3257C4.87051 91.4928 5.703 89.798 7.20148 88.7263Z" fill="black"></path> <path fill-rule="evenodd" clip-rule="evenodd" d="M70.8095 46.4831C71.0709 43.1107 70.6658 39.5759 71.9701 36.3705C74.2442 31.052 80.6211 29.2787 85.5649 27.2539C87.5454 26.6704 94.2098 26.5889 96.5288 25.8167C101.777 24.0691 103.031 21.9869 107.202 25.3144C107.906 25.8828 108.346 26.5006 108.667 27.3447L108.654 27.3483C108.746 27.7002 108.648 28.0513 108.441 28.3195C110.249 30.1622 111.006 32.9247 110.078 35.3775C107.05 41.7604 107.193 45.2117 108.168 52.0737C109.442 58.4798 106.531 60.8198 101.71 64.3054C101.906 64.6849 101.947 65.1891 101.691 65.5239C96.1161 73.334 85.6046 77.0629 76.5983 73.0988C72.9425 71.4767 71.3104 67.5954 70.379 64.0932C69.294 60.1718 68.9606 56.0396 69.8439 52.045C70.2002 50.1976 70.6643 48.3635 70.8095 46.4831Z" fill="#D08B5B"></path> <path fill-rule="evenodd" clip-rule="evenodd" d="M110.739 36.9163L107.424 39.1178L95.5588 26.6471L99.5074 23.5488C99.5074 23.5488 106.671 28.8271 108.08 30.2201C109.488 31.6132 110.739 36.9163 110.739 36.9163Z" fill="#9FD8E5"></path> <path fill-rule="evenodd" clip-rule="evenodd" d="M102.967 9.11939C102.29 9.01809 101.779 9.43665 101.536 10.0266L101.523 10.0584C101.445 10.2591 101.358 10.4544 101.265 10.6463C99.5712 9.81814 97.1549 10.0309 96.0832 11.7082C95.3185 12.906 95.785 14.3276 96.0733 15.5979L96.2626 16.4348C95.8968 16.6669 95.6209 17.0825 95.6338 17.5129L95.6354 17.546L95.7124 18.7132C95.4682 18.4663 95.2448 18.1976 95.0456 17.9113C94.9081 17.6601 94.7596 17.4133 94.6 17.1742C93.6615 15.7668 91.5544 16.9899 92.329 18.4971C92.4775 18.7877 92.6448 19.0631 92.8241 19.3285C93.0266 19.7201 93.1927 20.1227 93.3204 20.5363C92.954 20.6953 92.6723 21.0485 92.6426 21.5816C92.5733 22.8266 93.229 23.8654 94.2721 24.5181C94.5791 24.7101 94.896 24.7474 95.1832 24.6761C95.2338 24.7441 95.2844 24.8121 95.3328 24.8812C94.9169 25.218 94.5417 25.6019 94.2193 26.0275C93.2488 25.8827 92.2729 25.8147 91.2969 25.8125C90.1042 25.23 88.676 25.2421 87.3941 25.4604C86.5689 25.6008 85.7767 25.8739 84.9647 26.0703C84.1086 26.2765 83.2394 26.2842 82.3734 26.4246C81.2819 26.6012 80.3247 27.1036 79.7228 27.9054C79.0615 27.9252 78.3661 28.195 77.7896 28.5614C76.4472 29.4148 75.1125 30.2803 73.7735 31.1392C73.2596 31.4689 73.0674 31.9953 73.1619 32.5825L73.1683 32.62L73.2134 32.8636L73.1075 33.0135C72.6977 33.5904 72.2518 34.1947 71.9866 34.8315C71.4958 35.5368 71.0524 36.2761 70.6596 37.0385C70.1304 38.063 69.6935 39.149 69.3976 40.2635C69.3238 40.5454 69.2501 40.8295 69.2017 41.1169C69.1324 41.5227 69.2391 41.8376 69.2974 42.227C69.3701 42.7206 69.3965 43.2208 69.4735 43.7155C69.5252 44.0435 69.8047 44.2047 70.0974 44.2135C69.9873 45.0483 69.9081 45.8885 69.8322 46.7222C69.7255 47.9135 69.6528 49.108 69.5901 50.3026C69.2666 50.771 68.6053 51.1417 68.1278 51.2701C67.4665 51.4467 66.7733 51.2547 66.1484 51.0298C65.7556 50.8883 65.4332 51.3809 65.6246 51.7099C66.2265 52.7433 67.5138 52.7389 68.4887 52.2814C68.9013 52.0884 69.2633 51.8087 69.5318 51.4445C69.5153 51.7911 69.4977 52.1377 69.4801 52.4855L69.4637 52.8004C69.2655 56.4787 68.8375 60.2834 69.5307 63.9254C70.7311 70.2338 75.9677 75.0372 82.3646 75.4102C85.7214 75.606 88.5168 74.6175 89.9069 74.0661C91.2969 73.5147 90.7566 72.3905 89.7917 72.7119C88.1293 73.2655 85.0755 74.0903 82.3426 73.7341C75.9015 72.8947 70.4396 69.6852 71.0007 55.8618C71.0803 53.9015 71.3253 51.9403 71.3781 49.9801C71.4287 48.0637 71.41 46.1463 71.4947 44.2311L71.523 43.5776C71.5561 42.814 71.5914 42.047 71.6488 41.2825C71.7181 40.9863 71.7753 40.6858 71.86 40.3951C72.09 39.6042 72.3904 38.8353 72.7634 38.1014C72.8459 38.1639 72.9383 38.2089 73.0385 38.2265C73.7988 38.3625 74.5118 38.3241 75.2237 38.0082C75.556 37.8623 75.8486 37.6681 76.1215 37.4279C76.2514 37.3149 76.3383 37.2052 76.4065 37.0911C76.7509 37.0966 77.0953 36.9935 77.3109 36.7467C77.5569 36.4654 77.5978 36.1748 77.5015 35.9059L77.4914 35.879L77.5156 35.8703C77.8061 36.6195 78.3848 37.2787 79.0197 37.7241C80.0232 38.4305 81.2786 38.6345 82.4824 38.6532C83.8115 38.6729 85.2133 38.4689 86.5249 38.2605C86.8715 38.2056 87.2159 38.1431 87.5537 38.0586C87.5669 38.0718 87.5801 38.0872 87.5944 38.1003C88.72 39.1742 90.3033 39.4506 91.7315 38.8375C92.5568 38.4831 93.2488 37.9127 93.8606 37.259C93.8694 37.6012 93.887 37.9435 93.9167 38.2824L93.929 38.417C93.9899 39.0483 94.1072 39.7179 94.5857 40.1735C95.3592 40.9118 96.4815 40.6156 97.3739 40.1351C97.3728 40.1582 97.3728 40.1823 97.3728 40.2064C97.1318 41.0225 96.8897 41.8398 96.6477 42.657L96.5955 42.8311C96.4195 43.4113 96.2265 43.9923 96.1734 44.5996C96.0722 45.7602 96.8468 46.9065 98.1408 46.5171C98.8195 46.3135 99.3633 45.7446 99.885 45.2889L100.214 45.0055C99.3632 47.7774 98.7735 50.6481 98.7185 53.5407C98.7152 53.6976 98.8505 53.816 99.0001 53.8215C99.35 53.8358 99.7263 53.7667 100.078 53.6274C100.098 53.6263 100.118 53.6252 100.139 53.6219C100.74 53.5352 101.298 53.3191 101.789 52.9999C101.676 53.3586 101.625 53.7437 101.655 54.1462C101.663 54.2439 101.816 54.2779 101.838 54.1704C102.122 52.7784 103.756 51.7264 105.164 51.993C106.676 52.2793 107.789 53.5758 108.062 55.0512C108.355 56.6363 107.795 58.4692 106.757 59.6923C106.28 60.2561 105.651 60.7267 104.905 60.8452C104.564 60.8989 104.21 60.8803 103.879 60.7838C103.738 60.7421 103.606 60.6839 103.472 60.6291C103.276 60.5501 103.047 60.538 102.862 60.4547C102.443 60.2671 102.022 60.6521 102.234 61.081C102.419 61.4551 102.585 61.7074 102.892 61.9004C102.643 62.2032 102.418 62.6244 102.334 62.7374C101.907 63.3122 101.474 63.8552 100.987 64.3806C100.492 64.9137 99.9519 65.4007 99.3808 65.8516L99.1408 66.0407C98.5907 66.4756 98.1118 66.8786 97.7238 67.5025C97.4179 67.995 97.814 68.663 98.3873 68.6553C100.181 68.6301 101.485 67.0593 102.413 65.687C102.545 65.4907 102.67 65.2834 102.785 65.0706C102.827 65.1375 102.873 65.2 102.925 65.257L102.823 65.5313C102.519 66.3386 103.827 66.8662 104.207 66.1127C104.483 65.5664 104.803 65.0464 105.16 64.555C105.37 64.5254 105.576 64.3981 105.69 64.2336C105.979 63.8157 106.304 63.3934 106.578 62.948C106.73 62.8043 106.886 62.6661 107.046 62.5312C107.092 62.5718 107.139 62.6123 107.184 62.6551C107.384 63.1103 107.632 63.5261 107.939 63.9177L108.005 64.0012C108.593 64.7401 109.359 65.4964 110.307 65.6772C110.596 65.732 110.875 65.3733 110.618 65.1441C109.955 64.5495 109.17 64.1448 108.558 63.4811C108.257 63.1541 107.98 62.7941 107.742 62.4167L107.688 62.3293C107.649 62.2646 107.608 62.1999 107.566 62.1341C107.842 61.9465 108.118 61.7578 108.395 61.5692C109.155 62.2167 110.145 62.5129 110.986 63.0493L111.069 63.1038C111.83 63.6106 112.631 62.4895 112.021 61.8741C111.349 61.1983 110.788 60.3924 110.193 59.6412C110.473 59.1272 110.605 58.5194 110.655 57.9051C110.675 57.7312 110.69 57.5572 110.705 57.3833C111.132 57.3899 111.561 57.244 111.924 56.9928L112.062 56.8951C112.503 57.0355 112.966 57.1036 113.41 57.0915C114.453 57.0608 114.88 55.8728 114.227 55.1214C113.562 54.3535 112.396 54.1857 111.473 54.5587C111.443 54.5433 111.413 54.5269 111.383 54.5104C111.427 54.3086 111.417 54.1255 111.367 53.9647L111.382 53.8666C111.585 53.5561 111.718 53.2015 111.769 52.8269C111.809 52.5302 111.801 52.2361 111.732 51.9431C111.709 51.8456 111.661 51.7446 111.625 51.6429C111.7 51.454 111.744 51.2588 111.758 51.0624C111.779 51.0375 111.8 51.012 111.819 50.9843C112.277 50.3432 112.185 49.5706 111.749 49.0517C111.747 49.0187 111.744 48.9857 111.739 48.9529C111.765 48.8957 111.788 48.8378 111.81 48.7794C112.236 48.351 112.548 47.8356 112.49 47.1968C112.456 46.821 112.301 46.4827 112.066 46.2299C112.108 46.1073 112.112 45.9652 112.061 45.8466C112.436 44.8543 112.388 43.6592 112.119 42.5495C112.178 42.3805 112.209 42.1974 112.203 42.0032C112.172 41.1794 111.457 40.4225 110.609 40.4324C110.507 40.4333 110.412 40.4465 110.32 40.466L110.319 40.4463C110.286 40.1991 110.218 39.9706 110.119 39.7656C110.168 39.7479 110.213 39.7226 110.253 39.6889C110.796 39.9776 111.37 40.1983 111.972 40.3487C112.415 40.4593 112.869 39.9574 112.594 39.543C112.466 39.3507 112.325 39.1781 112.173 39.0203C112.389 39.0215 112.608 39.0361 112.83 39.0645C113.228 39.1161 113.673 38.8451 113.931 38.4788C114.253 38.7903 114.575 39.1007 114.897 39.4111C115.714 40.1998 116.947 39.6196 117.076 38.5797C117.319 38.515 117.546 38.4053 117.745 38.2484C119.032 38.8056 120.418 39.1117 121.834 39.1698C122.85 39.2115 123.444 38.0312 122.969 37.1975C122.65 36.6381 122.254 36.1357 121.797 35.6991C122.506 35.9152 123.238 36.071 123.985 36.1708C124.389 36.2246 124.96 35.8911 125.121 35.5214C125.74 34.0998 125.687 32.6179 124.975 31.2346C124.947 31.1798 124.917 31.1271 124.887 31.0745C124.813 30.8913 124.733 30.7103 124.646 30.5326C125.522 29.6221 125.598 28.2685 125.126 27.1354C125.315 26.8293 125.388 26.4608 125.259 26.1273C124.892 25.1675 124.364 24.2812 123.698 23.5199C123.761 23.397 123.817 23.2665 123.865 23.1261C124.24 21.9908 123.805 20.6207 122.928 19.8298C122.377 19.3318 121.743 19.0335 121.067 18.8426C120.782 18.3402 120.415 17.8872 119.988 17.5054C119.972 17.4692 119.955 17.433 119.937 17.3968C119.272 16.1485 118.062 15.4794 116.765 15.3247C116.714 14.8366 116.384 14.3704 115.904 14.219C115.772 13.7967 115.575 13.393 115.304 13.0267C114.879 12.4497 114.171 12.1776 113.504 12.5561C113.139 12.7634 112.789 13.0014 112.461 13.2647C112.314 13.1958 112.147 13.1513 111.959 13.1371L111.911 13.1342L110.826 13.0793C110.372 12.8786 109.918 12.668 109.464 12.4628C109.191 12.238 108.886 12.0504 108.554 11.9111C108.178 11.7542 107.793 11.6654 107.406 11.6358C107.093 11.5337 106.777 11.4438 106.456 11.3736C105.701 11.209 104.911 11.1169 104.128 11.1246C104.112 10.9224 104.104 10.7179 104.105 10.5109L104.107 10.4072C104.124 9.74355 103.593 9.21373 102.967 9.11939ZM103.727 62.2164C103.835 62.2394 103.944 62.258 104.053 62.2712C104.02 62.3524 103.987 62.4335 103.955 62.5147C103.867 62.5641 103.778 62.6112 103.689 62.6551C103.715 62.5059 103.731 62.3557 103.727 62.2164ZM109.38 60.5417L109.453 60.6763C109.465 60.6984 109.477 60.7201 109.488 60.7416C109.333 60.7295 109.177 60.7328 109.023 60.7504L109.023 60.734C109.043 60.7273 109.063 60.7211 109.082 60.7119C109.188 60.6608 109.287 60.6036 109.38 60.5417ZM106.325 54.4149C105.352 54.4715 104.527 54.6203 103.642 55.0448L103.566 55.0819C102.783 55.4691 101.489 56.1843 101.598 57.2099C101.629 57.5017 101.841 57.8089 102.176 57.7858C103.092 57.7233 103.616 56.8019 104.237 56.2271C104.863 55.6479 105.632 55.0523 106.39 54.6541C106.497 54.598 106.455 54.4206 106.338 54.4149L106.325 54.4149ZM110.739 40.9018C110.973 40.9095 110.895 41.1361 110.775 40.9469C110.765 40.9315 110.753 40.9161 110.739 40.9018ZM98.148 25.8167C100.357 25.8746 102.581 27.175 104.236 28.4894C105.675 29.633 106.918 30.9932 108.019 32.4592C108.303 33.1894 108.546 33.9347 108.751 34.6856C108.887 35.1814 108.971 35.6827 109.085 36.1829L109.12 36.3362C109.209 36.5021 109.275 36.6806 109.323 36.865C109.123 37.0655 108.862 37.2091 108.576 37.2772C108.483 37.2991 108.407 37.3466 108.346 37.4096C108.116 37.0259 107.914 36.6209 107.797 36.1915L107.792 36.1717C107.349 35.4478 106.868 34.7464 106.351 34.0691C104.928 32.1988 103.36 30.4942 101.475 29.0759C100.046 28.0009 98.4479 27.1584 96.7491 26.6111C97.1649 26.2766 97.6371 26.012 98.148 25.8167Z" fill="black"></path> <path fill-rule="evenodd" clip-rule="evenodd" d="M78.1558 66.4914C78.968 66.7255 79.8399 66.7464 80.6679 66.5047C81.4189 66.2854 82.19 65.8029 82.7427 65.1645C83.2337 64.5973 83.5516 63.9081 83.5391 63.1723C83.5377 63.0883 83.5075 63.0182 83.4611 62.9637C83.4111 62.9051 83.3412 62.8649 83.2664 62.8474C83.1894 62.8295 83.108 62.8358 83.0388 62.8671C82.9761 62.8955 82.9223 62.9436 82.8887 63.014C82.8038 63.125 82.7192 63.2343 82.6342 63.3407C81.9513 64.1796 81.2899 64.8066 80.2629 65.0315C79.7057 65.1535 79.1492 65.0994 78.6386 64.9132C78.092 64.7139 77.5979 64.3635 77.2107 63.915C77.0357 63.7123 76.8291 63.6296 76.6271 63.6282C76.3982 63.6267 76.1719 63.7325 76.0015 63.9016C75.8339 64.0679 75.7218 64.2938 75.7116 64.5301C75.7027 64.7375 75.7707 64.9542 75.9516 65.1474C76.5476 65.7842 77.32 66.2506 78.1558 66.4914ZM78.1807 55.9837C77.348 56.4872 76.0793 57.6612 76.9751 58.9095C78.0294 60.0101 79.5474 58.7482 80.2955 58.1774C80.9891 57.7351 81.7685 58.8727 81.1249 59.3892C75.7194 63.3705 73.5258 56.1153 77.7595 55.3917C78.2257 55.312 78.3988 55.8279 78.1807 55.9837ZM85.9695 53.7682C86.2371 53.5979 86.5519 53.5395 86.9008 53.6974C87.1735 53.8207 87.6517 54.2319 87.9844 54.7725C88.2121 55.1423 88.3736 55.5761 88.3399 56.028C88.3321 56.1329 88.3711 56.2103 88.4326 56.2675C88.4812 56.3127 88.5513 56.3459 88.6337 56.3563C88.7036 56.3651 88.7819 56.3571 88.8456 56.3374C88.9667 56.2998 89.0307 56.2216 89.0549 56.1578C89.2879 55.5422 89.1875 54.8552 88.9264 54.2355C88.5739 53.399 87.9339 52.6984 87.5146 52.4725C86.797 52.0859 85.9505 52.0681 85.232 52.462C84.6203 52.7973 84.2378 53.3386 83.8574 53.8903C83.7765 54.0076 83.6963 54.124 83.6133 54.2384C83.4471 54.4676 83.4305 54.6949 83.4949 54.8899C83.5662 55.1058 83.7481 55.288 83.9755 55.3834C84.1857 55.4716 84.4296 55.484 84.6455 55.3934C84.8278 55.3169 84.9951 55.1677 85.101 54.9147C85.2794 54.4885 85.5765 54.0182 85.9695 53.7682V53.7682ZM72.3781 54.7165C72.5614 54.8115 72.7048 54.8402 72.9081 54.7796C73.0206 54.746 73.1317 54.6816 73.2187 54.595C73.3049 54.5092 73.3671 54.4026 73.3913 54.2842C73.4508 53.9922 73.6114 53.7188 73.8403 53.5406C74.0359 53.3883 74.2828 53.3076 74.5567 53.3531C74.8523 53.4022 75.1339 53.5908 75.3278 53.8131C75.3926 53.8875 75.4434 53.972 75.4945 54.0559C75.5901 54.2128 75.6829 54.3587 75.8147 54.474C75.8647 54.5178 75.9399 54.5482 76.0128 54.5482C76.0425 54.5482 76.0726 54.5434 76.1012 54.5345C76.3954 54.2408 76.4519 54.018 76.4425 53.797C76.4325 53.5652 76.3407 53.3305 76.1922 53.1116C75.8441 52.598 75.183 52.1769 74.7369 52.0816C74.126 51.9509 73.5193 52.1077 73.0329 52.4472C72.5324 52.7964 72.1615 53.3387 72.0459 53.9498C72.0181 54.097 72.0299 54.2559 72.0862 54.3936C72.1413 54.5282 72.2372 54.6435 72.3781 54.7165ZM84.6223 48.2935C84.9889 48.6488 85.4229 48.7039 85.8618 48.7528C86.1058 48.7803 86.3005 48.8024 86.4921 48.8454C87.0187 48.9637 87.5393 49.1418 88.0143 49.3984C88.5107 49.6665 89.0518 49.99 89.441 50.4043C89.5336 50.5029 89.6208 50.6063 89.7082 50.71C89.7879 50.8045 89.8646 50.8956 89.9455 50.9833C90.0384 51.0841 90.1266 51.1898 90.2144 51.2951C90.2686 51.3841 90.2793 51.4059 90.2903 51.4287C90.3067 51.4629 90.3258 51.5012 90.3477 51.5422C90.3776 51.5985 90.4126 51.6601 90.4493 51.7159C90.5104 51.8179 90.5431 51.846 90.5714 51.8586C90.6184 51.8794 90.663 51.8897 90.7062 51.8841C90.7467 51.8789 90.7849 51.8595 90.8226 51.8278C91.0108 51.6696 91.0663 51.41 91.0606 51.1344C91.052 50.7161 90.8969 50.2531 90.754 49.9684C90.4216 49.307 89.9607 48.6194 89.4064 48.1258C88.7739 47.5623 88.082 47.1357 87.2872 46.8418C86.7933 46.659 86.2215 46.4913 85.6834 46.5125C85.296 46.5277 84.9263 46.6423 84.6209 46.9283C84.4334 47.1039 84.3434 47.3536 84.3434 47.6032C84.3434 47.8578 84.4369 48.1138 84.6223 48.2935ZM71.6324 51.5467C71.6557 51.5847 71.688 51.6109 71.7239 51.6266C71.7615 51.6431 71.8036 51.6479 71.8439 51.6411C71.884 51.6344 71.9222 51.6163 71.9525 51.5886C71.9815 51.5621 72.0036 51.5269 72.0135 51.4838C72.2569 50.4203 72.7295 49.629 73.7383 49.1187C74.2345 48.8677 74.8051 48.7082 75.3453 48.5811C75.5023 48.5441 75.6682 48.5202 75.8352 48.4959C76.3587 48.4199 76.886 48.3328 77.2273 47.9118C77.4329 47.6582 77.5192 47.3339 77.4704 47.0373C77.4245 46.7581 77.2605 46.502 76.9623 46.3486C76.2199 45.9667 75.2974 46.3414 74.5478 46.6606C74.4922 46.6843 74.4376 46.7075 74.3842 46.7299C73.6511 47.0378 72.9825 47.4441 72.4328 48.0253C71.9967 48.4863 71.5927 49.1678 71.43 49.869C71.2946 50.4523 71.3264 51.0477 71.6324 51.5467Z" fill="black"></path> </svg> 