<?xml version="1.0" encoding="UTF-8"?> <svg xmlns="http://www.w3.org/2000/svg" width="280" height="295" viewBox="0 0 280 295" fill="none"> <rect width="280" height="295" fill="white"></rect> <rect x="1" y="30" width="278" height="264" fill="white" stroke="#1A1A1A" stroke-width="2"></rect> <line y1="57.5" x2="280" y2="57.5" stroke="black"></line> <path d="M119.701 45.0694H118.471L118.232 45.9832H117.278L118.674 41.5181H119.499L120.903 45.9832H119.94L119.701 45.0694ZM118.667 44.318H119.502L119.085 42.7264L118.667 44.318Z" fill="#1A1A1A"></path> <path d="M121.323 45.9832V41.5181H122.504C123.025 41.5181 123.44 41.6837 123.749 42.0149C124.06 42.3461 124.218 42.8 124.224 43.3765V44.1003C124.224 44.687 124.069 45.1481 123.758 45.4834C123.45 45.8166 123.023 45.9832 122.479 45.9832H121.323ZM122.225 42.2694V45.235H122.495C122.795 45.235 123.007 45.1562 123.13 44.9988C123.252 44.8394 123.317 44.5654 123.323 44.1769V43.401C123.323 42.984 123.264 42.6937 123.148 42.5301C123.031 42.3645 122.833 42.2776 122.553 42.2694H122.225Z" fill="#1A1A1A"></path> <path d="M127.224 44.4131V45.9832H126.322V41.5181H127.843C128.285 41.5181 128.636 41.655 128.898 41.929C129.162 42.203 129.294 42.5587 129.294 42.9962C129.294 43.4338 129.164 43.7793 128.904 44.0328C128.645 44.2863 128.285 44.4131 127.825 44.4131H127.224ZM127.224 43.6617H127.843C128.015 43.6617 128.148 43.6055 128.242 43.4931C128.336 43.3806 128.383 43.217 128.383 43.0024C128.383 42.7795 128.335 42.6027 128.239 42.4718C128.143 42.3389 128.014 42.2715 127.852 42.2694H127.224V43.6617Z" fill="#1A1A1A"></path> <path d="M130.799 45.235H132.382V45.9832H129.898V41.5181H130.799V45.235Z" fill="#1A1A1A"></path> <path d="M135.096 45.0694H133.866L133.627 45.9832H132.673L134.069 41.5181H134.894L136.298 45.9832H135.335L135.096 45.0694ZM134.062 44.318H134.897L134.48 42.7264L134.062 44.318Z" fill="#1A1A1A"></path> <path d="M139.84 45.9832H138.939L137.62 43.0545V45.9832H136.718V41.5181H137.62L138.942 44.4499V41.5181H139.84V45.9832Z" fill="#1A1A1A"></path> <path d="M143.686 45.9832H142.784L141.466 43.0545V45.9832H140.564V41.5181H141.466L142.787 44.4499V41.5181H143.686V45.9832Z" fill="#1A1A1A"></path> <path d="M146.716 44.0512H145.311V45.235H146.973V45.9832H144.41V41.5181H146.967V42.2694H145.311V43.3244H146.716V44.0512Z" fill="#1A1A1A"></path> <path d="M148.847 44.3517H148.4V45.9832H147.498V41.5181H148.936C149.388 41.5181 149.737 41.6356 149.982 41.8707C150.229 42.1038 150.353 42.436 150.353 42.8674C150.353 43.4603 150.137 43.8754 149.706 44.1125L150.488 45.9403V45.9832H149.519L148.847 44.3517ZM148.4 43.6004H148.912C149.092 43.6004 149.227 43.5411 149.316 43.4225C149.406 43.3019 149.451 43.1414 149.451 42.941C149.451 42.4933 149.277 42.2694 148.927 42.2694H148.4V43.6004Z" fill="#1A1A1A"></path> <path d="M184.952 44.3518H184.505V45.9833H183.603V41.5181H185.041C185.493 41.5181 185.842 41.6357 186.087 41.8708C186.334 42.1039 186.458 42.4361 186.458 42.8675C186.458 43.4604 186.242 43.8754 185.811 44.1126L186.593 45.9404V45.9833H185.624L184.952 44.3518ZM184.505 43.6004H185.017C185.197 43.6004 185.332 43.5412 185.422 43.4226C185.512 43.3019 185.557 43.1415 185.557 42.9411C185.557 42.4933 185.382 42.2695 185.032 42.2695H184.505V43.6004Z" fill="#1A1A1A"></path> <path d="M189.384 44.0513H187.979V45.235H189.641V45.9833H187.078V41.5181H189.635V42.2695H187.979V43.3244H189.384V44.0513Z" fill="#1A1A1A"></path> <path d="M191.064 44.4131V45.9833H190.163V41.5181H191.684C192.126 41.5181 192.477 41.6551 192.739 41.9291C193.003 42.203 193.134 42.5588 193.134 42.9963C193.134 43.4338 193.005 43.7793 192.745 44.0329C192.485 44.2864 192.126 44.4131 191.666 44.4131H191.064ZM191.064 43.6618H191.684C191.856 43.6618 191.989 43.6056 192.083 43.4931C192.177 43.3807 192.224 43.2171 192.224 43.0024C192.224 42.7796 192.176 42.6027 192.08 42.4719C191.983 42.339 191.855 42.2715 191.693 42.2695H191.064V43.6618Z" fill="#1A1A1A"></path> <path d="M196.882 44.1525C196.882 44.7515 196.74 45.2166 196.456 45.5478C196.174 45.879 195.781 46.0446 195.278 46.0446C194.777 46.0446 194.384 45.8811 194.097 45.554C193.811 45.2248 193.666 44.7648 193.662 44.1739V43.4103C193.662 42.797 193.804 42.3185 194.088 41.9751C194.372 41.6295 194.767 41.4568 195.272 41.4568C195.769 41.4568 196.16 41.6265 196.447 41.9659C196.733 42.3032 196.878 42.7775 196.882 43.3888V44.1525ZM195.977 43.4042C195.977 43.0014 195.92 42.7019 195.806 42.5056C195.691 42.3093 195.513 42.2112 195.272 42.2112C195.033 42.2112 194.856 42.3063 194.741 42.4964C194.627 42.6845 194.568 42.9718 194.564 43.3582V44.1525C194.564 44.543 194.622 44.8312 194.738 45.0173C194.855 45.2013 195.035 45.2933 195.278 45.2933C195.513 45.2933 195.688 45.2033 195.803 45.0234C195.917 44.8415 195.975 44.5603 195.977 44.1801V43.4042Z" fill="#1A1A1A"></path> <path d="M198.882 44.3518H198.434V45.9833H197.532V41.5181H198.97C199.422 41.5181 199.771 41.6357 200.016 41.8708C200.264 42.1039 200.387 42.4361 200.387 42.8675C200.387 43.4604 200.172 43.8754 199.74 44.1126L200.522 45.9404V45.9833H199.553L198.882 44.3518ZM198.434 43.6004H198.946C199.126 43.6004 199.261 43.5412 199.351 43.4226C199.441 43.3019 199.486 43.1415 199.486 42.9411C199.486 42.4933 199.311 42.2695 198.961 42.2695H198.434V43.6004Z" fill="#1A1A1A"></path> <path d="M203.745 42.2695H202.641V45.9833H201.737V42.2695H200.651V41.5181H203.745V42.2695Z" fill="#1A1A1A"></path> <path d="M205.205 45.9833H204.304V41.5181H205.205V45.9833Z" fill="#1A1A1A"></path> <path d="M209.085 45.9833H208.183L206.864 43.0546V45.9833H205.963V41.5181H206.864L208.186 44.4499V41.5181H209.085V45.9833Z" fill="#1A1A1A"></path> <path d="M212.844 45.4773C212.671 45.6654 212.457 45.8075 212.204 45.9036C211.952 45.9976 211.676 46.0446 211.375 46.0446C210.862 46.0446 210.464 45.8862 210.179 45.5693C209.895 45.2504 209.749 44.7873 209.741 44.1801V43.3766C209.741 42.7612 209.875 42.2879 210.143 41.9567C210.413 41.6234 210.805 41.4568 211.32 41.4568C211.805 41.4568 212.17 41.5764 212.415 41.8156C212.662 42.0548 212.806 42.43 212.844 42.9411H211.967C211.943 42.6569 211.884 42.4637 211.789 42.3615C211.695 42.2572 211.548 42.2051 211.348 42.2051C211.105 42.2051 210.928 42.294 210.817 42.4719C210.707 42.6498 210.65 42.9329 210.646 43.3214V44.131C210.646 44.5378 210.706 44.8343 210.827 45.0203C210.949 45.2044 211.15 45.2964 211.428 45.2964C211.605 45.2964 211.75 45.2606 211.86 45.189L211.94 45.1338V44.315H211.308V43.6342H212.844V45.4773Z" fill="#1A1A1A"></path> <path d="M245.861 44.4131V45.9833H244.959V41.5181H246.48C246.922 41.5181 247.273 41.6551 247.535 41.9291C247.799 42.203 247.931 42.5588 247.931 42.9963C247.931 43.4338 247.801 43.7793 247.541 44.0329C247.282 44.2864 246.922 44.4131 246.462 44.4131H245.861ZM245.861 43.6618H246.48C246.652 43.6618 246.785 43.6056 246.879 43.4931C246.973 43.3807 247.02 43.2171 247.02 43.0024C247.02 42.7796 246.972 42.6027 246.876 42.4719C246.78 42.339 246.651 42.2715 246.489 42.2695H245.861V43.6618Z" fill="#1A1A1A"></path> <path d="M249.436 45.235H251.019V45.9833H248.535V41.5181H249.436V45.235Z" fill="#1A1A1A"></path> <path d="M253.733 45.0694H252.503L252.264 45.9833H251.31L252.706 41.5181H253.531L254.935 45.9833H253.972L253.733 45.0694ZM252.699 44.3181H253.534L253.117 42.7264L252.699 44.3181Z" fill="#1A1A1A"></path> <path d="M257.879 42.2695H256.775V45.9833H255.87V42.2695H254.785V41.5181H257.879V42.2695Z" fill="#1A1A1A"></path> <path d="M260.701 44.1617H259.299V45.9833H258.397V41.5181H260.869V42.2695H259.299V43.4134H260.701V44.1617Z" fill="#1A1A1A"></path> <path d="M264.528 44.1525C264.528 44.7515 264.386 45.2166 264.102 45.5478C263.819 45.879 263.427 46.0446 262.924 46.0446C262.423 46.0446 262.03 45.8811 261.743 45.554C261.457 45.2248 261.312 44.7648 261.308 44.1739V43.4103C261.308 42.797 261.45 42.3185 261.734 41.9751C262.018 41.6295 262.413 41.4568 262.918 41.4568C263.415 41.4568 263.806 41.6265 264.092 41.9659C264.379 42.3032 264.524 42.7775 264.528 43.3888V44.1525ZM263.623 43.4042C263.623 43.0014 263.566 42.7019 263.451 42.5056C263.337 42.3093 263.159 42.2112 262.918 42.2112C262.679 42.2112 262.502 42.3063 262.387 42.4964C262.273 42.6845 262.214 42.9718 262.209 43.3582V44.1525C262.209 44.543 262.268 44.8312 262.384 45.0173C262.501 45.2013 262.681 45.2933 262.924 45.2933C263.159 45.2933 263.334 45.2033 263.448 45.0234C263.563 44.8415 263.621 44.5603 263.623 44.1801V43.4042Z" fill="#1A1A1A"></path> <path d="M266.527 44.3518H266.08V45.9833H265.178V41.5181H266.616C267.068 41.5181 267.417 41.6357 267.662 41.8708C267.909 42.1039 268.033 42.4361 268.033 42.8675C268.033 43.4604 267.817 43.8754 267.386 44.1126L268.168 45.9404V45.9833H267.199L266.527 44.3518ZM266.08 43.6004H266.592C266.772 43.6004 266.907 43.5412 266.997 43.4226C267.087 43.3019 267.132 43.1415 267.132 42.9411C267.132 42.4933 266.957 42.2695 266.607 42.2695H266.08V43.6004Z" fill="#1A1A1A"></path> <path d="M269.83 41.5181L270.674 44.7474L271.514 41.5181H272.692V45.9833H271.787V44.775L271.87 42.9135L270.977 45.9833H270.364L269.471 42.9135L269.554 44.775V45.9833H268.653V41.5181H269.83Z" fill="#1A1A1A"></path> <path d="M275.304 44.8118C275.304 44.6298 275.257 44.4929 275.163 44.4009C275.071 44.3068 274.903 44.2097 274.657 44.1095C274.21 43.9398 273.888 43.7415 273.691 43.5146C273.495 43.2856 273.397 43.0157 273.397 42.705C273.397 42.3288 273.53 42.0272 273.796 41.8003C274.063 41.5713 274.403 41.4568 274.814 41.4568C275.088 41.4568 275.332 41.5151 275.547 41.6316C275.761 41.7461 275.926 41.9086 276.04 42.1192C276.157 42.3298 276.215 42.569 276.215 42.8368H275.317C275.317 42.6283 275.272 42.4698 275.182 42.3615C275.094 42.2511 274.966 42.1959 274.798 42.1959C274.641 42.1959 274.518 42.2429 274.43 42.3369C274.342 42.4289 274.299 42.5537 274.299 42.7111C274.299 42.8338 274.348 42.9452 274.446 43.0454C274.544 43.1435 274.718 43.2457 274.967 43.352C275.403 43.5095 275.718 43.7027 275.915 43.9317C276.113 44.1606 276.212 44.452 276.212 44.8057C276.212 45.1941 276.088 45.4977 275.841 45.7165C275.594 45.9353 275.257 46.0446 274.832 46.0446C274.544 46.0446 274.281 45.9853 274.044 45.8668C273.807 45.7482 273.621 45.5785 273.486 45.3577C273.353 45.1369 273.287 44.8762 273.287 44.5757H274.191C274.191 44.8333 274.241 45.0203 274.341 45.1369C274.442 45.2534 274.605 45.3117 274.832 45.3117C275.147 45.3117 275.304 45.1451 275.304 44.8118Z" fill="#1A1A1A"></path> <path d="M24.7368 137.842H23.8853L22.6399 135.076V137.842H21.7883V133.625H22.6399L23.8882 136.394V133.625H24.7368V137.842Z" fill="#1A1A1A"></path> <path d="M27.4855 136.979H26.324L26.0981 137.842H25.1974L26.5152 133.625H27.2943L28.6209 137.842H27.7114L27.4855 136.979ZM26.5094 136.27H27.2972L26.9033 134.766L26.5094 136.27Z" fill="#1A1A1A"></path> <path d="M30.1299 133.625L30.9264 136.675L31.72 133.625H32.8322V137.842H31.9778V136.701L32.056 134.943L31.2131 137.842H30.6338L29.791 134.943L29.8692 136.701V137.842H29.0177V133.625H30.1299Z" fill="#1A1A1A"></path> <path d="M35.6967 136.018H34.3702V137.136H35.94V137.842H33.5186V133.625H35.9342V134.335H34.3702V135.331H35.6967V136.018Z" fill="#1A1A1A"></path> <path d="M182.257 136.437C182.236 136.918 182.1 137.282 181.851 137.529C181.602 137.777 181.251 137.9 180.797 137.9C180.32 137.9 179.954 137.744 179.699 137.431C179.446 137.116 179.32 136.668 179.32 136.087V135.377C179.32 134.798 179.451 134.352 179.714 134.039C179.976 133.725 180.341 133.567 180.809 133.567C181.268 133.567 181.617 133.696 181.854 133.952C182.094 134.209 182.23 134.578 182.263 135.059H181.408C181.4 134.761 181.354 134.557 181.269 134.445C181.186 134.331 181.033 134.274 180.809 134.274C180.581 134.274 180.419 134.354 180.325 134.514C180.23 134.673 180.18 134.934 180.174 135.299V136.096C180.174 136.515 180.221 136.802 180.313 136.959C180.408 137.115 180.569 137.193 180.797 137.193C181.021 137.193 181.175 137.139 181.26 137.031C181.345 136.921 181.394 136.723 181.405 136.437H182.257Z" fill="#1A1A1A"></path> <path d="M184.794 136.979H183.633L183.407 137.842H182.506L183.824 133.625H184.603L185.929 137.842H185.02L184.794 136.979ZM183.818 136.269H184.606L184.212 134.766L183.818 136.269Z" fill="#1A1A1A"></path> <path d="M187.438 133.625L188.235 136.675L189.028 133.625H190.141V137.842H189.286V136.701L189.364 134.943L188.522 137.842H187.942L187.099 134.943L187.178 136.701V137.842H186.326V133.625H187.438Z" fill="#1A1A1A"></path> <path d="M192.892 136.979H191.731L191.505 137.842H190.604L191.922 133.625H192.701L194.028 137.842H193.118L192.892 136.979ZM191.916 136.269H192.704L192.31 134.766L191.916 136.269Z" fill="#1A1A1A"></path> <path d="M195.314 137.842H194.462V133.625H195.314V137.842Z" fill="#1A1A1A"></path> <path d="M198.896 137.364C198.732 137.542 198.53 137.676 198.291 137.767C198.054 137.856 197.793 137.9 197.509 137.9C197.024 137.9 196.648 137.75 196.379 137.451C196.111 137.15 195.973 136.713 195.965 136.139V135.38C195.965 134.799 196.092 134.352 196.345 134.039C196.6 133.725 196.97 133.567 197.457 133.567C197.915 133.567 198.259 133.68 198.491 133.906C198.725 134.132 198.86 134.486 198.896 134.969H198.068C198.045 134.701 197.989 134.518 197.9 134.422C197.811 134.323 197.672 134.274 197.483 134.274C197.253 134.274 197.086 134.358 196.982 134.526C196.878 134.694 196.824 134.961 196.82 135.328V136.093C196.82 136.477 196.877 136.757 196.991 136.933C197.106 137.107 197.296 137.193 197.558 137.193C197.726 137.193 197.862 137.16 197.967 137.092L198.042 137.04V136.267H197.445V135.624H198.896V137.364Z" fill="#1A1A1A"></path> <path d="M202.447 137.842H201.596L200.35 135.076V137.842H199.499V133.625H200.35L201.599 136.394V133.625H202.447V137.842Z" fill="#1A1A1A"></path> <path d="M204.912 136.736C204.912 136.564 204.868 136.435 204.779 136.348C204.692 136.259 204.533 136.167 204.301 136.072C203.878 135.912 203.574 135.725 203.389 135.511C203.203 135.294 203.111 135.039 203.111 134.746C203.111 134.391 203.236 134.106 203.487 133.892C203.74 133.675 204.061 133.567 204.449 133.567C204.707 133.567 204.938 133.622 205.141 133.732C205.344 133.84 205.499 133.994 205.607 134.193C205.717 134.392 205.772 134.618 205.772 134.871H204.924C204.924 134.674 204.881 134.524 204.796 134.422C204.713 134.317 204.593 134.265 204.434 134.265C204.286 134.265 204.17 134.31 204.087 134.398C204.004 134.485 203.962 134.603 203.962 134.752C203.962 134.868 204.008 134.973 204.101 135.067C204.194 135.16 204.358 135.257 204.594 135.357C205.005 135.506 205.303 135.688 205.489 135.905C205.676 136.121 205.769 136.396 205.769 136.73C205.769 137.097 205.653 137.384 205.419 137.59C205.185 137.797 204.868 137.9 204.466 137.9C204.194 137.9 203.946 137.844 203.722 137.732C203.498 137.62 203.322 137.46 203.195 137.251C203.069 137.043 203.006 136.797 203.006 136.513H203.861C203.861 136.756 203.908 136.933 204.003 137.043C204.097 137.153 204.252 137.208 204.466 137.208C204.763 137.208 204.912 137.051 204.912 136.736Z" fill="#1A1A1A"></path> <path d="M23.7456 83.049C23.6956 84.1803 23.3776 85.0367 22.7915 85.6183C22.2054 86.1998 21.3785 86.4906 20.3109 86.4906C19.1886 86.4906 18.3277 86.1226 17.728 85.3866C17.1328 84.646 16.8352 83.592 16.8352 82.2244V80.5547C16.8352 79.1917 17.1442 78.1422 17.762 77.4062C18.3799 76.6657 19.2386 76.2954 20.3381 76.2954C21.4194 76.2954 22.2395 76.5975 22.7983 77.2018C23.3617 77.806 23.682 78.6738 23.7592 79.8051H21.7488C21.7306 79.1054 21.6216 78.6238 21.4217 78.3603C21.2263 78.0923 20.8651 77.9582 20.3381 77.9582C19.802 77.9582 19.4226 78.1468 19.2 78.5239C18.9774 78.8964 18.8593 79.512 18.8456 80.3707V82.2449C18.8456 83.2308 18.9547 83.9077 19.1727 84.2757C19.3954 84.6437 19.7747 84.8277 20.3109 84.8277C20.8379 84.8277 21.2013 84.7005 21.4012 84.4461C21.6012 84.1871 21.7147 83.7214 21.742 83.049H23.7456Z" fill="#1A1A1A"></path> <path d="M26.7646 79.6279C27.1826 79.1054 27.696 78.8442 28.3048 78.8442C28.9772 78.8442 29.4884 79.0804 29.8382 79.5529C30.188 80.0254 30.3652 80.7297 30.3698 81.6656V86.3543H28.4343V81.686C28.4343 81.2544 28.3662 80.9432 28.2299 80.7524C28.0981 80.557 27.8823 80.4593 27.5824 80.4593C27.2326 80.4593 26.96 80.6206 26.7646 80.9432V86.3543H24.836V75.8865H26.7646V79.6279Z" fill="#1A1A1A"></path> <path d="M34.7314 86.4906C33.7409 86.4906 32.9686 86.1953 32.4143 85.6047C31.86 85.014 31.5828 84.169 31.5828 83.0695V82.4834C31.5828 81.3203 31.8373 80.423 32.3461 79.7915C32.855 79.1599 33.5842 78.8442 34.5337 78.8442C35.4606 78.8442 36.158 79.1418 36.6259 79.7369C37.0939 80.3276 37.3324 81.2044 37.3415 82.3675V83.3148H33.5047C33.5319 83.86 33.6523 84.2598 33.8659 84.5143C34.0794 84.7641 34.4088 84.8891 34.854 84.8891C35.4992 84.8891 36.0376 84.6687 36.4692 84.228L37.2257 85.3934C36.9894 85.7205 36.6464 85.9863 36.1966 86.1907C35.7468 86.3906 35.2584 86.4906 34.7314 86.4906ZM33.5183 81.9654H35.4469V81.7883C35.4379 81.3476 35.3652 81.0136 35.2289 80.7865C35.0926 80.5593 34.8563 80.4457 34.5201 80.4457C34.1839 80.4457 33.9386 80.5661 33.7841 80.8069C33.6342 81.0477 33.5456 81.4339 33.5183 81.9654Z" fill="#1A1A1A"></path> <path d="M41.0966 84.8891C41.6554 84.8891 41.9394 84.5256 41.9484 83.7987H43.7612C43.7521 84.6028 43.5045 85.2525 43.0184 85.7478C42.5323 86.243 41.9053 86.4906 41.1375 86.4906C40.1879 86.4906 39.4632 86.1953 38.9635 85.6047C38.4637 85.014 38.2093 84.144 38.2002 82.9945V82.4084C38.2002 81.2499 38.4455 80.3662 38.9362 79.7574C39.4314 79.1486 40.1606 78.8442 41.1238 78.8442C41.9371 78.8442 42.5777 79.0963 43.0457 79.6006C43.5136 80.1004 43.7521 80.8114 43.7612 81.7337H41.9484C41.9439 81.3203 41.8758 81.0023 41.744 80.7796C41.6122 80.557 41.3942 80.4457 41.0898 80.4457C40.7536 80.4457 40.5128 80.5661 40.3674 80.8069C40.222 81.0432 40.1447 81.5043 40.1357 82.1903V82.94C40.1357 83.5397 40.1652 83.96 40.2243 84.2008C40.2833 84.437 40.381 84.6119 40.5173 84.7255C40.6536 84.8346 40.8467 84.8891 41.0966 84.8891Z" fill="#1A1A1A"></path> <path d="M47.2982 83.5124L46.7803 84.0917V86.3543H44.8516V75.8865H46.7803V81.5429L47.0188 81.1885L48.3545 78.9805H50.6512L48.5113 82.02L50.8556 86.3543H48.6476L47.2982 83.5124Z" fill="#1A1A1A"></path> <path d="M54.9992 82.9059H51.6666V81.2976H54.9992V82.9059Z" fill="#1A1A1A"></path> <path d="M63.1499 76.4317V83.3012C63.1408 84.3325 62.8568 85.1231 62.298 85.6728C61.7392 86.218 60.9373 86.4906 59.8923 86.4906C58.8292 86.4906 58.0159 86.2135 57.4526 85.6592C56.8937 85.1049 56.6143 84.303 56.6143 83.2535V76.4317H58.6315V83.2603C58.6315 83.8237 58.7224 84.2258 58.9041 84.4665C59.0859 84.7073 59.4153 84.8277 59.8923 84.8277C60.3694 84.8277 60.6965 84.7096 60.8737 84.4734C61.0509 84.2326 61.1417 83.8396 61.1463 83.2944V76.4317H63.1499Z" fill="#1A1A1A"></path> <path d="M70.3193 82.8991C70.3193 84.0576 70.1193 84.9459 69.7195 85.5638C69.3243 86.1817 68.7336 86.4906 67.9476 86.4906C67.3479 86.4906 66.8663 86.2475 66.5029 85.7614V89.1893H64.5742V78.9805H66.3597L66.4279 79.6552C66.7959 79.1145 67.2979 78.8442 67.934 78.8442C68.72 78.8442 69.3106 79.1304 69.7059 79.7029C70.1057 80.2753 70.3102 81.1522 70.3193 82.3335V82.8991ZM68.3974 82.4152C68.3974 81.7019 68.3179 81.1976 68.1589 80.9023C68.0044 80.607 67.7409 80.4593 67.3684 80.4593C66.9731 80.4593 66.6846 80.6252 66.5029 80.9568V84.412C66.6755 84.7301 66.9685 84.8891 67.382 84.8891C67.7636 84.8891 68.0271 84.7278 68.1725 84.4052C68.3225 84.0826 68.3974 83.5806 68.3974 82.8991V82.4152Z" fill="#1A1A1A"></path> <path d="M74.749 84.378C74.749 84.2144 74.6695 84.0645 74.5105 83.9282C74.356 83.7873 74.0084 83.5988 73.4678 83.3625C72.6727 83.0399 72.1252 82.706 71.8254 82.3607C71.53 82.0154 71.3824 81.5861 71.3824 81.0727C71.3824 80.4275 71.6141 79.896 72.0775 79.478C72.5455 79.0554 73.1634 78.8442 73.9312 78.8442C74.7399 78.8442 75.3873 79.0532 75.8735 79.4712C76.3596 79.8891 76.6027 80.4502 76.6027 81.1545H74.674C74.674 80.5547 74.4241 80.2549 73.9244 80.2549C73.7199 80.2549 73.5518 80.3185 73.4201 80.4457C73.2883 80.5729 73.2224 80.7501 73.2224 80.9773C73.2224 81.1408 73.2951 81.2862 73.4405 81.4134C73.5859 81.5361 73.9289 81.7133 74.4696 81.945C75.2556 82.2358 75.8099 82.5606 76.1324 82.9195C76.4596 83.2739 76.6231 83.7351 76.6231 84.303C76.6231 84.9618 76.3755 85.4911 75.8803 85.8909C75.3851 86.2907 74.7354 86.4906 73.9312 86.4906C73.3905 86.4906 72.9135 86.3861 72.5 86.1771C72.0866 85.9636 71.7618 85.6683 71.5255 85.2912C71.2938 84.9141 71.1779 84.5074 71.1779 84.0713H73.0112C73.0203 84.4075 73.0975 84.6596 73.2429 84.8277C73.3928 84.9958 73.6359 85.0799 73.9721 85.0799C74.49 85.0799 74.749 84.8459 74.749 84.378Z" fill="#1A1A1A"></path> <rect x="16.0497" y="184.622" width="63.1559" height="6.46946" rx="3.23473" fill="#F5F2EF"></rect> <rect x="16.0497" y="211.817" width="63.1559" height="6.46946" rx="3.23473" fill="#F5F2EF"></rect> <rect x="16.0497" y="239.013" width="63.1559" height="6.46946" rx="3.23473" fill="#F5F2EF"></rect> <rect x="16.0497" y="266.209" width="63.1559" height="6.46946" rx="3.23473" fill="#F5F2EF"></rect> <rect x="189.527" y="265.224" width="71.1812" height="6.62962" rx="3.31481" fill="#F5F2EF"></rect> <rect x="189.527" y="238.705" width="71.1812" height="6.62962" rx="3.31481" fill="#F5F2EF"></rect> <rect x="189.527" y="210.791" width="71.1812" height="6.62962" rx="3.31481" fill="#F5F2EF"></rect> <rect x="189.527" y="183.924" width="71.1812" height="6.62962" rx="3.31481" fill="#F5F2EF"></rect> <path d="M31.265 111.512C31.265 111.33 31.218 111.193 31.1239 111.101C31.0319 111.007 30.8632 110.91 30.6179 110.81C30.1702 110.64 29.8482 110.442 29.6519 110.215C29.4556 109.986 29.3575 109.716 29.3575 109.406C29.3575 109.029 29.4904 108.728 29.7562 108.501C30.024 108.272 30.3634 108.157 30.7743 108.157C31.0483 108.157 31.2926 108.216 31.5073 108.332C31.7219 108.447 31.8865 108.609 32.001 108.82C32.1175 109.03 32.1758 109.27 32.1758 109.537H31.2773C31.2773 109.329 31.2323 109.17 31.1423 109.062C31.0544 108.952 30.9266 108.896 30.759 108.896C30.6015 108.896 30.4789 108.944 30.391 109.038C30.3031 109.13 30.2591 109.254 30.2591 109.412C30.2591 109.534 30.3082 109.646 30.4063 109.746C30.5044 109.844 30.6782 109.946 30.9276 110.053C31.3631 110.21 31.679 110.403 31.8753 110.632C32.0736 110.861 32.1727 111.153 32.1727 111.506C32.1727 111.895 32.0491 112.198 31.8017 112.417C31.5543 112.636 31.218 112.745 30.7927 112.745C30.5044 112.745 30.2417 112.686 30.0046 112.567C29.7674 112.449 29.5813 112.279 29.4464 112.058C29.3135 111.837 29.2471 111.577 29.2471 111.276H30.1518C30.1518 111.534 30.2019 111.721 30.302 111.837C30.4022 111.954 30.5658 112.012 30.7927 112.012C31.1076 112.012 31.265 111.846 31.265 111.512Z" fill="#888888"></path> <path d="M34.068 112.745C33.6223 112.745 33.2747 112.612 33.0253 112.347C32.7759 112.081 32.6512 111.701 32.6512 111.206V110.942C32.6512 110.419 32.7657 110.015 32.9946 109.731C33.2236 109.446 33.5518 109.304 33.9791 109.304C34.3961 109.304 34.71 109.438 34.9206 109.706C35.1311 109.972 35.2385 110.366 35.2426 110.89V111.316H33.516C33.5282 111.561 33.5824 111.741 33.6785 111.856C33.7746 111.968 33.9228 112.025 34.1232 112.025C34.4135 112.025 34.6558 111.925 34.85 111.727L35.1904 112.251C35.0841 112.399 34.9298 112.518 34.7273 112.61C34.5249 112.7 34.3052 112.745 34.068 112.745ZM33.5221 110.709H34.39V110.629C34.3859 110.431 34.3532 110.281 34.2919 110.178C34.2305 110.076 34.1242 110.025 33.9729 110.025C33.8216 110.025 33.7112 110.079 33.6417 110.188C33.5742 110.296 33.5344 110.47 33.5221 110.709Z" fill="#888888"></path> <path d="M37.3095 112.684C37.285 112.633 37.2605 112.547 37.2359 112.426C37.0806 112.639 36.87 112.745 36.6042 112.745C36.3261 112.745 36.0951 112.653 35.9111 112.469C35.7291 112.285 35.6382 112.047 35.6382 111.755C35.6382 111.407 35.7486 111.138 35.9694 110.948C36.1922 110.758 36.5122 110.661 36.9293 110.657H37.193V110.39C37.193 110.241 37.1675 110.135 37.1163 110.074C37.0652 110.013 36.9906 109.982 36.8925 109.982C36.6758 109.982 36.5674 110.109 36.5674 110.362H35.6995C35.6995 110.056 35.814 109.803 36.043 109.605C36.274 109.405 36.5653 109.304 36.917 109.304C37.2809 109.304 37.562 109.399 37.7604 109.59C37.9607 109.778 38.0609 110.048 38.0609 110.399V111.96C38.065 112.246 38.1059 112.47 38.1836 112.632V112.684H37.3095ZM36.7974 112.064C36.8935 112.064 36.9753 112.045 37.0427 112.006C37.1102 111.967 37.1603 111.921 37.193 111.868V111.178H36.9845C36.8373 111.178 36.7207 111.225 36.6349 111.319C36.551 111.413 36.5091 111.539 36.5091 111.696C36.5091 111.942 36.6052 112.064 36.7974 112.064Z" fill="#888888"></path> <path d="M40.3272 110.203L40.0389 110.178C39.8018 110.178 39.6413 110.283 39.5575 110.491V112.684H38.6865V109.366H39.5053L39.5299 109.725C39.6669 109.444 39.856 109.304 40.0972 109.304C40.1954 109.304 40.2751 109.318 40.3364 109.344L40.3272 110.203Z" fill="#888888"></path> <path d="M41.9127 112.025C42.1642 112.025 42.292 111.861 42.2961 111.534H43.1118C43.1077 111.896 42.9963 112.188 42.7776 112.411C42.5588 112.634 42.2767 112.745 41.9311 112.745C41.5038 112.745 41.1777 112.612 40.9528 112.347C40.7279 112.081 40.6135 111.689 40.6094 111.172V110.908C40.6094 110.387 40.7198 109.989 40.9406 109.715C41.1634 109.441 41.4916 109.304 41.925 109.304C42.291 109.304 42.5792 109.418 42.7898 109.645C43.0004 109.87 43.1077 110.19 43.1118 110.605H42.2961C42.294 110.419 42.2634 110.275 42.2041 110.175C42.1448 110.075 42.0466 110.025 41.9097 110.025C41.7584 110.025 41.65 110.079 41.5846 110.188C41.5192 110.294 41.4844 110.501 41.4803 110.81V111.147C41.4803 111.417 41.4936 111.606 41.5202 111.715C41.5468 111.821 41.5907 111.9 41.6521 111.951C41.7134 112 41.8003 112.025 41.9127 112.025Z" fill="#888888"></path> <path d="M44.4489 109.657C44.637 109.422 44.8681 109.304 45.142 109.304C45.4446 109.304 45.6746 109.411 45.832 109.623C45.9895 109.836 46.0692 110.153 46.0712 110.574V112.684H45.2003V110.583C45.2003 110.389 45.1696 110.249 45.1083 110.163C45.049 110.075 44.9519 110.031 44.8169 110.031C44.6595 110.031 44.5368 110.104 44.4489 110.249V112.684H43.581V107.973H44.4489V109.657Z" fill="#888888"></path> <line x1="16.1102" y1="117.378" x2="136.49" y2="117.378" stroke="#BCBCBC" stroke-width="0.5"></line> <path d="M19.1343 112.51C19.8052 112.51 20.4568 112.285 20.9854 111.872L22.6471 113.534L23.1816 112.999L21.5199 111.337C21.9334 110.809 22.1581 110.157 22.1583 109.486C22.1583 107.819 20.8016 106.462 19.1343 106.462C17.4669 106.462 16.1102 107.819 16.1102 109.486C16.1102 111.153 17.4669 112.51 19.1343 112.51ZM19.1343 107.218C20.3851 107.218 21.4023 108.235 21.4023 109.486C21.4023 110.737 20.3851 111.754 19.1343 111.754C17.8835 111.754 16.8662 110.737 16.8662 109.486C16.8662 108.235 17.8835 107.218 19.1343 107.218Z" fill="#888888"></path> <g clip-path="url(#clip0)"> <ellipse cx="182.784" cy="187.271" rx="3.72531" ry="3.69605" fill="white"></ellipse> <path d="M186.735 187.271C186.735 185.23 185.017 183.575 182.897 183.575C180.777 183.575 179.059 185.23 179.059 187.271C179.059 189.115 180.463 190.644 182.297 190.922V188.339H181.323V187.271H182.297V186.456C182.297 185.53 182.87 185.019 183.747 185.019C184.167 185.019 184.606 185.091 184.606 185.091V186H184.122C183.645 186 183.497 186.285 183.497 186.577V187.271H184.561L184.391 188.339H183.497V190.922C185.331 190.644 186.735 189.115 186.735 187.271Z" fill="#1A1A1A"></path> </g> <g clip-path="url(#clip1)"> <ellipse cx="182.784" cy="214.487" rx="3.72531" ry="3.69605" fill="white"></ellipse> <path d="M186.735 214.487C186.735 212.446 185.017 210.791 182.897 210.791C180.777 210.791 179.059 212.446 179.059 214.487C179.059 216.332 180.463 217.861 182.297 218.138V215.555H181.323V214.487H182.297V213.673C182.297 212.747 182.87 212.235 183.747 212.235C184.167 212.235 184.606 212.307 184.606 212.307V213.217H184.122C183.645 213.217 183.497 213.501 183.497 213.794V214.487H184.561L184.391 215.555H183.497V218.138C185.331 217.861 186.735 216.332 186.735 214.487Z" fill="#1A1A1A"></path> </g> <g clip-path="url(#clip2)"> <ellipse cx="182.784" cy="241.704" rx="3.72531" ry="3.69605" fill="white"></ellipse> <path d="M186.735 241.704C186.735 239.662 185.017 238.008 182.897 238.008C180.777 238.008 179.059 239.662 179.059 241.704C179.059 243.548 180.463 245.077 182.297 245.354V242.772H181.323V241.704H182.297V240.889C182.297 239.963 182.87 239.451 183.747 239.451C184.167 239.451 184.606 239.524 184.606 239.524V240.433H184.122C183.645 240.433 183.497 240.718 183.497 241.01V241.704H184.561L184.391 242.772H183.497V245.354C185.331 245.077 186.735 243.548 186.735 241.704Z" fill="#1A1A1A"></path> </g> <g clip-path="url(#clip3)"> <ellipse cx="182.784" cy="268.92" rx="3.72531" ry="3.69605" fill="white"></ellipse> <path d="M186.735 268.92C186.735 266.879 185.017 265.224 182.897 265.224C180.777 265.224 179.059 266.879 179.059 268.92C179.059 270.765 180.463 272.293 182.297 272.571V269.988H181.323V268.92H182.297V268.106C182.297 267.179 182.87 266.668 183.747 266.668C184.167 266.668 184.606 266.74 184.606 266.74V267.649H184.122C183.645 267.649 183.497 267.934 183.497 268.227V268.92H184.561L184.391 269.988H183.497V272.571C185.331 272.293 186.735 270.765 186.735 268.92Z" fill="#1A1A1A"></path> </g> <rect x="16.0504" y="157.427" width="63.1559" height="6.46946" rx="3.23473" fill="#F5F2EF"></rect> <rect x="189.527" y="157.056" width="71.1812" height="6.62962" rx="3.31481" fill="#F5F2EF"></rect> <g clip-path="url(#clip4)"> <ellipse cx="182.785" cy="160.055" rx="3.72531" ry="3.69605" fill="white"></ellipse> <path d="M186.735 160.054C186.735 158.013 185.017 156.359 182.898 156.359C180.778 156.359 179.06 158.013 179.06 160.054C179.06 161.899 180.463 163.428 182.298 163.705V161.123H181.323V160.054H182.298V159.24C182.298 158.314 182.871 157.802 183.748 157.802C184.167 157.802 184.607 157.874 184.607 157.874V158.784H184.123C183.646 158.784 183.497 159.069 183.497 159.361V160.054H184.562L184.392 161.123H183.497V163.705C185.332 163.428 186.735 161.899 186.735 160.054Z" fill="#1A1A1A"></path> </g> <line x1="16" y1="146.75" x2="280" y2="146.75" stroke="#BCBCBC" stroke-width="0.5"></line> <line x1="16" y1="173.75" x2="280" y2="173.75" stroke="#BCBCBC" stroke-width="0.5"></line> <line x1="16" y1="201.75" x2="280" y2="201.75" stroke="#BCBCBC" stroke-width="0.5"></line> <line x1="16" y1="228.75" x2="280" y2="228.75" stroke="#BCBCBC" stroke-width="0.5"></line> <line x1="16" y1="256.75" x2="280" y2="256.75" stroke="#BCBCBC" stroke-width="0.5"></line> <line x1="16" y1="282.75" x2="280" y2="282.75" stroke="#BCBCBC" stroke-width="0.5"></line> <g clip-path="url(#clip5)"> <rect width="55.1306" height="18.8421" transform="translate(9.82935 34.2336)" fill="white"></rect> <path d="M43.7574 39.4515C44.5425 39.4515 45.1487 39.761 45.576 40.3799L45.6641 39.6116H47.707V48.2708L47.7068 48.3096C47.6996 49.395 47.3899 50.2263 46.7777 50.8037C46.1581 51.3879 45.2689 51.68 44.1099 51.68C43.6346 51.68 43.1352 51.5853 42.6118 51.3959C42.0884 51.2065 41.6985 50.9651 41.4421 50.6716L42.2032 49.1031L42.2255 49.1261C42.4361 49.3397 42.7064 49.5148 43.0364 49.6513C43.3782 49.7927 43.7013 49.8633 44.0058 49.8633C44.5131 49.8633 44.8776 49.742 45.0993 49.4992C45.3209 49.2565 45.4344 48.8656 45.4398 48.3268V47.5825L45.4206 47.6073C44.9906 48.1563 44.4335 48.4308 43.7494 48.4308C42.8254 48.4308 42.1111 48.072 41.6064 47.3544C41.1017 46.6368 40.844 45.6245 40.8333 44.3173V43.6771L40.8334 43.6294C40.8391 42.2342 41.0954 41.191 41.6024 40.4999C42.1151 39.801 42.8334 39.4515 43.7574 39.4515ZM36.4752 39.4515C37.4258 39.4515 38.1615 39.6983 38.6823 40.1918C39.203 40.6853 39.4634 41.3909 39.4634 42.3086V46.3821L39.4641 46.425C39.4782 47.1514 39.5848 47.7213 39.7838 48.1347V48.2708H37.5006L37.4944 48.2576C37.4324 48.1228 37.3704 47.9032 37.3083 47.5985C36.9024 48.1534 36.3523 48.4308 35.658 48.4308C34.9317 48.4308 34.3295 48.1907 33.8515 47.7106C33.3735 47.2304 33.1345 46.6088 33.1345 45.8459C33.1345 44.9389 33.4242 44.2373 34.0037 43.7411C34.5832 43.2449 35.4177 42.9915 36.5072 42.9808H37.1962V42.2846L37.1961 42.2563C37.1929 41.8818 37.1262 41.6164 36.9959 41.4603C36.8624 41.3002 36.6674 41.2202 36.4111 41.2202C35.8449 41.2202 35.5619 41.551 35.5619 42.2126H33.2947L33.2949 42.1788C33.3032 41.3937 33.6036 40.7447 34.1959 40.2318C34.7968 39.7116 35.5565 39.4515 36.4752 39.4515ZM56.7597 39.4515C57.8492 39.4515 58.669 39.7997 59.2192 40.4959C59.7693 41.1922 60.0497 42.2232 60.0603 43.589V44.7015H55.55L55.5519 44.7368C55.5873 45.359 55.7282 45.8153 55.9746 46.106C56.2256 46.4021 56.6128 46.5501 57.1362 46.5501C57.8946 46.5501 58.5275 46.2914 59.0349 45.7738L59.9242 47.1424L59.905 47.1684C59.628 47.5406 59.2312 47.8427 58.7145 48.0747C58.1857 48.3121 57.6116 48.4308 56.992 48.4308C55.8277 48.4308 54.9198 48.084 54.2682 47.3905C53.6166 46.6969 53.2908 45.7045 53.2908 44.4134V43.7251L53.2909 43.6787C53.2977 42.3354 53.5967 41.2971 54.1881 40.564C54.7863 39.8223 55.6435 39.4515 56.7597 39.4515ZM51.7366 35.9783V48.2708H49.4614V35.9783H51.7366ZM26.8536 36.6063L28.6161 41.8403L30.3706 36.6063H32.9342L29.8098 44.0331V48.2586H27.4224V44.0331L24.29 36.6063H26.8536ZM10.9782 45.2777V46.6805H18.8928V45.2777H20.0416V48.2107H9.82935V45.2777H10.9782ZM37.1962 44.3413H36.6514L36.6253 44.3415C36.2531 44.347 35.9587 44.4696 35.7421 44.7095C35.5205 44.9549 35.4097 45.283 35.4097 45.6938C35.4097 46.3341 35.6607 46.6542 36.1627 46.6542C36.4137 46.6542 36.6274 46.6035 36.8036 46.5021C36.9799 46.4007 37.1107 46.2807 37.1962 46.142V44.3413ZM44.4223 41.3482C43.9737 41.3482 43.6412 41.5323 43.4249 41.9004C43.2086 42.2686 43.1005 42.8608 43.1005 43.6771V44.2453L43.1006 44.2858C43.104 45.0653 43.2082 45.6347 43.4129 45.9939C43.6212 46.3594 43.9523 46.5421 44.4063 46.5421C44.871 46.5421 45.2155 46.3741 45.4398 46.0379V41.9004L45.4268 41.8805C45.1924 41.5257 44.8576 41.3482 44.4223 41.3482ZM56.7437 41.3322C56.3485 41.3322 56.0614 41.4736 55.8825 41.7564C55.7035 42.0391 55.5981 42.4927 55.566 43.1169H57.8332V42.9088L57.8324 42.8737C57.8186 42.3735 57.7334 41.9931 57.5768 41.7324C57.4166 41.4656 57.1389 41.3322 56.7437 41.3322ZM12.6377 40.432C13.3427 40.432 13.9143 41.0029 13.9143 41.7072C13.9143 42.4114 13.3427 42.9824 12.6377 42.9824C11.9327 42.9824 11.3612 42.4114 11.3612 41.7072C11.3612 41.0029 11.9327 40.432 12.6377 40.432ZM17.2333 40.432C17.9383 40.432 18.5098 41.0029 18.5098 41.7072C18.5098 42.4114 17.9383 42.9824 17.2333 42.9824C16.5282 42.9824 15.9567 42.4114 15.9567 41.7072C15.9567 41.0029 16.5282 40.432 17.2333 40.432ZM20.0416 36.6063V38.1366H9.82935V36.6063H20.0416Z" fill="#1A1A1A"></path> </g> <path d="M0 1.50142e-05L280 -1.50142e-05L280 29H3.44507e-05L4.30753e-05 13.6721C3.13177e-05 12.0149 0 1.50142e-05 0 1.50142e-05Z" fill="#1A1A1A"></path> <path fill-rule="evenodd" clip-rule="evenodd" d="M45.7315 19.8015C48.4416 19.8015 50.6386 17.6075 50.6386 14.9009C50.6386 12.1943 48.4416 10.0002 45.7315 10.0002C43.0214 10.0002 40.8245 12.1943 40.8245 14.9009C40.8245 17.6075 43.0214 19.8015 45.7315 19.8015Z" fill="#EAE5E1"></path> <path fill-rule="evenodd" clip-rule="evenodd" d="M29.3746 19.8015C32.0847 19.8015 34.2817 17.6075 34.2817 14.9009C34.2817 12.1943 32.0847 10.0002 29.3746 10.0002C26.6645 10.0002 24.4675 12.1943 24.4675 14.9009C24.4675 17.6075 26.6645 19.8015 29.3746 19.8015Z" fill="#44E8AD"></path> <path fill-rule="evenodd" clip-rule="evenodd" d="M13.0175 19.8015C15.7276 19.8015 17.9246 17.6075 17.9246 14.9009C17.9246 12.1943 15.7276 10.0002 13.0175 10.0002C10.3074 10.0002 8.11047 12.1943 8.11047 14.9009C8.11047 17.6075 10.3074 19.8015 13.0175 19.8015Z" fill="#6B5AC5"></path> <defs> <clipPath id="clip0"> <rect width="7.67641" height="7.3921" fill="white" transform="translate(179.059 183.575)"></rect> </clipPath> <clipPath id="clip1"> <rect width="7.67641" height="7.3921" fill="white" transform="translate(179.059 210.791)"></rect> </clipPath> <clipPath id="clip2"> <rect width="7.67641" height="7.3921" fill="white" transform="translate(179.059 238.008)"></rect> </clipPath> <clipPath id="clip3"> <rect width="7.67641" height="7.3921" fill="white" transform="translate(179.059 265.224)"></rect> </clipPath> <clipPath id="clip4"> <rect width="7.67641" height="7.3921" fill="white" transform="translate(179.06 156.359)"></rect> </clipPath> <clipPath id="clip5"> <rect width="55.1306" height="18.8421" fill="white" transform="translate(9.82935 34.2336)"></rect> </clipPath> </defs> </svg> 