<?xml version="1.0" encoding="UTF-8"?> <svg xmlns="http://www.w3.org/2000/svg" width="281" height="238" viewBox="0 0 281 238" fill="none"> <path d="M156.277 152.169L156.236 151.671L156.277 152.169ZM279.387 4.81371C279.642 4.9188 279.764 5.211 279.659 5.46637L277.947 9.62784C277.842 9.88321 277.549 10.0051 277.294 9.89997C277.039 9.7949 276.917 9.5027 277.022 9.24734L278.544 5.54822L274.845 4.02616C274.59 3.92108 274.468 3.62888 274.573 3.37351C274.678 3.11814 274.97 2.9963 275.225 3.10139L279.387 4.81371ZM1.01565 236.571C2.0509 235.658 3.06768 234.752 4.06706 233.853L4.73618 234.596C3.7342 235.498 2.71474 236.406 1.67672 237.321L1.01565 236.571ZM7.06278 231.127C9.10598 229.249 11.0761 227.398 12.9834 225.576L13.6741 226.299C11.7627 228.125 9.78787 229.98 7.73955 231.863L7.06278 231.127ZM15.9015 222.764C17.8897 220.833 19.811 218.934 21.6783 217.069L22.385 217.777C20.5151 219.644 18.5905 221.546 16.5984 223.482L15.9015 222.764ZM24.5454 214.191C26.4913 212.229 28.3824 210.306 30.2351 208.423L30.948 209.124C29.0955 211.007 27.203 212.932 25.2555 214.895L24.5454 214.191ZM33.0902 205.524C35.0305 203.556 36.9364 201.635 38.8264 199.76L39.5306 200.47C37.6443 202.341 35.7414 204.26 33.8021 206.226L33.0902 205.524ZM41.7248 196.912C43.6932 194.999 45.6555 193.137 47.6336 191.328L48.3085 192.066C46.3394 193.867 44.3846 195.722 42.4218 197.63L41.7248 196.912ZM50.6656 188.61C52.7134 186.813 54.7897 185.072 56.9179 183.388L57.5383 184.173C55.425 185.845 53.3618 187.575 51.3252 189.362L50.6656 188.61ZM60.1492 180.908C62.3101 179.301 64.5332 177.75 66.8414 176.258L67.3844 177.097C65.0956 178.577 62.8905 180.115 60.746 181.711L60.1492 180.908ZM70.3046 174.102C72.5904 172.733 74.9634 171.418 77.4434 170.158L77.8965 171.049C75.4374 172.299 73.0846 173.603 70.8183 174.96L70.3046 174.102ZM81.1001 168.376C83.4941 167.258 85.9876 166.188 88.5962 165.166L88.9611 166.097C86.3718 167.112 83.8977 168.174 81.5231 169.282L81.1001 168.376ZM92.424 163.73C94.8917 162.845 97.4599 162 100.14 161.195L100.428 162.153C97.7637 162.953 95.2121 163.793 92.7616 164.672L92.424 163.73ZM104.086 160.062C106.609 159.369 109.227 158.71 111.951 158.084L112.175 159.059C109.464 159.682 106.859 160.338 104.351 161.026L104.086 160.062ZM115.943 157.207C118.519 156.665 121.185 156.152 123.949 155.667L124.122 156.652C121.369 157.135 118.713 157.646 116.149 158.185L115.943 157.207ZM127.916 155.001C130.515 154.584 133.196 154.19 135.965 153.821L136.097 154.812C133.337 155.181 130.664 155.573 128.075 155.988L127.916 155.001ZM140.027 153.303C142.646 152.984 145.342 152.686 148.117 152.408L148.217 153.403C145.448 153.68 142.76 153.978 140.147 154.296L140.027 153.303ZM152.121 152.026C153.474 151.903 154.846 151.785 156.236 151.671L156.318 152.667C154.93 152.781 153.562 152.899 152.212 153.022L152.121 152.026ZM156.236 151.671C157.628 151.557 158.991 151.423 160.323 151.268L160.438 152.262C159.094 152.417 157.721 152.553 156.318 152.667L156.236 151.671ZM164.234 150.746C166.988 150.327 169.608 149.818 172.103 149.224L172.334 150.197C169.811 150.798 167.164 151.312 164.384 151.734L164.234 150.746ZM176.018 148.193C178.683 147.42 181.195 146.543 183.564 145.569L183.944 146.494C181.541 147.482 178.995 148.371 176.296 149.153L176.018 148.193ZM187.187 143.952C189.671 142.752 191.986 141.435 194.147 140.012L194.696 140.848C192.498 142.295 190.145 143.633 187.622 144.853L187.187 143.952ZM197.384 137.718C199.545 136.071 201.538 134.307 203.384 132.439L204.096 133.142C202.217 135.042 200.189 136.837 197.99 138.513L197.384 137.718ZM206.089 129.511C207.836 127.488 209.439 125.362 210.92 123.147L211.751 123.702C210.249 125.95 208.622 128.109 206.846 130.165L206.089 129.511ZM213.05 119.76C214.402 117.479 215.644 115.116 216.797 112.686L217.7 113.114C216.536 115.569 215.28 117.959 213.911 120.27L213.05 119.76ZM218.446 109.028C219.491 106.592 220.461 104.097 221.375 101.558L222.316 101.896C221.396 104.452 220.419 106.965 219.365 109.422L218.446 109.028ZM222.693 97.7583C223.538 95.2353 224.338 92.6756 225.112 90.0906L226.07 90.3776C225.294 92.9699 224.49 95.5402 223.641 98.0757L222.693 97.7583ZM226.248 86.2261C226.991 83.6575 227.717 81.0713 228.444 78.4775L229.407 78.7475C228.68 81.3409 227.953 83.9308 227.209 86.5038L226.248 86.2261ZM229.535 74.5959C230.264 72.0099 231.004 69.4224 231.771 66.8457L232.73 67.1311C231.965 69.7011 231.226 72.2834 230.497 74.8675L229.535 74.5959ZM232.946 62.9866C233.749 60.4095 234.588 57.8485 235.482 55.3156L236.425 55.6483C235.536 58.1672 234.7 60.7162 233.9 63.2841L232.946 62.9866ZM236.871 51.5238C237.834 48.9946 238.862 46.4997 239.972 44.0515L240.883 44.4646C239.782 46.8915 238.762 49.367 237.806 51.8797L236.871 51.5238ZM241.711 40.3983C242.92 37.9797 244.223 35.6145 245.638 33.3155L246.49 33.8397C245.091 36.1113 243.803 38.4505 242.606 40.8454L241.711 40.3983ZM247.849 29.9168C249.372 27.7018 251.015 25.5584 252.798 23.499L253.554 24.1534C251.797 26.1831 250.176 28.297 248.673 30.4833L247.849 29.9168ZM255.544 20.5093C257.403 18.6032 259.399 16.7816 261.551 15.0555L262.176 15.8355C260.058 17.5355 258.091 19.3297 256.26 21.2075L255.544 20.5093ZM264.78 12.6211C266.932 11.0974 269.226 9.66213 271.674 8.32425L272.154 9.20177C269.739 10.5213 267.478 11.9361 265.357 13.4373L264.78 12.6211ZM275.252 6.49262C276.467 5.91073 277.718 5.3511 279.004 4.81461L279.389 5.73759C278.118 6.26755 276.884 6.82018 275.684 7.39453L275.252 6.49262ZM156.277 152.169L156.195 151.172L156.277 152.169ZM279.577 4.35133C280.088 4.56148 280.332 5.14588 280.121 5.65661L276.697 13.9796C276.487 14.4903 275.902 14.734 275.391 14.5238C274.881 14.3137 274.637 13.7293 274.847 13.2185L277.891 5.82035L270.493 2.77622C269.982 2.56605 269.739 1.98167 269.949 1.47091C270.159 0.960182 270.743 0.716517 271.254 0.926669L279.577 4.35133ZM0.685105 236.195C1.71898 235.284 2.73442 234.38 3.7325 233.481L5.07074 234.967C4.06746 235.871 3.04666 236.78 2.00726 237.696L0.685105 236.195ZM6.7244 230.759C8.76504 228.883 10.7328 227.035 12.638 225.215L14.0195 226.661C12.106 228.489 10.1288 230.346 8.07793 232.231L6.7244 230.759ZM15.5531 222.406C17.5393 220.476 19.4589 218.579 21.325 216.715L22.7383 218.13C20.8672 219.999 18.9409 221.903 16.9468 223.84L15.5531 222.406ZM24.1904 213.839C26.1354 211.878 28.0258 209.956 29.8787 208.072L31.3044 209.475C29.4521 211.358 27.5589 213.283 25.6105 215.247L24.1904 213.839ZM32.7342 205.172C34.6751 203.205 36.5824 201.282 38.4743 199.405L39.8827 200.825C37.9983 202.694 36.0968 204.611 34.158 206.577L32.7342 205.172ZM41.3763 196.554C43.3475 194.638 45.3136 192.772 47.2962 190.959L48.6459 192.435C46.6814 194.232 44.7303 196.083 42.7703 197.988L41.3763 196.554ZM50.3358 188.234C52.3892 186.433 54.472 184.686 56.6077 182.996L57.8486 184.565C55.7427 186.231 53.6861 187.955 51.655 189.738L50.3358 188.234ZM59.8508 180.507C62.02 178.894 64.252 177.337 66.5699 175.838L67.6559 177.517C65.3768 178.991 63.1806 180.523 61.0445 182.112L59.8508 180.507ZM70.0477 173.673C72.3434 172.298 74.7265 170.978 77.2168 169.712L78.1231 171.495C75.6743 172.74 73.3316 174.038 71.0751 175.389L70.0477 173.673ZM80.8886 167.923C83.2924 166.801 85.7955 165.726 88.4138 164.7L89.1436 166.562C86.5638 167.573 84.0994 168.631 81.7345 169.735L80.8886 167.923ZM92.2552 163.26C94.7314 162.372 97.308 161.524 99.9966 160.716L100.572 162.632C97.9156 163.429 95.3724 164.267 92.9304 165.142L92.2552 163.26ZM103.954 159.58C106.483 158.885 109.109 158.224 111.839 157.597L112.287 159.546C109.583 160.167 106.985 160.822 104.483 161.508L103.954 159.58ZM115.84 156.717C118.422 156.175 121.094 155.661 123.862 155.175L124.208 157.145C121.46 157.627 118.81 158.137 116.251 158.675L115.84 156.717ZM127.837 154.507C130.44 154.09 133.126 153.695 135.899 153.325L136.163 155.307C133.407 155.676 130.739 156.067 128.154 156.482L127.837 154.507ZM139.966 152.807C142.59 152.488 145.289 152.189 148.067 151.91L148.267 153.9C145.501 154.178 142.816 154.475 140.208 154.792L139.966 152.807ZM152.076 151.528C153.431 151.405 154.804 151.286 156.195 151.172L156.358 153.166C154.973 153.279 153.606 153.397 152.257 153.52L152.076 151.528ZM156.195 151.172C157.582 151.059 158.939 150.925 160.266 150.772L160.496 152.758C159.146 152.915 157.767 153.051 156.358 153.166L156.195 151.172ZM164.159 150.252C166.9 149.835 169.506 149.328 171.987 148.738L172.45 150.683C169.913 151.288 167.252 151.804 164.459 152.229L164.159 150.252ZM175.879 147.712C178.528 146.945 181.022 146.074 183.374 145.107L184.135 146.957C181.713 147.952 179.151 148.847 176.435 149.633L175.879 147.712ZM186.97 143.502C189.434 142.311 191.729 141.005 193.872 139.595L194.971 141.265C192.754 142.725 190.382 144.074 187.84 145.303L186.97 143.502ZM197.081 137.32C199.223 135.688 201.198 133.939 203.029 132.088L204.451 133.494C202.557 135.41 200.511 137.22 198.293 138.91L197.081 137.32ZM205.711 129.184C207.443 127.178 209.034 125.069 210.504 122.869L212.167 123.98C210.655 126.243 209.014 128.419 207.224 130.491L205.711 129.184ZM212.62 119.505C213.963 117.238 215.198 114.89 216.345 112.471L218.152 113.329C216.982 115.796 215.719 118.199 214.341 120.524L212.62 119.505ZM217.987 108.831C219.027 106.405 219.993 103.92 220.905 101.388L222.787 102.066C221.864 104.629 220.883 107.151 219.825 109.619L217.987 108.831ZM222.219 97.5996C223.061 95.0829 223.86 92.5284 224.633 89.9471L226.549 90.5211C225.771 93.1171 224.966 95.6926 224.116 98.2344L222.219 97.5996ZM225.768 86.0873C226.51 83.5208 227.235 80.9365 227.963 78.3425L229.888 78.8825C229.161 81.4757 228.434 84.0674 227.689 86.6426L225.768 86.0873ZM229.053 74.4601C229.783 71.8731 230.524 69.283 231.292 66.7031L233.209 67.2737C232.445 69.8404 231.707 72.4201 230.978 75.0033L229.053 74.4601ZM232.468 62.8379C233.273 60.2562 234.114 57.6891 235.01 55.1492L236.896 55.8147C236.01 58.3266 235.176 60.8696 234.378 63.4329L232.468 62.8379ZM236.404 51.3459C237.37 48.8084 238.401 46.3038 239.517 43.8449L241.338 44.6711C240.242 47.0874 239.226 49.5533 238.273 52.0576L236.404 51.3459ZM241.264 40.1748C242.479 37.7443 243.788 35.3661 245.212 33.0534L246.915 34.1019C245.525 36.3597 244.244 38.6859 243.053 41.0689L241.264 40.1748ZM247.437 29.6335C248.97 27.4042 250.624 25.246 252.42 23.1718L253.932 24.4807C252.188 26.4955 250.578 28.5945 249.085 30.7666L247.437 29.6335ZM255.186 20.1602C257.059 18.2399 259.07 16.4046 261.238 14.6656L262.489 16.2255C260.387 17.9125 258.435 19.693 256.618 21.5566L255.186 20.1602ZM264.491 12.2129C266.659 10.678 268.969 9.23255 271.434 7.88549L272.394 9.64053C269.996 10.9509 267.751 12.3555 265.646 13.8454L264.491 12.2129ZM275.036 6.04167C276.259 5.456 277.517 4.89287 278.812 4.35313L279.581 6.19908C278.318 6.7258 277.092 7.27491 275.9 7.84548L275.036 6.04167Z" fill="#B7BEE3"></path> </svg> 