<?xml version="1.0" encoding="UTF-8"?> <svg xmlns="http://www.w3.org/2000/svg" width="107" height="123" viewBox="0 0 107 123" fill="none"> <g clip-path="url(#clip0)"> <path fill-rule="evenodd" clip-rule="evenodd" d="M57.9147 46.4672C54.785 46.6218 49.912 47.9646 49.6684 48.8228C49.288 50.1628 50.1055 55.1868 48.7382 57.893C48.1553 59.0465 45.942 58.9431 45.0844 59.3188C42.215 60.5758 33.7204 62.9598 31.969 65.9617C31.2673 67.1643 26.9551 82.0866 24.6638 89.6995C24.4055 90.5578 24.1137 91.3516 23.7965 92.0868L23.6799 91.5155C22.7457 86.9143 22.2786 84.1288 22.2786 83.159C22.2786 81.6438 23.4863 75.2509 22.2786 73.6252C21.0829 72.0157 18.2016 70.6997 16.9052 70.6735L16.8664 70.6731C16.0153 70.6731 15.2767 70.4068 14.6508 69.8743L13.733 69.4123C9.06425 67.0677 6.33656 65.7816 5.54993 65.554C4.29468 65.1908 2.15838 65.9646 3.22653 67.1262C3.93863 67.9006 5.72806 69.2705 8.59481 71.236L9.67573 72.0956L9.54514 72.1639C8.14816 72.8999 7.32675 73.5194 7.08092 74.0224C6.82753 74.5409 6.94912 75.1541 7.44569 75.8623L7.37036 75.9357C6.74241 76.5525 6.42844 76.9662 6.42844 77.1769V78.2059C5.80373 79.1215 5.64755 79.8851 5.9599 80.4967C6.27226 81.1083 6.76752 81.6383 7.44569 82.0866C7.9454 83.4022 8.5405 84.3385 9.23098 84.8956C9.92147 85.4526 11.1148 85.9164 12.811 86.2868L14.3459 89.9598L15.5897 95.1201L16.2164 100.878L16.0344 101.01C15.191 101.625 14.6508 102.08 14.6508 102.551C14.6508 103.285 18.0538 120.539 23.3483 121.312C24.4933 121.479 30.4317 120.659 32.3815 119.072L32.3527 119.243C31.8939 122.017 31.991 123.457 32.6439 123.564C40.6675 124.88 63.4552 125.287 101.007 124.784C101.23 104.837 100.22 91.553 97.9761 84.9313C92.2372 67.9958 85.9098 62.2115 83.6962 61.7161C81.7572 61.2822 75.0333 58.6038 73.1537 57.893C71.9268 57.4289 71.6639 56.0377 70.2658 56.0377L70.1527 56.0383C68.8006 56.0519 67.6015 56.2939 66.9279 55.5979C65.16 53.7715 65.6542 51.2434 64.9207 48.8228C64.5166 47.489 61.7552 46.2775 57.9147 46.4672Z" fill="#EDB98A"></path> <path d="M70.2657 56.0376L70.1527 56.0382C69.8185 56.0415 69.4937 56.0588 69.1838 56.0725L69.8367 58.2989L69.8508 58.5327C70.2747 66.2087 66.5189 69.8833 58.5834 69.5564C50.6478 69.2296 46.7006 66.7175 46.7417 62.0203L46.7441 61.8773L46.7441 58.9542L46.6192 58.9782C46.0169 59.091 45.4364 59.1645 45.0844 59.3187C42.215 60.5757 33.7204 62.9597 31.9689 65.9615C31.2672 67.1642 26.9551 82.0865 24.6637 89.6994C24.58 89.9776 24.4928 90.249 24.4023 90.5139L24.4023 92.0184L24.4272 92.1097C25.2303 95.1158 24.161 97.5735 21.2195 99.4829C19.1345 100.836 16.9932 101.715 14.7956 102.119C14.7012 102.265 14.6507 102.407 14.6507 102.551C14.6507 103.285 18.0537 120.539 23.3483 121.311C24.4933 121.478 30.4317 120.659 32.3815 119.072L32.3527 119.243L32.3258 119.408C31.898 122.074 32.004 123.459 32.6438 123.564C40.6675 124.88 63.4551 125.287 101.007 124.784C101.23 104.837 100.22 91.5529 97.9761 84.9312C92.2372 67.9957 85.9098 62.2114 83.6962 61.716C81.7571 61.2821 75.0333 58.6037 73.1537 57.8929C71.9267 57.4288 71.6639 56.0376 70.2657 56.0376Z" fill="#D9DDF4"></path> <path fill-rule="evenodd" clip-rule="evenodd" d="M66.513 51.2503C66.3293 50.8861 65.8417 50.9333 65.5199 51.0985C64.5549 51.8046 65.5646 53.1732 65.8316 54.0348C66.5183 55.7061 67.7109 57.3394 69.3574 58.1205C69.221 59.7818 69.0664 61.4395 69.0093 63.1061C66.9042 65.7193 63.3551 66.6731 60.2045 67.4066C55.2562 68.7761 49.6715 65.9701 48.0014 61.075C49.9022 59.9941 50.5173 57.164 49.9502 55.1896C49.9009 55.0509 49.686 54.9896 49.6097 55.1444C49.0892 56.2158 49.1586 57.5229 48.5668 58.5814C42.8872 59.1256 35.5573 61.2703 31.8365 65.8671C30.1875 68.1669 29.5344 71.1581 28.7222 73.8234C26.9894 79.3184 25.6087 84.9246 23.9092 90.4252L23.7089 89.3844C23.1598 86.5174 22.6609 83.6115 23.0318 80.6958L23.0384 80.5563C23.1595 78.2363 23.885 73.9251 22.0872 72.3588C20.4611 71.1152 18.1053 70.1158 16.0647 70.6891C12.4333 69.0718 9.2989 66.3484 5.43133 65.2876C4.241 65.0425 2.52857 65.3328 2.80993 66.9488C3.58966 69.7754 6.85499 70.8725 9.08716 72.33C7.65631 72.718 5.91197 74.4595 7.02988 75.9781C7.03955 76.0049 7.04814 76.0254 7.05674 76.0415C6.15014 76.4436 6.02316 77.4543 6.24565 78.3209C6.26821 78.5499 6.32836 78.3531 6.19397 78.5606C5.17102 79.5261 5.6232 82.2176 7.16417 82.3086C7.06329 83.5838 7.8818 84.8224 8.9185 85.5181C10.0359 86.2675 11.6515 86.2997 12.5766 87.3255C14.7485 91.1582 15.4977 95.683 15.7345 100.072C14.3028 100.608 13.0182 102.212 14.319 103.573C14.3447 103.576 14.3703 103.579 14.3963 103.581C15.1504 105.595 15.4415 107.742 15.8403 109.845C16.4538 113.434 18.0527 116.729 20.0944 119.719C22.4555 123.676 28.8045 123.049 32.003 120.495C31.9902 121.165 31.8799 121.831 32.0943 122.478C32.4108 123.177 33.1825 122.875 33.2589 122.187C34.9497 123.139 35.3479 119.997 33.4683 120.496C33.6129 118.225 33.6967 115.951 33.7647 113.676C35.8927 114.365 35.9845 110.832 33.8078 111.538L33.8104 110.562C33.8264 103.072 33.7437 95.5562 32.7561 88.1254C32.6648 87.5695 32.5101 87.0319 32.4198 86.4793C32.4102 86.4222 32.321 86.4384 32.3207 86.4932C32.1678 96.8966 32.8472 107.322 32.1384 117.729C31.5482 117.909 31.313 118.587 30.8761 118.982C29.9061 119.878 28.5851 120.314 27.2934 120.466C23.6762 120.974 22.1145 119.868 20.5037 116.722C21.2302 117.208 22.212 116.35 21.7691 115.581L21.7553 115.557C21.2954 114.743 19.9967 115.231 20.1611 116.143C18.5416 113.548 17.694 110.621 17.068 107.652L16.9833 107.297C16.679 106.036 16.2841 104.592 15.5534 103.451C20.0098 102.314 24.369 98.851 25.0664 94.0995C26.1978 97.6571 27.7306 101.135 29.1916 104.595C29.6428 105.798 29.8308 107.091 30.4775 108.207C30.6279 108.466 31.0093 108.399 31.0944 108.127C31.676 105.524 29.9135 103.049 28.9984 100.706C28.2511 99.3818 26.1062 93.3354 24.7763 93.3207C26.2707 86.7656 28.2638 80.2595 30.162 73.786C31.9974 65.045 35.7378 63.3595 43.6616 60.6074C42.2324 67.8966 35.7071 74.9524 39.1793 82.5979L39.2638 82.7962C39.6189 83.6392 39.9139 84.4886 39.666 85.4138C39.4253 86.3116 38.8774 87.0911 38.439 87.8985C35.9888 92.4595 37.6754 97.7862 38.6228 102.536C39.8196 108.106 41.0019 113.681 42.2389 119.243C42.4828 120.353 42.6408 121.496 43.0092 122.571C43.1993 123.126 44.1479 123.073 44.0866 122.426C43.9696 121.17 43.6172 119.945 43.3592 118.712C41.8189 110.728 39.7346 102.838 38.4094 94.8183C37.5569 88.8821 40.9129 87.9699 40.7876 84.1343C40.3315 82.1727 39.1241 80.4221 39.1934 78.3316C38.925 71.9326 43.5823 66.6534 44.1573 60.4298L45.1725 60.0674C45.6799 59.8856 46.1868 59.7024 46.692 59.5148C44.0326 78.1287 44.8401 97.1493 46.1696 115.855C46.4411 116.718 46.1828 125.543 47.3214 125.008C47.3789 125.345 47.5578 125.676 47.9467 125.675C51.4779 125.707 55.0102 125.763 58.5414 125.805C60.2399 125.648 62.5746 126.297 64.0193 125.317C65.6874 124.84 65.8792 117.524 66.3251 115.912L66.499 114.74C69.3334 95.5904 71.8699 76.0455 69.8325 56.706C72.6671 56.815 73.2522 59.8768 73.4624 62.106C73.9881 67.0264 77.1645 71.2636 77.3169 76.2404C77.3298 77.4478 77.102 78.6175 76.6198 79.7261C75.3403 82.4422 73.1274 85.5823 74.7813 88.6158C76.7373 90.9773 76.568 91.5988 75.8502 94.5172C73.8309 104.165 70.4774 113.44 67.2872 122.742C67.9804 126.357 72.1495 112.935 72.5417 111.923C74.3873 112.852 75.3954 109.77 73.2786 109.55C74.6382 104.996 75.8895 100.407 76.9312 95.7677L76.9588 95.637C77.419 93.4935 78.3241 90.9835 76.7956 89.0822C72.8545 85.0934 79.3994 80.635 78.5738 75.8028C79.2867 76.3318 80.3658 75.7753 80.3496 74.8868C80.382 73.8864 79.0393 73.374 78.3932 74.1373C77.7289 70.2168 75.4178 66.7943 74.7185 62.8854L74.6869 62.7018C74.4499 61.3203 74.3831 59.8667 73.7051 58.6075C74.628 59.2075 75.6109 59.6924 76.6218 60.1203C74.8143 61.6312 78.3145 63.0103 78.0248 60.6762C87.9372 63.5462 90.1776 67.5487 93.817 76.7404C93.1372 76.0793 91.9727 76.9347 92.3796 77.7778C92.7043 78.6659 94.1205 78.4062 94.12 77.4596L94.2858 77.8555C96.4927 83.1367 98.5014 88.5461 99.5108 94.198C97.5306 93.9182 98.0348 97.0854 99.8289 96.1924C100.549 101.219 100.56 106.316 100.472 111.383C98.8021 110.507 98.7518 113.485 100.456 112.636C100.394 116.788 100.303 120.941 100.234 125.093C100.22 125.977 101.582 125.973 101.604 125.093C101.763 118.713 102.053 112.321 101.915 105.939C102.044 94.8619 98.8626 84.1854 94.1217 74.2626C89.9269 62.8373 84.1325 61.5379 73.472 58.2161C72.4879 56.7541 70.3855 55.3715 68.6702 56.2895C67.7105 54.7391 67.2231 52.9022 66.513 51.2503ZM84.7779 91.0695C84.7381 90.9286 84.5372 90.964 84.5308 91.1028C84.4416 92.8951 84.5211 94.6992 84.6436 96.4991C84.7178 97.5979 84.809 98.6956 84.8864 99.787C85.0916 102.666 85.257 105.549 85.3827 108.434C85.3387 108.415 85.2935 108.399 85.2463 108.386C85.0293 108.327 84.8121 108.327 84.5952 108.386C84.4017 108.44 84.2325 108.535 84.0868 108.671L84.0559 108.701C83.9367 108.812 83.8518 108.943 83.8024 109.095C83.732 109.23 83.6964 109.374 83.6965 109.528L83.6972 109.567C83.6982 109.788 83.753 109.994 83.8647 110.185C83.9732 110.369 84.1193 110.515 84.303 110.625C84.4943 110.736 84.6996 110.79 84.9208 110.791C84.9444 110.794 84.9681 110.796 84.9917 110.797C85.1561 110.803 85.3097 110.769 85.4516 110.695L85.4729 110.688C85.5267 112.152 85.5707 113.616 85.6029 115.08C85.6319 116.357 85.6706 117.633 85.6964 118.909L85.7084 119.547L85.7318 120.958C85.7394 121.538 85.7356 122.094 85.9327 122.641L85.9564 122.704C86.0982 123.07 86.2087 123.578 86.5882 123.782C86.891 123.944 87.2993 123.884 87.4733 123.568C87.6194 123.303 87.4927 122.923 87.2767 122.744C87.281 122.732 87.2874 122.722 87.2928 122.71C87.3261 122.613 87.3767 122.522 87.4067 122.424C87.5013 122.114 87.4754 121.784 87.4765 121.462C87.4765 120.895 87.4573 120.327 87.4421 119.76C87.4088 118.554 87.3702 117.349 87.323 116.144C87.1633 112.1 86.8626 108.057 86.5183 104.025L86.4014 102.665C86.2457 100.855 86.0846 99.0434 85.8565 97.2431C85.8458 97.1571 85.835 97.0711 85.8232 96.985C85.9456 96.9238 86.0595 96.8389 86.1499 96.7443C86.5118 96.3639 86.7313 95.7953 86.9372 95.3054L86.9845 95.1939C87.2079 94.6713 87.4142 94.1423 87.5206 93.5811L87.5307 93.5294C87.5793 93.2905 87.675 92.8669 87.4217 92.7511C87.2896 92.6908 87.2059 92.7339 87.1628 92.8661C87.1573 92.8833 87.1618 92.9027 87.1714 92.9177C87.0672 93.0778 86.9039 93.2274 86.8008 93.3757L86.4478 93.8809L86.2733 94.1347C86.052 94.4606 85.8156 94.7724 85.5718 95.0799C85.3796 93.7295 85.1442 92.3844 84.7779 91.0695ZM70.3028 121.163C69.8613 120.816 69.1426 121.004 69.1426 121.643C69.1426 122.285 69.8624 122.47 70.3028 122.124L70.3248 122.107L70.3458 122.09C70.5857 121.903 70.5937 121.415 70.3639 121.211L70.3458 121.196C70.3319 121.184 70.3179 121.173 70.3028 121.163ZM89.4994 119.915C89.2996 119.915 89.1137 119.966 88.9408 120.067C88.8656 120.124 88.7915 120.182 88.7163 120.24C88.5787 120.378 88.4842 120.541 88.4316 120.729L88.3917 121.024C88.3864 121.176 88.4176 121.318 88.4874 121.451C88.5326 121.588 88.6088 121.708 88.7163 121.808C88.8172 121.916 88.9354 121.993 89.0728 122.037C89.194 122.101 89.3233 122.133 89.4615 122.133L89.4994 122.132C89.7002 122.132 89.8862 122.082 90.0591 121.981C90.1343 121.924 90.2085 121.866 90.2837 121.808C90.4201 121.67 90.5157 121.507 90.5682 121.318C90.5812 121.221 90.594 121.122 90.6081 121.024C90.6134 120.871 90.5812 120.729 90.5125 120.597C90.4674 120.459 90.3911 120.34 90.2837 120.24C90.1826 120.131 90.0645 120.055 89.927 120.011C89.8059 119.947 89.6757 119.915 89.5374 119.914L89.4994 119.915ZM39.2482 117.87L38.9666 117.908C38.6969 117.969 38.48 118.168 38.335 118.395C38.2576 118.517 38.2158 118.648 38.2093 118.789C38.1781 118.928 38.1846 119.069 38.2287 119.21C38.2609 119.348 38.3242 119.468 38.4177 119.57C38.4499 119.621 38.4876 119.667 38.5304 119.708C38.6186 119.855 38.7517 119.952 38.8894 120.051C39.0053 120.125 39.1311 120.165 39.2664 120.171C39.3556 120.195 39.4458 120.195 39.5361 120.171C39.6704 120.165 39.7961 120.125 39.9121 120.051C39.9807 119.998 40.0495 119.944 40.1173 119.892C40.1773 119.822 40.2333 119.75 40.2859 119.674C40.3213 119.592 40.3558 119.51 40.39 119.428C40.4535 119.231 40.4224 119.057 40.3879 118.861C40.3826 118.827 40.3739 118.797 40.3621 118.765L40.3389 118.702C40.2771 118.539 40.244 118.484 40.1345 118.341L40.0927 118.285C40.0718 118.257 40.0503 118.23 40.0258 118.206C39.9572 118.135 39.8593 118.076 39.7821 118.014C39.6166 117.919 39.4383 117.871 39.2482 117.87ZM75.6861 117.182C75.5303 117.183 75.3841 117.222 75.2488 117.301L75.0727 117.437C74.9652 117.546 74.8911 117.672 74.8492 117.82C74.8395 117.897 74.8287 117.975 74.8181 118.051C74.8138 118.17 74.8384 118.282 74.8933 118.386C74.9275 118.494 74.9878 118.586 75.0727 118.666C75.151 118.75 75.2446 118.81 75.352 118.846C75.4457 118.894 75.5466 118.92 75.6538 118.92L75.6861 118.92C75.8429 118.92 75.989 118.88 76.1244 118.801L76.3006 118.666C76.408 118.557 76.4822 118.429 76.5241 118.282C76.5337 118.205 76.5445 118.128 76.5552 118.051C76.5595 117.932 76.5348 117.82 76.48 117.717C76.4446 117.609 76.3855 117.516 76.3006 117.437C76.2222 117.352 76.1287 117.292 76.0213 117.258C75.9275 117.208 75.8285 117.183 75.7219 117.182L75.6861 117.182ZM82.8118 116.826C82.5874 116.824 82.3596 116.888 82.1759 117.018C81.9975 117.144 81.8623 117.281 81.7751 117.486C81.7515 117.543 81.728 117.597 81.7075 117.653C81.6151 117.899 81.5979 118.147 81.7257 118.387C81.8493 118.621 82.1157 118.723 82.3543 118.793C82.5562 118.853 82.785 118.863 82.9859 118.791C83.0858 118.755 83.1835 118.718 83.2738 118.663C83.4424 118.558 83.5338 118.435 83.6466 118.282C83.7347 118.132 83.7787 117.968 83.7787 117.794C83.7787 117.619 83.7347 117.456 83.6466 117.305C83.4737 117.009 83.1535 116.828 82.8118 116.826ZM94.1995 117.034C93.9158 117.034 93.6667 117.165 93.4958 117.386C93.3229 117.611 93.2595 117.891 93.3358 118.169C93.4164 118.464 93.6601 118.722 93.9621 118.796C94.1855 118.851 94.3682 118.849 94.5906 118.811C94.7786 118.779 94.9224 118.667 95.0665 118.551C95.2309 118.416 95.2814 118.171 95.2545 117.974C95.2287 117.776 95.1373 117.647 94.9987 117.529L94.9978 117.526L95.0493 117.566C95.0299 117.549 95.0106 117.531 94.9912 117.512C94.9849 117.502 94.9795 117.49 94.9741 117.478C94.8946 117.342 94.7872 117.236 94.6529 117.156C94.5122 117.075 94.3618 117.034 94.1995 117.034ZM28.0669 113.777C27.9111 113.735 27.7543 113.735 27.5985 113.777C27.4835 113.804 27.3837 113.857 27.2987 113.935C27.2126 113.991 27.1423 114.063 27.0892 114.152L27.0721 114.182C26.9495 114.391 26.9303 114.63 26.9829 114.862C27.0484 115.149 27.3126 115.41 27.5985 115.478L27.6081 115.48L27.6177 115.482C27.7338 115.519 27.851 115.524 27.9669 115.497C28.0841 115.492 28.1926 115.458 28.2924 115.393C28.4192 115.311 28.5255 115.206 28.6072 115.079C28.6717 114.978 28.706 114.87 28.7115 114.752C28.7318 114.675 28.7318 114.598 28.7115 114.52C28.706 114.403 28.6717 114.294 28.6072 114.193L28.4698 114.016L28.4557 114.004C28.3461 113.894 28.2162 113.819 28.0669 113.777ZM38.8828 108.087C37.4744 108.087 37.4765 110.274 38.8828 110.274C40.2911 110.274 40.289 108.087 38.8828 108.087ZM90.4471 107.811C90.2987 107.778 90.1504 107.784 90.0033 107.83C89.9141 107.868 89.826 107.906 89.7379 107.942L89.5123 108.116C89.4704 108.152 89.45 108.191 89.4113 108.241L89.363 108.304C89.2931 108.398 89.2914 108.418 89.2147 108.617C89.1632 108.809 89.1632 109 89.2147 109.192C89.2395 109.284 89.277 109.371 89.3254 109.452C89.3696 109.529 89.4225 109.597 89.482 109.66L89.5123 109.69C89.6133 109.799 89.7325 109.875 89.8701 109.92C89.9571 109.971 90.0505 109.996 90.1504 109.996C90.2987 110.029 90.4471 110.023 90.5941 109.976C90.6833 109.939 90.7714 109.901 90.8596 109.865L91.0851 109.69L91.2591 109.465L91.3146 109.332L91.3708 109.199L91.4106 108.903C91.416 108.75 91.3848 108.608 91.3151 108.474C91.2882 108.381 91.2409 108.298 91.1722 108.229C91.1227 108.145 91.0562 108.079 90.9723 108.029C90.9036 107.96 90.8208 107.913 90.7273 107.886C90.6403 107.836 90.5469 107.811 90.4471 107.811ZM20.7875 106.249C20.6703 106.244 20.5607 106.269 20.4597 106.323C20.4243 106.335 20.3898 106.35 20.3566 106.367C20.2266 106.443 20.1235 106.546 20.0472 106.676C19.9849 106.774 19.9505 106.881 19.9451 106.996C19.9218 107.1 19.9239 107.204 19.952 107.308L19.9612 107.339C19.9849 107.424 20.0203 107.502 20.0675 107.574C20.072 107.583 20.0773 107.592 20.0837 107.599C20.1557 107.713 20.2513 107.807 20.3695 107.877C20.5005 107.952 20.6413 107.99 20.7938 107.992C21.0978 107.992 21.36 107.827 21.52 107.574C21.5426 107.539 21.5555 107.494 21.5715 107.457C21.5856 107.423 21.6081 107.379 21.62 107.339C21.6608 107.186 21.6608 107.034 21.62 106.881C21.5932 106.769 21.5426 106.671 21.4663 106.588C21.4052 106.495 21.3246 106.421 21.2246 106.367C21.1006 106.295 20.9674 106.256 20.8261 106.25L20.7875 106.249ZM80.2519 105.179C80.1031 105.138 79.9552 105.135 79.8074 105.17L79.7705 105.179C79.6524 105.207 79.5502 105.261 79.4623 105.34C79.3645 105.405 79.286 105.49 79.2291 105.595C79.1474 105.736 79.1066 105.889 79.1056 106.052C79.1066 106.215 79.1474 106.368 79.2291 106.509C79.3097 106.646 79.4182 106.753 79.5545 106.834L79.6727 106.891C79.7715 106.953 79.8768 106.986 79.9908 106.992C80.067 107.012 80.1434 107.012 80.2184 106.992C80.2959 106.992 80.3679 106.972 80.4344 106.934C80.5074 106.913 80.5698 106.877 80.6236 106.823C80.717 106.763 80.79 106.683 80.8437 106.583L80.9308 106.378L80.9608 106.15L80.9308 105.923L80.8834 105.811C80.8406 105.657 80.7631 105.524 80.6504 105.411C80.5376 105.299 80.4044 105.222 80.2519 105.179ZM26.9753 103.365C26.8185 103.316 26.6627 103.309 26.5069 103.344C26.4017 103.344 26.3029 103.371 26.2115 103.424C26.1116 103.452 26.0257 103.502 25.9526 103.575C25.8248 103.658 25.7248 103.767 25.6507 103.904L25.5326 104.185C25.4617 104.366 25.4875 104.634 25.5304 104.817C25.5658 104.967 25.6346 105.098 25.7366 105.21C25.7882 105.297 25.8569 105.366 25.9441 105.418C26.0435 105.508 26.1582 105.573 26.2884 105.611L26.3243 105.621L26.3372 105.624C26.3394 105.625 26.3415 105.625 26.3436 105.625C26.3447 105.626 26.3469 105.626 26.348 105.626C26.3995 105.639 26.4521 105.647 26.5069 105.649C26.6627 105.683 26.8185 105.677 26.9753 105.627C27.0677 105.589 27.1611 105.549 27.2546 105.509C27.3341 105.449 27.4126 105.388 27.492 105.326C27.5533 105.247 27.6145 105.167 27.6757 105.089C27.7618 104.954 27.8079 104.808 27.8143 104.652C27.8423 104.548 27.8423 104.445 27.8143 104.34C27.8143 104.234 27.7874 104.136 27.7349 104.045C27.6875 103.899 27.607 103.773 27.492 103.666C27.4126 103.605 27.3341 103.544 27.2546 103.483C27.1611 103.444 27.0677 103.404 26.9753 103.365ZM95.494 99.516C95.3319 99.4719 95.1696 99.4719 95.0073 99.516L94.7894 99.6074C94.6819 99.6655 94.597 99.7438 94.5325 99.8439C94.4509 99.932 94.3962 100.036 94.3682 100.156C94.3047 100.319 94.3123 100.578 94.3628 100.745C94.4197 100.934 94.5078 101.085 94.6442 101.227C94.8709 101.461 95.2191 101.529 95.5273 101.458C95.6123 101.438 95.6928 101.401 95.7659 101.355C95.9989 101.21 96.1558 100.959 96.1547 100.68C96.1547 100.65 96.1525 100.62 96.1482 100.59C96.1633 100.529 96.1688 100.465 96.1665 100.399L96.1343 100.156L96.1322 100.149C96.0892 99.9954 96.0118 99.8622 95.8991 99.7493C95.7949 99.6461 95.6734 99.5713 95.5345 99.5266L95.4994 99.516H95.494ZM14.4287 75.3731C14.7222 72.9651 15.8256 70.3743 19.191 71.7884L19.441 71.8821C20.2738 72.1977 21.2442 72.6122 21.751 73.341C22.1001 73.8431 21.9821 74.8161 22.0303 75.4021C22.2498 77.3073 22.132 79.2098 21.9034 81.107C21.6083 85.5538 22.5425 90.1611 24.4025 94.2026C22.541 97.2168 20.0498 100.028 16.6515 101.285C16.5078 97.8575 15.8373 94.4933 15.1238 91.1491L15.0957 91.0033C14.8103 89.4953 14.6675 87.9476 13.6779 86.6935C11.6648 84.5062 8.89617 85.7442 7.57146 82.2305C7.8497 82.0897 7.69607 81.608 7.36079 81.7006C6.19893 81.9069 6.01018 79.7513 6.80537 79.2318C7.63398 78.7262 6.79979 77.7934 7.15248 77.1201C7.34907 76.8299 7.77342 76.8202 7.96583 76.4857C8.47569 75.2548 5.92402 74.4659 8.92475 73.0782C9.53892 72.8596 10.2254 72.9952 10.8448 72.9927C11.7561 73.0779 12.4802 73.7204 13.3136 73.9225C12.4062 76.2738 14.6956 78.538 16.7621 76.66C17.8865 77.7237 19.144 80.1483 16.4107 79.018C15.0728 78.1244 13.9211 76.9694 12.3681 76.4191L12.3353 76.4088C11.7588 76.2198 9.23605 74.9931 9.36112 76.0548C10.3061 76.9675 11.8646 76.9568 12.9589 77.6977C14.4762 78.3999 15.4464 80.1014 17.2627 80.0779C17.6814 82.6225 14.7962 81.0743 13.7218 80.3725L13.4239 80.2107C11.9084 79.3914 10.3701 78.6323 8.60278 78.6222C8.11505 78.619 8.1172 79.3716 8.60278 79.3781C10.9061 79.3925 12.7807 80.8333 14.7102 81.9046C14.9001 83.39 12.7267 82.7397 11.9019 82.5206C11.0372 82.399 9.6485 81.4629 8.89166 81.9574C8.59569 82.7185 9.89827 82.6619 10.3517 82.8928C8.28135 83.888 10.0953 84.5147 10.6504 82.9853L10.813 83.0407C12.1994 83.507 15.5611 84.4668 15.1612 82.1165C15.6686 82.3413 16.2873 82.4756 16.848 82.3509C18.2462 84.4206 20.4765 83.6197 17.2347 82.209C17.9653 81.8689 18.2092 80.5559 17.5075 80.0673C20.0593 79.9114 18.1648 77.2319 17.1086 76.339C17.2083 76.2381 17.3049 76.1352 17.3949 76.031C18.0039 76.3213 18.6441 76.4977 19.3287 76.56C19.9839 76.6191 20.1299 75.5031 19.4832 75.4117C18.7903 75.3139 18.1521 75.129 17.542 74.7805C16.6172 74.3809 16.3016 76.0981 15.3761 76.159C14.8713 76.259 14.5298 75.816 14.4287 75.3731ZM35.9124 97.5312C35.6889 97.5312 35.4903 97.6248 35.3281 97.7731C35.1659 97.9215 35.096 98.1442 35.0864 98.3569C35.0821 98.4709 35.1057 98.5774 35.1573 98.6763C35.1906 98.7784 35.2475 98.8666 35.3281 98.9419C35.4785 99.0913 35.7009 99.1839 35.9124 99.1839C36.1358 99.1839 36.3346 99.0902 36.4969 98.9419C36.659 98.7924 36.729 98.5709 36.7386 98.3569C36.7429 98.244 36.7192 98.1376 36.6677 98.0387C36.6378 97.9468 36.5886 97.8653 36.5204 97.7958L36.4969 97.7731C36.3464 97.6226 36.1241 97.5312 35.9124 97.5312ZM29.1414 92.4322L29.1056 92.4328C28.9166 92.434 28.7413 92.4812 28.5782 92.5758C28.5073 92.6306 28.4364 92.6844 28.3664 92.7393C28.2365 92.8704 28.1474 93.0241 28.0978 93.2016C28.0474 93.3866 28.0474 93.5726 28.0978 93.7574C28.115 93.8639 28.1548 93.9671 28.2171 94.0564C28.3096 94.21 28.4319 94.3338 28.5868 94.4251C28.7468 94.5187 28.9198 94.5648 29.1056 94.5659C29.2914 94.5648 29.4644 94.5187 29.6245 94.4251C29.7792 94.3338 29.9017 94.21 29.993 94.0564C30.0564 93.9671 30.0961 93.8639 30.1133 93.7574C30.1638 93.5726 30.1638 93.3866 30.1133 93.2016C30.0674 93.0368 29.9873 92.8925 29.872 92.7677L29.8447 92.7393C29.7502 92.6372 29.6385 92.5651 29.5085 92.5231C29.3943 92.4631 29.2719 92.4327 29.1414 92.4322ZM80.8148 92.4897C80.7352 92.4682 80.6568 92.4682 80.5773 92.4897C80.4591 92.4951 80.3486 92.5306 80.2464 92.5952C80.1863 92.6424 80.1261 92.6888 80.066 92.735L80.0135 92.798C79.9014 92.9347 79.8986 92.958 79.8125 93.1661C79.777 93.2822 79.7716 93.3984 79.7974 93.5145C79.7974 93.593 79.8178 93.6661 79.8566 93.7338C79.8779 93.808 79.9145 93.8725 79.9693 93.9263C80.008 93.9917 80.0595 94.0444 80.1251 94.0832C80.2088 94.1596 80.3077 94.2123 80.4215 94.2391L80.6526 94.2702C80.6826 94.266 80.7138 94.2617 80.7438 94.2585C80.7801 94.2574 80.8153 94.2533 80.8498 94.2466L80.8847 94.239L80.9164 94.2306C80.9585 94.2182 80.9995 94.2019 81.0393 94.1811C81.1145 94.1596 81.18 94.122 81.236 94.066C81.3326 94.0037 81.4099 93.9197 81.4658 93.8155L81.4808 93.7811C81.5012 93.7445 81.5184 93.7069 81.5314 93.6661C81.5678 93.6016 81.5861 93.5328 81.5872 93.4586C81.6085 93.3599 81.6071 93.262 81.5815 93.1642L81.5721 93.1316L81.4894 92.9349C81.4464 92.8683 81.4013 92.8005 81.3434 92.7456C81.3085 92.7147 81.2232 92.6481 81.1752 92.6147L81.1457 92.5952C81.0436 92.5306 80.9329 92.4951 80.8148 92.4897ZM92.3774 90.5856C91.9424 91.0212 92.1346 91.821 92.7436 91.9758L92.8135 91.993C93.4023 92.1425 93.933 91.6103 93.7836 91.0212L93.7664 90.9523C93.6117 90.3426 92.8125 90.1502 92.3774 90.5856ZM20.0301 85.9795C20.0344 85.9193 19.957 85.8979 19.9183 85.9334C19.4005 86.3979 19.0707 86.9548 18.4423 87.3149C17.8105 87.6763 17.1596 87.6471 16.501 87.8804C16.2776 87.96 16.2765 88.259 16.501 88.3374C17.7472 88.7729 19.9355 87.2966 20.0301 85.9795ZM78.5846 85.8849C78.4459 85.8419 78.3062 85.8354 78.1676 85.8666C78.0731 85.8666 77.9851 85.8903 77.9045 85.9375C77.8154 85.9623 77.739 86.0075 77.6736 86.0719C77.595 86.1182 77.5327 86.1816 77.4856 86.26C77.3931 86.3612 77.3308 86.4795 77.2986 86.6149L77.2621 86.8934L77.2986 87.1719C77.3341 87.2546 77.3695 87.3385 77.4039 87.4213L77.4999 87.5515C77.5777 87.6553 77.5901 87.6564 77.7788 87.7965C77.8991 87.8728 78.029 87.9148 78.1676 87.9202C78.2601 87.946 78.3525 87.946 78.4459 87.9202C78.5393 87.9202 78.6275 87.8965 78.7091 87.8492C78.7973 87.8245 78.8745 87.7793 78.9402 87.7148C79.0539 87.6406 79.1431 87.5428 79.2087 87.4213C79.2442 87.3385 79.2795 87.2546 79.3139 87.1719L79.3516 86.8934L79.3139 86.6149L79.3119 86.6063C79.2624 86.4322 79.1742 86.2806 79.0476 86.1525L78.8391 85.9912C78.7575 85.9387 78.6727 85.9118 78.5846 85.8849ZM28.4353 86.0935C28.1378 86.0117 27.8111 86.0977 27.5931 86.3161C27.3749 86.5344 27.289 86.86 27.3706 87.158C27.4512 87.4483 27.6843 87.6836 27.9755 87.7622C28.0625 87.7858 28.1506 87.7988 28.2397 87.7945C28.3892 87.7934 28.5287 87.7557 28.6587 87.6805L28.8263 87.5503C28.9081 87.4751 28.9649 87.3859 28.9983 87.2827C29.051 87.1838 29.0746 87.0773 29.0703 86.9623L29.0713 86.9419C29.0746 86.901 29.0692 86.86 29.0562 86.8204C29.0562 86.7783 29.0498 86.7375 29.039 86.6977C28.9606 86.4075 28.7243 86.173 28.4353 86.0935ZM92.5881 83.1821C92.4925 83.1788 92.4033 83.1981 92.3206 83.2422C92.2336 83.2701 92.1594 83.3175 92.0971 83.3863C92.0284 83.4486 91.9811 83.5239 91.9532 83.6099C91.9091 83.6928 91.8898 83.782 91.893 83.8776C91.893 84.0034 91.9252 84.1206 91.9876 84.2281C92.0241 84.2755 92.0606 84.3227 92.0971 84.369C92.1831 84.4561 92.2851 84.5152 92.4033 84.5485L92.4721 84.5722C92.573 84.6087 92.6719 84.6109 92.7772 84.597C92.8878 84.5819 92.99 84.5518 93.0801 84.4829C93.1683 84.4313 93.238 84.3615 93.2896 84.2733L93.3487 84.1335C93.3616 84.0863 93.367 84.0154 93.3702 83.9658C93.3702 83.9583 93.3702 83.9519 93.3712 83.9443C93.3712 83.9024 93.3584 83.8003 93.3477 83.7583C93.324 83.6701 93.2757 83.5863 93.2208 83.5153C93.1736 83.4412 93.1091 83.383 93.0296 83.34L93.0225 83.3347L93.0146 83.3293C92.99 83.3121 92.9641 83.2949 92.9383 83.2765C92.8309 83.2142 92.7138 83.1821 92.5881 83.1821ZM37.1123 82.4185C36.9404 82.4185 36.7803 82.4626 36.6321 82.5486C36.6268 82.5507 36.6214 82.5529 36.6171 82.5552C36.4752 82.6389 36.3625 82.7519 36.2786 82.8937C36.1927 83.041 36.1498 83.2003 36.1498 83.3702C36.1498 83.541 36.1927 83.699 36.2786 83.8463C36.3625 83.9884 36.4752 84.1012 36.6171 84.1851C36.6214 84.1883 36.6268 84.1903 36.6321 84.1926C36.7803 84.2786 36.9404 84.3216 37.1123 84.3226C37.2831 84.3216 37.4432 84.2786 37.5915 84.1926C37.8815 84.0227 38.0632 83.7055 38.0632 83.3702C38.0632 83.0345 37.8815 82.7174 37.5915 82.5486C37.4432 82.4626 37.2831 82.4185 37.1123 82.4185ZM81.726 81.1753L81.6967 81.1747C81.5829 81.1703 81.4766 81.1939 81.3789 81.2467C81.2768 81.2799 81.1876 81.337 81.1123 81.4177L80.9555 81.5487L80.9099 81.5856C80.9024 81.5919 80.8951 81.5983 80.8879 81.6048C80.7825 81.7111 80.7105 81.8358 80.6697 81.9799C80.6568 82.0628 80.6462 82.1444 80.6375 82.2272C80.6139 82.4422 80.7406 82.6627 80.8803 82.8154C80.9555 82.896 81.0447 82.9529 81.1478 82.9873C81.2466 83.039 81.354 83.0626 81.468 83.0583C81.7011 83.038 81.9223 82.9884 82.0899 82.8078C82.1094 82.7863 82.1276 82.7637 82.1469 82.7411L82.2812 82.5863C82.3832 82.4832 82.4542 82.3616 82.4928 82.2218C82.5036 82.1476 82.5132 82.0745 82.5229 82.0014C82.5327 81.781 82.4252 81.5745 82.2812 81.4177C82.1482 81.2723 81.9226 81.1834 81.726 81.1753ZM87.1488 78.9113C86.0316 78.9113 86.0338 80.6457 87.1488 80.6457C88.2651 80.6457 88.2629 78.9113 87.1488 78.9113ZM30.9758 76.4798L30.9406 76.4804C30.7557 76.4815 30.5829 76.5277 30.4227 76.6213L30.2144 76.7815C30.0875 76.9105 29.9995 77.061 29.95 77.2352C29.9383 77.3265 29.9264 77.418 29.9135 77.5083C29.9081 77.6502 29.9383 77.7824 30.0026 77.905C30.0435 78.0319 30.1144 78.1425 30.2144 78.2362C30.3077 78.3362 30.4174 78.4071 30.5452 78.448C30.6676 78.5125 30.7998 78.5426 30.9406 78.5372C31.1264 78.536 31.2994 78.4899 31.4595 78.3964C31.5292 78.3426 31.598 78.2888 31.6678 78.2362C31.7848 78.1171 31.8689 77.9796 31.9191 77.8222L31.931 77.7824L31.9686 77.5083C31.974 77.3674 31.944 77.2352 31.8796 77.1126C31.8386 76.9847 31.7677 76.875 31.6678 76.7815C31.5743 76.6814 31.4637 76.6104 31.3369 76.5696C31.2248 76.5105 31.1043 76.4802 30.9758 76.4798ZM36.008 73.2333C35.9081 73.23 35.8157 73.2504 35.7286 73.2957C35.6396 73.3246 35.5622 73.3752 35.4967 73.445C35.358 73.5559 35.2732 73.7773 35.2732 73.9568C35.2732 74.1364 35.358 74.358 35.4967 74.4686C35.5869 74.5579 35.6933 74.6202 35.8157 74.6546L36.008 74.6805C36.195 74.6891 36.3851 74.5913 36.5183 74.4686C36.5452 74.444 36.571 74.4193 36.5978 74.3955C36.7191 74.2837 36.7717 74.117 36.7794 73.9568C36.7826 73.872 36.7642 73.7924 36.7257 73.7182C36.7008 73.6408 36.658 73.5751 36.5978 73.5182C36.571 73.4945 36.5452 73.4699 36.5183 73.445C36.3732 73.3106 36.2036 73.243 36.008 73.2333ZM4.12495 67.4501C3.41903 66.5895 3.83006 65.977 4.89092 66.1898C6.71829 66.4372 8.43812 67.5931 10.0475 68.4219C11.8041 69.3504 13.6144 70.1163 15.4062 70.9888C14.6669 71.4429 14.117 72.1542 13.697 72.9657C12.8585 72.3285 11.7867 72.0238 10.7404 71.9841C8.84227 70.1647 5.69879 69.748 4.12495 67.4501ZM87.5247 70.3068C87.3333 70.3077 87.154 70.3527 86.9859 70.4426L86.9501 70.4626L86.7202 70.6411C86.6085 70.7443 86.53 70.8667 86.4838 71.0077C86.4129 71.1432 86.3807 71.2905 86.3861 71.4474C86.3807 71.6044 86.4129 71.7506 86.4838 71.8861C86.53 72.028 86.6085 72.1495 86.7202 72.2527C86.7836 72.3355 86.8652 72.4 86.963 72.4475C87.0544 72.485 87.1445 72.5237 87.2358 72.5624C87.3379 72.5947 87.4561 72.599 87.5667 72.6043C87.7676 72.6033 87.9544 72.5527 88.1287 72.4517L88.3542 72.2776C88.4627 72.1764 88.5401 72.0571 88.5853 71.9184C88.6492 71.7963 88.6816 71.6658 88.6816 71.5265L88.6808 71.4883C88.6808 71.4798 88.6808 71.47 88.6796 71.4603C88.6668 71.3593 88.6527 71.2582 88.639 71.1573C88.6034 71.0088 88.5357 70.8787 88.4348 70.769C88.409 70.7174 88.3746 70.6755 88.3304 70.6411C88.1887 70.4991 88.0213 70.4024 87.8278 70.3474C87.7268 70.3346 87.6258 70.3206 87.5247 70.3068ZM37.6453 67.4586C37.5003 67.4586 37.366 67.4952 37.2412 67.5672C37.1866 67.6093 37.1328 67.6511 37.0791 67.693C36.9791 67.793 36.9104 67.9113 36.8729 68.0468L36.8438 68.2595C36.8406 68.3704 36.8632 68.4725 36.9137 68.5683C36.9458 68.6671 37.0007 68.7532 37.0791 68.8263C37.1511 68.9047 37.2369 68.9596 37.3369 68.9918C37.4315 69.0424 37.5346 69.065 37.6453 69.0608C37.7892 69.0608 37.9246 69.0241 38.0492 68.951C38.1029 68.9101 38.1577 68.8682 38.2114 68.8263C38.302 68.7346 38.3674 68.6276 38.4066 68.506L38.4166 68.4725L38.4455 68.2595C38.4498 68.1489 38.4273 68.0468 38.3769 67.9511C38.3447 67.8512 38.2887 67.7651 38.2114 67.693C38.1384 67.6144 38.0523 67.5597 37.9535 67.5275C37.8676 67.482 37.7754 67.4591 37.678 67.4582L37.6453 67.4586ZM81.2454 66.2936L81.208 66.2941C80.9942 66.2952 80.7954 66.3489 80.6106 66.4565C80.5311 66.5179 80.4515 66.5791 80.3721 66.6415C80.225 66.7887 80.124 66.9629 80.0669 67.1639L80.0251 67.4779C80.0187 67.6413 80.0531 67.7929 80.1272 67.9338C80.1744 68.0812 80.2561 68.2079 80.3721 68.3154C80.4784 68.4306 80.6053 68.5122 80.7525 68.5596C80.8932 68.6337 81.0447 68.6682 81.208 68.6617C81.4217 68.6617 81.6205 68.6079 81.8053 68.5004C81.8847 68.4391 81.9642 68.3768 82.0447 68.3154C82.1909 68.1671 82.2919 67.9929 82.3489 67.7929L82.3908 67.4779C82.3972 67.3155 82.3628 67.163 82.2887 67.022C82.2414 66.8759 82.1598 66.7478 82.0447 66.6415C81.9373 66.5254 81.8106 66.4436 81.6635 66.3963C81.5336 66.3278 81.3945 66.2941 81.2454 66.2936ZM41.4664 63.3375C41.3687 63.3116 41.271 63.3116 41.1732 63.3375C41.0271 63.3438 40.8906 63.3879 40.7638 63.4685L40.5415 63.6407C40.5383 63.6438 40.535 63.6471 40.5318 63.6514C40.3975 63.7868 40.3041 63.9471 40.2526 64.1309L40.2138 64.4202C40.2084 64.5696 40.2396 64.7093 40.3073 64.8384C40.3476 64.9625 40.4143 65.0704 40.5061 65.1637L40.5415 65.1985C40.6415 65.306 40.7586 65.3823 40.895 65.4264C40.9808 65.4771 41.0744 65.5018 41.1732 65.5018C41.3192 65.535 41.4664 65.5287 41.6126 65.4823C41.6995 65.4447 41.7877 65.4081 41.8757 65.3717L41.9038 65.3555C42.2357 65.1739 42.4409 64.7932 42.4409 64.4202C42.4409 64.047 42.2357 63.6653 41.9038 63.4836C41.894 63.4794 41.8855 63.4739 41.8757 63.4685C41.749 63.3879 41.6126 63.3438 41.4664 63.3375Z" fill="black"></path> <path fill-rule="evenodd" clip-rule="evenodd" d="M38.5237 15.466C38.5598 14.1803 40.4283 13.6465 40.9682 14.9198C41.0017 14.9539 41.0381 14.9867 41.0723 15.0161C40.9033 14.871 41.2566 15.111 41.3141 15.1407C41.3633 15.1661 41.4136 15.189 41.4638 15.2126C41.811 11.9555 42.9897 8.44417 46.0355 6.80925C50.2837 4.7475 55.1925 4.34506 59.8531 4.54988C62.2141 4.69008 64.9405 5.0679 67.038 3.87252C67.6916 3.50008 68.2156 2.91379 68.9542 2.68359C71.2857 2.05235 72.3432 4.44849 72.0257 6.41897C73.0202 6.42681 74.0067 6.97784 74.4359 7.88507C74.6879 8.42202 74.6835 9.00143 74.9008 9.54031C75.5676 10.9069 76.5217 11.8891 75.9823 13.546C76.931 14.6264 76.3901 16.2621 75.6246 17.2965C75.2465 17.8345 74.7963 18.351 74.5193 18.9533C74.2506 19.5299 74.6563 20.2137 74.8821 20.7603C76.5516 24.7222 76.4562 29.0854 75.5579 33.2179C77.3605 34.0008 77.9016 36.4479 76.7261 37.9887C76.3216 38.5334 75.8282 38.7355 75.2686 39.0706C74.5604 39.4607 75.1388 41.0232 74.912 41.7777C74.6039 43.6198 72.928 44.7542 71.2709 43.558C70.2194 43.3988 69.3712 46.4608 68.6076 47.2293C68.1372 47.8486 67.6148 48.4047 67.047 48.9179C65.3549 53.275 56.6847 55.4845 52.3981 55.2323C47.9091 54.7619 44.8808 50.9465 42.3592 47.5603C41.0643 45.7561 40.2222 43.7367 39.9159 41.5342C39.6082 39.3206 39.7428 37.1031 39.9508 34.8868C40.3877 30.178 41.077 23.3941 41.5221 18.6344C39.9137 18.5018 38.475 17.1313 38.5237 15.466V15.466Z" fill="#EDB98A"></path> <path fill-rule="evenodd" clip-rule="evenodd" d="M70.5912 3.31C70.2788 3.00155 69.7669 3.31804 69.4284 3.56588L69.3535 3.62154L69.1389 3.78479C68.6524 4.16017 68.1971 4.5681 67.6716 4.89277C67.098 5.24736 66.4752 5.52927 65.8425 5.76043C64.6157 6.20867 63.2959 6.40984 61.9952 6.47338C56.6736 6.73336 50.4797 3.935 45.6498 7.27664C44.5049 8.06872 43.7148 9.2269 43.3071 10.5515C42.8473 12.0453 43.0048 13.5922 42.6286 15.0911C42.4653 15.7417 41.3404 15.832 41.2148 15.117L41.2065 15.0616L41.108 14.9998L41.0691 14.9766C41.0291 14.9536 41.011 14.947 41.0455 14.9794L41.0532 14.9863L41.0379 14.973C41.0262 14.9625 41.0144 14.9518 41.0028 14.9408L40.9685 14.9072C40.7287 14.3416 40.2268 14.1326 39.7398 14.1876L39.7535 14.2212L39.8985 14.5952L39.9447 14.7126C40.1153 15.1409 40.303 15.5465 40.6274 15.9136C41.0864 16.433 41.6573 16.8563 42.3005 17.1169C42.4327 17.1704 42.4129 17.3499 42.267 17.3644C40.8302 17.5075 39.2118 16.6339 38.5361 15.3099C38.5295 15.3566 38.5254 15.4044 38.5241 15.4534C38.5193 15.6147 38.5286 15.7732 38.5506 15.9281C38.6305 15.9579 38.708 16.0021 38.7799 16.0618C39.2465 16.4499 39.4756 17.0841 39.9144 17.5171C40.3742 17.9708 40.9385 18.3915 41.5513 18.6023C41.5609 18.6056 41.5689 18.6104 41.576 18.6158C41.6222 18.4403 41.6711 18.2658 41.7269 18.094C41.7488 18.0265 41.8387 18.0434 41.8455 18.1102C41.8578 18.2293 43.5434 17.0293 44.8415 17.2232C47.2819 17.5877 47.8454 19.0136 51.3517 18.8031C53.063 18.7003 56.6771 17.0959 59.8387 16.9753C62.7068 16.8659 67.8327 18.5041 69.1851 19.4482C69.8881 19.939 67.9029 21.5595 68.2624 22.2963C69.2825 24.3863 68.8692 27.1511 69.9358 28.8037L69.977 28.8659C70.66 29.8704 70.2336 32.5431 70.4996 33.3671C70.9799 34.8547 71.7753 34.2031 71.6552 34.4025C71.6172 34.4655 71.5155 34.4247 71.5355 34.352C71.8634 33.1587 72.7608 32.2577 73.9017 31.9289C73.8523 31.646 73.9421 31.2909 74.1178 31.0589L74.1898 30.7231L74.2561 30.4088C74.409 29.6756 74.5458 28.9431 74.6194 28.1899C74.7297 27.0603 74.7336 25.9223 74.6611 24.7899C74.566 23.3021 74.2598 21.8686 73.9231 20.4361L73.8869 20.2826L73.6221 19.1687C72.9604 19.3571 72.2814 19.4761 71.6215 19.5351C70.8531 19.6037 70.0924 19.5974 69.3376 19.5366C68.6687 21.3553 68.6941 23.4262 69.5208 25.2024C70.488 27.2802 72.8585 29.2648 72.2078 31.7845C71.9241 32.8829 70.264 32.6587 70.2247 31.5496L70.224 31.5157C70.2178 30.4198 69.8456 29.5174 69.3539 28.5755L69.2861 28.4468L69.1737 28.2368C68.5851 27.1351 68.0866 26.0479 67.9209 24.7945C67.6803 22.9737 68.0574 21.0935 68.9584 19.5016C65.7489 19.1666 62.6426 17.895 59.5089 17.2118L59.3652 17.181L59.2208 17.1513C56.9057 16.6841 54.3541 16.6289 52.2553 17.8487C52.2153 17.8719 52.1836 17.8138 52.2198 17.7878C55.266 15.5889 59.2113 15.901 62.7044 16.6759L62.9056 16.7211L63.1032 16.7663C66.3342 17.5132 69.7191 18.6101 73.0217 17.6438C73.8802 17.3926 74.7133 16.9801 75.3854 16.3826L75.4416 16.3323C75.7257 16.0756 76.0501 15.7434 76.1048 15.3537C76.1241 15.2165 76.1181 15.1225 76.0372 15.0139C75.9529 14.9008 75.8058 14.9013 75.8904 14.8605C74.9012 15.3377 74.0532 13.9665 74.9823 13.3725L75.0479 13.3319C76.2367 12.5782 75.6428 10.8628 74.2791 10.8708L74.2093 10.8721C73.437 10.8744 73.2003 9.96137 73.6157 9.42693L73.6556 9.37705C74.4243 8.38624 73.1303 7.19109 72.1236 7.75124L72.0685 7.78293C71.5906 8.04744 71.0882 7.75296 70.9074 7.28589C70.5195 6.28368 70.718 5.24893 70.7409 4.21166L70.7422 4.14401L70.7438 4.03118L70.7441 3.94207L70.7432 3.88301C70.7382 3.6644 70.71 3.42725 70.5912 3.31ZM41.5395 18.7584L41.5298 18.7606L41.5092 18.7615L41.4904 18.9648L41.5145 18.8615L41.5395 18.7584ZM74.5422 18.8931L74.5654 18.8454L74.4902 18.8759L74.5265 18.927L74.5422 18.8931ZM53.4693 13.1253C53.5493 13.1025 53.607 13.2271 53.5275 13.2635C51.5514 14.1681 50.0525 15.6119 48.8826 17.421C48.7717 17.5922 48.6045 17.6425 48.412 17.6126C48.3174 17.5979 48.2644 17.552 48.2139 17.4891L48.2014 17.473L48.1629 17.421C48.0795 17.3064 48.0905 17.1157 48.1629 16.9999C49.3505 15.1019 51.3378 13.7345 53.4693 13.1253ZM48.7654 12.5327C48.8523 12.533 48.8986 12.6661 48.8322 12.7227C48.2647 13.2061 47.7106 13.7419 47.3076 14.3743C47.1119 14.6812 46.9484 15.0085 46.83 15.3532C46.701 15.7293 46.6592 16.1192 46.475 16.4748C46.1662 17.0709 45.3388 16.7379 45.2972 16.1555C45.2344 15.277 45.9676 14.2891 46.5485 13.6905C47.138 13.0829 47.8611 12.6639 48.6955 12.5415L48.7539 12.5335L48.7654 12.5327ZM70.5478 11.8451C70.79 11.7838 70.9881 12.0932 70.7976 12.2747C69.7515 13.2721 68.3376 13.7348 66.9299 13.9368L66.8583 13.9468C65.5403 14.1277 63.6233 14.2302 62.6294 13.1573C62.419 12.9302 62.485 12.4947 62.8227 12.4245C63.2853 12.3283 63.7601 12.3638 64.2293 12.4216L64.3632 12.4387L64.696 12.4829C65.3532 12.5688 66.0129 12.6211 66.6764 12.6017C68.0048 12.5625 69.2701 12.1688 70.5478 11.8451ZM47.5264 8.67129C47.6657 8.61743 47.8129 8.80902 47.7254 8.93041C47.3246 9.4867 46.8443 9.97322 46.4338 10.521C46.0219 11.0705 45.6779 11.648 45.1906 12.1369C44.9291 12.3992 44.4838 12.1324 44.5762 11.779C44.926 10.4411 46.2567 9.16243 47.5264 8.67129ZM68.3826 9.27516C68.5289 9.22333 68.6314 9.42611 68.5295 9.52793C67.1806 10.8758 64.7538 11.5817 62.967 10.8032C62.5649 10.6279 62.8113 10.0648 63.173 10.0425C64.0671 9.98735 64.965 10.0908 65.8545 9.95467C66.723 9.82167 67.5559 9.56814 68.3826 9.27516ZM66.115 7.46841C66.3083 7.38788 66.3891 7.67646 66.247 7.78161C65.4839 8.34629 64.5471 8.59111 63.6132 8.38779C63.3091 8.32156 63.3747 7.83075 63.6868 7.84333C64.5316 7.87709 65.3278 7.79645 66.115 7.46841ZM59.8535 4.53732C58.6971 4.4865 57.5254 4.47307 56.3524 4.51309L56.8729 4.58224L57.22 4.62757C58.5506 4.79932 59.8832 4.94463 61.2267 4.93874C62.1346 4.93477 63.0415 4.86153 63.9281 4.6824C62.57 4.76436 61.1562 4.61468 59.8535 4.53732Z" fill="#ECDCBF"></path> <path fill-rule="evenodd" clip-rule="evenodd" d="M73.5875 12.635C73.589 12.6417 73.5867 12.6468 73.5852 12.6539C73.5849 12.6519 73.5846 12.6508 73.5841 12.6483C73.5853 12.6429 73.5863 12.6393 73.5875 12.635" fill="#4F66AF"></path> <path fill-rule="evenodd" clip-rule="evenodd" d="M73.5879 12.7038C73.5938 12.6976 73.6022 12.6929 73.6106 12.6866C73.6108 12.6869 73.6109 12.6871 73.611 12.6873C73.6032 12.6925 73.5956 12.6984 73.5879 12.7038" fill="#4F66AF"></path> <path fill-rule="evenodd" clip-rule="evenodd" d="M38.7795 16.0743C38.2512 15.635 37.4189 16.0395 37.5979 16.7628C37.7927 17.5505 38.6362 18.0887 39.3326 18.4123C40.0493 18.7453 40.7475 18.8095 41.5295 18.7731L41.5392 18.771V18.771C41.3221 19.6422 41.1989 20.5478 41.0329 21.4243C40.8221 22.5363 40.6147 23.6487 40.4105 24.7618C40.213 25.8376 39.9632 26.9148 39.8114 27.996C39.6583 29.0874 39.5113 30.1796 39.3609 31.2713C39.1099 33.0947 38.9073 34.9265 38.6937 36.7551L38.5919 37.6206C38.378 39.4527 38.2057 41.287 38.6112 43.1102C38.9912 44.8188 39.8472 46.4127 40.84 47.839C41.8124 49.2357 42.8986 50.5786 44.091 51.7934C46.3909 54.1363 49.2271 56.0128 52.5527 56.3609C53.9846 56.5107 55.514 56.344 56.8602 55.823L56.9495 55.7881C58.3122 55.2496 59.981 54.3277 60.3357 52.8147C60.5535 51.8866 59.5979 51.1621 58.76 51.6024C58.3719 51.8066 58.08 52.0397 57.7613 52.3321L57.7048 52.3843C57.4444 52.6263 57.3441 52.7007 57.0436 52.8901C56.4273 53.2781 55.9654 53.4617 55.2654 53.6381C53.9747 53.963 52.5818 53.9116 51.2716 53.5273C48.4898 52.7115 46.3317 50.5826 44.483 48.4481C43.4791 47.2889 42.5263 46.073 41.7915 44.7221C41.0205 43.3047 40.6646 41.8165 40.686 40.2038C40.7101 38.384 40.9614 36.5572 41.1263 34.7461C41.2943 32.8997 41.4497 31.0539 41.5866 29.2049C41.7148 27.471 41.7272 25.7292 41.772 23.9899L41.7808 23.6638C41.8071 22.7404 41.8254 21.8168 41.8463 20.8932C41.8671 19.9723 41.9399 19.0397 41.8451 18.1227C41.8384 18.0559 41.7484 18.039 41.7265 18.1065C41.6707 18.2783 41.6218 18.4528 41.5756 18.6283C41.5685 18.6229 41.5606 18.6181 41.5509 18.6148C40.9381 18.404 40.3738 17.9833 39.914 17.5296C39.4752 17.0966 39.2461 16.4624 38.7795 16.0743ZM72.3059 3.17246C71.9209 1.59023 70.1887 1.23682 68.9079 1.99879C68.2917 2.36521 67.7984 2.89366 67.2229 3.31363C66.6508 3.73122 66.0184 4.06657 65.3512 4.30343C64.0256 4.77393 62.6273 4.94499 61.2263 4.95112C57.8165 4.96606 54.4764 4.00701 51.0615 4.11399C48.4192 4.19677 45.6146 4.97832 43.698 6.88998C42.6655 7.91978 42.0001 9.24375 41.6433 10.6493C41.4765 11.3062 41.3521 11.9791 41.2541 12.6504L41.2301 12.8182C41.1752 13.2105 41.0871 13.6258 41.0789 14.0224C41.0715 14.3785 41.1615 14.7511 41.2103 15.1036C41.3131 15.8465 42.4629 15.7619 42.6282 15.1036C43.0044 13.6047 42.8469 12.0577 43.3067 10.564C43.7144 9.23935 44.5045 8.08117 45.6494 7.28909C50.4794 3.94744 56.6732 6.7458 61.9949 6.48582C63.2955 6.42228 64.6153 6.22111 65.8421 5.77287C66.4748 5.54171 67.0977 5.2598 67.6712 4.90521C68.1968 4.58054 68.652 4.17262 69.1385 3.79723L69.3531 3.63399C69.6866 3.38287 70.2544 2.99027 70.5908 3.32244C70.7373 3.46703 70.7461 3.79397 70.7434 4.04362L70.7418 4.15646C70.7265 5.21636 70.5107 6.27434 70.907 7.29833C71.0878 7.7654 71.5902 8.05988 72.0681 7.79538L72.0928 7.78119C73.1036 7.17937 74.4317 8.38867 73.6552 9.3895L73.631 9.41976C73.1941 9.95113 73.427 10.8869 74.209 10.8845L74.2371 10.884C75.6303 10.8405 76.2484 12.583 75.0476 13.3444L75.0106 13.3672C74.0357 13.9511 74.8908 15.3549 75.89 14.8729C75.8054 14.9138 75.9526 14.9133 76.0368 15.0264C76.1177 15.135 76.1237 15.2289 76.1045 15.3661C76.0461 15.7818 75.6809 16.1321 75.385 16.3951C74.7129 16.9925 73.8798 17.4051 73.0213 17.6562C69.5825 18.6624 66.0545 17.4316 62.704 16.6884C59.2109 15.9135 55.2657 15.6014 52.2194 17.8002C52.1832 17.8262 52.2149 17.8844 52.255 17.8612C54.4411 16.5905 57.1187 16.7033 59.5085 17.2242C62.6422 17.9074 65.7486 19.179 68.958 19.514C68.057 21.1059 67.6799 22.9861 67.9206 24.8069C68.0863 26.0603 68.5847 27.1475 69.1734 28.2493L69.2857 28.4593C69.8106 29.4482 70.2172 30.3825 70.2237 31.5282C70.23 32.6664 71.9208 32.9064 72.2074 31.7969C72.8582 29.2773 70.4876 27.2926 69.5204 25.2148C68.6937 23.4386 68.6683 21.3677 69.3372 19.5491C70.092 19.6098 70.8528 19.6162 71.6211 19.5476C72.281 19.4886 72.96 19.3695 73.6218 19.1812L73.8865 20.295C74.2373 21.7787 74.5622 23.2614 74.6607 24.8024C74.7332 25.9348 74.7294 27.0727 74.619 28.2023C74.5236 29.1779 74.3223 30.1188 74.1174 31.0713C73.9417 31.3033 73.8519 31.6585 73.9013 31.9413C72.7604 32.2701 71.863 33.1711 71.5352 34.3645C71.5152 34.4371 71.6168 34.478 71.6548 34.415C72.4327 33.1233 74.4359 32.6479 75.703 33.5013C76.9131 34.3161 77.3904 35.9611 76.7054 37.2634C76.3451 37.9481 75.8109 38.4292 75.1221 38.7606L74.9836 38.8257C74.6227 38.9966 74.2913 39.1829 74.0592 39.5263C73.7581 39.9716 73.7479 40.4424 73.7764 40.9513L73.7887 41.1575C73.8077 41.4986 73.812 41.8497 73.7105 42.1779L73.6874 42.2508C73.6607 42.3327 73.6325 42.4048 73.5836 42.483C73.569 42.5062 73.4319 42.6408 73.3872 42.6895L73.3309 42.7065V42.7065L73.268 42.7091V42.7091C73.1982 42.7102 73.1064 42.6799 73.1365 42.7009L73.1283 42.6962C73.1018 42.6797 73.0774 42.6622 73.0569 42.6467L73.0179 42.6162C72.9267 42.4843 72.8124 42.3753 72.6722 42.2922L72.5382 42.2325V42.2325C72.1903 41.8648 71.594 42.058 71.3446 42.4243C71.1651 42.6877 71.0685 42.9555 71.0605 43.2197C71.0325 43.1747 70.9702 43.15 70.9305 43.2005L70.694 43.5021C69.7891 44.6593 68.8998 45.8237 67.8715 46.8785C67.305 47.4598 66.6957 48.006 66.0587 48.509C65.5149 48.9386 64.4834 49.3519 64.4676 50.1343C64.4626 50.3882 64.6428 50.5681 64.8632 50.6543C65.5807 50.9348 66.4673 49.9807 66.9855 49.5165L67.0278 49.479C67.6621 48.923 68.2409 48.3127 68.7751 47.6601C69.8125 46.3923 70.68 44.9332 71.0624 43.3281C71.0803 43.6082 71.2004 43.8827 71.4342 44.1417C71.7454 44.4864 72.1714 44.7281 72.6263 44.8276C73.6571 45.0531 74.6635 44.6818 75.2768 43.8222C75.7952 43.0955 75.9478 42.1359 75.881 41.258L75.8727 41.1526C75.8633 41.0118 75.8513 40.7534 75.8149 40.6435L76.1395 40.4651V40.4651C76.5374 40.2532 76.9062 39.9754 77.2372 39.67C78.5675 38.4426 79.235 36.4478 78.6268 34.7023C78.2464 33.6103 77.447 32.6602 76.4234 32.1664C76.5945 31.7707 76.6517 31.3007 76.7163 30.8849L76.7271 30.8162C76.8366 30.1341 76.9282 29.4434 76.9631 28.7531C77.0285 27.464 76.9491 26.1628 76.7467 24.8886C76.4179 22.819 75.7374 20.6242 74.4899 18.888C75.4416 18.5097 76.3176 17.9621 76.9938 17.2018C77.7003 16.4072 78.1508 15.2697 77.6044 14.2606C77.4652 14.0034 77.2837 13.7872 77.0752 13.6155C77.4368 12.9321 77.5538 12.1245 77.3307 11.3525C77.064 10.4296 76.3401 9.70973 75.4655 9.37363C75.6779 8.49919 75.5043 7.55863 74.8553 6.82988C74.2116 6.10693 73.2119 5.84362 72.2867 6.00887C72.2366 5.07885 72.5291 4.08969 72.3059 3.17246ZM74.9008 35.8254C74.0526 35.41 73.0472 35.476 72.1999 35.8697L72.1425 35.897C71.2175 36.346 69.9923 37.3949 70.2863 38.5105C70.4584 39.1629 71.1827 39.3857 71.7443 39.1041C72.2135 38.8687 72.3205 38.448 72.5558 38.0254C72.7223 37.7265 72.928 37.4928 73.1696 37.2525C73.6789 36.7462 74.251 36.3701 74.9008 36.0692C74.9945 36.0257 74.9913 35.8698 74.9008 35.8254ZM53.5271 13.2759C53.6066 13.2396 53.549 13.115 53.4689 13.1378C51.3374 13.747 49.3501 15.1144 48.1625 17.0124C48.0901 17.1282 48.0791 17.3188 48.1625 17.4334L48.201 17.4854C48.2554 17.5566 48.3092 17.6091 48.4116 17.625C48.6041 17.6549 48.7713 17.6047 48.8822 17.4334C50.0521 15.6243 51.551 14.1806 53.5271 13.2759ZM39.2578 13.6341C39.0772 13.328 38.5984 13.3896 38.5031 13.7328L38.4893 13.7627C38.4378 13.8797 38.4612 13.9036 38.5572 13.8374C38.3196 14.0333 38.212 14.3251 38.2847 14.6388C38.677 16.3333 40.5947 17.5433 42.2665 17.3768C42.4124 17.3623 42.4323 17.1828 42.3001 17.1293C41.6569 16.8687 41.086 16.4454 40.627 15.9259C40.1808 15.421 39.9931 14.8433 39.7531 14.2336C39.6631 14.0047 39.523 13.8399 39.3257 13.7499C39.2996 13.7138 39.2768 13.6753 39.2578 13.6341ZM48.765 12.5453L48.7535 12.546C47.8945 12.6571 47.1514 13.0814 46.5481 13.703C45.9672 14.3017 45.234 15.2896 45.2968 16.1681C45.3384 16.7505 46.1658 17.0835 46.4746 16.4874C46.6588 16.1317 46.7006 15.7419 46.8296 15.3658C46.948 15.0211 47.1115 14.6938 47.3072 14.3868C47.7102 13.7544 48.2643 13.2187 48.8318 12.7353C48.8982 12.6787 48.8519 12.5456 48.765 12.5453V12.5453ZM70.7973 12.2871C70.9878 12.1057 70.7897 11.7962 70.5474 11.8575C69.2697 12.1812 68.0044 12.575 66.6761 12.6141C66.0126 12.6336 65.3529 12.5812 64.6956 12.4953L64.3628 12.4511C63.8503 12.3841 63.329 12.3316 62.8223 12.4369C62.4846 12.5071 62.4186 12.9426 62.6291 13.1698C63.6229 14.2427 65.5399 14.1401 66.8579 13.9593C68.2892 13.7627 69.7334 13.3015 70.7973 12.2871ZM47.7251 8.94285C47.8125 8.82146 47.6653 8.62986 47.5261 8.68373C46.2564 9.17487 44.9256 10.4536 44.5758 11.7914C44.4835 12.1448 44.9288 12.4117 45.1902 12.1493C45.6775 11.6605 46.0215 11.083 46.4334 10.5335C46.8439 9.98566 47.3242 9.49914 47.7251 8.94285ZM68.5291 9.54037C68.631 9.43855 68.5285 9.23577 68.3822 9.2876C67.5555 9.58058 66.7226 9.83411 65.8541 9.96711C64.9646 10.1032 64.0667 9.9998 63.1726 10.055C62.8108 10.0772 62.5645 10.6404 62.9666 10.8156C64.7534 11.5942 67.1802 10.8882 68.5291 9.54037ZM66.2467 7.79406C66.3887 7.68891 66.3079 7.40033 66.1146 7.48086C65.3274 7.8089 64.5312 7.88953 63.6864 7.85577C63.3743 7.84319 63.3087 8.33401 63.6128 8.40024C64.5467 8.60356 65.4835 8.35874 66.2467 7.79406Z" fill="black"></path> <path fill-rule="evenodd" clip-rule="evenodd" d="M52.5391 42.6149C52.3743 42.3282 51.9948 42.0625 51.6476 42.1032C50.0922 42.2858 50.0948 44.1732 50.6955 45.275C51.228 46.252 52.3301 46.8255 53.4332 46.7418C54.5921 46.6537 55.5795 45.9718 56.014 44.8869C56.3014 44.1692 56.4342 42.8443 55.6697 42.362C55.6555 42.353 55.6321 42.3553 55.6208 42.3683C55.2543 42.795 55.2399 43.4357 54.919 43.9108C54.6205 44.3527 54.1569 44.7177 53.6137 44.774C53.208 44.8161 52.7977 44.6697 52.639 44.3052C52.5531 44.1081 52.5629 44.001 52.5952 43.8653L52.6245 43.7474C52.7261 43.3344 52.7717 43.0199 52.5391 42.6149ZM52.1233 34.3377C51.312 34.8312 50.0759 35.9819 50.9487 37.2054C51.9759 38.2842 53.455 37.0473 54.1838 36.4879C54.8596 36.0544 55.6189 37.1694 54.9919 37.6756C49.7253 41.578 47.588 34.4667 51.713 33.7574C52.1671 33.6793 52.3358 34.185 52.1233 34.3377ZM60.6901 30.9537C60.1922 30.206 59.0556 30.3161 58.7813 31.2033C58.6327 31.6839 58.8379 32.1159 58.8273 32.5959C58.8184 33.0013 58.8449 33.4531 58.9691 33.8458C59.2523 34.7412 60.0569 35.3736 61.0088 35.3474C61.9577 35.3212 62.7934 34.7202 63.1907 33.8737C63.5895 33.024 63.5051 32.1446 63.214 31.2806C63.2 31.2391 63.1456 31.219 63.1129 31.254C62.7687 31.62 62.5168 32.0064 62.2561 32.4163L61.989 32.8363C61.7848 33.1526 61.4881 33.5567 61.1069 33.5313L61.0497 33.5257C60.9438 33.5166 60.96 33.5376 60.8783 33.3931C60.8405 33.3263 60.8474 33.202 60.8291 33.1231L60.8228 33.0964V33.0964L60.8262 33.082C60.8343 33.0438 60.8423 32.9718 60.8488 32.8468L60.8502 32.8192C60.8778 32.2346 61.0429 31.4834 60.6901 30.9537ZM48.0679 31.4514C48.1572 30.4951 46.8139 30.2828 46.3673 30.9903C46.1344 31.3593 46.0666 31.8228 46.015 32.262L45.991 32.4704C45.9381 32.9214 45.9172 33.3906 46.1128 33.8114C46.4209 34.474 47.0909 34.8243 47.8137 34.7688C48.504 34.7157 49.1337 34.3152 49.4657 33.7072C49.7616 33.1646 50.0559 32.1054 49.6964 31.5395C49.6747 31.5052 49.6313 31.5008 49.6016 31.5273C49.2619 31.8291 49.2066 32.3796 49.0046 32.7727C48.7963 33.1783 48.4803 33.5735 48.0015 33.6351C47.5434 33.6941 47.3684 33.4437 47.4853 33.0066C47.636 32.4423 48.0112 32.0585 48.0679 31.4514ZM60.3272 25.2685L60.1075 25.1843C59.3549 24.8997 58.3215 24.5708 57.7096 25.1833C57.3321 25.561 57.2602 26.1174 57.5296 26.5783C57.8561 27.1367 58.4417 27.1504 59.0072 27.2327C59.6504 27.3262 60.3046 27.5041 60.9034 27.7576C61.5779 28.0433 62.2039 28.3994 62.8172 28.7971C63.4001 29.175 63.981 29.7927 64.6788 29.9091C64.7072 29.9139 64.7396 29.9016 64.747 29.8703C64.9054 29.1876 64.4651 28.5157 64.0721 27.9831C63.5966 27.3382 63.0205 26.8089 62.3766 26.3343C61.7551 25.8762 61.045 25.5451 60.3272 25.2685ZM46.655 27.6958L46.5879 27.684C46.1314 27.608 45.7178 27.6255 45.3739 27.9873C45.1113 28.2633 45.0101 28.621 45.1352 28.9859C45.2507 29.3225 45.509 29.6645 45.8838 29.7351C47.1492 29.9733 48.5509 29.934 49.8226 29.7536C50.4045 29.671 50.9916 29.5699 51.5583 29.4106L51.8191 29.3349C52.2922 29.1997 52.8339 29.0584 53.1776 28.7101C53.3011 28.5849 53.2299 28.4058 53.082 28.3479C52.4824 28.1128 51.6604 28.2379 51.021 28.2195C50.2772 28.1982 49.5321 28.1424 48.7918 28.0655C48.0684 27.9903 47.3684 27.8267 46.655 27.6958Z" fill="black"></path> </g> <defs> <clipPath id="clip0"> <rect width="107" height="123" fill="white" transform="matrix(-1 0 0 1 107 0)"></rect> </clipPath> </defs> </svg> 