<?xml version="1.0" encoding="UTF-8"?> <svg xmlns="http://www.w3.org/2000/svg" width="101" height="113" viewBox="0 0 101 113" fill="none"> <path d="M24.0303 19.2329L59.8316 4.43668L52.0535 36.3275L59.7252 33.1569L50.3812 62.7077L57.5414 59.7485L37.1929 107.588L35.4477 107.712L38.0798 74.9608L28.8738 78.7655L31.3265 48.4782L22.6319 52.0716L24.0303 19.2329Z" fill="white"></path> <path d="M58.8926 59.3733C58.5387 59.0853 58.1605 59.0809 57.8493 59.2311C57.8408 59.2331 57.8344 59.2326 57.8259 59.2346C57.6844 59.2761 57.5434 59.3189 57.4006 59.3609C60.606 52.6809 63.8263 46.007 67.0684 39.3442C67.2181 39.0366 67.1743 38.5354 66.9277 38.285C65.0317 36.3654 63.1349 34.4478 61.2394 32.5295C61.2124 32.502 61.1824 32.482 61.1539 32.4582C61.1299 32.4341 61.1018 32.4149 61.0757 32.3932C61.0666 32.3861 61.0569 32.3778 61.047 32.3726C60.777 32.1596 60.3993 32.07 59.9935 32.2021C59.8154 32.2603 59.6359 32.319 59.4578 32.3772C62.681 25.0592 66.1225 17.8441 69.4992 10.5925C69.6867 10.192 69.5193 9.73418 69.1968 9.46563C66.5311 7.25679 63.8711 5.03938 61.2223 2.81119C60.9672 2.59668 60.6962 2.56187 60.4585 2.63386C60.3226 2.65137 60.1948 2.70726 60.0831 2.79825C48.1489 8.00564 36.2302 13.2545 24.2618 18.3833C23.9566 18.514 23.7131 18.8017 23.6746 19.1375C22.4376 30.1739 21.9545 41.2433 21.342 52.323C21.318 52.7579 21.4957 53.1126 21.7814 53.3222C22.9281 54.4371 24.1035 55.5123 25.3547 56.5114C26.1271 57.1272 26.5682 57.4456 27.5146 57.1426C28.4003 56.8585 29.2855 56.573 30.1713 56.2888C29.4875 64.0766 28.4492 71.8378 28.2207 79.6583C28.2185 79.7056 28.2291 79.7538 28.2338 79.8028C28.2161 80.11 28.3273 80.4242 28.6397 80.6721C30.1549 81.8697 31.5326 83.2198 33.0106 84.459C33.2791 84.6834 33.7695 84.7636 34.0872 84.5952C34.8043 84.2154 35.5214 83.8356 36.2398 83.4552C35.601 92.6385 35.0955 101.829 34.6008 111.022C34.5808 111.395 34.7337 111.693 34.956 111.908C34.9678 111.921 34.9837 111.933 34.9969 111.946C35.0356 111.98 35.068 112.02 35.1103 112.048C35.5433 112.38 36.1688 112.419 36.5511 111.823C46.3056 96.6902 56.7783 82.0192 66.3405 66.7632C66.6619 66.2501 66.6262 65.6482 66.1369 65.2508C63.7218 63.2907 61.3072 61.332 58.8926 59.3733ZM62.8036 40.025C62.8125 40.1218 62.8136 40.2186 62.8108 40.3172C62.7985 40.3362 62.7834 40.3563 62.7711 40.3753C62.7842 40.2602 62.7961 40.1424 62.8036 40.025ZM37.0977 105.273C37.6439 95.301 38.2304 85.3326 39.0261 75.3734C39.0854 74.6287 38.3134 73.8071 37.5286 74.2227C35.1769 75.4682 32.8258 76.715 30.4741 77.9604C30.8221 70.3501 31.8265 62.7853 32.4475 55.192C32.499 55.0455 32.5082 54.8872 32.4864 54.7292C32.6214 53.0198 32.7448 51.3088 32.8234 49.5948C32.8624 48.741 32.1556 48.1784 31.3284 48.4461C28.7425 49.283 26.159 50.122 23.5748 50.9628C24.0828 40.9588 24.486 30.9532 25.4229 20.9744C25.5302 19.8265 24.6023 20.3136 25.5631 19.8948C26.2378 19.6005 26.9106 19.3055 27.5847 19.0099C29.7541 18.0608 31.9226 17.1135 34.092 16.1644C42.4432 12.512 50.7922 8.8544 59.1455 5.20732C55.8285 15.2564 53.7777 25.6369 50.4739 35.6991C50.1782 36.6018 50.9499 37.374 51.8571 37.0779C54.1393 36.334 56.4196 35.5894 58.7018 34.8456C55.5904 43.9133 52.3028 52.9194 49.5528 62.1051C49.2726 63.0416 50.0187 63.7857 50.9595 63.5067C52.7415 62.9788 54.5229 62.4497 56.3043 61.9206C49.875 76.3609 43.4831 90.8167 37.0977 105.273Z" fill="#1A1A1A"></path> </svg> 