<?xml version="1.0" encoding="UTF-8"?> <svg xmlns="http://www.w3.org/2000/svg" width="265" height="241" viewBox="0 0 265 241" fill="none"> <g clip-path="url(#clip0)"> <path fill-rule="evenodd" clip-rule="evenodd" d="M250.036 156.56C252.339 155.357 256.608 152.697 258.82 151.335C260.379 150.402 258.999 148.051 257.401 148.9C256.584 149.335 249.816 152.527 249 152.959C249.642 152.405 249.998 150.564 250.533 149.906L251.74 148.091C253.8 146.243 254.083 144.37 251.74 145.888C249.674 147.388 247.589 148.918 245.217 149.906C240.305 151.991 234.887 152.336 229.615 152.397C227.685 152.251 225.842 152.586 223.97 152.959C224.704 150.011 226.541 147.784 227.515 144.929C228.234 142.046 224.078 140.082 222.605 142.853C222.244 143.534 221.899 144.222 221.562 144.914C218.379 147.813 213.063 147.558 209.852 150.671C208.023 152.297 207.128 154.502 206.775 156.715C206.535 158.219 206.908 159.725 206 161.057C201.613 167.271 194.68 177.094 191.159 183.933C188.666 167.681 182.01 147.58 175.133 132.72C172.859 127.968 170.257 123.324 166.842 119.295C167.229 117.952 165.863 115.567 164.994 116.302C162.32 113.03 157.593 112.183 153.791 110.557C148.66 108.36 144.403 103.793 142.31 98.6022C139.621 88.7177 133.001 87.4621 123.821 87.899C115.035 87.8879 108.535 91.6508 106.618 100.607C102.724 107.404 93.5282 106.28 86.9128 108.079C82.0645 109.188 77.3594 110.903 72.8878 113.08C67.9134 108.355 50.0975 128.185 48.4781 133.288C49.4315 133.473 50.379 133.696 51.3179 133.967C52.1542 134.209 51.803 135.474 50.9596 135.272C49.9101 135.019 48.8538 134.846 47.7925 134.725C47.7601 134.827 47.7318 134.928 47.7107 135.027C47.5916 135.019 47.4726 135.009 47.3535 135.001C47.6176 135.139 47.8719 135.299 48.1196 135.505C48.7184 136.003 47.9389 136.964 47.3025 136.567C46.703 136.118 45.9178 136.189 45.1986 136.038C45.1559 137.519 39.8794 135.862 39.0598 135.371C35.417 134.915 31.6695 135.405 28.2689 133.645C23.7441 132.691 19.1853 131.636 14.7112 130.421C13.5268 130.883 12.4136 132.538 13.3544 133.752C13.8836 134.304 13.2033 135.206 12.537 134.814C10.3024 133.497 8.57419 131.441 7.109 129.226C6.41934 128.529 5.19512 128.679 4.26853 128.39C4.14467 128.613 4.07161 128.861 4.07273 129.116C0.142245 129.764 2.94608 134.062 4.922 135.402C3.87379 136.085 3.834 137.423 3.92572 138.541C3.70362 138.939 3.62944 139.433 3.82276 139.879C4.56188 141.584 6.16038 143.02 7.37583 144.402C8.71783 145.928 9.9144 147.463 11.5473 148.7C17.7713 153.451 25.2823 156.107 32.9877 157.145C35.7237 157.566 39.6591 158.21 41.3531 160.527C40.9375 163.276 40.1743 165.913 39.482 168.594C38.5138 172.153 38.5796 175.878 38.5668 179.506C38.4315 179.397 38.1716 179.42 38.133 179.627C37.9077 181.131 37.7403 182.669 36.8274 183.933C36.0271 186.283 35.4946 188.789 35.1954 191.258C33.9968 202.962 33.7107 215.011 36.4131 226.533C37.4559 230.807 39.152 234.869 41.4628 238.61C42.1518 239.725 43.2596 240.052 44.2543 239.833C47.5835 241.565 51.7774 242.12 55.3658 241.68C67.5992 238.212 63.3367 246.563 80.489 244.006C110.096 240.229 140.016 247.651 169.56 243.293C170.288 248.921 179.813 247.307 183.122 244.928C193.043 237.542 197.969 214.16 202.948 202.299C206.37 192.95 212.101 176.391 219.606 170.117C221.857 168.355 224.577 167.427 227.299 166.678C237.456 164.057 247.653 161.578 257.831 159.03C259.557 158.604 259.246 155.657 257.401 155.846C254.952 156.097 252.494 156.324 250.036 156.56Z" fill="#D08B5B"></path> <path fill-rule="evenodd" clip-rule="evenodd" d="M23.9075 154.807C23.2196 154.722 22.5452 154.476 21.8753 154.283C20.8525 153.983 19.85 153.634 18.8631 153.236C16.8265 152.419 14.8506 151.453 12.9983 150.272C10.0063 148.36 7.36277 145.911 5.36887 142.963L5.23198 142.757C4.09367 141.021 1.99393 137.166 4.34831 135.847C2.8309 134.578 1.39673 132.298 1.47765 130.537C1.59229 128.048 4.64047 128.082 6.21626 129.137C7.24806 129.828 8.02134 130.796 8.79687 131.748C9.65558 132.806 10.5727 133.815 11.5258 134.785C11.7787 135.041 12.0342 135.293 12.294 135.54L12.5554 135.786C12.5149 135.69 12.479 135.591 12.4475 135.489C11.9215 133.849 12.5487 131.712 14.1874 130.961C15.1902 130.5 16.2317 130.781 17.2035 131.172L17.3525 131.233C18.6607 131.775 19.9848 132.255 21.347 132.64C26.8994 134.209 32.6945 134.47 38.384 135.253C40.5757 135.557 42.8079 135.939 44.9884 136.502C45.82 132.966 47.8589 129.576 50.0709 126.787C60.6631 113.446 78.1316 109.036 94.1121 106.182C95.5687 105.923 96.776 107.854 97.6234 107.397C99.2307 106.533 100.645 105.308 101.885 103.978C104.531 101.14 106.408 97.8015 108.614 94.6389C109.704 93.0767 112.212 94.4745 111.201 96.1515L110.705 96.9711C108.665 100.328 106.405 103.788 103.479 106.391C101.924 107.773 100.197 108.865 98.2236 109.547C96.7288 110.063 94.6314 110.497 92.995 109.997L92.7986 109.711C92.8635 109.806 92.929 109.902 92.9949 109.997C97.2659 116.194 102.625 121.439 108.272 126.389C113.971 131.382 120.12 135.854 126.306 140.226L126.822 140.59C136.899 133.23 145.412 123.629 151.384 112.66C150.133 112.509 148.894 111.706 147.824 111.107C146.536 110.382 145.324 109.518 144.38 108.365C142.323 105.855 142.591 102.621 142.22 99.5752C142.197 99.3861 142.447 99.3388 142.562 99.4334C143.677 100.361 144.068 101.88 144.533 103.193C145.046 104.635 145.625 105.824 146.801 106.839C147.896 107.785 149.231 108.48 150.528 109.099C151.197 109.417 154.518 110.233 154.896 110.909C160.633 109.561 166.221 111.89 170.472 115.821C174.579 119.618 177.593 124.554 180.255 129.428C183.094 134.627 185.42 140.047 187.426 145.619C189.458 151.273 191.015 157.051 191.872 163.003C192.595 168.021 193.038 173.117 193.325 178.191L193.36 178.825C197.604 172.155 201.954 165.556 206.393 159.014C205.384 156.315 206.501 153.56 208.392 151.476C210.487 149.169 213.384 148.097 216.156 146.85L216.52 146.685C217.856 146.075 219.188 145.403 220.342 144.489C221.452 143.606 222.268 142.391 223.437 141.578C225.137 140.394 228.221 140.646 228.299 143.233C228.34 144.653 227.731 146.211 227.173 147.487C226.542 148.93 225.69 150.238 224.678 151.44C224.631 151.496 224.58 151.54 224.528 151.575L224.489 151.6C225.887 151.831 227.297 152.018 228.733 152.084C231.631 152.216 234.56 152.003 237.397 151.39C240.301 150.764 243.115 149.747 245.728 148.329C247.96 147.118 250.028 145.551 252.563 145.182C252.797 145.146 253.033 145.124 253.276 145.11C253.681 145.088 254.085 145.565 253.926 145.965C253.838 146.186 253.746 146.404 253.645 146.625C252.768 148.558 251.423 150.434 249.746 151.858L249.616 151.966C250.208 151.762 250.79 151.532 251.363 151.273C254.733 149.754 257.79 147.458 261.402 146.535C261.573 146.49 261.746 146.449 261.919 146.411C263.037 146.17 263.626 147.386 262.969 148.219C262.863 148.354 262.758 148.487 262.648 148.619C261.036 150.623 259.258 152.482 257.298 154.152C256.625 154.724 255.933 155.278 255.227 155.807C254.93 156.031 254.631 156.25 254.329 156.466L254.18 156.572C254.533 156.322 254.881 156.068 255.227 155.807C257.439 155.136 259.62 154.341 261.753 153.461C262.6 153.112 263.259 153.972 263.349 154.679C263.65 157.047 261.025 158.76 259.316 159.899C257.603 161.043 255.717 161.911 253.786 162.609C250.074 163.953 246.174 164.563 242.281 165.109L240.39 165.373C232.905 166.421 225.087 167.674 219.717 173.506C216.707 176.774 214.67 180.835 212.807 184.831C210.945 188.822 209.311 192.919 207.76 197.038C206.153 201.301 204.752 205.643 203.264 209.949C201.898 213.903 200.265 217.806 198.648 221.67L198.393 222.28C194.96 230.492 190.86 238.226 185.146 245.082C184.204 246.214 182.682 244.608 183.552 243.486C189.53 235.77 193.688 226.665 197.121 217.582C198.683 213.45 199.991 209.218 201.493 205.062L202.386 202.594C203.58 199.303 204.783 196.017 206.038 192.752C207.628 188.621 209.374 184.54 211.373 180.592L211.585 180.176C213.541 176.367 215.866 172.614 219.065 169.731C224.823 164.541 232.486 163.295 239.895 162.309L242.226 162.002C245.358 161.585 248.499 161.125 251.545 160.286C253.303 159.805 255.02 159.188 256.634 158.337C257.277 157.999 257.904 157.628 258.511 157.223C256.781 157.731 255.025 158.148 253.238 158.474C252.363 158.634 251.498 158.753 250.635 158.837C248.412 159.057 246.206 159.048 243.929 158.929C243.736 158.917 243.673 158.614 243.88 158.575C245.466 158.293 247.053 157.94 248.634 157.557L249.108 157.441C249.117 157.178 249.221 156.898 249.437 156.633C250.223 155.674 251.718 155.183 252.755 154.506C253.84 153.796 254.892 153.031 255.895 152.212C256.812 151.462 257.693 150.67 258.541 149.842L258.795 149.592C258.71 149.675 258.626 149.759 258.541 149.842C256.252 150.9 254.083 152.257 251.694 153.094C249.794 153.763 247.802 154.213 245.793 154.373L245.668 154.383L245.543 154.391C243.446 154.542 241.335 154.481 239.269 154.936C239.038 154.987 238.966 154.677 239.173 154.589C240.978 153.837 242.855 153.547 244.752 153.196C244.792 153.047 244.896 152.914 245.076 152.829L245.561 152.597C247.007 151.901 248.354 151.2 249.556 150.071C250.617 149.074 251.5 147.908 252.163 146.616C249.509 147.199 247.177 149.214 244.763 150.346C242.133 151.582 239.35 152.468 236.491 152.973L236.165 153.029C230.822 153.921 224.396 153.808 219.609 151.026C219.456 150.936 219.566 150.731 219.724 150.755C221.081 150.978 222.426 151.242 223.77 151.476C223.507 151.235 223.39 150.803 223.693 150.456C224.901 149.071 225.855 147.487 226.466 145.754L226.583 145.415C226.864 144.612 227.339 143.364 226.854 142.638C226.391 141.947 225.301 142.042 224.649 142.335C223.293 142.947 222.392 144.476 221.25 145.398C220.005 146.407 218.588 147.154 217.138 147.822L216.832 147.962C214.324 149.091 211.645 150.042 209.673 152.036C208.612 153.108 207.699 154.447 207.394 155.948C207.254 156.637 207.254 157.346 207.439 158.028C207.585 158.562 207.891 158.891 207.715 159.433C207.486 160.133 206.674 160.97 206.256 161.594C205.771 162.314 205.287 163.037 204.804 163.759C203.84 165.204 202.88 166.654 201.92 168.101C200 171.001 198.101 173.913 196.217 176.835C195.604 177.787 194.993 178.739 194.384 179.692L193.472 181.123L192.991 181.878L192.169 183.172C192.198 183.291 192.196 183.417 192.157 183.527C192.017 183.927 191.755 184.2 191.429 184.398L191.371 184.432C186.574 192.025 181.853 199.667 177.085 207.278C176.831 209.6 176.593 211.925 176.386 214.251C175.916 219.513 175.595 224.79 175.491 230.073C175.442 232.63 175.646 235.203 175.757 237.758C175.81 238.977 175.884 240.195 175.981 241.412L176.052 242.275C176.147 243.461 176.2 244.639 175.775 245.769C175.397 246.761 174.246 246.984 173.565 246.228C164.679 245.87 155.786 245.598 146.893 245.429C130.976 245.123 115.051 245.17 99.1317 245.479C91.1359 245.634 83.1378 245.852 75.1442 246.122C71.2058 246.253 67.2652 246.437 63.3246 246.491C61.2016 246.52 57.8601 245.746 57.6888 243.355L57.6846 243.281C57.4194 243.354 57.1451 243.412 56.8641 243.455C56.739 243.474 56.6189 243.469 56.5079 243.443L56.4528 243.428C53.288 244.394 49.2847 243.016 46.2775 242.212L46.0292 242.147C43.1586 241.397 40.8522 240.326 38.9707 237.944C35.6775 233.774 34.5536 228.173 33.9691 223.011C33.4206 218.154 33.3892 213.206 34.0568 208.358C33.6634 204.407 34.0478 200.331 34.4951 196.403C34.7154 194.46 34.9739 192.52 35.2841 190.589C35.4572 189.51 35.6843 188.443 35.9158 187.379C36.0082 186.953 36.0852 186.495 36.2024 186.052L36.2552 185.864C35.8955 185.911 35.5021 185.832 35.1222 185.623C34.2186 185.126 33.9556 184.119 33.9398 183.156C33.8904 180.252 34.2366 177.265 34.5423 174.38C34.8503 171.498 35.2729 168.606 35.8259 165.76L35.9689 165.027C36.388 162.898 36.8674 160.701 37.7119 158.701C34.5401 158.161 31.3773 157.587 28.2999 156.61C26.7983 156.131 25.3191 155.534 23.9075 154.807ZM189.458 185.026C189.408 185.038 189.361 185.051 189.314 185.065C188.046 185.42 186.765 185.722 185.488 186.046C183.28 186.602 181.122 187.223 179.07 188.189C178.64 193.623 178.003 199.039 177.397 204.458L177.276 205.542C178.207 203.813 179.16 202.098 180.156 200.403C183.188 195.237 186.29 190.111 189.458 185.026ZM37.0286 185.565C37.0353 186.21 36.9004 186.881 36.8285 187.502C36.7116 188.511 36.6172 189.524 36.4981 190.532C36.2553 192.558 36.0485 194.586 35.8979 196.621C35.8012 197.92 35.7383 199.224 35.6821 200.527C36.9567 195.757 38.6449 191.091 40.2499 186.417C39.9816 186.389 39.7073 186.324 39.4244 186.248L38.9482 186.12C38.6673 186.047 37.7564 185.823 37.0286 185.565ZM193.472 181.123L193.481 181.337C193.515 182.096 193.061 182.523 192.51 182.634C192.83 182.13 193.151 181.625 193.472 181.123ZM47.6274 145.171C48.9694 145.29 50.2844 145.576 51.5388 146.071L51.6598 146.119C52.5876 146.477 53.944 146.928 54.2475 147.919C54.3329 148.201 54.1036 148.432 53.8406 148.455C52.8336 148.536 51.6467 147.455 50.7138 147.091C49.6753 146.686 48.5873 146.384 47.4858 146.224C45.0108 145.862 42.4302 146.137 40.1014 147.039C39.9642 147.093 39.8788 146.875 40.0024 146.809C42.3493 145.531 44.9591 144.935 47.6274 145.171ZM19.189 151.609C19.0338 151.471 18.8787 151.327 18.7259 151.183C17.5207 150.042 16.4534 148.709 15.6632 147.245L15.4552 146.849C14.8116 145.601 14.0213 143.823 15.5338 142.924C16.4375 142.387 17.5255 142.521 18.5326 142.848C18.5977 142.868 18.6629 142.891 18.7281 142.913C19.1777 143.071 19.6116 143.26 19.9982 143.44C21.6774 144.212 23.1588 145.335 24.7098 146.326C26.3905 147.399 28.05 148.086 29.9896 148.488L30.1723 148.525C31.9931 148.885 33.9668 149.117 35.2369 150.616C35.5561 150.994 35.2638 151.703 34.7131 151.516C31.2018 150.33 27.486 150.069 24.2625 148.122C22.9272 147.316 21.6639 146.391 20.2994 145.628C19.5756 145.222 18.8283 144.868 18.0319 144.625L17.5968 144.496C17.3419 144.422 17.0377 144.348 16.8331 144.421C16.4437 144.556 16.568 144.765 16.6885 145.129L16.7005 145.166C17.6469 148.097 20.3444 150.551 22.8441 152.174C23.4173 152.547 24.004 152.89 24.6019 153.207C28.6494 155.367 33.1783 156.373 37.6263 157.566C37.6263 157.566 40.1981 158.285 41.05 158.555C41.9987 158.476 43.0799 158.812 43.7947 159.212C44.4894 159.602 45.0491 160.124 45.4717 160.739C45.4717 160.739 45.8786 161.079 45.9528 161.605C46.1663 162.094 46.3102 162.62 46.3821 163.17C46.4226 163.492 46.3416 163.739 46.1888 163.915C46.6486 170.981 44.7424 178.008 42.5935 184.723L42.3805 185.385L42.2437 185.805C39.9261 192.925 37.2668 199.993 36.0799 207.417C35.2864 212.376 35.3111 217.508 35.8933 222.489L35.9344 222.833C36.508 227.543 37.6117 232.826 40.6027 236.617C42.1283 238.551 43.9357 239.411 46.2466 240.034L46.3731 240.067C48.4637 240.619 50.6217 241.4 52.7774 241.636C54.7781 241.854 56.455 241.109 58.2556 240.411L58.2578 240.409C62.0501 237.049 63.772 232.155 65.0443 227.216C68.342 214.435 67.9329 201.168 66.0626 188.2C65.087 181.425 63.7607 174.708 62.439 167.993C61.7781 164.637 61.0655 161.288 60.4743 157.92L60.1232 155.939C59.9294 154.837 59.742 153.736 59.5819 152.628C59.3661 151.14 59.3009 149.677 59.2267 148.18C57.4104 145.166 54.7736 142.684 51.7186 140.903C49.5314 139.627 47.2161 138.742 44.8265 138.101C37.9951 136.257 30.5477 136.388 23.6736 134.969C21.3643 134.494 19.1722 133.787 16.9813 132.941L16.6825 132.824C15.6777 132.433 14.6527 132.214 14.1536 133.401C13.7985 134.245 14.0098 135.123 14.5425 135.832C15.8486 137.569 18.4741 138.375 20.4501 139.001C21.6392 139.379 22.8531 139.679 24.0804 139.901C25.3078 140.124 26.5397 140.18 27.7176 140.615C28.1717 140.781 28.2616 141.504 27.7176 141.632C26.225 141.981 24.7234 141.682 23.2397 141.391C21.61 141.069 20.005 140.613 18.4449 140.034C18.1572 139.928 17.8594 139.816 17.5561 139.697L17.3277 139.606C17.5637 139.778 17.7998 139.947 18.038 140.115C18.101 140.16 18.0628 140.279 17.9796 140.25C14.3114 138.88 10.9738 136.407 8.38824 133.482L8.25959 133.335C7.34918 132.291 5.27436 129.13 3.52547 130.011C1.88323 130.836 4.68268 134.018 5.74656 135.319L5.8701 135.472C7.07948 135.503 8.25065 136.257 9.23074 136.865C10.9324 137.921 12.7105 138.83 14.5223 139.681C18.1235 141.376 21.9472 142.571 25.5102 144.351C25.5574 144.376 25.5214 144.437 25.4765 144.43C23.2083 144.068 20.9649 143.489 18.7732 142.771L18.6754 142.741L18.5776 142.708C17.2086 142.258 15.8576 141.749 14.5291 141.207C13.0522 140.604 11.609 139.926 10.2086 139.159C8.94076 138.465 7.53356 137.216 6.06342 137.031C5.90607 137.011 5.7667 137.009 5.64531 137.02C3.95714 137.162 5.3531 139.962 5.82516 140.799C6.5962 142.175 7.52684 143.444 8.5946 144.604C10.7593 146.958 13.3827 148.824 16.2218 150.276C17.1906 150.771 18.182 151.208 19.189 151.609Z" fill="#1A1A1A"></path> <path fill-rule="evenodd" clip-rule="evenodd" d="M163.102 35.1928C160.791 26.8224 151.959 23.1699 144.004 22.5903C122.466 20.3436 100.544 32.3917 90.9953 51.9281C83.3521 66.7626 83.1128 82.3461 99.5422 90.8163C100.44 91.3126 101.376 91.8431 102.333 92.3249C103.165 93.1005 104.329 92.5494 105.263 93.1752C114.21 99.0786 124.882 102.928 135.524 102.375C151.235 102.057 156.844 91.3585 160.276 77.6391C163.896 63.9804 165.921 49.1596 163.102 35.1928Z" fill="#D08B5B"></path> <path fill-rule="evenodd" clip-rule="evenodd" d="M173.415 114.091C172.682 111.864 171.762 109.706 170.903 107.525C170.721 106.437 170.6 105.341 170.569 104.236C170.45 100.288 171.186 96.3057 172.011 92.4611C173.689 84.648 175.468 76.9159 176.36 68.9587C177.955 54.7259 177.006 39.9257 170.555 26.9332C164.965 15.6783 155.492 6.47411 143.256 3.02562C139.638 2.00571 135.915 1.44319 132.167 1.21855C131.703 1.14449 131.239 1.07201 130.778 1.00223C125.564 0.213489 120.286 -0.17953 115.016 0.160591C106.276 0.724909 97.6184 3.24509 90.3397 8.22964C83.0115 13.2486 77.8046 20.286 75.3818 28.8697C72.8613 37.7992 73.0751 47.4701 68.7227 55.8419C67.4369 58.3152 65.936 60.6666 64.5046 63.0571C60.7067 67.3094 56.5833 72.0367 55.6797 77.8836C54.5649 85.1094 58.708 91.2163 62.6291 96.855C66.1733 101.947 70.9827 108.979 67.3353 115.248C65.6148 118.205 62.8579 120.418 60.7874 123.115C58.6407 125.915 56.9651 129.129 56.0992 132.564C54.4729 139.015 55.9691 145.739 60.3186 150.781C62.5842 153.406 65.4936 155.142 68.643 156.494C71.8665 157.876 75.0159 159.189 77.6808 161.541C78.8988 162.615 80.0137 163.792 81.068 165.026C82.0505 166.567 83.1945 168.008 84.4844 169.327C85.9043 170.779 88.6858 168.791 87.3825 167.083C87.2861 166.957 87.1919 166.833 87.0954 166.707C86.1421 165.46 85.1842 164.213 84.1815 163.006C81.1914 158.252 80.0406 152.431 81.5279 146.878C81.9137 145.435 82.4565 144.067 83.1319 142.775C83.2753 143.151 83.4323 143.522 83.5983 143.889C84.2443 145.312 85.1508 146.997 86.3036 148.438C86.3484 149.426 86.4967 150.405 86.7836 151.364C88.5602 157.309 94.5001 160.242 99.8568 162.525C100.382 162.75 100.9 162.966 101.409 163.18C102.809 163.767 104.289 161.766 103.417 160.559C103.188 160.242 102.966 159.918 102.755 159.589C100.243 155.686 99.0471 151.018 99.7245 146.367C100.438 141.449 103.327 137.379 106.196 133.474C109.013 129.634 112.04 125.715 113.3 121.03C114.695 115.855 113.426 110.696 111.272 105.933C109.301 101.575 106.674 97.5573 104.472 93.3187C105.226 94.0734 106.004 94.8034 106.806 95.5075C107.707 96.2994 108.633 97.2057 109.702 97.7639C110.492 98.1765 111.283 97.1888 110.658 96.5209C109.835 95.6435 108.783 94.9655 107.87 94.1824C106.993 93.4308 106.142 92.649 105.312 91.8461C104.289 90.8577 103.317 89.8227 102.379 88.7564C101.629 86.8384 101.011 84.8688 100.507 82.8697C99.8232 80.164 99.1906 77.2851 99.24 74.4804C99.2893 71.6036 100.779 69.589 102.762 67.6577C103.602 66.8399 104.45 66.0318 105.296 65.2221C107.098 63.8943 108.799 62.4109 110.45 60.9315C113.394 58.2954 116.24 55.509 118.959 52.641C119.688 51.8716 120.411 51.0937 121.125 50.3068C123.621 47.737 126.001 45.0539 128.244 42.278C130.474 41.4632 132.616 40.3849 134.626 39.1154C133.751 40.0045 132.867 40.8824 131.988 41.767C130.03 43.7389 127.995 45.7197 125.725 47.3267C125.492 47.4935 125.633 47.8469 125.921 47.7906C128.807 47.2121 131.508 46.2487 134.029 44.7136C136.593 43.1514 138.852 41.0287 140.961 38.8993C142.154 38.3591 143.305 37.6635 144.357 36.9792C144.413 36.9432 144.469 36.9049 144.525 36.8687C143.489 40.1643 141.968 43.8964 138.727 45.0715C138.621 45.1097 138.628 45.2853 138.754 45.2785C141.484 45.1178 143.679 43.885 145.412 42.088C146.805 41.0818 148.135 40.0156 149.404 38.8547C150.633 37.7301 151.798 36.5241 152.903 35.2752C151.358 38.3476 149.627 41.3517 147.919 44.3219C147.829 44.4794 148.018 44.6933 148.179 44.583C151.784 42.1339 154.519 38.9736 156.755 35.2368C157.085 34.6866 157.4 34.1275 157.708 33.5641C157.476 34.4458 157.223 35.3218 156.951 36.1934C156.46 37.7711 155.977 39.3524 155.485 40.9292C155.22 41.7794 154.897 42.6102 154.542 43.4269C154.288 44.0112 153.956 44.5945 153.904 45.2353C153.901 45.2779 153.947 45.3058 153.984 45.2966C155.421 44.9359 156.76 43.2909 157.784 42.2719C158.354 41.7045 158.889 41.0816 159.38 40.4248C159.472 44.208 159.534 47.9916 159.451 51.7861C159.297 58.7551 158.848 65.7218 158.274 72.6681C157.767 78.809 157.392 85.2535 153.978 90.5905C151.336 94.721 147.051 97.5796 142.396 98.9641C141.986 99.0879 141.573 99.1982 141.158 99.2973C134.42 100.902 127.708 99.0834 121.75 95.869C119.96 94.9034 118.43 97.5233 120.158 98.6015C126.622 102.64 134.817 104.015 142.134 102.206C141.903 110.878 146.163 119.106 150.4 126.462C152.771 130.579 155.144 134.669 156.82 139.133C158.242 142.923 159.209 146.856 159.534 150.901C159.92 155.668 159.541 160.463 158.877 165.19C158.841 165.446 158.805 165.705 158.767 165.962C158.619 166.977 159.528 167.828 160.512 167.308C164.866 165.012 166.744 160.118 167.886 155.594C168.953 151.355 169.678 147.034 170.082 142.682C170.674 144.323 171.154 146.005 171.526 147.72C171.578 147.965 171.627 148.211 171.677 148.456C171.959 149.89 174.122 149.789 174.467 148.456C174.53 148.215 174.591 147.974 174.647 147.731C176.43 140.494 176.91 132.947 175.968 125.548C175.472 121.656 174.644 117.816 173.415 114.091Z" fill="black"></path> <path fill-rule="evenodd" clip-rule="evenodd" d="M142.41 86.737C140.754 87.2173 138.977 87.2602 137.289 86.7642C135.758 86.3143 134.186 85.3242 133.059 84.014C132.058 82.8502 131.41 81.4358 131.435 79.926C131.438 79.7536 131.5 79.6097 131.594 79.498C131.696 79.3777 131.839 79.2951 131.991 79.2593C132.148 79.2224 132.314 79.2355 132.455 79.2997C132.583 79.3579 132.693 79.4567 132.761 79.601C132.934 79.8288 133.107 80.0532 133.28 80.2714C134.672 81.993 136.021 83.2796 138.115 83.7411C139.251 83.9915 140.385 83.8805 141.426 83.4984C142.54 83.0894 143.548 82.3703 144.337 81.45C144.694 81.0342 145.115 80.8644 145.527 80.8616C145.993 80.8583 146.455 81.0755 146.802 81.4225C147.144 81.7637 147.372 82.2273 147.393 82.7122C147.411 83.1378 147.273 83.5824 146.904 83.9791C145.689 85.2856 144.114 86.2428 142.41 86.737ZM142.359 65.1746C144.057 66.2078 146.643 68.617 144.817 71.1785C142.667 73.437 139.573 70.8474 138.048 69.6763C136.633 68.7686 135.045 71.103 136.357 72.1629C147.377 80.3328 151.849 65.4447 143.218 63.9598C142.267 63.7961 141.914 64.8549 142.359 65.1746ZM126.48 60.6283C125.934 60.2789 125.293 60.159 124.581 60.483C124.025 60.7361 123.051 61.5799 122.372 62.6891C121.908 63.448 121.579 64.3382 121.647 65.2655C121.663 65.4808 121.584 65.6396 121.458 65.757C121.36 65.8498 121.217 65.9179 121.049 65.9392C120.906 65.9573 120.746 65.941 120.617 65.9004C120.37 65.8233 120.239 65.6629 120.19 65.532C119.715 64.2687 119.919 62.859 120.452 61.5872C121.17 59.8708 122.475 58.4331 123.33 57.9696C124.793 57.1761 126.519 57.1396 127.984 57.9479C129.231 58.6359 130.01 59.7467 130.786 60.8789C130.951 61.1196 131.114 61.3585 131.283 61.5932C131.622 62.0636 131.656 62.53 131.525 62.93C131.379 63.3731 131.009 63.7471 130.545 63.9428C130.117 64.1237 129.619 64.1492 129.179 63.9633C128.808 63.8063 128.466 63.5002 128.251 62.9809C127.887 62.1063 127.281 61.1414 126.48 60.6283ZM154.189 62.5741C153.815 62.7691 153.523 62.8278 153.109 62.7035C152.879 62.6345 152.653 62.5024 152.476 62.3248C152.3 62.1488 152.173 61.9299 152.124 61.6871C152.002 61.0878 151.675 60.5268 151.208 60.1611C150.81 59.8486 150.306 59.6829 149.748 59.7764C149.145 59.8771 148.571 60.2641 148.176 60.7203C148.044 60.8729 147.94 61.0463 147.836 61.2185C147.641 61.5406 147.452 61.8399 147.183 62.0764C147.081 62.1664 146.928 62.2287 146.779 62.2287C146.719 62.2287 146.657 62.2189 146.599 62.2006C145.999 61.5979 145.884 61.1407 145.903 60.6871C145.924 60.2116 146.111 59.73 146.413 59.2807C147.123 58.2269 148.471 57.3628 149.38 57.167C150.626 56.899 151.863 57.2208 152.854 57.9173C153.875 58.634 154.631 59.7468 154.867 61.0008C154.923 61.3029 154.899 61.6289 154.784 61.9115C154.672 62.1877 154.476 62.4243 154.189 62.5741ZM129.227 49.392C128.479 50.1212 127.595 50.2342 126.7 50.3346C126.202 50.391 125.806 50.4364 125.415 50.5247C124.341 50.7673 123.28 51.1329 122.312 51.6593C121.299 52.2096 120.196 52.8733 119.403 53.7235C119.214 53.9258 119.036 54.1381 118.858 54.3509C118.696 54.5449 118.539 54.7316 118.374 54.9117C118.185 55.1186 118.005 55.3354 117.826 55.5516C117.716 55.7341 117.694 55.7789 117.672 55.8256C117.638 55.8958 117.599 55.9744 117.555 56.0587C117.494 56.1741 117.422 56.3004 117.347 56.415C117.223 56.6244 117.156 56.682 117.098 56.7078C117.003 56.7505 116.912 56.7716 116.824 56.7602C116.741 56.7495 116.663 56.7098 116.586 56.6447C116.203 56.3201 116.089 55.7873 116.101 55.2217C116.119 54.3635 116.435 53.4132 116.726 52.8291C117.404 51.4718 118.343 50.0609 119.473 49.0479C120.763 47.8916 122.174 47.0162 123.794 46.413C124.801 46.038 125.967 45.6938 127.064 45.7373C127.853 45.7686 128.607 46.0036 129.23 46.5905C129.612 46.9509 129.795 47.4634 129.795 47.9755C129.795 48.4979 129.605 49.0233 129.227 49.392ZM155.709 56.0695C155.662 56.1475 155.596 56.2013 155.523 56.2336C155.446 56.2674 155.36 56.2772 155.278 56.2633C155.196 56.2495 155.118 56.2123 155.057 56.1556C154.998 56.1011 154.953 56.029 154.932 55.9405C154.436 53.7581 153.473 52.1343 151.416 51.0872C150.404 50.5721 149.241 50.2449 148.14 49.9839C147.82 49.9081 147.482 49.859 147.141 49.8092C146.074 49.6531 144.999 49.4744 144.303 48.6105C143.884 48.0902 143.708 47.4247 143.807 46.8161C143.901 46.243 144.235 45.7176 144.843 45.4027C146.357 44.6191 148.237 45.388 149.766 46.043C149.879 46.0916 149.99 46.1393 150.099 46.1853C151.594 46.817 152.957 47.6509 154.077 48.8434C154.966 49.7894 155.79 51.188 156.122 52.6267C156.398 53.8237 156.333 55.0457 155.709 56.0695Z" fill="black"></path> </g> <defs> <clipPath id="clip0"> <rect width="265" height="241" fill="white" transform="translate(-0.00012207)"></rect> </clipPath> </defs> </svg> 