<?xml version="1.0" encoding="UTF-8"?> <svg xmlns="http://www.w3.org/2000/svg" width="168" height="370" viewBox="0 0 168 370" fill="none"> <g clip-path="url(#clip0)"> <path fill-rule="evenodd" clip-rule="evenodd" d="M140.004 172.094C139.983 173.519 139.84 176.791 139.481 178.17C143.478 171.785 149.467 164.805 150.378 156.984C150.094 156.907 148.835 156.791 148.615 156.626C146.547 157.584 146.938 154.637 146.633 153.274C145.807 150.388 144.073 147.549 143.32 144.645C141.339 143.791 145.316 143.429 145.894 143.412C143.492 140.747 142.387 137.082 140.677 133.972C138.163 128.687 135.912 123.284 133.903 117.797C133.463 121.235 133.385 124.711 133.652 128.168C134.479 142.977 140.06 157.216 140.004 172.094ZM1.27994 145.788C2.52344 145.996 4.59569 146.193 5.83669 146.295C4.20778 145.327 -0.60654 143.483 2.42739 141.826C3.36287 141.485 4.36671 141.971 5.31003 142.121C9.22768 142.764 14.0651 142.73 18.0284 142.406C16.5837 141.224 14.6815 139.522 13.2715 138.299C12.5221 137.649 11.7956 137.402 12.6385 136.432C14.1242 135.053 16.7811 136.069 18.4988 136.675C23.2373 139.321 28.5876 142.191 33.6734 144.227C33.7266 143.516 33.6937 142.598 34.3807 142.121C36.3959 141.175 37.8796 141.451 40.0238 141.199C42.523 140.826 44.7444 140.401 47.2194 139.742C48.8383 138.512 49.8254 134.883 52.4139 135.288C50.1213 129.538 53.6156 123.538 54.9283 118.032C56.5664 112.397 57.4271 106.545 57.4505 100.685C57.4666 91.3045 62.9179 84.1067 70.7948 79.2932C73.9 77.203 75.9852 72.119 79.8297 71.1007C80.3187 69.2308 80.3483 68.4094 80.7777 66.5252C80.9932 65.984 81.1534 63.0472 81.6955 63.1472C82.2932 60.2381 85.3396 59.0714 87.9757 58.4622C91.4031 57.7542 96.1862 56.8965 99.2673 58.8943C100.16 59.6344 100.552 60.8738 100.617 61.981C100.96 63.4553 101.672 64.9825 102.502 66.2617C103.918 65.7846 103.117 64.8956 104.518 64.6886C117.311 62.7986 131.511 72.1535 139.812 81.2795C154.858 96.6797 166.878 117.703 164.91 139.652C165.439 139.575 167.785 139.208 167.751 139.947C167.636 143.159 167.043 145.838 166.879 149.047C167.042 153.299 162.61 153.812 159.409 154.86C159.606 167.196 155.11 179.535 148.072 189.675C146.363 191.671 143.797 198.595 140.677 195.837C140.309 195.408 143.161 192.438 143.668 191.704C145.401 189.53 149.99 178.766 146.747 176.616C146.026 178.94 139.044 190.113 137.799 183.771C136.146 184.727 133.414 185.38 131.438 185.281C127.723 187.287 124.108 189.453 120.541 191.704C118.879 194.957 116.442 198.082 114.4 201.205C128.532 233.744 142.327 287.299 160.513 317.947C162.099 319.948 153.376 323.35 151.835 324.084C154.781 328.853 155.15 334.379 157.392 339.515C157.819 339.446 158.25 339.536 158.635 339.742C161.4 341.608 162.444 348.291 162.601 351.586C162.474 353.055 163.02 355.278 161.827 356.36C161.994 356.54 162.118 356.76 162.207 356.984C163.047 357.636 162.943 359.075 162.494 359.968C160.915 363.235 149.374 362.931 145.629 363.63C132.362 364.75 121.226 364.927 107.961 363.702C106.333 363.363 107.564 360.831 108.368 360.144C107.997 359.918 107.759 359.507 107.922 358.979C110.937 350.382 121.837 350.964 128.432 346.373C126.698 345.374 127.817 345.693 128.907 346.081C130.063 345.357 131.188 344.542 132.23 343.641C131.43 343.149 131.825 342.823 132.69 343.236C134.055 342.145 135.118 340.459 136.856 339.93C138.559 339.515 138.559 338.789 138.559 338.331C137.545 334.27 136.439 330.106 135.87 325.987C135.263 326.879 130.027 319.731 128.907 317.947C124.554 311.075 124.566 304.303 121.52 296.83C115.265 280.557 102.451 246.449 94.637 230.885C76.3538 260.582 85.2589 300.746 73.9802 332.414C73.4789 333.365 72.5363 336.933 71.2308 335.904C70.7235 336.022 70.184 336.086 69.7007 336.154C69.8402 339.616 70.1005 343.068 70.6775 346.494C71.215 346.636 71.6718 346.917 71.9085 347.409C72.8137 346.746 74.5469 356.521 74.6952 357.517C74.6975 358.801 75.8083 361.661 74.7938 362.425C76.2554 363.021 76.4944 365.224 75.4663 366.358C72.4138 370.447 57.5346 369.323 52.0454 370.009C45.1039 369.837 16.0648 372.428 14.0486 365.864C13.6477 364.365 14.3348 362.474 15.7324 361.897C15.1731 360.596 16.5124 359.339 17.3317 358.426C22.163 353.417 29.5919 352.628 36.0244 350.448C35.7846 350.203 44.4211 345.792 46.2934 344.702C46.1698 343.22 49.2576 344.705 49.2662 344.702C50.7384 342.108 51.7813 338.073 52.7684 335.275C50.9466 334.712 46.5571 334.212 45.7436 332.414C43.1289 331.54 45.7517 327.76 46.2934 325.987C61.6201 287.762 47.0791 239.546 69.7007 203.468C65.5541 201.101 60.7969 195.92 64.8929 191.575C65.7126 190.53 67.7177 187.277 67.6848 187.845C68.4464 184.748 70.1475 179.414 70.6775 176.282C72.6235 164.785 71.348 154.017 69.7007 142.406C67.4137 151.143 59.5313 158.422 51.5126 162.414C48.3831 163.701 44.2506 166.358 40.8148 165.52C37.7139 164.605 32.0823 158.26 31.4186 155.213C22.379 156.284 12.9932 155.424 4.35435 152.592C3.24539 152.174 1.93308 152.209 2.27594 150.64C2.61792 149.309 5.05639 149.648 6.10487 149.896C4.50222 149.01 0.341731 148.778 0.37359 146.463C0.427725 145.981 0.785136 145.705 1.27994 145.788Z" fill="#AE5D29"></path> <path fill-rule="evenodd" clip-rule="evenodd" d="M120.471 192.652L118.85 193.751L118.276 194.139C114.537 196.656 111.328 198.674 108.156 200.454L107.834 200.634L107.511 200.812C103.112 203.241 98.9674 205.089 94.9535 206.339C85.5454 209.27 77.0848 208.835 69.4286 204.364L69.1969 204.227L68.8322 204.009L68.5189 204.728L68.2223 205.412C66.5936 209.181 65.4145 212.126 64.4005 215.042L64.3552 215.172L64.27 215.42C61.3198 223.574 59.3784 232.314 58.122 242.329L58.0381 243.006C57.1755 250.054 56.7254 256.52 56.1771 268.046L56.1243 269.165L55.8705 274.614C55.6517 279.238 55.5004 282.095 55.3105 285.038L55.2622 285.777L55.1828 286.949L55.1426 287.525C54.777 292.682 54.3299 297.265 53.745 301.621L53.6671 302.194C52.1794 312.995 49.8181 322.352 46.1744 331.018L46.0636 331.281L45.9561 331.534L46.1678 331.711C46.255 331.784 46.3222 331.917 46.3341 332.055L46.3357 332.083L46.346 332.41L46.673 332.442C47.4962 332.521 48.2647 332.703 49.5539 333.09L50.3246 333.323L50.6215 333.412C51.3777 333.635 51.8622 333.761 52.3723 333.861L52.4683 333.879L52.63 333.908L52.9266 333.976L53.2271 334.044C58.0869 335.116 63.1185 335.531 70.1516 335.627L70.6719 335.633L70.7285 335.61L70.7331 335.609L70.7523 335.606C70.7914 335.601 70.8516 335.602 70.9499 335.61L71.0073 335.614L71.524 335.662L71.6582 335.142C71.9781 333.912 72.3069 332.785 72.8585 331.004L72.9562 330.689L73.63 328.532C74.7156 325.038 75.2313 323.174 75.6531 321.027L75.6941 320.816L75.7372 320.589L75.7394 320.576C76.8602 313.117 77.78 306.059 78.654 298.454L78.769 297.446C79.048 294.977 79.5399 290.427 79.9562 286.55L80.6804 279.782L80.7368 279.267C82.2557 265.52 83.5724 257.819 86.059 249.771C87.9538 243.64 90.5005 237.68 94.0099 231.267L94.1403 231.029L94.1836 230.951L94.2979 231.043C95.415 231.949 96.0749 232.561 96.2321 232.82L96.2395 232.833L96.4327 233.198L96.5963 233.503L97.5763 235.311C97.6789 235.502 97.768 235.668 97.8509 235.825L98.0036 236.115L98.2222 236.538L98.3794 236.847L98.4877 237.062L98.6101 237.307L98.8649 237.686L98.9783 237.857L99.1939 238.182L99.3005 238.346C100.962 240.925 102.264 243.704 103.977 248.097L104.198 248.667L104.549 249.583L105.598 252.349L106.102 253.672L106.343 254.298C106.58 254.908 106.802 255.473 107.021 256.021L107.131 256.294L107.31 256.736L107.589 257.421L107.784 257.9C110.026 263.428 112.341 269.549 114.822 276.445L115.297 277.77L115.643 278.738C117.028 282.624 118.44 286.678 120.074 291.441L120.487 292.647L121.09 294.41L125.198 306.462L125.881 308.46L126.494 310.242L126.671 310.624L126.845 310.994C128.921 315.407 130.849 318.878 133.06 322.004L133.138 322.113L133.181 322.193L133.222 322.265C133.375 322.524 133.564 322.771 133.873 323.13L133.916 323.18L134.265 323.581L134.343 323.673C134.929 324.366 135.143 324.746 135.17 325.212L135.178 325.389L135.789 325.987L136.03 325.861L136.083 325.834C136.566 325.6 137.375 325.435 138.715 325.268L138.869 325.249L139.226 325.207L140.385 325.076C141.414 324.957 141.994 324.867 142.423 324.742L142.478 324.725L142.535 324.707L142.712 324.673C148.38 323.545 153.849 321.516 158.85 318.682L159.026 318.581L159.202 318.48L159.501 318.308L159.182 317.643C158.333 315.867 157.473 314.026 156.603 312.119C151.059 299.974 145.288 285.691 138.384 267.378L138.175 266.822L137.645 265.412L137.211 264.254C133.707 254.866 124.629 230.133 121.414 221.483L120.853 219.976L120.7 219.568L118.329 213.737L118.187 213.392C118.114 213.215 118.038 213.033 117.957 212.84L117.745 212.335L116.975 210.512L116.656 209.751C116.043 208.281 115.652 207.293 115.281 206.262L115.236 206.136L115.101 205.752C114.96 205.348 114.98 204.066 115.2 202.732L115.222 202.603L115.245 202.472C115.583 200.636 116.235 198.957 117.191 197.715L117.225 197.671L117.237 197.661L117.592 197.146C118.355 196.032 118.921 195.175 119.444 194.329L119.488 194.259L120.471 192.652Z" fill="white"></path> <path fill-rule="evenodd" clip-rule="evenodd" d="M46.5576 343.841C46.0013 344.39 41.7312 347.657 35.9644 350.409C32.4398 352.091 28.1449 352.96 24.5155 354.625C20.5996 356.421 17.4114 359.015 15.4636 360.891L13.4584 366.232C13.7633 368.168 22.7789 369.395 32.2411 369.708C46.1022 370.165 63.3248 368.839 64.9704 368.665C67.8093 368.405 76.6544 368.695 75.024 364.076C74.5608 364.222 74.4145 361.253 74.0889 360.966L73.8081 358.703C73.0027 352.243 72.5303 348.767 72.3909 348.275C72.355 348.219 72.3178 348.163 72.2767 348.111C71.7972 347.493 70.9862 347.32 70.239 347.365C70.1784 347.369 70.1175 347.376 70.0561 347.386C69.9546 347.438 69.8565 347.501 69.7634 347.575L69.6852 347.586C69.6721 347.587 69.6589 347.589 69.6454 347.592C69.6186 347.596 69.5945 347.603 69.572 347.612C69.5533 347.581 69.537 347.548 69.5206 347.514C69.0579 347.655 68.587 347.845 68.1357 347.867L67.8093 348.01L67.3869 348.198L66.1671 348.744L65.8944 348.865C64.3222 349.553 60.3761 351.027 56.7466 350.533C53.2318 350.054 50.2801 346.573 49.1932 345.656C48.4036 344.934 47.2937 344.597 46.5576 343.841ZM137.31 339.675C136.964 339.766 135.438 340.69 134.124 341.943C132.882 343.126 131.895 344.602 130.044 345.946C127.371 347.886 117.105 351.59 111.508 355.147C108.606 356.992 106.755 363.008 106.707 363.286C124.321 364.293 145.328 364.096 162.773 361.321C163.105 361.225 162.963 353.584 162.175 348.456L162.151 348.302C161.582 344.7 160.936 342.72 160.897 342.635L160.852 342.56C160.128 341.383 158.147 340.118 156.864 340.979L156.852 340.989L156.612 341.205C155.466 342.23 150.677 346.339 147.353 345.342C146.264 344.989 145.36 344.285 144.413 343.671C141.865 342.031 140.185 340.662 137.31 339.675ZM136.801 339.448C136.567 339.598 136.344 339.767 136.129 339.949C136.409 339.781 136.706 339.643 137.026 339.544C136.956 339.518 136.888 339.49 136.823 339.459L136.801 339.448Z" fill="white"></path> <path fill-rule="evenodd" clip-rule="evenodd" d="M3.66872 147.982C6.5582 149.208 9.54175 150.385 12.6907 150.698C13.4091 150.769 13.4183 151.897 12.6907 151.827C10.0746 151.573 7.45146 151.331 4.86973 150.825C4.54506 150.761 2.85584 150.164 2.76189 150.729C3.1346 152.08 9.93574 153.459 11.4481 153.735C20.4056 155.942 29.4053 154.201 38.3991 154.102C39.297 153.836 40.2201 153.85 41.0848 154.126C41.5623 154.142 42.0398 154.163 42.5172 154.191C40.766 150.461 38.2617 147.138 35.2956 144.293C33.1321 145.277 27.181 142.317 24.9479 141.362C21.218 139.743 17.8782 136.214 13.5078 136.934C15.6151 138.82 17.9124 140.464 20.0552 142.308C20.6048 142.785 20.1462 143.675 19.482 143.687C14.8283 144.006 10.1645 144.037 5.55617 143.201C2.2895 142.577 2.23748 142.678 5.05229 144.493C6.54102 145.44 8.28324 146.337 10.1069 146.136C11.1024 146.108 11.0368 147.515 10.1069 147.635C7.40554 147.731 4.65457 147.653 1.98486 147.201C2.54784 147.565 3.36159 147.846 3.66872 147.982M43.1775 155.984C43.2157 156.025 43.2539 156.064 43.2921 156.102C43.31 156.109 43.328 156.117 43.3458 156.124C43.2711 155.935 43.1978 155.748 43.128 155.567C43.1256 155.566 43.1233 155.566 43.1209 155.566C43.1685 155.702 43.1861 155.843 43.1775 155.984M64.6471 215.557C51.151 252.86 61.9894 294.759 46.4334 331.437C46.6024 331.578 46.7266 331.822 46.7348 332.083C48.7517 332.277 50.7158 333.203 52.7313 333.556C58.5934 334.919 64.6261 335.202 70.6263 335.272C70.6279 335.271 70.6294 335.27 70.6312 335.27C70.7947 335.218 71.0331 335.254 71.2672 335.275C72.5358 330.339 74.4528 325.564 75.3961 320.532C85.1074 255.899 75.2268 249.288 120.329 193.225C105.763 203.188 86.3775 214.896 69.0312 204.558C67.4535 208.175 65.928 211.825 64.6471 215.557M51.2577 343.61C51.0405 344.192 50.8538 344.795 50.5302 345.286C57.2267 353.004 60.5708 349.142 68.6192 346.826C68.4147 343.306 68.8051 339.819 69.4286 336.353C64.0456 337.182 58.5363 336.796 53.2033 335.792C52.9479 338.476 52.1831 341.086 51.2577 343.61M46.2934 344.702C44.9403 346.038 43.4773 347.291 41.8394 348.285C42.8881 349.147 45.236 349.772 45.3847 351.25C45.3607 352.585 43.2114 352.694 43.727 351.439C42.82 350.51 41.6736 349.848 40.705 348.978C39.7189 349.557 38.708 350.079 37.6775 350.559C38.6378 351.323 40.064 351.923 40.2753 353.24C40.3498 353.882 39.643 354.181 39.1346 354.105C37.8252 353.64 37.1014 352.08 35.9258 351.331C28.8079 354.19 20.6434 355.953 15.8667 362.474C16.0387 362.562 16.1625 362.689 16.2419 362.839C18.1055 362.548 20.0142 363.268 21.879 363.443C27.6477 364.306 33.4688 364.825 39.298 365.035C49.0902 365.335 58.9114 364.782 68.6289 363.59C70.0372 363.356 71.4441 362.986 72.8001 362.501C72.5292 359.11 72.1411 355.66 71.9979 352.224C71.8374 352.095 71.7425 351.872 71.7789 351.645C71.891 350.95 71.8613 349.957 71.6289 349.136C71.593 349.08 71.5558 349.024 71.5147 348.972C71.0352 348.354 70.2242 348.181 69.477 348.226C69.4164 348.23 69.3555 348.238 69.2941 348.247C69.1926 348.3 69.0945 348.362 69.0014 348.436C68.962 348.442 68.9238 348.446 68.8834 348.453C68.8566 348.457 68.8325 348.465 68.81 348.473C68.7913 348.442 68.775 348.409 68.7586 348.375C68.2959 348.516 67.825 348.706 67.3737 348.728C63.7484 350.307 60.0947 352.302 56.0418 351.547C52.9568 351.049 51.1612 348.4 48.929 346.517C48.1394 345.795 47.0295 345.459 46.2934 344.702M15.6146 364.323C6.28934 371.095 61.4301 368.235 64.4573 367.914C67.2961 367.654 76.1412 367.944 74.5109 363.325C74.0203 363.48 73.4664 363.339 73.1468 363.015C63.147 368.939 26.555 368.481 15.6146 364.323M96.6026 232.684C97.2358 233.887 97.9068 235.07 98.529 236.28C98.6746 236.563 98.8179 236.847 98.9597 237.131C99.1524 237.418 99.3438 237.704 99.5329 237.99C103.004 243.31 104.894 249.791 107.769 256.823C114.93 274.332 121.73 295.25 126.867 310.115C128.765 314.212 130.858 318.243 133.483 321.93C134.064 323.05 135.517 323.961 135.571 325.238C135.587 325.254 135.602 325.269 135.618 325.285C135.706 325.371 135.794 325.457 135.883 325.543C137.25 324.829 141.115 324.809 142.466 324.359C148.286 323.224 153.911 321.13 159.041 318.17C145.425 289.795 131.624 249.661 120.38 219.72C119.621 217.861 118.87 215.999 118.112 214.14C116.996 211.401 115.748 208.679 114.774 205.886C114.47 205.014 114.246 204.08 114.276 203.153C108.006 212.322 101.436 221.345 95.9233 230.999C96.065 231.592 96.3327 232.171 96.6026 232.684M137.144 328.834C138.179 332.001 139.285 335.183 140.079 338.421C140.113 338.569 140.121 338.708 140.108 338.838C140.116 338.86 140.124 338.881 140.133 338.903C140.27 339.262 140.452 339.571 140.405 339.914C148.245 343.338 146.835 347.426 155 341.311C155.272 341.156 155.559 341.002 155.857 340.87C155.844 340.835 155.833 340.798 155.824 340.759C155.634 339.909 155.511 339.05 155.453 338.183C155.156 336.905 154.871 335.623 154.548 334.352C154.122 333.127 153.689 331.905 153.277 330.679C153.234 330.578 153.192 330.476 153.149 330.374C152.524 328.901 151.92 327.318 151.789 325.721C151.711 325.412 151.638 325.102 151.568 324.792C151.37 324.731 151.233 324.593 151.157 324.425C146.479 326.042 141.562 327.361 136.591 327.425C136.787 327.89 136.979 328.357 137.144 328.834M136.299 340.536C134.825 340.923 134.048 342.371 133.117 343.536C134.189 344.274 135.072 345.34 135.686 346.494C136.093 346.87 136.474 347.27 136.811 347.704C137.233 348.334 136.272 349.073 135.758 348.514C134.688 347.112 133.596 345.668 132.109 344.664C131.393 345.446 130.627 346.182 129.832 346.888C130.551 347.401 131.176 348.024 131.671 348.755C132.612 349.456 133.374 350.257 132.984 350.89C132.605 351.5 131.878 351.168 131.523 350.727C130.744 349.643 129.877 348.565 128.777 347.795C126.24 349.942 123.358 351.613 120.227 352.735C116.083 354.269 110.657 355.501 109.065 360.163C116.066 360.247 123.079 360.332 130.078 359.963C140.306 359.629 150.426 358.044 160.605 357.209C160.539 357.124 160.518 357.012 160.594 356.912C160.804 356.638 161.115 356.515 161.334 356.252C161.056 355.121 161.578 353.426 161.383 352.389C161.416 349.338 160.324 343.11 160.258 342.997C159.546 341.78 158.158 340.961 156.849 341.839C156.758 341.9 151.107 347.333 147.337 346.202C146.249 345.85 145.345 345.145 144.398 344.531C141.849 342.891 139.174 341.522 136.299 340.536M107.687 363.154C125.301 364.161 143.081 363.936 160.526 361.161C161.099 360.995 161.615 360.72 162.018 360.357C162.056 359.918 162.084 359.478 162.097 359.037C162.103 358.812 162.231 358.049 161.985 357.908C161.847 357.828 161.754 357.726 161.697 357.613C155.458 359.742 148.626 360.096 142.105 360.95C130.952 361.87 119.549 362.857 108.414 361.914C108.111 362.303 107.768 362.687 107.687 363.154M161.631 356.882C161.561 356.98 161.482 357.071 161.391 357.146C161.478 357.14 161.565 357.132 161.652 357.126C161.666 357.072 161.685 357.02 161.71 356.97C161.682 356.941 161.656 356.912 161.631 356.882M153.651 327.442C153.544 326.977 153.42 326.492 153.308 325.998C153.387 326.618 153.545 327.235 153.745 327.843C153.714 327.709 153.682 327.576 153.651 327.442M121.264 192.704C121.247 192.691 121.23 192.675 121.216 192.657C121.074 192.747 120.932 192.836 120.791 192.927C120.34 193.826 119.831 194.716 119.289 195.599C119.95 194.643 120.591 193.657 121.264 192.704M137.817 183.046C137.845 182.774 137.891 182.5 137.944 182.228C137.796 182.449 137.633 182.66 137.459 182.856C137.31 183.025 137.151 183.183 136.984 183.332C137.26 183.231 137.537 183.134 137.817 183.046M137.786 183.688C137.783 183.543 137.788 183.396 137.799 183.247C137.646 183.348 137.492 183.446 137.337 183.542C137.49 183.58 137.64 183.628 137.786 183.688M139.912 165.834C140.25 169.611 140.635 173.504 139.668 177.219C143.665 170.714 148.721 165.528 149.632 157.562C149.348 157.483 149.084 157.365 148.865 157.197C146.797 158.173 146.441 155.171 146.136 153.783C145.31 150.843 144.323 147.952 143.569 144.993C141.589 144.123 145.566 143.755 146.144 143.738C146.121 143.719 146.098 143.699 146.075 143.677C143.74 140.943 142.614 137.272 140.927 134.122C138.413 128.739 136.162 123.235 134.153 117.646C132.2 133.96 138.261 149.763 139.912 165.834M143.587 180.96C144.574 179.63 145.409 178.178 146.05 176.652C146.145 176.426 146.361 176.16 146.649 176.198C148.28 176.416 148.816 177.967 148.786 179.436C148.065 184.909 145.586 190.134 142.397 194.609C152.642 184.201 156.319 169.556 158.891 155.636C156.239 156.367 153.63 157.407 150.881 157.698C149.274 170.728 139.463 174.629 139.14 184.09C139.604 186.06 143.085 181.618 143.587 180.96M45.75 140.711C45.7739 140.717 45.7973 140.725 45.8196 140.739C45.84 140.751 45.8598 140.764 45.88 140.776C45.917 140.722 45.9557 140.669 45.9965 140.619C45.9144 140.649 45.8324 140.681 45.75 140.711M34.2155 144.195C34.5407 144.246 34.8559 144.24 35.1416 144.145C35.0764 144.082 35.0126 144.019 34.9468 143.957C34.8987 143.912 34.7795 143.787 34.6325 143.649C34.5576 143.873 34.4118 144.073 34.2155 144.195M0.00585965 146.214C0.0601174 145.722 0.417517 145.442 0.912183 145.526C2.15576 145.738 3.39473 145.892 4.63581 145.995C3.00696 145.009 -0.503366 143.039 2.53034 141.351C3.46591 141.004 4.57807 141.37 5.52123 141.523C9.43874 142.178 13.4146 142.452 17.3779 142.122C15.9334 140.918 14.4377 139.775 13.0277 138.529C12.2784 137.867 11.4275 136.985 12.2704 135.996C13.756 134.591 17.0352 135.626 18.7527 136.243C23.4911 138.939 28.0585 141.804 33.1439 143.877C33.1974 143.154 32.9516 142.277 33.6386 141.791C35.6536 140.827 38.1327 141.109 40.2771 140.852C42.7762 140.472 44.9973 139.913 47.4723 139.242C49.0911 137.988 49.3315 134.671 51.9201 135.084C49.6276 129.227 53.8684 123.494 55.1809 117.886C56.8191 112.146 57.6798 106.185 57.703 100.217C57.7183 90.6635 63.1709 83.3291 71.047 78.4273C71.1794 78.319 71.3103 78.2084 71.4416 78.0983C71.7822 77.7409 72.1153 77.3743 72.4407 76.9961C73.1266 76.1992 73.7902 75.3815 74.4864 74.593C74.8031 74.1008 75.1384 73.6221 75.5306 73.1848C75.8775 72.7574 76.2667 72.3715 76.7654 72.0689C76.8043 72.0454 76.8451 72.0248 76.8847 72.0021C77.7158 71.4361 78.6559 71.0411 79.6498 70.845C80.1201 69.0396 80.621 67.2426 81.0294 65.4221C81.2166 64.9645 81.4592 61.6457 81.9624 62.0146C82.5943 63.6089 82.0176 78.0364 78.9351 76.1517C78.6316 79.9042 78.5722 85.2959 82.7237 86.9546C89.9984 89.2131 99.3573 72.999 102.369 67.5155C101.537 67.8353 100.832 65.9079 100.479 63.925C100.331 63.4555 100.21 62.9768 100.111 62.4951C100.005 61.9802 99.8546 61.4389 99.9751 60.9205C100.015 60.7507 100.146 60.638 100.299 60.5904C100.354 60.2772 100.448 60.0687 100.586 60.0132C100.696 60.2579 100.785 60.5126 100.862 60.7727C100.869 60.7827 100.876 60.7916 100.881 60.8024C101.097 61.2151 101.12 61.688 101.209 62.1423C101.289 62.4608 101.376 62.776 101.487 63.0801C101.769 63.8538 102.168 64.5433 102.558 65.2451C103.307 64.4359 104.489 64.027 105.604 63.9008C106.681 63.7789 107.781 63.7715 108.863 63.7372C109.903 63.7043 111.021 63.6623 112.033 63.9243C112.083 63.9374 112.093 63.9863 112.073 64.0227C134.43 65.2255 157.144 98.5437 162.659 117.03C164.76 124.254 165.938 131.886 165.159 139.403C165.688 139.324 168.033 138.95 168 139.703C167.885 142.974 167.292 146.209 167.128 149.478C167.291 153.809 162.859 154.33 159.658 155.398C159.855 167.963 155.359 180.532 148.322 190.861C146.612 192.893 143.336 199.062 140.216 196.253C139.848 195.816 139.932 195.296 140.382 194.964C141.118 194.421 141.641 193.543 142.148 192.795C143.88 190.581 149.244 179.748 146.996 177.558C145.865 179.966 141.761 187.183 138.54 185.59C138.056 185.164 137.848 184.589 137.798 183.955C137.671 183.987 137.543 184.016 137.414 184.042C136.29 185.035 132.991 186.503 131.797 186.4C131.399 186.595 131.001 186.791 130.603 186.988C129.501 187.607 128.407 188.24 127.32 188.884C126.46 189.453 125.576 189.979 124.678 190.481C124.157 190.801 123.639 191.125 123.122 191.45C122.721 192.488 122.018 193.483 121.465 194.382C121.12 194.943 120.734 195.639 120.271 196.247C119.762 197.068 119.194 197.849 118.611 198.581C117.84 199.548 116.877 200.401 116.193 201.43C115.429 202.581 115.537 203.84 115.939 205.104C116.357 206.417 116.954 207.681 117.483 208.952C118.056 210.326 118.629 211.701 119.202 213.075C120.316 215.747 121.429 218.42 122.543 221.092C123.179 222.617 123.804 224.148 124.42 225.682C124.63 226.207 124.822 226.737 125.004 227.27C136.618 254.456 149.006 291.789 161.662 318.012C162.912 319.634 156.857 322.133 153.512 323.478C153.497 323.524 153.484 323.569 153.47 323.615C153.971 324.69 154.22 325.956 154.509 327.081C154.872 328.491 155.243 329.899 155.623 331.305C156.002 332.712 156.381 334.127 156.745 335.546C157.234 336.794 157.727 338.037 158.246 339.257C158.267 339.309 158.288 339.36 158.309 339.412C158.976 339.45 159.56 339.731 160.004 340.176C160.056 340.192 160.106 340.225 160.148 340.279C162.692 343.676 163.536 348.126 163.75 352.277C163.631 353.52 164.109 355.988 163.137 356.968C163.377 357.248 163.512 357.605 163.58 357.998C164.171 358.727 164.047 359.997 163.643 360.815C162.098 365.324 127.176 365.492 121.27 365.435C116.452 365.347 111.668 365.064 106.872 364.618C106.128 364.461 105.981 363.84 106.116 363.144C105.969 362.32 106.271 361.245 106.924 360.647C106.784 360.423 106.733 360.138 106.832 359.807C109.848 351.051 120.996 351.644 127.591 346.967C127.501 346.914 127.42 346.866 127.345 346.82C127.201 346.77 127.055 346.723 126.908 346.681C126.216 346.483 126.516 345.391 127.206 345.605C127.74 345.771 128.253 345.979 128.739 346.226C129.658 345.604 130.55 344.923 131.389 344.185C131.14 344.029 130.888 343.88 130.635 343.732C130.27 343.665 129.893 343.629 129.501 343.627C129.002 343.625 128.864 343.132 129.057 342.808C129.018 342.783 128.978 342.761 128.939 342.736C128.997 342.727 129.057 342.723 129.12 342.723C129.208 342.623 129.335 342.551 129.501 342.535C130.589 342.428 131.606 342.681 132.514 343.169C133.589 342.117 134.568 340.853 136.015 340.405C134.852 339.982 134.308 338.7 135.778 338.329C136.426 338.271 137.091 338.512 137.717 338.776C136.815 335.094 136.137 331.328 135.597 327.586C135.443 327.612 135.291 327.629 135.142 327.633C134.533 327.648 134.123 327.186 133.828 326.636C133.796 326.631 133.763 326.626 133.732 326.621C132.627 326.158 132.114 324.888 131.351 324.025C128.963 320.742 126.955 317.189 125.246 313.513C118.964 295.53 109.598 265.613 102.011 248.629C99.5813 243.191 97.4124 238.237 94.8884 232.836C76.6056 263.085 85.5105 300.206 74.2322 332.462C73.7427 333.409 72.8319 336.895 71.5732 336.08C71.5656 336.086 71.5586 336.092 71.5497 336.097C71.314 336.229 71.0777 336.391 70.821 336.478C70.7001 336.52 70.5922 336.478 70.5165 336.401C70.4027 336.857 70.4283 337.388 70.4064 337.835C70.3767 338.442 70.3607 339.049 70.3536 339.657C70.34 340.86 70.3701 342.063 70.4494 343.263C70.5619 344.284 70.6929 345.304 70.8526 346.321C71.4483 346.431 71.9973 346.734 72.3936 347.226C72.9751 347.948 73.1807 348.871 73.3196 349.766C73.3534 349.984 73.3814 350.199 73.3957 350.41C74.1394 353.252 74.8542 357.397 74.9471 358.032C74.9495 359.34 76.0602 362.253 75.0457 363.031C76.5075 363.638 76.7461 365.883 75.7184 367.037C72.6659 371.202 57.7872 370.058 52.2982 370.756C45.357 370.581 14.4521 373.22 12.4361 366.534C12.035 365.008 12.7223 363.081 14.1197 362.493C13.5607 361.168 14.8997 359.888 15.7191 358.958C20.5501 353.856 27.6249 352.117 34.0571 349.897C33.8174 349.647 32.3645 348.742 32.5546 348.507C33.6116 348.554 34.6367 348.89 35.5973 349.35C36.8619 348.887 38.1186 348.393 39.3439 347.829C35.8544 344.966 37.894 345.848 40.3098 347.365C40.5757 347.226 40.8426 347.087 41.1096 346.949C41.0832 346.832 41.1102 346.706 41.2171 346.606C41.5554 346.29 41.9959 346.164 42.4104 345.973C42.8558 345.767 43.2883 345.531 43.7043 345.272C44.4736 344.792 45.1206 344.031 45.9249 343.632C46.0478 343.571 46.1738 343.536 46.3002 343.52C46.8199 343.051 48.0773 343.496 48.6636 343.925C48.6732 343.921 48.6817 343.918 48.6903 343.914C50.1624 341.272 51.2599 338.453 52.2469 335.603C50.4253 335.03 46.3258 334.814 45.5123 332.982C42.8976 332.092 44.7958 328.141 45.3375 326.336C60.6637 287.4 46.0534 241.089 68.6743 204.34C64.5978 201.97 60.0399 196.304 63.7794 191.908C63.8842 191.703 63.9988 191.504 64.1149 191.312C64.6767 190.382 65.2817 189.484 65.8337 188.549C65.862 188.43 65.887 188.31 65.904 188.187C65.9368 187.961 66.0785 187.849 66.246 187.822C66.8004 186.807 67.2932 185.765 67.7603 184.706C70.6453 171.13 71.422 157.219 69.5002 143.42C67.2135 152.32 59.7839 159.027 51.7654 163.093C48.636 164.404 44.5037 167.11 41.068 166.256C37.9673 165.325 32.3355 158.862 31.672 155.758C22.6328 156.849 13.2474 155.973 4.60882 153.088C3.49989 152.662 1.33891 152.016 1.68188 150.418C2.02385 149.062 3.64412 149.349 4.69268 149.601C3.09021 148.699 -0.0258737 148.572 0.00585965 146.214" fill="#1A1A1A"></path> <path fill-rule="evenodd" clip-rule="evenodd" d="M101.611 12.1351C82.7485 11.2109 69.9506 26.0322 69.4 31.9426C69.0178 36.0452 69.2772 41.5168 69.2772 45.1829C69.2772 47.0542 68.3295 52.7423 69.4 55.4697C71.7827 61.5403 74.4746 66.2954 81.9335 66.2954C89.3923 66.2954 100.763 62.4435 104.667 57.4754C105.38 56.5683 114.239 49.9283 114.239 44.7091C114.239 33.5737 115.069 12.7946 101.611 12.1351Z" fill="#AE5D29"></path> <path fill-rule="evenodd" clip-rule="evenodd" d="M114.478 0.108249C113.403 -0.226537 112.717 0.255431 112.228 1.00213C112.12 0.981171 112.015 0.982535 111.899 1.01043C111.87 1.01738 111.801 1.04354 111.748 1.06412C111.708 1.08111 111.671 1.10169 111.636 1.12352L111.615 1.11248V1.11248C111.534 1.02482 111.449 0.944841 111.358 0.880364C111.152 0.735538 110.94 0.69338 110.739 0.723138L110.646 0.68904V0.68904C109.851 0.41278 108.988 0.54099 108.448 1.22395C108.344 1.35588 108.26 1.50282 108.188 1.65781C108.026 1.71063 107.874 1.78701 107.743 1.881C107.651 1.83797 107.554 1.80177 107.45 1.77511C106.863 1.62508 106.247 1.76668 105.768 2.12527C105.535 2.29973 105.364 2.51821 105.234 2.76769C105.086 2.80228 104.94 2.86453 104.803 2.9481C104.685 2.8897 104.565 2.83489 104.443 2.79732C103.995 2.66018 103.514 2.60972 103.048 2.64431C102.043 2.71858 101.071 3.86241 101.742 4.84464L101.763 4.87436C101.848 4.99277 101.923 5.11515 101.991 5.23952C101.751 5.3438 101.519 5.48329 101.305 5.65813C100.258 6.5131 100.164 7.83113 100.36 9.07449L100.368 9.12626H100.365C99.8091 9.17888 99.3288 9.75777 99.6574 10.3023L99.6734 10.3278C100.118 11.0126 100.5 11.7691 100.925 12.4897C102.101 12.9122 103.235 13.4325 104.303 14.0629C104.968 14.6434 105.601 15.2572 106.158 15.94C106.436 16.281 106.692 16.6419 106.927 17.0162C106.739 17.1061 106.507 17.1015 106.311 16.9204C104.566 15.3096 102.458 14.1792 100.214 13.4216C100.052 13.3669 99.9464 13.264 99.8869 13.1422C98.8906 12.8594 97.8767 12.64 96.8528 12.4848C96.5705 12.2168 96.2749 11.9606 95.9939 11.6938C95.6351 11.3533 95.1857 11.3583 94.85 11.5722C94.6832 11.4964 94.5127 11.4296 94.3395 11.3695L94.2321 11.333C94.1873 11.3184 94.1445 11.3014 94.1005 11.288C92.8989 10.922 91.8002 11.0579 90.6184 11.3586L90.467 11.3978C89.9161 11.5435 89.5694 11.5202 89.0359 11.3862L88.9758 11.3708C88.409 11.2235 87.8027 11.1144 87.2233 11.2695C86.617 11.4319 86.2149 11.7929 85.8019 12.2291L85.7606 12.273C85.5679 12.4784 85.4565 12.5008 85.2043 12.4958L84.9341 12.4878C83.9144 12.46 82.9158 12.5028 82.152 13.2886C81.8697 13.5793 81.5668 13.9905 81.3849 14.3659L81.3586 14.4219C81.3501 14.4402 81.3427 14.4554 81.3357 14.4691C81.2262 14.4515 81.0557 14.3824 80.9745 14.3666C79.8633 14.1519 78.936 14.4828 78.2223 15.3554C78.0663 15.5463 77.8305 15.9213 77.6671 16.1274C77.6098 16.1757 77.5558 16.2276 77.5047 16.282C77.2367 16.4525 76.8571 16.4417 76.5567 16.5015C75.7379 16.6639 74.8628 16.9741 74.4466 17.7505C74.2726 18.0745 74.2083 18.429 74.1348 18.7831C73.8596 18.9632 73.6439 19.2229 73.4764 19.504C73.2728 19.8452 73.1862 20.2632 72.9517 20.5855C72.7815 20.8196 72.5213 20.9446 72.2738 21.0876L72.1793 21.143C71.4457 21.5782 70.8714 22.0611 70.6299 22.9138L70.609 22.9897C70.5698 23.1203 70.4323 23.4931 70.5521 23.4371C70.4489 23.4938 70.2737 23.5137 70.1796 23.5447C69.6708 23.7125 69.2284 23.9835 68.9573 24.4596C68.7511 24.8219 68.7136 25.1995 68.6546 25.5989L68.6294 25.7602C68.623 25.7992 68.6153 25.8445 68.6074 25.8884L68.5994 25.9316L68.5979 25.9326C68.5057 25.9723 68.4152 26.0153 68.3263 26.0617C67.9045 26.3091 67.6162 26.7385 67.6162 27.2356C67.6162 27.4768 67.6919 27.6648 67.802 27.8326C67.7129 27.967 67.6439 28.1102 67.5918 28.2698C67.4895 28.5814 67.4824 28.9221 67.5168 29.2445C67.5581 29.6314 67.6578 29.9836 67.7751 30.3531C67.8203 30.4957 67.8386 30.695 67.9066 30.8311C67.7811 30.9907 67.7062 31.1858 67.7294 31.3782C67.7627 31.6535 67.8887 31.9752 68.139 32.1296C68.2613 32.731 68.5246 33.3455 68.7838 33.8371C68.8137 33.8942 68.8498 33.945 68.8896 33.9872C68.8535 35.95 68.9979 37.9266 69.0079 39.8868C69.0191 42.0208 68.9743 44.1561 68.8996 46.2875C68.7739 49.8201 68.3246 53.4729 69.3712 56.9176C70.2274 59.7372 71.9424 62.1575 74.242 63.9927C76.5965 65.8699 79.4349 66.9562 82.4491 67.1261C83.9822 67.2116 85.5415 67.038 87.0249 66.6424L87.1834 66.5996C88.6186 66.2068 90.2809 65.6066 91.3369 64.5556C91.8944 64.0001 91.3307 62.8235 90.5131 63.147C89.703 63.4683 88.9761 63.9431 88.1723 64.2778C87.4542 64.5767 86.705 64.8061 85.946 64.9747C84.424 65.3157 82.81 65.3902 81.2631 65.178C75.6781 64.4167 71.3262 59.7956 70.4676 54.3161C70.2299 52.7987 70.2344 51.2563 70.2504 49.723L70.2681 48.0429C70.2817 46.6375 70.2867 45.2311 70.2349 43.8263C70.1689 42.0184 70.0407 40.2117 69.869 38.4114L69.7795 37.4747C69.6733 36.3785 69.5537 35.2741 69.3476 34.193C69.5165 34.2018 70.8489 31.9307 71.5883 30.6616C71.8583 30.4484 72.0861 30.1834 72.1741 29.8406C72.1924 29.769 72.2018 29.6968 72.2076 29.6246C72.3681 29.3732 72.5375 29.1283 72.7162 28.8908L72.7552 28.8734C72.7852 28.8597 72.8085 28.8484 72.8222 28.8407C73.2122 28.6203 73.5379 28.2865 73.7608 27.8997C73.8359 27.7692 73.8975 27.6331 73.9475 27.4938C74.2655 27.183 74.5981 26.8864 74.9476 26.6083C74.9819 26.581 75.0174 26.5554 75.052 26.5285C75.4969 26.3631 75.8874 26.1139 76.1721 25.7549C76.2911 25.6815 76.4109 25.6096 76.5318 25.5392C76.8944 25.5358 77.2608 25.4516 77.6172 25.3057C78.2693 25.0389 78.7901 24.5115 79.4451 24.2671C80.1379 24.0088 80.8678 24.5958 81.6039 24.4899C81.7918 24.4629 81.9781 24.406 82.1513 24.3234C82.5658 24.7609 83.0057 25.1733 83.4907 25.5342C84.1947 26.0582 84.9145 26.2977 85.7304 26.5344C86.1348 26.9166 86.5875 27.2873 87.1334 27.3417C88.3969 28.348 89.7483 29.1969 91.1702 29.985C91.3989 30.1117 91.6262 30.1689 91.842 30.1704C92.288 30.4494 92.7749 30.664 93.2892 30.8125C93.4504 30.859 93.6165 30.8688 93.7799 30.8489L94.2261 31.2111V31.2111C94.5368 31.463 94.868 31.5834 95.185 31.5912C95.3779 31.7384 95.5777 31.8777 95.7834 32.0116C96.0038 32.1553 96.2897 32.2148 96.5769 32.1974C97.0156 32.625 97.5844 32.6699 98.0608 32.473C98.1262 32.5112 98.1936 32.5474 98.2692 32.5829C98.372 32.6314 98.4793 32.6723 98.5887 32.7055C99.0854 33.2389 99.8126 33.5186 100.541 33.4454C101.085 33.7775 101.719 33.9502 102.338 33.9114C102.432 34.3841 102.51 34.8585 102.576 35.3345L102.583 35.6832C102.584 35.7397 102.584 35.7838 102.583 35.8128L102.583 35.8243C102.522 37.353 102.489 38.8825 102.429 40.4115L102.424 40.5321C102.356 41.8679 102.026 44.3034 103.996 44.2503C104.731 44.2306 105.459 43.6918 106.031 43.2488L106.112 43.1862C106.156 43.1522 106.2 43.1174 106.246 43.0819C106.673 43.0266 107.094 42.9231 107.526 42.9074C108.059 42.8888 108.619 42.9433 109.137 43.0636C110.053 43.2756 110.939 43.6911 111.537 44.4437C111.589 44.5094 111.638 44.5788 111.684 44.6482C111.726 44.7908 111.798 44.9223 111.894 45.0363C112.459 46.3023 112.133 47.9751 111.508 49.1331C110.764 50.5125 109.586 51.4662 108.105 51.9465L108.031 51.9701C107.019 52.2851 106.632 52.8951 106.082 53.7432C105.567 54.5393 104.976 55.2808 104.341 55.9851C103.113 57.3478 101.389 58.4725 100.675 60.1972C100.531 60.5445 100.944 60.8717 101.264 60.7825C102.517 60.4316 103.396 59.5426 104.307 58.6585C104.937 58.0462 105.543 57.4094 106.112 56.7404C106.231 56.7954 106.363 56.8323 106.499 56.8489C107.103 56.9223 107.725 56.8918 108.254 56.5677C108.497 56.5898 108.751 56.5056 108.94 56.3336C109.112 56.1754 109.262 56.0043 109.387 55.8221C109.579 55.8389 109.767 55.844 109.946 55.8143C110.033 55.8063 110.116 55.7836 110.193 55.7464C110.336 55.6902 110.471 55.6037 110.595 55.4709C110.847 55.2018 110.943 54.8216 110.897 54.4603C110.947 54.4499 110.996 54.4371 111.045 54.4206C111.38 54.3077 111.638 54.0834 111.802 53.7781C112.097 53.6133 112.363 53.3899 112.564 53.1525C112.808 52.8638 112.993 52.5383 113.102 52.1788C113.214 52.1269 113.323 52.0667 113.427 51.9963C114.174 51.4925 114.602 50.5467 114.309 49.6721L114.299 49.6447C114.284 49.6053 114.257 49.5382 114.224 49.4625C114.228 49.4008 114.233 49.3392 114.237 49.2775L114.247 49.0912V49.0912L114.397 49.0279V49.0279C115.144 48.732 115.648 48.3326 115.738 47.4955C115.757 47.3224 115.689 47.1459 115.583 46.9983L115.583 46.9519V46.9519C115.632 46.9269 115.678 46.9012 115.719 46.8754C116.126 46.6164 116.376 46.1522 116.348 45.6721C116.322 45.2344 116.079 44.8856 115.805 44.5629L115.727 44.4724C115.721 44.4651 115.713 44.4569 115.706 44.4481L115.886 44.3914C116.004 44.3542 116.111 44.3172 116.189 44.274C116.488 44.107 116.741 43.8812 116.898 43.5943C116.921 43.5587 116.944 43.5237 116.965 43.4858C117.167 43.1186 117.193 42.6482 117.063 42.254C117.047 42.2075 117.027 42.1638 117.007 42.1202C117.557 41.9271 117.98 41.5278 118.031 40.792C118.052 40.5026 117.988 40.2143 117.85 39.9674C117.88 39.8012 117.887 39.6288 117.867 39.4583C118.06 39.2762 118.211 39.0567 118.278 38.789C118.405 38.2832 118.172 37.802 117.827 37.3607C117.955 37.0118 117.961 36.6181 117.815 36.2668C117.871 36.0915 117.903 35.9061 117.905 35.7158C117.909 35.2943 117.779 34.9423 117.568 34.6429C117.864 34.2825 118.004 33.8037 117.83 33.3549C117.705 33.036 117.563 32.7443 117.4 32.474C117.486 32.2684 117.536 32.0381 117.536 31.7803C117.536 31.3166 117.361 30.9492 117.094 30.6485C117.21 30.0993 116.974 29.4305 116.461 29.1887C116.267 29.0975 116.008 29.0022 115.723 28.9281C115.616 28.5945 115.504 28.2624 115.386 27.9325C115.2 27.4134 115 26.9014 114.788 26.3954C114.91 26.5019 115.038 26.6012 115.17 26.6912C115.589 27.2217 116.144 27.6812 116.611 27.9561C117.535 28.5012 118.593 28.1778 119.05 27.2658C119.479 27.585 119.994 27.7739 120.543 27.7093C121.166 27.6361 121.736 27.2341 121.891 26.607C121.914 26.5163 121.927 26.4182 121.929 26.3195C122.286 26.5729 122.66 26.8062 123.07 26.9397C123.592 27.1098 124.125 26.7018 124.194 26.1934C124.222 25.9919 124.184 25.8138 124.103 25.6634L124.154 25.6434C124.163 25.6399 124.171 25.6362 124.18 25.6323C124.453 25.5045 124.666 25.2701 124.767 24.9998C125.36 25.2284 126.039 24.9605 126.227 24.3106C126.451 23.5382 126.465 22.7557 126.29 22.0032C126.918 21.5482 127.327 20.7831 127.397 19.9834C127.448 19.4093 127.311 18.8793 127.068 18.3893C127.663 18.1678 127.867 17.3916 127.584 16.8324C127.96 16.6184 128.204 16.1647 128.21 15.723C128.377 15.4701 128.431 15.1443 128.292 14.7793C128.109 14.2983 127.735 13.896 127.308 13.5804C127.494 13.257 127.633 12.9044 127.719 12.54C128.073 12.4367 128.359 12.1512 128.417 11.7226C128.49 11.1852 128.135 10.7296 127.657 10.6094C127.604 10.4457 127.539 10.2856 127.459 10.1319C127.696 9.57388 127.661 8.86835 127.356 8.25829C127.086 7.71892 126.647 7.38909 126.118 7.16094C126.252 6.70216 126.074 6.24462 125.626 5.90363C125.079 5.48689 124.48 5.16835 123.849 4.9433C123.905 4.19648 123.592 3.43168 122.851 3.17129C122.653 3.10173 122.447 3.07606 122.238 3.07693C122.086 2.74747 121.832 2.47965 121.501 2.24257C121 1.88398 120.063 2.10305 119.785 2.66539L119.772 2.69428C119.758 2.72615 119.742 2.75529 119.728 2.78616C119.672 2.51313 119.541 2.25522 119.33 2.04381C118.804 1.51522 118.249 1.5053 117.715 1.73134C117.616 1.48905 117.498 1.25867 117.353 1.048C116.829 0.283701 115.964 0.186365 115.33 0.60026C115.076 0.377689 114.792 0.206081 114.478 0.108249ZM110.731 46.0692C109.676 45.6575 108.396 45.7792 107.353 46.1746L107.277 46.2042C106.355 46.567 104.859 47.3742 104.679 48.4065C104.585 48.941 105.095 49.4034 105.613 49.122C106.064 48.8777 106.316 48.3854 106.675 48.0283C107.029 47.675 107.426 47.3911 107.859 47.1417C108.763 46.6222 109.712 46.4201 110.731 46.2702C110.846 46.2541 110.815 46.1014 110.731 46.0692Z" fill="#1A1A1A"></path> <path fill-rule="evenodd" clip-rule="evenodd" d="M81.95 58.9815C82.7319 58.663 83.4295 58.1318 83.9396 57.4531C84.1169 57.2171 84.1629 56.968 84.1257 56.7401C84.0839 56.4839 83.932 56.2517 83.725 56.0959C83.5173 55.9396 83.2575 55.8626 83.0064 55.9019C82.7882 55.936 82.5709 56.0553 82.399 56.3028L82.3631 56.3523C82.0598 56.7619 81.6647 57.098 81.2145 57.3146C80.7805 57.5234 80.2952 57.6209 79.7929 57.5642C78.8364 57.4563 78.1771 56.9397 77.4764 56.2383C77.3895 56.1497 77.3026 56.0584 77.2152 55.9656C77.1601 55.8814 77.0835 55.8274 76.9986 55.799C76.9042 55.7675 76.7975 55.7693 76.6997 55.8034C76.6054 55.8362 76.5211 55.8985 76.4646 55.9814C76.4109 56.0601 76.3804 56.1574 76.3903 56.2693C76.4544 56.9963 76.835 57.6451 77.3757 58.1545C77.9762 58.7203 78.7721 59.1117 79.5215 59.249C80.347 59.4002 81.1883 59.2918 81.95 58.9815V58.9815ZM79.132 47.7669C78.2537 48.3 76.9154 49.5431 77.8603 50.8647C78.9725 52.03 80.5738 50.6939 81.3629 50.0897C82.0946 49.6213 82.9167 50.8258 82.2378 51.3726C76.5357 55.588 74.2217 47.9063 78.6878 47.1402C79.1795 47.0557 79.3621 47.602 79.132 47.7669ZM89.3502 42.8634C89.2532 41.6606 87.4186 41.3874 87.2361 42.5777C87.0727 43.6438 87.2651 44.6233 87.746 45.5832C88.2056 46.5002 89.3606 46.0724 89.448 45.2373C89.5651 44.118 89.4106 43.6116 89.3502 42.8634ZM75.3852 42.3309C75.1295 41.9964 74.7602 41.7681 74.3177 41.8971C72.9353 42.3005 73.3428 44.2601 73.8283 45.214C74.0921 45.732 74.9448 45.8633 75.3301 45.4072C75.9582 44.6635 76.259 43.1781 75.4605 42.4455C75.4389 42.4077 75.4148 42.3694 75.3852 42.3309ZM87.7655 37.6003L87.5471 37.5621C86.8716 37.4454 86.0317 37.3334 85.5538 37.8756C85.3004 38.1632 85.2131 38.6977 85.5538 38.973C86.153 39.4573 86.8156 39.2696 87.5337 39.3106C88.1255 39.3445 88.6943 39.4423 89.2643 39.605C90.5149 39.9619 91.5339 40.6135 92.602 41.3289C92.7422 41.4227 92.8852 41.2438 92.8184 41.1129C92.2018 39.907 91.0069 38.9164 89.81 38.3126C89.1713 37.9903 88.4722 37.7229 87.7655 37.6003ZM76.6454 37.0601L76.4782 37.0943C74.6594 37.4739 72.2964 38.2322 71.4351 40.0161C71.4023 40.2683 71.4369 40.3224 71.4651 40.3577L71.4745 40.3695C71.4978 40.3996 71.5163 40.4412 71.6258 40.4755C71.6562 40.4683 71.6869 40.4607 71.7179 40.4525C72.1127 40.3492 72.425 40.2069 72.7274 40.0592L73.0553 39.8979C73.4357 39.7117 73.8195 39.5322 74.2262 39.3997C75.0941 39.117 75.9869 38.9179 76.8935 38.8116C77.09 38.7885 77.2792 38.7223 77.4285 38.6088C77.5702 38.5011 77.6784 38.352 77.7278 38.1537C77.7917 37.8971 77.7733 37.7029 77.6355 37.4714C77.5318 37.2976 77.3835 37.1771 77.2132 37.108C77.0395 37.0374 76.8419 37.0208 76.6454 37.0601Z" fill="#1A1A1A"></path> </g> <defs> <clipPath id="clip0"> <rect width="168" height="370" fill="white" transform="matrix(-1 0 0 1 168 0)"></rect> </clipPath> </defs> </svg> 