<?xml version="1.0" encoding="UTF-8"?> <svg xmlns="http://www.w3.org/2000/svg" width="28" height="28" viewBox="0 0 28 28" fill="none"> <g filter="url(#filter0_d)"> <circle cx="15" cy="13" r="13" fill="#1A1A1A"></circle> <path d="M18.2661 11.6039L17.7671 11.6351C17.7701 11.6834 17.773 11.7317 17.7759 11.7801C16.9349 11.7342 16.221 11.6923 15.5891 11.6552C12.5073 11.4744 11.3773 11.4081 6.98511 11.539L6.5 11.5534V12.0388V14.0967V14.5967H7C10.1354 14.5967 11.4204 14.565 12.9098 14.5283C14.0284 14.5007 15.2624 14.4703 17.4822 14.4483C17.4657 14.5899 17.4772 14.7766 17.4941 14.9387C17.5143 15.1328 17.5499 15.3596 17.6002 15.5771C17.6489 15.7876 17.7182 16.0204 17.8166 16.2087C17.865 16.3012 17.9368 16.4155 18.0432 16.5083C18.1566 16.6073 18.3399 16.7049 18.5706 16.6718C19.4346 16.5486 20.2423 16.0561 20.9486 15.5748C21.1339 15.4486 21.312 15.3234 21.4846 15.2021C22.0074 14.8348 22.48 14.5028 22.9503 14.2815C23.2959 14.1191 23.4555 13.7785 23.4912 13.496C23.5271 13.2121 23.4561 12.8381 23.1501 12.595L23.1497 12.5946C22.895 12.3928 22.6323 12.1164 22.3425 11.7906C22.2622 11.7003 22.1792 11.6055 22.0942 11.5085C21.8833 11.2676 21.6599 11.0125 21.434 10.7767C20.812 10.1272 20.0164 9.44947 19.0063 9.43681V9.43677H19C18.6375 9.43677 18.3578 9.60388 18.1691 9.83536C17.9949 10.049 17.9022 10.3093 17.8492 10.532C17.7425 10.9797 17.7554 11.4546 17.7672 11.6361L18.2661 11.6039ZM18.2661 11.6039C18.245 11.2774 18.2277 9.93677 19 9.93677M18.2661 11.6039C18.2704 11.6717 18.2744 11.7395 18.2782 11.8073L19 9.93677M19 9.93677C20.0651 9.95011 20.9124 10.9178 21.7099 11.8286C22.0916 12.2645 22.4618 12.6874 22.8391 12.9865C23.0981 13.1922 23.0301 13.6916 22.7375 13.8291C22.2243 14.0705 21.7013 14.4382 21.1687 14.8126C20.3036 15.4208 19.4135 16.0466 18.5 16.1768L19 9.93677Z" fill="#1A1A1A" stroke="white"></path> </g> <defs> <filter id="filter0_d" x="0" y="0" width="28" height="28" filterUnits="userSpaceOnUse" color-interpolation-filters="sRGB"> <feFlood flood-opacity="0" result="BackgroundImageFix"></feFlood> <feColorMatrix in="SourceAlpha" type="matrix" values="0 0 0 0 0 0 0 0 0 0 0 0 0 0 0 0 0 0 127 0"></feColorMatrix> <feOffset dx="-2" dy="2"></feOffset> <feColorMatrix type="matrix" values="0 0 0 0 0.266667 0 0 0 0 0.909804 0 0 0 0 0.678431 0 0 0 1 0"></feColorMatrix> <feBlend mode="normal" in2="BackgroundImageFix" result="effect1_dropShadow"></feBlend> <feBlend mode="normal" in="SourceGraphic" in2="effect1_dropShadow" result="shape"></feBlend> </filter> </defs> </svg> 