<?xml version="1.0" encoding="UTF-8"?> <svg xmlns="http://www.w3.org/2000/svg" width="18" height="66" viewBox="0 0 18 66" fill="none"> <path d="M15.0095 53.0979C14.661 54.0357 14.2383 54.9285 13.7714 55.7923C15.6088 37.391 9.35325 16.9874 2.98157 0.881675C2.24986 -0.964795 -0.558494 0.377134 0.0988834 2.26323C3.17206 11.0967 5.59716 20.1943 7.35558 29.4821C9.18369 39.1398 9.34397 48.5227 9.56 58.212C9.53909 58.1698 9.51586 58.1301 9.49263 58.0879C8.64245 56.4158 8.30561 54.3474 7.09074 52.9764C6.29864 52.0809 4.61688 52.3847 4.4055 53.7821C3.80155 57.7709 7.05589 62.7899 9.52745 65.3496C10.2383 66.084 11.6204 66.3402 12.294 65.3496C14.6657 61.8627 17.2046 58.4683 17.9619 54.0251C18.3428 51.7692 15.7621 51.0639 15.0095 53.0979Z" fill="#1A1A1A"></path> </svg> 