<?xml version="1.0" encoding="UTF-8"?> <svg xmlns="http://www.w3.org/2000/svg" width="168" height="370" viewBox="0 0 168 370" fill="none"> <g clip-path="url(#clip0)"> <path fill-rule="evenodd" clip-rule="evenodd" d="M27.9958 172.094C28.0169 173.519 28.1602 176.791 28.519 178.17C24.5219 171.785 18.5327 164.805 17.6218 156.984C17.9057 156.907 19.1652 156.791 19.3851 156.626C21.4531 157.584 21.0618 154.637 21.3675 153.274C22.1928 150.388 23.9269 147.549 24.6803 144.645C26.6608 143.791 22.6836 143.429 22.1058 143.412C24.508 140.747 25.613 137.082 27.3234 133.972C29.8367 128.687 32.0876 123.284 34.0974 117.797C34.5367 121.235 34.6155 124.711 34.3478 128.168C33.5214 142.977 27.9398 157.216 27.9958 172.094ZM166.72 145.788C165.477 145.996 163.404 146.193 162.163 146.295C163.792 145.327 168.607 143.483 165.573 141.826C164.637 141.485 163.633 141.971 162.69 142.121C158.772 142.764 153.935 142.73 149.972 142.406C151.416 141.224 153.319 139.522 154.729 138.299C155.478 137.649 156.204 137.402 155.362 136.432C153.876 135.053 151.219 136.069 149.501 136.675C144.763 139.321 139.412 142.191 134.327 144.227C134.273 143.516 134.306 142.598 133.619 142.121C131.604 141.175 130.12 141.451 127.976 141.199C125.477 140.826 123.256 140.401 120.781 139.742C119.162 138.512 118.175 134.883 115.586 135.288C117.879 129.538 114.384 123.538 113.072 118.032C111.434 112.397 110.573 106.545 110.55 100.685C110.534 91.3045 105.082 84.1067 97.2053 79.2932C94.1001 77.203 92.0148 72.119 88.1704 71.1007C87.6814 69.2308 87.6517 68.4094 87.2224 66.5252C87.0069 65.984 86.8467 63.0472 86.3046 63.1472C85.7069 60.2381 82.6605 59.0714 80.0244 58.4622C76.597 57.7542 71.8139 56.8965 68.7328 58.8943C67.8404 59.6344 67.4484 60.8738 67.3829 61.981C67.0406 63.4553 66.3285 64.9825 65.4984 66.2617C64.0818 65.7846 64.8835 64.8956 63.4824 64.6886C50.6892 62.7986 36.4887 72.1535 28.1882 81.2795C13.1422 96.6797 1.12246 117.703 3.08999 139.652C2.56083 139.575 0.215475 139.208 0.249325 139.947C0.364191 143.159 0.957065 145.838 1.12071 149.047C0.95806 153.299 5.3898 153.812 8.59124 154.86C8.39412 167.196 12.8903 179.535 19.9276 189.675C21.6373 191.671 24.2027 198.595 27.3234 195.837C27.6911 195.408 24.8391 192.438 24.3317 191.704C22.5992 189.53 18.0098 178.766 21.2533 176.616C21.9743 178.94 28.9565 190.113 30.2011 183.771C31.8541 184.727 34.5857 185.38 36.5618 185.281C40.2768 187.287 43.8916 189.453 47.4592 191.704C49.1209 194.957 51.5584 198.082 53.6005 201.205C39.468 233.744 25.6736 287.299 7.48675 317.947C5.90102 319.948 14.6244 323.35 16.1652 324.084C13.2187 328.853 12.8497 334.379 10.608 339.515C10.1811 339.446 9.75035 339.536 9.36518 339.742C6.59993 341.608 5.55643 348.291 5.39875 351.586C5.52643 353.055 4.97985 355.278 6.17282 356.36C6.00606 356.54 5.88161 356.76 5.793 356.984C4.95347 357.636 5.05689 359.075 5.50565 359.968C7.08466 363.235 18.6261 362.931 22.3716 363.63C35.6385 364.75 46.7738 364.927 60.039 363.702C61.6672 363.363 60.4359 360.831 59.6319 360.144C60.0033 359.918 60.2407 359.507 60.0782 358.979C57.0626 350.382 46.1631 350.964 39.5678 346.373C41.302 345.374 40.1827 345.693 39.0932 346.081C37.9368 345.357 36.8119 344.542 35.7699 343.641C36.5702 343.149 36.1755 342.823 35.3097 343.236C33.9451 342.145 32.8823 340.459 31.144 339.93C29.4414 339.515 29.4414 338.789 29.4414 338.331C30.4547 334.27 31.5615 330.106 32.1304 325.987C32.7372 326.879 37.9729 319.731 39.0932 317.947C43.446 311.075 43.4342 304.303 46.4804 296.83C52.7355 280.557 65.5489 246.449 73.363 230.885C91.6463 260.582 82.7411 300.746 94.0199 332.414C94.5212 333.365 95.4638 336.933 96.7692 335.904C97.2766 336.022 97.8161 336.086 98.2993 336.154C98.1598 339.616 97.8996 343.068 97.3225 346.494C96.785 346.636 96.3283 346.917 96.0916 347.409C95.1864 346.746 93.4532 356.521 93.3048 357.517C93.3026 358.801 92.1918 361.661 93.2063 362.425C91.7446 363.021 91.5057 365.224 92.5337 366.358C95.5862 370.447 110.465 369.323 115.955 370.009C122.896 369.837 151.935 372.428 153.951 365.864C154.352 364.365 153.665 362.474 152.268 361.897C152.827 360.596 151.488 359.339 150.668 358.426C145.837 353.417 138.408 352.628 131.976 350.448C132.215 350.203 123.579 345.792 121.707 344.702C121.83 343.22 118.742 344.705 118.734 344.702C117.262 342.108 116.219 338.073 115.232 335.275C117.053 334.712 121.443 334.212 122.256 332.414C124.871 331.54 122.248 327.76 121.707 325.987C106.38 287.762 120.921 239.546 98.2993 203.468C102.446 201.101 107.203 195.92 103.107 191.575C102.287 190.53 100.282 187.277 100.315 187.845C99.5536 184.748 97.8525 179.414 97.3225 176.282C95.3766 164.785 96.652 154.017 98.2993 142.406C100.586 151.143 108.469 158.422 116.487 162.414C119.617 163.701 123.749 166.358 127.185 165.52C130.286 164.605 135.918 158.26 136.581 155.213C145.621 156.284 155.007 155.424 163.646 152.592C164.755 152.174 166.067 152.209 165.724 150.64C165.382 149.309 162.944 149.648 161.895 149.896C163.498 149.01 167.658 148.778 167.626 146.463C167.572 145.981 167.215 145.705 166.72 145.788Z" fill="#AE5D29"></path> <path fill-rule="evenodd" clip-rule="evenodd" d="M47.5287 192.652L49.1499 193.751L49.7244 194.139C53.4627 196.656 56.6716 198.674 59.8438 200.454L60.1663 200.634L60.4886 200.812C64.8885 203.241 69.0327 205.089 73.0465 206.339C82.4547 209.27 90.9152 208.835 98.5714 204.364L98.8032 204.227L99.1679 204.009L99.4812 204.728L99.7778 205.412C101.406 209.181 102.586 212.126 103.6 215.042L103.645 215.172L103.73 215.42C106.68 223.574 108.622 232.314 109.878 242.329L109.962 243.006C110.825 250.054 111.275 256.52 111.823 268.046L111.876 269.165L112.13 274.614C112.348 279.238 112.5 282.095 112.69 285.038L112.738 285.777L112.817 286.949L112.858 287.525C113.223 292.682 113.67 297.265 114.255 301.621L114.333 302.194C115.821 312.995 118.182 322.352 121.826 331.018L121.936 331.281L122.044 331.534L121.832 331.711C121.745 331.784 121.678 331.917 121.666 332.055L121.664 332.083L121.654 332.41L121.327 332.442C120.504 332.521 119.735 332.703 118.446 333.09L117.675 333.323L117.379 333.412C116.622 333.635 116.138 333.761 115.628 333.861L115.532 333.879L115.37 333.908L115.073 333.976L114.773 334.044C109.913 335.116 104.882 335.531 97.8484 335.627L97.3282 335.633L97.2715 335.61L97.267 335.609L97.2477 335.606C97.2087 335.601 97.1484 335.602 97.0502 335.61L96.9927 335.614L96.4761 335.662L96.3418 335.142C96.0219 333.912 95.6931 332.785 95.1416 331.004L95.0439 330.689L94.37 328.532C93.2844 325.038 92.7688 323.174 92.3469 321.027L92.306 320.816L92.2629 320.589L92.2607 320.576C91.1399 313.117 90.2201 306.059 89.346 298.454L89.231 297.446C88.952 294.977 88.4602 290.427 88.0438 286.55L87.3196 279.782L87.2632 279.267C85.7444 265.52 84.4276 257.819 81.941 249.771C80.0463 243.64 77.4996 237.68 73.9902 231.267L73.8597 231.029L73.8165 230.951L73.7022 231.043C72.585 231.949 71.9252 232.561 71.768 232.82L71.7605 232.833L71.5673 233.198L71.4038 233.503L70.4238 235.311C70.3212 235.502 70.2321 235.668 70.1491 235.825L69.9964 236.115L69.7779 236.538L69.6206 236.847L69.5124 237.062L69.3899 237.307L69.1352 237.686L69.0217 237.857L68.8062 238.182L68.6996 238.346C67.0376 240.925 65.7362 243.704 64.0232 248.097L63.8022 248.667L63.4515 249.583L62.4024 252.349L61.8981 253.672L61.6566 254.298C61.4202 254.908 61.1981 255.473 60.9787 256.021L60.8692 256.294L60.6903 256.736L60.4107 257.421L60.216 257.9C57.9745 263.428 55.6587 269.549 53.1781 276.445L52.703 277.77L52.3572 278.738C50.9723 282.624 49.5601 286.678 47.9262 291.441L47.5129 292.647L46.9099 294.41L42.8024 306.462L42.1189 308.46L41.5063 310.242L41.3288 310.624L41.1555 310.994C39.0793 315.407 37.1508 318.878 34.9399 322.004L34.8625 322.113L34.8188 322.193L34.7779 322.265C34.6251 322.524 34.4357 322.771 34.1272 323.13L34.0844 323.18L33.7352 323.581L33.6567 323.673C33.0714 324.366 32.8574 324.746 32.8296 325.212L32.8219 325.389L32.2111 325.987L31.9703 325.861L31.917 325.834C31.4341 325.6 30.6247 325.435 29.2854 325.268L29.1315 325.249L28.7744 325.207L27.6151 325.076C26.5857 324.957 26.0064 324.867 25.5768 324.742L25.5216 324.725L25.4648 324.707L25.2883 324.673C19.6202 323.545 14.1515 321.516 9.15014 318.682L8.97381 318.581L8.79788 318.48L8.49933 318.308L8.8179 317.643C9.66733 315.867 10.5269 314.026 11.3974 312.119C16.941 299.974 22.712 285.691 29.6158 267.378L29.8254 266.822L30.3554 265.412L30.7887 264.254C34.2933 254.866 43.3714 230.133 46.5856 221.483L47.1468 219.976L47.2999 219.568L49.6708 213.737L49.8131 213.392C49.8861 213.215 49.9622 213.033 50.0429 212.84L50.2549 212.335L51.0254 210.512L51.3444 209.751C51.9574 208.281 52.3482 207.293 52.7187 206.262L52.764 206.136L52.8992 205.752C53.04 205.348 53.0205 204.066 52.8004 202.732L52.7784 202.603L52.7549 202.472C52.4166 200.636 51.765 198.957 50.8091 197.715L50.775 197.671L50.763 197.661L50.4084 197.146C49.6452 196.032 49.0789 195.175 48.5556 194.329L48.5121 194.259L47.5287 192.652Z" fill="white"></path> <path fill-rule="evenodd" clip-rule="evenodd" d="M121.442 343.841C121.999 344.39 126.269 347.657 132.036 350.409C135.56 352.091 139.855 352.96 143.484 354.625C147.4 356.421 150.589 359.015 152.536 360.891L154.542 366.232C154.237 368.168 145.221 369.395 135.759 369.708C121.898 370.165 104.675 368.839 103.03 368.665C100.191 368.405 91.3455 368.695 92.9759 364.076C93.4391 364.222 93.5855 361.253 93.911 360.966L94.1918 358.703C94.9972 352.243 95.4696 348.767 95.609 348.275C95.645 348.219 95.6822 348.163 95.7233 348.111C96.2027 347.493 97.0137 347.32 97.7609 347.365C97.8215 347.369 97.8825 347.376 97.9438 347.386C98.0454 347.438 98.1434 347.501 98.2365 347.575L98.3148 347.586C98.3279 347.587 98.3411 347.589 98.3545 347.592C98.3814 347.596 98.4054 347.603 98.4279 347.612C98.4466 347.581 98.4629 347.548 98.4793 347.514C98.942 347.655 99.4129 347.845 99.8643 347.867L100.191 348.01L100.613 348.198L101.833 348.744L102.106 348.865C103.678 349.553 107.624 351.027 111.253 350.533C114.768 350.054 117.72 346.573 118.807 345.656C119.596 344.934 120.706 344.597 121.442 343.841ZM30.6901 339.675C31.0355 339.766 32.5616 340.69 33.8763 341.943C35.1184 343.126 36.1049 344.602 37.9556 345.946C40.6287 347.886 50.8945 351.59 56.4919 355.147C59.3941 356.992 61.2445 363.008 61.2927 363.286C43.6791 364.293 22.6719 364.096 5.2267 361.321C4.89498 361.225 5.03651 353.584 5.82483 348.456L5.84892 348.302C6.41757 344.7 7.06398 342.72 7.10337 342.635L7.14791 342.56C7.87206 341.383 9.85302 340.118 11.1359 340.979L11.1479 340.989L11.388 341.205C12.534 342.23 17.3227 346.339 20.6473 345.342C21.7359 344.989 22.6398 344.285 23.5868 343.671C26.1352 342.031 27.8149 340.662 30.6901 339.675ZM31.199 339.448C31.4329 339.598 31.6555 339.767 31.8706 339.949C31.5906 339.781 31.2939 339.643 30.9744 339.544C31.0441 339.518 31.1117 339.49 31.1766 339.459L31.199 339.448Z" fill="white"></path> <path fill-rule="evenodd" clip-rule="evenodd" d="M164.331 147.982C161.442 149.208 158.458 150.385 155.309 150.698C154.591 150.769 154.582 151.897 155.309 151.827C157.925 151.573 160.549 151.331 163.13 150.825C163.455 150.761 165.144 150.164 165.238 150.729C164.865 152.08 158.064 153.459 156.552 153.735C147.594 155.942 138.595 154.201 129.601 154.102C128.703 153.836 127.78 153.85 126.915 154.126C126.438 154.142 125.96 154.163 125.483 154.191C127.234 150.461 129.738 147.138 132.704 144.293C134.868 145.277 140.819 142.317 143.052 141.362C146.782 139.743 150.122 136.214 154.492 136.934C152.385 138.82 150.088 140.464 147.945 142.308C147.395 142.785 147.854 143.675 148.518 143.687C153.172 144.006 157.836 144.037 162.444 143.201C165.711 142.577 165.763 142.678 162.948 144.493C161.459 145.44 159.717 146.337 157.893 146.136C156.898 146.108 156.963 147.515 157.893 147.635C160.594 147.731 163.345 147.653 166.015 147.201C165.452 147.565 164.638 147.846 164.331 147.982M124.822 155.984C124.784 156.025 124.746 156.064 124.708 156.102C124.69 156.109 124.672 156.117 124.654 156.124C124.729 155.935 124.802 155.748 124.872 155.567C124.874 155.566 124.877 155.566 124.879 155.566C124.831 155.702 124.814 155.843 124.822 155.984M103.353 215.557C116.849 252.86 106.011 294.759 121.567 331.437C121.398 331.578 121.273 331.822 121.265 332.083C119.248 332.277 117.284 333.203 115.269 333.556C109.407 334.919 103.374 335.202 97.3737 335.272C97.3721 335.271 97.3706 335.27 97.3688 335.27C97.2053 335.218 96.9669 335.254 96.7328 335.275C95.4642 330.339 93.5472 325.564 92.6039 320.532C82.8926 255.899 92.7732 249.288 47.6713 193.225C62.2366 203.188 81.6225 214.896 98.9688 204.558C100.547 208.175 102.072 211.825 103.353 215.557M116.742 343.61C116.96 344.192 117.146 344.795 117.47 345.286C110.773 353.004 107.429 349.142 99.3808 346.826C99.5853 343.306 99.1949 339.819 98.5714 336.353C103.954 337.182 109.464 336.796 114.797 335.792C115.052 338.476 115.817 341.086 116.742 343.61M121.707 344.702C123.06 346.038 124.523 347.291 126.161 348.285C125.112 349.147 122.764 349.772 122.615 351.25C122.639 352.585 124.789 352.694 124.273 351.439C125.18 350.51 126.326 349.848 127.295 348.978C128.281 349.557 129.292 350.079 130.323 350.559C129.362 351.323 127.936 351.923 127.725 353.24C127.65 353.882 128.357 354.181 128.865 354.105C130.175 353.64 130.899 352.08 132.074 351.331C139.192 354.19 147.357 355.953 152.133 362.474C151.961 362.562 151.837 362.689 151.758 362.839C149.895 362.548 147.986 363.268 146.121 363.443C140.352 364.306 134.531 364.825 128.702 365.035C118.91 365.335 109.089 364.782 99.3711 363.59C97.9628 363.356 96.5559 362.986 95.1999 362.501C95.4708 359.11 95.8589 355.66 96.0021 352.224C96.1626 352.095 96.2575 351.872 96.2211 351.645C96.109 350.95 96.1387 349.957 96.3711 349.136C96.407 349.08 96.4442 349.024 96.4853 348.972C96.9648 348.354 97.7758 348.181 98.523 348.226C98.5836 348.23 98.6445 348.238 98.7059 348.247C98.8074 348.3 98.9055 348.362 98.9986 348.436C99.038 348.442 99.0762 348.446 99.1166 348.453C99.1434 348.457 99.1675 348.465 99.19 348.473C99.2087 348.442 99.225 348.409 99.2414 348.375C99.7041 348.516 100.175 348.706 100.626 348.728C104.252 350.307 107.905 352.302 111.958 351.547C115.043 351.049 116.839 348.4 119.071 346.517C119.861 345.795 120.971 345.459 121.707 344.702M152.385 364.323C161.711 371.095 106.57 368.235 103.543 367.914C100.704 367.654 91.8588 367.944 93.4891 363.325C93.9797 363.48 94.5336 363.339 94.8532 363.015C104.853 368.939 141.445 368.481 152.385 364.323M71.3974 232.684C70.7642 233.887 70.0932 235.07 69.471 236.28C69.3254 236.563 69.1821 236.847 69.0403 237.131C68.8476 237.418 68.6562 237.704 68.4671 237.99C64.9965 243.31 63.1063 249.791 60.2306 256.823C53.0696 274.332 46.2703 295.25 41.1334 310.115C39.235 314.212 37.1423 318.243 34.517 321.93C33.9355 323.05 32.4829 323.961 32.429 325.238C32.4133 325.254 32.3975 325.269 32.3818 325.285C32.2937 325.371 32.2059 325.457 32.1175 325.543C30.7497 324.829 26.8854 324.809 25.534 324.359C19.7145 323.224 14.0892 321.13 8.95889 318.17C22.5754 289.795 36.3765 249.661 47.6197 219.72C48.3788 217.861 49.1298 215.999 49.8877 214.14C51.0044 211.401 52.2519 208.679 53.2258 205.886C53.5297 205.014 53.754 204.08 53.724 203.153C59.9942 212.322 66.5637 221.345 72.0767 230.999C71.935 231.592 71.6673 232.171 71.3974 232.684M30.8556 328.834C29.8208 332.001 28.7151 335.183 27.921 338.421C27.8865 338.569 27.8789 338.708 27.8919 338.838C27.8837 338.86 27.8756 338.881 27.8673 338.903C27.73 339.262 27.548 339.571 27.5951 339.914C19.7549 343.338 21.1651 347.426 12.9996 341.311C12.7283 341.156 12.4406 341.002 12.1425 340.87C12.1556 340.835 12.1674 340.798 12.1763 340.759C12.366 339.909 12.4895 339.05 12.5469 338.183C12.8443 336.905 13.1289 335.623 13.452 334.352C13.8784 333.127 14.3107 331.905 14.7232 330.679C14.7656 330.578 14.8078 330.476 14.8507 330.374C15.4759 328.901 16.0805 327.318 16.2111 325.721C16.2888 325.412 16.3616 325.102 16.432 324.792C16.6296 324.731 16.7668 324.593 16.8428 324.425C21.5209 326.042 26.438 327.361 31.409 327.425C31.213 327.89 31.0213 328.357 30.8556 328.834M31.7011 340.536C33.1753 340.923 33.9524 342.371 34.8834 343.536C33.8113 344.274 32.9276 345.34 32.3139 346.494C31.9067 346.87 31.5264 347.27 31.1885 347.704C30.7669 348.334 31.7281 349.073 32.2421 348.514C33.3115 347.112 34.4038 345.668 35.8905 344.664C36.6074 345.446 37.3728 346.182 38.1676 346.888C37.4487 347.401 36.8244 348.024 36.3293 348.755C35.388 349.456 34.6257 350.257 35.0162 350.89C35.3954 351.5 36.1225 351.168 36.4765 350.727C37.2558 349.643 38.1232 348.565 39.2231 347.795C41.7596 349.942 44.6422 351.613 47.7732 352.735C51.9172 354.269 57.3425 355.501 58.9353 360.163C51.9344 360.247 44.9213 360.332 37.9216 359.963C27.6941 359.629 17.5743 358.044 7.39523 357.209C7.46094 357.124 7.48247 357.012 7.40643 356.912C7.1965 356.638 6.88476 356.515 6.66611 356.252C6.94425 355.121 6.42158 353.426 6.61746 352.389C6.58448 349.338 7.67623 343.11 7.74206 342.997C8.45426 341.78 9.84231 340.961 11.1513 341.839C11.2419 341.9 16.8933 347.333 20.6628 346.202C21.7514 345.85 22.6552 345.145 23.6023 344.531C26.1506 342.891 28.8259 341.522 31.7011 340.536M60.3126 363.154C42.699 364.161 24.919 363.936 7.47375 361.161C6.90093 360.995 6.38536 360.72 5.98216 360.357C5.94383 359.918 5.9162 359.478 5.90314 359.037C5.89654 358.812 5.76948 358.049 6.01451 357.908C6.15252 357.828 6.24573 357.726 6.30285 357.613C12.542 359.742 19.374 360.096 25.8946 360.95C37.0483 361.87 48.4512 362.857 59.5862 361.914C59.8892 362.303 60.2316 362.687 60.3126 363.154M6.36862 356.882C6.43856 356.98 6.51846 357.071 6.60918 357.146C6.52219 357.14 6.43508 357.132 6.34797 357.126C6.33403 357.072 6.31511 357.02 6.29047 356.97C6.3181 356.941 6.34398 356.912 6.36862 356.882M14.3489 327.442C14.4562 326.977 14.58 326.492 14.6922 325.998C14.6132 326.618 14.4553 327.235 14.2551 327.843C14.286 327.709 14.3179 327.576 14.3489 327.442M46.7356 192.704C46.7535 192.691 46.7699 192.675 46.7844 192.657C46.9257 192.747 47.0676 192.836 47.2087 192.927C47.6598 193.826 48.1693 194.716 48.7113 195.599C48.0502 194.643 47.4088 193.657 46.7356 192.704M30.183 183.046C30.155 182.774 30.1094 182.5 30.0555 182.228C30.2042 182.449 30.367 182.66 30.5406 182.856C30.6896 183.025 30.8485 183.183 31.0155 183.332C30.74 183.231 30.463 183.134 30.183 183.046M30.2145 183.688C30.2167 183.543 30.2116 183.396 30.201 183.247C30.3538 183.348 30.5076 183.446 30.6632 183.542C30.51 183.58 30.3602 183.628 30.2145 183.688M28.0878 165.834C27.7503 169.611 27.365 173.504 28.332 177.219C24.335 170.714 19.2787 165.528 18.3677 157.562C18.6516 157.483 18.9155 157.365 19.1354 157.197C21.2034 158.173 21.5588 155.171 21.8644 153.783C22.6898 150.843 23.677 147.952 24.4305 144.993C26.4108 144.123 22.4338 143.755 21.856 143.738C21.8794 143.719 21.9023 143.699 21.9251 143.677C24.2602 140.943 25.386 137.272 27.0735 134.122C29.5866 128.739 31.8376 123.235 33.8472 117.646C35.8 133.96 29.7393 149.763 28.0878 165.834M24.4133 180.96C23.4256 179.63 22.5914 178.178 21.9499 176.652C21.855 176.426 21.6388 176.16 21.3512 176.198C19.7205 176.416 19.1838 177.967 19.2136 179.436C19.935 184.909 22.4145 190.134 25.6029 194.609C15.3581 184.201 11.6814 169.556 9.10861 155.636C11.7609 156.367 14.3697 157.407 17.119 157.698C18.7258 170.728 28.5374 174.629 28.8604 184.09C28.3959 186.06 24.9149 181.618 24.4133 180.96M122.25 140.711C122.226 140.717 122.203 140.725 122.18 140.739C122.16 140.751 122.14 140.764 122.12 140.776C122.083 140.722 122.044 140.669 122.003 140.619C122.086 140.649 122.168 140.681 122.25 140.711M133.784 144.195C133.459 144.246 133.144 144.24 132.858 144.145C132.924 144.082 132.987 144.019 133.053 143.957C133.101 143.912 133.221 143.787 133.367 143.649C133.442 143.873 133.588 144.073 133.784 144.195M167.994 146.214C167.94 145.722 167.582 145.442 167.088 145.526C165.844 145.738 164.605 145.892 163.364 145.995C164.993 145.009 168.503 143.039 165.47 141.351C164.534 141.004 163.422 141.37 162.479 141.523C158.561 142.178 154.585 142.452 150.622 142.122C152.067 140.918 153.562 139.775 154.972 138.529C155.722 137.867 156.573 136.985 155.73 135.996C154.244 134.591 150.965 135.626 149.247 136.243C144.509 138.939 139.942 141.804 134.856 143.877C134.803 143.154 135.048 142.277 134.361 141.791C132.346 140.827 129.867 141.109 127.723 140.852C125.224 140.472 123.003 139.913 120.528 139.242C118.909 137.988 118.668 134.671 116.08 135.084C118.372 129.227 114.132 123.494 112.819 117.886C111.181 112.146 110.32 106.185 110.297 100.217C110.282 90.6635 104.829 83.3291 96.953 78.4273C96.8206 78.319 96.6897 78.2084 96.5584 78.0983C96.2178 77.7409 95.8847 77.3743 95.5593 76.9961C94.8734 76.1992 94.2098 75.3815 93.5136 74.593C93.1969 74.1008 92.8616 73.6221 92.4694 73.1848C92.1225 72.7574 91.7333 72.3715 91.2346 72.0689C91.1957 72.0454 91.1549 72.0248 91.1153 72.0021C90.2842 71.4361 89.3441 71.0411 88.3502 70.845C87.8799 69.0396 87.379 67.2426 86.9706 65.4221C86.7834 64.9645 86.5408 61.6457 86.0376 62.0146C85.4057 63.6089 85.9824 78.0364 89.0649 76.1517C89.3684 79.9042 89.4278 85.2959 85.2763 86.9546C78.0016 89.2131 68.6427 72.999 65.6314 67.5155C66.4627 67.8353 67.168 65.9079 67.5212 63.925C67.669 63.4555 67.79 62.9768 67.8889 62.4951C67.9946 61.9802 68.1454 61.4389 68.0249 60.9205C67.9855 60.7507 67.8543 60.638 67.7013 60.5904C67.6456 60.2772 67.5518 60.0687 67.4143 60.0132C67.3039 60.2579 67.2152 60.5126 67.1376 60.7727C67.1314 60.7827 67.1243 60.7916 67.1186 60.8024C66.9029 61.2151 66.8804 61.688 66.7907 62.1423C66.7113 62.4608 66.6243 62.776 66.5132 63.0801C66.2312 63.8538 65.8317 64.5433 65.4425 65.2451C64.6929 64.4359 63.5115 64.027 62.3957 63.9008C61.3191 63.7789 60.219 63.7715 59.1367 63.7372C58.0969 63.7043 56.9786 63.6623 55.9668 63.9243C55.9166 63.9374 55.9074 63.9863 55.9269 64.0227C33.5704 65.2255 10.8564 98.5437 5.34052 117.03C3.23952 124.254 2.06153 131.886 2.84118 139.403C2.31192 139.324 -0.0333644 138.95 0.000360063 139.703C0.115222 142.974 0.708076 146.209 0.87172 149.478C0.709071 153.809 5.14079 154.33 8.342 155.398C8.14488 167.963 12.6412 180.532 19.678 190.861C21.3876 192.893 24.6635 199.062 27.7842 196.253C28.1518 195.816 28.0682 195.296 27.6176 194.964C26.8817 194.421 26.3594 193.543 25.8522 192.795C24.1196 190.581 18.7558 179.748 21.0037 177.558C22.1349 179.966 26.2393 187.183 29.4596 185.59C29.9438 185.164 30.1516 184.589 30.2024 183.955C30.3295 183.987 30.4573 184.016 30.5857 184.042C31.7096 185.035 35.0086 186.503 36.2027 186.4C36.6013 186.595 36.9994 186.791 37.3973 186.988C38.4995 187.607 39.5931 188.24 40.6798 188.884C41.5402 189.453 42.4241 189.979 43.3225 190.481C43.8426 190.801 44.3609 191.125 44.8783 191.45C45.2793 192.488 45.9821 193.483 46.5347 194.382C46.8796 194.943 47.2661 195.639 47.7285 196.247C48.2378 197.068 48.806 197.849 49.3889 198.581C50.1597 199.548 51.1231 200.401 51.8068 201.43C52.5709 202.581 52.4629 203.84 52.0607 205.104C51.6433 206.417 51.0462 207.681 50.5166 208.952C49.9438 210.326 49.371 211.701 48.7981 213.075C47.6844 215.747 46.5706 218.42 45.4568 221.092C44.8209 222.617 44.1958 224.148 43.5803 225.682C43.3696 226.207 43.1777 226.737 42.9963 227.27C31.3821 254.456 18.9938 291.789 6.33794 318.012C5.08777 319.634 11.143 322.133 14.4881 323.478C14.503 323.524 14.5161 323.569 14.5296 323.615C14.0291 324.69 13.7803 325.956 13.4911 327.081C13.128 328.491 12.7568 329.899 12.3774 331.305C11.9977 332.712 11.6186 334.127 11.2552 335.546C10.7656 336.794 10.2726 338.037 9.75369 339.257C9.73341 339.309 9.71225 339.36 9.69147 339.412C9.02395 339.45 8.44018 339.731 7.99592 340.176C7.94402 340.192 7.89375 340.225 7.85218 340.279C5.30804 343.676 4.46356 348.126 4.25014 352.277C4.36911 353.52 3.89087 355.988 4.86315 356.968C4.6231 357.248 4.48808 357.605 4.41951 357.998C3.82864 358.727 3.95309 359.997 4.35691 360.815C5.90201 365.324 40.8237 365.492 46.7305 365.435C51.5476 365.347 56.3321 365.064 61.1283 364.618C61.8719 364.461 62.0189 363.84 61.8837 363.144C62.0309 362.32 61.7294 361.245 61.0758 360.647C61.2161 360.423 61.2675 360.138 61.1677 359.807C58.152 351.051 47.0041 351.644 40.409 346.967C40.4992 346.914 40.5797 346.866 40.6549 346.82C40.7995 346.77 40.9451 346.723 41.092 346.681C41.7844 346.483 41.4835 345.391 40.7942 345.605C40.2603 345.771 39.7469 345.979 39.2615 346.226C38.3423 345.604 37.4497 344.923 36.6113 344.185C36.8598 344.029 37.1118 343.88 37.3651 343.732C37.7298 343.665 38.107 343.629 38.4987 343.627C38.9978 343.625 39.1357 343.132 38.9425 342.808C38.982 342.783 39.0215 342.761 39.0609 342.736C39.0034 342.727 38.9428 342.723 38.8804 342.723C38.7922 342.623 38.6653 342.551 38.4987 342.535C37.4112 342.428 36.3935 342.681 35.4856 343.169C34.4112 342.117 33.4322 340.853 31.9854 340.405C33.1478 339.982 33.6922 338.7 32.2218 338.329C31.574 338.271 30.9092 338.512 30.2829 338.776C31.1849 335.094 31.8634 331.328 32.403 327.586C32.5568 327.612 32.7091 327.629 32.8584 327.633C33.4672 327.648 33.8766 327.186 34.1716 326.636C34.2044 326.631 34.237 326.626 34.2683 326.621C35.3733 326.158 35.8855 324.888 36.6489 324.025C39.0367 320.742 41.0455 317.189 42.7545 313.513C49.0358 295.53 58.4021 265.613 65.9893 248.629C68.4187 243.191 70.5876 238.237 73.1116 232.836C91.3944 263.085 82.4895 300.206 93.7678 332.462C94.2573 333.409 95.1681 336.895 96.4268 336.08C96.4344 336.086 96.4414 336.092 96.4503 336.097C96.686 336.229 96.9223 336.391 97.179 336.478C97.2999 336.52 97.4078 336.478 97.4835 336.401C97.5973 336.857 97.5717 337.388 97.5936 337.835C97.6233 338.442 97.6393 339.049 97.6464 339.657C97.66 340.86 97.6299 342.063 97.5506 343.263C97.4381 344.284 97.3071 345.304 97.1474 346.321C96.5517 346.431 96.0027 346.734 95.6064 347.226C95.0249 347.948 94.8193 348.871 94.6804 349.766C94.6466 349.984 94.6186 350.199 94.6043 350.41C93.8606 353.252 93.1458 357.397 93.0529 358.032C93.0505 359.34 91.9398 362.253 92.9543 363.031C91.4925 363.638 91.2539 365.883 92.2816 367.037C95.3341 371.202 110.213 370.058 115.702 370.756C122.643 370.581 153.548 373.22 155.564 366.534C155.965 365.008 155.278 363.081 153.88 362.493C154.439 361.168 153.1 359.888 152.281 358.958C147.45 353.856 140.375 352.117 133.943 349.897C134.183 349.647 135.635 348.742 135.445 348.507C134.388 348.554 133.363 348.89 132.403 349.35C131.138 348.887 129.881 348.393 128.656 347.829C132.146 344.966 130.106 345.848 127.69 347.365C127.424 347.226 127.157 347.087 126.89 346.949C126.917 346.832 126.89 346.706 126.783 346.606C126.445 346.29 126.004 346.164 125.59 345.973C125.144 345.767 124.712 345.531 124.296 345.272C123.526 344.792 122.879 344.031 122.075 343.632C121.952 343.571 121.826 343.536 121.7 343.52C121.18 343.051 119.923 343.496 119.336 343.925C119.327 343.921 119.318 343.918 119.31 343.914C117.838 341.272 116.74 338.453 115.753 335.603C117.575 335.03 121.674 334.814 122.488 332.982C125.102 332.092 123.204 328.141 122.663 326.336C107.336 287.4 121.947 241.089 99.3257 204.34C103.402 201.97 107.96 196.304 104.221 191.908C104.116 191.703 104.001 191.504 103.885 191.312C103.323 190.382 102.718 189.484 102.166 188.549C102.138 188.43 102.113 188.31 102.096 188.187C102.063 187.961 101.921 187.849 101.754 187.822C101.2 186.807 100.707 185.765 100.24 184.706C97.3547 171.13 96.578 157.219 98.4998 143.42C100.787 152.32 108.216 159.027 116.235 163.093C119.364 164.404 123.496 167.11 126.932 166.256C130.033 165.325 135.664 158.862 136.328 155.758C145.367 156.849 154.753 155.973 163.391 153.088C164.5 152.662 166.661 152.016 166.318 150.418C165.976 149.062 164.356 149.349 163.307 149.601C164.91 148.699 168.026 148.572 167.994 146.214" fill="#1A1A1A"></path> <path fill-rule="evenodd" clip-rule="evenodd" d="M66.3894 12.1351C85.2515 11.2109 98.0494 26.0322 98.6 31.9426C98.9822 36.0452 98.7228 41.5168 98.7228 45.1829C98.7228 47.0542 99.6705 52.7423 98.6 55.4697C96.2173 61.5403 93.5254 66.2954 86.0665 66.2954C78.6077 66.2954 67.237 62.4435 63.3325 57.4754C62.6196 56.5683 53.7611 49.9283 53.7611 44.7091C53.7611 33.5737 52.9306 12.7946 66.3894 12.1351Z" fill="#AE5D29"></path> <path fill-rule="evenodd" clip-rule="evenodd" d="M53.5218 0.108249C54.5967 -0.226537 55.2828 0.255431 55.7722 1.00213C55.8801 0.981171 55.9845 0.982535 56.1008 1.01043C56.1295 1.01738 56.1991 1.04354 56.2517 1.06412C56.2924 1.08111 56.3291 1.10169 56.3645 1.12352L56.3855 1.11248V1.11248C56.4661 1.02482 56.5509 0.944841 56.6423 0.880364C56.8479 0.735538 57.0597 0.69338 57.2607 0.723138L57.3538 0.68904V0.68904C58.1495 0.41278 59.0121 0.54099 59.5516 1.22395C59.656 1.35588 59.7404 1.50282 59.8124 1.65781C59.9742 1.71063 60.126 1.78701 60.2568 1.881C60.3487 1.83797 60.4457 1.80177 60.5497 1.77511C61.1367 1.62508 61.7534 1.76668 62.2318 2.12527C62.4647 2.29973 62.6361 2.51821 62.766 2.76769C62.914 2.80228 63.0602 2.86453 63.1972 2.9481C63.3149 2.8897 63.4345 2.83489 63.5571 2.79732C64.0052 2.66018 64.486 2.60972 64.9524 2.64431C65.9574 2.71858 66.9294 3.86241 66.2577 4.84464L66.2369 4.87436C66.1516 4.99277 66.0775 5.11515 66.0088 5.23952C66.2493 5.3438 66.481 5.48329 66.6951 5.65813C67.7421 6.5131 67.8363 7.83113 67.6405 9.07449L67.6322 9.12626H67.6346C68.1909 9.17888 68.6712 9.75777 68.3426 10.3023L68.3266 10.3278C67.8817 11.0126 67.5004 11.7691 67.0754 12.4897C65.8993 12.9122 64.7652 13.4325 63.6973 14.0629C63.0322 14.6434 62.3989 15.2572 61.8418 15.94C61.5636 16.281 61.3081 16.6419 61.0733 17.0162C61.2611 17.1061 61.4933 17.1015 61.6894 16.9204C63.434 15.3096 65.5417 14.1792 67.786 13.4216C67.9476 13.3669 68.0536 13.264 68.1131 13.1422C69.1094 12.8594 70.1233 12.64 71.1472 12.4848C71.4295 12.2168 71.7251 11.9606 72.0061 11.6938C72.3649 11.3533 72.8143 11.3583 73.15 11.5722C73.3168 11.4964 73.4873 11.4296 73.6605 11.3695L73.7679 11.333C73.8127 11.3184 73.8555 11.3014 73.8995 11.288C75.1011 10.922 76.1998 11.0579 77.3816 11.3586L77.533 11.3978C78.0839 11.5435 78.4306 11.5202 78.9641 11.3862L79.0242 11.3708C79.591 11.2235 80.1973 11.1144 80.7767 11.2695C81.383 11.4319 81.7851 11.7929 82.1981 12.2291L82.2394 12.273C82.4321 12.4784 82.5435 12.5008 82.7957 12.4958L83.0659 12.4878C84.0856 12.46 85.0842 12.5028 85.848 13.2886C86.1303 13.5793 86.4332 13.9905 86.6151 14.3659L86.6414 14.4219C86.6499 14.4402 86.6573 14.4554 86.6643 14.4691C86.7738 14.4515 86.9443 14.3824 87.0255 14.3666C88.1367 14.1519 89.064 14.4828 89.7777 15.3554C89.9337 15.5463 90.1695 15.9213 90.3329 16.1274C90.3902 16.1757 90.4442 16.2276 90.4953 16.282C90.7633 16.4525 91.1429 16.4417 91.4433 16.5015C92.2621 16.6639 93.1372 16.9741 93.5534 17.7505C93.7274 18.0745 93.7917 18.429 93.8652 18.7831C94.1404 18.9632 94.3561 19.2229 94.5236 19.504C94.7272 19.8452 94.8138 20.2632 95.0483 20.5855C95.2185 20.8196 95.4787 20.9446 95.7262 21.0876L95.8207 21.143C96.5543 21.5782 97.1286 22.0611 97.3701 22.9138L97.391 22.9897C97.4302 23.1203 97.5677 23.4931 97.4479 23.4371C97.5511 23.4938 97.7263 23.5137 97.8204 23.5447C98.3292 23.7125 98.7716 23.9835 99.0427 24.4596C99.2489 24.8219 99.2864 25.1995 99.3454 25.5989L99.3706 25.7602C99.377 25.7992 99.3847 25.8445 99.3926 25.8884L99.4006 25.9316L99.4021 25.9326C99.4943 25.9723 99.5848 26.0153 99.6737 26.0617C100.095 26.3091 100.384 26.7385 100.384 27.2356C100.384 27.4768 100.308 27.6648 100.198 27.8326C100.287 27.967 100.356 28.1102 100.408 28.2698C100.51 28.5814 100.518 28.9221 100.483 29.2445C100.442 29.6314 100.342 29.9836 100.225 30.3531C100.18 30.4957 100.161 30.695 100.093 30.8311C100.219 30.9907 100.294 31.1858 100.271 31.3782C100.237 31.6535 100.111 31.9752 99.861 32.1296C99.7387 32.731 99.4754 33.3455 99.2162 33.8371C99.1863 33.8942 99.1502 33.945 99.1104 33.9872C99.1465 35.95 99.0021 37.9266 98.9921 39.8868C98.9809 42.0208 99.0257 44.1561 99.1004 46.2875C99.2261 49.8201 99.6754 53.4729 98.6288 56.9176C97.7726 59.7372 96.0576 62.1575 93.758 63.9927C91.4035 65.8699 88.5651 66.9562 85.5509 67.1261C84.0178 67.2116 82.4585 67.038 80.9751 66.6424L80.8166 66.5996C79.3814 66.2068 77.7191 65.6066 76.6631 64.5556C76.1056 64.0001 76.6693 62.8235 77.4869 63.147C78.297 63.4683 79.0239 63.9431 79.8277 64.2778C80.5458 64.5767 81.295 64.8061 82.054 64.9747C83.576 65.3157 85.19 65.3902 86.7369 65.178C92.3219 64.4167 96.6738 59.7956 97.5324 54.3161C97.7701 52.7987 97.7656 51.2563 97.7496 49.723L97.7319 48.0429C97.7183 46.6375 97.7133 45.2311 97.7651 43.8263C97.8311 42.0184 97.9593 40.2117 98.131 38.4114L98.2205 37.4747C98.3267 36.3785 98.4463 35.2741 98.6524 34.193C98.4835 34.2018 97.1511 31.9307 96.4117 30.6616C96.1417 30.4484 95.9139 30.1834 95.8259 29.8406C95.8076 29.769 95.7982 29.6968 95.7924 29.6246C95.6319 29.3732 95.4625 29.1283 95.2838 28.8908L95.2448 28.8734C95.2148 28.8597 95.1915 28.8484 95.1778 28.8407C94.7878 28.6203 94.4621 28.2865 94.2392 27.8997C94.1641 27.7692 94.1025 27.6331 94.0525 27.4938C93.7345 27.183 93.4019 26.8864 93.0524 26.6083C93.0181 26.581 92.9826 26.5554 92.948 26.5285C92.5031 26.3631 92.1126 26.1139 91.8279 25.7549C91.7089 25.6815 91.5891 25.6096 91.4682 25.5392C91.1056 25.5358 90.7392 25.4516 90.3828 25.3057C89.7307 25.0389 89.2099 24.5115 88.5549 24.2671C87.8621 24.0088 87.1322 24.5958 86.3961 24.4899C86.2082 24.4629 86.0219 24.406 85.8487 24.3234C85.4342 24.7609 84.9943 25.1733 84.5093 25.5342C83.8053 26.0582 83.0855 26.2977 82.2696 26.5344C81.8652 26.9166 81.4125 27.2873 80.8666 27.3417C79.6031 28.348 78.2517 29.1969 76.8298 29.985C76.6011 30.1117 76.3738 30.1689 76.158 30.1704C75.712 30.4494 75.2251 30.664 74.7108 30.8125C74.5496 30.859 74.3835 30.8688 74.2201 30.8489L73.7739 31.2111V31.2111C73.4632 31.463 73.132 31.5834 72.815 31.5912C72.6221 31.7384 72.4223 31.8777 72.2166 32.0116C71.9962 32.1553 71.7103 32.2148 71.4231 32.1974C70.9844 32.625 70.4156 32.6699 69.9392 32.473C69.8738 32.5112 69.8064 32.5474 69.7308 32.5829C69.628 32.6314 69.5207 32.6723 69.4113 32.7055C68.9146 33.2389 68.1874 33.5186 67.4588 33.4454C66.9147 33.7775 66.2814 33.9502 65.6623 33.9114C65.5679 34.3841 65.4897 34.8585 65.4236 35.3345L65.4169 35.6832C65.4162 35.7397 65.416 35.7838 65.4168 35.8128L65.4172 35.8243C65.4778 37.353 65.5109 38.8825 65.5707 40.4115L65.5762 40.5321C65.6444 41.8679 65.9742 44.3034 64.0036 44.2503C63.2693 44.2306 62.5407 43.6918 61.9689 43.2488L61.8883 43.1862C61.8445 43.1522 61.7996 43.1174 61.7544 43.0819C61.3271 43.0266 60.9057 42.9231 60.4741 42.9074C59.9415 42.8888 59.3815 42.9433 58.8626 43.0636C57.9466 43.2756 57.0606 43.6911 56.4633 44.4437C56.411 44.5094 56.3625 44.5788 56.3164 44.6482C56.2741 44.7908 56.2019 44.9223 56.1061 45.0363C55.5411 46.3023 55.8673 47.9751 56.4919 49.1331C57.2361 50.5125 58.4138 51.4662 59.8946 51.9465L59.9689 51.9701C60.9806 52.2851 61.3676 52.8951 61.9177 53.7432C62.4329 54.5393 63.024 55.2808 63.6586 55.9851C64.8869 57.3478 66.6106 58.4725 67.3248 60.1972C67.4691 60.5445 67.056 60.8717 66.7362 60.7825C65.483 60.4316 64.6044 59.5426 63.6935 58.6585C63.0631 58.0462 62.4568 57.4094 61.8879 56.7404C61.7686 56.7954 61.6373 56.8323 61.5005 56.8489C60.897 56.9223 60.2745 56.8918 59.7461 56.5677C59.5026 56.5898 59.2488 56.5056 59.0604 56.3336C58.8876 56.1754 58.7385 56.0043 58.6125 55.8221C58.4212 55.8389 58.2332 55.844 58.0539 55.8143C57.9674 55.8063 57.8837 55.7836 57.8069 55.7464C57.6643 55.6902 57.529 55.6037 57.4048 55.4709C57.1532 55.2018 57.0567 54.8216 57.1032 54.4603C57.0534 54.4499 57.004 54.4371 56.9552 54.4206C56.6202 54.3077 56.3623 54.0834 56.1976 53.7781C55.9028 53.6133 55.6373 53.3899 55.4364 53.1525C55.1916 52.8638 55.0069 52.5383 54.8984 52.1788C54.7863 52.1269 54.6774 52.0667 54.5731 51.9963C53.8258 51.4925 53.398 50.5467 53.6914 49.6721L53.7014 49.6447C53.7163 49.6053 53.7432 49.5382 53.7763 49.4625C53.7715 49.4008 53.7666 49.3392 53.7632 49.2775L53.7529 49.0912V49.0912L53.6032 49.0279V49.0279C52.8565 48.732 52.3517 48.3326 52.262 47.4955C52.2434 47.3224 52.3108 47.1459 52.4172 46.9983L52.4167 46.9519V46.9519C52.3682 46.9269 52.322 46.9012 52.2813 46.8754C51.8743 46.6164 51.6241 46.1522 51.6521 45.6721C51.6778 45.2344 51.9211 44.8856 52.1947 44.5629L52.2729 44.4724C52.2794 44.4651 52.2866 44.4569 52.2944 44.4481L52.1135 44.3914C51.9962 44.3542 51.8887 44.3172 51.8114 44.274C51.5122 44.107 51.2586 43.8812 51.1022 43.5943C51.0794 43.5587 51.0563 43.5237 51.0354 43.4858C50.8334 43.1186 50.807 42.6482 50.9373 42.254C50.9527 42.2075 50.9727 42.1638 50.9931 42.1202C50.443 41.9271 50.0195 41.5278 49.9685 40.792C49.9485 40.5026 50.0121 40.2143 50.1503 39.9674C50.1197 39.8012 50.1134 39.6288 50.1332 39.4583C49.9396 39.2762 49.7893 39.0567 49.7221 38.789C49.5951 38.2832 49.8276 37.802 50.1734 37.3607C50.0454 37.0118 50.0388 36.6181 50.1849 36.2668C50.1287 36.0915 50.0967 35.9061 50.095 35.7158C50.0911 35.2943 50.2214 34.9423 50.4318 34.6429C50.136 34.2825 49.9955 33.8037 50.1702 33.3549C50.2946 33.036 50.4367 32.7443 50.6004 32.474C50.5145 32.2684 50.4644 32.0381 50.4644 31.7803C50.4644 31.3166 50.6389 30.9492 50.9058 30.6485C50.79 30.0993 51.0255 29.4305 51.539 29.1887C51.7325 29.0975 51.9916 29.0022 52.2771 28.9281C52.3842 28.5945 52.4961 28.2624 52.6142 27.9325C52.8002 27.4134 53.0004 26.9014 53.2124 26.3954C53.0903 26.5019 52.9623 26.6012 52.8299 26.6912C52.4111 27.2217 51.856 27.6812 51.3894 27.9561C50.4646 28.5012 49.4068 28.1778 48.9502 27.2658C48.5211 27.585 48.0062 27.7739 47.4567 27.7093C46.8338 27.6361 46.2642 27.2341 46.1086 26.607C46.0861 26.5163 46.0725 26.4182 46.0712 26.3195C45.7139 26.5729 45.3401 26.8062 44.93 26.9397C44.4077 27.1098 43.8746 26.7018 43.8057 26.1934C43.7784 25.9919 43.8162 25.8138 43.8967 25.6634L43.8457 25.6434C43.8373 25.6399 43.8288 25.6362 43.8205 25.6323C43.5466 25.5045 43.3339 25.2701 43.2328 24.9998C42.6397 25.2284 41.9608 24.9605 41.7726 24.3106C41.5486 23.5382 41.535 22.7557 41.7104 22.0032C41.0819 21.5482 40.6725 20.7831 40.6028 19.9834C40.5519 19.4093 40.6894 18.8793 40.9317 18.3893C40.3374 18.1678 40.1331 17.3916 40.4155 16.8324C40.0403 16.6184 39.7957 16.1647 39.7902 15.723C39.6226 15.4701 39.5689 15.1443 39.7079 14.7793C39.8913 14.2983 40.2646 13.896 40.6921 13.5804C40.5056 13.257 40.3671 12.9044 40.2811 12.54C39.927 12.4367 39.6411 12.1512 39.5829 11.7226C39.51 11.1852 39.865 10.7296 40.3429 10.6094C40.3959 10.4457 40.4606 10.2856 40.5406 10.1319C40.3042 9.57388 40.339 8.86835 40.6439 8.25829C40.9139 7.71892 41.3532 7.38909 41.8821 7.16094C41.7477 6.70216 41.9257 6.24462 42.3737 5.90363C42.9206 5.48689 43.5204 5.16835 44.1507 4.9433C44.0947 4.19648 44.4081 3.43168 45.1487 3.17129C45.3466 3.10173 45.5527 3.07606 45.7622 3.07693C45.9142 2.74747 46.168 2.47965 46.4991 2.24257C47.0002 1.88398 47.9367 2.10305 48.2146 2.66539L48.2282 2.69428C48.2423 2.72615 48.2577 2.75529 48.2722 2.78616C48.3282 2.51313 48.4591 2.25522 48.6696 2.04381C49.1956 1.51522 49.751 1.5053 50.2855 1.73134C50.3835 1.48905 50.5023 1.25867 50.6466 1.048C51.1706 0.283701 52.0364 0.186365 52.6703 0.60026C52.9244 0.377689 53.2081 0.206081 53.5218 0.108249ZM57.2685 46.0692C58.3237 45.6575 59.6042 45.7792 60.6471 46.1746L60.7235 46.2042C61.6446 46.567 63.141 47.3742 63.3214 48.4065C63.4147 48.941 62.9046 49.4034 62.3868 49.122C61.9363 48.8777 61.6837 48.3854 61.3253 48.0283C60.9707 47.675 60.5736 47.3911 60.1407 47.1417C59.2372 46.6222 58.2876 46.4201 57.2685 46.2702C57.154 46.2541 57.1851 46.1014 57.2685 46.0692Z" fill="#1A1A1A"></path> <path fill-rule="evenodd" clip-rule="evenodd" d="M86.05 58.9815C85.2681 58.663 84.5705 58.1318 84.0604 57.4531C83.8831 57.2171 83.8371 56.968 83.8743 56.7401C83.9161 56.4839 84.068 56.2517 84.275 56.0959C84.4827 55.9396 84.7425 55.8626 84.9936 55.9019C85.2118 55.936 85.4291 56.0553 85.601 56.3028L85.6369 56.3523C85.9402 56.7619 86.3353 57.098 86.7855 57.3146C87.2195 57.5234 87.7048 57.6209 88.2071 57.5642C89.1636 57.4563 89.8229 56.9397 90.5236 56.2383C90.6105 56.1497 90.6974 56.0584 90.7848 55.9656C90.8399 55.8814 90.9165 55.8274 91.0014 55.799C91.0958 55.7675 91.2025 55.7693 91.3003 55.8034C91.3946 55.8362 91.4789 55.8985 91.5354 55.9814C91.5891 56.0601 91.6196 56.1574 91.6097 56.2693C91.5456 56.9963 91.165 57.6451 90.6243 58.1545C90.0238 58.7203 89.2279 59.1117 88.4785 59.249C87.653 59.4002 86.8117 59.2918 86.05 58.9815V58.9815ZM88.868 47.7669C89.7463 48.3 91.0846 49.5431 90.1397 50.8647C89.0275 52.03 87.4262 50.6939 86.6371 50.0897C85.9054 49.6213 85.0833 50.8258 85.7622 51.3726C91.4643 55.588 93.7783 47.9063 89.3122 47.1402C88.8205 47.0557 88.6379 47.602 88.868 47.7669ZM78.6498 42.8634C78.7468 41.6606 80.5814 41.3874 80.7639 42.5777C80.9273 43.6438 80.7349 44.6233 80.254 45.5832C79.7944 46.5002 78.6394 46.0724 78.552 45.2373C78.4349 44.118 78.5894 43.6116 78.6498 42.8634ZM92.6148 42.3309C92.8705 41.9964 93.2398 41.7681 93.6823 41.8971C95.0647 42.3005 94.6572 44.2601 94.1717 45.214C93.9079 45.732 93.0552 45.8633 92.6699 45.4072C92.0418 44.6635 91.741 43.1781 92.5395 42.4455C92.5611 42.4077 92.5852 42.3694 92.6148 42.3309ZM80.2345 37.6003L80.4529 37.5621C81.1284 37.4454 81.9683 37.3334 82.4462 37.8756C82.6996 38.1632 82.7869 38.6977 82.4462 38.973C81.847 39.4573 81.1844 39.2696 80.4663 39.3106C79.8745 39.3445 79.3057 39.4423 78.7357 39.605C77.4851 39.9619 76.4661 40.6135 75.398 41.3289C75.2578 41.4227 75.1148 41.2438 75.1816 41.1129C75.7982 39.907 76.9931 38.9164 78.19 38.3126C78.8287 37.9903 79.5278 37.7229 80.2345 37.6003ZM91.3546 37.0601L91.5218 37.0943C93.3406 37.4739 95.7036 38.2322 96.5649 40.0161C96.5977 40.2683 96.5631 40.3224 96.5349 40.3577L96.5255 40.3695C96.5022 40.3996 96.4837 40.4412 96.3742 40.4755C96.3438 40.4683 96.3131 40.4607 96.2821 40.4525C95.8873 40.3492 95.575 40.2069 95.2726 40.0592L94.9447 39.8979C94.5643 39.7117 94.1805 39.5322 93.7738 39.3997C92.9059 39.117 92.0131 38.9179 91.1065 38.8116C90.91 38.7885 90.7208 38.7223 90.5715 38.6088C90.4298 38.5011 90.3216 38.352 90.2722 38.1537C90.2083 37.8971 90.2267 37.7029 90.3645 37.4714C90.4682 37.2976 90.6165 37.1771 90.7868 37.108C90.9605 37.0374 91.1581 37.0208 91.3546 37.0601Z" fill="#1A1A1A"></path> </g> <defs> <clipPath id="clip0"> <rect width="168" height="370" fill="white"></rect> </clipPath> </defs> </svg> 