<?xml version="1.0" encoding="UTF-8"?> <svg xmlns="http://www.w3.org/2000/svg" width="104" height="145" viewBox="0 0 104 145" fill="none"> <g clip-path="url(#clip0)"> <path fill-rule="evenodd" clip-rule="evenodd" d="M23.0569 20.7019C27.1009 15.0979 34.5468 13.4863 41.0039 14.8493C53.6275 17.1662 65.6881 26.8631 67.9186 40.0507C71.3985 48.029 69.1763 60.5955 59.0559 61.5343C57.615 61.6162 56.1878 61.2822 54.7444 61.4625C45.9351 62.8793 35.5252 68.9443 27.7272 61.7919C27.3364 62.0738 26.8215 62.2101 26.3833 62.0395C23.0641 60.748 22.9082 57.012 22.6252 53.941C22.2597 49.9728 21.9169 46.0024 21.5971 42.0304C21.4829 35.1805 18.7863 26.6208 23.0569 20.7019V20.7019Z" fill="#FFDBB4"></path> <path fill-rule="evenodd" clip-rule="evenodd" d="M47.5312 6.42206C42.2164 6.13757 32.4235 8.58858 27.7869 11.4621C20.2321 16.144 19.6466 25.4834 19.9547 27.0982C20.0718 27.7145 20.4458 28.2849 21.0311 28.0953C20.5346 32.3383 20.5736 34.7634 20.4902 39.0309L20.4329 41.8799C20.3957 43.7794 20.3637 45.679 20.3557 47.5792C20.1646 47.5075 19.9762 47.5954 19.9063 47.7798C19.8888 47.8245 19.9493 47.8489 19.9789 47.8232C20.3153 47.5277 20.0758 48.201 19.9601 48.338C19.8 48.5263 19.5336 48.7038 19.3465 48.865L18.8386 49.3078V49.3078L18.3307 49.7496C17.6745 50.3196 17.0398 50.8908 16.4276 51.5048L16.2612 51.6734C15.1458 52.8141 13.7478 53.9181 13.0535 55.3935C12.3902 56.8023 12.5947 58.3996 13.6967 59.5227C14.0976 59.9304 14.5659 60.2422 15.0745 60.4779C14.169 61.979 14.0371 63.9637 14.9816 65.5079C15.9275 67.0579 17.7467 67.8694 19.4986 67.7448C19.5524 67.9656 19.6358 68.181 19.7461 68.3854C20.4408 69.6708 21.8226 69.8376 23.1329 69.7688L23.184 69.766C26.1333 69.5952 28.9711 68.8516 31.5545 67.4061C32.4506 67.467 33.2498 66.7259 33.4247 65.913C33.8957 65.8955 34.3693 65.8561 34.8523 65.8006C36.2853 65.6341 37.7546 65.3238 39.0181 64.5909C39.2118 64.4785 39.1217 64.1818 38.9064 64.1762C37.3671 64.141 35.8265 64.2482 34.2899 64.0802C32.8798 63.9269 31.3768 63.5356 30.0623 63.0031C27.6995 62.044 25.6732 60.4169 24.555 58.1625C23.1073 55.2444 23.2391 51.7398 23.0817 48.5696C22.9073 45.0606 22.6926 41.5548 22.4631 38.0494L22.3517 36.369C22.1288 33.0938 21.9443 31.3417 21.3796 27.9422C23.0817 28.0953 30.1523 25.533 32.351 21.3418C36.5242 30.258 57.6672 26.609 58.6048 40.3355C58.6128 40.4519 58.7959 40.4195 58.8026 40.3083L58.8201 39.9954C58.8285 39.8408 58.8362 39.6887 58.8414 39.5378L58.8457 39.3872L59.178 39.3912C59.178 39.4331 59.2372 39.4481 59.252 39.4034C59.5655 38.5078 61.0591 38.7964 61.709 39.0092C62.2943 39.2014 62.8459 39.4968 63.3411 39.8613C64.3354 40.5929 65.1064 41.5778 65.3621 42.8091C65.8478 45.1476 64.3691 47.5292 62.4059 48.6577C61.1681 49.369 59.8118 49.8282 58.625 50.6343C57.5769 51.3455 56.6 52.1787 55.7537 53.1257C52.4006 56.877 50.4281 62.5669 52.0145 67.5185C52.1356 67.8965 52.4558 68.3285 52.8796 68.3896C53.5807 68.4912 54.2817 68.3883 54.6746 67.7163C54.828 67.4535 54.9006 67.1541 54.8845 66.8588C55.1563 67.7988 56.0376 68.7283 56.8503 69.0778C57.9576 69.5547 59.2049 69.4123 60.1818 68.7973L60.3052 68.8892C61.8938 70.0665 63.6684 71.1396 65.7038 70.923C67.1785 70.7658 68.6263 70.0099 69.4417 68.8177C70.5262 69.4314 71.6847 69.9204 72.8795 70.2536L73.0067 70.2888C74.6505 70.7394 76.7474 71.1526 78.2818 70.2374C79.7551 69.3581 80.2449 67.4385 79.8991 65.8358C79.8574 65.6449 79.8049 65.4593 79.7403 65.2791C80.849 65.3386 81.9564 65.2317 83.0086 64.9039C84.0837 64.5691 85.109 63.9256 85.6243 62.8826C86.2056 61.7024 86.0508 60.3614 85.6176 59.1597C84.9246 57.2318 83.8105 55.5167 82.4233 54.0225C81.0893 52.5844 79.4801 51.3644 77.8077 50.3474L77.5258 50.1775C76.0204 49.2735 74.2049 48.2141 72.4261 48.2838C72.4314 48.2608 72.4355 48.239 72.4382 48.2161C72.7073 46.2205 72.6763 44.1857 72.7396 42.1739C72.7974 40.3233 72.8634 38.4727 72.9064 36.6208C72.9764 33.4722 72.9535 30.3103 72.5458 27.1836C72.1839 24.4091 71.5326 21.7035 70.3445 19.1633C69.0972 16.4946 67.2189 14.2173 64.8992 12.4263C60.0311 8.66688 53.6008 6.7472 47.5312 6.42206ZM64.0664 43.4026C63.5362 42.396 62.3293 42.079 61.2704 42.2605C59.7863 42.5152 58.7771 43.8213 57.9106 44.9444C57.001 46.1216 58.8982 47.2311 59.3867 46.0905L59.5024 45.8211C59.8943 44.9165 60.3574 43.9627 61.1574 43.3728C62.0077 42.7469 63.2079 42.6548 63.9587 43.4866C64.0126 43.5475 64.1027 43.469 64.0664 43.4026Z" fill="black"></path> <path fill-rule="evenodd" clip-rule="evenodd" d="M32.9051 56.5356C33.8984 56.8246 34.9646 56.8504 35.9771 56.5519C36.8954 56.2811 37.8383 55.6852 38.5142 54.8967C39.1146 54.1963 39.5035 53.345 39.4882 52.4364C39.4865 52.3326 39.4495 52.246 39.3927 52.1787C39.3316 52.1063 39.2462 52.0566 39.1546 52.0351C39.0605 52.0129 38.961 52.0208 38.8763 52.0594C38.7996 52.0944 38.7339 52.1539 38.6928 52.2408C38.589 52.3779 38.4855 52.5129 38.3816 52.6442C37.5464 53.6804 36.7376 54.4547 35.4818 54.7325C34.8004 54.8832 34.1199 54.8164 33.4955 54.5864C32.8271 54.3402 32.2228 53.9074 31.7494 53.3536C31.5354 53.1033 31.2828 53.0011 31.0357 52.9994C30.7558 52.9975 30.4791 53.1282 30.2707 53.337C30.0658 53.5424 29.9286 53.8214 29.9162 54.1132C29.9053 54.3694 29.9884 54.637 30.2097 54.8757C30.9385 55.6621 31.8831 56.2381 32.9051 56.5356ZM32.9359 43.5582C31.9177 44.1801 30.3662 45.6301 31.4616 47.1717C32.7509 48.531 34.6073 46.9725 35.522 46.2676C36.3703 45.7213 37.3233 47.1263 36.5363 47.7642C29.9261 52.6813 27.2435 43.7208 32.4209 42.8271C32.9909 42.7286 33.2026 43.3659 32.9359 43.5582ZM42.4607 40.822C42.7879 40.6118 43.1729 40.5396 43.5995 40.7346C43.9329 40.8869 44.5177 41.3948 44.9247 42.0624C45.2031 42.5191 45.4005 43.0549 45.3594 43.6129C45.3498 43.7426 45.3975 43.8381 45.4727 43.9088C45.5321 43.9646 45.6178 44.0056 45.7186 44.0184C45.8041 44.0293 45.8999 44.0195 45.9777 43.9951C46.1258 43.9486 46.2041 43.8521 46.2337 43.7733C46.5186 43.013 46.3959 42.1646 46.0765 41.3992C45.6455 40.3661 44.8629 39.5009 44.3501 39.2219C43.4726 38.7443 42.4375 38.7223 41.5588 39.2089C40.8107 39.6229 40.343 40.2914 39.8779 40.9729C39.779 41.1177 39.6808 41.2615 39.5794 41.4028C39.3761 41.6859 39.3559 41.9666 39.4346 42.2073C39.5218 42.474 39.7442 42.6991 40.0223 42.8169C40.2793 42.9258 40.5776 42.9411 40.8415 42.8292C41.0645 42.7347 41.2692 42.5505 41.3986 42.238C41.6167 41.7116 41.9801 41.1309 42.4607 40.822V40.822ZM25.8399 41.9931C26.064 42.1104 26.2394 42.1458 26.488 42.071C26.6255 42.0295 26.7614 41.95 26.8677 41.8431C26.9732 41.7371 27.0492 41.6054 27.0788 41.4593C27.1515 41.0986 27.348 40.761 27.6278 40.5409C27.8671 40.3527 28.169 40.253 28.504 40.3093C28.8654 40.3699 29.2097 40.6028 29.4469 40.8774C29.5262 40.9692 29.5883 41.0736 29.6508 41.1772C29.7676 41.3711 29.8812 41.5512 30.0423 41.6936C30.1034 41.7477 30.1955 41.7852 30.2846 41.7852C30.3209 41.7852 30.3576 41.7793 30.3927 41.7683C30.7524 41.4056 30.8216 41.1304 30.81 40.8574C30.7978 40.5712 30.6855 40.2814 30.504 40.011C30.0782 39.3767 29.2699 38.8566 28.7244 38.7389C27.9773 38.5776 27.2354 38.7712 26.6406 39.1904C26.0285 39.6218 25.575 40.2915 25.4336 41.0462C25.3996 41.228 25.414 41.4242 25.4829 41.5943C25.5502 41.7606 25.6676 41.9029 25.8399 41.9931ZM40.813 34.0595C41.2613 34.4984 41.7919 34.5663 42.3288 34.6268C42.627 34.6607 42.8652 34.688 43.0995 34.7412C43.7435 34.8872 44.3801 35.1072 44.9609 35.4241C45.568 35.7553 46.2296 36.1547 46.7056 36.6664C46.8188 36.7882 46.9255 36.9159 47.0323 37.044C47.1298 37.1607 47.2236 37.2732 47.3225 37.3815C47.4361 37.506 47.544 37.6365 47.6513 37.7666C47.7176 37.8765 47.7308 37.9035 47.7441 37.9316C47.7642 37.9738 47.7876 38.0211 47.8143 38.0718C47.8509 38.1413 47.8937 38.2173 47.9386 38.2863C48.0133 38.4123 48.0534 38.447 48.088 38.4625C48.1454 38.4882 48.1999 38.5009 48.2527 38.494C48.3023 38.4876 48.349 38.4637 48.3951 38.4245C48.6253 38.2292 48.6932 37.9085 48.6862 37.5681C48.6756 37.0516 48.486 36.4797 48.3112 36.1281C47.9048 35.3112 47.3411 34.462 46.6633 33.8524C45.8899 33.1564 45.0437 32.6296 44.0718 32.2665C43.4678 32.0409 42.7685 31.8337 42.1105 31.8599C41.6369 31.8787 41.1847 32.0202 40.8113 32.3734C40.582 32.5903 40.472 32.8987 40.472 33.207C40.472 33.5213 40.5863 33.8376 40.813 34.0595ZM24.9281 38.0783C24.9566 38.1253 24.996 38.1576 25.0399 38.1771C25.086 38.1974 25.1374 38.2033 25.1867 38.1949C25.2358 38.1866 25.2824 38.1643 25.3195 38.1301C25.3549 38.0973 25.382 38.0539 25.394 38.0007C25.6917 36.6872 26.2697 35.7099 27.5033 35.0797C28.1101 34.7697 28.8079 34.5727 29.4685 34.4157C29.6604 34.37 29.8632 34.3405 30.0675 34.3105C30.7077 34.2166 31.3525 34.109 31.7699 33.5891C32.0213 33.2759 32.1269 32.8754 32.0672 32.5091C32.011 32.1642 31.8104 31.848 31.4458 31.6585C30.538 31.1869 29.4099 31.6496 28.4932 32.0438C28.4252 32.0731 28.3584 32.1018 28.2931 32.1295C27.3966 32.5097 26.579 33.0115 25.9069 33.7292C25.3736 34.2986 24.8795 35.1404 24.6805 36.0063C24.5149 36.7267 24.5539 37.4621 24.9281 38.0783Z" fill="black"></path> <path fill-rule="evenodd" clip-rule="evenodd" d="M3.20883 116.372C4.11035 113.588 3.03658 110.374 3.73841 107.373C3.97892 106.186 4.43607 101.777 4.89513 99.1987C5.15191 97.7565 3.61571 97.3087 3.37967 96.733C1.71821 91.5619 13.8383 79.3967 14.5781 78.9485C15.6868 78.3048 16.6678 77.7506 17.751 77.093C20.9111 75.9777 24.7004 72.8751 27.5652 74.8679C32.5288 67.4441 30.5652 58.2976 33.2586 57.2105C35.952 56.1234 43.9057 53.9263 48.4529 56.7319C51.1785 58.7581 50.9776 62.2461 52.2212 65.1226C52.9512 66.4767 53.3098 68.4383 54.1596 69.3214C57.0468 72.3221 60.6473 72.8395 64.6725 73.3488C64.9791 73.3875 65.3016 72.5498 65.5995 72.6532C72.3894 75.0111 80.29 75.6991 87.9795 88.9017C89.0655 90.7898 91.9951 93.8193 91.0155 96.0012C97.4699 111.081 103.821 145.022 86.1106 153.487C85.5445 153.85 81.704 151.899 81.0783 151.918C80.0352 151.948 82.0338 154.492 81.0783 154.039C74.0629 154.574 35.4608 153.194 20.6641 154.574C10.4889 154.497 4.04415 156.29 1.69461 154.497C2.63389 152.217 2.59033 149.774 2.29342 147.363C0.131044 145.746 2.80418 134.352 2.57793 131.016C0.553756 128.578 2.16546 119.434 3.20883 116.372Z" fill="#FFDBB4"></path> <path fill-rule="evenodd" clip-rule="evenodd" d="M65.1496 73.3266L65.2147 73.3687C65.2255 73.3758 65.2361 73.3831 65.2462 73.3909C65.3155 73.4432 65.3046 73.5377 65.2229 73.5694C65.1142 73.6121 65 73.6443 64.8825 73.6698C64.5254 74.1902 64.2464 74.8334 64.0516 75.1594C63.4919 76.096 58.6872 81.9852 57.9691 82.742C56.8024 83.9716 51.0566 88.5949 50.9786 88.5027C50.0545 89.0574 49.075 89.0753 48.0803 89.5C42.1938 92.0132 35.1389 92.6748 30.0803 88.5C29.7033 88.6036 25.6535 83.476 25.1005 81.6227C24.831 81.6979 24.497 79.7116 24.6834 79.7419C24.5208 78.619 26.4796 74.5855 26.6655 74.3926C26.6376 74.3838 26.6096 74.3753 26.5816 74.3673C26.5653 74.4026 26.5279 74.4295 26.4842 74.418C26.1106 74.3202 25.7319 74.2685 25.3536 74.2762C24.8842 73.9889 22.8449 74.9509 22.9318 75.2609C22.8829 75.2846 22.8337 75.3083 22.7843 75.3322C5.42315 82.8297 3.31648 95.9315 3.24906 96.1397C3.48826 96.4443 9.98179 105.669 10.3309 106.484C10.4034 104.721 9.2035 151.715 9.11964 152.696C9.08525 153.101 9.08269 154.056 9.02592 154.44C9.43834 154.463 23.8902 153.472 50.7633 153.634C59.3446 153.686 80.5545 154.624 80.5545 154.624L80.5615 154.566C80.6223 153.99 80.5694 152.874 80.5779 152.301C79.7633 151.828 78.9639 151.326 78.1737 150.832C76.3747 149.708 65.274 139.492 57.1156 130.351C52.2792 124.932 46.2457 121.286 45.9191 120.931C45.9128 120.924 45.9097 120.916 45.905 120.909C45.888 120.921 45.8669 120.933 45.84 120.929C42.082 120.39 36.4752 121.551 32.3473 119.404C30.5045 118.445 24.2514 111.92 22.4085 110.117C22.3533 110.063 22.3134 110.006 22.2855 109.948C21.0566 109.195 16.2678 105.381 15.9289 104.91L15.828 104.769C15.4536 104.236 14.8908 103.675 15.5433 103.163C16.2307 102.624 17.5483 103.272 18.2736 103.582L18.3746 103.624C18.7274 103.77 19.0736 103.928 19.4143 104.097C19.8445 102.886 20.8937 102.861 22.0243 103.028C22.8304 103.147 23.6128 103.424 24.3984 103.635C25.3958 103.903 26.3973 104.155 27.4026 104.391C29.2127 104.817 31.305 105.596 33.1362 105.918C33.1846 105.861 33.2518 105.817 33.3414 105.794C33.9684 105.637 34.6603 105.758 35.3035 105.769C35.8545 105.78 36.4056 105.781 36.9567 105.773L37.2873 105.767C38.4686 105.743 40.0532 105.191 41.2342 105.171L41.3049 105.127L41.3746 105.083C41.6794 104.885 42.0098 104.621 42.0999 104.288C42.1112 104.246 40.9036 101.454 40.8861 99.1945C40.8763 97.9382 41.3055 96.7629 41.4079 96.1397C41.6577 94.6183 42.2169 95.5978 43.0259 97.088C43.8349 98.5783 44.9136 99.933 45.7226 101.017C46.7655 102.414 47.7882 102.836 48.3198 103.645C48.4099 103.783 48.4984 103.924 48.5849 104.07C48.7928 103.861 50.5458 108.01 50.2393 108.81C50.4528 108.738 59.0715 119.848 77.8138 127.841C77.6943 127.093 74.4429 107.384 75.2519 104.133C76.0609 100.881 86.7601 88.8646 87.8727 88.5978C87.7613 88.4154 92.1065 91.3981 84.286 83.676C76.4654 75.954 71.2541 74.6463 67.3608 73.2115C67.1428 73.1434 66.926 73.0747 66.7102 73.0051C66.7647 73.102 66.641 73.209 66.5461 73.1302C66.0078 72.683 65.5406 72.8929 65.1496 73.3266Z" fill="white"></path> <path fill-rule="evenodd" clip-rule="evenodd" d="M6.43475 99.6827C7.40544 101.101 8.29725 102.561 9.10344 104.08C9.51914 104.864 9.90693 105.663 10.256 106.478C10.3286 104.715 10.3445 102.932 10.5496 101.186C10.5643 101.06 10.7734 100.999 10.7954 101.153C11.0219 102.735 11.0592 104.359 11.1449 105.959C11.2434 105.928 11.3524 105.911 11.4724 105.911C12.6374 105.911 13.7848 106.007 14.9457 106.101C15.4659 106.144 16.0101 106.176 16.5406 106.259C16.1136 105.785 15.7158 105.285 15.3487 104.763C14.9742 104.23 14.5463 103.398 15.1987 102.886C15.9194 102.321 17.3328 103.06 18.0301 103.348C18.3829 103.493 18.729 103.652 19.0698 103.82C19.5 102.609 20.8189 102.448 21.9495 102.615C22.7555 102.735 23.538 103.012 24.3236 103.223C25.321 103.49 26.3225 103.742 27.3277 103.979C29.1379 104.405 30.9605 104.777 32.7917 105.099C32.8401 105.043 32.9073 104.998 32.997 104.976C33.6239 104.818 34.3158 104.939 34.959 104.951C35.6202 104.963 36.2816 104.962 36.9428 104.948C38.1241 104.924 39.3042 104.914 40.4853 104.894C40.821 104.689 41.2467 104.396 41.3509 104.011C41.481 103.531 41.0746 102.999 40.886 102.59C40.1615 101.02 39.9082 99.2631 40.1924 97.5534C40.2431 97.2486 40.3475 96.9153 40.4982 96.6031C39.2042 96.7422 37.927 96.8366 36.626 96.8793C34.0281 96.9642 31.4303 97.0533 28.8312 97.0726C23.6344 97.1115 18.4375 97.1118 13.2408 97.0736C10.3024 97.052 7.37078 97.0249 4.43606 96.8742C4.67526 97.1787 4.90785 97.4899 5.13492 97.8058C5.18184 97.7917 5.24319 97.8171 5.23605 97.8756C5.23375 97.896 5.23133 97.9164 5.2289 97.9367C5.64325 98.5181 6.0421 99.1088 6.43475 99.6827M12.2131 153.665C13.4209 153.626 14.6283 153.588 15.8359 153.549C18.2064 153.473 20.5768 153.397 22.9471 153.322C27.6431 153.171 32.3389 153.027 37.0355 152.896C41.7208 152.767 46.4084 152.629 51.0951 152.776C55.7924 152.923 60.4777 153.304 65.1662 153.61C67.7728 153.78 70.3812 153.927 72.9926 153.997C75.4796 154.064 77.9887 153.963 80.4718 154.141C80.5553 153.524 80.494 152.909 80.503 152.295C79.6884 151.822 78.889 151.32 78.0988 150.826C75.2182 149.026 72.4953 146.989 69.9269 144.763C69.5321 144.421 69.145 144.071 68.7618 143.718C69.0285 144.304 68.8151 145.058 68.0507 145.306C67.1185 145.608 66.1642 145.501 65.196 145.478C64.213 145.455 63.2299 145.433 62.2466 145.412C60.3251 145.371 58.4034 145.335 56.4817 145.302C52.7276 145.239 48.9733 145.192 45.2189 145.162C37.6653 145.1 30.117 145.204 22.5647 145.341C20.441 145.379 18.3195 145.427 16.1958 145.379C15.1333 145.355 14.0665 145.347 13.0052 145.289C12.1549 145.243 11.2995 145.122 10.4493 145.014C10.3422 146.501 10.2301 147.989 10.1052 149.475C10.0226 150.456 9.93764 151.438 9.85377 152.419C9.81939 152.824 9.81683 153.237 9.76006 153.622C10.5762 153.667 11.3874 153.691 12.2131 153.665M11.3827 111.657C11.4124 112.796 11.4282 113.935 11.4363 115.075C11.5343 115.019 11.6447 114.977 11.7692 114.958C13.0899 114.756 14.5031 114.91 15.8393 114.932C17.1309 114.954 18.427 114.947 19.7174 115.008C21.0103 115.069 22.3027 115.142 23.5954 115.21C24.2019 115.241 24.8018 115.269 25.4036 115.351C25.8159 115.408 26.3433 115.404 26.7838 115.521C24.9358 113.723 23.0979 111.915 21.2549 110.111C21.1998 110.057 21.1599 110 21.132 109.942C19.9031 109.19 18.7235 108.343 17.6553 107.373C16.8081 107.701 15.8438 107.743 14.9456 107.816C13.7846 107.911 12.6378 108.006 11.4724 108.006C11.3936 108.006 11.3199 107.999 11.2505 107.985C11.3075 109.208 11.3508 110.432 11.3827 111.657M59.3639 133.778C56.5427 134.684 53.4861 134.674 50.5511 134.855C47.4223 135.048 44.2981 135.209 41.1656 135.331C34.9093 135.576 28.657 135.907 22.4017 136.171C18.8286 136.322 15.2564 136.489 11.6848 136.669C11.4315 136.682 11.1899 136.617 10.9767 136.497C10.8568 138.86 10.7163 141.222 10.5527 143.583C10.5324 143.878 10.5097 144.173 10.4888 144.469C12.1698 144.257 13.8381 144.054 15.5316 143.91C17.4333 143.749 19.3341 143.613 21.2386 143.486C24.9497 143.239 28.6667 142.908 32.3846 142.787C39.9635 142.541 47.5591 142.625 55.1409 142.679C57.2861 142.694 59.4312 142.715 61.5763 142.741C62.6488 142.754 63.7213 142.768 64.7938 142.784C65.8717 142.8 67.0301 142.687 68.0507 143.065C68.0604 143.069 68.0686 143.074 68.0782 143.078C64.9992 140.147 62.2408 136.907 59.3639 133.778M49.4464 124.407C44.7316 125.27 39.9429 125.211 35.1637 125.296C30.2736 125.384 25.3769 125.326 20.4859 125.336C17.7076 125.342 14.9054 125.464 12.1371 125.216C11.81 125.187 11.5565 125.062 11.3757 124.885C11.3252 127.843 11.2329 130.801 11.1055 133.756C11.2851 133.68 11.4811 133.633 11.6849 133.621C17.9345 133.252 24.1846 132.916 30.442 132.712C36.6944 132.507 42.9544 132.264 49.2102 132.34C52.263 132.377 55.4913 132.181 58.5022 132.85C57.358 131.628 56.1892 130.429 54.9667 129.281C53.1842 127.608 51.2822 126.04 49.4464 124.407M45.8443 120.925C45.838 120.918 45.8349 120.91 45.8301 120.903C45.8132 120.915 45.7924 120.924 45.7651 120.923C41.3517 120.823 36.4003 122.222 32.2724 120.075C30.4296 119.117 28.9035 117.602 27.4221 116.146C27.4213 116.157 27.4203 116.168 27.4195 116.179C27.4098 116.297 27.3601 116.439 27.2409 116.491C26.754 116.706 26.1838 116.72 25.661 116.796C25.0598 116.884 24.4693 116.936 23.8628 116.972C22.5256 117.053 21.1886 117.138 19.851 117.214C18.5164 117.29 17.1757 117.297 15.8394 117.33C14.4993 117.363 13.0956 117.526 11.7692 117.334C11.6474 117.317 11.5391 117.278 11.443 117.225C11.441 118.949 11.4253 120.673 11.4093 122.396C11.4066 122.676 11.4012 122.957 11.398 123.238C11.577 123.073 11.8231 122.958 12.1371 122.93C14.5967 122.712 17.0753 122.809 19.5435 122.817C21.9671 122.825 24.3911 122.834 26.8149 122.842C31.7091 122.858 36.5994 122.906 41.4927 123C43.8723 123.045 46.2415 123.246 48.5863 123.633C47.637 122.764 46.714 121.87 45.8443 120.925M84.1924 152.269C85.0959 152.547 85.9928 152.427 86.8981 152.617C86.9538 152.628 87.0052 152.65 87.0522 152.679C89.7633 151.515 91.5704 149.18 92.8071 146.563C94.1107 143.804 95.0092 140.856 95.6111 137.867C96.8522 131.704 96.8543 125.315 96.212 119.08C95.5808 112.956 94.3311 106.864 92.5478 100.974C91.3233 96.9292 89.7629 92.8431 87.5962 89.1553C85.0943 90.8396 83.154 93.2646 81.3261 95.6348C79.1419 98.4675 77.1736 101.465 75.4117 104.58C75.5938 105.113 75.6221 105.782 75.7095 106.259C75.8779 107.179 76.03 108.11 76.1496 109.037C76.4051 111.02 76.6503 113.003 76.9114 114.985C77.428 118.903 78.0447 122.811 78.7261 126.704C78.7812 127.019 78.693 127.286 78.5308 127.486C79.8822 128.202 81.2158 128.949 82.5153 129.759C85.372 131.54 88.0419 133.615 90.1381 136.276C90.1926 136.345 90.1072 136.438 90.0398 136.375C85.5446 132.202 79.96 129.582 74.4768 126.992C71.6748 125.669 68.8865 124.325 66.1981 122.777C63.3868 121.16 60.7057 119.332 58.136 117.351C55.2016 115.088 52.4395 112.615 49.8502 109.962C49.5452 109.649 49.6191 109.257 49.8486 109.01C49.7711 108.986 49.7085 108.918 49.7045 108.805C49.6423 107.072 49.1244 105.596 48.1104 104.194C47.1698 102.892 45.971 101.82 44.8896 100.643C44.409 100.12 43.9498 99.5747 43.5397 98.9933C43.1176 98.3949 42.8604 97.7343 42.493 97.1091C42.0638 96.3785 41.6987 96.7517 41.4998 97.4131C41.2742 98.1628 41.2882 99.0405 41.3788 99.8112C41.4747 100.627 41.7219 101.422 42.0778 102.159C42.4122 102.851 42.7977 103.556 42.5727 104.349C42.2028 105.654 40.6171 106.409 39.4159 106.703C38.0783 107.03 36.6791 106.966 35.3247 106.796C33.6284 106.584 31.9403 106.273 30.2636 105.942C28.3218 105.559 26.3915 105.117 24.4762 104.617C23.5759 104.383 22.682 104.074 21.7729 103.88C21.4487 103.81 20.8489 103.706 20.4679 103.876C25.3645 106.809 30.7029 108.763 36.1248 110.465C36.7984 110.676 36.5222 111.699 35.8327 111.529C30.0079 110.098 24.5279 107.443 19.3125 104.534C19.2327 104.489 19.165 104.42 19.1153 104.339C18.5906 104.153 18.0572 103.992 17.5133 103.859C17.2702 103.8 16.0197 103.385 15.8634 103.545C15.6419 103.77 16.4084 104.503 16.5999 104.716C17.9628 106.233 19.584 107.471 21.3387 108.494C23.1187 109.532 25.0126 110.36 26.9154 111.141C29.0469 112.016 31.2999 112.704 33.3718 113.709C34.1949 114.109 33.6174 115.466 32.7502 115.191C31.6327 114.836 30.5469 114.314 29.4609 113.871C28.5383 113.495 27.6156 113.119 26.6983 112.73C26.0588 112.459 25.4236 112.179 24.7946 111.886C25.7368 112.777 26.6792 113.668 27.6213 114.559C29.2528 116.102 30.8031 117.86 32.7976 118.943C34.7681 120.012 37.0161 120.137 39.2095 120.114C40.3107 120.102 41.407 120.067 42.5082 120.111C43.6672 120.158 44.6964 120.337 45.7946 120.704C45.8148 120.711 45.8295 120.723 45.8419 120.737C45.8804 120.69 45.9455 120.666 46.0128 120.706C48.9971 122.479 51.7175 124.779 54.3337 127.052C57.0302 129.394 59.5674 131.886 61.9849 134.517C64.2988 137.036 66.5943 139.564 69.1122 141.882C71.5707 144.144 74.198 146.199 76.9414 148.1C78.4362 149.137 79.9679 150.134 81.5528 151.026C82.3997 151.503 83.2598 151.983 84.1924 152.269M83.9414 84.0716C82.8727 82.8655 81.7224 81.7476 80.5052 80.7133C79.9682 80.8731 79.4044 80.9178 78.8364 80.9236C77.9695 80.9323 77.1007 80.9686 76.2339 80.9596C74.5647 80.9424 72.8963 80.8895 71.2267 80.8804C67.8131 80.8617 64.3983 80.8607 60.9846 80.8905C60.5374 80.8945 60.2147 80.7024 60.0156 80.4233C59.3245 81.2104 58.6123 81.9794 57.8942 82.7361C56.7274 83.9657 55.4836 85.1388 54.1595 86.2078C54.4173 86.2095 54.675 86.2119 54.9313 86.2101C56.1121 86.2021 57.293 86.1946 58.4736 86.1883C60.8431 86.1751 63.2126 86.1654 65.582 86.159C70.2927 86.1466 75.0181 86.186 79.7226 86.4283C81.0284 86.4955 82.3444 86.5228 83.6456 86.6507C84.3513 86.72 85.0563 86.8009 85.7613 86.8764C85.9056 86.8918 86.0439 86.9112 86.1797 86.933C85.4892 85.9362 84.7455 84.9789 83.9414 84.0716M65.0747 73.3208C65.1065 73.3425 65.1409 73.3618 65.1713 73.385C65.2407 73.4373 65.2297 73.5319 65.148 73.5636C65.0393 73.6062 64.9251 73.6385 64.8076 73.664C64.4505 74.1843 64.1715 74.8275 63.9767 75.1535C63.417 76.0902 62.7734 76.9824 62.1186 77.8535C61.987 78.0284 61.8529 78.2014 61.7182 78.374C64.8889 78.3664 68.0579 78.3827 71.2267 78.5031C72.8951 78.5667 74.5691 78.6199 76.2339 78.7456C76.9185 78.7974 77.6026 78.8842 78.285 78.9701C74.7334 76.3907 70.7393 74.421 66.6016 72.9587C66.6072 72.965 66.613 72.9698 66.6187 72.9762C66.7098 73.0778 66.5738 73.2094 66.4712 73.1244C65.9329 72.6772 65.4657 72.887 65.0747 73.3208M49.0539 103.64C49.144 103.777 49.2326 103.918 49.319 104.064C49.5269 103.855 49.8174 103.716 50.1915 103.704C54.3452 103.574 58.4968 103.46 62.6527 103.458C64.7023 103.456 66.7704 103.387 68.8173 103.489C69.8452 103.54 70.8726 103.601 71.9 103.659C72.6182 103.7 73.3813 103.751 74.0827 103.96C75.6993 101.119 77.4938 98.3879 79.4535 95.7764C75.0071 96.3244 70.4846 96.266 66.013 96.4181C60.9468 96.5906 55.8777 96.6277 50.8098 96.7483C49.4196 96.7814 48.0294 96.8177 46.6395 96.8567C45.9222 96.8769 45.2047 96.8977 44.4873 96.9195C44.263 96.9263 44.031 96.9325 43.7986 96.9264C43.8162 96.9629 43.834 96.9993 43.8514 97.0354C44.2425 97.8471 44.7344 98.5943 45.3076 99.2876C46.5263 100.762 47.9983 102.032 49.0539 103.64M54.5031 112.391C54.657 111.961 55.0318 111.63 55.629 111.658C59.0323 111.813 62.4419 111.921 65.8413 112.146C67.4972 112.255 69.1599 112.329 70.8131 112.475C71.6658 112.55 72.517 112.69 73.3661 112.801C73.9482 112.877 74.5577 112.965 75.116 113.173C75.0077 111.972 74.9123 110.77 74.8294 109.567C74.7629 108.6 74.7427 107.624 74.7478 106.654C74.7503 106.164 74.7669 105.67 74.7905 105.18C74.7404 105.19 74.6901 105.195 74.6407 105.189C74.5536 105.178 74.4723 105.168 74.3968 105.147C73.6143 105.455 72.7287 105.523 71.9 105.582C70.9171 105.653 69.9344 105.727 68.9514 105.798C66.86 105.948 64.7488 105.938 62.6528 106.007C58.5267 106.142 54.3997 106.22 50.2728 106.331C50.4642 107.157 50.471 108.005 50.1645 108.804C50.3779 108.733 50.6237 108.766 50.8335 108.974C52.0223 110.154 53.2464 111.292 54.5031 112.391M66.5082 121.167C66.5922 120.934 66.7507 120.719 66.9384 120.574C67.6601 120.015 68.9774 120.337 69.8436 120.38C70.869 120.43 71.8946 120.481 72.92 120.531C73.2312 120.546 74.8196 120.627 75.9862 120.877C75.7451 119.048 75.5264 117.216 75.3309 115.381C75.2899 114.996 75.2519 114.61 75.2143 114.225C74.6647 114.402 74.0674 114.467 73.5005 114.495C72.651 114.535 71.7977 114.604 70.9474 114.617C69.2486 114.644 67.5403 114.56 65.8413 114.532C62.7815 114.48 59.7214 114.334 56.6631 114.213C59.7337 116.717 62.9783 119.002 66.3627 121.08C66.4109 121.11 66.4599 121.138 66.5082 121.167M76.1722 122.253C75.9137 122.287 75.6574 122.299 75.4613 122.319C74.477 122.418 73.5081 122.509 72.5188 122.523C71.5378 122.538 70.557 122.552 69.5761 122.567C69.3675 122.569 69.1589 122.573 68.9503 122.576C71.5333 123.993 74.1955 125.263 76.8201 126.6C76.5888 125.153 76.3729 123.704 76.1722 122.253M48.0273 89.974C42.1409 92.4872 34.5907 92.7152 29.532 88.5404C29.0293 88.6786 28.4734 88.7246 28.0295 88.7693C27.0323 88.8699 26.0442 88.9624 25.0421 88.994C23.089 89.0552 21.1341 89.147 19.1802 89.1712C15.2274 89.2203 11.2744 89.2431 7.32155 89.2785C6.98514 89.2816 6.716 89.1787 6.51186 89.0132C6.11153 89.6951 5.73911 90.3941 5.39918 91.1109C4.90339 92.1564 4.48324 93.2368 4.13819 94.3415C4.21208 94.3286 4.28893 94.3197 4.37119 94.3182C9.56604 94.2279 14.7648 94.378 19.9606 94.3999C25.1576 94.4217 30.354 94.3993 35.5508 94.4364C36.989 94.4469 38.4165 94.4471 39.8511 94.5543C40.5976 94.6101 41.3531 94.6345 42.0926 94.7556C42.1752 94.769 42.2594 94.7809 42.3442 94.7929C43.3351 94.211 44.5652 94.3325 45.6978 94.3111C46.9983 94.2865 48.2987 94.2645 49.5991 94.2451C52.155 94.2071 54.7113 94.1793 57.2675 94.1617C62.3407 94.1267 67.4016 94.2569 72.4716 94.4345C74.9941 94.5227 77.5071 94.6727 79.9971 95.0627C80.1643 94.8453 80.3299 94.6268 80.4992 94.4111C82.2636 92.1644 84.3551 89.2881 87.2584 88.5919C87.1471 88.4096 87.0341 88.2283 86.9193 88.0483C84.9078 88.5812 82.6888 88.5543 80.6336 88.6659C78.2647 88.7945 75.9007 88.8833 73.529 88.9419C68.8144 89.0582 64.1008 89.1312 59.3853 89.2032C58.0765 89.2232 56.7678 89.2442 55.4591 89.2662C54.7532 89.278 54.0472 89.2916 53.3412 89.3025C52.9468 89.3086 52.5942 89.3075 52.2184 89.176C51.8704 89.0542 51.5312 88.8714 51.1946 88.7201C51.0772 88.6672 50.9817 88.5891 50.9038 88.4968C49.9796 89.0516 49.022 89.5493 48.0273 89.974M25.0255 81.6168C24.2851 81.8233 23.521 81.8576 22.7383 81.9169C21.7108 81.9951 20.6858 82.0082 19.6557 82.0149C18.0132 82.0254 16.3704 82.0141 14.7285 81.9685C14.0231 81.949 13.6111 81.4747 13.4888 80.9315C13.4718 80.9453 13.4543 80.9588 13.4373 80.9729C11.4389 82.6272 9.62814 84.5193 8.0937 86.6136C11.789 86.6252 15.4848 86.6277 19.1801 86.6526C21.1337 86.6659 23.0889 86.7465 25.042 86.797C26.0001 86.8217 26.9443 86.9014 27.8984 86.9925C27.9172 86.9944 27.9372 86.996 27.9565 86.9978C27.8554 86.8806 27.755 86.7618 27.657 86.6396C26.5166 85.2197 25.5785 83.4701 25.0255 81.6168M0.999451 156.154C0.673415 155.253 0.800032 154.286 0.818504 153.338C0.837381 152.366 0.847762 151.394 0.850998 150.421C0.857335 148.52 0.870145 146.619 0.891045 144.718C0.933383 140.872 0.977615 137.023 1.12823 133.18C1.42595 125.582 1.9994 118.002 2.93544 110.455C3.39038 106.786 3.95508 103.125 4.72136 99.5075C4.71057 99.493 4.70005 99.4781 4.68926 99.4635C3.92622 98.439 3.05842 97.4921 2.30872 96.4607C2.24225 96.3691 2.21514 96.1332 2.21514 96.1332L2.5 95C2.42827 94.9585 3.65465 92.4206 3.76401 92.1525C4.15706 91.1895 4.59906 90.2479 5.09741 89.3354C5.3981 88.785 5.71996 88.246 6.05705 87.717C6.28794 87.3759 6.50458 87.0009 6.69321 86.7599C7.33341 85.8384 8.02499 84.9526 8.76214 84.1088C11.7799 80.6542 15.5493 77.8654 19.6673 75.879C20.2624 75.592 20.8751 75.3528 21.4856 75.1023C22.1355 74.8353 22.7382 74.4863 23.3787 74.206C24.4209 73.7501 25.4498 73.7762 26.4735 74.2589C26.561 74.3003 26.4983 74.4355 26.4093 74.4122C25.7502 74.2396 25.0751 74.2106 24.4144 74.3981C23.767 74.5818 23.2749 74.9877 22.7094 75.3264C21.7022 75.9299 20.5761 76.3233 19.5437 76.8866C18.1785 77.632 16.8443 78.4504 15.568 79.3489C16.8904 79.4192 18.2137 79.47 19.5374 79.5052C20.5204 79.5315 21.5031 79.536 22.4849 79.5934C23.1836 79.6342 23.9102 79.6227 24.6086 79.7361C24.4401 78.573 24.4399 77.3995 24.6504 76.2665L24.6505 76.2653C24.7013 75.9923 24.763 75.7214 24.8387 75.4536C25.0001 74.8836 25.5172 74.7981 25.8926 75.0138C25.9298 74.9863 25.9673 74.9592 26.0033 74.9298C26.453 74.563 26.8578 74.124 27.2098 73.6627C27.9411 72.7042 28.532 71.5947 28.9796 70.4764C29.4329 69.3438 29.7541 68.1588 30.0686 66.9814C30.2264 66.3911 30.3971 65.804 30.5578 65.2141C30.6975 64.7013 30.7992 64.1349 31.0558 63.6677C31.1039 63.5801 31.2487 63.5967 31.2718 63.6961C31.4077 64.2814 31.3358 64.9488 31.3109 65.5456C31.2834 66.208 31.2455 66.8642 31.1577 67.5215C30.9758 68.8855 30.6824 70.2263 30.2122 71.5214C29.7615 72.7634 29.1666 73.9224 28.3586 74.9688C27.8219 75.664 27.0595 76.5841 26.1764 76.959C26.061 78.2639 26.0742 79.5701 26.381 80.862C26.7823 82.553 27.5507 84.1604 28.6065 85.5375C30.8202 88.425 34.2451 90.0565 37.8181 90.3928C41.5148 90.7405 45.2978 89.9099 48.6195 88.2764C52.3141 86.4594 55.3791 83.6562 58.1321 80.6305C59.7191 78.8864 61.3647 77.1703 62.8355 75.325C63.0961 74.998 63.5133 74.334 64.0081 73.7359C63.5045 73.7313 62.9877 73.6555 62.5419 73.5981C61.6196 73.4792 60.7183 73.295 59.817 73.0647C58.132 72.6342 56.3551 72.0351 54.8827 71.0875C51.767 69.082 50.5508 66.5382 50.1353 63.0336C50.004 61.9257 51.9107 61.6567 52.0883 62.768C52.3611 64.4763 52.7738 65.3076 53.3165 66.9486C53.8385 68.5259 54.5945 69.1135 56.0396 69.983C57.3961 70.7993 58.9379 71.2735 60.4324 71.7635C61.2606 72.035 62.0986 72.2826 62.9338 72.5322C63.4654 72.6911 64.0966 72.8297 64.6359 73.075C64.9173 72.827 65.2109 72.6399 65.5064 72.569C65.4847 72.5323 65.5129 72.4753 65.5674 72.4861C65.6542 72.5036 65.7408 72.5228 65.8276 72.5409C65.9149 72.5471 66.0017 72.5644 66.0884 72.5959C71.2939 73.7284 76.2928 76.1403 80.5318 79.4258C80.7456 79.5154 80.9523 79.6252 81.149 79.7641C81.2502 79.8355 81.3174 79.9489 81.3367 80.0663C81.9739 80.589 82.5923 81.1314 83.1897 81.6929C88.0015 86.2146 91.0503 92.2297 93.1847 98.4165C95.2872 104.512 96.7104 110.903 97.493 117.303C98.2908 123.826 98.3827 130.484 97.2256 136.971C96.6042 140.453 95.5984 143.876 94.1137 147.088C92.7804 149.973 90.6102 153.26 87.2015 153.611C87.1906 153.622 87.1804 153.634 87.1681 153.644C85.8307 154.751 83.8394 153.987 82.4411 153.325C82.2195 153.221 81.9995 153.11 81.7806 152.997C81.8963 153.445 81.9484 153.913 81.9726 154.352C82.0229 155.264 80.7431 155.316 80.5008 154.559C78.4264 154.926 76.2842 154.931 74.186 154.919C71.8416 154.906 69.498 154.825 67.1563 154.714C62.5101 154.494 57.8694 154.157 53.2201 154.004C43.8061 153.694 34.3663 154.356 24.9598 154.69C22.3211 154.783 19.6823 154.876 17.0435 154.97C14.3475 155.066 11.6541 155.084 8.97977 155.45C7.9964 155.585 7.61967 154.617 7.89703 154.013C7.82786 153.608 7.89676 153.164 7.93465 152.687C8.0053 151.795 8.07204 150.903 8.13461 150.01C8.25677 148.27 8.37476 146.529 8.48667 144.789C8.71347 141.261 8.90858 137.731 9.09843 134.201C9.47583 127.183 9.76478 120.159 9.97729 113.134C10.0292 111.422 10.0969 109.709 10.1824 107.997C10.0806 107.835 9.97904 107.673 9.88087 107.509C9.55403 106.961 9.23353 106.41 8.9025 105.864C8.23843 104.771 7.57032 103.685 6.87214 102.614C6.26915 101.689 5.64714 100.778 4.99722 99.8854C4.19036 106.731 3.47317 113.584 3.1439 120.474C2.78132 128.062 2.58891 135.663 2.48428 143.259C2.45502 145.381 2.43533 147.503 2.41281 149.626C2.40108 150.731 2.38935 151.835 2.39838 152.94C2.40715 153.997 2.56612 155.154 2.19289 156.154C1.97527 156.737 1.21425 156.747 0.999451 156.154Z" fill="#1A1A1A"></path> </g> <defs> <clipPath id="clip0"> <rect width="104" height="145" fill="white" transform="matrix(-1 0 0 1 104 0)"></rect> </clipPath> </defs> </svg> 