<?xml version="1.0" encoding="UTF-8"?> <svg xmlns="http://www.w3.org/2000/svg" width="28" height="28" viewBox="0 0 28 28" fill="none"> <g filter="url(#filter0_d)"> <circle cx="15" cy="13" r="13" fill="#1A1A1A"></circle> <path d="M7.5 14.1292L9 12.5593L11 14.6525C12.7658 15.6175 13.5486 15.6638 14.5 14.6525L19 8.3728C21.7729 9.24578 22.3875 9.88775 20.5 11.5126L15.5 18.3156C14.3857 19.8251 13.5511 19.7563 12 19.3622L7.5 14.1292Z" fill="#1A1A1A"></path> <path d="M21.4428 7.01922C19.0796 5.16571 18.2938 7.14711 16.6826 9.11671C15.8554 10.13 15.0508 11.165 14.2274 12.1803C12.7046 14.0555 11.9394 12.3003 10.6046 11.1473C9.22092 9.95295 7.9538 11.3126 7.18112 12.6939C6.807 13.3629 7.05704 14.0102 7.52516 14.5847C7.559 14.6949 7.6154 14.8032 7.7188 14.9035C9.07428 16.2159 12.0127 20.1 14.1992 19.5727C16.1111 19.1123 17.2955 17.0266 18.4931 15.5371C19.8523 13.8449 21.2247 12.1606 22.5445 10.4331C23.6386 8.99865 22.6009 7.9263 21.4428 7.01922ZM21.0386 10.0238C20.0967 11.1689 19.1699 12.3279 18.2374 13.4829C17.3651 14.5631 16.4927 15.6414 15.6148 16.7177C13.3212 19.5314 10.426 15.4289 8.76972 13.8016C8.70204 13.7347 8.62872 13.6993 8.55728 13.6639C8.21324 12.8532 9.44088 11.9462 10.0575 12.4794C10.849 13.1622 11.5878 14.3604 12.6294 14.6615C14.8252 15.2931 17.5004 10.2442 18.6491 8.86092C19.4857 7.85546 19.606 7.39307 20.7622 8.23324C22.0425 9.16196 21.5932 9.34889 21.0386 10.0238Z" fill="white"></path> </g> <defs> <filter id="filter0_d" x="0" y="0" width="28" height="28" filterUnits="userSpaceOnUse" color-interpolation-filters="sRGB"> <feFlood flood-opacity="0" result="BackgroundImageFix"></feFlood> <feColorMatrix in="SourceAlpha" type="matrix" values="0 0 0 0 0 0 0 0 0 0 0 0 0 0 0 0 0 0 127 0"></feColorMatrix> <feOffset dx="-2" dy="2"></feOffset> <feColorMatrix type="matrix" values="0 0 0 0 0.266667 0 0 0 0 0.909804 0 0 0 0 0.678431 0 0 0 1 0"></feColorMatrix> <feBlend mode="normal" in2="BackgroundImageFix" result="effect1_dropShadow"></feBlend> <feBlend mode="normal" in="SourceGraphic" in2="effect1_dropShadow" result="shape"></feBlend> </filter> </defs> </svg> 