<?xml version="1.0" encoding="UTF-8"?> <svg xmlns="http://www.w3.org/2000/svg" width="154" height="263" viewBox="0 0 154 263" fill="none"> <path fill-rule="evenodd" clip-rule="evenodd" d="M2.403 140.914C3.2218 140.678 4.24475 140.617 5.14055 140.574C8.30672 140.387 11.5352 141.901 14.6396 142.583C15.9986 142.92 17.4375 143.317 18.8918 143.613C20.1829 143.788 21.5176 143.92 22.8595 144.004C23.9442 144.036 25.2063 143.953 25.5767 145.097C27.7569 145.521 29.6868 145.697 31.7651 145.337C31.5704 144.673 31.4595 143.978 31.6608 143.263C31.5592 143.094 31.421 142.864 31.3471 142.71H31.5969C35.2448 141.246 39.1894 140.246 42.8564 138.729C47.6427 136.999 54.6918 133.657 60.2221 131.374C59.8472 129.315 59.7083 127.224 59.8672 125.19L59.645 125.01C59.572 124.61 59.4586 124.132 59.253 123.77C58.9921 123.076 58.986 122.128 58.8824 121.344C58.6664 119.809 58.5221 117.498 58.9153 115.676C59.087 113.206 60.748 111.301 62.5389 109.773C64.7378 107.592 66.9395 105.465 69.0862 103.2C80.9668 91.0544 81.9064 75.7573 100.505 71.1082L100.514 71.036C100.661 70.8721 100.721 70.742 100.887 71.0011C101.502 70.7651 102.267 70.7849 102.782 70.386C103.694 69.5509 104.342 68.5869 104.766 67.4428C105.092 65.2802 104.861 61.9471 106.751 60.5633C108.849 59.3028 119.999 58.4053 120.961 61.1613C121.557 61.7232 121.829 62.437 122.015 63.3109C122.636 64.4893 123.028 65.7959 123.654 66.9924C124.985 69.6761 125.847 69.0813 128.196 69.6946C128.451 69.1247 129.225 69.2396 129.789 69.3223C136.621 70.285 144.949 72.9122 147.874 79.351L147.625 79.3191C152.674 88.831 149.4 100.928 148.497 111.008C147.767 119.968 148.602 128.97 150.587 137.328C153.023 146.194 153.163 156.112 148.329 164.137C147.838 165.056 147.239 166.354 146.181 165.778C145.601 166.218 144.949 166.521 144.049 166.786C143.801 166.966 143.544 167.27 143.284 167.399C143.272 167.417 142.854 167.175 142.832 167.168C142.042 168.3 98.6474 172.079 94.1442 172.666C90.1768 173.146 84.9344 174.37 81.7012 171.501C79.0294 170.735 76.2335 168.742 74.0983 166.763C72.8026 185.607 72.086 224.198 70.9299 224.467C70.424 224.639 69.741 224.845 69.1684 225.009C69.1649 226.363 69.0644 227.901 69.1706 229.232C69.348 230.735 69.7978 232.51 70.0013 234.09C70.876 234.032 71.1332 234.911 71.235 235.509C71.99 240.446 71.9676 244.426 71.9134 249.852C63.0353 255.096 52.6301 257.979 42.6403 261.369C41.6835 262.09 39.6101 261.31 38.5052 261.115C34.6695 260.357 30.311 258.117 31.2792 254.01C31.9881 250.917 34.9646 249.138 37.4702 247.319C40.2114 245.327 43.1012 243.337 45.6221 240.966C47.6446 239.055 49.155 237.573 50.8417 235.417C51.5898 234.414 52.3875 232.767 53.3939 232.028C52.3307 230.763 54.4789 231.949 55.2921 232.022C55.7706 229.763 56.363 227.595 57.0733 225.429L56.3828 225.46C54.1157 223.337 52.8448 213.145 52.687 210.121C51.5506 190.409 51.5776 167.69 56.1363 151.09C52.6736 153.228 48.8764 155.014 45.4327 157.129C43.2612 158.404 41.058 160.176 38.6239 160.794C38.4653 161.251 37.8849 161.428 37.5682 160.981C37.1325 161.035 36.5712 160.854 36.5232 160.655C36.0776 159.741 35.432 158.756 35.5097 157.763C35.5098 157.763 36.1076 156.372 36.1076 156.372C34.7682 156.919 33.312 158.067 31.8822 158.173C28.9943 167.843 23.3044 162.426 17.8292 158.662C14.5249 156.347 10.9103 153.79 7.43288 151.322C4.48251 148.968 -1.27753 146.735 1.5461 142.073" fill="#AE5D29"></path> <path fill-rule="evenodd" clip-rule="evenodd" d="M128.445 70.4999C128.584 70.2192 128.751 69.9478 129.008 69.8943C132.248 70.2145 135.456 71.1001 138.434 72.4684C149.44 75.6551 151.027 88.5765 149.703 98.3682C149.69 98.5465 149.627 98.9218 149.532 99.4872C149.067 102.261 147.834 109.612 147.953 120.712C148 125.146 149.06 129.78 150.115 134.39C151.166 138.987 152.212 143.559 152.243 147.885C152.3 155.838 148.364 163.106 146.833 164.922C143.903 168.399 138.54 160.906 132.55 152.537C126.118 143.549 118.963 133.552 113.321 135.048C110.128 135.895 94.1962 134.475 88.9767 133.049C88.6255 132.953 88.6775 128.746 88.7205 125.272C88.7512 122.792 88.7772 120.686 88.6488 120.712C83.4987 121.754 75.1958 118.164 72.2494 116.891C71.7444 116.672 71.3967 116.522 71.2493 116.475C67.7973 115.368 64.1164 114.673 60.8551 116.135C60.9301 115.001 61.3665 113.915 61.9753 112.956C62.7264 112.769 63.2855 112.133 63.8197 111.525C64.0077 111.311 64.1926 111.101 64.3818 110.915C65.1837 110.051 65.9929 109.194 66.8022 108.336C68.318 106.731 69.8339 105.126 71.3012 103.475C74.5283 99.9927 77.1324 95.7593 79.74 91.5202C84.8925 83.1438 90.0587 74.7452 100.072 72.0764C101.069 80.4501 111.75 81.7863 118.186 78.9205L118.431 78.8267L118.671 78.7328C122.611 77.1835 126.981 74.855 128.358 70.6813L128.417 70.558L128.445 70.4999ZM60.4507 120.712C60.3511 119.648 60.5328 118.695 61.3943 118.08C62.4255 118.818 63.5311 119.432 64.7024 119.915C64.6987 120.051 64.7645 120.195 64.8239 120.302C63.2821 120.425 61.6764 120.824 60.5941 121.952C60.5415 121.539 60.4901 121.126 60.4507 120.712Z" fill="#6B5AC5"></path> <path fill-rule="evenodd" clip-rule="evenodd" d="M53.2676 232.389L53.1219 232.594C47.809 240.07 41.9307 245.697 35.6926 248.579L35.483 248.675L35.4636 248.686C33.6849 249.728 32.2088 251.38 31.6297 253.077C30.952 255.062 31.5253 256.934 33.4501 258.303L33.5088 258.344L33.5187 258.351C35.9414 259.939 38.8005 260.926 41.6091 261.123L41.7131 261.13L41.8493 261.139L41.9654 261.067C42.7105 260.606 43.4268 260.341 44.9577 259.9L45.6026 259.715L45.8688 259.637L46.0011 259.598C46.5597 259.43 46.9342 259.302 47.3266 259.142L47.4511 259.091L47.8679 258.95C55.3586 256.406 62.7583 253.49 70.0402 250.218L70.4684 250.026L71.1246 249.728L71.1398 249.469C71.473 243.784 71.4593 239.246 70.9848 234.97L70.9692 234.831L70.1151 234.912C70.24 236.579 68.5767 237.989 67.0058 237.457L66.9582 237.441L66.9361 237.433L66.8707 237.413C66.428 237.27 66.0599 237.062 65.4056 236.616L64.9208 236.283L64.7976 236.2L64.7082 236.141C64.6648 236.112 64.623 236.085 64.5803 236.058L64.5205 236.021C61.8303 234.332 58.9347 233.194 55.9943 232.71C55.7516 232.665 55.5011 232.627 55.2272 232.593L54.9243 232.557L54.6128 232.524L53.6464 232.429L53.2676 232.389ZM3.61285 140.704L3.42031 140.911C2.78306 141.595 2.29967 142.266 1.99386 142.957C1.61234 143.82 1.53168 144.675 1.81602 145.501L1.8388 145.565L1.84409 145.577C2.32253 146.678 3.44393 147.652 5.59066 149.072L5.91682 149.286C6.26081 149.509 7.18897 150.11 7.46943 150.296L7.59299 150.379C8.09776 150.717 8.47747 150.991 8.78099 151.24L8.83105 151.282L9.54862 151.782L11.0252 152.813L12.1207 153.579L12.8745 154.106C15.7555 156.123 18.5365 158.082 21.2532 160.006L21.3912 160.1L21.4998 160.175L21.6558 160.284L21.8758 160.441L22.6068 160.965L22.7528 161.069L22.897 161.171L23.0427 161.272L23.1902 161.373L23.3353 161.471C24.821 162.47 25.9159 162.963 27.082 163.032C27.912 163.08 28.6944 162.875 29.4221 162.39L29.474 162.355L29.4966 162.339L29.5749 162.269L29.6403 162.209L29.7043 162.149L29.7674 162.088C30.1015 161.765 30.4053 161.414 30.8824 160.822L31.284 160.32L31.4445 160.122L31.5629 159.978L31.6475 159.876C31.9084 159.563 32.1069 159.346 32.331 159.127L32.4052 159.056L32.9122 158.571L32.2516 158.338C29.5872 157.399 27.4089 154.411 26.5138 150.992L26.4822 150.869L26.4755 150.85C26.3138 150.394 26.2554 149.926 26.2396 149.163L26.2318 148.58L26.2281 148.388L26.2247 148.259L26.2204 148.132C26.1863 147.218 26.0857 146.697 25.7976 146.121L25.761 146.049L25.7489 146.026L25.7341 146.005C25.7161 145.979 25.7141 145.974 25.7215 145.961L25.8733 145.703L25.6933 145.472C25.6137 145.37 25.5261 145.269 25.4239 145.161L25.3792 145.114L25.2795 145.011L25.1377 144.988C20.6803 144.281 16.105 143.239 10.6533 141.749L10.1046 141.599L9.83139 141.525L9.64688 141.476L9.46421 141.428C7.66127 140.958 6.56003 140.777 5.30072 140.793L5.19386 140.795C5.07719 140.797 4.97815 140.803 4.80949 140.818L4.63519 140.835L4.55498 140.841L4.47796 140.847C4.19456 140.866 4.04382 140.856 3.89631 140.806L3.87846 140.8L3.61285 140.704Z" fill="white"></path> <path fill-rule="evenodd" clip-rule="evenodd" d="M126.518 69.104C123.729 68.4242 123.253 61.7185 121.569 62.6735C120.595 63.5226 122.188 65.1245 122.469 66.0828L122.593 66.3263C123.164 67.4425 123.811 68.555 124.937 69.1986C125.66 69.9628 127.824 69.2125 127.506 70.4297C126.395 74.0982 120.499 76.6383 117.025 77.7806C111.624 79.8152 102.887 79.1268 101.618 72.3067C104.581 71.7628 106.771 66.402 104.945 64.1701C104.883 66.3381 104.292 68.5756 102.595 70.0445L102.502 70.1307C102.203 70.4039 101.817 70.7302 101.431 70.6695C101.055 70.1445 100.326 70.4431 100.111 70.9972C83.2448 73.9214 79.4874 92.166 68.8656 102.905C66.7439 105.145 64.5259 107.29 62.3365 109.463C60.1004 111.242 58.5181 113.723 58.4078 116.635C58.2079 118.255 58.3069 119.877 58.5207 121.499L58.5356 121.646C58.6347 122.651 58.6935 123.732 59.1707 124.624C59.2531 124.927 59.2197 125.309 59.4807 125.523C59.3667 127.374 59.4752 129.258 59.7874 131.104L58.9736 131.468C50.019 135.468 40.9609 139.238 31.6238 142.237C30.8258 142.092 30.8909 143.022 31.2772 143.445C31.1753 143.943 31.1643 144.46 31.2838 144.952C29.5741 145.199 27.8373 144.994 26.1496 144.681C25.6157 143.502 24.1971 143.565 23.1003 143.532C21.7376 143.446 20.3773 143.313 19.0245 143.123C15.6913 142.376 12.4181 141.394 9.11697 140.53C6.90793 139.907 4.52573 139.936 2.30969 140.51C1.93324 140.933 1.58557 141.385 1.29216 141.865C-0.733536 145.015 1.26247 147.902 4.09013 149.556C8.62669 152.781 13.1645 156.002 17.7213 159.198L18.0524 159.434C23.4739 163.326 29.5731 168.252 32.4686 158.78C33.4417 158.666 34.2945 158.011 35.2012 157.624C34.9573 158.761 35.6857 159.909 36.1878 160.883C36.404 161.439 36.9951 161.622 37.5408 161.616C38.0081 162.076 38.885 161.895 39.1906 161.35C41.669 160.638 43.7167 158.977 45.9104 157.686C49.0296 155.786 52.3017 154.167 55.4659 152.347C50.2095 174.173 51.4951 196.908 52.8939 219.125L52.9038 219.326C53.0771 222.57 53.8188 224.104 56.5014 226.092C56.0341 227.522 55.616 228.957 55.2972 230.428C55.1846 230.769 54.6666 230.448 54.6623 230.916C53.7094 230.693 51.7725 230.932 52.4482 232.254C50.5348 233.865 49.2393 236.046 47.5621 237.882C44.6081 241.433 40.7467 244.076 36.9606 246.68C28.2571 251.128 27.7583 258.836 37.9414 261.469L38.0435 261.493C39.4458 261.831 41.1346 262.605 42.494 261.953C44.5276 261.561 46.5458 260.766 48.5354 260.16C56.5465 257.502 64.382 254.389 71.9741 250.811C72.2494 250.681 72.4051 250.384 72.4123 250.087C72.3276 247.632 72.9923 234.179 70.4542 233.89C69.8874 231.141 69.7984 228.304 69.9014 225.499C70.7247 225.24 71.5572 224.989 72.41 224.827C73.238 224.565 74.5328 224.507 75.0872 223.834C75.2865 223.762 75.4327 223.583 75.4028 223.301C74.9543 219.085 74.6144 214.859 74.3664 210.627C73.517 196.433 73.8054 182.196 74.7727 168.019C76.7662 169.747 79.0378 171.261 81.5667 172.066C82.9626 173.469 85.2008 173.77 87.1062 173.94C89.5565 174.092 91.9637 173.601 94.3819 173.296C98.4881 172.777 102.566 173.236 106.642 173.745L108.035 173.919C118.015 175.017 128.801 175.244 138.102 170.966C139.854 171.122 142.028 169.224 143.12 167.955C143.603 168.254 144.077 167.67 144.461 167.363C145.095 167.17 145.815 166.892 146.391 166.487C147.852 166.966 148.64 165.065 149.194 164.031C158.001 148.907 148.193 133.853 148.931 117.816C148.484 105.243 154.203 92.1435 148.676 80.0846C147.558 74.9816 141.019 71.4548 136.097 70.1579C134.511 69.8952 128.506 67.718 127.845 69.5488C127.532 69.1367 126.998 69.1059 126.518 69.104ZM53.4712 232.843C54.2965 232.932 55.1012 232.983 55.9168 233.133C58.8941 233.623 61.7341 234.779 64.2927 236.385C65.1212 236.903 65.8608 237.556 66.8116 237.845C68.7656 238.556 70.686 236.79 70.5428 234.88C71.0875 239.68 70.9941 244.619 70.7113 249.443C63.0685 252.911 55.2545 256.002 47.2985 258.688C45.5068 259.441 43.3854 259.682 41.74 260.7C38.9342 260.523 36.11 259.535 33.7534 257.99C29.8444 255.27 32.4394 250.956 35.6799 249.058C42.8134 245.829 48.8853 239.296 53.4712 232.843ZM69.1004 225.744C69.2496 227.167 68.1715 229.384 68.3236 232.22C68.4406 233.106 68.716 234.033 68.6204 234.922C68.1814 238.22 64.6206 234.029 63.1492 233.57C61.0604 232.418 58.7904 231.633 56.4575 231.204C56.4717 230.444 56.9738 230.14 57.0397 229.389C57.1344 228.282 57.1296 227.218 57.1794 226.1C60.2137 227.484 65.8819 226.505 69.1004 225.744ZM52.7518 232.628C52.8047 232.664 52.8605 232.694 52.9178 232.72C52.4961 233.233 52.1309 233.801 51.6307 234.241L51.8436 233.91C52.1285 233.467 52.4199 233.027 52.7518 232.628ZM146.99 114.638C147.143 115.261 147.421 115.847 147.838 116.346C145.684 133.86 156.767 148.461 146.578 164.746C146.449 164.806 146.331 164.881 146.218 164.975C146.158 164.935 146.098 164.893 146.039 164.85C141.264 156.375 134.465 149.065 129.049 140.955C128.009 138.919 126.297 136.87 125.642 134.518C136.528 130.207 140.876 123.918 146.99 114.638ZM3.73357 141.205C4.19511 141.37 4.70869 141.234 5.20125 141.225C6.94997 141.187 8.65895 141.645 10.3315 142.107C15.1961 143.442 20.0864 144.623 25.0704 145.413C25.1711 145.518 25.2674 145.624 25.3549 145.737C25.2685 145.883 25.2552 146.067 25.3805 146.249C26.1324 147.689 25.5246 149.453 26.0709 150.994C26.8623 154.116 28.9674 157.636 32.1089 158.744C31.061 159.745 30.3103 161.034 29.231 162C26.5786 163.823 23.6574 161.106 21.4919 159.649C17.3691 156.728 13.2355 153.828 9.09052 150.939C7.23355 149.395 3.12567 147.45 2.23709 145.405C1.66783 143.838 2.70396 142.31 3.73357 141.205ZM32.1464 145.184C33.921 148.814 34.9455 152.673 35.9703 156.57C34.9044 156.864 33.9225 157.324 32.8747 157.634C31.399 157.967 29.3155 155.107 28.5756 153.972C27.8129 152.702 27.2788 151.307 27.0311 149.845C26.822 148.414 27.0447 146.927 26.4239 145.602C28.3464 145.799 30.2966 145.84 32.1464 145.184ZM137.649 137.695C135.982 137.227 139.773 141.008 139.992 141.411C142.457 144.33 144.715 147.413 146.956 150.505L147.636 151.444C147.701 151.539 148.151 152.206 147.825 152.121C147.796 152.113 147.782 152.152 147.805 152.169C149.878 152.536 138.648 137.952 137.649 137.695ZM78.3864 134.214C78.9708 136.995 80.4474 139.502 81.3425 142.16C79.6614 141.789 78.3663 140.218 77.3863 138.866L77.3569 138.821C76.8946 138.108 76.3572 136.993 75.3073 137.497C73.7135 138.425 74.8552 141.718 74.885 143.279C75.0871 145.418 75.7807 147.42 76.2534 149.498C75.0385 148.665 74.6893 147.023 74.0972 145.744L71.8182 140.261C70.1427 137.958 70.9208 144.853 71.0073 145.503C71.1436 146.932 71.744 148.37 71.5084 149.809C70.5636 148.79 69.9684 147.508 69.4683 146.208C68.7745 144.4 68.1414 142.569 67.4813 140.748C67.2531 140.165 66.3878 140.37 66.5133 141.012C66.5559 143.078 66.5897 145.144 66.6226 147.209L66.6472 148.759C66.6516 149.052 66.7965 149.91 66.2906 149.673C63.6339 146.876 62.9527 141.285 63.2983 137.528C68.5209 137.654 73.8492 136.975 78.3864 134.214ZM31.9122 144.647C31.9338 144.715 31.9585 144.783 31.9833 144.852C31.9682 144.855 31.9521 144.858 31.937 144.862C31.9273 144.79 31.9187 144.718 31.9122 144.647ZM147.821 144.647C148.4 144.217 138.663 131.679 139.294 135.299C142.01 138.522 145.178 141.347 147.821 144.647ZM61.8307 116.941C70.9367 114.796 78.9555 122.81 88.1001 121.599C87.9942 124.47 87.8472 127.36 87.905 130.231C75.7611 131.236 77.1428 136.419 63.1633 135.898C61.3568 134.684 60.6149 127.247 60.7674 125.002C60.6507 122.348 62.9283 121.156 65.1971 120.69C66.017 121.187 67.4879 119.706 66.2705 119.185C64.6682 118.701 63.1691 117.941 61.8307 116.941ZM129.008 69.8945C132.248 70.2147 135.456 71.1003 138.434 72.4686C149.44 75.6553 151.027 88.5767 149.704 98.3684C149.155 105.815 147.038 113.097 142.586 119.153C130.735 137.279 111.105 134.409 92.5123 132.012C91.842 131.544 90.7063 131.876 90.0604 131.258C90.128 131.235 90.1889 131.203 90.2409 131.163C89.9305 130.92 89.6904 130.494 89.6188 130.041L89.4848 130.054C89.3535 127.243 89.4585 124.487 89.4161 121.698C95.5256 120.017 102.078 119.158 108.269 117.485C108.973 117.977 109.785 117.41 110.472 117.143C112.254 116.383 114.052 115.66 115.864 114.973L116.317 114.802C117.497 114.358 118.677 113.903 119.847 113.428L120.285 113.249C120.955 112.975 122.647 111.957 123.378 112.592L123.319 112.72C122.886 113.668 121.393 117.178 123.228 116.484C124.718 115.434 125.491 108.114 126.967 108.05C127.475 109.412 127.839 110.827 127.922 112.284C127.952 112.611 128.381 112.888 128.639 112.581C130.39 110.269 127.746 107.75 127.675 105.309C127.508 102.471 128.76 99.8153 129.384 97.0987L129.422 96.9114C129.788 95.1489 130.357 93.0121 130.206 91.4314L129.843 92.8035C129.479 94.1765 129.105 95.5496 128.677 96.9033C127.614 100.284 125.695 103.768 126.761 107.385C124.622 107.457 124.26 110.843 123.457 112.39C122.157 110.698 113.007 114.756 110.919 115.406L110.517 114.948C103.978 107.512 99.2576 102.479 89.1231 108.361C90.8738 102.697 91.043 96.6803 91.3416 90.7981C91.2392 89.679 91.8841 86.7272 90.9747 86.1163C90.8169 86.1394 90.6634 86.1872 90.5185 86.2509L90.5187 86.8307C90.5143 87.9539 90.4621 89.8163 89.9925 90.2394L89.777 92.4634C89.2127 98.2462 88.5727 104.025 86.851 109.597C82.7181 111.915 78.9469 114.817 75.3992 117.947L74.9951 117.799C70.6115 116.19 65.3371 114.126 60.8553 116.135C60.9302 115.001 61.3667 113.916 61.9755 112.956C62.9909 112.704 63.6554 111.63 64.382 110.915C66.6857 108.433 69.0507 106.007 71.3014 103.475C80.9052 93.1123 84.9911 76.096 100.073 72.0766C101.07 80.4503 111.75 81.7865 118.186 78.9207L118.431 78.8269C122.432 77.278 126.953 74.9403 128.358 70.6815L128.417 70.5582C128.561 70.2579 128.733 69.9517 129.008 69.8945ZM126.634 117.547C126.623 117.534 126.6 117.551 126.61 117.566C128.485 119.926 130.011 123.145 128.147 125.964C127.803 126.599 128.608 127.209 129.123 126.725C131.71 123.779 128.84 119.785 126.634 117.547ZM61.3944 118.08C62.4256 118.818 63.5312 119.432 64.7025 119.916C64.6988 120.051 64.7646 120.196 64.824 120.302C63.2822 120.425 61.6765 120.824 60.5942 121.952C60.5416 121.54 60.4902 121.126 60.4508 120.712C60.3512 119.648 60.5329 118.696 61.3944 118.08ZM132.3 107.646L132.288 107.589C132.28 107.525 132.182 107.52 132.185 107.589C132.221 108.433 132.833 109.033 133.352 109.634C134.121 110.525 134.89 111.416 135.66 112.307C136.946 113.86 138.842 115.421 138.416 117.671C138.408 118.47 139.406 118.641 139.811 118.053C141.422 114.972 136.351 112.351 134.642 110.363C133.84 109.502 132.575 108.869 132.3 107.646ZM108.158 116.897C108.134 116.935 108.117 116.977 108.108 117.019C107.838 117.048 107.569 117.079 107.3 117.112L108.158 116.897ZM148.489 109.69C148.441 110.012 148.396 110.335 148.353 110.658L148.31 110.981L148.304 110.953C148.282 110.869 148.24 110.796 148.186 110.738L148.167 110.719C148.279 110.378 148.386 110.035 148.489 109.69ZM74.4634 106.358C73.8173 106.289 76.7449 108.4 76.9066 108.661C77.1427 108.867 77.4185 108.502 77.1666 108.323C76.2571 107.68 75.3606 107.019 74.4634 106.358ZM80.1591 100.147C79.7095 99.9622 79.4042 100.713 79.8306 100.922C81.3839 101.685 83.0262 102.224 84.4574 103.226C84.5201 103.27 84.5989 103.168 84.5393 103.121L84.3674 102.984C83.0492 101.934 81.7324 100.793 80.1591 100.147ZM147.953 90.6529C147.519 92.7034 145.17 93.3768 143.347 93.923L142.778 94.1406C141.168 94.7585 139.501 95.4536 138.343 96.7593C137.889 98.232 141.127 95.6665 141.58 95.5366C143.791 94.1611 147.787 93.9274 147.953 90.6529ZM100.006 71.5078C99.994 71.612 99.9879 71.7185 99.9849 71.8249C99.8487 71.8249 99.7135 71.826 99.5772 71.8304C99.7358 71.7371 99.8812 71.6307 100.006 71.5078Z" fill="black"></path> <path fill-rule="evenodd" clip-rule="evenodd" d="M93.7059 42.84C94.4427 33.82 96.6862 25.8311 107.228 25.4905C111.986 25.5332 116.842 26.5481 121.217 28.4259C131.85 33.7798 135.224 53.343 125.855 61.2181C125.911 61.2499 125.924 61.3418 125.859 61.3862C123.923 62.6938 121.772 63.7697 119.617 64.6736C113.878 67.1103 107.121 68.1687 101.268 65.5256C92.3356 61.7087 92.2016 51.0879 93.7059 42.84Z" fill="#AE5D29"></path> <path fill-rule="evenodd" clip-rule="evenodd" d="M76.1235 38.6357C75.7564 38.3037 75.4826 37.8682 75.3442 37.3799C75.2175 36.9347 75.2089 36.4485 75.3431 36.0044C75.4869 35.5279 75.7972 35.1485 75.7274 34.6526C75.7199 34.6041 75.7102 34.5534 75.6952 34.5028C75.4268 33.5692 74.7666 32.8955 75.0028 31.8606C75.0694 31.5685 75.195 31.3055 75.3699 31.0985C75.3506 30.8743 75.3334 30.6479 75.3195 30.4216C74.932 29.5107 74.9459 28.4284 75.3592 27.5315C75.4096 27.0723 75.4859 26.6174 75.5932 26.17C75.5438 25.7744 75.6125 25.3389 75.7392 24.9929C75.9617 24.384 76.2367 23.784 76.5352 23.1939C76.5001 23.0326 76.5158 22.862 76.6045 22.7104C76.7657 22.4347 76.9788 22.1924 77.1966 21.9556C77.3507 21.6793 77.5058 21.4052 77.6596 21.1348C77.7309 21.0105 77.8096 20.8726 77.8963 20.7266C77.6599 20.2861 77.5337 19.8568 77.7837 19.3389C77.8776 19.1443 78.1359 19.0008 78.3486 19.0135C78.581 19.0274 78.8155 19.0379 79.0514 19.0469C79.4921 18.5124 79.9916 18.0326 80.5268 17.7564C81.0689 17.295 81.6185 16.8423 82.1531 16.3798C82.3045 16.2483 82.4569 16.1168 82.6083 15.9853C82.6093 15.9821 82.6104 15.9777 82.6115 15.9745C82.7231 15.566 82.8487 15.1628 82.9743 14.7575C83.0527 14.5063 83.0763 14.2433 83.32 14.1064C83.8288 13.8207 84.6113 13.7754 85.1953 13.7269C85.2533 13.6752 85.3112 13.6245 85.3692 13.5728C85.1041 12.8635 85.1513 12.11 85.4851 11.3996C85.5989 11.1581 85.994 11.0492 86.2108 11.2088C86.711 11.5774 87.3047 11.7079 87.8918 11.654C88.7549 10.9878 92.2361 7.97527 92.774 7.65727C92.7807 7.64584 92.7861 7.63442 92.7932 7.6231C93.0955 7.13823 93.4628 6.74886 93.8756 6.43668C93.9346 6.37491 93.9935 6.31303 94.0524 6.25116C94.0006 5.88152 93.8641 5.5246 93.6445 5.226C93.6209 5.19151 93.5941 5.15809 93.5672 5.12575C93.1829 4.66653 93.652 4.0758 94.1888 4.31619C94.2274 4.33344 94.266 4.35069 94.3047 4.36901C94.7173 4.55378 95.1739 4.7546 95.6493 4.92406C95.8233 4.85863 96.0007 4.79934 96.1624 4.73401L97.8946 4.03473C98.1797 3.9196 98.4811 3.82205 98.7569 3.68676C98.8531 3.04439 99.4941 2.62312 100.16 2.64511C100.121 2.52179 100.064 2.40203 99.9833 2.28852C99.9597 2.2551 99.9339 2.22276 99.9071 2.1915C99.5646 1.79157 100.022 1.04992 100.511 1.40565C100.546 1.43045 100.581 1.45524 100.616 1.48003C100.752 1.57587 100.891 1.66577 101.032 1.75287C101.257 1.65413 101.511 1.6316 101.776 1.73605C102.364 1.96728 102.906 2.20239 103.424 2.5648C103.445 2.57957 103.467 2.59197 103.488 2.60587C103.745 2.29412 104.153 2.08564 104.521 2.0879C104.528 2.0879 104.534 2.0878 104.541 2.08769C104.815 1.66739 105.319 1.42312 105.805 1.48251C105.772 0.879385 106.373 0.341151 106.921 0.275718C107.56 0.199397 108.137 0.572269 108.329 1.19879C108.382 1.37321 108.436 1.54773 108.489 1.72225C108.986 1.47055 109.51 1.2777 110.057 1.18143C111.304 0.962174 112.523 1.19566 113.724 1.5432C113.844 1.57791 113.964 1.61359 114.084 1.64917C114.255 1.44985 114.416 1.24579 114.569 1.05531C114.835 0.726528 115.471 0.989554 115.428 1.41212C115.398 1.70371 115.516 1.91349 115.706 2.06257C115.915 2.09319 116.116 2.10246 116.42 2.09631C116.822 2.08812 117.005 2.07551 117.425 1.91101C117.621 1.83447 117.865 1.63321 117.979 1.45255C118.416 0.75973 119.527 0.573132 120.057 1.23372C120.614 0.988907 121.317 1.32653 121.626 1.80256C121.788 2.05147 122.125 2.19064 122.55 2.31029C122.869 2.39998 123.195 2.46789 123.523 2.52729C123.669 2.3284 123.976 2.19506 124.202 2.36182C124.354 2.47511 124.503 2.59143 124.649 2.71065C125.777 2.86674 126.9 2.87235 127.975 2.43059C128.886 2.05654 129.722 3.07813 129.572 3.93577C129.836 4.07365 130.122 4.16538 130.382 4.30983C130.951 4.62525 131.418 5.12381 131.702 5.70958C131.753 5.81447 131.799 5.92097 131.843 6.02802C132.055 6.20168 132.265 6.37998 132.47 6.56808C132.812 6.39237 133.152 6.21666 133.493 6.04095C133.749 5.90944 134.179 6.00107 134.23 6.34171C134.313 6.90226 134.513 7.36686 134.8 7.75601C135.732 8.24757 136.628 8.79949 137.486 9.41286C138.472 9.72332 139.521 9.90442 140.383 10.1082C140.678 10.1782 140.839 10.5652 140.673 10.8229C140.497 11.0956 140.321 11.3683 140.146 11.641C140.636 12.1218 141.097 12.6242 141.532 13.1437C142.741 14.5882 143.754 16.1718 144.66 17.8491C145.018 17.9946 145.377 18.1391 145.735 18.2846C146.081 18.4247 146.237 18.8279 145.956 19.1244C145.823 19.2656 145.704 19.4143 145.602 19.5706C146.11 20.4147 146.708 21.1844 147.544 21.6889C147.798 21.8419 147.99 22.0823 148.091 22.3551C148.178 22.4133 148.264 22.4758 148.349 22.5394C148.585 22.7183 148.728 23.1086 148.451 23.3403C148.257 23.5042 148.074 23.6982 147.92 23.9127C147.886 24.0345 147.852 24.1574 147.818 24.2792C148.595 24.9972 149.241 25.8315 149.726 26.7672C149.841 26.7489 149.959 26.7607 150.055 26.8319C150.922 27.4754 150.948 28.5006 150.599 29.4169C150.809 30.7978 150.674 32.2132 150.268 33.5509C150.802 34.0856 151.123 34.8574 151.254 35.6012C151.485 36.9077 151.501 38.9171 151.561 40.2505C152.143 40.8143 152.557 41.5441 152.788 42.3289C152.982 42.4259 153.176 42.5229 153.371 42.6199C153.544 42.7062 153.67 42.9336 153.66 43.1255C153.61 44.0536 153.229 44.7867 152.723 45.4507C152.544 45.9627 152.279 46.4349 151.931 46.8876C151.691 47.1981 151.456 47.4956 151.249 47.8309C151.227 47.8643 151.214 47.8956 151.205 47.9171C151.286 48.0055 151.354 48.1521 151.413 48.2567C151.909 49.1341 151.916 50.1625 151.212 50.9268C151.477 51.1446 151.486 51.5844 151.252 51.8539C149.729 53.6013 148.459 55.726 146.345 56.6541C146.335 56.6703 146.327 56.6865 146.319 56.7026C146.748 57.7375 146.805 58.2754 146.456 59.3447C146.453 59.3544 146.45 59.3631 146.447 59.3728C146.26 59.9333 145.917 60.8313 145.297 61.0059C145.102 61.0609 144.91 61.0857 144.72 61.0846C144.228 61.56 143.738 62.0364 143.247 62.5129C143.204 62.749 143.177 62.9872 143.169 63.2276C143.155 63.6297 142.778 63.9553 142.372 63.8367C142.229 63.7946 141.439 63.0239 141.294 63.0282C141.221 63.1015 141.15 63.1748 141.08 63.2492C140.819 63.5241 140.457 63.9574 140.427 64.2452C140.369 64.7874 140.015 65.4084 139.443 65.5183C139.228 65.7371 138.884 65.8029 138.621 65.5172C138.604 65.4989 138.587 65.4806 138.569 65.4644C138.541 65.4612 138.514 65.4579 138.486 65.4547C138.359 65.8342 138.233 66.2136 138.105 66.592C137.855 67.3379 136.9 67.8176 136.221 67.3821C136.112 67.4479 136.004 67.518 135.897 67.588C135.734 67.6926 135.568 67.7993 135.399 67.8996C135.389 67.9276 135.38 67.9556 135.371 67.9826C135.261 68.3178 134.806 68.4978 134.526 68.3049C134.439 68.3329 134.35 68.3556 134.26 68.3739C133.787 68.4677 133.31 68.4418 132.853 68.2833C132.525 68.1712 132.213 67.9567 131.861 67.9276C131.839 67.9258 131.816 67.9273 131.794 67.9266C131.507 68.5176 130.85 69.0268 130.333 69.1998C129.655 69.4265 128.962 69.3455 128.345 69.0679C128.178 69.4022 127.969 69.7187 127.719 70.0113C127.581 70.173 127.331 70.1385 127.188 70.0113C126.917 69.77 126.647 69.5274 126.378 69.2845C126.184 69.2092 125.987 69.1188 125.782 69.0347C125.141 68.7717 124.438 68.6627 123.845 68.2826C123.563 68.1021 123.298 67.8719 123.08 67.6051C122.669 67.3668 122.292 67.0701 121.952 66.73C121.782 66.731 121.605 66.6912 121.433 66.6038C120.715 66.2373 120.337 65.4914 120.304 64.7282C119.722 63.3537 119.379 61.8877 119.284 60.3871C119.254 59.8945 119.249 59.3976 119.286 58.9049C119.312 58.5578 119.399 58.3261 119.53 58.0124C119.574 57.91 119.614 57.8162 119.645 57.7127C119.637 57.3807 119.633 57.0487 119.629 56.7177C119.54 56.4385 119.381 56.1787 119.16 55.9599C118.817 55.6214 118.66 54.9186 118.972 54.5003C119.175 54.2297 119.376 53.9592 119.579 53.6886C119.522 52.5276 119.245 50.68 119.859 50.4859C119.835 50.3135 119.782 50.1431 119.752 49.9717C119.608 49.1482 119.694 48.4119 120.13 47.6918C120.221 47.542 120.299 47.4094 120.362 47.28C120.402 47.0429 120.441 46.8057 120.481 46.5686C120.542 46.2031 120.602 45.8345 120.654 45.4636C120.681 44.9915 120.705 44.5193 120.732 44.0461C120.757 43.6106 120.785 43.1751 120.814 42.7385C120.802 42.5434 120.785 42.3483 120.76 42.1532C120.613 40.99 120.14 40.5599 119.32 39.7514C119.191 39.731 119.063 39.7083 118.937 39.6824C118.352 39.5606 117.74 39.372 117.138 39.4399C116.485 39.5132 115.899 39.7967 115.264 39.4345C115.077 39.3267 114.666 39.0292 114.631 38.7931C114.629 38.778 114.625 38.7651 114.621 38.7554C114.577 38.7489 114.52 38.7435 114.485 38.7425C113.98 38.7252 113.498 38.9246 112.989 38.8697C112.387 38.805 111.848 38.5366 111.494 38.1388C111.04 38.2509 110.576 38.3016 110.105 38.239C109.71 38.1873 109.356 38.0579 109.006 37.8661C108.751 37.7281 108.832 37.6882 108.555 37.8003C107.925 38.0569 107.355 38.3953 106.645 38.2196C106.277 38.1291 105.959 37.9297 105.692 37.6612C105.629 37.5987 105.521 37.5049 105.449 37.4165C105.112 37.5879 104.264 37.9749 104.125 38.0094C103.73 38.1064 103.311 38.0914 102.927 37.962C102.644 37.8671 102.299 37.6084 102.051 37.5556C101.73 37.4866 101.017 37.935 100.634 38.0892C99.9618 38.3598 99.2501 38.4266 98.5695 38.1474C98.3355 38.0515 97.8804 37.6688 97.7054 37.672C97.4209 38.0245 96.6266 39.953 96.3883 40.6569C95.4232 43.5028 95.1731 52.3886 95.6186 54.6555C95.6358 54.7224 95.654 54.7881 95.6723 54.855C96.2197 56.8266 96.7897 58.8316 97.7054 60.6685C98.5695 62.3997 99.7643 63.9585 101.479 64.9039C103.256 65.8848 105.343 66.1425 107.342 66.0099C108.629 65.9258 109.895 65.666 111.14 65.3404C111.79 65.1712 112.435 64.9826 113.077 64.7864C113.358 64.7012 113.642 64.6214 113.917 64.5223C114.402 64.3466 114.656 64.3325 115.121 64.5578C115.544 64.7627 115.653 65.3674 115.433 65.7479C115.074 66.3688 114.417 66.412 113.783 66.5931C113.136 66.7774 112.488 66.9542 111.835 67.1126C110.585 67.4145 109.314 67.6462 108.032 67.753C105.737 67.9459 103.372 67.6484 101.283 66.6426C101.047 66.5284 100.82 66.4066 100.599 66.2751C100.681 66.3893 100.764 66.5036 100.847 66.6168C101.079 66.9305 100.908 67.4641 100.582 67.6355C100.479 67.6894 100.376 67.7411 100.272 67.7918C100.258 67.8252 100.243 67.8586 100.226 67.892C99.9285 68.4914 99.3059 68.845 98.6715 68.998C97.918 69.1791 97.0742 69.0508 96.3078 69.0282C95.5971 69.0066 94.8865 68.9851 94.1769 68.9635C94.0095 68.9592 93.842 68.9538 93.6746 68.9484C92.8308 68.9226 91.9882 68.8978 91.1455 68.8719C90.3941 68.8493 90.4295 68.9075 89.7242 68.6056C89.4097 68.4698 89.1521 68.2779 88.9352 68.0225C88.8 67.9621 88.669 67.8931 88.5434 67.8144C88.1398 67.5622 87.7813 67.2237 87.4507 66.8507C86.8892 67.0286 86.1024 66.8636 85.9929 66.1554C85.8168 65.0224 84.3505 64.5384 83.6656 63.7192C83.1128 63.0584 82.7178 62.1928 82.7382 61.3616C81.3448 60.6847 80.5869 58.9006 80.4098 57.3871C80.3272 56.6854 80.34 55.934 80.2209 55.2204C80.1683 55.1633 80.1211 55.1029 80.0813 55.0382C79.7314 54.4701 79.4265 53.8848 79.1582 53.2854C78.7932 53.0213 78.3541 52.8586 77.8947 52.8316C76.7654 52.7659 76.5529 51.2362 77.6296 50.8675C77.6349 50.8654 77.6392 50.8643 77.6446 50.8621C77.3526 50.1291 77.3773 49.2613 77.7315 48.5671C77.7165 48.4917 77.7026 48.4173 77.6886 48.3418C77.0842 47.6897 76.7375 46.7831 76.7762 45.9002C76.5003 45.7051 76.1911 45.5542 75.853 45.4604C75.3302 45.316 75.327 44.6756 75.7134 44.3889C75.8691 44.2736 75.9979 44.1388 76.1052 43.99C75.838 43.1837 75.9432 42.2513 76.4895 41.5894C76.1428 41.1431 75.7961 40.6968 75.4494 40.2505C75.2196 39.9552 75.0983 39.4539 75.4494 39.1736C75.6737 38.9936 75.8981 38.8147 76.1235 38.6357Z" fill="#1A1A1A"></path> <path fill-rule="evenodd" clip-rule="evenodd" d="M104.685 59.2232C105.408 58.9276 106.054 58.4345 106.525 57.8046C106.689 57.5856 106.732 57.3544 106.698 57.1429C106.659 56.905 106.518 56.6895 106.327 56.5449C106.135 56.3999 105.895 56.3284 105.662 56.3648C105.46 56.3965 105.26 56.5073 105.101 56.7369L105.067 56.7829C104.787 57.1631 104.421 57.475 104.005 57.6761C103.604 57.8699 103.155 57.9603 102.69 57.9077C101.806 57.8076 101.196 57.3281 100.548 56.6771C100.468 56.5949 100.387 56.5101 100.306 56.424C100.255 56.3459 100.185 56.2957 100.106 56.2694C100.019 56.2401 99.92 56.2418 99.8295 56.2734C99.7423 56.3039 99.6644 56.3617 99.6121 56.4386C99.5624 56.5117 99.5342 56.602 99.5434 56.7059C99.6027 57.3806 99.9547 57.9828 100.455 58.4556C101.01 58.9807 101.746 59.344 102.439 59.4715C103.203 59.6118 103.981 59.5112 104.685 59.2232ZM102.079 48.8144C101.267 49.3092 100.029 50.4629 100.903 51.6896C101.931 52.7712 103.412 51.5311 104.142 50.9702C104.819 50.5356 105.579 51.6535 104.951 52.161C99.6778 56.0736 97.5377 48.9438 101.668 48.2326C102.123 48.1542 102.292 48.6613 102.079 48.8144ZM111.529 44.2631C111.44 43.1467 109.743 42.8932 109.574 43.9979C109.423 44.9875 109.601 45.8965 110.046 46.7875C110.471 47.6386 111.539 47.2415 111.62 46.4665C111.728 45.4275 111.585 44.9575 111.529 44.2631ZM98.6137 43.7688C98.3771 43.4583 98.0356 43.2464 97.6264 43.3661C96.3479 43.7405 96.7247 45.5594 97.1737 46.4447C97.4177 46.9255 98.2063 47.0474 98.5627 46.6241C99.1436 45.9338 99.4218 44.5552 98.6833 43.8752C98.6633 43.84 98.641 43.8046 98.6137 43.7688ZM110.064 39.3782L109.862 39.3427C109.237 39.2345 108.46 39.1304 108.018 39.6337C107.784 39.9006 107.703 40.3967 108.018 40.6522C108.573 41.1017 109.185 40.9275 109.849 40.9656C110.397 40.9971 110.923 41.0878 111.45 41.2388C112.607 41.5701 113.549 42.1749 114.537 42.8389C114.667 42.926 114.799 42.7599 114.737 42.6384C114.167 41.5191 113.062 40.5997 111.955 40.0393C111.364 39.7401 110.717 39.492 110.064 39.3782ZM99.7792 38.8767L99.6246 38.9084C97.9425 39.2608 95.757 39.9646 94.9604 41.6203C94.9301 41.8545 94.9621 41.9046 94.9882 41.9374L94.9969 41.9483C95.0184 41.9763 95.0355 42.0149 95.1368 42.0468C95.1649 42.0401 95.1933 42.033 95.222 42.0254C95.5871 41.9295 95.876 41.7974 96.1557 41.6604L96.4589 41.5107C96.8107 41.3378 97.1657 41.1712 97.5418 41.0483C98.3445 40.7859 99.1702 40.6011 100.009 40.5024C100.19 40.481 100.365 40.4195 100.503 40.3142C100.635 40.2142 100.735 40.0758 100.78 39.8918C100.839 39.6536 100.822 39.4733 100.695 39.2585C100.599 39.0972 100.462 38.9854 100.304 38.9211C100.144 38.8557 99.9609 38.8403 99.7792 38.8767Z" fill="black"></path> </svg> 