<?xml version="1.0" encoding="UTF-8"?> <svg xmlns="http://www.w3.org/2000/svg" width="21" height="21" viewBox="0 0 21 21" fill="none"> <path d="M20.4613 17.3701C16.7254 13.043 12.6775 9.02874 8.82378 4.81726C7.03004 2.85659 4.18885 5.82141 5.97604 7.77528C9.82756 11.9868 13.8777 16.0033 17.6135 20.3281C19.3505 22.3432 22.1917 19.3716 20.4613 17.3701Z" fill="#1A1A1A"></path> <path d="M13.1294 4.12835C14.3579 4.56809 15.5144 5.17557 16.6775 5.77625C17.6595 6.28626 18.851 6.05731 19.4336 5.02596C19.9617 4.09207 19.6933 2.67313 18.7113 2.16312C17.2405 1.39924 15.7589 0.648927 14.2008 0.0935819C13.1621 -0.278159 12.0012 0.508435 11.7241 1.55566C11.4186 2.70715 12.0928 3.75887 13.1294 4.12835Z" fill="#1A1A1A"></path> <path d="M3.76778 11.2842C3.14804 10.3458 2.01113 9.92418 1.01169 10.5339C0.117003 11.0779 -0.334719 12.4538 0.289382 13.3968C1.42847 15.1217 2.09187 17.1073 2.97565 18.9773C4.11692 21.4004 7.59095 19.2788 6.45404 16.8648C5.57244 14.9948 4.90905 13.0091 3.76778 11.2842Z" fill="#1A1A1A"></path> </svg> 