<?xml version="1.0" encoding="UTF-8"?> <svg xmlns="http://www.w3.org/2000/svg" width="106" height="149" viewBox="0 0 106 149" fill="none"> <g clip-path="url(#clip0)"> <path fill-rule="evenodd" clip-rule="evenodd" d="M14.0443 84.9836C15.1726 80.6034 16.2102 78.7462 18.2145 77.2237C20.0892 75.7997 22.8259 74.6037 26.8191 73.73C30.9782 73.0022 31.0961 70.8385 32.1389 67.361C32.4431 66.3155 33.9507 66.0374 34.6014 66.7909C34.6931 66.6918 34.7887 66.601 34.8878 66.519C34.7992 66.0204 35.5244 64.5914 35.5002 64.1144C35.2473 59.1364 36.874 56.6366 40.9342 55.7074C41.8172 55.5052 47.8148 55.3862 48.6757 55.6244C52.4395 56.666 56.1447 59.9731 55.5777 63.9569C56.7591 65.5023 57.9154 66.4456 59.7382 66.9435C62.5767 67.3043 61.1508 107.556 56.2209 131.671C54.1057 142.018 3.5293 124.407 5.8147 119.225C5.49073 118.275 6.08123 117.231 5.8147 116.25C5.62182 115.541 5.12786 115.247 4.87922 114.544C4.52935 113.555 4.90985 112.228 5.30376 111.219C5.46519 110.716 5.00665 110.174 4.87922 109.661C4.27481 107.24 5.65881 107.453 6.65656 105.834C6.64171 105.829 6.38224 104.674 6.38341 104.68C6.23064 103.855 6.61336 102.798 6.94719 102.109C7.17282 101.644 7.65615 101.352 8.13639 101.406C7.65276 99.7624 7.04111 98.395 6.38341 96.8117C5.22019 94.0208 4.11402 91.1013 2.44371 88.5751C1.7597 87.5407 2.31214 86.5893 3.41908 86.5188C7.00189 86.2909 10.5455 85.7746 14.0443 84.9836Z" fill="#D08B5B"></path> <path fill-rule="evenodd" clip-rule="evenodd" d="M19.6375 85.322L27.8159 99.1767C27.8159 99.1767 25.8758 99.3705 25.0906 99.7481C24.3054 100.126 20.7003 104.713 20.7003 104.713L20.1275 107.24L21.4848 109.276L20.9554 110.555C20.9554 110.555 20.5778 109.689 19.6375 109.016C18.6972 108.344 16.6236 107.24 16.6236 107.24C16.6236 107.24 17.3127 106.871 17.3127 106.437C17.3127 106.004 17.9197 104.156 16.6236 103.458C15.3276 102.759 8.63018 101.125 8.63018 101.125L1.84258 86.7936L19.6375 85.322Z" fill="#FCF6F1"></path> <path fill-rule="evenodd" clip-rule="evenodd" d="M56.1212 67.0375L30.1522 71.5998L18.2148 77.2236L16.2661 78.7264L27.816 99.1766L45.6501 102.434L50.1937 114.247L49.2662 127.564L20.2538 124.101L7.73915 122.613L4.79727 134.501L5.32876 139.392L6.10173 141.872L37.1263 150.256C37.1263 150.256 52.9244 148.724 55.7249 148.724C58.5254 148.724 79.0581 150.765 79.0581 150.765L83.8088 150.256C83.8088 150.256 94.3197 139.167 95.95 135.221C97.5802 131.274 101.105 107.283 101.105 107.283L100.717 103.597L91.6361 80.2028C91.6361 80.2028 90.4234 79.1005 88.8946 77.2236C87.3657 75.3468 56.1212 67.0375 56.1212 67.0375Z" fill="#6B5AC5"></path> <path fill-rule="evenodd" clip-rule="evenodd" d="M9.11998 100.83C11.4669 100.949 13.8163 101.508 15.9393 102.52C16.8078 102.935 17.5949 103.533 17.8253 104.518C17.9418 105.021 17.9133 105.541 17.8513 106.049C17.8046 106.434 17.7929 106.925 17.459 107.185C17.402 107.229 17.3412 107.263 17.2777 107.288C18.0609 107.641 18.8066 108.067 19.4694 108.505C20.0751 108.905 20.6977 109.522 20.9773 110.218C21.0006 110.139 21.0239 110.065 21.0472 109.995C21.5236 108.585 22.2576 107.43 23.4135 106.654C23.5448 106.175 24.9536 104.114 26.2621 104.192C27.6951 104.276 28.8477 104.381 30.1436 105.041C30.616 105.03 31.0873 105.037 31.5532 105.057C31.6334 105.06 31.6295 105.169 31.5532 105.178C31.1752 105.226 30.7972 105.279 30.4192 105.341C29.5209 105.485 28.6251 105.668 27.7488 105.895C26.6976 106.167 25.6103 106.44 24.6277 106.916C22.7224 107.84 21.543 110.255 21.7851 112.357C21.8252 112.702 21.9585 113.744 22.4363 113.636C22.8401 113.546 23.0006 112.702 23.1417 112.39C23.5197 111.56 24.2006 111.019 25.0174 110.652C25.9766 110.22 27.0031 109.929 27.9974 109.589C28.5603 109.396 29.1234 109.203 29.6878 109.011C30.2652 108.813 30.814 108.54 31.4289 108.678C31.8004 108.762 31.8431 109.206 31.6347 109.46C31.3176 109.847 30.8464 109.961 30.3894 110.121C29.7862 110.331 29.1843 110.541 28.5824 110.75C27.6518 111.074 26.6769 111.348 25.7696 111.744L25.798 111.809C25.8719 111.788 25.9586 111.862 25.9442 111.953C25.8083 112.791 25.6193 113.761 25.8291 114.601C25.9947 115.267 26.5786 116.004 27.3371 115.808C27.218 115.7 27.174 115.512 27.2542 115.338C27.5547 114.695 31.4897 112.158 31.8405 113.1C31.8522 113.134 31.8161 113.158 31.7875 113.153C31.4884 113.091 30.9875 113.601 30.7481 113.763C30.4025 113.997 30.0517 114.225 29.7098 114.465C29.3357 114.726 28.9707 115.001 28.6147 115.285C28.3351 115.508 28.1241 115.74 27.8032 115.853C27.9714 115.933 28.1048 116.082 28.1617 116.272C28.3066 116.769 28.5862 117.19 29.0717 117.409C29.5804 117.637 30.1538 117.493 30.6898 117.549C31.4198 117.623 32.0567 117.97 32.5887 118.467C33.7059 119.511 34.2664 121.351 35.8288 121.845C36.7621 122.139 37.7977 121.954 38.7427 121.82C39.7977 121.671 40.8255 121.553 41.8882 121.709C42.9057 121.858 43.8675 122.21 44.7969 122.641C45.6681 123.044 46.6312 123.5 47.404 124.101C47.5632 123.61 47.7237 123.124 47.8455 122.622C48.1328 121.437 48.2881 120.229 48.3258 119.011C48.3606 117.851 48.2959 116.686 48.1963 115.531C48.147 114.954 48.0693 114.38 48.0201 113.804C48.0073 113.658 47.9813 113.503 47.9619 113.348C46.582 112.532 45.1323 111.908 43.6708 111.265C43.6668 111.264 43.6629 111.261 43.6591 111.26C43.6138 111.239 43.5697 111.22 43.5244 111.2C43.5257 111.197 43.527 111.195 43.5296 111.192C43.3626 111.09 43.2461 110.954 43.1762 110.801C41.0701 109.403 39.3096 107.494 37.997 105.267C37.4469 104.334 36.9175 103.366 36.1977 102.549C35.4314 101.676 34.5214 101.158 33.3952 100.888C32.0787 100.572 30.7221 100.383 29.3733 100.275C28.6367 100.217 27.8136 100.126 27.0109 100.13C26.4517 100.134 25.9042 100.182 25.4018 100.321C24.6575 100.525 24.2226 101.092 23.7553 101.665C23.3087 102.214 22.8647 102.765 22.4479 103.338C22.0532 103.881 21.6802 104.442 21.3566 105.03C21.1624 105.383 20.9825 105.746 20.8311 106.12C20.778 106.252 20.7081 106.403 20.6757 106.54C20.6434 106.679 20.7029 106.825 20.5476 106.825C21.1883 106.834 21.6142 108.434 20.9773 108.396C20.0819 108.344 19.6317 107.269 19.8071 106.316C20.1202 104.615 21.8107 102.56 22.1451 102.125C22.8842 101.163 23.6465 99.9086 24.8297 99.4615C24.8465 99.455 24.8646 99.4487 24.8815 99.4434C24.5371 99.1168 24.2653 98.7256 24.0051 98.3276C23.7372 97.9181 23.4175 97.4489 23.3294 96.963C23.2737 96.6534 23.6582 96.477 23.8407 96.7478C24.1061 97.1431 24.2342 97.6433 24.4323 98.0776C24.6342 98.5181 24.8802 98.9341 25.0743 99.3786C25.5416 99.2347 26.0465 99.1688 26.5604 99.1467C25.9119 98.2681 24.8039 96.5729 24.6705 96.3552C24.0569 95.3469 23.4731 94.3077 22.9152 93.267C22.3121 92.1395 21.7954 90.9654 21.2181 89.825C20.8906 89.1784 20.5605 88.5264 20.1968 87.8992C20.0712 87.6841 19.9366 87.4689 19.7838 87.2733C19.7541 87.2345 19.7165 87.2021 19.6816 87.1657C19.6414 87.1437 19.6 87.119 19.5767 87.1062C19.3671 86.9857 19.2932 86.7058 19.1458 86.5281C18.9101 86.2418 18.633 86.2081 18.2784 86.2041C17.5225 86.1963 16.7638 86.2261 16.0092 86.2469C14.8998 86.278 13.7917 86.322 12.6837 86.3804C12.3484 86.3985 12.0144 86.4166 11.6792 86.4374C10.0675 86.5334 8.45721 86.659 6.85077 86.8133C5.42944 86.9493 4.00811 87.171 2.58549 87.2773C4.51167 91.8584 6.64754 96.3566 9.06574 100.698C9.09021 100.742 9.10846 100.786 9.11998 100.83ZM19.8071 112.632C20.1177 112.775 20.4193 112.952 20.7002 113.154C20.6536 112.84 20.642 112.508 20.6549 112.175C20.4232 112.423 20.1268 112.566 19.8071 112.632ZM6.5451 104.752C6.56711 104.754 6.58781 104.766 6.59818 104.788C7.02794 105.675 6.84814 106.667 6.1464 107.363C5.77877 107.726 4.97749 108.135 5.00351 108.731C5.02552 109.213 5.54965 109.618 5.77359 110.016C5.982 110.386 6.05967 110.793 5.89268 111.195C5.6791 111.709 5.08234 111.914 4.87782 112.42C4.61893 113.061 5.03963 113.835 5.33477 114.393C5.60919 114.91 5.96401 115.427 6.19947 115.974C7.77744 116.792 11.3579 118.277 11.7891 118.36C12.3146 118.462 12.8414 118.56 13.3697 118.65C14.3833 118.827 15.3993 118.99 16.418 119.134C16.998 119.215 17.5792 119.296 18.1604 119.359C18.6678 119.414 19.24 119.487 19.649 119.105C20.4736 118.333 20.0115 117.038 19.4898 116.258C19.4795 116.243 19.4795 116.228 19.4833 116.215C18.9914 116.1 18.5008 115.965 18.0115 115.871C17.0704 115.689 16.1229 115.536 15.174 115.4C13.2246 115.121 11.2622 114.937 9.30245 114.752C8.81702 114.706 8.81185 113.941 9.30245 113.986C12.1179 114.244 14.9475 114.489 17.7255 115.032C18.4219 115.167 19.1133 115.32 19.8005 115.492C20.1254 115.573 20.4736 115.698 20.8141 115.702C20.8348 115.702 20.8556 115.702 20.8762 115.701C21.5429 115.68 21.6399 115.109 21.2736 114.633C21.2283 114.575 21.1817 114.516 21.1338 114.461C20.4866 113.688 19.6802 113.172 18.8492 112.638C17.9183 112.511 16.9902 112.229 16.0789 112.022C13.8291 111.508 11.5793 110.995 9.32822 110.483C8.88693 110.382 9.07449 109.703 9.51591 109.803C11.2246 110.191 12.9333 110.578 14.6422 110.965L17.1429 111.533C17.6426 111.646 18.2667 111.873 18.8544 111.954C19.1442 111.994 19.4251 112 19.6788 111.94C20.4982 111.746 20.5396 110.721 20.1862 110.111C19.7901 109.427 19.0419 109 18.3779 108.612C17.2271 107.939 16.0025 107.456 14.8064 106.899C14.5941 106.852 14.3818 106.805 14.1695 106.759C12.9346 106.487 11.5236 106.353 10.3612 105.854C10.013 105.707 10.2034 105.157 10.5476 105.165C11.4499 105.184 12.3935 105.506 13.2751 105.696C14.2291 105.904 15.1844 106.11 16.1384 106.316C16.2342 106.336 16.8012 106.518 16.8866 106.478C16.941 106.452 16.9604 106.263 16.9785 106.138C17.0369 105.729 17.0795 105.298 17.0161 104.888C16.8763 103.966 16.1087 103.533 15.332 103.179C13.6026 102.393 11.7062 101.901 9.81882 101.703C9.38387 101.658 8.94894 101.63 8.5114 101.615C7.99763 101.6 7.5742 101.509 7.31402 102.016C6.90496 102.814 6.67973 103.841 6.5451 104.752ZM8.94704 133.695C9.32386 132.391 9.22134 130.998 9.47945 129.667C9.61266 128.98 9.79453 128.299 9.9931 127.629C10.1534 127.087 10.4207 126.512 10.451 125.946C10.4528 125.909 10.4084 125.887 10.3778 125.904C9.84618 126.209 9.4379 126.868 9.13474 127.385C8.77176 128.004 8.49461 128.652 8.27105 129.333C7.82549 130.69 7.45967 132.328 8.03429 133.695C8.20529 134.103 8.80593 134.184 8.94704 133.695ZM23.6533 143.573C24.2149 143.18 24.624 142.632 25.1003 142.148C25.5686 141.672 24.8365 140.939 24.368 141.415C23.9617 141.828 23.6089 142.343 23.1307 142.677C22.9006 142.838 22.7941 143.128 22.9449 143.387C23.0782 143.615 23.4238 143.733 23.6533 143.573ZM26.785 128.495C25.7599 128.051 24.7517 127.568 23.6789 127.248C23.0377 127.057 22.7663 128.058 23.4035 128.248C24.3916 128.542 25.3183 128.981 26.2622 129.39C26.8683 129.652 27.395 128.759 26.785 128.495ZM37.6105 128.184C37.8612 127.565 36.8589 127.298 36.612 127.909C36.3276 128.611 36.0016 129.296 35.7172 129.999C35.4667 130.618 36.4688 130.885 36.7158 130.274C37.0002 129.572 37.3262 128.887 37.6105 128.184ZM48.2956 140.55C48.4626 140.773 48.7411 140.894 49.0041 140.736C49.2244 140.604 49.3589 140.252 49.1899 140.027C48.6963 139.368 48.1962 138.718 47.6177 138.13C47.1487 137.654 46.4169 138.388 46.8854 138.863C47.4021 139.388 47.8547 139.962 48.2956 140.55ZM49.8233 71.1668C49.3479 71.4918 48.9315 71.8867 48.5254 72.293C48.0533 72.7654 48.7857 73.4983 49.2578 73.026C49.6 72.6836 49.9451 72.336 50.346 72.0621C50.5776 71.9037 50.6815 71.6091 50.5317 71.3528C50.3975 71.1231 50.0543 71.009 49.8233 71.1668ZM34.2778 87.8502C34.5466 88.389 34.7885 88.9171 34.8038 89.5294C34.8201 90.1964 35.8557 90.1968 35.8392 89.5294C35.8194 88.7281 35.5243 88.0332 35.172 87.3269C34.8741 86.7291 33.9811 87.2549 34.2778 87.8502ZM28.5745 74.4513C28.0178 74.0797 27.4998 74.9782 28.0517 75.3465C28.499 75.6449 28.9465 75.9436 29.3939 76.2422C29.9504 76.6136 30.4683 75.7153 29.9166 75.347C29.4692 75.0484 29.0219 74.7498 28.5745 74.4513ZM53.3138 97.8782C53.4088 98.5371 54.4066 98.2552 54.3125 97.6027C54.1669 96.5942 53.9892 95.599 53.7159 94.6167C53.537 93.9739 52.5383 94.2487 52.7173 94.8924C52.9906 95.8747 53.1683 96.8698 53.3138 97.8782ZM56.9444 109.754C57.611 109.74 57.6111 108.703 56.9444 108.717C56.3412 108.73 55.7482 108.889 55.1663 109.035C54.5191 109.196 54.7951 110.196 55.4417 110.034C55.9336 109.911 56.4344 109.765 56.9444 109.754ZM58.2847 133.677C58.5137 133.789 58.7487 133.889 58.9801 133.995C59.4437 134.207 59.907 134.42 60.3701 134.633C61.335 135.076 62.2994 135.521 63.2629 135.967C65.1916 136.861 67.1353 137.723 69.0687 138.608C71.0403 139.509 73.0068 140.423 74.9707 141.341C75.896 141.774 76.8283 142.19 77.7588 142.611C78.5543 142.972 79.5378 143.601 80.4111 143.66C80.4561 143.663 80.4711 143.606 80.4454 143.577C80.1155 143.202 79.5892 142.983 79.1555 142.739C78.7125 142.489 78.2613 142.255 77.8121 142.017C76.8757 141.52 75.9381 141.027 74.9926 140.548C73.1014 139.59 71.2065 138.639 69.3113 137.688C67.3784 136.72 65.4479 135.744 63.4981 134.81C62.58 134.369 61.6611 133.931 60.7416 133.493C60.2435 133.257 59.7451 133.02 59.2468 132.784C59.0315 132.682 58.8184 132.572 58.5984 132.481C58.306 132.359 58.0837 132.384 57.7821 132.31C57.2902 132.188 57.0772 132.814 57.4548 133.087C57.7658 133.311 57.9294 133.504 58.2847 133.677ZM65.198 144.308C65.3043 144.049 65.0817 143.735 64.8363 143.67C64.5423 143.593 64.3066 143.771 64.1993 144.032C63.9154 144.724 63.511 145.358 62.9905 145.894C62.5253 146.372 63.2572 147.106 63.7228 146.627C64.3751 145.955 64.8437 145.17 65.198 144.308ZM70.2843 127.667C70.7564 127.194 70.024 126.461 69.5521 126.934L68.2099 128.277C67.7379 128.75 68.4704 129.483 68.9422 129.01L70.2843 127.667ZM84.0537 125.476C85.0186 125.759 86.144 126.02 86.8018 126.844C86.8339 126.884 86.8879 126.833 86.8686 126.792C86.0264 125.044 83.6112 124.431 81.939 123.819C80.7563 123.386 79.5427 123.026 78.3189 122.706C78.4412 121.308 78.1039 119.81 77.9866 118.419C77.8614 116.934 77.7595 115.446 77.7073 113.956C77.6538 112.437 77.6408 110.907 77.6908 109.387C77.7405 107.873 77.9369 106.377 78.0228 104.868C78.0311 104.722 77.8282 104.715 77.7844 104.835C77.2762 106.236 77.0591 107.787 76.8937 109.264C76.7233 110.785 76.6668 112.302 76.6885 113.832C76.711 115.406 76.8024 116.975 76.9278 118.543C76.9873 119.287 77.0563 120.029 77.1214 120.772C77.1711 121.339 77.1941 121.901 77.3096 122.45C76.5715 122.268 75.8317 122.097 75.0942 121.93C72.7427 121.399 70.3813 120.906 68.0396 120.331C66.8901 120.049 65.7571 119.712 64.6128 119.412C63.5352 119.129 62.3979 118.787 61.2917 118.661C60.8969 118.616 60.8466 119.157 61.108 119.34C62.0071 119.972 63.2013 120.412 64.2398 120.766C65.2821 121.121 66.3656 121.377 67.4339 121.639C69.6618 122.188 71.9109 122.637 74.1565 123.104C76.3991 123.57 78.6459 124.034 80.8632 124.609C81.931 124.887 82.9952 125.165 84.0537 125.476ZM89.3413 97.7401C89.9179 98.079 90.4384 97.1826 89.8639 96.8449C89.1122 96.4033 88.3111 96.0714 87.5034 95.7476C86.8837 95.4993 86.617 96.5024 87.2281 96.7475C87.9539 97.0383 88.6659 97.3433 89.3413 97.7401ZM91.4287 136.257C92.0068 136.593 92.5277 135.697 91.9513 135.362C91.1417 134.892 90.2552 134.579 89.4162 134.168C88.8193 133.875 88.2951 134.77 88.8936 135.063C89.7325 135.474 90.6192 135.787 91.4287 136.257ZM92.3677 114.393C91.8087 114.925 91.0627 115.175 90.3593 115.454C89.746 115.698 90.015 116.7 90.6346 116.454C91.511 116.106 92.4037 115.788 93.1 115.126C93.5844 114.666 92.8508 113.934 92.3677 114.393ZM86.1839 84.7C85.5694 84.9413 85.8385 85.9436 86.4592 85.6999C87.1476 85.4295 87.8585 85.2237 88.5469 84.9534C89.1613 84.7121 88.8923 83.7099 88.2716 83.9536C87.5832 84.2239 86.8723 84.4297 86.1839 84.7ZM75.275 72.906C74.6221 72.7958 74.344 73.795 74.9997 73.9058C75.8131 74.0433 76.6141 74.2041 77.3856 74.503C78.0087 74.7443 78.276 73.7415 77.661 73.5033C76.8893 73.2044 76.0883 73.0435 75.275 72.906ZM71.6705 101.622C72.2692 101.327 71.7439 100.433 71.1479 100.727C70.5198 101.036 69.8691 101.275 69.1838 101.421C68.5313 101.56 68.8092 102.559 69.4592 102.42C70.2304 102.256 70.9642 101.969 71.6705 101.622ZM68.2663 85.4465C67.6216 85.2697 67.349 86.2701 67.991 86.4463C69.1204 86.756 70.2832 86.9171 71.4209 87.1928C72.0693 87.3498 72.3436 86.3499 71.6962 86.1931C70.5585 85.9173 69.3956 85.7565 68.2663 85.4465ZM53.8245 80.3705C53.169 80.492 53.4483 81.491 54.0997 81.3704C54.7931 81.2419 55.4959 81.2399 56.1989 81.2395C56.8664 81.2392 56.8652 80.2025 56.1989 80.2027C55.4002 80.2031 54.6118 80.2247 53.8245 80.3705ZM6.72379 85.7869C8.41566 85.6249 10.1101 85.4953 11.8072 85.3981C11.8863 85.3941 11.9638 85.3891 12.0429 85.385C12.0518 85.367 12.0635 85.35 12.0753 85.3319C12.6292 84.5181 13.0369 83.7043 13.3903 82.7841C13.7282 81.908 14.0557 81.0049 14.576 80.2144C15.1696 79.3137 15.9708 78.609 16.849 77.9982C17.3817 78.3568 17.8761 78.7767 18.3283 79.2217C18.8043 79.6899 19.5367 78.9569 19.0606 78.4886C18.6587 78.0931 18.2297 77.7278 17.7763 77.3977C18.2999 77.0791 18.8341 76.7798 19.3552 76.482C21.3087 75.3663 23.3086 74.3346 25.35 73.3913C26.2988 72.9519 27.2593 72.5618 28.2263 72.1665C28.7468 71.9541 29.2605 71.6805 29.7809 71.4344C29.7434 71.0663 29.8534 70.6542 30.1356 70.4118C30.344 70.2343 30.5058 70.1682 30.7544 70.0426C30.81 70.023 30.8437 70.0114 30.8592 70.0049C30.8476 70.0075 30.8139 70.0179 30.7584 70.036C30.6262 70.097 30.6159 70.0788 30.7272 69.9829C30.7337 69.7731 31.1467 69.3298 31.2411 69.1134C31.5699 68.3707 31.6721 67.5854 32.1576 66.9089C32.8268 65.9771 33.9504 65.6248 34.9978 65.9409C35.1064 64.8199 35.1349 63.6498 35.5569 62.6492C35.5685 62.6221 35.606 62.6103 35.6229 62.6401C36.063 63.3906 36.1005 64.2263 36.1342 65.092C36.1666 65.9046 36.1356 66.7353 36.0293 67.5426C36.0967 67.5945 36.1653 67.6438 36.2365 67.6917C36.5704 67.912 36.9303 68.0817 37.3083 68.2076C38.028 68.4459 38.7827 68.5496 39.5374 68.5859C41.4855 68.6792 43.4933 68.4822 45.4091 68.1478C47.3469 67.8096 50.3177 67.3016 52.042 66.3309C53.1799 65.6909 54.2296 64.9093 55.2938 64.1525C54.9079 62.9084 54.8095 61.571 55.1979 60.52C55.2445 60.3943 55.4412 60.3709 55.4788 60.52C55.7221 61.523 55.7933 62.5312 56.117 63.5226C56.1221 63.5369 56.1273 63.5526 56.1325 63.5667C56.2335 63.4981 56.3344 63.4306 56.4354 63.3632C56.6684 63.209 56.9856 63.3245 57.1254 63.5447C59.361 67.0709 62.9013 67.2731 66.619 67.903C70.6877 68.5923 74.7768 69.3362 78.6887 70.6853C82.4297 71.9761 86.005 73.8552 88.8373 76.6622C89.4785 77.2978 90.0781 77.9749 90.644 78.6818C90.0965 78.7509 89.5534 78.8585 89.0174 79.0271C88.3827 79.2266 88.6555 80.2272 89.2927 80.0267C89.9817 79.8101 90.6782 79.7029 91.3819 79.6495C93.3064 82.2852 94.8069 85.2737 96.1045 88.2154C98.5934 93.8554 100.213 99.8618 100.959 105.977C100.55 105.731 100.133 105.497 99.7059 105.28C99.1125 104.978 98.5891 105.872 99.1831 106.175C99.8428 106.511 100.484 106.881 101.104 107.283C101.376 109.959 101.481 112.653 101.417 115.343C101.266 121.755 100.401 128.356 98.4449 134.474C97.4857 137.476 96.2145 140.455 94.3207 142.992C93.4638 144.141 92.4903 145.178 91.3434 146.043C90.7881 146.462 90.2004 146.837 89.5804 147.153C88.7817 147.563 87.7409 147.697 87.0523 148.277C86.8257 148.467 86.651 148.719 86.5189 149.002C86.5953 149.542 86.6044 150.082 86.4568 150.621C86.4102 150.79 86.2833 150.927 86.1267 150.993C86.1241 151.04 86.1241 151.085 86.1241 151.129C86.1241 151.15 86.0931 151.155 86.0892 151.134C86.0827 151.094 86.0762 151.054 86.0698 151.013C86.0193 151.029 85.9662 151.037 85.9118 151.037C83.9455 151.045 81.9768 150.997 80.0079 150.93C80.1601 150.463 80.325 150 80.4833 149.533C80.6983 148.899 79.6978 148.629 79.4848 149.257C79.2995 149.803 79.1059 150.344 78.9336 150.892C76.824 150.814 74.715 150.719 72.6098 150.65C68.1323 150.501 63.656 150.451 59.1772 150.357C52.2219 150.209 45.216 149.907 38.2499 150.203C38.009 149.691 37.7393 149.191 37.4837 148.686C37.1821 148.09 36.2889 148.615 36.5895 149.209C36.7672 149.56 36.9513 149.906 37.1262 150.256C35.7153 150.33 34.3059 150.427 32.8994 150.559C30.4995 150.784 28.1227 151.185 25.7253 151.434C23.288 151.688 20.9034 151.642 18.4854 151.239C18.0504 151.167 17.7941 150.904 17.688 150.577C17.6842 150.576 17.6815 150.573 17.679 150.569C17.5548 150.424 17.4381 150.304 17.3179 150.199C17.1741 150.105 17.0187 150.026 16.8362 149.956C16.4958 149.827 16.1411 149.748 15.7812 149.694C15.3851 149.635 14.9838 149.63 14.5877 149.581C14.2539 149.538 13.9275 149.474 13.6014 149.397C13.0149 149.257 12.4583 149.074 11.9043 148.831C11.4214 148.62 10.9853 148.317 10.5735 147.986C9.72179 147.363 8.98406 146.567 8.33929 145.741C7.96389 145.257 7.6105 144.756 7.28947 144.234C6.73026 143.329 6.2539 142.389 5.77235 141.442C5.5976 141.161 5.43812 140.874 5.29236 140.58C6.23344 140.303 7.18358 140.076 8.18123 140.06C8.84814 140.05 8.84801 139.013 8.18123 139.024C7.03705 139.042 5.95474 139.309 4.87943 139.628C4.827 139.489 4.77677 139.349 4.73029 139.206C4.60214 138.91 4.49599 138.605 4.40797 138.297C4.35632 138.157 4.30441 138.017 4.25263 137.877C4.13613 137.392 4.01964 136.906 3.90184 136.42C3.66754 135.643 3.48255 134.853 3.3465 134.054C3.23259 133.528 3.14457 132.998 3.08503 132.461C2.9038 131.161 2.75623 129.864 2.74587 128.55C2.76141 127.74 2.81318 126.931 2.90121 126.127C2.93874 125.58 3.00217 125.035 3.08761 124.495C3.19894 123.692 3.30897 122.896 3.49408 122.103C3.63258 121.566 3.7711 121.03 3.90961 120.493C4.25523 119.375 4.66299 118.278 5.13301 117.207C5.15877 117.139 5.28963 116.992 5.36847 116.99C5.42802 116.989 5.511 117.043 5.48382 117.116C5.48109 117.122 5.47863 117.13 5.47591 117.137C5.5031 117.076 5.52898 117.014 5.55617 116.953C5.57947 116.896 5.67009 116.782 5.73999 116.783C5.74387 116.783 5.74789 116.783 5.75293 116.784C5.73481 116.771 5.71798 116.754 5.70115 116.735C5.23643 116.184 4.93482 115.46 4.60214 114.822C4.32642 114.296 4.06624 113.741 3.99116 113.147C3.92527 112.624 4.01445 112.11 4.34196 111.687C4.71476 111.207 5.41637 110.981 5.02673 110.286C4.58402 109.496 3.93291 108.81 4.58144 107.912C4.91153 107.455 5.43449 107.204 5.82283 106.806C6.26942 106.345 6.48185 105.73 6.47007 105.101C6.44289 105.117 6.40664 105.109 6.3937 105.07C6.0183 103.935 6.29014 102.688 6.6746 101.583C6.8843 100.983 7.32843 100.818 7.8448 100.789C5.60808 96.4149 3.51492 91.971 1.64945 87.4248C1.58732 87.2758 1.52648 87.1269 1.46577 86.9777C1.37502 86.7548 1.56661 86.4582 1.78796 86.4088C3.40088 86.055 5.0811 85.9423 6.72379 85.7869Z" fill="#1A1A1A"></path> <path fill-rule="evenodd" clip-rule="evenodd" d="M56.9453 7.71619L55.8296 9.04732C56.4474 9.48407 57.0306 9.92293 57.5791 10.3639L57.5796 10.3626C55.0387 8.69934 52.2246 7.71619 49.1845 7.71619C43.3293 7.71619 31.436 12.7622 28.7474 16.4018C27.4131 18.2081 24.9337 23.7531 23.6476 29.7815C22.6142 34.6252 21.0772 48.3094 22.6142 53.4514C24.5813 60.0322 31.053 66.1144 37.7262 66.1144C44.3994 66.1144 54.7596 61.2811 62.1332 50.6892C62.4704 50.2049 66.3422 49.6435 69.1043 47.8257L68.3791 55.8408L67.8279 60.5032L67.9495 60.835C69.9278 66.2024 71.4954 69.0025 72.6524 69.2355C73.833 69.4733 76.2373 67.5317 79.8654 63.4108L80.329 61.4587C81.5065 56.479 82.0952 53.806 82.0952 53.4398L82.0944 53.3731C82.077 52.5303 81.7877 47.7601 81.7817 46.4764L81.7816 27.2365C77.8797 14.2229 74.1563 7.71619 70.6112 7.71619H56.9453Z" fill="#D08B5B"></path> <path fill-rule="evenodd" clip-rule="evenodd" d="M66.1909 3.28419C65.0437 2.83839 63.7147 2.92263 62.6257 3.59392C60.4878 3.50191 58.3616 4.75637 57.2469 6.58753C57.2237 6.61345 57.199 6.63936 57.177 6.66528L56.9408 6.94151C56.7171 7.20529 56.4812 7.49603 56.2943 7.79624C57.2098 7.81724 57.9726 8.19163 58.5051 8.94781C58.885 9.48736 58.0147 10.0001 57.6264 9.48977L57.6127 9.47111C57.293 9.01714 56.8104 8.84128 56.2732 8.83208C56.119 8.82949 56.0019 8.77027 55.9193 8.68292C55.8863 8.80331 55.8569 8.925 55.8299 9.04721C53.1247 7.99167 50.2085 7.71214 47.304 7.96251C47.4314 8.16934 47.5378 8.39095 47.6197 8.62383C47.7126 8.88781 47.5144 9.19093 47.2588 9.26143C46.9824 9.33763 46.7325 9.1751 46.6325 8.92392L46.6233 8.89934C46.5116 8.5821 46.3294 8.30982 46.0847 8.09871C44.7174 8.28468 43.3598 8.58041 42.0354 8.96168C40.4436 9.42031 38.8667 9.98002 37.3247 10.6209C37.5858 10.7236 37.8115 10.8973 37.9695 11.1872C38.2849 11.7658 37.4178 12.2842 37.0888 11.7309L37.0772 11.7105C37.0449 11.6512 37.0163 11.6155 36.9954 11.5952L36.9879 11.5883L36.9424 11.5673L36.8577 11.5429L36.8252 11.5349C36.7965 11.5284 36.7845 11.5288 36.709 11.5246C36.6085 11.5189 36.5079 11.5195 36.4073 11.5193C36.1706 11.5192 36.0196 11.3869 35.9513 11.2176C35.1903 11.5622 34.439 11.9251 33.7011 12.3052L33.5256 12.3963C31.2477 13.5903 29.0897 15.1584 27.8379 17.4656C27.7551 17.6198 27.7294 17.7883 27.7499 17.949C27.4826 18.2704 27.2243 18.6021 26.9763 18.9391C26.2193 19.9706 25.6651 21.1435 25.1407 22.3059C24.0854 24.6438 23.3749 27.0451 22.8207 29.5489C22.2845 31.9619 21.8519 34.4009 21.4501 36.8398C21.0045 39.5496 20.6338 42.2827 20.5562 45.0314C20.4193 49.9313 21.374 54.8598 24.1164 58.9847C26.5628 62.6652 30.2468 65.5875 34.6156 66.5232C39.0592 67.4744 43.7611 66.5465 47.2629 63.5762C47.8275 63.098 47.7499 62.1325 47.2629 61.6427C46.7113 61.0906 45.8977 61.1671 45.3358 61.6427C42.038 64.4406 37.2379 64.8721 33.2643 63.4466C29.5906 62.1274 26.7127 59.0845 24.9469 55.6671C22.7923 51.4994 22.4292 46.7122 22.76 42.1013C22.9407 39.569 23.3168 37.0575 23.7043 34.5499L23.9382 33.0404C24.1934 31.4055 24.4615 29.7728 24.8112 28.1545L24.893 27.7774C25.3204 25.8259 25.821 23.8243 26.5951 21.9897C27.0008 21.0268 27.489 20.0989 27.9889 19.1827C28.0857 19.0052 28.1853 18.825 28.2874 18.6436C28.4243 18.6915 28.5806 18.6993 28.7447 18.6475C30.1565 18.2069 31.6072 17.9114 33.0835 17.8129C33.7561 17.7678 34.4297 17.7608 35.1026 17.7871C36.2544 17.7199 37.4385 17.8215 38.5357 18.1758C38.643 18.0834 38.7518 17.9929 38.8607 17.9025C38.89 17.9001 38.9193 17.897 38.9488 17.8912C39.2287 17.836 39.4255 17.6364 39.5441 17.3843C39.5503 17.371 39.5559 17.3576 39.5612 17.3443C39.7016 17.2366 39.8432 17.1306 39.986 17.026C40.3343 17.1166 40.6394 16.8259 40.7215 16.5074C40.799 16.4549 40.8778 16.4041 40.9561 16.3526C41.0175 16.3677 41.0785 16.3801 41.1379 16.3845C41.3943 16.4031 41.6419 16.3637 41.8691 16.2409C42.1568 16.0856 42.3406 15.8349 42.4636 15.5502C42.8986 15.577 43.3389 15.4354 43.7278 15.1793C44.0435 14.9716 44.2853 14.6848 44.5257 14.3985C47.4551 13.0877 50.6395 12.3137 53.8314 12.1155C54.1458 12.1761 54.458 12.2483 54.7664 12.3323C54.8394 12.3522 54.943 12.3914 55.0622 12.4383C54.3506 12.352 53.6298 12.3434 52.8988 12.449C49.4299 12.9522 46.7283 15.5579 44.403 18.0174C43.8499 17.9053 43.2908 18.6239 43.8027 19.0998L47.7938 22.8102C47.6959 23.2251 48.1702 23.6341 48.5858 23.5345C49.2826 23.3665 49.9805 23.2032 50.6789 23.0426C51.4075 23.3963 52.3234 23.3358 52.9843 22.8231C53.015 22.7993 53.0818 22.7612 53.1398 22.7233C53.1941 22.7683 53.2671 22.8134 53.2961 22.8326C53.5311 22.9886 53.8173 23.0345 54.0918 22.9907C54.3742 22.9457 54.6291 22.802 54.8488 22.623C54.9887 22.509 55.3146 22.0333 55.496 21.9983L55.5137 21.9963C55.3926 21.9998 55.7817 22.3625 55.8862 22.4376C56.1301 22.6121 56.3997 22.7039 56.7031 22.6705C57.2319 22.6121 57.6866 22.1286 57.9452 21.6821L57.9647 21.6478L57.9729 21.6266L57.9797 21.6496C57.981 21.6536 57.9825 21.658 57.9842 21.6629C58.023 21.768 58.1447 21.8874 58.2273 21.9609C58.463 22.17 58.7546 22.2618 59.0662 22.2073C59.3299 22.1612 59.5517 22.0014 59.7299 21.808L59.7577 21.7772C59.8104 21.7175 60.1578 21.2492 60.103 21.137L60.0966 21.1275L60.1139 21.1239C60.3253 21.176 60.5026 21.1238 60.6326 21.0145C61.3577 20.8551 62.0735 20.6694 62.7664 20.4333C62.8206 20.5862 62.8737 20.7391 62.9253 20.8933C62.5469 21.1279 62.1969 21.4623 61.8752 21.7007C61.2654 22.1517 60.6558 22.6027 60.0474 23.055L57.6368 24.8389L57.3611 24.7647C57.0088 24.6698 56.7066 24.8755 56.5773 25.19L56.5667 25.2172C56.5154 25.355 56.4537 25.4824 56.3811 25.6043C55.7785 25.5802 55.2682 25.9514 55.1033 26.4837C54.9545 26.4804 54.8041 26.4861 54.6504 26.503C54.2294 26.5494 53.9457 26.863 54.0219 27.2937L54.0276 27.3232L54.0378 27.3712C53.7938 27.4751 53.6169 27.6759 53.5776 27.9794C53.5122 28.078 53.4595 28.1853 53.4258 28.3048C53.2497 28.9248 53.5923 29.6912 53.7747 30.2851L53.7888 30.3316C53.9059 30.722 54.0271 31.1104 54.1497 31.4987L54.4551 32.4627C55.302 35.1495 56.1277 37.9822 55.4424 40.7989C55.2963 41.395 56.0559 41.6646 56.3853 41.198C57.1839 40.0685 58.0466 39.0041 58.9525 37.9824L58.9964 37.9754C59.6308 37.8475 59.8772 37.398 60.1683 36.9397C60.3399 36.9904 60.5243 37.0023 60.7026 36.9678C60.9607 36.9179 61.1919 36.7701 61.3744 36.5833C61.529 36.425 61.6707 36.0188 61.8535 35.9181C62.0822 35.7923 62.5418 35.9722 62.8148 35.9317C63.0369 35.899 63.2442 35.8225 63.4453 35.7265C63.815 36.232 64.0601 36.8263 64.1201 37.467C64.1435 37.7107 64.2159 37.9167 64.3205 38.0878C63.9355 38.0735 63.5493 38.1007 63.1681 38.172C61.7575 38.4351 60.7461 39.3086 60.1777 40.6097C60.1533 40.6667 60.227 40.7133 60.2605 40.6589C61.1039 39.3565 62.9396 39.2904 64.2727 39.7492C65.6884 40.2364 66.4829 41.487 66.7656 42.9138C67.0756 44.478 66.6779 46.164 65.8291 47.4963C65.4353 48.1157 64.8978 48.6807 64.1836 48.9088C63.3348 49.1797 62.5508 48.695 61.6815 48.9451C61.0898 49.1149 60.8288 49.689 60.9361 50.2631C60.9788 50.4886 61.0575 50.6856 61.1635 50.8566C60.8507 51.4787 60.5615 52.1189 60.1934 52.7072C59.625 53.6157 58.9377 54.3673 58.1886 55.1254C57.4148 55.9082 56.6269 56.6754 55.7989 57.4011C55.0056 58.097 54.0962 58.5921 53.2643 59.2297C52.6805 59.6767 52.3913 60.304 52.6793 61.0219C52.9169 61.6155 53.7179 62.1209 54.3663 61.8526C55.6077 61.3394 56.694 60.466 57.6834 59.5666C58.6005 58.732 59.399 57.7341 60.0022 56.6507C60.5713 55.6293 60.9906 54.4694 61.3443 53.3521L61.3882 53.2126C61.5549 52.6813 61.7304 52.0839 61.8441 51.4813C62.5248 51.8545 63.4486 51.9089 64.177 51.8078C65.3539 51.6458 66.4273 51.051 67.2385 50.184C67.6166 49.7806 67.9508 49.3204 68.2394 48.8216C68.2131 49.1253 68.1975 49.419 68.1807 49.6864C67.5063 50.4274 67.2358 51.4968 67.4752 52.4725C66.9109 53.0552 66.7528 53.9298 67.0473 54.6744C66.4298 55.289 66.453 56.2669 66.72 57.155C65.9899 57.9736 65.9208 59.249 66.4909 60.1727L66.508 60.2391C65.9324 61.2053 66.0623 62.4541 66.7834 63.3073C66.2909 64.2658 66.3671 65.555 67.598 65.9269C68.0466 66.0623 68.4814 65.9467 68.8068 65.6945C68.5097 67.177 68.3768 68.6819 68.773 70.1712C68.9307 70.7622 69.5068 71.1937 70.1126 71.1937C70.619 71.1937 70.9872 70.9384 71.2415 70.5626C71.2118 71.3103 71.257 72.062 71.4159 72.8201C71.5117 73.278 71.935 73.635 72.3844 73.7455C72.2223 73.9289 72.1577 74.1942 72.3131 74.4704C72.972 75.6406 74.5641 75.1553 74.6717 74.0341C75.1214 73.6974 75.3304 73.1446 75.4169 72.5473C75.543 71.6762 75.5887 70.8195 75.7316 69.9595L75.7862 70.0107L75.8144 70.0351L75.8234 70.0974C75.9053 70.5224 76.1443 70.8201 76.4544 70.9976C76.387 71.7392 76.5118 72.4943 76.9807 73.0574C77.293 73.4327 77.8251 73.5804 78.2812 73.499C78.3099 73.5005 78.3392 73.5003 78.3697 73.4963C79.4027 73.3586 80.0004 72.3756 79.7285 71.4734C80.1444 70.962 80.3196 70.3131 80.1965 69.6719C81.0014 69.1372 80.985 67.9628 80.7062 67.0195C81.55 66.3515 81.8674 65.1026 81.4434 64.11C82.2039 63.1626 82.3096 61.8423 81.793 60.7634C82.6296 60.0738 82.6248 58.7425 81.795 58.0373C82.2369 57.1572 82.5034 56.1027 82.0618 55.2973C82.3733 54.9523 82.5444 54.4606 82.5083 53.9855C82.4555 53.2878 81.9954 52.8057 81.4244 52.4844L81.3849 52.2662C81.2508 52.2829 81.1079 52.2453 80.982 52.124C80.8573 52.0039 80.7291 51.9071 80.5964 51.8273C80.4462 51.8253 80.3169 51.7582 80.2259 51.6549C79.9772 51.5702 79.7096 51.5327 79.4129 51.5293C78.7721 51.5223 78.7495 50.5609 79.3459 50.4986C79.44 50.4033 79.5697 50.3433 79.7104 50.3433L79.8206 50.3438C80.0781 50.3462 80.3381 50.3621 80.577 50.4649C80.7323 50.5315 80.852 50.6319 80.9398 50.7548C80.9562 50.9406 81.0569 51.1259 81.2751 51.279C81.5271 51.4557 81.8717 51.4763 82.1415 51.3164C82.519 51.0925 82.5229 50.743 82.4794 50.363C82.3841 49.5318 82.8604 48.7496 82.747 47.8992C82.6968 47.5232 82.572 47.1986 82.3686 46.9364C82.7975 46.2922 82.8732 45.4606 82.5429 44.7534C83.231 44.0107 83.35 42.8659 82.9112 41.9721C82.9049 41.9505 82.9 41.9283 82.8931 41.9069C82.8435 41.755 82.7752 41.618 82.6999 41.487C83.0851 40.8175 83.0822 39.9961 82.6907 39.3294C83.2838 38.6358 83.3026 37.5321 82.7752 36.7849C82.7721 36.7229 82.7656 36.661 82.7603 36.599C83.0024 35.9685 82.9443 35.2518 82.6372 34.6655C82.7468 34.4121 82.8313 34.1393 82.8852 33.8488C83.0236 33.0997 82.9524 32.3714 82.7457 31.6405C82.7123 31.5252 82.6748 31.4098 82.6348 31.2945C82.6281 30.7939 82.6091 30.2955 82.584 29.798C82.6822 29.3768 82.6981 28.914 82.7002 28.4843L82.7009 28.2057C82.7057 27.4967 82.7549 26.4586 82.3081 25.8559C82.595 25.2048 82.4771 24.3845 81.9982 23.8684C82.3343 23.2885 82.4049 22.5764 82.0671 21.9329C82.0128 21.8294 81.9499 21.733 81.8809 21.6417C81.9088 21.0525 81.7852 20.4448 81.4722 19.8592C81.2689 19.4779 80.9652 19.1478 80.6042 18.8837C80.6102 18.8056 80.614 18.7276 80.6127 18.6507C80.6064 18.3078 80.5305 17.9635 80.4029 17.6422C80.6319 17.2501 80.7381 16.808 80.6042 16.3317C80.4543 15.7925 80.0602 15.3286 79.5682 15.0668C79.5285 14.5586 79.4493 14.0533 79.3362 13.5547C79.6386 12.8792 79.3978 11.9876 78.7143 11.5896C78.8035 11.0497 78.7231 10.4898 78.3315 10.0681C78.1831 9.90836 78.0082 9.78719 77.8199 9.70684C77.9106 9.16397 77.8083 8.5992 77.4341 8.15716C77.1285 7.79624 76.6756 7.57697 76.2147 7.5447C76.0372 6.60049 75.138 5.89446 74.1894 5.9507C74.0708 5.53497 73.7875 5.1725 73.3481 4.98873C73.2356 4.94169 73.1219 4.91072 73.0086 4.89348C72.2372 4.11281 71.0887 3.58368 70.0944 3.3127C69.0971 3.04198 68.0861 3.01577 67.2299 3.33053L67.1675 3.35417L67.0977 3.3451C66.7953 3.31141 66.4932 3.29197 66.1909 3.28419ZM73.7699 67.2691C74.0363 67.1857 74.3334 67.3677 74.4056 67.631C74.4818 67.9094 74.3121 68.1852 74.0447 68.2688C73.7115 68.3729 73.3616 68.399 73.0144 68.3993C72.7352 68.3995 72.4977 68.1608 72.4977 67.8809C72.4977 67.5995 72.7342 67.3628 73.0144 67.3625C73.2968 67.3623 73.5053 67.3519 73.7699 67.2691ZM76.1391 61.7641C76.5373 61.7645 76.8789 61.8599 77.1742 62.1398C77.371 62.3266 77.3759 62.6872 77.1742 62.8731C76.9704 63.0606 76.6747 63.0716 76.4655 62.8929L76.4252 62.8567C76.4204 62.8523 76.4166 62.8488 76.4136 62.8458C76.3968 62.835 76.3799 62.8238 76.362 62.8145L76.3957 62.8366C76.4214 62.8552 76.3619 62.8248 76.3285 62.8105L76.318 62.8062L76.3146 62.8054L76.2879 62.8033C76.2384 62.8007 76.1887 62.8009 76.1391 62.8009C75.8688 62.8006 75.61 62.5627 75.6224 62.2825C75.635 62.0018 75.8495 61.7639 76.1391 61.7641ZM68.6236 58.4753C68.0643 58.1312 68.5639 57.2512 69.1248 57.5681L69.1451 57.5801C69.4326 57.7571 69.7863 57.7331 70.1121 57.7333C70.777 57.7336 70.7781 58.7704 70.1121 58.77L70.002 58.7696C69.5245 58.7659 69.0414 58.7325 68.6236 58.4753ZM73.0253 54.6913C73.4479 54.6115 73.9212 54.5403 74.3658 54.5889L74.4396 54.5981H74.5764C74.6953 54.5981 74.8103 54.646 74.9027 54.7215C75.0489 54.7824 75.1874 54.864 75.3137 54.9738C75.8171 55.4117 75.0836 56.1423 74.583 55.707C74.5552 55.6828 74.5229 55.6628 74.4871 55.6465L74.4595 55.6349H73.9068C73.8565 55.6349 73.8076 55.6244 73.7599 55.6092C73.5805 55.6339 73.4133 55.6696 73.3 55.691C72.65 55.8137 72.3715 54.8147 73.0253 54.6913ZM73.4977 44.7411C74.3076 44.3642 75.2046 44.367 75.9537 44.8903C76.4893 45.2645 75.9918 46.147 75.4515 45.7985L75.4322 45.7855C75.365 45.7386 75.296 45.6993 75.2263 45.6637C74.846 45.774 74.4632 45.7792 74.0956 45.6435L74.0477 45.6251L74.0192 45.6362C73.4198 45.9151 72.8943 45.0218 73.4977 44.7411ZM64.6775 43.1167C65.4957 43.0247 65.5022 41.728 64.6775 41.8208C62.9361 42.0167 61.356 42.7933 60.1987 44.1271C59.6605 44.7474 60.5469 45.6549 61.0953 45.0623L61.1121 45.0435C62.0324 43.9829 63.2743 43.2745 64.6775 43.1167ZM73.8435 36.4592C74.0254 36.4392 74.2069 36.4293 74.3855 36.438C74.8147 36.4587 75.3373 36.7459 75.149 37.2648C74.9979 37.6805 74.503 37.697 74.2586 37.4752C74.1569 37.4777 74.0554 37.4844 73.9542 37.4948C73.6844 37.5227 73.4171 37.5742 73.1511 37.6269C72.5015 37.755 72.2234 36.756 72.8764 36.627L73.1652 36.5697C73.2625 36.5506 73.3607 36.5319 73.4594 36.5148C73.5184 36.4854 73.5817 36.4655 73.6493 36.4605L73.6835 36.4592H73.8435ZM78.9776 28.416L79.0383 28.4077C79.9109 28.2958 81.3116 28.3988 81.4174 29.5131C81.476 30.1303 80.5872 30.169 80.4118 29.6413C79.7675 29.5248 79.1179 29.5025 78.478 29.5733C78.2338 29.3244 78.2319 28.8461 78.6383 28.7268C78.6956 28.572 78.8154 28.4395 78.9776 28.416ZM59.0326 26.5339C59.2342 26.3482 59.5649 26.3236 59.7633 26.5339C59.8777 26.6549 59.9731 26.7894 60.0487 26.9374L60.099 27.0374C60.1075 27.054 60.1162 27.0704 60.1253 27.0867C60.1422 27.1169 60.1612 27.1457 60.1797 27.175L60.1921 27.1872C60.197 27.1923 60.2028 27.1983 60.2098 27.2057C60.3956 27.4028 60.4193 27.7458 60.2098 27.9388C60.0081 28.1245 59.6776 28.1491 59.479 27.9388C59.3648 27.8178 59.2694 27.6834 59.1937 27.5353L59.1435 27.4354C59.135 27.4189 59.1263 27.4024 59.1172 27.3861C59.1003 27.3558 59.0812 27.327 59.0628 27.2977L59.0422 27.2771C59.0393 27.2741 59.0361 27.2707 59.0326 27.267C58.8467 27.07 58.8232 26.7269 59.0326 26.5339ZM69.6285 25.1839C70.3565 24.6663 71.2222 24.6422 71.8915 25.2649C72.3745 25.7144 71.6648 26.4345 71.1778 26.0134L71.1607 25.998C71.143 25.9814 71.1251 25.9669 71.1073 25.9531C71.0199 26.0277 70.909 26.075 70.7821 26.0751C70.749 26.0752 70.7159 26.0751 70.6828 26.0758L70.6332 26.0776L70.6066 26.0798L70.6032 26.0805L70.58 26.0904C70.5375 26.1096 70.4788 26.1393 70.5593 26.0887C70.5413 26.0982 70.5245 26.1094 70.5075 26.1202L70.4778 26.1473C70.283 26.3321 69.946 26.3565 69.7526 26.1521C69.4102 26.036 69.2284 25.4681 69.6285 25.1839ZM62.5105 23.4857L62.4973 23.4815C61.8589 23.2986 62.1303 22.298 62.772 22.4817C63.4529 22.6767 63.778 23.3124 63.9142 23.9634C63.9714 24.2373 63.8341 24.5238 63.5533 24.6012C63.2967 24.6718 62.9752 24.5143 62.9176 24.2391C62.8772 24.0455 62.8306 23.8813 62.7569 23.7289L62.7122 23.6419C62.6914 23.6022 62.6841 23.5957 62.6137 23.534C62.6018 23.5236 62.5481 23.4985 62.5105 23.4857ZM73.3231 18.2642L73.4229 18.2413C74.0448 18.1047 74.8703 18.0333 75.2458 18.6518C75.5881 19.2153 74.7246 19.7282 74.369 19.1956C74.3636 19.1954 74.3573 19.1954 74.3501 19.196L74.3384 19.1974L74.179 19.1844C73.9804 19.183 73.7904 19.2182 73.5978 19.264C72.9512 19.4175 72.6751 18.4181 73.3231 18.2642ZM50.9969 14.2786C50.5261 13.8063 51.2566 13.0729 51.7275 13.5457C52.0999 13.9193 52.4592 14.2955 52.7012 14.7702C52.8282 15.0193 52.7661 15.3326 52.5159 15.4795C52.285 15.6149 51.9365 15.5436 51.8089 15.2935C51.5991 14.882 51.3343 14.6174 50.9969 14.2786ZM56.9387 13.0387C57.4038 13.315 57.7049 13.7701 57.8877 14.2969C57.9794 14.5613 57.7832 14.8639 57.5268 14.9345C57.2512 15.0104 56.9995 14.8485 56.9004 14.597L56.8913 14.5724C56.8423 14.4315 56.764 14.2651 56.6673 14.1396C56.5846 14.0324 56.4561 13.9251 56.3592 13.8894C56.1263 13.8036 55.9612 13.5919 55.9828 13.3446C56.3658 13.4775 56.7214 13.3177 56.9387 13.0387ZM70.863 10.7837C71.3323 10.3467 71.9619 10.2888 72.5308 10.5533C72.7841 10.671 72.8475 11.0374 72.7162 11.2626C72.5643 11.5232 72.2634 11.5667 72.0093 11.4486C72.0746 11.4789 71.9568 11.4388 71.9059 11.4242C71.8994 11.4272 71.8141 11.4233 71.7846 11.4237L71.7492 11.426C71.749 11.4262 71.7576 11.4261 71.7753 11.4255C71.7505 11.4311 71.726 11.4378 71.7018 11.4455L71.671 11.4562C71.6865 11.453 71.6167 11.4986 71.5973 11.5138L71.5938 11.5167C71.1068 11.9702 70.3743 11.2387 70.863 10.7837Z" fill="#1A1A1A"></path> <path fill-rule="evenodd" clip-rule="evenodd" d="M33.2767 50.741C32.8325 49.9565 31.5073 50.084 31.3047 50.9991C30.8937 52.8541 33.1032 54.567 34.7814 54.6098C36.449 54.6522 38.3202 53.2312 38.0788 51.4363C38.0191 50.9923 37.4268 51.0462 37.2248 51.3246L37.1464 51.4314C36.5979 52.1691 35.8742 52.9326 34.8563 52.7527C34.4345 52.6783 34.0513 52.4145 33.7963 52.0748C33.4887 51.6649 33.5225 51.1754 33.2767 50.741ZM43.8807 37.1699C43.6547 37.1076 43.4266 37.1317 43.2263 37.217C42.7792 37.299 42.4058 37.6722 42.2745 38.0984C42.2642 38.1352 42.2526 38.1717 42.2399 38.2077L42.2199 38.2615L42.2735 38.1249C42.2488 38.2594 42.1394 38.4008 42.1 38.5359C42.0516 38.7019 42.0398 38.8904 42.0561 39.0732C41.914 39.0746 41.7719 39.0794 41.63 39.0917L41.4929 39.104C40.7262 39.1753 39.8844 39.3062 39.4299 39.9694C39.1746 40.3421 39.4143 41.0132 39.8832 41.085C40.6052 41.1955 41.227 40.7956 41.9465 40.7155C42.6266 40.6397 43.3383 40.6831 44.0096 40.8061C45.3956 41.0597 46.6692 41.6221 48.0198 41.975L48.2037 42.0218L48.2035 42.0209C48.4349 42.0769 48.6977 41.7547 48.4687 41.5663C47.3866 40.6763 46.0013 39.9552 44.6365 39.516C44.8354 39.1994 44.8969 38.7823 44.7609 38.4424C44.7399 38.372 44.7138 38.3035 44.6862 38.2352L44.6288 38.0947C44.6232 38.0285 44.6105 37.9631 44.5921 37.8989L44.5892 37.8793L44.5875 37.8805C44.4859 37.5499 44.2205 37.2638 43.8807 37.1699ZM30.076 37.2211C29.78 36.9247 29.3642 36.9685 29.0554 37.2018L29.0144 37.234C28.7232 37.3634 28.4823 37.6463 28.3242 37.9085C28.1599 38.1808 28.0508 38.4581 28.0465 38.7579C27.3301 38.7602 26.6439 38.9753 26.118 39.5543C25.9482 39.7412 25.8322 40.0294 25.9256 40.2828L25.9813 40.4335C26.1579 40.912 26.9519 41.1875 27.2218 40.6247L27.2342 40.5973C27.5209 39.9291 28.6216 39.9992 29.2066 40.0675C29.6144 40.1153 30.0171 40.2168 30.4108 40.3305C30.5496 40.3705 30.6871 40.414 30.8244 40.4584L30.9618 40.503C31.035 40.5267 31.4166 40.7342 31.1792 40.685C31.1154 40.6718 31.0674 40.7649 31.1325 40.7961C31.4155 40.9315 31.7174 40.6618 31.6985 40.3576C31.6657 39.8294 30.8279 39.5398 30.4247 39.3576L30.4006 39.3466C30.2461 39.2751 30.0841 39.2065 29.917 39.1429C30.011 39.0029 30.0886 38.8474 30.1532 38.6805C30.2143 38.5229 30.2551 38.3697 30.2775 38.2022C30.2995 38.1203 30.2995 38.0384 30.2775 37.9563L30.2741 37.9329C30.2855 37.8787 30.291 37.8227 30.2902 37.7663L30.2925 37.7444H30.2902C30.2823 37.5471 30.204 37.3493 30.076 37.2211ZM34.8042 42.8461C33.6672 43.1978 31.7916 44.1559 32.384 45.6347C33.2113 46.9929 35.4053 45.9947 36.4685 45.5559C37.4237 45.2392 37.921 46.5793 36.9974 46.9833C29.3653 50.006 29.3934 42.0284 34.5274 42.1455C35.0927 42.1584 35.1105 42.7292 34.8042 42.8461ZM44.9018 32.4437L44.7078 32.387C43.7001 32.0948 42.6714 31.5901 41.7766 32.3776C41.4253 32.6868 41.3529 33.3293 41.6043 33.715C42.177 34.5937 43.0263 34.4595 43.9512 34.5344C44.6554 34.5914 45.3491 34.7985 46.0064 35.0573C46.5436 35.2689 47.0419 35.5668 47.5123 35.8991C47.9744 36.2258 48.2901 36.7366 48.7642 37.0306C48.9379 37.1384 49.1385 37.0275 49.2009 36.8527C49.422 36.2326 49.0484 35.4601 48.7323 34.9317C48.3464 34.2871 47.7603 33.7599 47.13 33.361C46.4399 32.9242 45.6767 32.6719 44.9018 32.4437ZM30.2177 31.7767C28.5143 31.7762 26.8753 32.7247 25.9225 34.1151C25.5988 34.5875 25.8361 35.2873 26.3008 35.5593C26.8221 35.8646 27.3796 35.6448 27.7231 35.2073L27.7435 35.1808C28.2899 34.4523 28.9942 33.8786 29.8291 33.5051C30.2365 33.3228 30.687 33.1749 31.1276 33.0999L31.27 33.0755C31.4696 33.042 31.7011 33.01 31.8816 33.0413C31.9783 33.054 32.0671 33.086 32.149 33.1347C32.1096 33.2208 32.2112 33.3245 32.3051 33.2729C32.7284 33.0401 32.6765 32.6249 32.3268 32.3022C31.8322 31.8457 30.8566 31.7769 30.2177 31.7767Z" fill="#1A1A1A"></path> <path fill-rule="evenodd" clip-rule="evenodd" d="M22.5612 43.6291C24.1328 45.2548 26.7564 45.7214 28.8474 44.8495C34.2164 42.6037 31.5884 35.5992 27.4478 33.7182C26.9305 33.5891 26.2397 33.2829 25.6097 33.2134C25.5527 33.1854 25.4287 33.2664 25.2784 33.1898C20.7127 33.7001 19.6729 40.7956 22.5612 43.6291ZM39.8785 44.045C41.6411 46.3856 44.9182 47.1077 47.5957 46.0197C52.8852 43.9342 51.0091 37.723 47.3901 35.2879C39.7454 32.4121 36.5886 39.7294 39.8785 44.045ZM51.3452 38.8595C51.3501 38.8571 51.355 38.8559 51.3601 38.8536C51.3321 38.8412 51.3041 38.8289 51.2763 38.8162C51.2854 38.8401 51.2952 38.8636 51.304 38.8875C51.3177 38.878 51.3298 38.8669 51.3452 38.8595ZM18.9224 36.329C19.354 36.3299 19.9774 36.4009 20.3347 36.7007C21.2157 33.7261 24.4677 30.9732 27.2958 32.9806C29.523 33.6976 31.1756 35.2879 32.1149 37.402C33.8084 36.3936 36.4714 36.8242 37.94 38.1578C38.9018 34.9762 41.2689 33.8621 44.0863 33.6976C47.1614 33.1934 50.2265 36.1832 51.1829 38.5817C51.978 38.4912 53.1662 38.2378 53.9143 38.7291C58.7695 37.4544 67.258 36.7516 68.245 37.4598C68.9485 37.7301 69.3345 39.3922 68.352 39.4819C67.4958 39.3602 68.4519 38.264 67.5889 38.1444C62.9905 37.859 58.5265 38.7861 53.9768 39.1751C53.5706 39.7222 52.2582 39.9051 51.558 39.6854C52.6608 43.7541 50.2802 46.5222 46.7133 47.3513C41.1902 48.6215 36.385 43.6751 37.8292 38.5303C36.1561 37.697 34.2316 37.7328 32.409 38.1717C35.4546 49.3932 17.4023 48.8897 20.2218 37.0852C18.3454 38.0196 17.938 36.5176 18.9224 36.329Z" fill="#1A1A1A"></path> </g> <defs> <clipPath id="clip0"> <rect width="106" height="149" fill="white" transform="matrix(-1 0 0 1 106 0)"></rect> </clipPath> </defs> </svg> 