<?xml version="1.0" encoding="UTF-8"?> <svg xmlns="http://www.w3.org/2000/svg" width="90" height="92" viewBox="0 0 90 92" fill="none"> <g clip-path="url(#clip0)" filter="url(#filter0_d)"> <rect x="37.433" y="24.0374" width="20.0501" height="9.67593" fill="#1A1A1A"></rect> <rect x="37.433" y="7.47861" width="20.0501" height="9.67593" fill="#1A1A1A"></rect> <path d="M84.1471 79.7698V72.8761C84.1471 72.1096 83.528 71.489 82.7644 71.489H71.1131L71.1152 67.0036C73.3275 66.4665 74.9765 64.4843 74.9765 62.1203C74.9765 59.8231 73.419 57.8853 71.301 57.285V48.5173C71.301 47.7508 70.6819 47.1302 69.9184 47.1302H45.9813V41.0741C47.6216 40.6444 49.0449 39.4265 49.9014 37.7252C50.5437 38.1397 51.2768 38.3654 52.0461 38.3661C52.0476 38.3661 52.0483 38.3661 52.0498 38.3661C53.1109 38.3661 54.1357 37.9241 54.9356 37.1221C55.3761 36.6801 55.7332 36.1466 55.9931 35.5551C56.459 35.7736 56.9627 35.8897 57.4817 35.8897C57.4824 35.8897 57.4831 35.8897 57.4846 35.8897C58.4427 35.8897 59.3702 35.4898 60.0953 34.7625C60.9902 33.8647 61.5085 32.5517 61.5223 31.1516C62.0666 30.9716 62.5754 30.6544 63.0109 30.2182C63.9152 29.311 64.4342 27.9719 64.4327 26.5435C64.4306 23.9066 62.6414 21.7604 60.4444 21.759L29.5585 21.7321C29.5577 21.7321 29.557 21.7321 29.5556 21.7321C28.6164 21.7321 27.7069 22.1255 26.9956 22.8397C26.0906 23.7469 25.5723 25.0861 25.5738 26.5144C25.5752 28.4262 26.4905 30.0731 27.8477 30.8388C27.8245 31.05 27.8136 31.2634 27.8136 31.479C27.8158 34.2392 29.7544 36.4863 32.1358 36.4885C32.6519 36.487 33.144 36.3854 33.6114 36.1887C34.4265 37.9829 36.045 39.1805 37.8936 39.1819C37.8951 39.1819 37.8965 39.1819 37.898 39.1819C38.6383 39.1819 39.3576 38.9874 40.0079 38.6209C40.8324 39.8236 41.9538 40.6619 43.216 41.0349V47.131H19.649C18.8855 47.131 18.2664 47.7523 18.2664 48.518V57.285C16.1485 57.8853 14.5909 59.8231 14.5909 62.1203C14.5909 64.5061 16.2704 66.5042 18.5131 67.0195L18.5117 71.4898H7.23557C6.47202 71.4898 5.85291 72.1111 5.85291 72.8768V79.7705C3.735 80.37 2.17742 82.3086 2.17742 84.6058C2.17742 87.3798 4.44702 89.6371 7.23557 89.6371C10.0241 89.6371 12.2937 87.3798 12.2937 84.6058C12.2937 82.3086 10.7361 80.3707 8.61823 79.7705V74.2645H19.8922H19.8929H31.5443V79.7705C29.4264 80.3707 27.8688 82.3086 27.8688 84.6058C27.8688 87.3806 30.1384 89.6371 32.9269 89.6371C35.7155 89.6371 37.9851 87.3798 37.9851 84.6058C37.9851 82.3086 36.4275 80.3707 34.3096 79.7705V72.8768C34.3096 72.1103 33.6905 71.4898 32.9269 71.4898H21.277L21.2785 66.8794C23.2694 66.203 24.7072 64.3275 24.7072 62.1211C24.7072 59.8239 23.1496 57.886 21.0317 57.2857V49.905H43.2152V53.3765C43.2152 53.4934 43.2341 53.6059 43.261 53.714C41.1191 54.299 39.539 56.2478 39.539 58.5617C39.539 61.3365 41.8086 63.593 44.5979 63.593C47.3872 63.593 49.656 61.3357 49.656 58.5617C49.656 56.2478 48.076 54.2998 45.9348 53.714C45.9624 53.6052 45.9806 53.4934 45.9806 53.3765V49.905H68.5343V57.285C66.4164 57.8853 64.8588 59.8231 64.8588 62.1203C64.8588 64.35 66.3256 66.2429 68.3485 66.9012L68.3463 71.4898H57.0723C56.3088 71.4898 55.6897 72.1111 55.6897 72.8768V79.7705C53.5718 80.3707 52.0142 82.3086 52.0142 84.6058C52.0142 87.3806 54.2838 89.6371 57.0723 89.6371C59.8609 89.6371 62.1305 87.3798 62.1305 84.6058C62.1305 82.3086 60.5729 80.3707 58.455 79.7705V74.2645H69.729H69.7297H81.3811V79.7705C79.2631 80.3707 77.7056 82.3086 77.7056 84.6058C77.7056 87.3806 79.9752 89.6371 82.7637 89.6371C85.5523 89.6371 87.8219 87.3798 87.8219 84.6058C87.8226 82.3086 86.265 80.37 84.1471 79.7698ZM50.466 26.9652C52.0389 26.926 52.8844 26.1559 53.3163 25.5172C53.7148 24.93 54.511 24.7776 55.0967 25.1753C55.6824 25.5745 55.8341 26.3736 55.4371 26.9615C54.8071 27.8927 53.3315 29.4648 50.5306 29.536C50.5198 29.536 50.5089 29.536 50.498 29.536C49.8056 29.536 49.2351 28.9815 49.2177 28.2825C49.1988 27.5734 49.7584 26.9833 50.466 26.9652ZM39.7706 26.3192C39.727 25.6108 40.2641 25.0004 40.9711 24.9569C41.6744 24.9068 42.2804 25.4475 42.3283 26.1515C42.3406 26.2996 42.6288 29.3211 46.1272 30.232C46.8123 30.4106 47.2231 31.1117 47.046 31.799C47.0903 31.6285 47.1426 31.4267 47.046 31.7998C46.9778 32.064 47.009 31.9435 47.046 31.8005C46.8711 32.4762 46.1591 32.8965 45.4834 32.7215C41.2077 31.6082 39.8773 28.0466 39.7706 26.3192Z" fill="#1A1A1A"></path> <path d="M29.5614 19.1337L60.4474 19.1606C60.4481 19.1606 60.4496 19.1606 60.4503 19.1606C61.3895 19.1606 62.2982 18.7672 63.0102 18.053C63.9153 17.1457 64.4335 15.8066 64.4321 14.3782C64.4299 12.1863 63.1938 10.334 61.5143 9.77008C61.4867 7.14992 59.6831 5.02621 57.4708 5.02476C57.4694 5.02476 57.4687 5.02476 57.4672 5.02476C56.9475 5.02476 56.4431 5.14089 55.9764 5.35936C55.2361 3.68637 53.7453 2.54033 52.0324 2.53815C52.0317 2.53815 52.0302 2.53815 52.0295 2.53815C51.2608 2.53815 50.5292 2.76242 49.8876 3.17613C48.8098 1.03863 46.8458 -0.360722 44.6741 -0.3629C44.6727 -0.3629 44.6712 -0.3629 44.6698 -0.3629C42.8168 -0.3629 41.1257 0.611858 39.9927 2.26379C39.3402 1.89436 38.6013 1.69331 37.8755 1.69912C36.0276 1.69912 34.412 2.89307 33.5983 4.68363C33.1302 4.48694 32.6323 4.38242 32.1242 4.3817C32.1228 4.3817 32.1221 4.3817 32.1206 4.3817C31.0791 4.3817 30.0753 4.81355 29.2936 5.5967C28.3464 6.54605 27.8042 7.92799 27.805 9.38758C27.805 9.6017 27.8173 9.81508 27.8405 10.0248C26.484 10.7898 25.5716 12.436 25.5731 14.3477C25.5753 16.9853 27.3644 19.1315 29.5614 19.1337ZM42.377 9.80057C42.5504 9.76936 46.6752 9.12121 49.1937 13.6452C49.5385 14.265 49.3179 15.0481 48.6995 15.3944C48.0905 15.7355 47.295 15.5076 46.9561 14.8986C45.3433 12.0019 42.8974 12.3235 42.7943 12.3373C42.1012 12.4381 41.4458 11.962 41.3362 11.2667C41.2258 10.5721 41.6853 9.91887 42.377 9.80057Z" fill="#1A1A1A"></path> </g> <defs> <filter id="filter0_d" x="-2" y="0" width="92" height="92" filterUnits="userSpaceOnUse" color-interpolation-filters="sRGB"> <feFlood flood-opacity="0" result="BackgroundImageFix"></feFlood> <feColorMatrix in="SourceAlpha" type="matrix" values="0 0 0 0 0 0 0 0 0 0 0 0 0 0 0 0 0 0 127 0"></feColorMatrix> <feOffset dx="-2" dy="2"></feOffset> <feColorMatrix type="matrix" values="0 0 0 0 0.717647 0 0 0 0 0.745098 0 0 0 0 0.890196 0 0 0 1 0"></feColorMatrix> <feBlend mode="normal" in2="BackgroundImageFix" result="effect1_dropShadow"></feBlend> <feBlend mode="normal" in="SourceGraphic" in2="effect1_dropShadow" result="shape"></feBlend> </filter> <clipPath id="clip0"> <rect width="90" height="90" fill="white"></rect> </clipPath> </defs> </svg> 