<?xml version="1.0" encoding="UTF-8"?> <svg xmlns="http://www.w3.org/2000/svg" width="130" height="356" viewBox="0 0 130 356" fill="none"> <g clip-path="url(#clip0)"> <path fill-rule="evenodd" clip-rule="evenodd" d="M107.279 117.65C110.608 121.54 110.313 122.622 108.54 126.55C104.621 135.665 99.0019 144.93 92.6233 153.381C93.0443 134.42 93.4065 115.356 94.0293 96.2221C97.822 103.615 101.861 110.293 107.279 117.65M107.907 351.993C110.002 351.791 124.751 352.335 120.804 348.039C122.022 345.396 118.618 343.166 116.521 341.156C114.558 339.285 112.624 337.207 110.609 334.802C108.733 332.572 106.617 329.937 105.25 326.862C104.947 326.38 104.639 326.042 104.335 325.858L104.159 325.752L104.05 325.578C102.896 323.737 101.943 321.835 100.894 319.961C103.459 319.035 105.79 318.105 108.695 316.82C104.595 292.698 98.4512 269.196 94.4785 245.003C92.0604 223.951 90.7623 202.7 85.229 181.966L84.5211 182.021L84.1266 180.662C84.7077 180.647 85.8851 180.608 86.468 180.585L86.3315 181.28C88.9693 180.975 91.5541 180.224 94.1184 179.587C95.4271 179.408 96.7392 178.473 96.2683 176.914C96.1168 174.653 95.6486 172.447 95.4283 170.187C96.2628 169.618 97.1237 168.968 97.9483 168.302C100.129 169.329 102.765 172.647 105.149 171.803C110.722 164.329 115.398 155.346 119.63 148.169C129.852 131.571 133.096 121.196 122.554 103.889C113.439 89.3909 103.608 66.3472 85.3359 62.7086C83.2844 62.326 81.1349 62.3099 79.1633 61.376C79.0622 60.0369 78.3925 59.2676 77.9024 59.2567C76.7117 58.9956 75.4044 58.5754 74.2417 58.5647C73.8319 58.3936 73.3315 58.5342 72.9378 58.6114C71.7659 56.2614 71.8707 53.2611 70.5866 51.0581C70.54 49.3889 70.0308 47.5447 64.8822 47.2091C61.3776 46.9169 56.4138 46.6352 53.6124 48.1653C51.6522 49.7422 51.6319 53.2746 51.8778 55.7637C52.1478 57.5916 52.027 59.7176 50.5943 61.8645C46.511 60.605 43.6635 63.2673 41.1074 68.2341C30.407 69.6897 28.0997 70.5164 23.948 81.1069C21.9681 85.6995 19.9066 90.6062 18.3632 95.6339C16.2963 101.78 16.1147 108.214 14.1052 114.404C8.64768 128.046 3.09782 136.85 1.35016 152.732C0.497201 159.744 0.987242 163.222 1.79806 164.275C4.10451 163.609 7.07997 163.098 9.50212 162.815L6.9102 164.784C9.10652 174.735 2.78065 203.112 19.9323 200.932C20.0847 200.562 19.8051 198.524 19.7314 197.679C20.2003 197.712 21.0675 197.743 21.5292 197.685C22.3471 200.043 23.5752 202.162 24.3503 204.561C24.7337 206.022 25.2182 207.494 25.6918 208.915C36.4933 245.263 38.6323 280.256 33.8121 316.747L34.03 316.826L34.1182 316.983L34.2506 317.032C34.5909 317.486 35.073 317.506 35.8422 317.507C40.5668 317.673 44.7179 317.886 48.5676 317.993C48.1591 320.036 48.4207 322.186 48.6008 324.264C46.3602 324.106 44.3046 325.015 42.2566 326.106C38.3435 328.026 34.4462 330.042 30.6572 332.246C26.8955 334.651 20.8121 336.708 23.8323 341.031L22.9591 341.373C22.9298 341.385 22.911 341.395 22.8999 341.402C22.7968 341.769 23.9797 343.289 24.3302 343.273C32.6025 343.658 39.6575 341.728 50.239 339.706C52.6615 338.828 64.8635 337.335 64.9146 335.029C64.8758 334.311 64.1326 334.359 63.6141 334.269C65.1686 326.426 59.9137 325.792 59.1614 318.675C60.2017 318.873 61.3266 319.043 62.3922 318.751C63.3273 303.562 61.825 288.014 63.4862 272.676L65.1751 272.49C70.8521 289.179 76.7385 306.255 81.2593 323.59C81.3454 323.967 81.7678 323.709 81.961 323.572C84.9158 323.502 87.8715 323.186 90.7689 322.689C90.8385 324.394 90.9117 326.131 90.9835 327.834L90.537 328.074C90.249 328.475 90.3702 330.349 90.4224 331.156C90.475 331.982 90.5185 332.579 90.4454 333.138C89.5135 334.974 92.6999 338.952 94.3852 341.164C98.057 345.913 101.099 352.945 107.907 351.993" fill="#EDB98A"></path> <path fill-rule="evenodd" clip-rule="evenodd" d="M90.1818 334.76L90.3264 334.981C90.5117 335.267 90.6803 335.536 90.8461 335.812L90.943 335.975L91.2707 336.463L91.4833 336.784C91.782 337.236 92.1018 337.728 92.5314 338.395L93.7139 340.234L94.2092 340.999C95.451 342.908 96.2561 344.075 97.201 345.314L97.4451 345.632L97.5723 345.79L97.6988 345.946C99.9389 348.677 102.36 350.539 105.104 351.324L105.196 351.35L105.282 351.374L105.37 351.381C109.205 351.689 113.041 351.36 118.243 350.449L118.577 350.39L118.981 350.318L119.86 350.157L120.066 349.95C121.269 348.743 121.434 347.35 120.696 345.962C120.212 345.053 119.469 344.267 118.135 343.108L117.095 342.21C116.136 341.378 115.977 341.215 115.74 340.89L115.642 340.755L115.596 340.707C111.291 336.219 107.694 331.896 104.918 326.807L104.81 326.609L104.648 326.308L104.329 326.184C101.721 325.167 98.7997 325.281 96.3542 326.523L96.2737 326.565L96.1958 326.606L96.1153 326.65C95.7039 326.879 95.3594 327.128 94.7613 327.6L94.4261 327.864L94.2688 327.986C93.7492 328.386 93.4481 328.579 93.0833 328.739C92.3767 329.048 91.5378 328.996 91.2548 328.693L91.2394 328.675L91.226 328.658L90.851 327.614L90.1818 334.76ZM60.8931 324.818C60.7702 325.202 61.2406 326.719 60.899 327.242C60.5912 327.713 59.5083 327.584 58.757 327.576L58.6041 327.574L58.4478 327.569C58.2026 327.561 57.9429 327.546 57.6037 327.522L56.6087 327.449L56.5255 327.444C56.4988 327.442 56.4726 327.441 56.4447 327.44L56.2891 327.432L56.191 327.428L56.1538 327.426C54.9233 327.329 53.9114 326.658 51.9356 325.882L51.0159 325.517C50.0935 325.154 49.5757 324.965 48.9517 324.774L48.8615 324.746L48.8138 324.737C47.0548 324.395 44.8563 325.058 41.8705 326.546L41.6815 326.64L41.4785 326.743C41.0014 326.987 40.4994 327.253 39.9344 327.56L39.0597 328.041C38.4512 328.377 37.6986 328.793 37.4336 328.937L37.1809 329.075L36.9509 329.198C36.3785 329.504 35.9216 329.734 35.5244 329.915L35.3935 329.974L35.3623 329.991C31.9414 331.843 28.7987 333.672 25.8481 335.545L25.6164 335.692L25.5382 335.735C21.9869 337.703 21.9379 340.881 25.2823 343.09L25.3847 343.157L25.4913 343.224L25.7489 343.384L26.0519 343.363C31.2153 342.992 36.5545 342.232 42.4189 341.084L42.9945 340.971C47.3862 340.098 51.7197 339.094 57.8663 337.564L59.0801 337.261L61.0579 336.764L61.1092 336.76C63.2667 336.537 64.4622 334.921 64.4605 332.691L64.4592 332.564L64.4595 332.459C64.462 330.119 63.4427 327.961 62.5742 326.214L62.5288 326.124L62.4826 326.034L60.8931 324.818Z" fill="white"></path> <path fill-rule="evenodd" clip-rule="evenodd" d="M85.7442 180.856C86.1434 180.828 86.6221 180.807 87.1517 180.783C89.9773 180.656 94.1918 180.432 95.7129 179.01C95.736 178.989 95.7589 178.967 95.7814 178.944C95.7846 178.913 95.7876 178.883 95.7904 178.852C95.9267 177.387 95.6841 175.894 95.4401 174.41C95.3161 173.655 95.1922 172.903 95.1216 172.158C95.1082 172.017 95.0967 171.875 95.0864 171.733C94.9718 171.815 94.8548 171.896 94.7352 171.976C90.341 174.931 86.6816 174.454 82.9154 173.976C80.356 173.651 77.7472 173.324 74.8359 174C74.0236 174.191 73.1587 174.539 72.2728 174.896C70.3041 175.689 68.2154 176.568 66.3913 175.64C65.9389 175.273 65.6633 174.932 65.536 174.607C65.4075 174.28 65.4427 173.978 65.5873 173.7C66.0544 172.804 67.5152 172.147 68.6415 171.682L68.7616 171.632L70.8317 170.793C70.1726 170.87 69.5169 170.953 68.871 171.059C68.0102 171.201 67.1465 171.387 66.2803 171.574C64.4143 171.976 62.537 172.383 60.6545 172.335C60.4802 172.286 60.3478 172.205 60.2533 172.099C60.142 171.974 60.0844 171.816 60.0611 171.646C59.992 171.139 60.2137 170.528 60.4726 170.142C61.1677 169.082 62.2372 168.426 63.3957 168.036L63.295 167.554C62.8683 167.59 62.436 167.676 62.0024 167.763C61.368 167.89 60.7306 168.021 60.1049 167.974C59.7306 167.831 59.4877 167.653 59.3606 167.441C59.2239 167.213 59.2346 166.953 59.3225 166.688C59.6246 165.778 60.7908 164.8 61.5227 164.373C64.037 162.712 66.9308 161.907 69.8108 161.101C71.5403 160.617 73.2653 160.134 74.9017 159.475C75.0181 159.429 75.1343 159.381 75.25 159.332C75.1612 159.233 75.0682 159.141 74.9707 159.057C73.8205 158.072 71.6522 157.885 69.4751 157.722C67.819 157.599 66.1639 157.482 65.0168 156.958C64.2532 156.608 63.725 156.07 63.6268 155.19C63.6844 154.657 63.8514 154.234 64.1048 153.9C64.3911 153.523 64.7857 153.262 65.2429 153.082C66.5848 152.555 68.4491 152.709 69.9153 152.857L70.5509 152.922L70.7764 152.945C76.6924 153.626 82.4526 155.824 87.3493 159.194C87.4121 159.237 87.4747 159.281 87.5372 159.324C87.5857 159.265 87.6342 159.206 87.6826 159.147C89.2047 157.299 90.692 155.421 92.137 153.511C92.153 153.49 92.1689 153.469 92.1848 153.447C92.1855 153.421 92.1863 153.395 92.187 153.369C92.3683 147.099 92.4643 140.801 92.5604 134.5C92.7475 122.226 92.9348 109.935 93.7532 97.7999L93.5133 97.3083C93.3435 96.9592 93.188 96.6399 93.0471 96.3498C93.106 96.4463 93.1667 96.5459 93.229 96.6486L93.5786 97.2271L94.0816 98.0661L94.0882 97.8632C94.0911 97.8688 94.0941 97.8745 94.097 97.8802C94.1321 97.8745 94.169 97.8745 94.2074 97.8813C94.3279 97.9026 94.4109 97.981 94.4635 98.0816C94.5404 98.2285 94.5591 98.4191 94.5305 98.6033C94.5266 98.629 94.5217 98.6546 94.5158 98.6798C94.5293 98.7054 94.5427 98.7309 94.5561 98.7564C94.6368 98.9097 94.7178 99.0628 94.799 99.2156C97.9404 104.299 101.22 109.289 104.723 114.113C105.25 115.003 106.064 115.987 106.92 117.019C108.669 119.129 110.636 121.441 110.418 123.546C105.979 136.573 98.0191 148.27 89.466 158.978C89.4274 159.027 89.3887 159.075 89.352 159.124C89.3867 159.174 89.4216 159.224 89.4565 159.274C92.7476 163.985 97.0269 168.014 101.962 170.976C102.14 171.073 102.319 171.187 102.504 171.306C103.008 171.627 103.554 171.963 104.054 172.019C104.47 172.065 104.863 171.946 105.197 171.513C112.588 160.123 119.569 148.406 125.586 136.25C130.803 126.703 128.315 115.73 123.108 106.75L122.654 105.932C122.303 105.297 121.951 104.661 121.598 104.024C114.486 91.1697 107.124 77.8732 96.025 68.0881L95.8327 67.9353C92.9268 65.6358 89.6629 63.5362 85.9588 62.8875C85.2324 62.7689 84.4923 62.7282 83.7518 62.6878C82.5168 62.6206 81.2797 62.5575 80.1232 62.1039C80.0063 62.058 79.8914 62.0087 79.7786 61.9566C79.776 62.0903 79.7777 62.2205 79.784 62.347C79.8744 64.1487 79.8264 65.6476 79.4349 63.0525C79.3968 62.3561 79.3326 61.805 79.2302 61.3623C79.0552 60.6433 78.7839 60.196 78.382 59.8737C77.9396 59.519 77.3254 59.3201 76.4573 59.0998L75.5662 58.8783L75.0277 58.7426C73.0006 76.5544 68.5784 93.9738 64.1562 111.396C58.7496 132.697 53.3436 154.002 52.2972 176.031L52.2853 176.122C52.2035 176.785 52.1949 177.557 52.4669 178.131C52.6855 178.592 53.0731 178.941 53.7354 179.033C54.7603 179.281 55.8345 179.411 56.8942 179.539C57.1745 179.573 57.4537 179.607 57.7301 179.643L58.2883 179.716C67.2524 180.88 76.3188 181.183 85.3501 180.923C85.4212 180.921 85.4923 180.919 85.563 180.916C85.5651 180.9 85.5671 180.884 85.5692 180.868L85.7442 180.856ZM1.84142 161.557C1.88651 162.277 1.95028 162.997 2.03279 163.714C2.04369 163.809 2.05491 163.903 2.06668 163.998C2.15846 163.973 2.25028 163.949 2.34214 163.926C6.22101 162.922 10.2681 162.351 14.2705 162.815C14.354 162.825 14.4375 162.835 14.5204 162.845C14.5288 162.761 13.9741 168.053 19.9563 177.019C20.1021 177.309 21.0351 178.226 21.0534 178.274C21.1041 178.279 21.1547 178.285 21.2054 178.29C26.3924 178.84 31.633 178.776 36.7988 178.033C36.8675 178.023 36.9362 178.013 37.0048 178.003C37.0074 177.934 37.0097 177.865 37.0117 177.795C37.0816 175.377 36.7563 172.977 36.4297 170.574C36.0801 168.003 35.7286 165.429 35.8749 162.827L35.8645 160.914C35.7054 129.807 36.1146 97.9852 45.313 68.0238C45.3386 66.8268 48.7484 63.9607 48.8277 63.8721C49.2181 63.4358 49.5793 62.9745 49.9051 62.4903C50.0151 62.3268 50.1211 62.1605 50.2231 61.9919C50.0477 62.0315 49.8586 62.0706 49.6535 62.1084C48.8141 62.2629 48.2152 62.3006 47.7436 62.3304C46.3733 62.4172 46.003 62.4133 44.1882 64.736C42.2371 67.6444 39.9416 69.432 40.0277 69.2883C39.8609 69.3067 39.6934 69.326 39.5251 69.3461C36.1131 69.7535 33.0675 70.3981 30.6312 71.9516C28.6241 73.2314 27.025 75.1248 25.9756 78.0125L25.4364 79.2701C21.9993 87.2985 18.645 95.4526 17.1068 104.082C16.276 111.025 14.2964 117.652 11.0937 123.862C5.70465 135.657 1.09744 148.418 1.84142 161.557Z" fill="#F5F2EF"></path> <path fill-rule="evenodd" clip-rule="evenodd" d="M45.0191 69.502C39.1506 90.9533 37.1341 115.32 36.4598 137.467L36.4189 138.823L36.3355 141.645C39.0133 142.046 42.7314 141.757 45.428 141.796C48.7205 141.998 52.8216 141.771 56.0352 142.306L56.2357 142.341L56.3662 142.367L56.5237 141.618C61.3259 118.913 68.2769 95.3017 72.4944 72.4659C71.7535 72.9045 70.7929 73.0781 69.9888 73.2801C64.5195 74.6088 58.0862 74.358 52.4735 74.0362C49.2746 74.0106 46.6183 72.2476 45.0191 69.502Z" fill="white"></path> <path fill-rule="evenodd" clip-rule="evenodd" d="M71.4541 51.2483C70.4539 50.5717 71.8782 56.4425 71.8806 57.0074L71.9058 57.1303C72.1551 58.3261 72.5941 59.7173 73.6045 60.4843C73.1385 64.29 72.5585 68.0837 71.8446 71.8498L71.4247 71.9049C65.1956 72.7287 58.9256 73.8616 52.5921 73.2713C49.1797 73.2983 46.9208 70.968 45.5451 68.0777C45.6383 67.7368 45.7315 67.3973 45.8272 67.0564C50.1606 64.4079 53.4422 59.0331 51.4897 53.9593C51.4063 53.7424 51.1479 53.7275 51.0148 53.8403C50.9932 53.8423 50.9735 53.8599 50.975 53.8837L51.0391 54.8736C51.1755 57.0335 51.2362 59.2721 50.064 61.2169C45.349 60.1439 42.4171 64.0673 40.4458 67.7803L39.0295 67.9895C33.6114 68.7927 28.3861 69.7437 25.7105 75.2832L25.344 76.0613C21.6058 84.0215 18.1218 92.2067 16.0826 100.779C15.056 105.339 14.6844 110.038 13.1783 114.486C10.0512 122.744 5.64466 130.506 3.25532 139.056C1.77275 142.141 -2.39956 165.364 1.71669 165.54C3.1969 165.098 4.70446 164.74 6.22817 164.485C5.99328 164.664 5.90752 164.968 5.95227 165.277C6.4842 169 6.52396 172.771 6.52148 176.524C6.24047 185.615 6.49252 205.172 20.2101 202.033C21.2115 201.665 20.5612 200.062 20.6015 198.943C20.6798 198.946 20.7593 198.945 20.8389 198.94C21.6263 201.061 22.7306 203.018 23.4227 205.174C24.0093 207.026 24.4195 209.018 25.2371 210.791C33.8983 241.532 37.4737 273.864 34.0874 305.68C33.8973 307.586 33.6835 309.488 33.4446 311.387C33.4747 312.575 32.0649 317.546 33.3306 317.88C33.3798 317.976 33.5505 318.086 33.6524 318.121C34.421 318.948 35.6988 318.642 36.7135 318.752C40.299 318.911 43.8842 319.058 47.4715 319.177C47.2566 320.696 47.4301 322.238 47.5572 323.754C44.9412 323.776 42.5371 325.365 40.2233 326.444C36.7869 328.136 33.4065 329.945 30.0902 331.862C27.0285 334.001 20.1881 336.066 22.5416 340.915C20.7868 341.626 23.2254 344.598 24.5587 344.631C33.238 344.588 41.862 342.623 50.3438 340.898C55.1628 339.627 60.4215 339.144 64.8798 336.952C66.1454 336.381 65.8803 334.103 64.4883 333.892C65.522 326.298 61.3258 326.403 60.1459 320.078C60.8325 320.19 61.5913 320.127 62.2798 319.987C63.8743 321.459 63.2886 309.874 63.5052 308.742C63.5483 296.862 62.9841 284.957 64.2522 273.117L66.4071 279.45C71.4311 294.23 76.3798 309.048 80.3183 324.157C80.5544 325.07 81.5138 325.179 82.1265 324.781C84.7129 324.705 87.2892 324.462 89.8408 324.051C89.8905 325.259 89.9414 326.468 89.9924 327.676C88.8919 328.268 89.6371 331.998 89.4965 333.259C88.3051 335.998 93.1338 341.27 94.7212 343.53C97.5524 347.477 100.362 353 105.837 353.184L106.004 353.188C110.09 353.287 114.213 353.049 118.259 352.466L118.696 352.395C119.864 352.202 121.172 351.929 121.847 350.887C122.417 350.009 122.347 348.877 121.656 348.206C122.568 344.901 119.017 342.899 117.033 340.886C113.327 337.317 109.958 333.392 107.045 329.153L106.878 328.757C106.338 327.486 105.693 326.074 104.688 325.465C103.729 323.946 102.91 322.347 102.044 320.776C104.408 319.909 106.736 318.941 109.038 317.922C109.496 317.719 109.641 317.124 109.561 316.682L109.556 316.652C105.062 293.356 99.6743 270.226 95.4838 246.876C92.8075 225.357 91.7104 203.564 86.0837 182.518C88.8133 182.235 91.5303 181.452 94.2091 180.783C96.3568 180.327 97.4429 179.237 97.0194 176.966C96.8737 174.948 96.4688 172.962 96.25 170.952C96.8219 170.553 97.3798 170.133 97.9229 169.701C98.9297 170.451 99.9686 171.158 101.036 171.817C103.592 173.655 105.565 173.941 107.145 170.929C111.718 163.715 116.129 156.397 120.291 148.939C124.152 141.785 128.938 134.645 129.918 126.408C131.341 111.585 113.92 87.8624 105.192 75.8149C100.379 70.012 94.5178 64.0397 86.8951 62.3523C84.5505 62.0054 82.0787 61.9582 79.8435 61.1091C79.6619 60.0242 79.1516 59.0254 77.9991 58.7599C76.7866 58.4921 75.4868 58.0786 74.2656 58.0485C73.9895 57.9708 73.6637 57.9217 73.372 57.9753C72.5362 55.8082 72.4133 53.3664 71.4541 51.2483ZM118.151 349.919C117.942 350.022 117.726 350.111 117.505 350.19C117.233 350.227 116.962 350.262 116.691 350.293C117.182 350.183 117.669 350.059 118.151 349.919ZM91.0278 328.852C95.0314 330.303 96.1321 323.49 104.007 326.247C107.084 331.952 111.068 337.134 115.622 341.74C117.241 343.749 122.032 346.031 119.45 348.977L119.055 349.049C114.571 349.863 110.02 350.51 105.451 350.142C101.998 349.191 99.409 346.428 97.3164 343.642C95.8025 340.962 94.0314 338.441 92.2235 335.954C91.2295 334.718 91.1287 333.144 91.1334 331.623C91.1 330.698 91.065 329.775 91.0278 328.852ZM46.051 325.507C47.7509 324.885 49.4946 325.47 51.0409 326.234C53.6823 327.414 59.4034 328.828 61.8473 326.946C63.0457 328.925 63.4475 331.125 63.1186 333.408L63.1151 333.549C63.0873 334.471 62.958 335.213 61.8363 335.279L58.651 336.079C47.9052 338.772 37.0538 341.377 25.9929 342.126C23.0407 340.285 22.958 337.866 26.096 336.181L26.8987 335.69C33.0593 331.926 39.3638 328.227 46.051 325.507ZM22.6732 341.16C22.703 341.211 22.7316 341.262 22.7614 341.312C22.7154 341.334 22.6732 341.367 22.6334 341.401C22.6334 341.318 22.6459 341.236 22.6732 341.16ZM101.448 320.992C101.407 321.828 101.818 322.773 102.108 323.524C102.278 323.968 102.453 324.601 102.724 325.109C95.991 323.126 93.943 328.937 91.5155 327.729L91.4418 327.69V327.689C91.9372 326.558 91.3969 324.967 91.0639 323.84C94.5992 323.201 98.0705 322.208 101.448 320.992ZM48.2482 319.203L50.1892 319.263C53.2085 319.354 56.2283 319.434 59.2497 319.43C58.9336 321.598 59.5521 325.175 60.9574 326.86C60.9599 326.861 60.9624 326.861 60.9636 326.862C56.9864 327.463 53.2198 325.644 49.6775 324.114C49.5281 322.452 48.8749 320.757 48.2482 319.203ZM61.2359 325.808L61.5988 326.485V326.485C61.5466 326.544 61.4869 326.597 61.4236 326.643C61.4603 326.361 61.3601 326.083 61.2359 325.808ZM101.882 320.837C101.949 321.128 102.027 321.419 102.11 321.71C101.983 321.424 101.839 321.15 101.664 320.915L101.882 320.837V320.837ZM59.4585 319.431L59.671 319.433V319.433L59.6722 319.555V319.555C59.6225 319.638 59.6138 319.739 59.676 319.821C59.6834 320.196 59.6996 320.571 59.7281 320.947L59.6573 320.513C59.5973 320.152 59.5339 319.791 59.4585 319.431ZM62.1591 319.307L62.1479 319.496V319.496C61.8758 319.486 61.6011 319.497 61.3302 319.483C61.1872 319.476 61.0406 319.451 60.8927 319.425C61.319 319.411 61.744 319.378 62.1591 319.307ZM13.7896 163.952C13.9238 164.11 14.0704 164.205 14.2196 164.254C14.2183 167.832 14.9417 171.351 16.9239 174.45C17.7484 175.542 18.2143 176.785 18.6129 178.081C20.7091 184.01 21.0984 190.379 20.3343 196.588C18.2744 193.571 17.4559 189.97 16.8805 186.419C16.8494 186.241 16.5536 186.243 16.5213 186.419C15.8252 190.22 17.0218 193.952 18.4527 197.465C19.3463 198.103 19.1334 199.774 19.2406 200.757C4.05449 202.967 9.3354 173.85 7.39024 164.882C7.3542 164.635 7.14416 164.456 6.90554 164.38C9.18327 164.033 11.4915 164.007 13.7896 163.952ZM85.3043 181.84C85.2857 181.936 85.2696 182.032 85.2571 182.127L85.1751 181.845V181.845C85.2174 181.844 85.2609 181.843 85.3043 181.84ZM75.0412 58.6771L75.307 58.7466C78.1129 59.4694 79.021 59.3702 79.1798 62.7539C79.8696 67.3459 82.4159 71.3514 83.5605 75.7916C84.0184 77.3597 83.5341 80.2496 81.3633 79.8251C80.66 79.6095 80.1118 80.5563 80.6437 81.0585C82.2159 82.5435 83.7421 84.0742 85.277 85.5953C79.1136 106.37 71.107 126.606 61.3538 145.965C60.9672 146.734 62.1268 147.409 62.5107 146.641C72.2068 127.219 80.2708 106.991 86.5297 86.2101L86.7188 85.5803C86.9952 84.8151 83.4608 82.0736 82.8174 81.1787C89.2711 78.0733 80.2609 67.1978 80.0161 61.9607C81.8632 62.7716 83.9571 62.4807 85.9084 62.8072C89.6516 63.4629 92.9373 65.6223 95.8577 67.9534C107.72 78.4141 115.301 92.8967 122.884 106.547C128.049 115.454 130.538 126.342 125.356 135.816C119.343 147.963 112.367 159.672 104.992 171.038C104.182 172.09 102.936 170.88 102.083 170.439C97.1775 167.495 92.9241 163.491 89.653 158.808C97.5832 149.091 104.491 138.471 109.376 126.901L109.444 126.767C110.54 124.567 111.407 121.905 109.578 119.833C103.085 111.528 97.3107 102.711 91.8765 93.6883C91.8205 93.5977 91.6951 93.6772 91.736 93.7714C92.294 95.0331 92.8819 96.2852 93.4946 97.526C92.257 115.871 92.466 134.575 91.9311 153.037C90.4882 154.945 89.003 156.82 87.483 158.666C82.5523 155.272 76.7522 153.059 70.7954 152.374L70.4104 152.335C67.8801 152.075 63.7012 151.585 63.3694 154.866C63.7795 158.901 72.1311 156.632 74.8012 158.921C70.4242 160.683 65.4085 161.179 61.3899 163.835C60.1009 164.586 57.574 166.979 60.0426 167.894C61.1197 167.986 62.2323 167.568 63.3087 167.477C62.0972 167.884 60.9832 168.575 60.2737 169.657C59.7629 170.399 59.3901 171.94 60.6106 172.258C63.3928 172.336 66.1636 171.43 68.904 170.98L68.6605 171.078C66.6628 171.895 63.5574 173.362 66.2482 175.525C68.9416 176.918 72.2028 174.549 74.8857 173.917C82.1124 172.238 87.4584 176.84 94.8667 171.857C95.0768 173.522 95.3926 175.176 95.5189 176.85L95.5352 176.945C95.792 178.473 95.5721 179.025 93.922 179.317C91.9325 179.917 89.8487 180.105 87.7813 180.217C77.832 180.742 67.8165 180.369 57.9346 179.096C56.5128 178.715 53.1726 179.074 52.5781 177.512C53.692 137.292 70.4735 99.4475 75.0945 59.7505C75.1703 59.3688 75.1753 58.9795 75.0412 58.6771ZM46.9919 62.1144C47.7854 62.1468 48.5241 62.3186 49.3135 62.3982C48.8764 63.3269 46.5692 64.6406 46.7793 65.1017C46.6128 65.2306 46.4438 65.3546 46.2723 65.4747C46.5109 64.6369 46.752 63.8002 46.9936 62.962C38.2264 84.298 37.022 109.542 35.8572 132.817C35.4734 144.553 35.2648 156.325 35.8325 168.054C36.1482 171.169 36.9834 174.317 36.7559 177.463C31.6106 178.204 26.3907 178.267 21.2243 177.719C21.0715 177.318 20.8987 176.924 20.7028 176.537C12.9689 167.117 17.0702 155.311 20.7943 145.106C23.046 145.201 25.3112 145.059 27.5653 145.086C26.8687 147.24 26.6892 149.518 26.3185 151.745C26.0661 153.332 25.7442 154.907 25.3742 156.469L25.2619 156.938C25.1244 157.5 24.9563 158.102 25.1529 158.656C25.3517 159.22 26.0379 159.448 26.4928 159.009C27.3128 158.075 27.2248 156.683 27.4894 155.525L27.5383 155.16C27.9897 151.835 28.5841 148.385 27.7591 145.085C28.5688 144.911 30.7826 145.549 30.8987 144.462C30.8645 142.665 32.1689 138.773 30.717 137.59C29.8532 136.931 28.3682 137.14 27.3552 137.099C26.1844 137.052 25.0149 137.008 23.8454 137.016C33.2441 114.321 30.6303 107.336 29.6766 84.7499L29.6482 84.0607C29.6507 83.9119 29.4108 83.8747 29.3846 84.0247C27.9476 93.2761 29.8632 102.643 28.9557 111.923C27.344 129.556 16.1612 144.696 14.2918 162.244C10.2598 161.777 6.18044 162.35 2.27237 163.361C2.19034 162.648 2.12696 161.933 2.08234 161.218C1.34037 148.119 5.94021 135.398 11.3072 123.651C14.5237 117.415 16.512 110.759 17.344 103.801C18.9598 94.7368 22.5855 86.1988 26.1996 77.779C28.4843 71.4834 33.423 69.9989 39.5473 69.2678C37.4817 72.689 35.4286 76.1176 33.379 79.5487C32.9219 80.5863 34.3236 81.327 34.9352 81.9657C27.4116 86.0653 31.8046 98.725 31.649 105.819C32.2075 112.337 32.4182 118.892 33.4028 125.365C33.4748 125.814 34.1634 125.682 34.1697 125.262C34.079 115.563 32.9214 105.904 32.4135 96.2205L32.3517 95.5145C31.9557 90.93 31.568 84.3162 37.0853 83.0579C37.8297 82.9363 37.8869 81.8307 37.2891 81.4985C36.4937 81.056 35.7965 80.5154 35.1727 79.8722C37.2804 76.3382 39.3845 72.8018 41.4698 69.2528L41.5677 69.0879C43.0491 66.5768 44.425 63.6547 46.9919 62.1144ZM64.8946 154.62C65.5032 152.828 71.41 153.995 72.9866 154.19C78.8007 155.287 84.6518 157.857 89.0801 161.817C89.3534 162.061 89.6766 162.057 89.9313 161.924C91.9148 164.456 94.2052 166.751 96.7172 168.767C96.2575 169.129 95.7851 169.479 95.2992 169.815C95.0667 169.84 94.8567 169.961 94.7622 170.176C87.8507 175.18 82.7663 171.277 75.5866 172.178C72.906 172.718 70.4373 174.422 67.6748 174.494C65.6476 174.033 67.4327 173.186 68.3795 172.859C70.5234 171.836 72.7091 170.904 74.8994 169.984L76.6518 169.25C77.513 168.889 77.2172 167.589 76.2553 167.816C74.5712 168.213 72.8822 168.589 71.192 168.96C67.9416 169.623 64.6134 170.473 61.3289 170.795C62.0591 168.767 69.806 166.577 72.0584 165.771C72.9091 165.369 75.3353 165.446 75.0583 164.128C74.8346 162.902 72.253 164.306 71.3921 164.406C67.8784 165.297 64.2917 165.836 60.7112 166.379C64.557 162.524 70.5184 162.191 75.43 160.386L75.5649 160.355C76.4384 160.152 77.6348 159.769 76.9249 158.777C74.4017 155.06 64.4721 156.941 64.8946 154.62ZM72.1613 133.92C70.3701 132.452 69.4105 135.468 69.5241 136.871C69.4397 138.035 69.3488 139.198 69.2729 140.362C69.3845 141.272 68.4137 144.591 69.7117 144.62C75.387 144.332 81.0527 144.405 86.7299 144.064C86.7372 145.208 86.7932 146.351 86.7348 147.496C86.7656 148.928 86.2676 150.359 86.5584 151.775C86.736 152.426 87.6221 152.514 87.968 151.958C89.005 149.521 88.292 146.377 87.5576 143.911C90.3375 143.398 90.721 140.787 89.9885 138.457L89.9961 138.331C90.0369 137.612 90.0337 136.842 89.7127 136.261C88.854 135.251 87.0736 135.907 85.8909 135.831C82.2658 135.457 78.574 135.354 74.9913 134.689C74.0639 134.449 73.118 133.966 72.1613 133.92ZM94.6964 99.8861C97.5186 105.269 100.766 110.391 104.223 115.378C104.963 116.443 105.724 117.494 106.497 118.538L106.592 118.66C108.151 120.647 109.803 122.279 108.329 124.906C104.505 134.185 99.3861 142.899 93.4548 150.985C93.8304 133.952 94.1622 116.914 94.6964 99.8861ZM23.7409 137.288C30.8318 138.773 30.9645 135.993 29.781 143.862C26.937 143.881 24.0948 143.817 21.2502 143.863C22.063 141.665 22.9057 139.477 23.7409 137.288ZM71.3388 135.066C75.0421 136.352 78.9743 136.168 82.8423 136.326C82.8344 137.157 86.7917 136.386 87.5514 136.5L87.8154 136.477C88.4477 136.425 89.2608 136.405 89.2678 137.185C89.0664 138.531 89.8245 140.005 89.3548 141.328C88.7209 143.109 86.0091 142.926 84.5128 142.961C82.0456 143.016 79.5787 143.076 77.1116 143.14C74.8956 143.198 72.6722 143.309 70.455 143.325C70.6538 141.748 70.7085 140.132 70.829 138.556C70.9808 137.424 70.7618 136.081 71.3388 135.066ZM55.766 140.794C55.7623 140.814 55.7585 140.834 55.7536 140.855C55.7246 140.847 55.6951 140.84 55.6649 140.834L55.6193 140.825V140.824C55.6678 140.815 55.7175 140.805 55.766 140.794ZM45.0257 69.9905C46.6273 72.7335 49.2821 74.4953 52.4802 74.521C58.093 74.8439 63.7799 74.4729 69.2497 73.145C70.0538 72.9443 71.0145 72.7695 71.754 72.3307C67.5311 95.191 60.7045 117.46 55.8905 140.189C52.4041 140.496 48.9285 140.463 45.4346 140.299C42.738 140.258 40.0143 140.548 37.3363 140.148L37.4197 137.326C38.0956 114.739 39.0362 91.8786 45.0257 69.9905Z" fill="black"></path> <path fill-rule="evenodd" clip-rule="evenodd" d="M62.7878 0.9552C57.2235 0.9552 50.5473 3.6456 49.9797 3.69941L49.9643 3.70022C49.6657 3.70022 48.4988 4.58691 46.4636 6.36027L48.6679 10.6484L48.4895 10.8183C47.6359 11.6346 46.9071 12.3786 46.3319 12.9651C41.635 17.754 40.7908 36.5568 41.8977 43.1139C43.0046 49.671 45.0548 56.0873 54.5995 56.0873C64.1443 56.0873 74.763 50.3634 76.3988 48.5809C77.4893 47.3926 78.7142 46.8232 80.0735 46.8729C80.1294 46.8026 80.1848 46.7325 80.2398 46.6626L80.4398 46.6344C82.3211 46.3626 83.6691 45.9969 84.4837 45.5372C86.0749 44.6393 87.8239 39.9192 87.8239 38.8794C87.8239 37.85 90.4354 30.3616 90.4876 29.5692L90.4884 29.5472C90.4884 28.8847 93.9001 25.8395 93.9001 24.8723C93.9001 23.9052 94.5878 23.9639 93.9001 20.5559L93.7003 19.5547C92.9685 15.9262 91.5362 9.91797 86.0749 7.30719C80.0735 4.43821 68.4084 0.9552 62.7878 0.9552Z" fill="#EDB98A"></path> <path d="M52.5001 2.5L48.0001 5L47.0001 5.5V6.5L50.0001 6H59.5001L68.5001 8.5L75.5001 15L80.0001 27.5L80.5001 32L83.0001 32.5L85.0001 35.5L85.5001 39L84.5001 41.5L81.0001 44H79.0001L78.0001 46L79.0001 47.5L83.5001 46L86.0001 44L87.0001 41.5L88.5001 37.5L90.5001 33L91.0001 29.5L92.5001 27.5L94.0001 23.5L92.5001 17L89.5001 12L86.5001 7.5L81.0001 5L70.5001 2L62.5001 1L57.0001 1.5L52.5001 2.5Z" fill="#F5F2EF" stroke="black"></path> <path fill-rule="evenodd" clip-rule="evenodd" d="M87.0011 7.17237C84.008 4.00384 67.0158 -0.897108 58.419 0.141777L58.1611 0.175085C57.4751 0.261853 56.799 0.393246 56.1317 0.571742C53.9749 1.07413 51.747 1.83485 49.9649 3.10551C48.4771 4.145 43.7838 5.84257 45.1671 8.56191C44.6541 9.53112 44.4628 10.7285 44.8094 11.6831C44.853 12.0128 44.9549 12.3165 45.0853 12.6314C43.9895 14.2441 43.1219 16.068 42.4195 17.8028C41.1922 22.1686 40.4285 26.7121 40.3167 31.1664C39.9446 39.6291 40.8749 49.7378 48.2651 55.2102C52.7294 58.6778 59.7226 58.7943 64.7395 54.4948C65.0242 54.1588 66.3631 53.2519 65.9164 53.0929C65.7834 53.233 65.6467 53.3693 65.5075 53.5032C65.5138 53.4883 65.515 53.4734 65.5124 53.4573L65.6434 53.3391C65.8899 53.1116 66.2093 52.7817 65.8455 52.8462C65.8295 52.8648 65.812 52.8809 65.7947 52.8995C65.7176 52.9456 65.6594 52.9856 65.6141 53.0208L65.5908 53.0394L65.598 53.0319C65.8076 52.8091 65.9332 52.5818 65.6199 52.7269L65.5784 52.7471C65.4391 52.8933 65.2975 53.0334 65.1534 53.1697C65.1557 53.1536 65.1534 53.1375 65.1446 53.1202L65.279 52.9906C65.4102 52.8624 65.3902 52.8619 65.326 52.7582C65.6049 52.3684 65.0843 52.5999 65.0477 52.752C64.722 52.6752 64.436 53.285 64.2262 53.3594C55.0294 60.4112 41.683 54.1541 41.8992 34.504L41.9025 34.1196C41.9657 27.8363 42.4958 21.3783 45.1016 15.6906C45.355 15.1427 45.6385 14.6097 45.9503 14.094C46.1653 13.7073 46.3952 13.3305 46.6425 12.9636C47.3349 12.9078 48.0185 12.7813 48.692 12.5855C48.9233 12.5272 49.1519 12.4628 49.3805 12.3872C52.7212 12.5689 55.9875 12.7666 59.3376 12.954L60.384 13.019C63.2219 13.201 66.1568 13.4924 68.4469 15.2431C70.6939 16.8369 70.7041 19.9798 72.6276 21.7297C75.3706 23.5864 75.3906 25.2607 75.9188 27.9969C75.8796 30.0595 74.4456 33.0564 77.0771 33.9244C76.6331 34.5557 77.252 34.2524 77.3007 34.031C77.3056 34.0323 77.3106 34.0335 77.3143 34.0335C76.9188 34.767 77.5003 34.3051 77.5517 34.0695C77.5828 34.0608 77.6139 34.0385 77.6449 34.0075C77.2464 34.6501 77.8906 34.2001 77.8525 34.0831C78.6227 32.9024 80.2078 32.7191 81.3251 33.0319C81.3388 33.0741 81.3883 33.0778 81.4194 33.0555C86.1704 34.0823 84.9446 43.8917 80.0759 42.9434C79.8675 42.901 79.8725 43.0008 79.8311 43.0104C79.9436 42.7158 79.6265 42.8357 79.6299 42.8976L79.6105 42.8966C79.5952 42.8953 79.6015 42.8936 79.5901 42.8976C79.6988 42.2953 79.0869 43.1679 79.1352 43.2037C79.1164 43.1926 79.0953 43.1864 79.0767 43.1839L79.0977 43.1267C79.1993 42.8569 79.1906 42.969 79.1899 42.8145C79.2662 42.6235 79.2718 42.707 79.2539 42.5826C78.9857 42.3753 78.9065 43.004 78.817 43.05C78.9704 42.8368 78.8485 42.6627 78.7038 42.7784C77.6073 45.0788 76.1908 47.2402 74.3603 48.9429C74.16 49.1003 73.9575 49.2552 73.7475 49.4015C72.9689 50.0779 71.7746 50.5129 71.0456 51.1121C71.0456 51.122 71.0505 51.1344 71.0579 51.1468L71.0413 51.1618V51.1618L71.0244 51.1778L70.7708 51.2993C70.6963 51.3625 70.6292 51.4331 70.5696 51.5112C70.5061 51.5844 70.4503 51.6649 70.403 51.7505C70.3794 51.8546 70.4316 51.898 70.531 51.8533C70.5746 51.8385 70.618 51.8211 70.6615 51.805C70.659 51.8087 70.6579 51.8112 70.6553 51.8137C70.641 51.8352 70.5445 52.0584 70.6557 52.0221L70.6689 52.017C70.73 51.9946 70.7907 51.9699 70.8504 51.9463C70.7795 52.0343 70.715 52.1298 70.6579 52.2103C70.5968 52.2735 70.5597 52.3479 70.5447 52.4322C70.5473 52.4793 70.5732 52.4991 70.6205 52.4929C70.6925 52.4694 70.7634 52.4446 70.8344 52.4186L70.8142 52.457C70.764 52.5553 70.6928 52.7203 70.8193 52.6652C70.9276 52.6318 71.0318 52.5933 71.1362 52.5512C71.1451 52.5686 71.1623 52.5748 71.1971 52.5586C71.529 52.4409 71.8496 52.2971 72.1566 52.1273C72.4263 51.9314 72.6986 51.7393 72.9694 51.5447C73.2243 51.3922 73.4704 51.2224 73.7052 51.0315C75.2768 50.019 76.6528 48.7329 77.7444 47.3005C79.57 48.8773 83.22 47.3709 85.4779 46.1365C87.475 45.0333 88.2599 42.9935 88.4629 40.7943C88.8848 37.8335 91.3108 36.82 91.1421 30.3235C91.1458 30.3248 91.1496 30.3248 91.1546 30.3248C91.2429 30.2987 91.3285 30.264 91.4093 30.2194C91.4925 30.1797 91.5708 30.1326 91.6443 30.0756L91.735 29.9504V29.9504C91.7821 29.9244 91.8244 29.8971 91.8567 29.8698L91.8735 29.8914C91.9265 29.9552 91.8908 29.8592 91.8878 29.8401L92.0454 29.6263C92.4191 29.1174 92.8291 28.5465 93.163 28.0898L93.1736 28.1084C93.1811 28.1224 93.1851 28.1325 93.1816 28.1369C93.9763 26.998 94.7238 25.6224 94.9315 24.2906C95.1767 23.2648 95.0808 22.2077 94.867 21.2574C93.9499 17.9298 90.9457 10.3998 87.0011 7.17237ZM65.4321 53.1914L65.4819 53.147L65.4381 53.2019C65.4152 53.2302 65.3917 53.2557 65.3534 53.2817C65.3559 53.273 65.3559 53.2643 65.3548 53.2544C65.3802 53.235 65.4061 53.2138 65.4321 53.1914ZM58.4569 1.81373C64.2868 1.31382 70.0209 2.59478 75.584 4.14534L75.9678 4.25535C79.1311 5.15558 82.4759 5.96565 85.1491 7.89251C88.8839 10.7456 90.8125 15.2843 92.4956 19.4749C93.9652 22.5884 93.2139 26.0992 90.9992 28.2733C90.7688 26.1128 90.3759 24.0156 89.762 21.9353C89.6338 21.6103 89.7308 21.5038 89.4546 21.4614C89.0375 27.0677 91.0918 31.2098 87.0265 37.854C85.2626 40.9891 87.3045 43.283 82.3233 44.9327L82.1885 44.9841C81.1507 45.3747 80.0174 45.683 79.0009 45.4646L79.092 45.3169C79.1849 45.1648 79.213 45.0909 79.078 45.0258C79.0816 45.0184 79.0866 45.011 79.0917 45.0023C79.2009 44.7965 79.3065 44.5883 79.4073 44.3775C79.4482 44.3912 79.4892 44.4011 79.5316 44.4123C79.5042 44.4631 79.5005 44.5139 79.5775 44.5312C79.8513 44.625 80.1326 44.6625 80.4205 44.6449L80.4823 44.6403C80.8075 44.6205 81.0124 44.5614 81.1958 44.5065C81.2565 44.4965 81.3174 44.4866 81.3772 44.4742C81.9669 44.3438 82.5912 44.0121 82.9953 43.6834C87.6009 41.0744 87.1249 32.1931 81.4479 31.3535C81.3315 25.7617 78.6647 16.3277 74.239 10.9992C70.2386 6.09788 59.3174 3.97353 51.7192 4.7226C51.6085 4.75916 51.4977 4.7961 51.387 4.83341C50.2147 4.93729 49.0976 5.45815 47.9245 5.70011C48.7667 5.07054 49.7222 4.6512 50.7064 4.29483C52.6673 3.09853 54.9154 2.45124 57.0872 1.99471C57.5371 1.88439 57.9932 1.82365 58.4569 1.81373ZM81.708 35.8457C81.4028 35.6803 81.4377 35.84 81.3675 35.7936C79.1719 35.615 76.8044 37.5322 75.5771 39.1305C75.6741 39.2309 75.9363 38.9334 75.9823 38.8863C75.9885 38.8925 75.996 38.8975 76.0034 38.8999L75.9692 38.948C75.4718 39.66 76.4579 38.8222 76.5503 38.6495C76.5664 38.6582 76.5826 38.6632 76.6012 38.6595C76.523 38.7359 76.2843 38.9354 76.2433 39.0772L76.18 39.1297C75.5831 39.6395 75.6327 40.023 76.3103 39.2991C76.2942 39.3325 76.288 39.3635 76.2992 39.3883L76.2759 39.4038C75.9427 39.6361 75.6686 40.2834 76.3651 39.6189C76.2926 40.1043 77.0552 39.1661 77.0797 39.1726C78.3993 38.1395 80.3423 37.1347 81.9976 36.9997L82.0546 36.9932C82.3583 36.9542 82.5019 36.8644 82.3953 36.6663C82.7694 36.5775 82.6818 36.3938 82.5047 36.3998C82.7685 36.2267 82.531 36.0612 82.3779 36.1258C82.4832 35.8351 82.061 36.0288 82.0224 35.9882C81.8033 35.6512 81.7443 35.9323 81.708 35.8457ZM86.3102 17.8288C85.2556 17.4436 82.1407 18.5969 82.3899 20.1242C82.5383 20.4749 83.0272 20.6758 83.3709 20.4779L83.8194 20.1775C84.5999 19.6561 85.3039 19.1989 86.1419 18.7443C86.598 18.5185 86.7944 18.0393 86.3102 17.8288ZM80.3104 15.559L80.7176 15.2947C82.9154 13.8601 86.0224 11.6863 80.5123 13.9353C79.8843 14.204 79.0499 14.3629 78.7072 14.9593C78.169 16.0587 79.5855 16.1326 80.3104 15.559ZM80.0632 9.12213C80.2395 8.45463 78.045 9.2379 77.4062 9.44441L77.3089 9.48107C76.6875 9.712 75.9752 9.92624 75.6035 10.4611C75.168 11.2001 76.0494 11.3532 76.5954 11.0194C77.7148 10.2898 78.9421 9.7393 80.0632 9.12213ZM74.4829 6.01269C75.7181 4.66735 72.4124 5.95614 71.9172 6.31388L71.903 6.32443C71.5335 6.58387 71.6085 7.14267 71.9556 7.30678C72.9433 7.3255 73.6701 6.50442 74.4829 6.01269ZM68.862 4.53883C70.8257 3.13132 68.239 3.8008 67.3405 4.3524C66.7282 4.89099 67.3589 5.8002 68.862 4.53883Z" fill="black"></path> <path fill-rule="evenodd" clip-rule="evenodd" d="M61.5271 37.7221C58.3122 37.7221 55.706 35.4469 55.706 32.6403C55.706 29.8338 58.3122 27.5586 61.5271 27.5586C64.742 27.5586 68.2213 29.7415 68.2213 32.5481C68.2213 33.7389 67.2809 35.8199 66.4951 36.6862C65.4289 37.8615 63.3779 37.7221 61.5271 37.7221Z" fill="white"></path> <path fill-rule="evenodd" clip-rule="evenodd" d="M47.671 36.7495C45.2099 36.7495 43.2149 34.692 43.2149 32.154C43.2149 29.616 45.2099 27.5586 47.671 27.5586C50.132 27.5586 52.7954 29.5326 52.7954 32.0706C52.7954 33.1475 52.0756 35.0293 51.474 35.8127C50.6578 36.8756 49.0878 36.7495 47.671 36.7495Z" fill="white"></path> <path fill-rule="evenodd" clip-rule="evenodd" d="M61.6083 40.8787C61.5828 40.8552 61.5426 40.847 61.5119 40.8662C60.9872 41.1973 60.9251 42.3106 60.9191 42.9535C60.702 43.0099 60.4876 43.074 60.2849 43.1188C59.8543 43.2138 59.4213 43.2967 58.9892 43.3841L58.6654 43.4508C57.5829 43.6784 56.4802 43.8468 55.3771 43.9311C54.3065 44.0129 53.2048 44.0428 52.1373 43.9053C51.6789 43.8461 51.2231 43.7474 50.7801 43.6156C50.2565 43.4598 49.8394 43.2014 49.3524 42.9752C48.1331 42.4086 47.1112 44.069 48.2847 44.7976C49.292 45.4228 50.6662 45.6482 51.829 45.745C53.0175 45.8438 54.2013 45.7353 55.3755 45.5477C56.6449 45.3448 57.8881 45.0333 59.092 44.5815C59.6011 44.3905 60.0937 44.1589 60.5747 43.9057L60.7056 43.8362C60.7855 43.7933 60.8688 43.7499 60.9526 43.7059C61.0427 44.5077 61.3023 45.2822 61.6161 46.0266L61.6235 46.0136C61.7951 46.6009 62.415 46.9642 63.0318 46.7048C63.7558 46.4005 63.8108 45.6017 63.3895 45.0348L63.3694 45.0084C62.8742 44.3727 62.5638 43.584 62.2941 42.8323C62.1557 42.4469 62.0277 42.0522 61.9166 41.658C61.8362 41.3728 61.8333 41.086 61.6083 40.8787ZM42.9528 34.4936C43.3819 35.7875 44.3178 36.7838 45.6215 37.2219C46.9135 37.6561 48.3505 37.4979 49.6712 37.2631C49.9601 37.2117 50.253 37.155 50.5453 37.0889C50.3061 37.2367 50.0947 37.4448 49.8925 37.6649C49.5935 37.9902 49.3224 38.333 49.2401 38.7402C49.1585 39.1442 49.2871 39.4516 49.5216 39.6836C49.8824 40.0404 50.4643 40.2327 50.9572 40.3389C52.061 40.5769 53.1667 40.5399 54.265 40.2959C54.5455 40.2336 54.7357 40.0836 54.8424 39.8879C54.9721 39.6502 54.9827 39.3546 54.9083 39.0853C54.8339 38.8163 54.6732 38.5682 54.44 38.4309C54.2481 38.3178 54.008 38.2868 53.7354 38.3773C53.1885 38.5589 52.6454 38.6792 52.0677 38.6931C51.8232 38.6987 51.577 38.6915 51.3329 38.6691C51.1948 38.6565 51.057 38.6389 50.92 38.617C51.0007 38.5098 51.0791 38.4007 51.1557 38.2904C51.2462 38.16 51.3343 38.0279 51.4184 37.8937C51.6617 37.5049 51.8643 37.1053 52.0423 36.6835C52.0994 36.5484 52.1524 36.4127 52.2032 36.2765C52.2105 36.2569 52.2178 36.2373 52.2251 36.2176C52.2408 36.2045 52.2564 36.1913 52.2718 36.178C52.62 35.8774 52.9119 35.5072 53.1184 35.0486C53.6775 33.8065 53.5864 32.2647 53.2472 30.975C52.9754 29.9412 52.3753 28.985 51.5825 28.3354C51.4441 28.1081 51.3527 27.9703 51.2407 27.8542C50.7851 27.3813 50.1493 27.0623 49.5289 26.8683C48.1432 26.4348 46.634 26.7458 45.4593 27.5712C44.3748 28.3334 43.5257 29.4764 43.0669 30.7477C42.6324 31.9517 42.5476 33.2722 42.9528 34.4936ZM61.8276 26.6306C60.1797 26.6166 58.503 27.102 57.1657 28.0735C55.8863 29.0031 54.8819 30.3755 54.8831 32.0103C54.8843 33.6019 55.7371 35.1669 56.6829 36.3992C57.7445 37.7827 59.1319 38.4497 60.8763 38.4651C61.783 38.4732 62.6964 38.393 63.5966 38.283L64.0796 38.2222C64.7447 38.1367 65.4167 38.0353 66.0471 37.8073C69.0479 36.7214 69.1407 32.8027 68.0294 30.2977C67.1713 28.3638 64.9994 26.4777 62.8337 26.7041C62.5074 26.6585 62.1723 26.6337 61.8276 26.6306ZM59.0443 28.4734C61.108 27.5492 63.6154 27.8259 65.6173 28.8122C66.4103 29.6753 66.9898 30.7632 67.2244 31.7619C67.4748 32.8279 67.4382 33.9763 67.0616 35.0096C66.6019 36.271 65.4698 36.5834 64.2486 36.7772L63.7745 36.8515L63.5756 36.8815C62.3756 37.0601 61.0637 37.199 59.9105 36.9755C58.6254 36.7262 57.8092 35.6903 57.1668 34.6283L57.1368 34.5785C56.4697 33.4657 55.9112 32.1124 56.4708 30.8374C56.9465 29.7536 57.9857 28.9474 59.0443 28.4734ZM46.8638 28.7955C47.572 28.4039 48.3798 28.3328 49.1445 28.5949C49.4736 28.7076 49.7579 28.8903 50.0336 29.0952L50.1435 29.1782C50.4825 29.4378 50.7991 29.5693 51.0534 29.9199L51.0862 29.967C51.2145 30.1581 51.439 30.2346 51.6435 30.2092C51.8818 30.8646 51.9801 31.5734 51.9821 32.2712L51.9819 32.3636L51.9807 32.4579C51.9654 33.2827 51.8212 34.2917 51.1708 34.8445C50.5775 35.3486 49.6791 35.4696 48.8771 35.5398L48.2591 35.5912L48.0948 35.6036C47.2494 35.6622 46.3231 35.6422 45.6147 35.143C44.9976 34.7081 44.7066 33.97 44.6311 33.2413C44.4527 31.5197 45.3261 29.6455 46.8638 28.7955ZM62.2797 28.9545C61.1432 28.3757 59.7781 28.5208 58.8154 29.2462C58.9009 29.2629 58.985 29.2842 59.069 29.3262C59.2874 29.4355 59.423 29.6542 59.4746 29.887C59.5328 30.1502 59.3962 30.3993 59.1358 30.4823C58.9093 30.5544 58.6406 30.5875 58.4302 30.4501C58.32 30.3783 58.243 30.2835 58.1924 30.1642L58.1853 30.1467L58.1764 30.1338L58.173 30.1278C58.1722 30.1255 58.1762 30.1298 58.1825 30.1397C58.176 30.1248 58.1701 30.1099 58.1642 30.0948C58.1553 30.0767 58.1468 30.0586 58.1399 30.0398C58.1277 30.0293 58.1165 30.0176 58.1052 30.0058C57.9303 30.2743 57.7931 30.5775 57.7059 30.9149C57.1463 33.08 59.4408 35.327 61.4907 35.5518C62.2654 35.6368 62.9718 35.4527 63.558 35.09C63.5527 35.0829 63.5467 35.0764 63.5419 35.0689C63.3064 35.1112 63.0252 35.006 62.9398 34.744C62.7216 34.0755 62.9453 33.2935 63.6754 33.0751C64.1452 32.9345 64.6259 33.0898 64.9617 33.4102C65.2157 32.7901 65.3065 32.092 65.1863 31.3928C65.0168 30.4063 64.4204 29.5174 63.4921 29.107C63.0402 28.907 62.6506 28.865 62.2797 28.9545ZM50.3116 30.2904L50.277 30.236C49.9258 29.6968 49.2545 29.0354 48.5589 29.2173C48.4611 29.2428 48.3653 29.284 48.279 29.3373C47.8967 29.2855 47.4965 29.3722 47.1679 29.5739L47.1768 29.5965C47.1782 29.6003 47.1795 29.6041 47.1805 29.6081C47.2104 29.7393 47.193 29.8605 47.1316 29.981C47.065 30.1116 46.9701 30.2353 46.8415 30.3102C46.7534 30.3615 46.6497 30.3885 46.548 30.3865C46.399 30.3838 46.2678 30.3183 46.1601 30.2184C46.1015 30.1642 46.0606 30.0847 46.0381 30.0029C45.985 30.0537 45.9334 30.1104 45.8843 30.1746C45.0777 31.2328 45.1892 32.9333 46.1355 33.8765C46.1737 33.9145 46.2143 33.9489 46.2544 33.984C46.6386 34.5116 47.2308 34.8698 47.9421 34.9423C48.6006 35.0094 49.2591 34.8151 49.7641 34.4168C49.7234 34.3952 49.6855 34.3673 49.6527 34.3303C49.5665 34.2329 49.4956 34.1368 49.4432 34.0179C49.43 33.9879 49.4173 33.9578 49.4053 33.9274L49.3878 33.8815C49.3847 33.8731 49.3578 33.7957 49.365 33.8093L49.3666 33.8124L49.3571 33.7901C49.2667 33.565 49.3032 33.3078 49.5177 33.1666L49.5414 33.1519C49.6115 33.1111 49.6983 33.0919 49.7863 33.0916C50.0053 32.8241 50.3313 32.7628 50.6372 32.8409L50.648 32.7546C50.6496 32.7402 50.651 32.7257 50.652 32.7112C50.8891 31.9271 50.7748 31.036 50.3116 30.2904ZM60.8375 22.3955L60.7588 22.3833C60.1635 22.2975 59.7588 22.3963 59.3718 22.9038C59.1873 23.1457 59.2442 23.511 59.3718 23.7581C59.7839 24.5568 60.9175 24.3917 61.6811 24.5503C62.4265 24.705 63.1702 24.9157 63.8677 25.2223C64.5795 25.5352 65.2476 25.9053 65.8991 26.3279C66.4883 26.7104 67.0228 27.2852 67.696 27.5078C67.7263 27.5178 67.7628 27.4907 67.7609 27.4586C67.7129 26.6948 67.0735 25.9936 66.5782 25.4496C66.0053 24.8206 65.3086 24.2621 64.583 23.818C63.8343 23.36 63.0249 22.9828 62.1869 22.7198C61.7456 22.5812 61.2941 22.4711 60.8375 22.3955ZM51.7695 23.4334C51.02 22.34 49.1569 22.5497 48.0575 22.8419C46.6792 23.208 45.1856 23.9486 44.219 25.0206C43.3533 25.981 44.6486 27.2287 45.6221 26.4205L45.882 26.2056L46.0482 26.0693C46.7956 25.4603 47.5358 24.9091 48.4466 24.503C49.5145 24.0272 50.5966 23.7953 51.7253 23.5417C51.7697 23.5318 51.7958 23.4718 51.7695 23.4334Z" fill="#1A1A1A"></path> </g> <defs> <clipPath id="clip0"> <rect width="130" height="356" fill="white" transform="matrix(-1 0 0 1 130 0)"></rect> </clipPath> </defs> </svg> 