<?xml version="1.0" encoding="UTF-8"?> <svg xmlns="http://www.w3.org/2000/svg" width="16" height="20" viewBox="0 0 16 20" fill="none"> <path d="M7.96956 18.7939C7.84251 18.7939 7.7053 18.7544 7.65448 18.653L7.62908 18.5967L7.59856 18.546C7.52741 18.4333 7.51217 18.3657 7.50708 18.2925C7.2479 13.983 4.97119 11.1381 1.25628 10.479C1.15464 10.4621 1.10891 10.4283 1.10382 10.4227C1.09874 10.4114 1.06823 10.3325 1.08856 10.1804L1.114 9.99454L1.08856 9.80863C1.06823 9.65652 1.09366 9.57766 1.10382 9.56639C1.10891 9.56076 1.15464 9.52696 1.25628 9.51006C4.97119 8.85659 7.2479 6.0061 7.50708 1.69657C7.51217 1.62334 7.52741 1.55573 7.59856 1.44306L7.62908 1.39236L7.65448 1.33602C7.7053 1.22899 7.8425 1.19519 7.9543 1.19519C7.9543 1.19519 8.03055 1.19519 8.03563 1.19519C8.16268 1.19519 8.29989 1.23462 8.35071 1.33602L8.37611 1.39236L8.4066 1.44306C8.47775 1.55573 8.49299 1.62334 8.49807 1.69657C8.75725 6.0061 11.034 8.85659 14.7438 9.51006C14.8455 9.52696 14.8912 9.56076 14.8963 9.56639C14.9014 9.57766 14.9318 9.65652 14.9115 9.80863L14.8861 9.99454L14.9115 10.1804C14.9318 10.3325 14.9064 10.4114 14.8963 10.4227C14.8912 10.4283 14.8455 10.4621 14.7438 10.479C11.034 11.1325 8.75725 13.983 8.49807 18.2925C8.49299 18.3657 8.47775 18.4333 8.4066 18.546L8.37611 18.5967L8.35071 18.653C8.29989 18.7601 8.16266 18.7939 8.05086 18.7939C8.04578 18.7939 7.96956 18.7939 7.96956 18.7939Z" fill="white"></path> <path d="M14.9165 8.33253C11.6082 7.74666 9.799 5.2905 9.57539 1.62318C9.55507 1.27391 9.44327 1.00351 9.29589 0.766909C9.04179 0.248639 8.53361 -0.0161389 8 0.000761244C7.4664 -0.0161389 6.95821 0.248639 6.70411 0.766909C6.55673 1.00351 6.4449 1.27391 6.42458 1.62318C6.20605 5.2905 4.39182 7.74666 1.08347 8.33253C0.199209 8.49026 -0.0853939 9.25076 0.0213272 10C-0.0853939 10.7492 0.204291 11.5098 1.08347 11.6675C4.39182 12.2534 6.20605 14.7095 6.42458 18.3768C6.4449 18.7261 6.55673 18.9965 6.70411 19.2331C6.95821 19.7514 7.4664 20.0161 8 19.9992C8.53361 20.0161 9.04179 19.7514 9.29589 19.2331C9.44327 18.9965 9.55507 18.7261 9.57539 18.3768C9.79392 14.7095 11.6082 12.2534 14.9165 11.6675C15.8008 11.5098 16.0854 10.7492 15.9787 10C16.0854 9.25076 15.8008 8.49026 14.9165 8.33253ZM8 12.9294C7.36984 11.7576 6.53639 10.7718 5.51492 10C6.53639 9.22823 7.36984 8.2424 8 7.07066C8.63016 8.2424 9.46361 9.22823 10.4851 10C9.46361 10.7661 8.63016 11.7576 8 12.9294Z" fill="#1A1A1A"></path> </svg> 