<?xml version="1.0" encoding="UTF-8"?> <svg xmlns="http://www.w3.org/2000/svg" width="154" height="139" viewBox="0 0 154 139" fill="none"> <g filter="url(#filter0_d)"> <path d="M33.7961 41.3983L49.1422 43.6963L57.8091 38.8887L60.8981 31.0626L62.6145 15.0376L69.5451 28.2675L76.7004 37.0596L81.985 37.9412L90.4048 28.8618L95.8605 11.0156L97.1881 11.9197L97.7826 26.9046L102.742 33.9092L110.932 37.4051L124.072 36.4999L118.973 42.8201L113.959 53.6167L114.693 59.6875L122.461 67.8732L145.183 78.204L127.905 77.6327L115.222 79.167L107.986 85.4416L108.859 98.9481L95.1823 93.5304L87.1538 96.4028L83.4483 100.005L77.9353 115.405L72.8827 103.3L64.1939 102.335L51.0418 116.431L42.2128 131.033L39.9896 133.025L44.765 115.467L44.3467 102.845L37.8556 95.0169L27.5255 95.1753L33.2526 85.4843L29.7132 75.5769L11.2756 65.7492L33.6599 60.3343L38.9831 53.4152L37.569 46.8189L33.7961 41.3983Z" fill="white"></path> <path d="M66.4169 80.3026C64.5545 74.2272 62.4909 68.2098 60.2539 62.2939C59.5679 60.4228 58.8382 58.5775 58.0228 56.7839C57.5761 55.8206 56.7431 55.4942 55.9278 55.7952C55.1126 56.0962 54.7321 56.8429 54.9794 57.864C55.111 58.487 55.3541 59.1002 55.5276 59.6975C57.8226 66.5113 60.1176 73.325 62.4124 80.1369C62.5221 80.4234 62.6994 80.7261 62.4525 81.1044C62.1893 80.8515 61.9243 80.5988 61.6592 80.3461C60.0705 78.8277 58.5433 77.2139 57.104 75.55C56.516 74.8455 55.7844 74.6905 55.0629 75.0532C54.3414 75.4159 54.0662 76.0412 54.2636 76.9747C54.4193 77.6416 54.6188 78.2826 54.7764 78.9492C55.3428 81.4137 55.8652 83.9023 56.2921 86.6254C56.0349 86.4841 55.9653 86.4664 55.9393 86.4226L55.808 86.5004C52.0762 82.2155 48.3442 77.9287 44.8914 73.4227C43.2907 71.3869 41.5881 69.4701 40.1187 67.3565C39.5924 66.5565 38.7473 66.4095 38.0096 66.8397C37.2703 67.272 36.9851 68.0784 37.3124 68.9381C37.4459 69.2667 37.6492 69.6131 37.8526 69.9613C39.5072 72.4891 41.3533 74.8475 43.1556 77.2318C45.825 80.7984 48.8172 84.1179 51.7219 87.4893C53.1372 89.1092 54.5944 90.7034 56.2012 92.154C56.9189 92.7829 57.6842 93.0931 58.6549 92.7584C59.825 92.3676 60.2375 91.7763 60.2116 90.3367C60.1813 88.4893 59.8403 86.7095 59.6546 84.8959C59.6267 84.4478 59.4154 83.988 59.6106 83.5241C60.0072 83.701 60.2526 84.0236 60.5436 84.32C61.7735 85.5239 62.9775 86.6841 64.2852 87.725C64.8075 88.1189 65.3297 88.5129 66.0294 88.5126C67.7217 88.5139 68.7999 87.0683 68.1877 85.621C67.4638 83.8856 66.9832 82.0683 66.4169 80.3026Z" fill="#1A1A1A"></path> <path d="M74.6137 54.7243L74.6791 54.7538C73.7379 53.6105 72.6279 52.5907 71.2543 51.9981C69.1812 51.1435 67.1595 51.7833 65.9767 53.7138C65.4796 54.5046 65.1768 55.3825 65.0064 56.3155C64.7887 57.5391 64.7289 58.751 64.7349 59.9943C64.8077 64.1317 65.7334 68.0928 67.1151 71.9782C68.163 75.0271 69.5862 77.9219 71.5328 80.5061C72.446 81.7127 73.48 82.8167 74.8147 83.5845C77.3351 85.0201 79.8428 84.2409 81.0851 81.64C81.4145 80.9669 81.6118 80.2404 81.7454 79.4842C82.0018 78.0836 82.0516 76.7118 81.9893 75.3291C81.8138 71.0712 80.7405 67.0061 79.237 62.9519C78.0408 60.0727 76.6824 57.2019 74.6137 54.7243ZM78.2529 74.6495C78.3704 75.9 78.3761 77.1414 78.1773 78.4133C78.0633 78.9442 77.9493 79.4751 77.7238 79.9988C77.4793 80.4743 77.1519 80.6057 76.6759 80.3617C76.0504 80.0139 75.5288 79.5168 75.0334 78.9566C73.6344 77.3479 72.6223 75.4787 71.7476 73.5517C71.459 72.9646 71.265 72.338 71.0226 71.7303C69.5556 68.0389 68.5931 64.2546 68.3718 60.285L68.3905 60.3315C68.3383 59.1087 68.3978 57.895 68.7274 56.6804C69.1531 55.16 69.639 55.0207 70.8146 56.07C71.9899 57.1176 72.8735 58.3896 73.6364 59.7643C76.2431 64.4101 77.7814 69.3726 78.2529 74.6495Z" fill="#1A1A1A"></path> <path d="M99.2521 41.484C98.3863 41.5682 97.8293 42.1901 97.8044 43.2404C97.7706 43.8759 97.8481 44.5317 97.8633 45.1537C98.3334 52.3269 98.8055 59.5017 99.2759 66.6767C99.3069 66.9802 99.4023 67.319 99.0673 67.62C98.8757 67.3078 98.686 66.9954 98.4944 66.6832C97.3483 64.8078 96.2871 62.8584 95.322 60.8824C94.9344 60.0506 94.2671 59.7135 93.4766 59.8784C92.6862 60.0434 92.2597 60.5802 92.21 61.5343C92.1915 62.2185 92.218 62.8879 92.1995 63.5721C92.1152 66.1003 91.9832 68.6381 91.6959 71.3801C91.484 71.1791 91.4215 71.1435 91.4081 71.0946L91.2629 71.1346C88.7552 66.0365 86.2476 60.9384 84.0662 55.6997C83.0432 53.3223 81.8864 51.0322 81.0086 48.6148C80.7056 47.7071 79.9268 47.348 79.101 47.5771C78.2749 47.8045 77.7923 48.513 77.8895 49.4249C77.9358 49.7771 78.0426 50.1633 78.1495 50.5513C79.0986 53.4192 80.2795 56.1709 81.4094 58.9364C83.0761 63.0683 85.1157 67.0427 87.0594 71.0455C88.011 72.9725 89.01 74.8882 90.1915 76.6994C90.7246 77.493 91.3827 77.9867 92.4075 77.9133C93.6397 77.8336 94.1893 77.368 94.532 75.9682C94.9755 74.1759 95.1019 72.3676 95.3868 70.5664C95.4741 70.1249 95.3877 69.6277 95.696 69.2306C96.0326 69.5009 96.1886 69.8755 96.3918 70.2369C97.2723 71.7154 98.1374 73.1452 99.1344 74.4859C99.5381 75.001 99.9419 75.5161 100.618 75.6929C102.254 76.1282 103.666 75.0075 103.444 73.4512C103.191 71.5914 103.192 69.7121 103.098 67.8594C102.855 61.5111 102.404 55.1656 101.76 48.8754C101.576 46.891 101.345 44.9199 101.014 42.9777C100.839 41.9328 100.118 41.4017 99.2521 41.484Z" fill="#1A1A1A"></path> <path d="M147.794 78.4767C137.688 74.2942 124.63 70.0358 117.61 61.1164C111.022 52.7442 121.153 42.593 126.727 36.9556C127.554 36.1174 126.605 34.4898 125.475 34.737C118.152 36.3367 109.272 37.7183 103.127 32.3745C96.4227 26.5457 97.6798 14.3129 98.4975 6.58862C98.6835 4.8237 96.181 4.48194 95.7944 6.1868C93.6789 15.5107 91.2007 26.8139 84.539 34.0986C74.8902 44.6505 65.6343 16.1324 63.8676 11.0496C63.4507 9.85228 61.3635 10.028 61.3125 11.3587C60.9955 19.7944 61.3756 31.0309 55.8182 38.0321C50.0231 45.3318 36.8884 39.9549 30.1071 37.3973C29.5723 37.0086 28.9935 37.2172 28.6533 37.6612C28.183 38.1771 28.1145 39.0529 28.8025 39.468C34.1837 44.7187 42.2529 53.5955 32.4688 58.6874C24.9788 62.5837 15.2706 62.9994 7.03227 63.8574C5.37072 64.0322 5.56451 66.2232 6.99257 66.5994C13.8248 68.3996 20.5393 70.9166 26.22 75.2C34.4873 81.4355 31.3288 89.3324 24.6275 95.3291C23.3969 96.4297 24.4704 98.2484 26.0285 97.777C33.2186 95.6032 40.7182 95.7563 42.7196 104.267C44.94 113.706 41.2147 124.95 38.4035 133.826C37.8415 135.601 40.0814 136.516 41.0125 134.955C47.057 124.816 53.6771 112.349 63.6354 105.426C71.8339 99.7261 75.1007 111.657 76.476 117.537C76.8292 119.045 78.991 119.237 79.2872 117.577C80.482 110.877 81.8402 103.496 86.4506 98.2033C92.2867 91.5056 102.458 97.3797 108.185 100.998C109.414 101.773 110.766 100.744 110.36 99.3559C108.757 93.8898 106.699 86.4815 112.141 82.4957C115.369 80.1324 120.02 79.832 123.857 79.5852C131.565 79.0874 139.41 80.1149 147.032 81.1413C148.59 81.35 149.278 79.0916 147.794 78.4767ZM109.909 80.6487C104.771 84.4065 105.394 91.1528 106.784 96.8714C100.972 93.4882 93.5992 90.322 87.5163 93.8626C81.5822 97.3159 79.1126 104.41 77.6346 111.158C75.7124 105.457 72.3536 99.6801 65.9016 101.287C61.309 102.431 57.6759 106.544 54.6837 109.94C50.7614 114.392 47.3516 119.312 44.1616 124.359C46.1792 116.522 47.2962 108.201 44.6529 100.865C42.2558 94.2157 35.8977 93.1713 29.8404 94.0559C34.0519 89.1098 36.1189 83.3234 31.9528 77.0151C28.2689 71.4354 21.2575 68.1393 14.512 65.924C22.7115 65.1007 31.8964 63.6785 37.4866 58.3746C42.8884 53.2508 38.6128 46.4555 34.1557 41.494C41.5658 44.0861 50.3707 46.1123 56.5565 40.9873C62.3263 36.2068 63.3971 26.8538 63.7321 18.815C67.3466 28.643 74.0305 42.9559 83.5981 38.1993C87.8626 36.0797 90.3359 30.9073 92.2021 26.8108C93.3839 24.221 94.3764 21.5397 95.2529 18.8145C95.5813 24.2736 96.9413 29.5761 100.566 33.6754C105.73 39.5126 114.278 39.4695 121.652 38.2739C115.885 44.4837 110.027 52.6135 114.202 60.9029C116.373 65.2155 120.829 68.1856 124.802 70.6389C128.691 73.0406 132.817 75.067 137.013 76.9388C127.548 75.8075 116.935 75.5082 109.909 80.6487Z" fill="#1A1A1A"></path> </g> <defs> <filter id="filter0_d" x="-2" y="1.52588e-05" width="155.742" height="140.782" filterUnits="userSpaceOnUse" color-interpolation-filters="sRGB"> <feFlood flood-opacity="0" result="BackgroundImageFix"></feFlood> <feColorMatrix in="SourceAlpha" type="matrix" values="0 0 0 0 0 0 0 0 0 0 0 0 0 0 0 0 0 0 127 0"></feColorMatrix> <feOffset dx="-2" dy="2"></feOffset> <feColorMatrix type="matrix" values="0 0 0 0 0.101961 0 0 0 0 0.101961 0 0 0 0 0.101961 0 0 0 1 0"></feColorMatrix> <feBlend mode="normal" in2="BackgroundImageFix" result="effect1_dropShadow"></feBlend> <feBlend mode="normal" in="SourceGraphic" in2="effect1_dropShadow" result="shape"></feBlend> </filter> </defs> </svg> 