<?xml version="1.0" encoding="UTF-8"?> <svg xmlns="http://www.w3.org/2000/svg" width="106" height="165" viewBox="0 0 106 165" fill="none"> <g clip-path="url(#clip0)"> <path fill-rule="evenodd" clip-rule="evenodd" d="M14.173 97.0127C15.3532 92.4398 16.4385 90.5009 18.5351 88.9115C20.4961 87.4248 23.3587 86.1761 27.5356 85.264C31.8861 84.5042 32.0094 82.2453 33.1002 78.6148C33.4184 77.5234 34.9954 77.233 35.676 78.0196C35.7719 77.9162 35.872 77.8214 35.9755 77.7358C35.8829 77.2153 36.6415 75.7234 36.6162 75.2255C36.3516 70.0284 38.0532 67.4187 42.3002 66.4485C43.2238 66.2374 49.4974 66.1132 50.3979 66.3619C54.3349 67.4493 58.2106 70.9019 57.6175 75.061C58.8533 76.6744 60.0628 77.6591 61.9694 78.179C64.9385 78.5556 63.447 120.578 58.2903 145.754C56.0778 156.556 3.17418 138.171 5.56474 132.761C5.22586 131.769 5.84352 130.679 5.56474 129.655C5.36298 128.914 4.84629 128.608 4.58622 127.874C4.22025 126.841 4.61825 125.456 5.03029 124.402C5.19915 123.877 4.7195 123.311 4.58622 122.775C3.95399 120.248 5.40167 120.471 6.44533 118.781C6.4298 118.776 6.15839 117.569 6.15961 117.575C5.99982 116.714 6.40014 115.611 6.74934 114.892C6.98535 114.406 7.49092 114.102 7.99326 114.157C7.48737 112.442 6.84757 111.014 6.15961 109.361C4.94287 106.448 3.7858 103.4 2.03864 100.762C1.32315 99.6823 1.90101 98.689 3.05888 98.6154C6.80655 98.3776 10.5132 97.8385 14.173 97.0127Z" fill="#AE5D29"></path> <path fill-rule="evenodd" clip-rule="evenodd" d="M20.0233 97.366L28.578 111.83C28.578 111.83 26.5486 112.032 25.7273 112.427C24.906 112.821 21.135 117.61 21.135 117.61L20.5358 120.248L21.9556 122.374L21.4019 123.709C21.4019 123.709 21.0068 122.805 20.0233 122.102C19.0398 121.4 16.8708 120.248 16.8708 120.248C16.8708 120.248 17.5916 119.862 17.5916 119.41C17.5916 118.958 18.2265 117.028 16.8708 116.299C15.515 115.571 8.50949 113.865 8.50949 113.865L1.40957 98.9023L20.0233 97.366Z" fill="#44E8AD"></path> <path fill-rule="evenodd" clip-rule="evenodd" d="M58.1856 78.2771L31.0217 83.0401L18.535 88.9114L16.4966 90.4803L28.578 111.83L47.2327 115.231L51.9853 127.564L51.0152 141.466L20.6678 137.851L7.57732 136.297L4.50007 148.709L5.05601 153.815L5.86455 156.404L38.3167 165.157C38.3167 165.157 54.8418 163.557 57.7711 163.557C60.7004 163.557 82.1779 165.688 82.1779 165.688L87.1472 165.157C87.1472 165.157 98.1418 153.58 99.8471 149.46C101.552 145.339 105.24 120.293 105.24 120.293L104.834 116.445L95.3347 92.0216C95.3347 92.0216 94.0662 90.8708 92.467 88.9114C90.8678 86.952 58.1856 78.2771 58.1856 78.2771Z" fill="#FCF6F1"></path> <path fill-rule="evenodd" clip-rule="evenodd" d="M9.02207 113.556C11.4769 113.681 13.9345 114.264 16.1551 115.321C17.0637 115.754 17.8869 116.379 18.128 117.407C18.2498 117.932 18.22 118.475 18.1552 119.005C18.1063 119.407 18.0941 119.919 17.7448 120.191C17.6852 120.237 17.6216 120.272 17.5552 120.298C18.3744 120.668 19.1545 121.111 19.8477 121.569C20.4813 121.987 21.1326 122.631 21.425 123.357C21.4494 123.275 21.4738 123.198 21.4982 123.124C21.9964 121.653 22.7642 120.447 23.9733 119.637C24.1106 119.137 25.5842 116.985 26.953 117.066C28.4519 117.154 29.6576 117.264 31.0131 117.952C31.5072 117.941 32.0002 117.948 32.4875 117.97C32.5715 117.972 32.5674 118.086 32.4875 118.096C32.0921 118.146 31.6967 118.201 31.3014 118.266C30.3617 118.416 29.4247 118.607 28.5081 118.844C27.4085 119.128 26.2711 119.413 25.2434 119.91C23.2504 120.875 22.0167 123.397 22.27 125.591C22.3119 125.951 22.4514 127.039 22.9512 126.926C23.3735 126.832 23.5414 125.951 23.689 125.625C24.0844 124.759 24.7966 124.193 25.651 123.81C26.6543 123.36 27.7281 123.055 28.7681 122.701C29.357 122.5 29.946 122.298 30.5363 122.098C31.1402 121.891 31.7144 121.605 32.3575 121.75C32.7461 121.838 32.7908 122.301 32.5728 122.566C32.2411 122.97 31.7482 123.089 31.2702 123.256C30.6393 123.475 30.0096 123.694 29.38 123.913C28.4066 124.251 27.3869 124.537 26.4378 124.951L26.4675 125.019C26.5448 124.997 26.6355 125.074 26.6205 125.169C26.4783 126.044 26.2806 127.056 26.5001 127.933C26.6733 128.628 27.2841 129.398 28.0774 129.194C27.9528 129.08 27.9068 128.884 27.9908 128.703C28.305 128.032 32.4212 125.383 32.7881 126.366C32.8003 126.401 32.7625 126.427 32.7326 126.422C32.4198 126.357 31.8958 126.89 31.6454 127.059C31.2839 127.303 30.917 127.54 30.5594 127.791C30.168 128.064 29.7862 128.351 29.4138 128.647C29.1214 128.88 28.9007 129.122 28.565 129.24C28.7409 129.324 28.8805 129.479 28.9399 129.678C29.0916 130.196 29.3841 130.636 29.8918 130.865C30.424 131.103 31.0238 130.953 31.5844 131.011C32.348 131.088 33.0142 131.451 33.5707 131.969C34.7393 133.059 35.3256 134.98 36.9599 135.496C37.9361 135.803 39.0194 135.609 40.0078 135.47C41.1114 135.315 42.1865 135.191 43.2981 135.354C44.3624 135.509 45.3684 135.877 46.3406 136.327C47.2519 136.747 48.2593 137.224 49.0677 137.851C49.2342 137.339 49.4021 136.831 49.5295 136.308C49.83 135.07 49.9925 133.809 50.0319 132.537C50.0683 131.326 50.0006 130.11 49.8965 128.904C49.8449 128.302 49.7636 127.703 49.7122 127.101C49.6988 126.949 49.6716 126.787 49.6513 126.625C48.2079 125.774 46.6915 125.122 45.1628 124.45C45.1586 124.449 45.1545 124.446 45.1504 124.445C45.1031 124.423 45.057 124.403 45.0096 124.383C45.011 124.38 45.0123 124.377 45.015 124.375C44.8404 124.268 44.7185 124.126 44.6454 123.966C42.4424 122.506 40.6009 120.513 39.2279 118.189C38.6524 117.215 38.0986 116.204 37.3458 115.351C36.5442 114.44 35.5923 113.899 34.4143 113.617C33.0372 113.287 31.6182 113.09 30.2073 112.977C29.4369 112.917 28.5758 112.822 27.7362 112.826C27.1513 112.83 26.5786 112.88 26.0531 113.025C25.2746 113.238 24.8196 113.83 24.3308 114.428C23.8637 115.002 23.3992 115.577 22.9632 116.175C22.5504 116.741 22.1603 117.327 21.8218 117.941C21.6187 118.309 21.4305 118.688 21.272 119.079C21.2165 119.217 21.1434 119.374 21.1096 119.518C21.0757 119.662 21.138 119.815 20.9755 119.815C21.6457 119.825 22.0912 121.495 21.425 121.455C20.4884 121.401 20.0175 120.279 20.201 119.283C20.5284 117.507 22.2967 115.362 22.6465 114.908C23.4197 113.904 24.2171 112.594 25.4546 112.128C25.4723 112.121 25.4912 112.114 25.5088 112.109C25.1486 111.768 24.8643 111.359 24.5921 110.944C24.3118 110.516 23.9775 110.027 23.8853 109.519C23.8271 109.196 24.2292 109.012 24.4202 109.295C24.6977 109.707 24.8318 110.23 25.039 110.683C25.2502 111.143 25.5075 111.577 25.7106 112.041C26.1994 111.891 26.7274 111.822 27.265 111.799C26.5866 110.882 25.4277 109.112 25.2881 108.885C24.6463 107.832 24.0356 106.747 23.452 105.661C22.8212 104.484 22.2808 103.258 21.6769 102.067C21.3343 101.392 20.989 100.712 20.6086 100.057C20.4772 99.8321 20.3364 99.6075 20.1766 99.4033C20.1455 99.3628 20.1062 99.329 20.0696 99.291C20.0277 99.268 19.9843 99.2423 19.96 99.2289C19.7408 99.103 19.6634 98.8108 19.5092 98.6253C19.2626 98.3264 18.9729 98.2913 18.6019 98.2871C17.8112 98.279 17.0177 98.3101 16.2282 98.3317C15.0678 98.3642 13.9088 98.4102 12.7497 98.4711C12.399 98.49 12.0497 98.509 11.699 98.5306C10.0132 98.6309 8.3288 98.762 6.64845 98.9231C5.16171 99.065 3.67499 99.2965 2.1869 99.4074C4.20171 104.19 6.43587 108.886 8.96534 113.419C8.99093 113.464 9.01002 113.51 9.02207 113.556ZM20.2008 125.878C20.5258 126.027 20.8413 126.212 21.1351 126.423C21.0863 126.094 21.0742 125.748 21.0877 125.4C20.8453 125.66 20.5353 125.809 20.2008 125.878ZM6.3287 117.651C6.35172 117.653 6.37338 117.665 6.38422 117.688C6.83376 118.615 6.64568 119.65 5.91166 120.377C5.52711 120.755 4.68896 121.183 4.71618 121.805C4.7392 122.309 5.28745 122.731 5.5217 123.146C5.73969 123.533 5.82094 123.958 5.64627 124.377C5.42285 124.914 4.79865 125.128 4.58471 125.656C4.3139 126.325 4.75396 127.133 5.06268 127.716C5.34973 128.256 5.72087 128.796 5.96717 129.367C7.61774 130.221 11.363 131.771 11.814 131.858C12.3636 131.965 12.9147 132.066 13.4673 132.161C14.5275 132.345 15.5903 132.515 16.6559 132.665C17.2625 132.751 17.8705 132.835 18.4784 132.901C19.0092 132.958 19.6077 133.035 20.0356 132.636C20.8981 131.829 20.4147 130.478 19.869 129.663C19.8582 129.647 19.8582 129.632 19.8623 129.619C19.3477 129.498 18.8346 129.357 18.3227 129.259C17.3383 129.069 16.3472 128.91 15.3547 128.768C13.3155 128.477 11.2628 128.285 9.21293 128.091C8.70517 128.042 8.69975 127.244 9.21293 127.292C12.158 127.561 15.1177 127.816 18.0235 128.383C18.752 128.524 19.4752 128.684 20.194 128.864C20.5339 128.948 20.8981 129.079 21.2542 129.083C21.2759 129.083 21.2977 129.083 21.3192 129.081C22.0165 129.06 22.1181 128.463 21.7349 127.967C21.6875 127.906 21.6388 127.845 21.5887 127.787C20.9117 126.98 20.0682 126.442 19.1989 125.884C18.2252 125.752 17.2544 125.457 16.3012 125.24C13.9479 124.705 11.5945 124.169 9.23988 123.634C8.77828 123.529 8.97449 122.82 9.43621 122.924C11.2235 123.329 13.0109 123.733 14.7983 124.138L17.4142 124.73C17.9368 124.848 18.5896 125.085 19.2043 125.17C19.5075 125.212 19.8013 125.217 20.0667 125.155C20.9238 124.952 20.9672 123.882 20.5975 123.246C20.1832 122.532 19.4005 122.085 18.7059 121.681C17.5022 120.979 16.2213 120.474 14.9701 119.892C14.7481 119.844 14.526 119.795 14.304 119.746C13.0122 119.462 11.5363 119.323 10.3204 118.802C9.95616 118.648 10.1553 118.074 10.5154 118.082C11.4591 118.102 12.4462 118.438 13.3683 118.637C14.3662 118.853 15.3655 119.068 16.3634 119.283C16.4636 119.305 17.0567 119.494 17.1461 119.453C17.2029 119.425 17.2233 119.228 17.2422 119.098C17.3033 118.671 17.3478 118.221 17.2815 117.792C17.1352 116.831 16.3323 116.379 15.5199 116.009C13.7109 115.188 11.7272 114.674 9.75305 114.468C9.2981 114.421 8.84314 114.391 8.38548 114.376C7.84806 114.36 7.40516 114.265 7.133 114.794C6.70512 115.628 6.46952 116.699 6.3287 117.651ZM8.84105 147.868C9.23521 146.506 9.12798 145.051 9.39797 143.662C9.53731 142.945 9.72755 142.234 9.93526 141.534C10.1029 140.969 10.3825 140.368 10.4142 139.778C10.4161 139.739 10.3696 139.716 10.3377 139.734C9.78158 140.052 9.35451 140.74 9.03739 141.28C8.65771 141.926 8.36781 142.602 8.13396 143.314C7.6679 144.731 7.28525 146.44 7.88631 147.868C8.06518 148.293 8.69346 148.378 8.84105 147.868ZM24.2241 158.18C24.8114 157.77 25.2395 157.197 25.7376 156.692C26.2275 156.195 25.4616 155.43 24.9716 155.927C24.5466 156.358 24.1776 156.896 23.6774 157.245C23.4367 157.413 23.3253 157.716 23.483 157.985C23.6225 158.223 23.984 158.347 24.2241 158.18ZM27.4999 142.438C26.4276 141.975 25.3731 141.471 24.2509 141.137C23.5802 140.937 23.2963 141.982 23.9629 142.18C24.9964 142.488 25.9657 142.946 26.9531 143.373C27.5871 143.647 28.138 142.714 27.4999 142.438ZM38.8235 142.114C39.0858 141.468 38.0374 141.189 37.779 141.827C37.4816 142.56 37.1406 143.275 36.8431 144.008C36.5811 144.655 37.6293 144.934 37.8876 144.296C38.1851 143.563 38.5262 142.848 38.8235 142.114ZM50.0003 155.024C50.1749 155.257 50.4662 155.383 50.7413 155.218C50.9718 155.08 51.1125 154.713 50.9356 154.478C50.4193 153.79 49.8963 153.111 49.2912 152.498C48.8006 152.001 48.035 152.767 48.5252 153.263C49.0656 153.81 49.5391 154.41 50.0003 155.024ZM51.5982 82.5882C51.101 82.9275 50.6654 83.3398 50.2407 83.7639C49.7468 84.2571 50.513 85.0223 51.0068 84.5292C51.3647 84.1717 51.7257 83.8088 52.145 83.5228C52.3873 83.3575 52.496 83.05 52.3393 82.7824C52.1989 82.5426 51.8399 82.4234 51.5982 82.5882ZM35.3375 100.006C35.6186 100.568 35.8716 101.119 35.8876 101.759C35.9047 102.455 36.9879 102.455 36.9707 101.759C36.95 100.922 36.6413 100.197 36.2728 99.4593C35.9611 98.8352 35.0271 99.3841 35.3375 100.006ZM29.3717 86.0172C28.7894 85.6293 28.2476 86.5673 28.8249 86.9518C29.2928 87.2634 29.7609 87.5752 30.2288 87.8869C30.8109 88.2747 31.3527 87.3368 30.7756 86.9523C30.3076 86.6406 29.8397 86.3289 29.3717 86.0172ZM55.2494 110.475C55.3488 111.163 56.3925 110.868 56.294 110.187C56.1417 109.134 55.9558 108.095 55.67 107.07C55.4828 106.399 54.4382 106.686 54.6255 107.358C54.9113 108.383 55.0972 109.422 55.2494 110.475ZM59.0471 122.873C59.7443 122.858 59.7444 121.776 59.0471 121.791C58.4161 121.804 57.7958 121.97 57.1872 122.122C56.5102 122.291 56.7988 123.334 57.4752 123.166C57.9897 123.037 58.5136 122.885 59.0471 122.873ZM60.449 147.849C60.6886 147.965 60.9343 148.07 61.1764 148.181C61.6613 148.402 62.1459 148.624 62.6304 148.846C63.6397 149.309 64.6484 149.773 65.6562 150.24C67.6738 151.173 69.7068 152.073 71.7292 152.996C73.7916 153.937 75.8485 154.891 77.9028 155.85C78.8707 156.301 79.8459 156.736 80.8192 157.176C81.6513 157.552 82.68 158.209 83.5936 158.271C83.6406 158.274 83.6563 158.215 83.6295 158.184C83.2843 157.792 82.7338 157.564 82.2802 157.309C81.8168 157.048 81.3448 156.803 80.8749 156.555C79.8954 156.036 78.9147 155.522 77.9257 155.022C75.9475 154.021 73.9654 153.028 71.983 152.036C69.9611 151.025 67.9419 150.006 65.9023 149.031C64.942 148.571 63.9808 148.113 63.019 147.657C62.498 147.409 61.9767 147.163 61.4554 146.916C61.2302 146.81 61.0073 146.695 60.7771 146.599C60.4712 146.473 60.2388 146.499 59.9233 146.421C59.4087 146.294 59.186 146.948 59.581 147.232C59.9062 147.467 60.0774 147.667 60.449 147.849ZM67.6804 158.947C67.7916 158.677 67.5588 158.349 67.3021 158.281C66.9946 158.2 66.748 158.387 66.6357 158.659C66.3388 159.381 65.9158 160.043 65.3714 160.603C64.8847 161.102 65.6503 161.868 66.1373 161.368C66.8196 160.667 67.3098 159.847 67.6804 158.947ZM73.0008 141.574C73.4946 141.08 72.7285 140.315 72.2348 140.808L70.831 142.211C70.3372 142.704 71.1034 143.47 71.597 142.976L73.0008 141.574ZM87.4037 139.287C88.413 139.583 89.5902 139.854 90.2783 140.715C90.3119 140.757 90.3684 140.703 90.3482 140.661C89.4673 138.836 86.9409 138.196 85.1918 137.557C83.9546 137.104 82.6852 136.729 81.4051 136.394C81.533 134.935 81.1802 133.371 81.0575 131.919C80.9266 130.369 80.82 128.815 80.7653 127.26C80.7094 125.674 80.6958 124.077 80.7481 122.49C80.8001 120.909 81.0055 119.347 81.0954 117.772C81.1041 117.619 80.8918 117.612 80.846 117.738C80.3144 119.2 80.0873 120.82 79.9143 122.361C79.7361 123.95 79.6769 125.533 79.6997 127.131C79.7232 128.773 79.8188 130.412 79.95 132.049C80.0122 132.825 80.0844 133.6 80.1525 134.375C80.2045 134.967 80.2286 135.554 80.3493 136.127C79.5773 135.938 78.8034 135.759 78.032 135.585C75.5723 135.03 73.1023 134.515 70.6528 133.916C69.4504 133.621 68.2653 133.269 67.0683 132.956C65.9412 132.661 64.7515 132.304 63.5944 132.172C63.1814 132.125 63.1289 132.689 63.4022 132.881C64.3427 133.541 65.5918 134 66.6782 134.37C67.7685 134.74 68.9018 135.007 70.0193 135.281C72.3497 135.854 74.7022 136.322 77.0512 136.81C79.3969 137.297 81.7471 137.781 84.0664 138.382C85.1834 138.671 86.2965 138.962 87.4037 139.287ZM92.9346 110.331C93.5377 110.684 94.0822 109.749 93.4813 109.396C92.695 108.935 91.857 108.588 91.0122 108.25C90.3639 107.991 90.0849 109.038 90.7242 109.294C91.4834 109.598 92.2281 109.916 92.9346 110.331ZM95.1181 150.542C95.7228 150.893 96.2676 149.957 95.6647 149.608C94.8179 149.117 93.8905 148.79 93.013 148.361C92.3886 148.055 91.8402 148.989 92.4663 149.295C93.3437 149.725 94.2713 150.052 95.1181 150.542ZM96.1002 127.716C95.5156 128.271 94.7352 128.533 93.9994 128.824C93.3579 129.078 93.6393 130.124 94.2874 129.868C95.2041 129.504 96.1379 129.173 96.8662 128.482C97.3729 128.001 96.6056 127.237 96.1002 127.716ZM89.632 96.7168C88.9892 96.9688 89.2707 98.0151 89.92 97.7606C90.64 97.4784 91.3837 97.2636 92.1037 96.9813C92.7464 96.7294 92.465 95.6832 91.8157 95.9375C91.0957 96.2198 90.352 96.4346 89.632 96.7168ZM78.2211 84.4039C77.5381 84.2889 77.2473 85.332 77.9331 85.4477C78.784 85.5913 79.6219 85.7592 80.4289 86.0712C81.0806 86.3231 81.3602 85.2762 80.7169 85.0275C79.9097 84.7155 79.0718 84.5475 78.2211 84.4039ZM74.4507 114.383C75.077 114.075 74.5275 113.142 73.9041 113.448C73.2471 113.771 72.5664 114.021 71.8496 114.173C71.167 114.318 71.4578 115.362 72.1376 115.217C72.9444 115.045 73.712 114.746 74.4507 114.383ZM70.8899 97.4961C70.2156 97.3116 69.9305 98.3559 70.6019 98.5399C71.7833 98.8633 72.9996 99.0315 74.1897 99.3192C74.8679 99.4832 75.1549 98.4393 74.4777 98.2756C73.2876 97.9877 72.0712 97.8198 70.8899 97.4961ZM55.7836 92.1969C55.0979 92.3236 55.3901 93.3666 56.0714 93.2406C56.7968 93.1066 57.5319 93.1044 58.2673 93.104C58.9654 93.1037 58.9642 92.0214 58.2673 92.0216C57.4318 92.0221 56.6071 92.0446 55.7836 92.1969ZM6.51559 97.8515C8.28531 97.6824 10.0577 97.5471 11.8329 97.4456C11.9156 97.4414 11.9967 97.4362 12.0795 97.432C12.0888 97.4132 12.101 97.3954 12.1133 97.3765C12.6927 96.5269 13.1192 95.6773 13.4889 94.7166C13.8423 93.802 14.1848 92.8592 14.7292 92.0339C15.35 91.0936 16.1881 90.3578 17.1067 89.7202C17.6639 90.0945 18.181 90.5329 18.6541 90.9975C19.152 91.4863 19.9181 90.7211 19.4201 90.2321C18.9997 89.8192 18.5509 89.4378 18.0766 89.0932C18.6243 88.7607 19.1831 88.4481 19.7283 88.1372C21.7716 86.9725 23.8635 85.8954 25.9988 84.9106C26.9913 84.4518 27.996 84.0446 29.0075 83.6319C29.5519 83.4102 30.0893 83.1246 30.6337 82.8676C30.5944 82.4833 30.7095 82.053 31.0047 81.8C31.2227 81.6147 31.3919 81.5457 31.6519 81.4146C31.7101 81.3941 31.7453 81.382 31.7616 81.3752C31.7494 81.3779 31.7142 81.3887 31.6561 81.4077C31.5179 81.4714 31.507 81.4523 31.6235 81.3522C31.6302 81.1332 32.0623 80.6705 32.161 80.4445C32.505 79.6691 32.6119 78.8493 33.1197 78.143C33.8197 77.1702 34.995 76.8024 36.0906 77.1324C36.2042 75.9621 36.234 74.7405 36.6754 73.6959C36.6876 73.6676 36.7268 73.6553 36.7444 73.6864C37.2048 74.4699 37.2441 75.3424 37.2793 76.2462C37.3131 77.0945 37.2808 77.9617 37.1696 78.8046C37.24 78.8587 37.3118 78.9103 37.3862 78.9602C37.7356 79.1902 38.112 79.3674 38.5074 79.4988C39.2602 79.7476 40.0496 79.8558 40.839 79.8937C42.8769 79.9911 44.977 79.7855 46.9809 79.4364C49.0079 79.0833 52.1154 78.553 53.919 77.5396C55.1094 76.8714 56.2073 76.0554 57.3205 75.2653C56.9169 73.9665 56.8139 72.5702 57.2202 71.473C57.2689 71.3418 57.4747 71.3174 57.514 71.473C57.7685 72.5202 57.843 73.5728 58.1815 74.6078C58.1869 74.6226 58.1924 74.639 58.1978 74.6538C58.3034 74.5822 58.409 74.5117 58.5146 74.4414C58.7583 74.2804 59.0901 74.4009 59.2363 74.6308C61.5749 78.3121 65.278 78.5232 69.1668 79.1809C73.4227 79.9005 77.6999 80.6771 81.7918 82.0855C85.705 83.4332 89.4449 85.3949 92.4075 88.3254C93.0781 88.9889 93.7053 89.6958 94.2973 90.4339C93.7246 90.506 93.1565 90.6183 92.5958 90.7943C91.9319 91.0026 92.2172 92.0472 92.8838 91.8379C93.6044 91.6117 94.3331 91.4998 95.0691 91.4441C97.0822 94.1957 98.6518 97.3158 100.009 100.387C102.612 106.275 104.307 112.546 105.087 118.93C104.659 118.673 104.223 118.429 103.776 118.202C103.155 117.887 102.608 118.821 103.229 119.137C103.919 119.487 104.59 119.874 105.239 120.293C105.523 123.088 105.633 125.9 105.566 128.708C105.408 135.402 104.503 142.293 102.457 148.68C101.454 151.815 100.124 154.924 98.1432 157.573C97.2468 158.773 96.2286 159.856 95.0289 160.758C94.448 161.196 93.8333 161.587 93.1847 161.917C92.3493 162.345 91.2606 162.486 90.5403 163.09C90.3033 163.29 90.1205 163.552 89.9824 163.848C90.0623 164.411 90.0718 164.975 89.9174 165.538C89.8687 165.714 89.736 165.857 89.5721 165.926C89.5694 165.975 89.5694 166.022 89.5694 166.068C89.5694 166.09 89.5369 166.095 89.5329 166.074C89.5261 166.032 89.5193 165.99 89.5126 165.947C89.4597 165.964 89.4042 165.972 89.3474 165.972C87.2906 165.98 85.2312 165.93 83.1717 165.86C83.331 165.373 83.5035 164.889 83.6691 164.402C83.894 163.74 82.8474 163.458 82.6246 164.114C82.4308 164.684 82.2282 165.249 82.048 165.821C79.8414 165.739 77.6354 165.641 75.4333 165.568C70.7497 165.412 66.0674 165.361 61.3826 165.262C54.1072 165.108 46.7789 164.792 39.4923 165.101C39.2403 164.567 38.9583 164.045 38.6909 163.517C38.3754 162.895 37.4411 163.444 37.7555 164.064C37.9414 164.43 38.1339 164.792 38.3169 165.157C36.8411 165.234 35.3668 165.335 33.8957 165.473C31.3853 165.708 28.8991 166.126 26.3915 166.386C23.842 166.651 21.3477 166.604 18.8184 166.183C18.3634 166.108 18.0953 165.833 17.9843 165.492C17.9803 165.491 17.9775 165.488 17.9749 165.484C17.8449 165.332 17.7229 165.207 17.5972 165.097C17.4467 165 17.2842 164.917 17.0933 164.844C16.7372 164.709 16.3662 164.626 15.9898 164.571C15.5754 164.509 15.1557 164.503 14.7414 164.452C14.3922 164.407 14.0508 164.341 13.7097 164.26C13.0962 164.113 12.514 163.923 11.9344 163.67C11.4294 163.449 10.9732 163.133 10.5425 162.787C9.65154 162.137 8.87987 161.306 8.20542 160.443C7.81275 159.938 7.4431 159.415 7.1073 158.869C6.52235 157.925 6.02408 156.944 5.52038 155.955C5.33758 155.662 5.17076 155.362 5.0183 155.055C6.00268 154.766 6.99654 154.529 8.04009 154.513C8.73769 154.501 8.73756 153.419 8.04009 153.43C6.84326 153.449 5.71116 153.729 4.58636 154.062C4.53152 153.916 4.47898 153.77 4.43037 153.621C4.29632 153.312 4.18529 152.993 4.09322 152.671C4.03919 152.525 3.98489 152.379 3.93073 152.233C3.80887 151.727 3.68701 151.22 3.56379 150.712C3.31871 149.901 3.12521 149.077 2.9829 148.242C2.86375 147.693 2.77168 147.139 2.7094 146.579C2.51983 145.222 2.36547 143.868 2.35464 142.496C2.37089 141.65 2.42504 140.806 2.51712 139.966C2.55638 139.395 2.62273 138.827 2.7121 138.263C2.82854 137.424 2.94364 136.593 3.13727 135.765C3.28215 135.205 3.42703 134.645 3.57191 134.085C3.93344 132.917 4.35996 131.772 4.85162 130.654C4.87856 130.583 5.01545 130.429 5.09791 130.428C5.16019 130.426 5.24699 130.483 5.21856 130.559C5.21571 130.566 5.21314 130.574 5.2103 130.581C5.23873 130.517 5.26581 130.452 5.29424 130.388C5.31862 130.329 5.41341 130.21 5.48653 130.211C5.49059 130.211 5.49478 130.211 5.50006 130.213C5.4811 130.199 5.4635 130.181 5.4459 130.161C4.9598 129.586 4.64431 128.83 4.29632 128.164C4.00791 127.615 3.73576 127.036 3.65722 126.415C3.5883 125.87 3.68159 125.332 4.02416 124.891C4.41412 124.389 5.14801 124.154 4.74045 123.429C4.27737 122.604 3.59629 121.888 4.27466 120.95C4.61994 120.473 5.16697 120.21 5.57317 119.795C6.04032 119.315 6.26251 118.672 6.25019 118.016C6.22176 118.032 6.18385 118.024 6.17031 117.983C5.77764 116.798 6.06199 115.497 6.46413 114.342C6.68349 113.716 7.14806 113.544 7.68818 113.513C5.34854 108.947 3.15907 104.308 1.20776 99.5615C1.14278 99.4059 1.07913 99.2505 1.01562 99.0947C0.920708 98.862 1.12111 98.5524 1.35265 98.5008C3.03978 98.1314 4.79732 98.0137 6.51559 97.8515Z" fill="black"></path> <path fill-rule="evenodd" clip-rule="evenodd" d="M33.4573 28.1682C42.344 20.9358 56.5851 18.5875 66.0978 25.8841C73.4893 32.7318 76.5481 52.1907 75.24 61.9687C74.8762 68.2403 70.091 75.3488 63.0667 73.3652C61.8738 73.2477 60.7156 72.7898 59.5119 72.6939C58.0719 72.5279 56.621 72.5251 55.1839 72.7284C52.0524 73.1719 49.2764 74.8367 46.2371 75.6151C40.5974 77.0592 34.3048 76.0878 29.4503 72.8347C13.4081 62.2739 20.6748 38.3897 33.4573 28.1682Z" fill="#AE5D29"></path> <path fill-rule="evenodd" clip-rule="evenodd" d="M34.6411 75.7888C34.4761 75.7318 34.3114 75.6724 34.1479 75.6115C34.1371 75.6494 34.1196 75.6858 34.0992 75.7211C34.0762 75.778 34.0532 75.8333 34.0277 75.8888C34.2329 75.8903 34.4384 75.8536 34.6411 75.7888ZM34.9703 5.70322C35.0432 5.53964 35.1271 5.3827 35.2217 5.23104C34.992 5.30558 34.7622 5.40841 34.5541 5.541C34.6946 5.58835 34.8326 5.64247 34.9703 5.70322ZM70.0727 27.1016C70.0821 27.1 70.0914 27.0986 70.1008 27.097C69.9802 26.7757 69.7655 26.4723 69.5284 26.2533C69.4858 26.2139 69.4398 26.1775 69.3952 26.1399C69.6469 26.4401 69.8752 26.7604 70.0727 27.1016ZM5.84486 60.7019C5.96377 59.5736 6.1151 58.4494 6.31102 57.3317C6.49883 56.2617 6.65693 55.1171 7.20145 54.1673C7.74193 53.2216 8.28374 52.3028 8.92677 51.4709C8.83502 51.0461 8.71328 50.6469 8.60802 50.3249C7.99999 48.4714 7.40128 46.1173 8.66477 44.395C8.95798 43.9959 9.31591 43.6901 9.72546 43.4141C9.89976 43.2964 10.1888 43.1895 10.3227 43.0271C10.4173 42.9121 10.3847 42.9744 10.3889 42.9176C10.4118 42.6118 9.69572 41.9664 9.52818 41.7243C9.21457 41.2763 8.98095 40.7718 8.8026 40.2563C8.09728 38.2161 8.57695 35.9688 9.00108 33.9244C9.22538 32.8408 9.47265 31.7544 9.55385 30.6477C9.62952 29.6086 9.48765 28.5939 9.40387 27.5603C9.32267 26.54 9.34428 25.4875 9.78085 24.5431C9.99433 24.083 10.3171 23.6772 10.7105 23.3606C11.0941 23.0509 11.5725 22.8709 11.9467 22.5625C12.3197 22.2552 12.213 21.84 12.1155 21.4152C11.9819 20.8388 11.813 20.2665 11.7968 19.6712C11.7671 18.6335 12.19 17.6227 12.8506 16.8382C13.5317 16.0277 14.5046 15.4797 15.5558 15.3565C16.0368 15.2997 16.5097 15.3959 16.988 15.3621C17.461 15.3296 17.5635 15.0929 17.6528 14.6599C17.8581 13.6682 17.7744 12.6887 18.2621 11.7633C18.6944 10.9407 19.4634 10.3831 20.3133 10.0545C21.8711 9.45107 23.683 9.57554 25.3262 9.93123C26.2962 7.07394 29.3242 5.20011 32.3035 5.17711C32.7685 4.38699 33.5562 3.7971 34.4546 3.45061C35.9409 2.87561 37.5151 3.21127 39.0635 3.21127H39.0702C39.2257 3.20167 39.3811 3.19774 39.5364 3.1991C39.6824 3.19084 39.8284 3.17867 39.9743 3.16257C41.7362 2.95408 43.4792 2.23161 45.225 2.93933C46.0033 3.25457 46.6221 3.74028 47.0138 4.35993C47.6043 4.52079 48.1868 4.70493 48.7582 4.91869C51.235 4.9835 53.6888 6.31345 54.9412 8.46883C56.7044 8.26859 58.6177 8.60818 59.7839 10.0504C60.0877 10.4257 60.3229 10.8667 60.4788 11.3348C61.6679 11.7198 62.7681 12.4059 63.4882 13.4393C64.1453 14.3823 64.2715 15.6016 63.8271 16.6138C64.8885 17.3838 65.718 18.486 66.1176 19.7876C66.3604 20.5784 66.3965 21.3954 66.2403 22.1738C67.327 22.4151 68.3665 22.8626 69.2874 23.534C70.2526 24.2374 71.458 25.357 71.5215 26.6455C71.5262 26.7401 71.5226 26.8347 71.515 26.929C73.6397 26.7795 75.8062 27.1399 77.2424 28.8456C78.3207 30.1253 78.7895 31.7733 78.5017 33.2738C81.0297 33.7879 83.4201 35.1111 85.0874 37.0674C86.2993 38.4894 87.3762 40.2969 87.3115 42.2328C87.2912 42.8161 87.1546 43.4033 86.9182 43.9458V43.947C87.0195 44.1379 87.1237 44.3503 87.2237 44.5763C88.7897 45.6734 89.9274 47.3931 90.5678 49.2886C91.0852 50.824 91.4108 52.8184 90.8583 54.3811C90.7744 54.6192 90.6677 54.8438 90.5434 55.052C90.6475 55.1631 90.746 55.274 90.842 55.3863C91.8974 56.6214 92.9662 58.1773 92.8931 59.878C92.8633 60.5627 92.6095 61.2513 92.1945 61.8167C93.6539 63.2984 94.8293 65.1681 94.7132 67.2557C94.6133 69.0727 93.6173 70.9182 92.0568 71.7908C92.3175 73.1911 91.9689 74.6685 90.8799 75.7617C90.3366 76.3083 89.6963 76.6682 89.0179 76.8603C88.8666 78.5095 87.4047 79.8368 85.8522 80.2182C85.5629 80.29 85.2738 80.3333 84.9861 80.3535C83.589 81.0395 81.923 80.9609 80.4975 80.3318C80.0773 80.8664 79.53 81.302 78.8923 81.6145C78.6342 81.7417 78.3611 81.8473 78.0762 81.9324C76.0629 82.529 73.9982 81.7201 72.2377 80.7757C72.181 80.746 72.0769 80.7081 71.9851 80.6661C71.7419 80.9381 71.2987 81.2073 71.0676 81.3399C70.2838 81.7904 69.3258 82 68.4259 81.9406C67.3707 81.8703 66.4398 81.5212 65.5778 81.0247C65.452 81.0463 65.3251 81.0585 65.198 81.0653C64.3873 81.1084 63.6645 80.8515 63.0145 80.4456C62.5849 80.5024 62.1444 80.497 61.6985 80.4185C60.7161 80.6687 59.7595 80.2711 58.9908 79.6392C58.6501 79.3592 58.3625 79.0304 58.0543 78.7165C57.7342 78.3903 57.4908 78.3147 57.1167 78.0955C56.2315 77.5774 56.1249 76.2636 56.5087 75.3137C56.4357 75.1475 56.3937 74.9621 56.3937 74.7565C56.3965 72.9625 57.222 71.3173 58.2353 69.8818C58.6881 69.2418 59.1798 68.6153 59.7191 68.0472C60.1528 67.5911 60.762 66.8512 61.4039 66.6657C61.443 66.6374 61.4837 66.6089 61.5242 66.582C61.3998 66.1462 61.327 65.7025 61.3579 65.2493C61.3905 64.7838 61.5405 64.3427 61.7808 63.9667C60.9743 62.4014 60.6337 60.6845 60.7958 58.8932C60.1393 57.9608 59.6419 56.9314 59.3853 55.803C59.2272 55.1049 59.1366 54.3703 59.1489 53.6544C59.1543 53.3109 59.2799 52.8765 59.2825 52.5208C59.2636 52.6331 59.1177 52.2137 59.0609 52.1093C58.4098 50.8986 57.5734 49.9542 57.4341 48.5269C57.3532 47.692 57.5504 46.7694 58.0504 46.0848C57.7301 44.8212 57.7342 43.464 58.2382 42.2587C58.3733 41.9367 58.5285 41.6214 58.7069 41.3224C58.6246 41.0708 58.5488 40.8164 58.4517 40.5877C58.4137 40.497 58.376 40.4051 58.3382 40.3131C57.972 39.9896 57.6314 39.6367 57.3449 39.2902C56.71 38.5232 56.2248 37.6438 56.164 36.6303C56.1343 36.1229 56.2532 35.6372 56.4004 35.1557C56.4654 34.9379 56.5046 34.6957 56.5816 34.4833C56.6247 34.3654 56.7289 34.2452 56.7653 34.1342C56.7735 34.1099 56.7803 34.0896 56.7857 34.0733C56.7803 34.0571 56.7761 34.0233 56.7761 33.9596C56.7748 33.4739 56.7113 32.999 56.7085 32.531C56.264 32.9802 55.7289 33.3156 55.1209 33.5119C53.8955 33.9056 52.6171 33.727 51.5323 33.1195C50.3647 33.9205 49.0529 34.6455 47.6772 34.9365C46.8599 35.1096 46.0409 35.038 45.2209 35.1449C44.4062 35.2518 43.6183 35.6076 42.851 35.8849C41.1429 36.5032 39.4392 37.1376 37.7259 37.7398C36.3423 38.2255 34.8452 38.6111 33.3966 38.3378C32.9899 38.9655 32.4616 39.496 31.7847 39.8856C31.2997 40.163 30.7674 40.3509 30.2174 40.4444C29.731 40.5269 29.1607 40.4944 28.7663 40.8286C28.3812 41.1533 28.1407 41.6375 27.7948 42.003C27.4095 42.4116 26.9341 42.766 26.4355 43.0204C26.0355 43.2247 25.6273 43.372 25.2127 43.4682C25.249 44.3923 25.2843 45.315 25.2951 46.2404C25.3152 48.2509 25.3072 50.2612 25.3341 52.2718C25.3612 54.2754 25.4247 56.2793 25.5301 58.2803C25.6302 60.1582 25.7707 62.0427 26.2179 63.8747C27.7015 69.9535 33.2589 74.3059 39.4798 74.5278C41.3267 74.5941 43.155 74.3343 44.921 73.7903C46.7503 73.2263 48.384 72.0653 50.2595 71.7083C50.7499 71.6161 51.212 72.1101 50.931 72.5848C50.4471 73.4008 49.8595 73.8987 49.0556 74.3897C48.2136 74.9026 47.2761 75.2828 46.3505 75.6156C44.648 76.227 42.8468 76.5816 41.0402 76.6804C39.6622 76.756 38.2786 76.6614 36.9287 76.4016C36.834 76.6925 36.6665 76.9753 36.5396 77.2445C36.5207 77.2838 36.457 77.2567 36.4692 77.2161C36.4896 77.1485 36.503 77.0889 36.5084 77.0402C36.0545 77.6328 35.3533 78.0426 34.6329 78.2417C34.125 78.3824 33.5858 78.4255 33.0629 78.3661C32.894 78.347 32.7333 78.3188 32.5737 78.2836C32.0415 78.7504 31.3605 79.0615 30.6768 79.2171C30.7942 79.9315 30.4417 80.7108 29.6241 80.9137C29.2811 80.999 28.9514 81.0003 28.6216 80.9692C28.3554 81.0937 28.0689 81.1911 27.7649 81.2574C27.3691 81.344 26.8962 81.2329 26.5976 80.9462C26.4341 81.0612 26.2814 81.141 26.1301 81.3235C25.5071 82.0759 24.1641 81.4765 24.1047 80.6066C23.9074 80.6066 23.7088 80.6093 23.51 80.6161C23.4629 80.6377 23.4156 80.6594 23.367 80.6824C22.4981 81.0868 21.5983 81.44 20.6374 81.1221C20.4606 81.0638 20.2984 80.9895 20.1511 80.9029C19.4742 80.9638 18.8067 80.9651 18.1202 80.7433C17.7148 80.6119 17.3339 80.4037 17.0164 80.1304C15.9571 80.4415 14.8395 80.5823 13.7856 80.1965C12.9967 79.9085 12.3615 79.4539 11.9144 78.8544C11.2305 78.8789 10.5362 78.7138 9.91057 78.3878C8.84043 77.8331 8.09052 76.779 7.56762 75.7225C6.41628 73.3913 5.73528 70.887 5.46789 68.3043C5.20441 65.7607 5.58003 63.2307 5.84486 60.7019Z" fill="black"></path> <path fill-rule="evenodd" clip-rule="evenodd" d="M38.4807 66.0788C39.3909 65.7077 40.2031 65.0888 40.7968 64.2982C41.0033 64.0234 41.0568 63.7332 41.0135 63.4677C40.9648 63.1692 40.7881 62.8987 40.547 62.7173C40.3053 62.5352 40.0029 62.4455 39.7105 62.4912C39.4564 62.531 39.2035 62.67 39.0034 62.9582L38.9615 63.0159C38.6085 63.4931 38.1486 63.8846 37.6244 64.1369C37.1193 64.3802 36.5543 64.4937 35.9696 64.4277C34.8561 64.302 34.0886 63.7003 33.2728 62.8831C33.1717 62.78 33.0705 62.6736 32.9688 62.5654C32.9046 62.4674 32.8155 62.4045 32.7166 62.3714C32.6067 62.3347 32.4825 62.3368 32.3687 62.3765C32.2589 62.4148 32.1608 62.4873 32.095 62.5838C32.0324 62.6756 31.997 62.7889 32.0085 62.9193C32.0831 63.7661 32.5262 64.5219 33.1556 65.1153C33.8546 65.7744 34.7812 66.2304 35.6536 66.3903C36.6146 66.5664 37.5939 66.4402 38.4807 66.0788ZM35.2003 53.0148C34.1778 53.6358 32.6198 55.0839 33.7198 56.6234C35.0145 57.9809 36.8787 56.4245 37.7973 55.7205C38.6491 55.175 39.6061 56.5781 38.8158 57.2151C32.1778 62.1257 29.484 53.1772 34.6831 52.2846C35.2555 52.1863 35.4681 52.8227 35.2003 53.0148ZM47.0955 47.3026C46.9826 45.9014 44.8469 45.5833 44.6344 46.9698C44.4442 48.2118 44.6682 49.3527 45.2281 50.4709C45.763 51.5392 47.1077 51.0408 47.2093 50.068C47.3457 48.7641 47.1658 48.1742 47.0955 47.3026ZM30.8384 46.6823C30.5406 46.2926 30.1107 46.0266 29.5957 46.1769C27.9864 46.6468 28.4607 48.9297 29.0259 50.0408C29.333 50.6442 30.3256 50.7973 30.7742 50.266C31.5054 49.3995 31.8556 47.6692 30.926 46.8158C30.9008 46.7717 30.8728 46.7272 30.8384 46.6823ZM45.2506 41.1716L44.9964 41.1271C44.21 40.9912 43.2322 40.8606 42.6759 41.4924C42.3809 41.8274 42.2793 42.45 42.6759 42.7706C43.3735 43.3348 44.1448 43.1162 44.9808 43.1639C45.6697 43.2034 46.3318 43.3174 46.9954 43.5069C48.4513 43.9227 49.6376 44.6817 50.881 45.5151C51.0442 45.6244 51.2107 45.4159 51.1328 45.2634C50.4151 43.8587 49.0241 42.7047 47.6308 42.0013C46.8871 41.6259 46.0733 41.3144 45.2506 41.1716ZM32.3054 40.5423L32.1109 40.5821C29.9935 41.0243 27.2426 41.9077 26.24 43.9857C26.2018 44.2796 26.2421 44.3426 26.275 44.3837L26.2859 44.3974C26.3129 44.4325 26.3345 44.481 26.462 44.521C26.4974 44.5125 26.5331 44.5036 26.5692 44.4942C27.0288 44.3738 27.3924 44.208 27.7445 44.036L28.1262 43.8481C28.569 43.6311 29.0158 43.4221 29.4892 43.2677C30.4996 42.9384 31.5389 42.7065 32.5943 42.5826C32.823 42.5558 33.0433 42.4786 33.2171 42.3464C33.382 42.2209 33.508 42.0472 33.5655 41.8163C33.6399 41.5174 33.6185 41.2911 33.458 41.0215C33.3374 40.819 33.1647 40.6786 32.9664 40.598C32.7643 40.5159 32.5342 40.4965 32.3054 40.5423Z" fill="black"></path> </g> <defs> <clipPath id="clip0"> <rect width="106" height="165" fill="white" transform="matrix(-1 0 0 1 106 0)"></rect> </clipPath> </defs> </svg> 